<svg id="TARGETS" xmlns="http://www.w3.org/2000/svg" viewBox="0 0 94.85 94.85" width="94.85" height="94.85"><defs><style>.cls-1{fill:#a21942}.cls-2{fill:#fff}</style></defs><title>Goal_8_RGB_NG</title><path class="cls-1" d="M0 0h94.85v94.85H0z"/><path class="cls-2" d="M37.87 61.77a2.5 2.5 0 1 0-2.49-2.49 2.49 2.49 0 0 0 2.49 2.49zM45 71.67l-2.07-6.75s-.74-2-2.38-2h-5.32c-1.64 0-2.38 2-2.38 2l-2.07 6.75s-.37 1.23.68 1.54 1.36-.9 1.36-.9l1.67-5.63s.09-.43.42-.34.2.56.2.56L32.2 77.45h2.71V85a1.3 1.3 0 0 0 2.59 0v-7.55h.74V85a1.3 1.3 0 0 0 2.6 0v-7.55h2.7l-2.9-10.55s-.13-.46.2-.56.42.34.42.34l1.66 5.63s.32 1.21 1.36.9.72-1.54.72-1.54zM73 71.78a.78.78 0 0 0-1.05.34 20.89 20.89 0 0 1-1.33 2 .84.84 0 0 1-.65.31h-2.52a.82.82 0 0 1-.64-.31A24.13 24.13 0 0 1 65.45 72a.75.75 0 0 0-.65-.35.76.76 0 0 0-.76.76 1.42 1.42 0 0 0 .07.33l2.11 3.81a1.4 1.4 0 0 1 .13.51v.56a2.17 2.17 0 0 1-.11.64l-1 4h1.11v3a1 1 0 0 0 2.06 0v-2.83a.47.47 0 0 1 0-.13H69v3a1 1 0 0 0 2.06 0v-3h1.14l-1-4a2.25 2.25 0 0 1-.08-.52v-.68a1.49 1.49 0 0 1 .12-.51l2-3.51.18-.37a.68.68 0 0 0-.42-.93z"/><path class="cls-2" d="M68.72 73.14a2.09 2.09 0 1 0-2.09-2.09 2.08 2.08 0 0 0 2.09 2.09zM13.85 56.77a2.5 2.5 0 1 0 2.49 2.5 2.49 2.49 0 0 0-2.49-2.5zM11.39 51.1a3.81 3.81 0 0 0-.18 1.16c0 1.9.59 3.45 2.43 3.48 2 0 2.51-1.5 2.54-3.41a3.85 3.85 0 0 0-.18-1.21c.46-.17.76-.51.69-.84s-.62-.58-1.21-.45l-.18.06a4 4 0 0 1-1.65.23 4.52 4.52 0 0 1-1.54-.23c-.58-.15-1.12 0-1.22.41a.61.61 0 0 0 .2.58 1.24 1.24 0 0 0 .3.22zm4.16-1h.32c.3 0 .55.11.59.28s-.17.42-.53.56a2.74 2.74 0 0 0-.44-.79zm-3.85 0h.22a2.52 2.52 0 0 0-.44.75.76.76 0 0 1-.22-.17.36.36 0 0 1-.14-.34c.04-.14.27-.26.58-.26zM12.38 49.49a4.86 4.86 0 0 0 1.3.17 4.3 4.3 0 0 0 1.3-.13c.15-.05.23-.1.23-.16s-.67-.37-1.52-.37-1.52.11-1.53.29.09.15.22.2z"/><path class="cls-2" d="M16.57 66.39a.33.33 0 0 1 .21-.22c2.24-.49 2.75-1.27 3.07-2.93L21 56.15a1 1 0 0 0-1-1 1.08 1.08 0 0 0-1 1l-1.15 6.09c-.16.41-.29.54-.71.54h-6c-1.65 0-2.4 2-2.4 2l-2.09 6.8s-.37 1.25.69 1.56 1.37-.91 1.37-.91l1.69-5.68s.09-.43.42-.34.2.56.2.56l-2.95 10.6h2.73V85a1.31 1.31 0 1 0 2.61 0v-7.63h.75V85a1.31 1.31 0 0 0 2.62 0v-7.63h2.72l-2.84-10.31a2.61 2.61 0 0 1-.1-.6.2.2 0 0 1 0-.07z"/><g><path class="cls-2" d="M59.81 61.66h-6.16a3.52 3.52 0 0 0-3.19 3.51v.47s-.05.12-.15 0L49 64.36v-6a.37.37 0 0 0-.74 0v5.51a1 1 0 0 0-.89.13l-.27.29a1 1 0 0 0 .14 1.26l1 1v14h-.92a1 1 0 0 0-.78.31 1.11 1.11 0 0 0-.28.77v4.7h.59v-4.75a.55.55 0 0 1 .11-.35.49.49 0 0 1 .36-.12h.31v5.19h.59v-5.19H49v5.19h.59v-5.19h.28a.55.55 0 0 1 .35.12.37.37 0 0 1 .09.27v4.8h.59v-4.8a.92.92 0 0 0-.28-.7 1.11 1.11 0 0 0-.75-.28H49V67.25L50.73 69a.12.12 0 0 1 .05 0 1 1 0 0 0 1.7-.76V66.2c0-.24.07-.56.5-.56s.36.32.37.52V84.83a1.47 1.47 0 1 0 2.94 0V74a.41.41 0 0 1 .42-.43.41.41 0 0 1 .43.43v10.83a1.47 1.47 0 1 0 2.94 0V66.16c0-.2.07-.52.37-.52s.5.32.5.56v6.12a1 1 0 0 0 2 0v-7.15a3.52 3.52 0 0 0-3.14-3.51z"/><path class="cls-2" d="M56.67 60.66a2.75 2.75 0 1 0-2.74-2.74 2.74 2.74 0 0 0 2.74 2.74z"/></g><g><path class="cls-2" d="M19.77 80.35h11.41v5.95H19.77zM28.83 73.68h-1.28a1.7 1.7 0 1 0-3.4 0h-1.28v6h6zm-4.27 0a1.29 1.29 0 1 1 2.58 0z"/></g><g><path class="cls-2" d="M80.7 60.5a2.64 2.64 0 1 0-2.64-2.64 2.64 2.64 0 0 0 2.64 2.64zM87.79 74.31v-.12a1.16 1.16 0 0 0-1.1-1.19 1 1 0 0 0 .28-.7V65a3.51 3.51 0 0 0-3.19-3.5h-6.16a3.51 3.51 0 0 0-3.2 3.5v7.31a1 1 0 0 0 2 0v-6.26c0-.23.06-.55.5-.55s.36.31.37.51v18.82a1.47 1.47 0 1 0 2.93 0V74a.41.41 0 0 1 .43-.43.41.41 0 0 1 .42.43v10.83a1.47 1.47 0 1 0 2.94 0V66c0-.2.07-.51.37-.51s.49.32.49.55v6.28a1 1 0 0 0 .94 1 1.15 1.15 0 0 0-.38.85v.12h-.61v7.63h3.58v-7.61zm-.28 0h-1.72a.53.53 0 0 1 0-.12.89.89 0 1 1 1.77 0s-.05.08-.05.12z"/></g><path class="cls-2" d="M47.45 44a17.76 17.76 0 1 0-17.76-17.74A17.79 17.79 0 0 0 47.45 44zm9.17-4.46l-.2.14c-.18.12-.38.23-.57.34a16 16 0 0 1-8.26 2.3 16.53 16.53 0 0 1-4.53-.65.67.67 0 0 1-.2-.79A3.6 3.6 0 0 1 46 39c2.62-.25 6.06 1.71 6.61 1.39s1.65-1.76 3.27-1.7a2.4 2.4 0 0 1 1.44.36c-.21.15-.45.34-.7.51zm-12.17-8.32c.64-1.17 2-1.11.95.6-.22.36-.82 3.08-1.23 2.76s.16-3.15.28-3.36zm6.5-3.6c.54 0 1.36.72 1 1a1.44 1.44 0 0 1-1.54-.14c-.41-.32.3-.84.59-.86zm8 10a2.14 2.14 0 0 1-.47-.18c-.88-.45-.78.27-1.21.11s.49-1.16-.8-.32-1-.13-1.52-1.56a2.92 2.92 0 0 1 1.67-3.44 20.27 20.27 0 0 1 2.93-.78c1.94-.49 2.35-1.64 2.7-.94l.19.38a2.62 2.62 0 0 1 .23.83 16.31 16.31 0 0 1-3.74 5.91zm.18-9c-.18-.07-.33-.24-.47-.62a.37.37 0 0 1 .53-.47 1.53 1.53 0 0 1 .76.92c-.02.3-.67.27-.84.2zm1.72 1.49a1.45 1.45 0 0 1-1.56-.11c-.4-.32.26-.84.5-.87.55-.03 1.36.72 1.04 1.01zm2.72-5.22c0 .44.07.89.07 1.34a16 16 0 0 1-.32 3.19c-.54-.36-2.07-2.67-.72-4.23.23-.26-.49-1.06-.29-1.08a1.19 1.19 0 0 1 1.24.81zM36.32 14.56h.1c.24 0 .57.09.61.28a2 2 0 0 1-.22 1 2.62 2.62 0 0 1-1.7.77.56.56 0 0 1-.42-.24 16.45 16.45 0 0 1 1.63-1.81zm-2.49 3.24c0-.05.07-.08.07-.1a2.21 2.21 0 0 1 1.28-.47c.4-.07.94.14 1 .41s-1 .75-1.2.93c-.56.51-1.43 1.56-1.94 1.67a.65.65 0 0 1-.42 0 15 15 0 0 1 1.21-2.44zm-1 14.7a.11.11 0 0 1-.06 0 16.18 16.18 0 0 1-1.26-6.28c0-.54 0-2.54.87-3.1a1.78 1.78 0 0 1 1.08-.23 15.87 15.87 0 0 1 2.65.66c.93.35 2.4 1.15 3.26.79.61-.25 1.1-.58 1-1.1s-.58-.81-1.19-.37c-.23.16-.72-1-1.1-.91s.48 1.33.15 1.38-1-1.33-1.08-1.56-.62-.77-1.07-.35c-.95.91-2.34.55-2.86.75-1.1.43-1.14.14-1.12-.43a.63.63 0 0 1 .13-.43A1.93 1.93 0 0 1 34 21.1c.42.28.71-.07.88-.24a.61.61 0 0 0 0-.66c-.1-.23.22-.39.43-.44a9.47 9.47 0 0 0 1.24-.76A4.11 4.11 0 0 1 39 19a1.28 1.28 0 0 0 1.61-.32 4.22 4.22 0 0 1 1.17-1c.24-.11-.58-.87-1.24 0s-1 .9-1.32.9-2.18-.46-2.41-1.05.59-1 1.27-1.37a16.75 16.75 0 0 1 3.05-.43c1-.22 2.23-.7 2.86-.28s-2.63 1.17-1.56 1.74c.38.22 2.1-1 2.69-1.3 1.38-.7-1.35-1-1-2.4.4-1.64-3.35-1-5.22-.86a15.94 15.94 0 0 1 5.85-2.29c.27 0 .54-.09.82-.12l.39-.05c.49 0 1-.07 1.48-.07a16.2 16.2 0 0 1 15.82 12.76 2.67 2.67 0 0 1-.06.32 1.05 1.05 0 0 1-1.89.14c-.16-.23-.86-.89-.83.23s1.09 1.23.06 1.91a3.92 3.92 0 0 1-1.71.67 2.23 2.23 0 0 0-.83 1.94c.12.61 1.59 2.3.5 2.23a6.3 6.3 0 0 1-2.5-2.19c-.34-.89-.7-1.75-1-2.43a1 1 0 0 0-1.53-.45c-.57.4.17.79-.25 1.63s-.71 1.59-1.31.9c-1.57-1.81-3.86-.92-4.22-2.93-.19-1.09-1.13-1-1.91-1.6s-1.23-.95-1.36-.5 2.47 2.43 2.65 3c.27.78-.77 1.47-1.54 1.65s-1.1-.43-1.85-1.21-1.08-1.34-1.14-.72a3.54 3.54 0 0 0 1.48 2.67c.66.41 1.39.6 1.18 1.27s0 .29-.74 1a2 2 0 0 0-.82 2c.05 1-.2 1.07-.37 1.9s-.52.12-.83 1.34a4.56 4.56 0 0 1-1 2.07 3.26 3.26 0 0 1-2.2.84c-.73 0-.84-2-.84-3 0-.34-.49.68-.74-1.41-.17-1.34-1 .14-1.09-.75s-.49-.72-.94-1.28-1 .06-1.65.34-.3.34-1.19.06z"/></svg>