<svg id="TARGETS" xmlns="http://www.w3.org/2000/svg" viewBox="0 0 94.85 94.85" width="94.85" height="94.85"><defs><style>.cls-1{fill:#bf8b2e}.cls-2{fill:#fff}</style></defs><title>Goal_12_RGB_NG</title><path class="cls-1" d="M0 0h94.85v94.85H0z"/><path class="cls-2" d="M65.3 65.48a11.41 11.41 0 0 0-6.88-2.26 7.71 7.71 0 0 0-1.66.16h-.17c-1.64.39-4.37 1-7.55 5l-.09.12a.35.35 0 0 0-.08.24.41.41 0 0 0 .05.21l.07.11c.53.88 1 1.65 1.31 2.29a.42.42 0 0 0 .68.1l.06-.08c2.75-3.81 4.91-4.31 6.33-4.65h.18a3.93 3.93 0 0 1 .87-.07 8.08 8.08 0 0 1 4.76 1.53c1.6 1.26 2.41 3.27 2.41 6 0 4.54-2.2 6.32-4 7a6.33 6.33 0 0 1-2.26.4 8 8 0 0 1-3.38-.77l-.14-.07c-1.58-.68-4-2.12-6.19-6.62-4.6-9.23-8.46-10.1-11-10.68h-.14a7.12 7.12 0 0 0-1.64-.15A11 11 0 0 0 30 65.47c-1.66 1.33-3.65 3.91-3.65 8.66a10 10 0 0 0 10.21 10.64 12.6 12.6 0 0 0 2.33-.23 10 10 0 0 0 4-1.82l1.34 1.22a.41.41 0 0 0 .55 0 .35.35 0 0 0 .1-.26l1-6.4v-.07a.36.36 0 0 0-.13-.28.35.35 0 0 0-.27-.1l-6.23 1.72h-.12a.37.37 0 0 0-.2.12.35.35 0 0 0-.1.28.33.33 0 0 0 .13.26l1.29 1.17a6.1 6.1 0 0 1-2 .82 8.61 8.61 0 0 1-1.65.16 6.77 6.77 0 0 1-5.35-2.41 6.87 6.87 0 0 1-1.44-4.76c0-2.72.8-4.74 2.37-6a7.87 7.87 0 0 1 4.65-1.5 5 5 0 0 1 .88.07h.14c2 .46 4.83 1.09 8.7 8.87 2 4.1 4.61 6.79 7.84 8.21a11.52 11.52 0 0 0 4.9 1.16 9.75 9.75 0 0 0 3.45-.61c1.88-.7 6.26-3.1 6.26-10.2 0-4.79-2-7.38-3.7-8.71zM46.19 31.25H17.75a.5.5 0 0 0-.5.5v1.15a.51.51 0 0 0 .5.5h28.44a.51.51 0 0 0 .51-.5v-1.15a.5.5 0 0 0-.51-.5zM46.19 52.65H17.75a.5.5 0 0 0-.5.5v2.29a.5.5 0 0 0 .5.5h28.44a.5.5 0 0 0 .51-.5v-2.29a.5.5 0 0 0-.51-.5zM46.62 29.17a15 15 0 0 0-29.25 0 .41.41 0 0 0-.05.19.45.45 0 0 0 .42.44h28.49a.46.46 0 0 0 .43-.46zM45.35 34.91H18.81a.5.5 0 0 0-.5.5v15.41a.5.5 0 0 0 .5.5h26.54a.5.5 0 0 0 .51-.5V35.41a.5.5 0 0 0-.51-.5zm-18.5 14.33h-4.54V37h4.54zm7.64 0H30V37h4.54zm7.71 0h-4.55V37h4.55z"/><path class="cls-2" d="M32 15.53v-5.47h1.37a4.23 4.23 0 0 1 2.35.61A4.88 4.88 0 0 0 38.93 12H41v5.4h-2.12a4.9 4.9 0 0 1-2.44-.81 4.25 4.25 0 0 0-2.81-1c-1.78-.12-1.63-.06-1.63-.06z"/><g><path class="cls-2" d="M57.53 28.26h-1.44v27.72H76.5v-1.67H57.53V28.26z"/><path class="cls-2" d="M59.06 24.89v27.73h19.87V24.89zm17.45 23.92a.2.2 0 0 1-.2.18H61.72a.2.2 0 0 1-.21-.2v-2.12a.21.21 0 0 1 .21-.21H76.3a.2.2 0 0 1 .2.19zm0-4.41a.2.2 0 0 1-.2.18H61.72a.2.2 0 0 1-.21-.2v-2.12a.21.21 0 0 1 .21-.21H76.3a.2.2 0 0 1 .2.18zm0-4.41v.07a.19.19 0 0 1-.18.14h-14.6a.2.2 0 0 1-.2-.21v-2.14a.2.2 0 0 1 .2-.2h14.59a.19.19 0 0 1 .18.14v.06z"/></g></svg>