<svg id="TARGETS" xmlns="http://www.w3.org/2000/svg" viewBox="0 0 94.85 94.85" width="94.85" height="94.85"><defs><style>.cls-1{fill:#26bde2}.cls-2{fill:#fff}</style></defs><title>Goal_6_RGB_NG</title><path class="cls-1" d="M0 0h94.85v94.85H0z"/><path class="cls-2" d="M73.21 73.38l-2.78-2.23a.59.59 0 0 0-.87 0c-8.84 10.48-24 11.58-34.77 3-.32-.26-.62-.54-.93-.81l3.15-2c.32-.2-.12-.46-.12-.46l-10.83-5.41c-.34-.18-.39 0-.39.17v.1L25.62 78c0 .12.1.42.36.25l3.54-2.21c.69.67 1.41 1.32 2.17 1.93 12.8 10.26 30.92 8.89 41.47-3.54l.11-.14a.61.61 0 0 0-.06-.91zM25.74 22.79l2.9 2.07a.59.59 0 0 0 .87-.11c8.23-11 23.3-12.95 34.54-4.95.34.24.66.5 1 .75l-3 2.16c-.31.21.15.45.15.45L73.26 28c.35.16.39-.06.38-.19v-.1L73 15.41c0-.12-.12-.42-.37-.24l-3.45 2.43c-.73-.63-1.48-1.23-2.28-1.8-13.37-9.51-31.38-7.09-41.19 5.93l-.11.14a.62.62 0 0 0 .14.92z"/><path class="cls-2" d="M67.12 71.6l-.09.07c-.3.33.09-.07.09-.07zM32.58 37.07v17.88H9.19V37.07h-.87v18.74h25.12V37.07h-.86z"/><path class="cls-2" d="M10.56 45.87c4.55 4.2 9.27.72 10.26-.11l.1-.09h.19l.1.09c1 .82 5.63 4.25 10.14.22l.13-.12a.25.25 0 0 0 .06-.14v-2.21a.21.21 0 0 0-.21-.21h-.08l-.08.06c-1.37 1-5.88 3.68-9.92-.09l-.06-.06a.28.28 0 0 0-.17-.07.24.24 0 0 0-.17.07l-.07.06c-4 3.71-8.41 1.16-9.85.14l-.11-.08a.23.23 0 0 0-.11 0 .21.21 0 0 0-.21.18v2.26a.23.23 0 0 0 .06.1z"/><path class="cls-2" d="M10.56 50.94c4.55 4.21 9.27.72 10.26-.1l.1-.09h.19l.1.09c1 .82 5.63 4.24 10.14.21l.13-.12a.2.2 0 0 0 .06-.14v-2.22a.22.22 0 0 0-.21-.21h-.08l-.08.06c-1.37 1-5.88 3.68-9.92-.09l-.06-.06a.28.28 0 0 0-.17-.07.24.24 0 0 0-.17.07l-.07.06c-4 3.71-8.41 1.15-9.85.14l-.11-.09a.23.23 0 0 0-.11 0 .21.21 0 0 0-.21.19v2.26a.27.27 0 0 0 .06.11zM10.89 41.35a.35.35 0 1 0 0-.7.35.35 0 1 0 0 .7z"/><circle class="cls-2" cx="12.46" cy="41" r=".35"/><circle class="cls-2" cx="14.03" cy="41" r=".35"/><path class="cls-2" d="M15.59 41.35a.35.35 0 1 0-.35-.35.36.36 0 0 0 .35.35zM17.16 41.35a.35.35 0 1 0-.35-.35.36.36 0 0 0 .35.35z"/><circle class="cls-2" cx="18.73" cy="41" r=".35"/><path class="cls-2" d="M20.3 41.35a.35.35 0 0 0 0-.7.35.35 0 1 0 0 .7zM21.87 41.35a.35.35 0 1 0-.35-.35.35.35 0 0 0 .35.35zM23.44 41.35a.35.35 0 1 0-.35-.35.35.35 0 0 0 .35.35zM25 41.35a.35.35 0 1 0 0-.7.35.35 0 1 0 0 .7zM26.58 41.35a.35.35 0 0 0 0-.7.35.35 0 0 0 0 .7z"/><circle class="cls-2" cx="28.15" cy="41" r=".35"/><path class="cls-2" d="M29.72 41.35a.35.35 0 1 0-.36-.35.35.35 0 0 0 .36.35z"/><circle class="cls-2" cx="31.28" cy="41" r=".35"/><path class="cls-2" d="M11.75 40.13a.34.34 0 0 0 .35-.35.35.35 0 0 0-.35-.35.35.35 0 0 0-.35.35.35.35 0 0 0 .35.35zM13.32 40.13a.34.34 0 0 0 .35-.35.35.35 0 0 0-.35-.35.35.35 0 0 0-.35.35.35.35 0 0 0 .35.35zM14.89 40.13a.35.35 0 0 0 .35-.35.35.35 0 0 0-.7 0 .35.35 0 0 0 .35.35zM16.46 40.13a.35.35 0 0 0 .35-.35.35.35 0 0 0-.35-.35.35.35 0 0 0-.35.35.34.34 0 0 0 .35.35zM18 40.13a.35.35 0 0 0 .35-.35.35.35 0 0 0-.35-.35.35.35 0 0 0-.35.35.34.34 0 0 0 .35.35zM19.6 40.13a.35.35 0 0 0 .35-.35.35.35 0 0 0-.35-.35.35.35 0 0 0-.35.35.34.34 0 0 0 .35.35zM21.17 40.13a.35.35 0 0 0 .35-.35.36.36 0 0 0-.71 0 .35.35 0 0 0 .36.35zM22.73 40.13a.35.35 0 0 0 .36-.35.36.36 0 0 0-.71 0 .35.35 0 0 0 .35.35zM24.3 40.13a.35.35 0 0 0 .36-.35.36.36 0 0 0-.71 0 .35.35 0 0 0 .35.35zM25.87 40.13a.34.34 0 0 0 .35-.35.35.35 0 0 0-.35-.35.35.35 0 0 0-.35.35.35.35 0 0 0 .35.35zM27.44 40.13a.34.34 0 0 0 .35-.35.35.35 0 0 0-.35-.35.35.35 0 0 0-.35.35.35.35 0 0 0 .35.35zM29 40.13a.35.35 0 0 0 .35-.35.35.35 0 0 0-.7 0 .35.35 0 0 0 .35.35zM30.58 40.13a.35.35 0 0 0 .35-.35.35.35 0 1 0-.7 0 .35.35 0 0 0 .35.35zM11 38.92a.36.36 0 0 0 0-.71.36.36 0 0 0 0 .71zM12.54 38.92a.36.36 0 0 0 0-.71.36.36 0 1 0 0 .71zM14.11 38.92a.36.36 0 0 0 0-.71.36.36 0 1 0 0 .71zM15.67 38.92a.36.36 0 1 0-.35-.35.36.36 0 0 0 .35.35zM17.24 38.92a.36.36 0 0 0 0-.71.36.36 0 0 0 0 .71zM18.81 38.92a.36.36 0 0 0 0-.71.36.36 0 0 0 0 .71zM20.38 38.92a.36.36 0 0 0 0-.71.36.36 0 0 0 0 .71zM22 38.92a.36.36 0 1 0-.35-.35.35.35 0 0 0 .35.35zM23.52 38.92a.36.36 0 0 0 0-.71.36.36 0 0 0 0 .71zM25.09 38.92a.36.36 0 0 0 0-.71.36.36 0 0 0 0 .71zM26.66 38.92a.36.36 0 0 0 0-.71.36.36 0 0 0 0 .71zM28.23 38.92a.36.36 0 0 0 0-.71.36.36 0 1 0 0 .71zM29.8 38.92a.36.36 0 0 0 0-.71.36.36 0 1 0 0 .71zM31.36 38.92a.36.36 0 1 0-.35-.35.36.36 0 0 0 .35.35z"/><g><path class="cls-2" d="M43.39 37.21a1.89 1.89 0 1 0-1.89-1.89 1.89 1.89 0 0 0 1.89 1.89M45.59 37.94h-4.41a2.52 2.52 0 0 0-2.29 2.51v5.23a.74.74 0 1 0 1.47 0v-4.49c0-.17 0-.4.36-.4s.25.22.26.37v13.48a1.05 1.05 0 1 0 2.1 0v-7.77a.3.3 0 0 1 .31-.31.29.29 0 0 1 .3.31v7.77a1.05 1.05 0 1 0 2.1 0V41.16c0-.15.06-.37.27-.37s.36.23.36.4v4.49a.73.73 0 1 0 1.46 0v-5.23a2.51 2.51 0 0 0-2.29-2.51M55.61 37.21a1.89 1.89 0 1 0-1.89-1.89 1.89 1.89 0 0 0 1.89 1.89zM59.41 39.6s-.56-1.48-1.8-1.48h-4c-1.25 0-1.81 1.48-1.81 1.48l-1.57 5.11s-.28.94.52 1.17 1-.68 1-.68L53 40.94s.07-.33.32-.26.15.42.15.42l-2.2 8h2v5.73a1 1 0 0 0 2 0V49.1h.56v5.73a1 1 0 0 0 2 0V49.1h2l-2.21-8s-.09-.35.16-.42.31.26.31.26l1.27 4.26s.24.92 1 .68.52-1.17.52-1.17z"/></g><path class="cls-2" d="M86.47 36a.29.29 0 0 0-.18-.07H66.85a.29.29 0 0 0-.18.07.27.27 0 0 0 0 .19L69.89 56a.23.23 0 0 0 .23.19h4.28l.25 2.9h-1.27a.19.19 0 0 0-.18.19.28.28 0 0 0 0 .12l3.2 4.13a.21.21 0 0 0 .16 0 .23.23 0 0 0 .14 0l3.3-4.11a.22.22 0 0 0 0-.14.17.17 0 0 0-.17-.18h-1.25l.25-2.89h4.41a.22.22 0 0 0 .22-.2l3.06-19.75a.26.26 0 0 0-.05-.26zM79 51.86a3.73 3.73 0 0 1-4.64 0 3.43 3.43 0 0 1-.43-4.2c.31-.58 2.55-3.95 2.74-4.23.19.28 2.43 3.65 2.74 4.23a3.43 3.43 0 0 1-.41 4.2zm6.12-11.66a2.41 2.41 0 0 0-1.83.11c-2.42 1-4.06 1.33-6.6.54-1.59-.5-3.09-1.55-4.86-.91a10 10 0 0 1-3.59.81l-.77-3.92h18.2z"/></svg>