<svg id="TARGETS" xmlns="http://www.w3.org/2000/svg" viewBox="0 0 94.85 94.85" width="94.85" height="94.85"><defs><style>.cls-1{fill:#fd9d24}.cls-2{fill:#fff}</style></defs><title>Goal_11_RGB_NG</title><path class="cls-1" d="M0 0h94.85v94.85H0z"/><path class="cls-2" d="M82.49 55.43a9.44 9.44 0 0 0-5.7-1.87 6.67 6.67 0 0 0-1.38.13h-.14c-1.35.32-3.62.86-6.26 4.13l-.07.1a.31.31 0 0 0-.07.2.34.34 0 0 0 0 .17l.06.1c.43.73.79 1.36 1.08 1.9a.36.36 0 0 0 .57.08.18.18 0 0 1 .05-.07c2.27-3.15 4.06-3.57 5.24-3.85h.15a3.32 3.32 0 0 1 .72-.06 6.69 6.69 0 0 1 3.95 1.27 6 6 0 0 1 2 5c0 3.77-1.83 5.24-3.36 5.81a5.49 5.49 0 0 1-1.87.33 6.75 6.75 0 0 1-2.8-.64l-.11-.06c-1.32-.57-3.28-1.76-5.14-5.49-3.81-7.65-7-8.38-9.13-8.86h-.11a6.18 6.18 0 0 0-1.36-.12 9.1 9.1 0 0 0-5.61 1.85c-1.38 1.1-3 3.24-3 7.18a8.32 8.32 0 0 0 8.44 8.83 10.89 10.89 0 0 0 1.94-.19 8.26 8.26 0 0 0 3.3-1.51l1.11 1a.33.33 0 0 0 .46 0 .3.3 0 0 0 .08-.21l.86-5.31v-.06a.31.31 0 0 0-.1-.23.34.34 0 0 0-.23-.08l-5.17 1.43h-.1a.34.34 0 0 0-.16.1.32.32 0 0 0-.09.23.33.33 0 0 0 .11.22l1.07 1a5.21 5.21 0 0 1-1.67.68 7.29 7.29 0 0 1-1.37.13 5.6 5.6 0 0 1-4.43-2 5.69 5.69 0 0 1-1.19-3.95c0-2.26.66-3.93 2-5a6.51 6.51 0 0 1 3.85-1.24 3.49 3.49 0 0 1 .73.06h.12c1.69.39 4 .91 7.22 7.36 1.69 3.4 3.82 5.63 6.49 6.81a9.77 9.77 0 0 0 4.1.94 8.26 8.26 0 0 0 2.85-.5c1.56-.58 5.2-2.58 5.2-8.46-.05-4.03-1.72-6.17-3.13-7.28z"/><rect class="cls-2" x="61.43" y="23.26" width="10.71" height="6.77" rx="1.11" ry="1.11"/><rect class="cls-2" x="50.3" y="39.95" width="10.71" height="6.77" rx="1.11" ry="1.11"/><rect class="cls-2" x="62.66" y="39.95" width="10.71" height="6.77" rx="1.11" ry="1.11"/><rect class="cls-2" x="74.94" y="39.95" width="10.71" height="6.77" rx="1.11" ry="1.11"/><rect class="cls-2" x="55.65" y="31.61" width="10.71" height="6.77" rx="1.11" ry="1.11"/><rect class="cls-2" x="67.93" y="31.61" width="10.71" height="6.77" rx="1.11" ry="1.11"/><path class="cls-2" d="M39.79 63.2l-7.24 5.71a.4.4 0 0 1-.31.08c-.16 0-.22-.15-.22-.36v-2.88H11.16a.28.28 0 0 1-.24-.3v-5a.27.27 0 0 1 .25-.3H32v-2.84c0-.22 0-.31.22-.36a.38.38 0 0 1 .3.08l7.2 5.49a.4.4 0 0 1 0 .68zM23.54 44.79a5.9 5.9 0 0 1-1.53.68 15.74 15.74 0 0 1-4.75.59 17.85 17.85 0 0 1-2.36-.19 12.91 12.91 0 0 1-1.43-.27c-.24-.06-.48-.12-.7-.19a5.65 5.65 0 0 1-1.85-.89 2.1 2.1 0 0 1-.52-.52v1.55a1.37 1.37 0 0 0 .54 1 7.84 7.84 0 0 0 3.7 1.38 17.69 17.69 0 0 0 2.71.2 16.21 16.21 0 0 0 3.89-.44 7.56 7.56 0 0 0 2-.76c.65-.39 1-.85 1-1.34 0 0 .06-1.41 0-1.53a3.19 3.19 0 0 1-.7.73zM16.71 40.08c3.84 0 7-1.16 7-2.58 0 0 .08-1.33.05-1.61a1.52 1.52 0 0 0-.12-.55 1.56 1.56 0 0 0 .79-1.17s.07-1.48 0-1.77c-.18-1.73-3.69-2.67-7-2.67s-7 1-7 2.83c0 .09.07 1.61.07 1.61a1.09 1.09 0 0 0 .08.31 1.76 1.76 0 0 0-.87 1.41c0 .09.06 1.61.06 1.61a1.38 1.38 0 0 0 .55 1A7.7 7.7 0 0 0 14 39.87a16.47 16.47 0 0 0 2.71.21zm.71-9.62c3.71 0 6.29 1.11 6.29 2.1s-2.58 2.11-6.29 2.11-6.29-1.11-6.29-2.11 2.59-2.1 6.29-2.1zm-7 5.43a1.14 1.14 0 0 1 .58-.79 3.33 3.33 0 0 0 .7.51 12.78 12.78 0 0 0 5.77 1.14 14.61 14.61 0 0 0 4.88-.75 4.73 4.73 0 0 0 .6-.27.53.53 0 0 1 0 .17c0 1-2.58 2.1-6.29 2.1s-6.25-1.12-6.25-2.11z"/><path class="cls-2" d="M14.63 45.41a17.78 17.78 0 0 0 2.71.2 16.73 16.73 0 0 0 3.89-.44h.05a7.56 7.56 0 0 0 2-.76c.16-.1.3-.2.43-.3a1.7 1.7 0 0 0 .52-.68.92.92 0 0 0 .07-.36v-1.53c-.23.29-.83 1.2-3.57 1.76a20.88 20.88 0 0 1-3.55.31 13.14 13.14 0 0 1-5.56-1.09 4.92 4.92 0 0 1-.87-.6 3.6 3.6 0 0 1-.43-.53v1.7a1.37 1.37 0 0 0 .54 1 7.84 7.84 0 0 0 3.77 1.32z"/><path class="cls-2" d="M24.21 38.39a1 1 0 0 0-.18-.16 1.57 1.57 0 0 0-.29-.15 1.74 1.74 0 0 1-.31.4 2.31 2.31 0 0 1 .27.16.66.66 0 0 1 .33.53.62.62 0 0 1-.25.46c-.09.06-.16.13-.27.2l-.4.22s-.42.2-.61.27l-.62.19-.83.2c-.05 0-.73.13-1.06.17L18.9 41c-.11 0-1.15.07-1.6.08a14.14 14.14 0 0 1-2.22-.17 15.06 15.06 0 0 1-1.57-.29 10 10 0 0 1-1.67-.52 3.13 3.13 0 0 1-.85-.59 2.92 2.92 0 0 1-.55-.73v1.76a1.35 1.35 0 0 0 .55 1 7.69 7.69 0 0 0 3.7 1.38 17.69 17.69 0 0 0 2.71.2 16.21 16.21 0 0 0 3.89-.44 8 8 0 0 0 2-.77 3 3 0 0 0 .43-.3 1.65 1.65 0 0 0 .53-.68 1.15 1.15 0 0 0 .07-.36s.06-1.47.06-1.5a.68.68 0 0 0-.06-.35.67.67 0 0 0-.11-.33zM32.72 35.05c3.84 0 7-1.15 7-2.58 0 0 .08-1.32.06-1.6a1.81 1.81 0 0 0-.13-.55 1.57 1.57 0 0 0 .79-1.17s.07-1.48 0-1.77c-.19-1.74-3.7-2.67-7-2.67s-7 1-7 2.83c0 .09.07 1.61.07 1.61a1.11 1.11 0 0 0 .08.3 1.76 1.76 0 0 0-.87 1.42c0 .08.06 1.6.06 1.6a1.39 1.39 0 0 0 .55 1A7.7 7.7 0 0 0 30 34.85a17.69 17.69 0 0 0 2.72.2zm.71-9.62c3.71 0 6.29 1.11 6.29 2.11s-2.58 2.1-6.29 2.1-6.28-1.11-6.28-2.1 2.58-2.11 6.28-2.11zm-7 5.44a1.15 1.15 0 0 1 .55-.8 3 3 0 0 0 .7.52 12.78 12.78 0 0 0 5.77 1.14 14.61 14.61 0 0 0 4.91-.73c.22-.08.41-.18.6-.27a.47.47 0 0 1 0 .17c0 1-2.58 2.1-6.29 2.1s-6.25-1.14-6.25-2.13z"/><path class="cls-2" d="M40.39 33.64a.61.61 0 0 0-.17-.27 1 1 0 0 0-.18-.16 1.57 1.57 0 0 0-.29-.16 1.65 1.65 0 0 1-.31.41 1.72 1.72 0 0 1 .27.15.68.68 0 0 1 .33.53.59.59 0 0 1-.25.46 2.33 2.33 0 0 1-.27.21l-.4.22s-.42.19-.61.26c0 0-.43.15-.62.2s-.61.15-.83.19c-.05 0-.73.14-1.06.18l-1.09.1c-.11 0-1.15.07-1.6.07a15.43 15.43 0 0 1-2.22-.16c-.53-.08-1.07-.17-1.57-.29a10.32 10.32 0 0 1-1.67-.53 2.74 2.74 0 0 1-.85-.59 2.93 2.93 0 0 1-.55-.72v1.76a1.38 1.38 0 0 0 .55 1 7.7 7.7 0 0 0 3.7 1.37 17.64 17.64 0 0 0 2.71.21 16.18 16.18 0 0 0 3.89-.45 7.65 7.65 0 0 0 2-.76c.16-.1.31-.2.44-.3a1.77 1.77 0 0 0 .52-.68.92.92 0 0 0 .07-.36s.06-1.47.06-1.5a.76.76 0 0 0 0-.39zM39.58 39.77a5.68 5.68 0 0 1-1.52.67 15.11 15.11 0 0 1-4.75.59 19.26 19.26 0 0 1-2.31-.18c-.53-.07-.93-.16-1.43-.27-.25-.06-.48-.12-.7-.19A6 6 0 0 1 27 39.5a2.23 2.23 0 0 1-.51-.55v1.55a1.38 1.38 0 0 0 .55 1 7.7 7.7 0 0 0 3.7 1.37 17.64 17.64 0 0 0 2.71.21 16.18 16.18 0 0 0 3.89-.45 7.29 7.29 0 0 0 2-.77c.65-.39 1-.85 1-1.34v-1.54a2.87 2.87 0 0 1-.76.79z"/><path class="cls-2" d="M27 39a7.7 7.7 0 0 0 3.7 1.37 17.69 17.69 0 0 0 2.71.2 16.21 16.21 0 0 0 3.89-.44 7.29 7.29 0 0 0 2-.77 3.8 3.8 0 0 0 .44-.31 1.68 1.68 0 0 0 .52-.67.92.92 0 0 0 .07-.36v-1.54c-.23.3-.82 1.21-3.57 1.77a20.88 20.88 0 0 1-3.54.3 12.84 12.84 0 0 1-5.56-1.09 4.12 4.12 0 0 1-.88-.6 2.93 2.93 0 0 1-.42-.52v1.7A1.38 1.38 0 0 0 27 39zM40.46 44a3.17 3.17 0 0 1-.84.81 6.3 6.3 0 0 1-1.53.67 15.42 15.42 0 0 1-4.75.59 19.55 19.55 0 0 1-2.34-.23c-.53-.08-.93-.16-1.42-.27l-.71-.19a5.87 5.87 0 0 1-1.87-.89 2.14 2.14 0 0 1-.52-.56v1.55a1.37 1.37 0 0 0 .54 1 7.74 7.74 0 0 0 3.7 1.37 17.78 17.78 0 0 0 2.71.2 16.21 16.21 0 0 0 3.89-.44 7.21 7.21 0 0 0 2-.77c.64-.39 1-.85 1-1.35.1-.01.16-1.42.14-1.49z"/><path class="cls-2" d="M30.71 45.37a17.78 17.78 0 0 0 2.71.2 16.36 16.36 0 0 0 3.9-.44 7.08 7.08 0 0 0 2-.77 3.65 3.65 0 0 0 .43-.31 1.75 1.75 0 0 0 .52-.67.94.94 0 0 0 .07-.37s.05-1.42 0-1.53c-.23.3-.83 1.21-3.57 1.77a21 21 0 0 1-3.55.3 13.14 13.14 0 0 1-5.56-1.09 4 4 0 0 1-.87-.6 3.23 3.23 0 0 1-.43-.52v1.7A1.37 1.37 0 0 0 27 44a7.84 7.84 0 0 0 3.71 1.37z"/></svg>