<svg id="TARGETS" xmlns="http://www.w3.org/2000/svg" viewBox="0 0 94.85 94.85" width="94.85" height="94.85"><defs><style>.cls-1{fill:#0a97d9}.cls-2{fill:#fff}</style></defs><title>Goal_14_RGB_NG</title><path class="cls-1" d="M0 0h94.85v94.85H0z"/><path class="cls-2" d="M24.84 48.32zM24.84 48.32l2.3 8.05 2.31-8.05h-4.61zM29.42 13.16a2.31 2.31 0 0 0-4.61 0v34h4.61zM72.57 52.5L58.93 26.74V13.66h1.6a.8.8 0 0 0 .8-.8v-1.21a.8.8 0 0 0-.8-.8h-12a.8.8 0 0 0-.8.8v1.21a.8.8 0 0 0 .8.8h1.6v13.08L36.5 52.47a2.61 2.61 0 0 0 2.24 3.94h31.58a2.61 2.61 0 0 0 2.25-3.91zm-15.91-2.6A2.35 2.35 0 1 1 59 52.25a2.35 2.35 0 0 1-2.34-2.35zm6.1-3.28a1.41 1.41 0 1 1 1.41-1.41 1.41 1.41 0 0 1-1.41 1.41zM51.34 27V13.66h6.38V27l4.91 9.28c-1.09 1.69-4.5 6.52-8.53 7.39-3.33.72-8.81-1.26-10.56-2z"/><g><path class="cls-2" d="M85.5 66.89h-.1l-.23.12a14.41 14.41 0 0 1-16.83-2.36.7.7 0 0 0-.4-.24.89.89 0 0 0-.38.22c-2 1.56-11.41 7.89-19.74.11l-.13-.12a.45.45 0 0 0-.34-.13.42.42 0 0 0-.32.13l-.13.12c-8.34 7.78-17.72 1.45-19.75-.11-.12-.09-.18-.19-.39-.19a.66.66 0 0 0-.4.21A14.4 14.4 0 0 1 9.54 67c-.08 0-.16-.09-.24-.12h-.08a.47.47 0 0 0-.47.47v3.27a.49.49 0 0 0 .13.33c7.91 6.88 15.41.44 17.13-1.27a1.49 1.49 0 0 1 .17-.15.4.4 0 0 1 .21-.07.54.54 0 0 1 .34.15c8.93 8.52 18.3 1.62 20.25 0l.19-.18a.3.3 0 0 1 .18-.07c.11 0 .13 0 .19.07l.19.18c2 1.62 11.32 8.52 20.25 0a.44.44 0 0 1 .31-.13.45.45 0 0 1 .26.09.53.53 0 0 1 .13.13c1.73 1.71 9.21 8.15 17.13 1.27a.5.5 0 0 0 .14-.33v-3.28a.47.47 0 0 0-.47-.47"/><path class="cls-2" d="M85.5 76.84h-.1l-.23.12a14.41 14.41 0 0 1-16.83-2.36.75.75 0 0 0-.4-.23.77.77 0 0 0-.38.21c-2 1.57-11.41 7.89-19.74.12l-.13-.13a.49.49 0 0 0-.34-.13.46.46 0 0 0-.32.13l-.13.13c-8.34 7.77-17.72 1.44-19.75-.12-.12-.09-.18-.19-.39-.18a.66.66 0 0 0-.4.2A14.4 14.4 0 0 1 9.54 77l-.24-.12h-.08a.47.47 0 0 0-.47.47v3.27a.45.45 0 0 0 .13.33c7.91 6.88 15.41.45 17.13-1.26l.17-.16a.32.32 0 0 1 .21-.06.49.49 0 0 1 .34.15c8.93 8.51 18.3 1.61 20.25 0l.19-.18a.38.38 0 0 1 .18-.08c.11 0 .13 0 .19.08l.19.18c2 1.61 11.32 8.51 20.25 0a.44.44 0 0 1 .31-.13.45.45 0 0 1 .26.09.33.33 0 0 1 .13.13c1.73 1.7 9.21 8.14 17.13 1.26a.46.46 0 0 0 .14-.33v-3.33a.47.47 0 0 0-.47-.47"/></g></svg>