<svg id="TARGETS" xmlns="http://www.w3.org/2000/svg" viewBox="0 0 94.85 94.85" width="94.85" height="94.85"><defs><style>.cls-1{fill:#bf8b2e}.cls-2{fill:#fff}</style></defs><title>Goal_12_RGB_NG</title><path class="cls-1" d="M0 0h94.85v94.85H0z"/><path class="cls-2" d="M29.94 36.9H23.3v-.77a.26.26 0 0 0-.26-.26H18a.26.26 0 0 0-.25.26v.77h-6.56a.26.26 0 0 0-.26.26l.17 1.07a.26.26 0 0 0 .26.26h18.39a.25.25 0 0 0 .26-.26l.18-1.07a.26.26 0 0 0-.25-.26zM29.68 39.46H11.45a.25.25 0 0 0-.26.25L12.48 59a.26.26 0 0 0 .26.26h15.65a.26.26 0 0 0 .25-.26l1.3-19.24a.26.26 0 0 0-.26-.3zM16.19 56.53a.65.65 0 0 1-.65-.61l-.77-13A.65.65 0 0 1 16 42.8l.77 13.05a.65.65 0 0 1-.58.68zm5-.65a.64.64 0 0 1-.64.65.65.65 0 0 1-.65-.65v-13a.65.65 0 0 1 .65-.65.64.64 0 0 1 .64.65zm4.48 0a.65.65 0 0 1-.65.61.65.65 0 0 1-.61-.68l.77-13.05a.65.65 0 0 1 .69-.6.64.64 0 0 1 .6.68zM53.18 47l-1.12-2.6a.2.2 0 0 0-.33-.1l-2.92 1.5.31.59 2.54-1.25.76 1.86h-2.1l1.2 12.18h6.29L59.05 47zM85.75 39.59l-5.25-2.43-3.07-.73A4.26 4.26 0 0 1 73.54 39h-.14a4.77 4.77 0 0 1-4.23-2.61l-3 .72-5.25 2.43s-.3.09-.1.49l2.29 4.62a.27.27 0 0 0 .36.16c.45-.15 2.7-.72 2.7-.72V58.9s.07.34.37.34h13.58c.31 0 .38-.34.38-.34V44.14s2.25.57 2.7.72a.27.27 0 0 0 .36-.16l2.28-4.62c.21-.4-.09-.49-.09-.49z"/><rect class="cls-2" x="37.98" y="35.3" width="4.37" height="2.5" rx=".85" ry=".85"/><path class="cls-2" d="M44.21 44.39v-2a1 1 0 0 0-.17-.49c-.16-.25-1.83-3.14-1.83-3.14a.25.25 0 0 0-.22-.12h-3.66a.25.25 0 0 0-.22.12s-1.67 2.89-1.83 3.14a1 1 0 0 0-.16.49V58.28a1 1 0 0 0 .95.95h6.24a1 1 0 0 0 1-.95V54.5zM70.47 73.38l-2.78-2.23a.59.59 0 0 0-.87 0c-8.84 10.48-24 11.58-34.77 3-.32-.26-.63-.54-.93-.81l3.15-2c.32-.2-.12-.46-.12-.46l-10.83-5.41c-.34-.18-.39 0-.39.17v.1L22.88 78c0 .12.09.42.35.25l3.54-2.21c.69.67 1.41 1.32 2.17 1.93 12.8 10.26 30.92 8.89 41.47-3.54l.11-.14a.61.61 0 0 0-.05-.91zM23 22.79l2.9 2.07a.59.59 0 0 0 .87-.11c8.22-11 23.3-12.95 34.54-4.95.34.24.66.5 1 .75l-3 2.16c-.31.21.15.45.15.45L70.52 28c.35.16.39-.06.38-.19v-.1l-.65-12.26c0-.12-.12-.42-.37-.24l-3.45 2.39c-.72-.63-1.48-1.23-2.27-1.8C50.79 6.29 32.78 8.71 23 21.73c0 0-.06.08-.1.14a.62.62 0 0 0 .1.92z"/></svg>