<svg id="TARGETS" xmlns="http://www.w3.org/2000/svg" viewBox="0 0 94.85 94.85" width="94.85" height="94.85"><defs><style>.cls-1{fill:#3f7e44}.cls-2{fill:#fff}</style></defs><title>Goal_13_RGB_NG</title><path class="cls-1" d="M0 0h94.85v94.85H0z"/><path class="cls-2" d="M64.86 22.09a1.63 1.63 0 0 0-1.63 1.64v10.55a1.64 1.64 0 1 0 3.27 0V23.73a1.64 1.64 0 0 0-1.64-1.64zM86 22.09a1.63 1.63 0 0 0-1.63 1.64v10.55a1.64 1.64 0 1 0 3.27 0V23.73A1.64 1.64 0 0 0 86 22.09zM82.81 23.34H68.14a.42.42 0 0 0-.37.45v10.35a.41.41 0 0 0 .37.44h5.62l-.66 40.88a.42.42 0 0 0 .45.37h3.94a.4.4 0 0 0 .44-.37l-.88-40.87h5.76a.41.41 0 0 0 .37-.44V23.79a.42.42 0 0 0-.37-.45z"/><g><path class="cls-2" d="M15.43 24.23h-2.85v54.82h39.28v-3.31H15.43V24.23z"/><path class="cls-2" d="M18.46 20.92v51.47h39.28V17.57H18.46zM53 62.87c0 .11-.14.19-.32.19h-29c-.18 0-.32-.08-.32-.19v-4.63c0-.1.14-.19.32-.19h29c.18 0 .32.09.32.19zm0-8.08c0 .1-.14.19-.32.19h-29c-.18 0-.32-.09-.32-.19v-4.64c0-.1.14-.19.32-.19h29c.18 0 .32.09.32.19zm-.11-20.45a18.34 18.34 0 0 1-29.42 0l-.12-.17a1.33 1.33 0 0 1 .12-.16 18.32 18.32 0 0 1 29.42 0l.11.16z"/><g><path class="cls-2" d="M36.93 36.13c0 .08-.26 1.17-.11 1.29s.39-.92.48-1.06c.41-.66-.12-.68-.37-.23zM42.87 35.08a.61.61 0 0 0-.29-.36.14.14 0 0 0-.2.18c0 .15.11.22.17.24s.32.04.32-.06zM40.07 39.63c-.21.12-1.53-.63-2.53-.53a1.37 1.37 0 0 0-1.21.74.25.25 0 0 0 .07.3 6.2 6.2 0 0 0 1.74.25 6.12 6.12 0 0 0 3.75-1.27 1 1 0 0 0-.57-.14c-.62.02-1.04.53-1.25.65zM43.75 35.86c-.13-.27-.29.18-1 .36a6.91 6.91 0 0 0-1.13.3 1.12 1.12 0 0 0-.62 1.32c.22.55.09.92.58.6s.15.06.31.12.13-.21.47 0l.19.07a6.14 6.14 0 0 0 1.42-2.18.84.84 0 0 0-.1-.4 1 1 0 0 0-.12-.19zM44.31 33.85a.5.5 0 0 0-.53-.44c-.08 0 .2.32.1.42-.55.63.15 1.59.32 1.64a6.56 6.56 0 0 0 .12-1.26c0-.13 0-.21-.01-.36zM39.42 34.75c-.09 0-.34.21-.19.33a.56.56 0 0 0 .59.05c.18-.13-.19-.4-.4-.38z"/><path class="cls-2" d="M36.5 37.28c.06-.32.16-.34.14-.73a.76.76 0 0 1 .36-.75c.28-.28.2-.13.28-.39s-.2-.33-.45-.49a1.34 1.34 0 0 1-.57-1c0-.24.15 0 .44.28s.41.53.71.46.69-.33.59-.63-1.06-1-1-1.14.22 0 .52.2.66.19.74.61c.13.77 1 .43 1.61 1.12.24.26.35 0 .51-.34s-.13-.48.09-.63A.38.38 0 0 1 41 34l.37.94a2.35 2.35 0 0 0 1 .83c.41 0-.15-.61-.19-.85a.81.81 0 0 1 .31-.74 1.55 1.55 0 0 0 .65-.26c.4-.26 0-.3 0-.73s.26-.18.32-.09a.4.4 0 0 0 .72-.06.67.67 0 0 0 0-.28A6.19 6.19 0 0 0 34.81 29c.72 0 2.15-.29 2 .34s.91.65.38.92c-.23.12-.89.58-1 .5-.41-.22.84-.51.6-.67s-.72 0-1.1.11a6.92 6.92 0 0 0-1.17.16c-.26.13-.57.3-.48.52s.8.41.92.41.25 0 .5-.35.57 0 .48 0a1.73 1.73 0 0 0-.45.37.5.5 0 0 1-.62.13 1.57 1.57 0 0 0-.94 0 3.55 3.55 0 0 1-.46.28c-.09 0-.21.09-.17.17s.07.19 0 .25-.18.2-.34.1a.72.72 0 0 0-.68.07v.15c0 .22.09.58.45.31.12-.09.71-.07 1.08-.41.17-.16.36.05.4.13s.29.62.42.6-.2-.51-.06-.53.33.41.42.35c.24-.17.43-.11.46.14s-.16.33-.4.43-.89-.18-1.25-.31a6.47 6.47 0 0 0-1-.25l-.36.12s0 .09-.32.48V34.2a6.2 6.2 0 0 0 .49 2.4c.34.11.24.05.48 0s.46-.35.63-.13.34.14.36.48.36-.22.42.29c.1.81.29.41.29.55 0 .38 0 1.13.32 1.15a1.28 1.28 0 0 0 .84-.32 1.76 1.76 0 0 0 .38-.79c-.03-.5.11-.22.17-.55z"/><path class="cls-2" d="M33.3 31.28c.08-.07.49-.26.46-.36s-.23-.18-.38-.15a.85.85 0 0 0-.49.17 6.08 6.08 0 0 0-.46.92.26.26 0 0 0 .16 0c.16.02.5-.39.71-.58zM43.21 35.71c.13-.11-.19-.39-.39-.38s-.35.21-.2.33a.56.56 0 0 0 .59.05zM33.35 30.53a1 1 0 0 0 .66-.3.85.85 0 0 0 .08-.39.22.22 0 0 0-.24-.11.51.51 0 0 0-.3.13s-.29.37-.37.49.03.16.17.18z"/></g></g></svg>