<svg id="TARGETS" xmlns="http://www.w3.org/2000/svg" viewBox="0 0 94.85 94.85" width="94.85" height="94.85"><defs><style>.cls-1{fill:#bf8b2e}.cls-2{fill:#fff}</style></defs><title>Goal_12_RGB_NG</title><path class="cls-1" d="M0 0h94.85v94.85H0z"/><path d="M34.29 57.67h-7.7v-.9a.31.31 0 0 0-.3-.3h-5.81a.3.3 0 0 0-.3.3v.9h-7.64a.29.29 0 0 0-.3.3l.2 1.25a.3.3 0 0 0 .3.3h21.34a.31.31 0 0 0 .3-.3l.21-1.22a.3.3 0 0 0-.3-.33zM34 60.63H12.84a.3.3 0 0 0-.3.3L14 83.25a.29.29 0 0 0 .3.3h18.19a.29.29 0 0 0 .3-.3l1.5-22.32a.31.31 0 0 0-.29-.3zM18.33 80.44a.76.76 0 0 1-.75-.71l-.9-15.14a.75.75 0 0 1 1.5-.08L19 79.65a.75.75 0 0 1-.67.79zm5.85-.74a.75.75 0 0 1-1.5 0V64.56a.75.75 0 0 1 1.5 0zm5.19 0a.74.74 0 0 1-.75.7.74.74 0 0 1-.7-.79l.9-15.13a.75.75 0 1 1 1.49.08zM33 32.78V10.52a.29.29 0 0 0-.29-.3H14.33a.29.29 0 0 0-.29.3v22.26h-7.1l16.68 16.68 16.69-16.68z"/><g><path class="cls-2" d="M48.2 89.37h-1.69v-4.74h1.69zm0-8.81h-1.69v-4.75h1.69zm0-8.82h-1.69V67h1.69zM48.2 63h-1.69v-4.76h1.69zm0-8.81h-1.69v-4.76h1.69z"/><g><path class="cls-2" d="M48.2 45.42h-1.69v-4.74h1.69zm0-8.81h-1.69v-4.75h1.69zm0-8.82h-1.69v-4.74h1.69zM48.2 19h-1.69v-4.71h1.69zm0-8.81h-1.69V5.48h1.69z"/></g><g><path class="cls-2" d="M85.57 18.35a8.68 8.68 0 0 0-5.21-1.71 5.6 5.6 0 0 0-1.26.12h-.13a9.39 9.39 0 0 0-5.72 3.78l-.07.09a.28.28 0 0 0-.06.18.34.34 0 0 0 0 .16v.08c.4.67.73 1.25 1 1.74a.31.31 0 0 0 .51.07v-.06c2.08-2.88 3.71-3.27 4.79-3.52h.14a2.85 2.85 0 0 1 .66-.06A6.17 6.17 0 0 1 84 20.38a5.46 5.46 0 0 1 1.82 4.54c0 3.45-1.66 4.79-3.06 5.31a4.88 4.88 0 0 1-1.71.3 6.15 6.15 0 0 1-2.6-.53l-.1-.05c-1.2-.52-3-1.61-4.69-5-3.49-7-6.41-7.66-8.35-8.1h-.1a6.21 6.21 0 0 0-1.21-.2 8.34 8.34 0 0 0-5.13 1.69c-1.26 1-2.76 3-2.76 6.57A7.61 7.61 0 0 0 63.79 33a9 9 0 0 0 1.76-.18 7.39 7.39 0 0 0 3-1.38l1 .92a.29.29 0 0 0 .41 0 .27.27 0 0 0 .08-.19l.79-4.85v-.06a.31.31 0 0 0-.3-.29l-4.73 1.31h-.09a.38.38 0 0 0-.15.09.34.34 0 0 0-.08.21.32.32 0 0 0 .1.21l1 .88a4.45 4.45 0 0 1-1.53.62 6.9 6.9 0 0 1-1.25.13 5.08 5.08 0 0 1-4-1.84 5.22 5.22 0 0 1-1.09-3.61 5.48 5.48 0 0 1 1.8-4.55 6 6 0 0 1 3.49-1.2 3.75 3.75 0 0 1 .67.06h.1c1.55.35 3.66.83 6.6 6.73 1.55 3.11 3.49 5.15 5.94 6.22a8.63 8.63 0 0 0 3.74.87 7.58 7.58 0 0 0 2.61-.46c1.43-.54 4.75-2.36 4.75-7.74-.03-3.58-1.56-5.54-2.84-6.55zM62.89 61v22.22a.3.3 0 0 0 .29.31h18.33a.3.3 0 0 0 .3-.31V61h7.1L72.23 44.28 55.54 61z"/></g></g></svg>