<svg id="TARGETS" xmlns="http://www.w3.org/2000/svg" viewBox="0 0 94.85 94.85" width="94.85" height="94.85"><defs><style>.cls-1{fill:#19486a}.cls-2{fill:#fff}</style></defs><title>Goal_17_RGB_NG</title><path class="cls-1" d="M0 0h94.85v94.85H0z"/><path class="cls-2" d="M82.16 34.42l-1.71-.8a1.42 1.42 0 0 1-.89-1.41v-1-1.07a1.43 1.43 0 0 1 .9-1.43l1.63-.8a1.2 1.2 0 0 0 .73-1.66 17.32 17.32 0 0 0-1.58-3.7 1.18 1.18 0 0 0-1.59-.55l-1.79.64a1.49 1.49 0 0 1-1.68-.38c-.22-.24-.46-.46-.68-.69s-.47-.45-.69-.67a1.49 1.49 0 0 1-.41-1.75c.23-.59.41-1.19.61-1.78a1.06 1.06 0 0 0-.66-1.47l-3.78-1.53a1.07 1.07 0 0 0-1.47.57c-.31.62-.58 1.26-.89 1.87a1.36 1.36 0 0 1-1.24.8h-2.19a1.42 1.42 0 0 1-1.41-.89c-.29-.6-.58-1.2-.88-1.79a1.15 1.15 0 0 0-1.35-.63 15.81 15.81 0 0 0-4 1.69 1.1 1.1 0 0 0-.53 1.47c.21.59.41 1.17.62 1.74a1.53 1.53 0 0 1-.4 1.82l-.68.67-.66.67a1.43 1.43 0 0 1-1.68.4L52 22.15a1.07 1.07 0 0 0-1.46.66c-.5 1.24-1 2.47-1.51 3.7a1.09 1.09 0 0 0 .6 1.59l1.77.84a1.34 1.34 0 0 1 .84 1.28V32.37a1.45 1.45 0 0 1-.89 1.41c-.56.29-1.15.57-1.72.85a1.13 1.13 0 0 0-.63 1.53A16.36 16.36 0 0 0 50.6 40a1.17 1.17 0 0 0 1.54.57c.61-.22 1.23-.46 1.85-.66a1.45 1.45 0 0 1 1.59.36L57 41.68a1.46 1.46 0 0 1 .39 1.65c-.23.61-.44 1.23-.65 1.86a1.06 1.06 0 0 0 .67 1.43c1.25.52 2.51 1 3.77 1.54a1.09 1.09 0 0 0 1.5-.58c.3-.6.57-1.2.85-1.81a1.39 1.39 0 0 1 1.29-.84h2.19a1.44 1.44 0 0 1 1.39.86c.28.59.56 1.18.85 1.76a1.14 1.14 0 0 0 1.4.67 15.45 15.45 0 0 0 4-1.69 1.14 1.14 0 0 0 .57-1.08s0-.23-.09-.39c-.21-.59-.41-1.17-.63-1.75a1.51 1.51 0 0 1 .4-1.78c.47-.45.91-.91 1.36-1.37a1.46 1.46 0 0 1 1.74-.4l1.82.61a1.09 1.09 0 0 0 1.5-.67c.5-1.22 1-2.45 1.49-3.67a1.09 1.09 0 0 0-.65-1.61zm-16.26 5a8.12 8.12 0 1 1 8.1-8.16 8.12 8.12 0 0 1-8.1 8.12zM58.26 55.33a1.12 1.12 0 0 0-1.19-1c-.64 0-1.1-.05-1.71-.06S54.15 54 54 53.38a20.29 20.29 0 0 0-1.1-3.27 1.42 1.42 0 0 1 .42-1.67c.52-.42.93-.77 1.43-1.21a1.16 1.16 0 0 0 .25-1.48 16.37 16.37 0 0 0-2.63-3.5 1.12 1.12 0 0 0-1.58-.15c-.53.35-.91.6-1.41 1s-1.1.57-1.63.13c-1-.74-2.13-1.56-2.81-2a1.41 1.41 0 0 1-.64-1.59c.18-.65.3-1.17.44-1.82a1.16 1.16 0 0 0-.64-1.37 16.58 16.58 0 0 0-4.18-1.28 1.13 1.13 0 0 0-1.37.81c-.22.59-.38 1-.58 1.6s-.55 1.1-1.24 1.07h-3.44a1.39 1.39 0 0 1-1.45-.91c-.24-.63-.46-1.12-.72-1.74a1.15 1.15 0 0 0-1.32-.72 16.36 16.36 0 0 0-4.14 1.42 1.13 1.13 0 0 0-.66 1.45c.17.61.29 1.05.48 1.63s.2 1.22-.38 1.6-2 1.42-2.77 2a1.41 1.41 0 0 1-1.71.11c-.56-.36-1-.64-1.6-1a1.15 1.15 0 0 0-1.49.19A16.29 16.29 0 0 0 15 46.33a1.13 1.13 0 0 0 .35 1.55c.49.39.86.68 1.35 1s.87.86.63 1.51-.82 2.59-1 3.28A1.4 1.4 0 0 1 15 54.82c-.67 0-1.21.08-1.87.15a1.14 1.14 0 0 0-1.1 1 16 16 0 0 0 .07 4.37 1.13 1.13 0 0 0 1.19 1.05c.63 0 1.09 0 1.7.06s1.21.18 1.4.83a26.52 26.52 0 0 0 1.1 3.28 1.42 1.42 0 0 1-.42 1.67c-.52.42-.93.77-1.43 1.21a1.15 1.15 0 0 0-.26 1.56A16.37 16.37 0 0 0 18 73.45a1.13 1.13 0 0 0 1.58.15c.53-.35.91-.6 1.41-1s1.09-.57 1.63-.13 2.13 1.56 2.81 2a1.41 1.41 0 0 1 .63 1.59c-.17.65-.29 1.17-.43 1.82a1.14 1.14 0 0 0 .64 1.37 16.58 16.58 0 0 0 4.18 1.28 1.13 1.13 0 0 0 1.37-.81c.22-.59.38-1 .57-1.6s.55-1.11 1.25-1.07h3.44a1.39 1.39 0 0 1 1.45.91c.24.63.45 1.12.72 1.73a1.15 1.15 0 0 0 1.32.73A16.76 16.76 0 0 0 44.72 79a1.13 1.13 0 0 0 .63-1.46c-.17-.61-.3-1-.48-1.63s-.2-1.22.38-1.6 2.17-1.57 2.77-2a1.4 1.4 0 0 1 1.71-.11c.56.36 1 .64 1.6 1a1.15 1.15 0 0 0 1.49-.2 16.38 16.38 0 0 0 2.51-3.58 1.13 1.13 0 0 0-.33-1.6c-.5-.39-.86-.68-1.35-1s-.88-.86-.63-1.51.8-2.47 1-3.28a1.41 1.41 0 0 1 1.32-1.1c.67 0 1.21-.08 1.87-.15a1.14 1.14 0 0 0 1.1-1 16.82 16.82 0 0 0-.05-4.45zm-23 17a14.32 14.32 0 1 1 14.35-14.25 14.33 14.33 0 0 1-14.35 14.27z"/><path class="cls-2" d="M24.7 53.94c.34.22.57 0 .7-.19a.47.47 0 0 0 0-.51c-.08-.17.17-.3.34-.35a7.76 7.76 0 0 0 1-.56 3.17 3.17 0 0 1 1.92 0 1 1 0 0 0 1.26-.25 3.44 3.44 0 0 1 .92-.76c.18-.09-.45-.68-1 0s-.79.71-1 .7-1.7-.37-1.88-.83.46-.8 1-1.06a13.23 13.23 0 0 1 2.39-.33c.76-.16 1.74-.55 2.23-.21s-2.06.9-1.22 1.36c.3.16 1.65-.77 2.11-1 1.08-.56-1-.75-.77-1.88s-2.5-.82-4-.71a13.1 13.1 0 0 0-2 1.51c.17 0 .36.1.39.22a1.77 1.77 0 0 1-.17.8 2.1 2.1 0 0 1-1.34.61.53.53 0 0 1-.25-.12c-.22.3-.44.6-.64.91a2 2 0 0 1 .94-.31c.32-.05.74.11.78.32s-.78.58-.94.73c-.43.39-1.12 1.21-1.52 1.3a.43.43 0 0 1-.3 0c-.11.27-.21.55-.31.83a1.55 1.55 0 0 1 1.36-.22zM45.45 57.41a3.09 3.09 0 0 1-1.33.53 1.71 1.71 0 0 0-.65 1.51c.09.48 1.24 1.8.39 1.74a4.79 4.79 0 0 1-2-1.71c-.26-.69-.54-1.38-.75-1.91a.75.75 0 0 0-1.11-.35c-.44.31.13.61-.2 1.28s-.55 1.23-1 .69c-1.22-1.42-3-.73-3.29-2.3-.15-.85-.88-.77-1.49-1.25s-1-.74-1.07-.4 1.93 1.92 2.07 2.32c.21.61-.61 1.15-1.21 1.29s-.86-.33-1.45-1-.84-1-.88-.57a2.76 2.76 0 0 0 1.15 2.1c.51.33 1.08.47.92 1s0 .23-.58.79a1.54 1.54 0 0 0-.65 1.53c0 .79-.16.84-.28 1.49s-.41.09-.66 1.05a3.58 3.58 0 0 1-.79 1.62 2.64 2.64 0 0 1-1.72.65c-.57 0-.65-1.58-.65-2.36 0-.28-.39.53-.58-1.11-.12-1.05-.8.11-.85-.6s-.38-.56-.73-1-.79 0-1.29.26-.28.33-1 .1a12.6 12.6 0 0 0 8.06 7.22.52.52 0 0 1-.16-.61 2.84 2.84 0 0 1 2.4-1.41c2-.2 4.73 1.34 5.16 1.1s1.29-1.37 2.57-1.32a2 2 0 0 1 1.13.28 11.88 11.88 0 0 0 1.27-1.08 1.74 1.74 0 0 1-.4-.14c-.69-.36-.6.21-.95.08s.39-.91-.62-.25-.75-.1-1.19-1.23a2.3 2.3 0 0 1 1.32-2.69 16.07 16.07 0 0 1 2.29-.6c1.52-.37 1.84-1.27 2.12-.72 0 .1.1.19.15.29a1.92 1.92 0 0 1 .18.76 13 13 0 0 0 .56-1.87c-.36-.15-1.72-2.07-.61-3.33.18-.21-.38-.84-.22-.86a1 1 0 0 1 1.05.77 14 14 0 0 0-.28-2 2.57 2.57 0 0 1-.06.44.82.82 0 0 1-1.47.12c-.13-.19-.67-.7-.66.17s.85.97.04 1.49zm-11.86 5c-.17.28-.65 2.4-1 2.16s.14-2.46.23-2.63c.53-.94 1.6-.94.77.42zm5.16-2.49a1.13 1.13 0 0 1-1.2-.11c-.32-.25.2-.66.39-.67.43-.09 1.06.5.81.73zm5.25-.51c-.11-.31.16-.48.41-.36a1.23 1.23 0 0 1 .59.73c0 .21-.51.18-.64.12s-.29-.17-.36-.49zm1.7 1.67a1.13 1.13 0 0 1-1.2-.11c-.32-.26.2-.66.39-.67.4-.04 1.03.56.78.78zM24.23 55.33a12 12 0 0 1 2.07.52c.73.28 1.88.9 2.55.63.49-.2.87-.46.82-.87s-.45-.62-.93-.29c-.18.13-.56-.76-.86-.72s.37 1 .12 1.09-.76-1-.85-1.22-.48-.61-.83-.28c-.74.71-1.95.66-2.19.84a.9.9 0 0 1-.26.15c-.49.2-.65-.3-.66-.69a12.91 12.91 0 0 0-.43 2.16l.06-.1c.41-.77.49-.86.62-.93a3.65 3.65 0 0 1 .49-.19z"/></svg>