<svg id="TARGETS" xmlns="http://www.w3.org/2000/svg" viewBox="0 0 94.85 94.85" width="94.85" height="94.85"><defs><style>.cls-1{fill:#bf8b2e}.cls-2{fill:#fff}</style></defs><title>Goal_12_RGB_NG</title><path class="cls-1" d="M0 0h94.85v94.85H0z"/><path class="cls-2" d="M77.86 67.49l-1.54-.72a1.29 1.29 0 0 1-.8-1.28v-.87-1a1.3 1.3 0 0 1 .81-1.29l1.47-.72a1.07 1.07 0 0 0 .65-1.49A15.11 15.11 0 0 0 77 56.83a1.06 1.06 0 0 0-1.41-.52l-1.59.57a1.34 1.34 0 0 1-1.52-.35c-.19-.21-.4-.41-.61-.62s-.41-.4-.62-.6a1.34 1.34 0 0 1-.36-1.58c.2-.52.37-1.06.55-1.59a1 1 0 0 0-.6-1.32l-3.4-1.38a1 1 0 0 0-1.34.56c-.27.56-.52 1.13-.8 1.68a1.19 1.19 0 0 1-1.11.72h-1.97a1.29 1.29 0 0 1-1.27-.8c-.25-.54-.52-1.08-.79-1.61a1 1 0 0 0-1.22-.56 14.54 14.54 0 0 0-3.59 1.51 1 1 0 0 0-.47 1.33l.56 1.56a1.38 1.38 0 0 1-.36 1.64c-.21.19-.41.39-.62.6l-.59.6a1.3 1.3 0 0 1-1.51.37l-1.63-.56a1 1 0 0 0-1.32.59c-.46 1.11-.91 2.23-1.36 3.33a1 1 0 0 0 .54 1.43l1.6.76a1.2 1.2 0 0 1 .75 1.15v2a1.31 1.31 0 0 1-.8 1.27l-1.55.76a1 1 0 0 0-.6 1.39 14.3 14.3 0 0 0 1.45 3.42 1 1 0 0 0 1.37.51c.56-.2 1.11-.41 1.67-.59a1.31 1.31 0 0 1 1.43.32c.44.43.87.86 1.3 1.3a1.31 1.31 0 0 1 .36 1.48c-.21.55-.39 1.11-.58 1.68a.94.94 0 0 0 .6 1.28c1.12.47 2.26.93 3.39 1.39a1 1 0 0 0 1.35-.52c.27-.55.51-1.09.77-1.64a1.24 1.24 0 0 1 1.15-.75h1.97a1.31 1.31 0 0 1 1.25.77c.25.54.51 1.07.77 1.59a1 1 0 0 0 1.26.61 13.86 13.86 0 0 0 3.61-1.53 1 1 0 0 0 .51-1 2.18 2.18 0 0 0-.08-.35c-.18-.53-.36-1.06-.56-1.57a1.39 1.39 0 0 1 .36-1.61c.42-.4.82-.82 1.22-1.23a1.32 1.32 0 0 1 1.49-.34l1.64.55a1 1 0 0 0 1.35-.6c.44-1.1.89-2.21 1.34-3.31a1 1 0 0 0-.52-1.53zM63.23 72a7.31 7.31 0 1 1 7.3-7.31 7.3 7.3 0 0 1-7.3 7.31zM23.43 77.18c-6.86-5.86-5.1-13-4.34-15.67C26.85 75.07 41.8 77.22 41.8 77.22S22.09 66.16 18.57 50.56c-.29-1.23 2.76-2.21 3.15-.74A34.35 34.35 0 0 0 25 57.69c4.16-.74 11.19-1.2 15.35 3 5.51 5.61 3.05 15.37 11.21 21.84 1.86 1.54-18.83 2.6-28.13-5.35zM64.77 30.43a1.06 1.06 0 0 0-1.12-1c-.6 0-1-.05-1.62-.05s-1.15-.18-1.33-.8a18.92 18.92 0 0 0-1-3.11 1.34 1.34 0 0 1 .4-1.58c.5-.4.88-.74 1.35-1.16a1.09 1.09 0 0 0 .27-1.4A15.55 15.55 0 0 0 59.18 18a1.06 1.06 0 0 0-1.5-.14c-.5.33-.86.57-1.33.91s-1 .54-1.55.12c-.95-.7-2-1.48-2.67-1.89a1.34 1.34 0 0 1-.6-1.52c.16-.61.28-1.11.41-1.73a1.08 1.08 0 0 0-.6-1.29 15.54 15.54 0 0 0-4-1.22 1.06 1.06 0 0 0-1.29.77c-.21.56-.37 1-.55 1.52s-.53 1.05-1.18 1h-3.27a1.32 1.32 0 0 1-1.38-.86c-.23-.6-.43-1.07-.68-1.65a1.1 1.1 0 0 0-1.26-.69 15.55 15.55 0 0 0-3.92 1.35 1.07 1.07 0 0 0-.6 1.38c.16.58.27 1 .45 1.56s.19 1.15-.36 1.51-1.9 1.35-2.63 1.95a1.33 1.33 0 0 1-1.62.11c-.54-.35-1-.61-1.52-.94a1.11 1.11 0 0 0-1.42.18 15.61 15.61 0 0 0-2.39 3.41 1.08 1.08 0 0 0 .33 1.47l1.28 1c.53.38.84.82.6 1.43s-.77 2.47-1 3.12a1.33 1.33 0 0 1-1.25 1c-.64 0-1.15.09-1.78.14a1.1 1.1 0 0 0-1 1 15.25 15.25 0 0 0 .1 4.22 1.06 1.06 0 0 0 1.13 1c.6 0 1 0 1.62.06s1.14.17 1.32.79a24.94 24.94 0 0 0 1 3.11 1.32 1.32 0 0 1-.4 1.58c-.49.4-.88.74-1.35 1.16a1.1 1.1 0 0 0-.27 1.41 15.57 15.57 0 0 0 2.5 3.31 1.07 1.07 0 0 0 1.5.15c.5-.34.87-.58 1.34-.91s1-.54 1.55-.13 2 1.48 2.66 1.9a1.33 1.33 0 0 1 .61 1.51c-.17.62-.28 1.11-.42 1.73a1.1 1.1 0 0 0 .61 1.3 15.84 15.84 0 0 0 4 1.21 1.07 1.07 0 0 0 1.3-.76c.21-.57.36-1 .55-1.53s.52-1 1.18-1h3.27a1.35 1.35 0 0 1 1.38.87c.22.59.43 1.06.68 1.64a1.08 1.08 0 0 0 1.25.69 15.49 15.49 0 0 0 3.93-1.35 1.07 1.07 0 0 0 .6-1.38c-.16-.58-.28-1-.45-1.55s-.2-1.16.35-1.52 2.06-1.49 2.63-1.94a1.33 1.33 0 0 1 1.63-.11c.53.35 1 .61 1.52.93a1.1 1.1 0 0 0 1.42-.18A15.41 15.41 0 0 0 62 43.76a1.07 1.07 0 0 0-.33-1.47c-.47-.38-.81-.65-1.28-1s-.83-.82-.6-1.43.76-2.35 1-3.12a1.32 1.32 0 0 1 1.25-1c.63 0 1.14-.08 1.77-.14a1.1 1.1 0 0 0 1-1 15.58 15.58 0 0 0-.04-4.17zM42.94 46.59A13.6 13.6 0 1 1 56.57 33a13.61 13.61 0 0 1-13.63 13.59z"/><path class="cls-2" d="M32.92 29.11c.31.21.53-.05.65-.18a.4.4 0 0 0 0-.48c-.08-.17.16-.29.32-.33s.69-.42.91-.54a3.05 3.05 0 0 1 1.81 0 1 1 0 0 0 1.2-.23 3.21 3.21 0 0 1 .88-.73c.17-.08-.43-.64-.93 0s-.75.66-1 .66-1.62-.35-1.79-.79.44-.76 1-1a12.73 12.73 0 0 1 2.27-.32c.72-.16 1.65-.52 2.12-.2s-2 .86-1.16 1.29c.28.16 1.56-.73 2-1 1-.53-1-.71-.73-1.78s-2.37-.78-3.78-.67a12.5 12.5 0 0 0-1.87 1.43c.17 0 .35.09.37.21a1.51 1.51 0 0 1-.16.76 2 2 0 0 1-1.27.57.41.41 0 0 1-.23-.1 10.29 10.29 0 0 0-.61.86 1.77 1.77 0 0 1 .89-.29c.3-.06.7.09.74.29s-.75.56-.89.69c-.42.38-1.07 1.16-1.45 1.24a.43.43 0 0 1-.28 0 6.74 6.74 0 0 0-.29.79 1.43 1.43 0 0 1 1.28-.15zM52.62 32.4a3.08 3.08 0 0 1-1.26.51 1.58 1.58 0 0 0-.62 1.44c.08.45 1.17 1.7.36 1.65a4.79 4.79 0 0 1-1.86-1.63c-.24-.66-.51-1.31-.7-1.81a.71.71 0 0 0-1.13-.33c-.43.29.12.58-.19 1.21s-.53 1.17-1 .65c-1.17-1.34-2.87-.68-3.13-2.18-.14-.81-.83-.73-1.42-1.19s-.91-.7-1-.37 1.83 1.81 2 2.2c.21.58-.57 1.09-1.14 1.22s-.82-.31-1.38-.9-.8-1-.84-.54a2.62 2.62 0 0 0 1.1 2c.48.31 1 .45.87 1s0 .22-.55.75a1.45 1.45 0 0 0-.61 1.46c0 .75-.16.79-.28 1.41s-.38.08-.62 1a3.44 3.44 0 0 1-.75 1.53 2.49 2.49 0 0 1-1.63.62c-.55 0-.62-1.5-.62-2.24 0-.26-.37.51-.55-1.06-.12-1-.76.11-.81-.56s-.36-.53-.69-.94-.76 0-1.23.24-.27.32-.93.1a12 12 0 0 0 7.65 6.86.5.5 0 0 1-.14-.59 2.69 2.69 0 0 1 2.36-1.42c1.94-.18 4.49 1.28 4.9 1s1.23-1.31 2.44-1.26a2 2 0 0 1 1.08.27 13 13 0 0 0 1.2-1 2.14 2.14 0 0 1-.38-.13c-.65-.34-.57.2-.9.07s.37-.86-.6-.23-.7-.1-1.12-1.17a2.19 2.19 0 0 1 1.25-2.56 15.43 15.43 0 0 1 2.18-.56c1.44-.36 1.74-1.21 2-.69a2.44 2.44 0 0 0 .14.28 1.77 1.77 0 0 1 .17.72 10.46 10.46 0 0 0 .53-1.78c-.34-.13-1.63-2-.57-3.16.17-.2-.36-.8-.21-.81a1 1 0 0 1 1 .73 11.26 11.26 0 0 0-.27-1.86 1.91 1.91 0 0 1 0 .42.78.78 0 0 1-1.4.1c-.12-.18-.63-.66-.62.17s.68.87-.08 1.36zm-11.26 4.71c-.17.26-.62 2.28-.93 2s.13-2.34.22-2.5c.47-.82 1.5-.77.71.5zm4.9-2.37a1.09 1.09 0 0 1-1.15-.11c-.3-.23.2-.62.38-.63.4 0 1 .53.77.74zm5-.43c-.1-.3.15-.46.39-.35a1.16 1.16 0 0 1 .56.7c0 .19-.48.16-.61.11s-.29-.17-.39-.46zm1.62 1.58a1.09 1.09 0 0 1-1.15-.11c-.3-.24.2-.62.38-.63.35-.04.95.53.72.74zM32.47 30.43a11.07 11.07 0 0 1 2 .5c.69.25 1.78.85 2.42.59.46-.19.82-.44.78-.82s-.43-.6-.89-.28c-.17.13-.53-.72-.81-.68s.35 1 .1 1-.71-1-.8-1.16-.45-.58-.79-.27c-.71.67-1.85.63-2.08.8a1.28 1.28 0 0 1-.25.14c-.46.19-.61-.29-.62-.65a11.52 11.52 0 0 0-.41 2l.05-.09c.4-.73.47-.82.6-.89a4.34 4.34 0 0 1 .46-.18z"/></svg>
