<svg id="TARGETS" xmlns="http://www.w3.org/2000/svg" viewBox="0 0 94.85 94.85" width="94.85" height="94.85"><defs><style>.cls-1{fill:#19486a}.cls-2,.cls-3,.cls-4{fill:#fff}.cls-3{opacity:.6}.cls-4{opacity:.4}</style></defs><title>Goal_17_RGB_NG</title><path class="cls-1" d="M0 0h94.85v94.85H0z"/><path class="cls-2" d="M76.11 67.23h2v.5h-2zM80.11 67.23h2v.5h-2zM24.11 67.23h2v.5h-2zM20.11 67.23h2v.5h-2zM80.11 53.06h2v.5h-2zM20.11 53.06h2v.5h-2zM76.11 53.06h2v.5h-2zM24.11 53.06h2v.5h-2zM48.11 38.88h2v.5h-2zM80.11 38.88h2v.5h-2zM20.11 38.88h2v.5h-2zM76.11 38.88h2v.5h-2zM72.28 67.23h2v.5h-2zM72.28 53.06h2v.5h-2zM72.28 38.88h2v.5h-2zM40.11 38.88h2v.5h-2zM36.11 38.88h2v.5h-2zM32.11 38.88h2v.5h-2zM28.11 38.88h2v.5h-2zM24.11 38.88h2v.5h-2zM52.11 38.88h2v.5h-2zM56.25 38.88h2v.5h-2zM20.11 24.71h2v.5h-2zM40.11 24.71h2v.5h-2zM48.11 24.71h2v.5h-2zM44.11 24.71h2v.5h-2zM36.11 24.71h2v.5h-2zM24.11 24.71h2v.5h-2zM28.11 24.71h2v.5h-2zM32.11 24.71h2v.5h-2zM56.11 24.71h2v.5h-2zM68.11 24.71h2v.5h-2zM64.11 24.71h2v.5h-2zM72.11 24.71h2v.5h-2zM52.11 24.71h2v.5h-2zM60.11 24.71h2v.5h-2z"/><path class="cls-3" d="M70.05 80.6V37.51a.56.56 0 0 0-.56-.55h-8.76a.55.55 0 0 0-.55.55V80.6z"/><path class="cls-4" d="M40 80.74v-27.1a.58.58 0 0 0-.57-.57h-8.71a.57.57 0 0 0-.57.57v27.09z"/><path class="cls-2" d="M72.36 80.49H55v-34.1a.56.56 0 0 0-.56-.56h-8.72a.56.56 0 0 0-.56.56v34.1h-29v-12.7h2v-.5h-2V53.61h2v-.5h-2v-3.54l27.02-8.17 14.22-9.26L77 27.58l.24 1 .5 2v.07a.24.24 0 0 0 .3.16.22.22 0 0 0 .14-.09l4.25-5.36v-.06a.28.28 0 0 0 0-.22.4.4 0 0 0-.1-.17h-.07l-6.2-2.67a.22.22 0 0 0-.18 0 .25.25 0 0 0-.19.28v.12l.51 2 .27 1.11-19.38 4.43-14.27 9.29-26.69 8.06v-8.09h2v-.5h-2V25.27h2v-.5h-2V14.4h-2.2v68.28H82.5v-2.19z"/></svg>