<svg id="TARGETS" xmlns="http://www.w3.org/2000/svg" viewBox="0 0 94.85 94.85" width="94.85" height="94.85"><defs><style>.cls-1{fill:#bf8b2e}.cls-2{fill:#fff}.cls-3{fill:none}</style></defs><title>Goal_12_RGB_NG</title><path class="cls-1" d="M0 0h94.85v94.85H0z"/><path class="cls-2" d="M60.25 42.11A3.23 3.23 0 1 0 57 38.88a3.23 3.23 0 0 0 3.25 3.23zM67.93 56.59v-9A4.31 4.31 0 0 0 64 43.35H56.48a4.31 4.31 0 0 0-3.91 4.29v9a1.25 1.25 0 1 0 2.5 0v-7.73c0-.29.08-.68.61-.68.36 0 .44.38.45.63v23a1.8 1.8 0 0 0 3.6 0V58.62a.5.5 0 0 1 .52-.52.48.48 0 0 1 .51.52V71.9a1.8 1.8 0 1 0 3.6 0v-23c0-.25.09-.63.46-.63.52 0 .61.39.61.68v7.68a1.25 1.25 0 1 0 2.5 0zM39.88 42.83a3.14 3.14 0 1 0-3.13-3.14 3.14 3.14 0 0 0 3.13 3.14zM46.2 46.8s-.93-2.46-3-2.46h-6.64c-2.06 0-3 2.46-3 2.46L31 55.28s-.47 1.56.85 1.95 1.71-1.13 1.71-1.13l2.07-7.1s.11-.54.52-.42.25.7.25.7l-3.65 13.28h3.4v9.51a1.64 1.64 0 0 0 3.27 0v-9.51h.93v9.51a1.63 1.63 0 1 0 3.26 0v-9.51H47l-3.64-13.27s-.15-.59.25-.7.53.42.53.42l2.1 7.09s.4 1.52 1.71 1.13.86-1.95.86-1.95zM29.25 61a1.63 1.63 0 0 0-1.62 1.49h-.87v10.79h5V62.47h-.87A1.61 1.61 0 0 0 29.25 61zm1.21 1.49H28a1.22 1.22 0 0 1 2.42 0zM71.1 62.7a1.64 1.64 0 0 0-1.62-1.49 1.62 1.62 0 0 0-1.61 1.49H67v10.82h5V62.7zm-2.83 0a1.22 1.22 0 0 1 2.42 0z"/><g><path class="cls-2" d="M45.25 66.21h2v.5h-2zM79.25 66.21h2v.5h-2zM49.25 66.21h2v.5h-2zM53.25 66.21h2v.5h-2zM75.25 49.87h2v.5h-2zM79.25 49.87h2v.5h-2zM75.25 66.21h2v.5h-2zM71.25 49.87h2v.5h-2zM49.25 49.87h2v.5h-2zM23.25 49.87h2v.5h-2zM27.25 49.87h2v.5h-2zM19.25 49.87h2v.5h-2zM23.25 66.21h2v.5h-2zM32.92 66.21h2v.5h-2zM19.25 66.21h2v.5h-2zM39.25 33.54h2v.5h-2zM35.25 33.54h2v.5h-2zM47.25 33.54h2v.5h-2zM43.25 33.54h2v.5h-2zM19.25 33.54h2v.5h-2zM67.25 33.54h2v.5h-2zM79.25 33.54h2v.5h-2zM51.25 33.54h2v.5h-2zM71.25 33.54h2v.5h-2zM75.25 33.54h2v.5h-2zM63.25 33.54h2v.5h-2zM55.25 33.54h2v.5h-2zM59.25 33.54h2v.5h-2zM71.25 17.2h2v.5h-2zM67.25 17.2h2v.5h-2zM35.25 17.2h2v.5h-2zM39.25 17.2h2v.5h-2zM63.25 17.2h2v.5h-2zM31.25 17.2h2v.5h-2zM43.25 17.2h2v.5h-2zM55.25 17.2h2v.5h-2zM51.25 17.2h2v.5h-2zM59.25 17.2h2v.5h-2zM23.25 17.2h2v.5h-2zM47.25 17.2h2v.5h-2zM19.25 17.2h2v.5h-2zM27.25 17.2h2v.5h-2z"/><path class="cls-3" d="M69.48 61.61a1.23 1.23 0 0 0-1.21 1.09h2.42a1.22 1.22 0 0 0-1.21-1.09z"/><path class="cls-2" d="M75.1 79.41v-2.66h-.82v2.66H58.89v-2.66h-.82v2.66H42.68v-2.74h-.82v2.74H26.47v-2.94h-.82v2.94H15.26v-12.7h1.99v-.5h-1.99V50.37h1.99v-.5h-1.99V38l27.24-6.89 14.23-7.76 25.04-4.89v-1.7l-25.36 4.95-14.27 7.78-26.88 6.8v-2.25h1.99v-.5h-1.99V17.7h1.99v-.5h-1.99v-3.98h-2.2v68.39h68.72v-2.2H75.1z"/></g></svg>