<svg id="TARGETS" xmlns="http://www.w3.org/2000/svg" viewBox="0 0 94.85 94.85" width="94.85" height="94.85"><defs><style>.cls-1{fill:#fd9d24}.cls-2{fill:#fff}</style></defs><title>Goal_11_RGB_NG</title><path class="cls-1" d="M0 0h94.85v94.85H0z"/><path class="cls-2" d="M14.22 35h2.37v6.33a.21.21 0 0 0 .22.21h2.88a.21.21 0 0 0 .21-.21v-6.4h4.7a5.5 5.5 0 0 0 4-9.28A5.14 5.14 0 0 0 26.05 16h-.33a7 7 0 1 0-13.18 3.6A7.77 7.77 0 0 0 14.22 35zM78.12 18.14A1.27 1.27 0 0 0 79.45 17h2.69a3.73 3.73 0 0 0-3.21-3.53v-.75a2.81 2.81 0 0 1 2.86-3.06c1.47 0 2.94 1 2.94 3.27v21.21h-.81a.87.87 0 0 0-.87.87v5.65a.87.87 0 0 0 .87.87h3.14a.87.87 0 0 0 .87-.87V35a.87.87 0 0 0-.87-.87h-.71V12.87A4.58 4.58 0 0 0 81.79 8a4.44 4.44 0 0 0-4.47 4.68v.75A3.73 3.73 0 0 0 74.11 17h2.69a1.26 1.26 0 0 0 1.32 1.14zM39.67 36.25v5.06a.16.16 0 0 0 .17.17h2.25a.16.16 0 0 0 .16-.17V36.2a7.5 7.5 0 0 0 6-7.62c0-4.49-3.45-12-7.61-12s-7.47 7.52-7.47 12a7.57 7.57 0 0 0 6.5 7.67zM54.38 30.86h20.07v2.41H54.38zM54.38 27.52h20.07v2.41H54.38z"/><path class="cls-2" d="M75.69 32.21v2.75H53.24v-2.75H51.6v9.19h1.64v-4.45h22.45v4.45h1.64v-9.19h-1.64zM61.61 55.7a3.22 3.22 0 1 0-3.22-3.22 3.22 3.22 0 0 0 3.22 3.22zM65.37 56.94h-7.48A4.28 4.28 0 0 0 54 61.21v8.92a1.25 1.25 0 0 0 2.49 0v-7.66c0-.29.08-.68.61-.68.36 0 .44.38.45.63v23a1.79 1.79 0 0 0 3.58 0V72.15a.5.5 0 0 1 .52-.53.48.48 0 0 1 .51.53v13.23a1.8 1.8 0 0 0 3.59 0v-23c0-.25.09-.63.45-.63.52 0 .61.39.61.68v7.66a1.25 1.25 0 0 0 2.49 0v-8.88a4.28 4.28 0 0 0-3.93-4.27z"/><g><path class="cls-2" d="M17.53 58.26A3 3 0 0 0 19 52.59a1 1 0 0 0 .16-.52 1.39 1.39 0 0 0-1.52-1.21 1.39 1.39 0 0 0-1.52 1.21 1 1 0 0 0 .11.44 3 3 0 0 0 1.31 5.75zM26.14 69.32l-2.52-8.19s-.89-2.37-2.89-2.37h-6.41c-2 0-2.89 2.37-2.89 2.37l-2.51 8.19s-.36 1.23.54 1.74a.5.5 0 0 0-.05.13L6.46 86.61a.47.47 0 0 0 .37.55h.09a.48.48 0 0 0 .46-.39l3-15.42a.66.66 0 0 0 0-.14c.79-.14 1.06-1.12 1.06-1.12l2-6.83s.11-.53.51-.41.24.67.24.67l-3.55 12.82h3.29v9.17a1.58 1.58 0 1 0 3.15 0v-9.17H18v9.17a1.58 1.58 0 1 0 3.15 0v-9.17h3.28l-3.55-12.81s-.15-.56.25-.67.51.41.51.41l2 6.83s.39 1.47 1.65 1.09.85-1.87.85-1.87z"/></g><g><path class="cls-2" d="M39.64 64.59a2.92 2.92 0 1 0-2.92-2.92 2.91 2.91 0 0 0 2.92 2.92zM51.82 82.53l-1.25-2.38v-.05l-2.9-5.78a1.43 1.43 0 0 0-1.4-.77h-4.16L42 68.34c0-1.58-.41-2.5-1.63-2.82a5.93 5.93 0 0 0-1.8 0h-.14l-4.9 1.58h-.27a1.23 1.23 0 0 0-.53.65l-1.4 3.93a1.23 1.23 0 1 0 2.32.83l1.2-3.36 1.84-.59h.08v5.49c0 1.25.4 2.5 1.63 2.82l.39.11a3.66 3.66 0 0 0 .64 0h6.16l1.62 3.16a.49.49 0 0 1 0 .11l.59 1.12.56 1.1a.36.36 0 0 0 0 .09l.73 1.44a1.54 1.54 0 1 0 2.73-1.43z"/><path class="cls-2" d="M42.87 79.07v.3a5.91 5.91 0 1 1-10.56-3.64l-1.48-1.16a7.79 7.79 0 1 0 13.92 4.8v-.3z"/></g><g><path class="cls-2" d="M88.33 71.65l-2.19-7.15s-.79-2.06-2.53-2.06H78c-1.74 0-2.53 2.06-2.53 2.06l-2.17 7.15s-.4 1.35.7 1.64 1.44-1 1.44-1l1.77-6s.1-.46.44-.36.22.59.22.59L74.8 77.78h2.87v8a1.38 1.38 0 1 0 2.75 0v-8h.78v8a1.38 1.38 0 0 0 2.76 0v-8h2.86L83.74 66.6s-.13-.49.22-.59.44.36.44.36l1.77 6s.34 1.28 1.44 1 .72-1.72.72-1.72zM76.07 57.86c.11-.25.36-.66 1.25-.78a1.37 1.37 0 0 0 .47-.15 3.49 3.49 0 0 1 .55-.77V56c0-.41-.47-.89-1.36-.47-1.1.52-1 2.15-1 2.15s.07.24.09.18zM84 56.91a1.52 1.52 0 0 0 .51.17c.89.12 1.15.53 1.25.78 0 .06 0 0 .06-.18s.13-1.63-1-2.15c-.9-.42-1.32.06-1.37.47a1.36 1.36 0 0 0 0 .21 3.18 3.18 0 0 1 .55.7zM80.92 61.68a3 3 0 1 0-3-3 3.06 3.06 0 0 0 3 3z"/></g></svg>