<svg id="TARGETS" xmlns="http://www.w3.org/2000/svg" viewBox="0 0 94.85 94.85" width="94.85" height="94.85"><defs><style>.cls-1{fill:#fd9d24}.cls-2{fill:#fff}</style></defs><title>Goal_11_RGB_NG</title><path class="cls-1" d="M0 0h94.85v94.85H0z"/><path class="cls-2" d="M37.29 34.59h-1.47v28.26h20.25v-1.71H37.29V34.59z"/><path class="cls-2" d="M38.85 31.15v28.26H59.1V31.15zm17.78 23.36c0 .05-.07.1-.16.1h-15c-.09 0-.17 0-.17-.1v-2.39s.08-.1.17-.1h15c.09 0 .16 0 .16.1zm0-4.17s-.07.1-.16.1h-15c-.09 0-.17 0-.17-.1V48c0-.05.08-.1.17-.1h15c.09 0 .16 0 .16.1zm0-4.27c0 .06-.07.1-.16.1h-15c-.09 0-.17 0-.17-.1v-2.39s.08-.1.17-.1h15c.09 0 .16.05.16.1zM59.32 9.75a7.74 7.74 0 0 0-4.65-1.52 5 5 0 0 0-1.12.11h-.11a8.35 8.35 0 0 0-5.1 3.37l-.07.08a.3.3 0 0 0-.05.16.25.25 0 0 0 0 .14l.05.08c.35.59.65 1.11.88 1.55a.29.29 0 0 0 .46.06.21.21 0 0 0 0-.06c1.94-2.54 3.39-2.89 4.39-3.11h.12a2.86 2.86 0 0 1 .59-.05 5.43 5.43 0 0 1 3.21 1 4.88 4.88 0 0 1 1.63 4c0 3.07-1.48 4.27-2.73 4.73a4.32 4.32 0 0 1-1.53.27 5.33 5.33 0 0 1-2.29-.47h-.09c-1.07-.47-2.68-1.44-4.19-4.48C45.6 9.34 43 8.75 41.26 8.36h-.09a5.11 5.11 0 0 0-1.11-.1 7.37 7.37 0 0 0-4.57 1.51A7 7 0 0 0 33 15.6a6.79 6.79 0 0 0 6.88 7.19 8.61 8.61 0 0 0 1.58-.15 7 7 0 0 0 2.69-1.23l.91.81a.27.27 0 0 0 .37 0 .27.27 0 0 0 .06-.17l.7-4.33v-.05a.24.24 0 0 0-.08-.19.29.29 0 0 0-.11-.08l-4.22 1.17h-.08a.22.22 0 0 0-.13.08.26.26 0 0 0-.07.19.31.31 0 0 0 .09.18l.87.79a4.06 4.06 0 0 1-1.36.55 6.25 6.25 0 0 1-1.12.11 4.58 4.58 0 0 1-3.61-1.63 4.63 4.63 0 0 1-1-3.22 4.87 4.87 0 0 1 1.6-4 5.31 5.31 0 0 1 3.13-1 3.12 3.12 0 0 1 .6.05h.09c1.38.32 3.27.74 5.89 6a10.94 10.94 0 0 0 5.29 5.54 7.72 7.72 0 0 0 3.34.78 6.71 6.71 0 0 0 2.32-.41c1.28-.48 4.24-2.1 4.24-6.9a7.06 7.06 0 0 0-2.55-5.93z"/><rect class="cls-2" x="76.42" y="50.72" width="2.14" height="4.89" rx=".14" ry=".14"/><path class="cls-2" d="M69.85 42a3.34 3.34 0 0 1 3.33-3.34h.21a4.51 4.51 0 0 1 9 .35 4.44 4.44 0 0 1-.45 2 5 5 0 0 1-1.09 9.95h-6.73a3.58 3.58 0 0 1-3.57-3.57 3.53 3.53 0 0 1 1-2.44 3.35 3.35 0 0 1-1.7-2.95z"/><circle class="cls-2" cx="68.25" cy="58.41" r=".81"/><circle class="cls-2" cx="71.87" cy="58.41" r=".81"/><circle class="cls-2" cx="75.48" cy="58.41" r=".81"/><circle class="cls-2" cx="79.09" cy="58.41" r=".81"/><circle class="cls-2" cx="82.71" cy="58.41" r=".81"/><circle class="cls-2" cx="86.32" cy="58.41" r=".81"/><circle class="cls-2" cx="70.06" cy="55.61" r=".81"/><circle class="cls-2" cx="73.67" cy="55.61" r=".81"/><circle class="cls-2" cx="80.9" cy="55.61" r=".81"/><circle class="cls-2" cx="84.51" cy="55.61" r=".81"/><path class="cls-2" transform="rotate(-45.29 75.977 18.905)" d="M60.77 18.24H91.2v1.32H60.77z"/><path class="cls-2" transform="rotate(-44.71 75.974 75.11)" d="M75.32 59.9h1.32v30.43h-1.32z"/><path class="cls-2" transform="rotate(-44.71 18.87 18.89)" d="M18.21 3.68h1.32v30.43h-1.32z"/><path class="cls-2" transform="rotate(-45.29 18.873 75.105)" d="M3.66 74.44h30.43v1.32H3.66z"/><g><path class="cls-2" d="M17.53 41.1a2.35 2.35 0 1 0-2.35-2.35 2.35 2.35 0 0 0 2.35 2.35zM27.32 55.53l-1-1.92L24 48.92a1.15 1.15 0 0 0-1.12-.62h-3.36l-.06-4.19c0-1.27-.33-2-1.31-2.27a5.06 5.06 0 0 0-1.45 0h-.12l-3.95 1.27h-.16a1 1 0 0 0-.43.52l-1.13 3.16a1 1 0 0 0 1.88.67l1-2.7 1.47-.48h.07v4.41c0 1 .33 2 1.31 2.27l.32.08a2.32 2.32 0 0 0 .51.05h5l1.3 2.54v.08l.48.9.44.89.05.07.5 1a1.24 1.24 0 0 0 2.19-1.15z"/><path class="cls-2" d="M21.8 52.58H20v.25a.76.76 0 0 1 0 .17 4.59 4.59 0 1 1-8.21-2.82l.1-.13-1.46-1.15-.1.12a6.43 6.43 0 1 0 11.49 4v-.15z"/></g><g><path class="cls-2" d="M47.52 71.46l-5.26 4.45h-5.47v5.69h5.47l5.26 4.47c.37.4.86.22.86-.25V71.71c0-.47-.38-.71-.86-.25zM52.33 75.87a6.7 6.7 0 0 1 .67 2.79 6.64 6.64 0 0 1-.81 3.22l1.31.86a8.2 8.2 0 0 0 .14-7.74zM56.09 73.35a11 11 0 0 1 1.38 5.28 11.16 11.16 0 0 1-1.53 5.71l1.31.85A12.71 12.71 0 0 0 59 78.62a12.48 12.48 0 0 0-1.64-6.14z"/></g></svg>