<svg id="TARGETS" xmlns="http://www.w3.org/2000/svg" viewBox="0 0 94.85 94.85" width="94.85" height="94.85"><defs><style>.cls-1{fill:#00689d}.cls-2{fill:#fff}</style></defs><title>Goal_16_RGB_NG</title><path class="cls-1" d="M0 0h94.85v94.85H0z"/><path class="cls-2" d="M27.5 22.96h-2.89v55.47h39.74v-3.35H27.5V22.96z"/><path class="cls-2" d="M30.5 16.42v55.46h39.74V16.42zm32.84 4.87a2.18 2.18 0 0 1 1.57-.49 2.31 2.31 0 0 1-.49 1.6 2.24 2.24 0 0 1-1.57.49 2.31 2.31 0 0 1 .49-1.6zm-.64 19.18h-5.21a.74.74 0 0 1-.73-.74.73.73 0 0 1 .73-.73h5.21a.73.73 0 0 1 .74.73.74.74 0 0 1-.74.74zm.74 7.38a.74.74 0 0 1-.74.74h-5.21a.74.74 0 0 1 0-1.47h5.21a.74.74 0 0 1 .74.73zm-2.53-21.77a2 2 0 0 1 1.35-.52 1.89 1.89 0 0 1 1.17.82 2 2 0 0 1-1.35.51 1.89 1.89 0 0 1-1.17-.81zm1.42-1.48a2 2 0 0 1 1.22-.79 1.91 1.91 0 0 1 1.31.56 2 2 0 0 1-1.22.78 1.87 1.87 0 0 1-1.31-.55zM60.89 21a2.12 2.12 0 0 1 1 1.2 2.15 2.15 0 0 1-.41 1.53 2.16 2.16 0 0 1-1-1.2 2.21 2.21 0 0 1 .41-1.53zm-1.57 1.7a2.16 2.16 0 0 1 1 1.2 2.14 2.14 0 0 1-.41 1.52 2.12 2.12 0 0 1-1-1.2 2.14 2.14 0 0 1 .41-1.52zm-20.6 20.16l8.24.19v-2.69a12 12 0 0 1-2.87-.59c-1.57-.54-3.33-2.1-4.81-2.56a2.71 2.71 0 0 1-.36-.1l.36.1a5.68 5.68 0 0 0 4.22-.49c1.81-1.25 1.88-2 3.23-2.49-2.43-.21-4.21-1.71-4.92-5-.67-3.16-1.13-4.4-2.46-5 1.94-.18 4.78-.2 8 3.12 2.46 2.53 5 2.46 7 .6s3.41-2.77 4.51-1.55c.26.3.52.55.75.77a5.4 5.4 0 0 1 1.72-2.73 8.52 8.52 0 0 0 1.14-1.33l.26.17a8.7 8.7 0 0 1-1.17 1.38 5 5 0 0 0-1.66 2.74 6.77 6.77 0 0 0 1 .71 5.68 5.68 0 0 0-1 0 7.55 7.55 0 0 0 .43 2.27h-.31a8.22 8.22 0 0 1-.43-2.24 5.11 5.11 0 0 0-1 .26c-1.19.44-2 1.44-1.92 4a7 7 0 0 1-5.3 7.44 11.64 11.64 0 0 1-1.83.37v2.82l4.6.1 3.16-.35V41.4a.41.41 0 0 1 .41-.42h4.83a.42.42 0 0 1 .42.42v4.79a.42.42 0 0 1-.42.42h-4.86a.41.41 0 0 1-.41-.42v-1.46l-3.16-.35-15.39.36zm-2.06.27a.68.68 0 0 1 .62-.72h.37a.68.68 0 0 1 .62.72v1.3a.67.67 0 0 1-.62.71h-.37a.67.67 0 0 1-.62-.71zm28.8 21.75c0 .11-.14.19-.32.19H35.78c-.18 0-.32-.08-.32-.19v-4.69c0-.1.14-.19.32-.19h29.36c.18 0 .32.09.32.19zm0-8.18c0 .11-.14.19-.32.19H35.78c-.18 0-.32-.08-.32-.19V52c0-.1.14-.19.32-.19h29.36c.18 0 .32.09.32.19z"/><path class="cls-2" d="M47.72 43.06h1v-2.69h-1z"/></svg>