<svg id="TARGETS" xmlns="http://www.w3.org/2000/svg" viewBox="0 0 94.85 94.85" width="94.85" height="94.85"><defs><style>.cls-1{fill:#56c02b}.cls-2{fill:#fff}</style></defs><title>Goal_15_RGB_NG</title><path class="cls-1" d="M0 0h94.85v94.85H0z"/><path class="cls-2" d="M82.26 59.75l.41-7-.91-1.11-.45 8.11c.9.3.95 0 .95 0zM71.26 59.75c.79.29 1 0 1 0l.35-6.58-.8-3.05z"/><path class="cls-2" d="M68.35 23.14a4.91 4.91 0 0 0 .1.74 6.15 6.15 0 0 0-2.7 1.49 1.54 1.54 0 0 0-.91 1.32h3.83l3.1 16.63a4.49 4.49 0 0 0 .09 2.22l3.23 14.21c.79.27 1 0 1 0l-1.19-6.88c-.69-5.07.38-5.48.38-5.48h4.61a20.71 20.71 0 0 0 3.9 5.48l1.32 6.88c.83.3 1 0 1 0L83.5 45.52l1.23 3.4.78 2.23s-.46 1.32.54 1.6l-.74-3.83L84.3 46s-.08-1.39-2.16-2.7l-6.89-4.07-4.76-14.39s.9-1.12.36-1.2a2.69 2.69 0 0 0-1.15.17 2.47 2.47 0 0 0-.64 0 6.7 6.7 0 0 0-.2-.84.48.48 0 0 0 .09-.26.48.48 0 1 0-.6.45zM36.37 31l5.56.06c1.29.88 2.65 1.78 3.52 2.3 1.41.85 2.41 1.63 3.46 2.38l-1.18 23.47a.27.27 0 0 0 0 .12.24.24 0 0 0 0 .08.29.29 0 0 0 .24.21h6.69a.31.31 0 0 0 .25-.26l-1.2-23.93c.93-.36 1.85-.73 2.77-1.12s1.87-.85 2.79-1.3l1.58-.83h3.41a1.24 1.24 0 0 0 1.36-1.07A1.24 1.24 0 0 0 64.24 30h-.51a.81.81 0 0 0-.3-.54 3.06 3.06 0 0 0-2.16-.21 1.56 1.56 0 0 0-.3-.42c-.63-.63-2.92-.69-4.09 0a1.25 1.25 0 0 0-.68 1.09A1.24 1.24 0 0 0 54.8 31a1.24 1.24 0 0 0 1.36 1h1.94c-.74.16-1.48.32-2.21.52-1 .26-2 .55-3 .86l-1.63-3.61 4.67-3.39h4.59a1.81 1.81 0 1 0 0-3.62h-1.67a1.6 1.6 0 0 0-.52-.75c-.59-.52-2.31-.72-3.73-.48a2.18 2.18 0 0 0-.45-.55c-.88-.78-4-.92-5.61-.1a1.43 1.43 0 0 0-.85 1.77h-1.56a1.81 1.81 0 0 0 0 3.62h3l1.87 7.7-.43.14c-1.3-.78-2.6-1.42-4-2.11-.65-.34-1.4-.71-2.16-1.07h2.78c1 0 1.81-.56 1.81-1.25s-.82-1.25-1.81-1.25h-.88a1.62 1.62 0 0 0-.55-.86c-.78-.69-3.57-.82-5-.1a1.35 1.35 0 0 0-.77.9h-3.6c-1 0-1.81.56-1.81 1.25S35.37 31 36.37 31zm17.75-4.53l-3.63 1.81-.84-1.85zM74.36 15.54l9 4.09.88-.31-1.66-.73-2.44-2.38.46-.58 5.8-3.46-7-.35-1.79 2.5-2.39-.5s-2.11 1.31-1.7 2.17c.21-.31.84-.45.84-.45zM43.12 80.58c9.43 8.71 19.22 1.49 21.28-.22l.2-.18a.41.41 0 0 1 .19 0 .45.45 0 0 1 .2 0l.2.18c2 1.7 11.68 8.8 21 .45l.27-.25a.45.45 0 0 0 .12-.3v-4.58a.44.44 0 0 0-.44-.44.4.4 0 0 0-.15 0l-.18.13c-2.83 2-12.17 7.63-20.55-.19l-.13-.13a.58.58 0 0 0-.36-.15.56.56 0 0 0-.35.15l-.14.13c-8.24 7.69-17.44 2.39-20.42.29l-.23-.18a.52.52 0 0 0-.23-.06.43.43 0 0 0-.42.39v4.63a.44.44 0 0 0 .14.33zM43.44 66h42.68a.58.58 0 0 1 .57.57v3.6a.58.58 0 0 1-.57.57H43.44M35.42 68.8l-7.25 5.71a.4.4 0 0 1-.31.08c-.16 0-.22-.14-.22-.36v-2.88H8.79a.27.27 0 0 1-.25-.3v-5a.27.27 0 0 1 .25-.3h18.85v-2.84c0-.21.06-.31.22-.36a.44.44 0 0 1 .31.08l7.19 5.49a.42.42 0 0 1 .22.39.45.45 0 0 1-.16.29z"/><g><path class="cls-2" d="M20.18 56a5.16 5.16 0 0 1-1.31.58 13 13 0 0 1-4.07.5 15.52 15.52 0 0 1-2-.15c-.46-.07-.8-.14-1.23-.24l-.6-.16a4.87 4.87 0 0 1-1.59-.76 2 2 0 0 1-.44-.47v1.32a1.16 1.16 0 0 0 .47.86 6.54 6.54 0 0 0 3.17 1.18 15.28 15.28 0 0 0 2.32.18 13.89 13.89 0 0 0 3.34-.38 6.77 6.77 0 0 0 1.76-.64c.55-.34.88-.73.88-1.16 0 0 .05-1.21 0-1.31a2.45 2.45 0 0 1-.7.65zM14.32 52c3.3 0 6-1 6-2.21 0 0 .07-1.14 0-1.38a1.24 1.24 0 0 0-.1-.47 1.34 1.34 0 0 0 .67-1s.06-1.26 0-1.51c-.16-1.49-3.16-2.29-6-2.29s-6 .85-6 2.43c0 .07.05 1.37.05 1.37a1.34 1.34 0 0 0 .07.27 1.51 1.51 0 0 0-.74 1.21v1.38a1.2 1.2 0 0 0 .47.86A6.69 6.69 0 0 0 12 51.82a15.42 15.42 0 0 0 2.32.18zm.62-8.25c3.18 0 5.39.95 5.39 1.81s-2.21 1.8-5.39 1.8-5.39-1-5.39-1.8 2.21-1.82 5.39-1.82zm-6 4.66a1 1 0 0 1 .47-.68 3 3 0 0 0 .6.44 11 11 0 0 0 4.94 1 12.6 12.6 0 0 0 4.22-.65 4.12 4.12 0 0 0 .52-.24.8.8 0 0 1 0 .15c0 .85-2.21 1.8-5.39 1.8s-5.37-.98-5.37-1.83z"/><path class="cls-2" d="M12.55 56.56a15.23 15.23 0 0 0 2.32.17 14 14 0 0 0 3.34-.38 6.4 6.4 0 0 0 1.69-.66 2.68 2.68 0 0 0 .37-.26 1.48 1.48 0 0 0 .45-.58.85.85 0 0 0 .06-.31v-1.31c-.2.25-.71 1-3.06 1.51a18.72 18.72 0 0 1-3 .26A11 11 0 0 1 10 54a3.8 3.8 0 0 1-.75-.51 2.35 2.35 0 0 1-.36-.45v1.46a1.16 1.16 0 0 0 .47.84 6.65 6.65 0 0 0 3.19 1.22z"/><path class="cls-2" d="M20.76 50.54a1 1 0 0 0-.16-.13 1.38 1.38 0 0 0-.24-.14 1.52 1.52 0 0 1-.27.35 1.26 1.26 0 0 1 .23.13.57.57 0 0 1 .28.46.49.49 0 0 1-.21.39l-.23.18-.34.19-.53.22s-.37.13-.53.17l-.71.17-.91.15-.94.09-1.37.06a12.32 12.32 0 0 1-1.9-.14c-.46-.07-.92-.15-1.35-.25a8.75 8.75 0 0 1-1.42-.44 2.53 2.53 0 0 1-.74-.51 2.36 2.36 0 0 1-.42-.63v1.51a1.2 1.2 0 0 0 .47.86 6.65 6.65 0 0 0 3.17 1.18 15.32 15.32 0 0 0 2.32.17 13.89 13.89 0 0 0 3.34-.38 6.32 6.32 0 0 0 1.7-.67 2.68 2.68 0 0 0 .37-.26 1.48 1.48 0 0 0 .45-.58.85.85 0 0 0 .06-.31s.05-1.26.05-1.29a.56.56 0 0 0-.05-.3.73.73 0 0 0-.12-.25zM28.05 47.68c3.29 0 6-1 6-2.21 0 0 .07-1.13.05-1.38a1.32 1.32 0 0 0-.11-.47 1.34 1.34 0 0 0 .68-1s.06-1.27 0-1.52c-.16-1.49-3.17-2.29-6-2.29s-6 .85-6 2.43c0 .08.06 1.38.06 1.38a.84.84 0 0 0 .07.26 1.52 1.52 0 0 0-.8 1.21c0 .08.06 1.38.06 1.38a1.16 1.16 0 0 0 .47.86 6.54 6.54 0 0 0 3.17 1.18 15.32 15.32 0 0 0 2.35.17zm.62-8.25c3.17 0 5.39 1 5.39 1.81S31.84 43 28.67 43s-5.4-.95-5.4-1.8 2.22-1.77 5.4-1.77zm-6 4.66c0-.22.18-.45.47-.68a2.46 2.46 0 0 0 .61.44 10.93 10.93 0 0 0 4.94 1 12.49 12.49 0 0 0 4.21-.65 4.25 4.25 0 0 0 .5-.2.43.43 0 0 1 0 .14c0 .86-2.22 1.81-5.39 1.81s-5.36-.95-5.36-1.86z"/><path class="cls-2" d="M34.63 46.47a.54.54 0 0 0-.15-.23 1.44 1.44 0 0 0-.15-.14 1.17 1.17 0 0 0-.25-.13 1.22 1.22 0 0 1-.27.35 1.59 1.59 0 0 1 .24.13.55.55 0 0 1 .28.45.52.52 0 0 1-.21.4c-.08.05-.14.11-.24.17l-.34.19s-.36.17-.52.23l-.53.16-.72.17s-.63.12-.9.15l-.94.09c-.09 0-1 .06-1.37.06a12.15 12.15 0 0 1-1.9-.14c-.46-.06-.92-.15-1.35-.25a8.08 8.08 0 0 1-1.43-.45 2.51 2.51 0 0 1-.73-.5 2.36 2.36 0 0 1-.47-.63v1.51a1.15 1.15 0 0 0 .46.86 6.63 6.63 0 0 0 3.18 1.18 15.23 15.23 0 0 0 2.32.17 14 14 0 0 0 3.36-.38 6.41 6.41 0 0 0 1.69-.65 2.68 2.68 0 0 0 .37-.26 1.41 1.41 0 0 0 .45-.58.81.81 0 0 0 .06-.31v-1.28a.75.75 0 0 0 .06-.34zM33.94 51.72a5 5 0 0 1-1.31.58 13.32 13.32 0 0 1-4.07.51 15.41 15.41 0 0 1-2-.16 11.19 11.19 0 0 1-1.23-.23l-.6-.16a5 5 0 0 1-1.59-.77 1.83 1.83 0 0 1-.45-.47v1.33a1.18 1.18 0 0 0 .46.86 6.73 6.73 0 0 0 3.18 1.18 15.23 15.23 0 0 0 2.32.17 13.87 13.87 0 0 0 3.35-.38 6.4 6.4 0 0 0 1.69-.66c.55-.34.88-.73.88-1.15v-1.32a2.6 2.6 0 0 1-.63.67z"/><path class="cls-2" d="M23.13 51.07a6.59 6.59 0 0 0 3.17 1.18 15.42 15.42 0 0 0 2.32.17A13.89 13.89 0 0 0 32 52a6.2 6.2 0 0 0 1.68-.65 4.17 4.17 0 0 0 .38-.27 1.38 1.38 0 0 0 .44-.58.81.81 0 0 0 .06-.31v-1.31c-.19.25-.71 1-3.06 1.51a17.56 17.56 0 0 1-3 .26 11.18 11.18 0 0 1-4.76-.93 3.94 3.94 0 0 1-.75-.51 3.11 3.11 0 0 1-.37-.45v1.45a1.16 1.16 0 0 0 .51.86zM34.69 55.31A2.6 2.6 0 0 1 34 56a5.33 5.33 0 0 1-1.31.58 13.08 13.08 0 0 1-4.07.5 15.28 15.28 0 0 1-2-.15c-.46-.07-.81-.14-1.23-.24-.21 0-.42-.1-.6-.16a4.77 4.77 0 0 1-1.59-.76 1.83 1.83 0 0 1-.45-.47v1.32a1.15 1.15 0 0 0 .46.86 6.63 6.63 0 0 0 3.18 1.18 15.18 15.18 0 0 0 2.32.18 13.87 13.87 0 0 0 3.29-.38 6.77 6.77 0 0 0 1.69-.66c.55-.34.88-.73.88-1.16.09-.02.13-1.23.12-1.33z"/><path class="cls-2" d="M26.33 56.53a15.42 15.42 0 0 0 2.32.17 13.89 13.89 0 0 0 3.35-.38 6.19 6.19 0 0 0 1.68-.66 2.81 2.81 0 0 0 .38-.26 1.45 1.45 0 0 0 .44-.58.85.85 0 0 0 .06-.31V53.2c-.19.25-.71 1-3.06 1.51a18.61 18.61 0 0 1-3 .26 11 11 0 0 1-4.72-.97 3.52 3.52 0 0 1-.78-.5 2.62 2.62 0 0 1-.37-.45v1.46a1.2 1.2 0 0 0 .47.84 6.69 6.69 0 0 0 3.23 1.18z"/></g></svg>