<svg id="TARGETS" xmlns="http://www.w3.org/2000/svg" viewBox="0 0 94.85 94.85" width="94.85" height="94.85"><defs><style>.cls-1{fill:#4c9f38}.cls-2{fill:#fff}</style></defs><title>Goal_3_RGB_NG</title><path class="cls-1" d="M0 0h94.85v94.85H0z"/><path class="cls-2" d="M44 29a.78.78 0 0 0-.83-.73h-1.2c-.43 0-.85-.13-1-.6a15.42 15.42 0 0 0-.77-2.29 1 1 0 0 1 .29-1.17c.37-.3.65-.55 1-.86a.82.82 0 0 0 .19-1 11.41 11.41 0 0 0-1.85-2.46.79.79 0 0 0-1.1-.1c-.37.25-.64.42-1 .67s-.77.4-1.15.1c-.7-.52-1.5-1.1-2-1.41a1 1 0 0 1-.4-1.15c.12-.45.21-.82.31-1.28a.82.82 0 0 0-.45-1 12.06 12.06 0 0 0-2.94-.9.79.79 0 0 0-1 .57c-.16.42-.27.72-.41 1.13s-.38.77-.87.75H26.4a1 1 0 0 1-1-.64c-.17-.44-.32-.79-.5-1.22a.81.81 0 0 0-.93-.51 11.52 11.52 0 0 0-2.91 1 .79.79 0 0 0-.44 1c.12.43.2.74.33 1.15s.15.86-.26 1.12-1.41 1-1.95 1.44a1 1 0 0 1-1.2.08l-1.1-.69a.8.8 0 0 0-1.05.14 11.28 11.28 0 0 0-1.77 2.51.8.8 0 0 0 .24 1.09l1 .74c.39.28.62.6.45 1.06s-.58 1.82-.73 2.3a1 1 0 0 1-.93.78c-.47 0-.85.06-1.31.1a.8.8 0 0 0-.77.72 11.34 11.34 0 0 0 .05 3.08.8.8 0 0 0 .83.74h1.2c.43 0 .85.13 1 .59a20.69 20.69 0 0 0 .77 2.31 1 1 0 0 1-.29 1.16c-.37.3-.65.55-1 .86a.81.81 0 0 0-.2 1 11.41 11.41 0 0 0 1.85 2.46.8.8 0 0 0 1.11.1c.37-.24.64-.42 1-.67s.76-.4 1.14-.1 1.5 1.1 2 1.41a1 1 0 0 1 .45 1.12c-.12.45-.2.82-.31 1.28a.82.82 0 0 0 .45 1 12.06 12.06 0 0 0 2.94.9.79.79 0 0 0 1-.57c.16-.42.27-.72.41-1.13s.39-.77.87-.75h2.42a1 1 0 0 1 1 .64c.17.44.32.79.5 1.22a.82.82 0 0 0 .93.51 11.52 11.52 0 0 0 2.91-1 .78.78 0 0 0 .44-1c-.12-.43-.2-.74-.33-1.15s-.14-.86.26-1.12 1.53-1.11 1.95-1.44a1 1 0 0 1 1.2-.08c.4.26.72.45 1.12.69a.81.81 0 0 0 1.06-.14 11.57 11.57 0 0 0 1.76-2.51.79.79 0 0 0-.24-1.09c-.35-.28-.6-.48-.95-.74s-.62-.6-.44-1.06.56-1.74.72-2.3a1 1 0 0 1 .93-.78c.47 0 .85-.06 1.31-.1a.82.82 0 0 0 .78-.72A11.76 11.76 0 0 0 44 29zM27.82 41a10.06 10.06 0 1 1 10.09-10 10.09 10.09 0 0 1-10.09 10z"/><path class="cls-2" d="M20.41 28c.23.16.39 0 .49-.13a.32.32 0 0 0 0-.36c-.06-.12.12-.21.23-.25a6.35 6.35 0 0 0 .68-.39 2.23 2.23 0 0 1 1.34 0 .73.73 0 0 0 .89-.17 2.37 2.37 0 0 1 .65-.54c.12-.06-.32-.48-.69 0s-.55.5-.72.5-1.2-.26-1.33-.59.33-.56.7-.74a8.51 8.51 0 0 1 1.68-.23c.54-.12 1.22-.39 1.57-.15s-1.45.63-.86.95c.21.12 1.16-.54 1.48-.71.77-.39-.73-.52-.53-1.32s-1.76-.58-2.81-.49a8.73 8.73 0 0 0-1.38 1.06c.13 0 .26.07.28.15a1.18 1.18 0 0 1-.12.56 1.49 1.49 0 0 1-.94.43.61.61 0 0 1-.18-.08c-.15.2-.3.42-.44.64a1.3 1.3 0 0 1 .65-.22c.23 0 .52.07.55.22s-.55.41-.66.51c-.3.28-.79.85-1.07.92a.36.36 0 0 1-.21 0 5.71 5.71 0 0 0-.21.58 1.06 1.06 0 0 1 .96-.15zM35 30.48a2.41 2.41 0 0 1-.94.37 1.2 1.2 0 0 0-.46 1.06c.07.34.88 1.26.28 1.23a3.45 3.45 0 0 1-1.38-1.21c-.18-.49-.38-1-.52-1.34a.53.53 0 0 0-.84-.24c-.31.21.09.42-.14.89s-.39.87-.72.49c-.87-1-2.12-.51-2.32-1.62-.1-.6-.62-.54-1.05-.88s-.67-.52-.74-.28 1.35 1.35 1.45 1.63c.15.43-.43.81-.85.91s-.61-.24-1-.67-.59-.74-.62-.4a2 2 0 0 0 .81 1.48c.36.22.76.33.64.7s0 .16-.4.55a1.1 1.1 0 0 0-.46 1.08c0 .56-.11.59-.2 1.05s-.28.06-.46.74a2.61 2.61 0 0 1-.55 1.13 1.87 1.87 0 0 1-1.21.46c-.41 0-.46-1.11-.46-1.66 0-.2-.27.37-.4-.78-.09-.74-.57.08-.6-.42s-.27-.39-.52-.7-.56 0-.9.18-.2.24-.69.08a8.85 8.85 0 0 0 5.66 5.07.37.37 0 0 1-.11-.43 2 2 0 0 1 1.75-1c1.43-.14 3.32.94 3.62.77s.91-1 1.81-.93a1.5 1.5 0 0 1 .8.2 8 8 0 0 0 .89-.76 1.19 1.19 0 0 1-.28-.1c-.49-.25-.43.15-.67.06s.27-.64-.44-.18-.52-.07-.83-.86a1.61 1.61 0 0 1 .92-1.89 10.77 10.77 0 0 1 1.62-.42c1.06-.26 1.29-.9 1.48-.51a1.28 1.28 0 0 0 .11.2 1.44 1.44 0 0 1 .12.54 9.47 9.47 0 0 0 .4-1.31c-.26-.11-1.21-1.46-.43-2.34.13-.15-.27-.6-.16-.6a.69.69 0 0 1 .74.53 7.67 7.67 0 0 0-.2-1.37 1.17 1.17 0 0 1 0 .31.57.57 0 0 1-1 .08c-.09-.14-.47-.49-.46.12s.46.62-.09.99zM26.66 34c-.13.19-.47 1.68-.69 1.51s.1-1.73.16-1.85c.35-.66 1.11-.66.53.34zm3.62-1.76a.79.79 0 0 1-.85-.08c-.22-.17.15-.46.28-.47.29-.06.75.36.57.51zm3.72-.36a.19.19 0 0 1 .28-.25.84.84 0 0 1 .42.51c0 .15-.36.13-.45.09s-.25-.13-.25-.35zm1.19 1.17a.77.77 0 0 1-.89-.05c-.23-.17.14-.46.27-.47.3-.05.75.37.57.52zM20.08 29a8 8 0 0 1 1.45.36c.52.19 1.32.63 1.79.44s.61-.32.58-.61-.32-.44-.65-.2c-.13.09-.4-.54-.61-.5s.26.73.08.76-.53-.73-.59-.86-.34-.43-.58-.19c-.53.49-1.37.46-1.55.59a.81.81 0 0 1-.18.1c-.34.14-.45-.21-.46-.48a8.41 8.41 0 0 0-.3 1.51v-.07c.29-.54.34-.6.44-.65a3.6 3.6 0 0 1 .34-.14z"/><g><path class="cls-2" d="M68 14.27a6 6 0 1 0 6 6 6 6 0 0 0-6-6z"/><path class="cls-2" d="M68.12 13.11a7.5 7.5 0 0 1 5.18 2.26l2.53-2.73a10.81 10.81 0 0 0-15.7.26l3 2.33a7.53 7.53 0 0 1 4.99-2.12zM85 49.91l-5-16.16s-1.77-4.66-5.69-4.66H61.66c-3.93 0-5.7 4.66-5.7 4.66L51 49.91s-.89 3 1.62 3.7 3.26-2.16 3.26-2.16l4-13.47s.22-1 1-.81.49 1.33.49 1.33l-7 25.25h6.47v18.1a3.12 3.12 0 0 0 6.23 0v-18.1h1.76v18.1a3.11 3.11 0 0 0 6.22 0v-18.1h6.48l-7-25.25s-.29-1.11.48-1.33 1 .81 1 .81l4 13.47s.76 2.9 3.26 2.16 1.73-3.7 1.73-3.7zm-17 4.88a1 1 0 1 1 1-1 1 1 0 0 1-1 1zm0-8a1 1 0 1 1 1-1 1 1 0 0 1-1 1.04zm0-7.71a1 1 0 1 1 1-1 1 1 0 0 1-1 1.04z"/></g><g><path class="cls-2" d="M26.37 81.25a7.15 7.15 0 0 1-1.83.81 18.31 18.31 0 0 1-5.7.71 21.86 21.86 0 0 1-2.84-.22 17.27 17.27 0 0 1-1.71-.33c-.3-.07-.58-.14-.85-.23a7 7 0 0 1-2.22-1.06 2.65 2.65 0 0 1-.62-.67v1.85a1.66 1.66 0 0 0 .66 1.21A9.32 9.32 0 0 0 15.75 85a21.91 21.91 0 0 0 3.24.24 19.83 19.83 0 0 0 4.68-.53 8.73 8.73 0 0 0 2.36-.92c.78-.47 1.24-1 1.24-1.62 0 0 .06-1.69 0-1.83a3.85 3.85 0 0 1-.9.91zM18.17 75.6c4.61 0 8.35-1.39 8.35-3.1 0 0 .09-1.59.06-1.93a1.74 1.74 0 0 0-.14-.66 1.86 1.86 0 0 0 .94-1.4s.08-1.77 0-2.12C27.2 64.31 23 63.18 19 63.18s-8.42 1.19-8.42 3.4c0 .11.08 1.93.08 1.93a1.27 1.27 0 0 0 .1.37 2.11 2.11 0 0 0-1.05 1.69c0 .11.08 1.93.08 1.93a1.66 1.66 0 0 0 .66 1.21 9.23 9.23 0 0 0 4.44 1.64 20.59 20.59 0 0 0 3.28.25zM19 64.05c4.44 0 7.54 1.33 7.54 2.53S23.48 69.1 19 69.1s-7.55-1.33-7.55-2.52 3.14-2.53 7.55-2.53zm-8.42 6.52a1.36 1.36 0 0 1 .66-.95 3.89 3.89 0 0 0 .85.62A15.36 15.36 0 0 0 19 71.6a17.6 17.6 0 0 0 5.9-.9c.27-.1.5-.22.73-.33a.71.71 0 0 1 0 .2c0 1.2-3.09 2.53-7.54 2.53s-7.47-1.33-7.47-2.53z"/><path class="cls-2" d="M15.69 82a21.94 21.94 0 0 0 3.25.24 19.81 19.81 0 0 0 4.67-.53h.05a9.44 9.44 0 0 0 2.34-.94 5.32 5.32 0 0 0 .52-.37 2 2 0 0 0 .62-.81 1.11 1.11 0 0 0 .09-.43v-1.84c-.28.35-1 1.44-4.29 2.11a24 24 0 0 1-4.25.37c-2.66-.06-5.43-.54-6.67-1.31a5.54 5.54 0 0 1-1-.72 3.85 3.85 0 0 1-.51-.63v2.05a1.6 1.6 0 0 0 .65 1.17A9.32 9.32 0 0 0 15.69 82z"/><path class="cls-2" d="M27.18 73.57c-.08-.08-.2-.17-.22-.19a2.17 2.17 0 0 0-.34-.19 1.91 1.91 0 0 1-.38.49 2.55 2.55 0 0 1 .33.19.79.79 0 0 1 .39.63.76.76 0 0 1-.3.56l-.32.24s-.35.2-.48.26a7.76 7.76 0 0 1-.73.32l-.75.24c-.08 0-.73.18-1 .23-.07 0-.88.16-1.27.21-.1 0-1 .1-1.31.12-.14 0-1.38.08-1.93.09a17.87 17.87 0 0 1-2.66-.2c-.64-.09-1.28-.21-1.88-.35a11.66 11.66 0 0 1-2-.62 3.83 3.83 0 0 1-1-.71 3.92 3.92 0 0 1-.66-.87v2.09a1.64 1.64 0 0 0 .65 1.2A9.41 9.41 0 0 0 15.79 79a22 22 0 0 0 3.25.24 19.24 19.24 0 0 0 4.67-.53h.05a9.44 9.44 0 0 0 2.36-.92 4.33 4.33 0 0 0 .52-.37 2 2 0 0 0 .63-.81 1.31 1.31 0 0 0 .08-.43s.07-1.76.07-1.8a.86.86 0 0 0-.07-.43.89.89 0 0 0-.17-.38zM37.38 69.57c4.61 0 8.34-1.39 8.34-3.1 0 0 .1-1.58.07-1.93a1.91 1.91 0 0 0-.14-.65 1.89 1.89 0 0 0 .94-1.41s.08-1.77 0-2.12c-.22-2.08-4.43-3.2-8.39-3.2s-8.41 1.19-8.41 3.39c0 .11.08 1.93.08 1.93a1.2 1.2 0 0 0 .1.37 2.11 2.11 0 0 0-.97 1.69c0 .11.08 1.93.08 1.93a1.63 1.63 0 0 0 .66 1.21 9.32 9.32 0 0 0 4.44 1.65 21.8 21.8 0 0 0 3.2.24zM38.24 58c4.45 0 7.55 1.33 7.55 2.52s-3.1 2.53-7.55 2.53-7.54-1.33-7.54-2.53S33.8 58 38.24 58zm-8.41 6.51c0-.31.25-.63.66-1a3.81 3.81 0 0 0 .84.62 15.29 15.29 0 0 0 6.92 1.37 17.62 17.62 0 0 0 5.9-.91 6 6 0 0 0 .72-.33.84.84 0 0 1 .05.2c0 1.2-3.1 2.53-7.54 2.53s-7.55-1.25-7.55-2.45z"/><path class="cls-2" d="M46.59 67.88a.82.82 0 0 0-.21-.34 1.18 1.18 0 0 0-.21-.18 2.17 2.17 0 0 0-.34-.19 2.13 2.13 0 0 1-.38.49 2 2 0 0 1 .33.18.79.79 0 0 1 .39.64.74.74 0 0 1-.3.55 3 3 0 0 1-.32.24l-.48.27s-.51.23-.74.31c0 0-.51.18-.74.24l-1 .24c-.07 0-.89.15-1.28.2l-1.31.13c-.13 0-1.37.08-1.92.09a19.21 19.21 0 0 1-2.66-.2c-.64-.09-1.29-.21-1.88-.35a12 12 0 0 1-2-.63 3.47 3.47 0 0 1-1-.71 3.92 3.92 0 0 1-.66-.87v2.1a1.63 1.63 0 0 0 .65 1.2A9.12 9.12 0 0 0 35 73a20.67 20.67 0 0 0 3.25.24 19.24 19.24 0 0 0 4.67-.53 9.07 9.07 0 0 0 2.36-.92 5.27 5.27 0 0 0 .52-.36 2.15 2.15 0 0 0 .62-.81 1.15 1.15 0 0 0 .09-.44s.07-1.76.07-1.8a.9.9 0 0 0 .01-.5zM45.62 75.22a6.67 6.67 0 0 1-1.83.81 18.31 18.31 0 0 1-5.7.71 21.86 21.86 0 0 1-2.83-.22 17.3 17.3 0 0 1-1.71-.32l-.85-.2a7.08 7.08 0 0 1-2.22-1.07 2.6 2.6 0 0 1-.62-.66v1.85a1.66 1.66 0 0 0 .66 1.2A9.22 9.22 0 0 0 35 79a20.63 20.63 0 0 0 3.24.24 19.32 19.32 0 0 0 4.68-.53 9.07 9.07 0 0 0 2.36-.92c.78-.47 1.24-1 1.24-1.61 0 0 .06-1.69 0-1.84a3.69 3.69 0 0 1-.9.88z"/><path class="cls-2" d="M30.5 74.31A9.22 9.22 0 0 0 34.94 76a20.67 20.67 0 0 0 3.25.24 19.24 19.24 0 0 0 4.67-.53 9.07 9.07 0 0 0 2.36-.92c.19-.12.36-.24.52-.36a2.15 2.15 0 0 0 .62-.81 1.15 1.15 0 0 0 .09-.44v-1.84c-.28.36-1 1.45-4.29 2.12a25.15 25.15 0 0 1-4.25.36c-2.66 0-5.43-.53-6.67-1.3a5.54 5.54 0 0 1-1.05-.72 4.36 4.36 0 0 1-.51-.63v2.04a1.59 1.59 0 0 0 .82 1.1zM46.67 80.24a3.52 3.52 0 0 1-1 1 7 7 0 0 1-1.83.81 18.9 18.9 0 0 1-5.7.71 23.64 23.64 0 0 1-2.82-.22 16.93 16.93 0 0 1-1.72-.33c-.3-.07-.58-.15-.84-.23a7 7 0 0 1-2.23-1.07 2.45 2.45 0 0 1-.62-.66v1.86a1.64 1.64 0 0 0 .65 1.21A9.27 9.27 0 0 0 35 84.93a20.72 20.72 0 0 0 3.25.25 19.75 19.75 0 0 0 4.75-.53 8.73 8.73 0 0 0 2.36-.92c.77-.47 1.23-1 1.23-1.61.04-.04.1-1.73.08-1.88z"/><path class="cls-2" d="M35 82a22 22 0 0 0 3.25.24 19.75 19.75 0 0 0 4.67-.53h.05a8.73 8.73 0 0 0 2.36-.92 4.33 4.33 0 0 0 .52-.37 2.11 2.11 0 0 0 .63-.81 1.32 1.32 0 0 0 .08-.44v-1.83c-.28.35-1 1.44-4.28 2.11a24.25 24.25 0 0 1-4.26.37c-2.66-.06-5.43-.54-6.67-1.31a5.54 5.54 0 0 1-1-.72 3.85 3.85 0 0 1-.51-.63v2.05a1.64 1.64 0 0 0 .65 1.17A9.41 9.41 0 0 0 35 82z"/></g></svg>