<svg id="TARGETS" xmlns="http://www.w3.org/2000/svg" viewBox="0 0 94.85 94.85" width="94.85" height="94.85"><defs><style>.cls-1{fill:#0a97d9}.cls-2{opacity:.3}.cls-3{fill:#fff}</style></defs><title>Goal_14_RGB_NG</title><path class="cls-1" d="M0 .13h94.85v94.85H0z"/><path d="M44 31.42l.23-.23.12-.12-.32-.22v.29c0 .1-.03.18-.03.28z"/><path d="M40 24.55L29.16 35.42l-1.47 1.47a9.44 9.44 0 0 0 1.06 1.6l1.67-1.68L41.3 25.94a6.28 6.28 0 0 0 .91.7 4.19 4.19 0 0 0 0 .5 4.76 4.76 0 0 0 .07.66L32.1 37.94l-1.93 1.94a9.07 9.07 0 0 0 1.62 1l2.27-2.26L43 29.73a5 5 0 0 0 1.09 1.12l.32.22-.12.12-.23.23-7.42 7.38-2.82 2.82a8.91 8.91 0 0 0 2 .22h.44L45 33.12v-.43a8.58 8.58 0 0 0-.11-1.35 4.67 4.67 0 0 0 1.94.44 4.58 4.58 0 0 0 2.35-.65 7.12 7.12 0 0 0 12.62.61 5.13 5.13 0 0 0 8.33-1.55 8.24 8.24 0 1 0 2.37-11.93A5.25 5.25 0 0 0 63.33 16a3.76 3.76 0 0 0-2.51-1 3.81 3.81 0 0 0-2.38.84 4.18 4.18 0 0 0-8.12-.84 7.1 7.1 0 0 0-10.94 8.21 6.71 6.71 0 0 0 .75 1.43.47.47 0 0 0-.13-.09zM11.72 52.67a.25.25 0 0 0-.12 0l5.21 5.23.57-.89L13 52.67zM19.68 52.68h-.13l.37.37a.16.16 0 0 0 0-.1.26.26 0 0 0-.24-.27zM17.33 38.33a.21.21 0 0 0-.21-.21h-1.49l1.7 1.71zM14.09 52.46l3.79 3.79.49-.78-4.28-4.29v1.28zM14.1 47.22l3.22 3.22V49.1l-3.22-3.23v1.35zM14.31 38.12a.2.2 0 0 0-.2.21v.94l3.23 3.23v-1.38l-3-3zM14.1 41.91l3.22 3.22.01-1.34-3.23-3.23v1.35zM14.1 44.58l3.22 3.22v-1.37L14.1 43.2v1.38zM14.09 49.88l4.79 4.8.53-.84-1.16-1.16h-.94l.01-.94-3.23-3.23v1.37zM15.54 59.31a.25.25 0 0 0 .19.09.29.29 0 0 0 .18-.07h.05l.32-.51L13 55.45l2.46 3.81z"/><g><path d="M83.08 52.61l.37.38a.2.2 0 0 0 0-.11.28.28 0 0 0-.27-.27zM82.92 53.77l-1.15-1.16h-.94v-.94l-3.23-3.22v1.37l4.79 4.8.53-.85zM81.89 55.41l-4.29-4.29v1.27l3.79 3.8.5-.78zM80.89 57l-4.37-4.37h-1.29a.27.27 0 0 0-.12 0l5.22 5.23zM77.83 38.06a.21.21 0 0 0-.21.21v.93l3.22 3.23v-1.37l-3-3zM80.84 38.27a.21.21 0 0 0-.21-.21h-1.48l1.69 1.7zM77.61 41.84l3.22 3.23.01-1.34-3.22-3.23-.01 1.34zM77.61 47.15l3.22 3.23v-1.34l-3.22-3.23v1.34zM77.61 44.51l3.22 3.23v-1.37l-3.22-3.23v1.37zM79.05 59.25a.24.24 0 0 0 .2.08.27.27 0 0 0 .17-.06v-.06l.32-.5-3.28-3.29L79 59.19z"/></g><g><path d="M61.4 52.61l.37.38a.2.2 0 0 0 0-.11.27.27 0 0 0-.26-.27zM61.24 53.77l-1.15-1.16h-.94v-.94l-3.23-3.22v1.37l4.79 4.8.53-.85zM60.21 55.41l-4.29-4.29v1.27l3.79 3.8.5-.78zM59.21 57l-4.37-4.37h-1.29a.27.27 0 0 0-.12 0l5.22 5.23zM56.15 38.06a.21.21 0 0 0-.21.21v.93l3.22 3.23v-1.37l-3-3zM59.16 38.27a.21.21 0 0 0-.21-.21h-1.49l1.7 1.7zM55.93 41.84l3.22 3.23.01-1.34-3.23-3.23v1.34zM55.93 47.15l3.22 3.23v-1.34l-3.22-3.23v1.34zM55.93 44.51l3.22 3.23v-1.37l-3.22-3.23v1.37zM57.37 59.25a.24.24 0 0 0 .2.08.27.27 0 0 0 .17-.06v-.06l.32-.5-3.28-3.29 2.46 3.81z"/></g><path d="M43.91 37l-3.76 3.77A9.17 9.17 0 0 0 43.91 37zM35.83 23.53h-.18l-8 8-1 1v.19a9.47 9.47 0 0 0 .27 2.2l1.24-1.24L38 23.8a9 9 0 0 0-2.17-.27zM19.65 34.43a3.24 3.24 0 0 0 3.23-3.24 3.08 3.08 0 0 0-.07-.68 6.09 6.09 0 0 0 4.8-.22 6.19 6.19 0 0 0 3.49-5l.9-.9a9.25 9.25 0 0 0-.88.47v-.12a5.69 5.69 0 0 0-.06-.83A6.18 6.18 0 1 0 19.69 28a3.24 3.24 0 1 0 0 6.47z"/><g class="cls-2"><path d="M83.51 19.42a3.83 3.83 0 1 0-3.83-3.83 3.75 3.75 0 0 0 .89 2.41 8.2 8.2 0 0 1 1.68 1.18 3.8 3.8 0 0 0 1.26.24zM10.82 29.43A3.83 3.83 0 1 0 7 25.6a3.83 3.83 0 0 0 3.82 3.83z"/><circle cx="35.86" cy="30.62" r="8.27"/></g><g><path class="cls-3" d="M63 25.77v-1.39c0-1-.47-1.58-1.49-1.58A1.44 1.44 0 0 0 60 24.43V27a1.46 1.46 0 0 0 1.55 1.64c1 0 1.47-.58 1.47-1.57v-.63h-.82v.71c0 .51-.2.79-.65.79s-.72-.32-.72-.81v-1.36zm-2.17-1.47c0-.49.23-.8.69-.8s.67.31.67.8v.84h-1.36zM58 22.66a1.17 1.17 0 0 0-1.3 1.28v.7h.9v-.72c0-.36.17-.47.37-.47s.36.09.36.44v.49a1.15 1.15 0 0 1-.36 1l-.56.59a2.06 2.06 0 0 0-.73 1.53v1.07h2.56v-.8h-1.58v-.27a1.15 1.15 0 0 1 .41-.9l.64-.67a1.81 1.81 0 0 0 .61-1.47v-.57c0-.83-.4-1.23-1.32-1.23zM53.46 17.66a2.23 2.23 0 0 0-2.37 2.53v4.53a2.38 2.38 0 1 0 4.76 0v-4.53a2.24 2.24 0 0 0-2.39-2.53zm.81 7.34c0 .56-.24 1-.81 1s-.8-.4-.8-1v-5c0-.57.25-1 .8-1s.81.4.81 1zM47.87 17.66a2.22 2.22 0 0 0-2.36 2.53v4.53a2.21 2.21 0 0 0 2.36 2.52c1.66 0 2.22-1 2.22-2.33V23.3h-1.43V25c0 .56-.2.91-.77.91s-.8-.4-.8-1v-5c0-.57.24-1 .8-1s.77.34.77.91v1.23h1.43V20c0-1.37-.48-2.34-2.22-2.34z"/><g><path class="cls-3" d="M87.29 65.27h-.1l-.25.13A15 15 0 0 1 69.4 63a.7.7 0 0 0-.41-.25.86.86 0 0 0-.39.22c-2.12 1.64-11.9 8.23-20.59.12l-.13-.12a.47.47 0 0 0-.35-.14.42.42 0 0 0-.34.14l-.14.12c-8.69 8.11-18.47 1.51-20.59-.12-.12-.09-.18-.19-.4-.19a.64.64 0 0 0-.41.22c-7.14 6.74-15 3.73-17.54 2.46l-.25-.13h-.09a.49.49 0 0 0-.49.49v3.41a.48.48 0 0 0 .14.34c8.25 7.17 16.06.47 17.86-1.31a1.26 1.26 0 0 1 .18-.17.33.33 0 0 1 .22-.06.53.53 0 0 1 .35.15c9.31 8.88 19.08 1.68 21.11 0l.2-.18a.27.27 0 0 1 .38 0l.2.18C50 69.8 59.71 77 69 68.12a.53.53 0 0 1 .34-.13.51.51 0 0 1 .27.09.58.58 0 0 1 .13.14c1.81 1.77 9.6 8.48 17.86 1.31a.48.48 0 0 0 .14-.34v-3.43a.49.49 0 0 0-.49-.49M87.29 77.65h-.1l-.25.12c-2.53 1.27-10.4 4.29-17.54-2.46-.06-.06-.25-.25-.41-.24a.71.71 0 0 0-.39.22c-2.12 1.63-11.9 8.23-20.59.12l-.13-.13a.52.52 0 0 0-.35-.14.46.46 0 0 0-.34.14l-.14.13c-8.69 8.11-18.47 1.51-20.59-.12-.12-.09-.18-.2-.4-.19a.64.64 0 0 0-.41.21c-7.14 6.75-15 3.73-17.54 2.46l-.25-.12h-.09a.48.48 0 0 0-.49.49v3.41a.52.52 0 0 0 .14.34c8.25 7.17 16.06.46 17.86-1.32a1.08 1.08 0 0 1 .18-.16.41.41 0 0 1 .22-.07.53.53 0 0 1 .35.15c9.31 8.88 19.08 1.69 21.11 0l.2-.19a.28.28 0 0 1 .18-.08.27.27 0 0 1 .2.08l.2.19c2 1.68 11.79 8.87 21.11 0a.49.49 0 0 1 .34-.14.51.51 0 0 1 .27.09.58.58 0 0 1 .13.14c1.81 1.77 9.6 8.49 17.86 1.32a.52.52 0 0 0 .14-.34v-3.42a.48.48 0 0 0-.49-.49"/></g></g></svg>