<svg id="TARGETS" xmlns="http://www.w3.org/2000/svg" viewBox="0 0 94.85 94.85" width="94.85" height="94.85"><defs><style>.cls-1{fill:#19486a}.cls-2{fill:#fff}</style></defs><title>Goal_17_RGB_NG</title><path class="cls-1" d="M0 0h94.85v94.85H0z"/><path class="cls-2" d="M29.2 36.73a22.06 22.06 0 0 1 3.36-4.32l-11-12.07a37.85 37.85 0 0 0-7 9.1zM56.2 28.2a21 21 0 0 1 4.62 2.9L71.86 19a37.43 37.43 0 0 0-9.78-6.11zM81.49 31.83l-14.63 7.3a21 21 0 0 1 1.46 5.17l16.29-1.53a37 37 0 0 0-3.12-10.94M65.81 37l14.63-7.3a37.35 37.35 0 0 0-6.84-9.08l-11 12A21.51 21.51 0 0 1 65.81 37M26.3 47.42v-1L10 45v2.42a37.59 37.59 0 0 0 1.11 9.06L26.79 52a21.19 21.19 0 0 1-.49-4.54M63.76 60.8a21.64 21.64 0 0 1-4 3.74l8.59 13.92a37.53 37.53 0 0 0 8.43-7.82zM68.55 47.42a21.44 21.44 0 0 1-.48 4.49l15.72 4.52a37.24 37.24 0 0 0 1.1-9c0-.77 0-1.54-.07-2.3l-16.28 1.53v.76M31.35 61.12L18.34 71a37.55 37.55 0 0 0 8.5 7.7l8.59-13.9a22 22 0 0 1-4.08-3.68M26.56 44.08a20.49 20.49 0 0 1 1.56-5.24l-14.63-7.29a37 37 0 0 0-3.23 11.07zM66.38 79.72l-8.58-13.9a20.89 20.89 0 0 1-5 2l3 16.09a37.3 37.3 0 0 0 10.56-4.22M67.44 54.19a21.17 21.17 0 0 1-2.29 4.71l13.06 9.85a37.49 37.49 0 0 0 5-10zM50.47 68.32a20.36 20.36 0 0 1-3 .23A22.25 22.25 0 0 1 45 68.4l-3 16.08a37 37 0 0 0 11.56-.09zM48.77 26.33a21 21 0 0 1 5.23 1l5.88-15.26A37.23 37.23 0 0 0 48.77 10zM42.64 68a20.91 20.91 0 0 1-5.19-2l-8.6 14a37.16 37.16 0 0 0 10.76 4.12zM41.07 27.27a20.55 20.55 0 0 1 5.34-.95V10a37.41 37.41 0 0 0-11.25 2zM29.92 59.24a21.23 21.23 0 0 1-2.49-5l-15.72 4.51a37.27 37.27 0 0 0 5.19 10.38zM34.33 30.85a21.07 21.07 0 0 1 4.53-2.75L33 12.86a37.42 37.42 0 0 0-9.64 5.9z"/><g><path class="cls-2" d="M63.78 45.73a.79.79 0 0 0-.84-.74h-1.2c-.43 0-.86-.13-1-.6a14.87 14.87 0 0 0-.78-2.3 1 1 0 0 1 .3-1.17c.37-.3.65-.55 1-.86a.81.81 0 0 0 .2-1 11.41 11.41 0 0 0-1.85-2.46.79.79 0 0 0-1.11-.11l-1 .68c-.39.28-.77.4-1.14.09-.7-.52-1.5-1.1-2-1.41a1 1 0 0 1-.36-1.2c.12-.45.21-.82.31-1.28a.81.81 0 0 0-.45-1 11.31 11.31 0 0 0-3-.9.79.79 0 0 0-1 .56c-.16.42-.27.72-.41 1.13s-.38.78-.87.75h-2.43a1 1 0 0 1-1-.65c-.17-.44-.32-.79-.5-1.22a.82.82 0 0 0-.93-.51 11.46 11.46 0 0 0-2.92 1 .8.8 0 0 0-.44 1c.12.43.2.74.33 1.15s.15.86-.26 1.12-1.41 1-2 1.45a1 1 0 0 1-1.21.08c-.39-.26-.72-.45-1.12-.69a.82.82 0 0 0-1.06.13 11.67 11.67 0 0 0-1.77 2.52.79.79 0 0 0 .25 1.09c.35.28.6.48.95.74s.62.61.44 1.06-.57 1.83-.73 2.32a1 1 0 0 1-.93.77l-1.31.1a.82.82 0 0 0-.78.73 11.76 11.76 0 0 0 .06 3.08.78.78 0 0 0 .83.74h1.2c.48 0 .86.13 1 .59a18.82 18.82 0 0 0 .83 2.49 1 1 0 0 1-.3 1.17l-1 .86a.81.81 0 0 0-.2 1 11.41 11.41 0 0 0 1.85 2.46.8.8 0 0 0 1.12.11l1-.68c.39-.28.77-.4 1.15-.09s1.5 1.1 2 1.4a1 1 0 0 1 .45 1.13c-.12.45-.2.82-.31 1.28a.81.81 0 0 0 .46 1 11.24 11.24 0 0 0 2.94.9.79.79 0 0 0 1-.56c.16-.42.27-.73.41-1.13s.39-.78.87-.76h2.43a1 1 0 0 1 1 .65c.17.44.32.78.51 1.22a.81.81 0 0 0 .93.51 11.55 11.55 0 0 0 2.91-1 .79.79 0 0 0 .45-1c-.12-.43-.21-.74-.34-1.15a.87.87 0 0 1 .27-1.13c.42-.28 1.52-1.1 2-1.44a1 1 0 0 1 1.2-.08c.4.26.72.45 1.13.69a.81.81 0 0 0 .99-.22 11.4 11.4 0 0 0 1.77-2.53.79.79 0 0 0-.24-1.09l-.95-.73c-.39-.29-.62-.61-.45-1.06s.56-1.75.73-2.32a1 1 0 0 1 .93-.77c.47 0 .85-.06 1.31-.11a.81.81 0 0 0 .78-.72 11.76 11.76 0 0 0-.1-3.08zm-16.2 12a10.09 10.09 0 1 1 10.11-10.07 10.1 10.1 0 0 1-10.11 10.06z"/><path class="cls-2" d="M40.15 44.75c.23.16.39 0 .49-.13a.32.32 0 0 0 0-.36c-.06-.12.12-.21.24-.25a7.47 7.47 0 0 0 .67-.39 2.26 2.26 0 0 1 1.35 0 .71.71 0 0 0 .88-.17 2.2 2.2 0 0 1 .65-.54c.13-.06-.31-.48-.68 0s-.56.5-.73.5-1.2-.26-1.33-.59.33-.56.71-.74a9.29 9.29 0 0 1 1.68-.24c.54-.12 1.23-.39 1.57-.15s-1.45.64-.86 1c.21.11 1.16-.55 1.49-.71.76-.39-.74-.53-.54-1.33S44 40 42.93 40.08a8.43 8.43 0 0 0-1.38 1.06c.12 0 .25.07.27.15a1.09 1.09 0 0 1-.12.57 1.47 1.47 0 0 1-.94.42.33.33 0 0 1-.18-.08 7.49 7.49 0 0 0-.45.65 1.33 1.33 0 0 1 .66-.22c.23 0 .52.07.56.22s-.56.41-.67.51c-.3.28-.79.86-1.07.92a.3.3 0 0 1-.21 0c-.08.19-.15.39-.22.58a1.11 1.11 0 0 1 .97-.11zM54.76 47.19a2.32 2.32 0 0 1-.94.38 1.2 1.2 0 0 0-.46 1.06c.07.34.88 1.27.28 1.23a3.38 3.38 0 0 1-1.38-1.21c-.18-.49-.39-1-.53-1.34a.54.54 0 0 0-.84-.25c-.31.22.09.43-.14.9s-.39.87-.72.49c-.87-1-2.13-.51-2.32-1.62-.11-.6-.62-.54-1.05-.88s-.68-.53-.75-.28 1.35 1.33 1.45 1.63c.15.43-.42.81-.85.91s-.6-.24-1-.67-.59-.74-.62-.4a2 2 0 0 0 .81 1.48c.36.23.76.33.65.7s0 .16-.41.56a1.09 1.09 0 0 0-.48 1.12c0 .55-.11.59-.2 1s-.28.07-.46.75a2.61 2.61 0 0 1-.55 1.13 1.85 1.85 0 0 1-1.22.46c-.4 0-.46-1.11-.45-1.66 0-.2-.28.37-.41-.78-.09-.74-.57.08-.6-.42s-.27-.4-.52-.7-.56 0-.9.18-.21.23-.7.08a8.9 8.9 0 0 0 5.68 5.08.37.37 0 0 1-.11-.43 2 2 0 0 1 1.75-1c1.44-.14 3.33.94 3.64.77s.91-1 1.8-.93a1.34 1.34 0 0 1 .81.2 10.8 10.8 0 0 0 .89-.76l-.28-.1c-.49-.25-.43.14-.67 0s.27-.64-.44-.17-.53-.07-.83-.87a1.62 1.62 0 0 1 .92-1.9 12.18 12.18 0 0 1 1.62-.42c1.07-.26 1.29-.89 1.49-.51 0 .08.07.14.1.21a1.37 1.37 0 0 1 .13.54 8.69 8.69 0 0 0 .39-1.32c-.25-.1-1.21-1.46-.43-2.35.13-.14-.26-.59-.15-.6a.71.71 0 0 1 .74.54 9 9 0 0 0-.2-1.38 1.56 1.56 0 0 1 0 .31.58.58 0 0 1-1 .08c-.09-.13-.47-.49-.46.13s.49.67-.08 1.03zm-8.35 3.49c-.13.2-.46 1.69-.69 1.52s.1-1.73.17-1.85c.35-.64 1.11-.61.52.33zM50 48.92a.81.81 0 0 1-.85-.07c-.22-.18.15-.47.28-.47.34-.03.79.39.57.54zm3.68-.31c-.08-.22.11-.35.28-.26a.86.86 0 0 1 .42.52c0 .14-.36.12-.45.08s-.14-.12-.21-.34zm1.19 1.17a.79.79 0 0 1-.84-.08c-.23-.18.14-.46.27-.47.34-.03.79.39.61.55zM39.82 45.73a8.41 8.41 0 0 1 1.45.37c.52.19 1.33.63 1.8.44s.61-.33.58-.61-.32-.44-.66-.2c-.13.09-.39-.54-.6-.51s.26.73.08.77-.54-.74-.6-.86-.33-.43-.58-.2c-.53.49-1.38.46-1.55.59a.73.73 0 0 1-.18.11c-.34.14-.46-.22-.46-.49a8.53 8.53 0 0 0-.31 1.52v-.07c.29-.54.35-.6.44-.66a3.67 3.67 0 0 1 .35-.13z"/></g></svg>