<svg id="TARGETS" xmlns="http://www.w3.org/2000/svg" viewBox="0 0 94.85 94.85" width="94.85" height="94.85"><defs><style>.cls-1{fill:#ff3a21}.cls-2{fill:#fff}</style></defs><title>Goal_5_RGB_NG</title><path class="cls-1" d="M0 0h94.85v94.85H0z"/><path class="cls-2" d="M47.43 8.29a39.14 39.14 0 1 0 39.13 39.13A39.17 39.17 0 0 0 47.43 8.29zM13.29 47.42a34.12 34.12 0 0 1 55.65-26.48L56.61 33.27a4.83 4.83 0 0 0-3.83-2.21H41.81l7.94 9.05 3.12 3.56-5 1.14 2 2.25 6.3 7.07L49 47.94l-3.79-3.28-1.54-1.33 3.7-.83h.1L37.78 34a6.92 6.92 0 0 0-.53 1l-4.2 13.67s-.75 2.5 1.38 3.12S37.19 50 37.19 50l3.38-11.41s.18-.88.85-.69.41 1.13.41 1.13l-3.44 12.46-17.45 17.45a34 34 0 0 1-7.65-21.52zm34.14 34.14a34 34 0 0 1-23.06-9L36.56 60.4h4.86v15.31a2.63 2.63 0 0 0 5.25 0V60.4h1.5v15.31a2.63 2.63 0 0 0 5.26 0V60.4h5.48l-4.83-17.53 1.13-1.13L57.66 50s.65 2.45 2.76 1.81 1.37-3.12 1.37-3.12l-3.17-10.36 14-14a34.12 34.12 0 0 1-25.19 57.23z"/><path class="cls-2" d="M47.42 28.62a5.05 5.05 0 1 0-5.05-5.05 5 5 0 0 0 5.05 5.05z"/></svg>