<svg id="TARGETS" xmlns="http://www.w3.org/2000/svg" viewBox="0 0 94.85 94.85" width="94.85" height="94.85"><defs><style>.cls-1{fill:#19486a}.cls-2{fill:#fff}</style></defs><title>Goal_17_RGB_NG</title><path class="cls-1" d="M0 0h94.85v94.85H0z"/><path class="cls-2" d="M81.73 53.12h-.11l-6.75-.31a.31.31 0 0 0-.19 0 .26.26 0 0 0-.07.33l.06.1L75.84 55l.56.81-11.65 6.93-22.5 3.4h-.23L22.59 79.61l1.14 1.64 19.05-13.17 22.65-3.42 12.11-7.19.64.93 1.18 1.72v.05a.25.25 0 0 0 .34.06.28.28 0 0 0 .1-.14V60l2.08-6.51v-.08a.29.29 0 0 0 0-.21.31.31 0 0 0-.15-.08z"/><path class="cls-2" d="M17.03 46.42h-2.68V34.78h2.68v-2h-2.68V21.13h2.68v-2h-2.68v-7.32h-2v71.23h2v-7.32h2.68v-2h-2.68V62.07h2.68v-2h-2.68V48.42H82.5v-2H17.03z"/><path class="cls-2" d="M42.12 37.16a6 6 0 0 1-1.58.69 15.83 15.83 0 0 1-4.89.61 18.84 18.84 0 0 1-2.43-.19c-.55-.08-1-.16-1.47-.28L31 37.8a6 6 0 0 1-1.91-.92 2.06 2.06 0 0 1-.53-.57V38a1.4 1.4 0 0 0 .57 1A7.79 7.79 0 0 0 33 40.35a17.35 17.35 0 0 0 2.78.21 16.59 16.59 0 0 0 4-.45h.05a7.88 7.88 0 0 0 2-.79c.66-.4 1-.88 1-1.38 0 0 .06-1.46 0-1.58a3.16 3.16 0 0 1-.71.8zM35.08 32.3c4 0 7.16-1.19 7.16-2.65 0 0 .08-1.37.06-1.66a1.45 1.45 0 0 0-.13-.57 1.6 1.6 0 0 0 .82-1.2s.06-1.52 0-1.82c-.19-1.79-3.8-2.75-7.2-2.75s-7.23 1-7.23 2.91c0 .09.07 1.66.07 1.66a1.11 1.11 0 0 0 .09.31 1.83 1.83 0 0 0-.9 1.46c0 .09.07 1.66.07 1.66a1.42 1.42 0 0 0 .56 1 8 8 0 0 0 3.81 1.41 17.48 17.48 0 0 0 2.82.24zm.74-9.91c3.82 0 6.48 1.15 6.48 2.17s-2.66 2.17-6.48 2.17-6.48-1.14-6.48-2.17 2.66-2.17 6.48-2.17zM28.6 28a1.17 1.17 0 0 1 .56-.82 3.27 3.27 0 0 0 .73.53 13.1 13.1 0 0 0 5.93 1.17 15.19 15.19 0 0 0 5.07-.77c.23-.09.42-.19.62-.28a.47.47 0 0 1 0 .17c0 1-2.66 2.17-6.48 2.17S28.6 29 28.6 28z"/><path class="cls-2" d="M33 37.79a18.49 18.49 0 0 0 2.78.21 16.56 16.56 0 0 0 4-.46 7.88 7.88 0 0 0 2-.79 3.84 3.84 0 0 0 .44-.32 1.77 1.77 0 0 0 .54-.69 1 1 0 0 0 .07-.38v-1.58c-.24.31-.85 1.24-3.68 1.82a21.86 21.86 0 0 1-3.65.32 13.53 13.53 0 0 1-5.73-1.13 4.72 4.72 0 0 1-.9-.61 3.83 3.83 0 0 1-.43-.55v1.72a1.4 1.4 0 0 0 .57 1A8 8 0 0 0 33 37.79z"/><path class="cls-2" d="M42.09 32.05l-.41.23s-.44.2-.63.27l-.64.2c-.07 0-.63.16-.86.2 0 0-.75.14-1.09.18l-1.12.11-1.65.07a15.17 15.17 0 0 1-2.29-.17c-.55-.08-1.1-.18-1.61-.3a10 10 0 0 1-1.72-.54 2.81 2.81 0 0 1-.88-.61 3.12 3.12 0 0 1-.57-.74v1.81a1.42 1.42 0 0 0 .56 1A8 8 0 0 0 33 35.21a18.77 18.77 0 0 0 2.79.2 16.59 16.59 0 0 0 4-.45h.05a7.88 7.88 0 0 0 2-.79 3.22 3.22 0 0 0 .45-.31 1.72 1.72 0 0 0 .54-.7 1 1 0 0 0 .07-.37s.06-1.51.06-1.55a1 1 0 0 0 0-.36.84.84 0 0 0-.18-.29l-.18-.16a2.11 2.11 0 0 0-.3-.16 1.45 1.45 0 0 1-.33.42 1.32 1.32 0 0 1 .28.16.66.66 0 0 1 .34.55.62.62 0 0 1-.25.47c-.06.04-.13.13-.25.18z"/><g><path class="cls-2" d="M75.22 37.16a6.08 6.08 0 0 1-1.57.69 15.83 15.83 0 0 1-4.89.61 18.58 18.58 0 0 1-2.43-.19c-.55-.08-1-.16-1.47-.28l-.73-.19a6.24 6.24 0 0 1-1.91-.92 2.22 2.22 0 0 1-.53-.57V38a1.42 1.42 0 0 0 .56 1 7.83 7.83 0 0 0 3.81 1.41 17.48 17.48 0 0 0 2.79.21 16.71 16.71 0 0 0 4-.45 8 8 0 0 0 2-.79c.67-.4 1.06-.88 1.06-1.38v-1.58a3.1 3.1 0 0 1-.69.74zM68.18 32.3c4 0 7.17-1.19 7.17-2.65 0 0 .08-1.37.05-1.66a1.62 1.62 0 0 0-.12-.57 1.61 1.61 0 0 0 .81-1.2s.07-1.52 0-1.82c-.19-1.79-3.8-2.75-7.2-2.75s-7.22 1-7.22 2.91c0 .09.07 1.66.07 1.66a1.09 1.09 0 0 0 .08.31A1.83 1.83 0 0 0 61 28c0 .09.07 1.66.07 1.66a1.4 1.4 0 0 0 .57 1 7.89 7.89 0 0 0 3.81 1.41 17.35 17.35 0 0 0 2.73.23zm.74-9.91c3.82 0 6.48 1.15 6.48 2.17s-2.66 2.17-6.48 2.17-6.47-1.14-6.47-2.17 2.66-2.17 6.47-2.17zM61.7 28a1.17 1.17 0 0 1 .56-.82 3.27 3.27 0 0 0 .73.53 13.18 13.18 0 0 0 5.94 1.17A15.09 15.09 0 0 0 74 28.1c.23-.09.43-.19.63-.28a.85.85 0 0 1 0 .17c0 1-2.66 2.17-6.48 2.17S61.7 29 61.7 28z"/><path class="cls-2" d="M66.05 37.79a18.73 18.73 0 0 0 2.79.21 16.68 16.68 0 0 0 4-.46 8 8 0 0 0 2-.79 3.25 3.25 0 0 0 .45-.32 1.87 1.87 0 0 0 .54-.69 1.27 1.27 0 0 0 .07-.38v-1.58c-.24.31-.86 1.24-3.68 1.82a22.07 22.07 0 0 1-3.65.32A13.49 13.49 0 0 1 63 34.77a4.43 4.43 0 0 1-.9-.61 3.49 3.49 0 0 1-.44-.55v1.72a1.42 1.42 0 0 0 .56 1 8 8 0 0 0 3.83 1.46z"/><path class="cls-2" d="M75.19 32.05l-.41.23s-.44.2-.63.27l-.64.2c-.06 0-.62.16-.85.2 0 0-.76.14-1.09.18l-1.13.11-1.65.07a15 15 0 0 1-2.28-.17c-.55-.08-1.11-.18-1.62-.3a10 10 0 0 1-1.71-.54 3 3 0 0 1-.89-.61 3.07 3.07 0 0 1-.56-.74v1.81a1.4 1.4 0 0 0 .57 1 7.88 7.88 0 0 0 3.81 1.42 18.68 18.68 0 0 0 2.79.2 16.71 16.71 0 0 0 4-.45 7.88 7.88 0 0 0 2-.79 3.94 3.94 0 0 0 .45-.31 1.82 1.82 0 0 0 .54-.7 1.21 1.21 0 0 0 .07-.37s.06-1.51.06-1.55a.73.73 0 0 0-.06-.36.71.71 0 0 0-.18-.29 1 1 0 0 0-.18-.16 1.68 1.68 0 0 0-.3-.16 1.51 1.51 0 0 1-.32.42 1.32 1.32 0 0 1 .28.16.69.69 0 0 1 .34.55.64.64 0 0 1-.26.47c.04.07-.03.16-.15.21z"/></g><g><path class="cls-2" d="M51.57 27.13c4 0 7.16-1.19 7.16-2.66 0 0 .08-1.36.06-1.66a1.45 1.45 0 0 0-.13-.56 1.6 1.6 0 0 0 .82-1.25s.06-1.52 0-1.81c-.19-1.79-3.8-2.76-7.2-2.76s-7.23 1-7.23 2.92c0 .09.07 1.65.07 1.65a1.17 1.17 0 0 0 .09.32 1.83 1.83 0 0 0-.9 1.45c0 .1.07 1.66.07 1.66a1.42 1.42 0 0 0 .56 1 8.08 8.08 0 0 0 3.81 1.41 18.73 18.73 0 0 0 2.82.29zm.74-9.91c3.82 0 6.48 1.14 6.48 2.17s-2.66 2.17-6.48 2.17-6.48-1.15-6.48-2.17 2.66-2.17 6.48-2.17zm-7.22 5.59a1.17 1.17 0 0 1 .56-.81 3.27 3.27 0 0 0 .73.53 13.12 13.12 0 0 0 5.94 1.17 15.15 15.15 0 0 0 5.06-.78 5 5 0 0 0 .62-.28.59.59 0 0 1 0 .17c0 1-2.66 2.17-6.48 2.17s-6.43-1.14-6.43-2.17z"/><path class="cls-2" d="M59.48 25.67a.76.76 0 0 0-.18-.28l-.18-.16a2.11 2.11 0 0 0-.3-.16 1.62 1.62 0 0 1-.33.42 2 2 0 0 1 .29.15.69.69 0 0 1 .33.55.59.59 0 0 1-.25.47 2.27 2.27 0 0 1-.28.21l-.41.23s-.44.2-.63.27l-.64.21-.85.2L55 28l-1.12.1c-.11 0-1.18.07-1.65.08A15 15 0 0 1 49.9 28c-.56-.08-1.11-.18-1.62-.3a10 10 0 0 1-1.72-.54 3 3 0 0 1-.88-.61 3.46 3.46 0 0 1-.57-.75v1.81a1.42 1.42 0 0 0 .56 1A8.08 8.08 0 0 0 49.52 30a17.48 17.48 0 0 0 2.79.21 17.11 17.11 0 0 0 4-.45 7.21 7.21 0 0 0 2-.79 3.25 3.25 0 0 0 .45-.32 1.7 1.7 0 0 0 .64-.65 1 1 0 0 0 .07-.38s.06-1.51.06-1.54a1.07 1.07 0 0 0-.05-.41zM58.64 32a5.89 5.89 0 0 1-1.57.7 16.15 16.15 0 0 1-4.89.61 18.84 18.84 0 0 1-2.43-.19 13.749 13.749 0 0 1-2.2-.48 6 6 0 0 1-1.9-.91 2.44 2.44 0 0 1-.54-.57V32.75a1.42 1.42 0 0 0 .56 1 8.08 8.08 0 0 0 3.81 1.41 17.48 17.48 0 0 0 2.79.21 16.56 16.56 0 0 0 4-.46 7.81 7.81 0 0 0 2-.79c.67-.41 1.06-.88 1.06-1.39 0 0 .06-1.45 0-1.57a3.12 3.12 0 0 1-.69.84z"/><path class="cls-2" d="M45.66 31.2a8 8 0 0 0 3.81 1.42 18.77 18.77 0 0 0 2.79.2 16.59 16.59 0 0 0 4-.45 7.81 7.81 0 0 0 2-.79 3.22 3.22 0 0 0 .45-.31 1.72 1.72 0 0 0 .54-.7.94.94 0 0 0 .07-.37v-1.58c-.24.3-.86 1.24-3.68 1.82a21 21 0 0 1-3.65.31 13.51 13.51 0 0 1-5.59-1.15 4.75 4.75 0 0 1-.9-.62 3.83 3.83 0 0 1-.44-.54v1.72a1.42 1.42 0 0 0 .6 1.04zM59.54 36.29a3.16 3.16 0 0 1-.86.83 6.4 6.4 0 0 1-1.57.7 16 16 0 0 1-4.9.6 20.32 20.32 0 0 1-2.42-.18 13.37 13.37 0 0 1-1.48-.24l-.72-.19a6 6 0 0 1-1.91-.92 2.07 2.07 0 0 1-.53-.57v1.6a1.39 1.39 0 0 0 .56 1 7.92 7.92 0 0 0 3.81 1.42 18.73 18.73 0 0 0 2.79.21 16.68 16.68 0 0 0 4-.46 8.11 8.11 0 0 0 2-.79c.67-.41 1.06-.88 1.06-1.39.14-.04.19-1.49.17-1.62z"/><path class="cls-2" d="M49.51 37.75a17.48 17.48 0 0 0 2.79.25 17.23 17.23 0 0 0 4-.45 7.21 7.21 0 0 0 2-.79 4.38 4.38 0 0 0 .45-.31 1.89 1.89 0 0 0 .54-.7 1.21 1.21 0 0 0 .07-.37V33.8c-.24.3-.85 1.24-3.68 1.81a20.84 20.84 0 0 1-3.65.32 13.49 13.49 0 0 1-5.72-1.12 4.84 4.84 0 0 1-.91-.62 3.44 3.44 0 0 1-.43-.54v1.72a1.38 1.38 0 0 0 .56 1 7.93 7.93 0 0 0 3.98 1.38z"/></g></svg>