<svg id="TARGETS" xmlns="http://www.w3.org/2000/svg" viewBox="0 0 94.8 94.88" width="94.8" height="94.8"><style>.st0{fill:#dd1367}.st1{fill:#fff}</style><title>Goal_10_RGB_NG</title><path class="st0" d="M0 0h94.8v94.8H0z"/><path class="st1" d="M26.7 23.3h-2.9v54.9h39.3v-3.3H26.7z"/><path class="st1" d="M29.7 16.7H69v54.8H29.7z"/><g id="XMLID_1_"><path class="st0" d="M63.6 44.1l-5 5v-9.9zM54.5 48.8c0 .1 0 .1-.1.1h-10c-.1 0-.1-.1-.1-.1v-3c0-.1 0-.1.1-.1h10c.1 0 .1 0 .1.1v3zM54.5 39.4v3c0 .1 0 .1-.1.1h-10c-.1 0-.1-.1-.1-.1v-3c0-.1 0-.1.1-.1h10s.1 0 .1.1zM54.2 34.7c0 .1.1.1 0 0v.1h-9.7s-.1 0-.1-.1v-.1l4.8-4.8h.1l4.9 4.9zM54.2 53.3s.1 0 .1.1c0 0 0 .1-.1.1l-4.8 4.8h-.1l-4.8-4.8v-.1h9.7zM40.1 39.2c0 .1 0 .1 0 0v9.7s0 .1-.1.1h-.1l-4.8-4.8v-.1l4.8-4.8c.1-.1.2-.1.2-.1z"/></g></svg>