<svg id="TARGETS" xmlns="http://www.w3.org/2000/svg" viewBox="0 0 94.85 94.85" width="94.85" height="94.85"><defs><style>.cls-1{fill:#a21942}.cls-2{fill:#fff}</style></defs><title>Goal_8_RGB_NG</title><path class="cls-1" d="M0 0h94.85v94.85H0z"/><path class="cls-2" d="M85.26 66h-.09l-3.78-2.1a37.12 37.12 0 0 0-10.28-42.7.81.81 0 0 0-1.13.11l-2 2.42a.78.78 0 0 0 .11 1.09A32.54 32.54 0 0 1 79 55.49a31.74 31.74 0 0 1-1.77 6.14l-4.4-2.43c-.14 0-.48-.13-.45.22l.29 4.77C73 68.06 72.94 68 73 70l.25 4.25c0 .43.53.13.53.13l11.4-7.83c.41-.28.22-.44.08-.55zM12.35 41.72l3 .69a.8.8 0 0 0 1-.59 32.74 32.74 0 0 1 27.5-24.13v1l.09 4.31c0 .43.53.14.53.14l11.62-7.49c.38-.24.19-.41.06-.49l-.1-.05L44 7.94c-.13-.05-.47-.14-.46.21l.1 4.85a37.42 37.42 0 0 0-31.9 27.73.82.82 0 0 0 .61.99zM60.69 79.64a.79.79 0 0 0-1-.41 32.56 32.56 0 0 1-39.2-12.36l4.35-2.39c.11-.09.37-.33.06-.5l-4.19-2.32c-3.37-1.84-3.28-1.79-5-2.79l-3.78-2.07c-.37-.21-.39.38-.39.38L12.05 71c0 .44.25.37.39.29l.09-.05 3.85-2.11a37.1 37.1 0 0 0 24.56 16.46 37.71 37.71 0 0 0 6.77.61 37 37 0 0 0 13.76-2.65.8.8 0 0 0 .43-1zM52.46 63.66h7a.38.38 0 0 0 .39-.38V37.91c0-.21-.17-.6-.61-.16l-6.79 6.45a1.13 1.13 0 0 0-.39 1v18.1a.4.4 0 0 0 .4.36zM32.91 63.67h7a.39.39 0 0 0 .38-.39v-17c0-.21-.17-.6-.61-.16l-6.78 6.51a1.13 1.13 0 0 0-.39 1v9.69a.38.38 0 0 0 .4.35z"/><path class="cls-2" d="M62.12 29.7H62l-5.2 1.18h-.09a.14.14 0 0 0-.1.05.19.19 0 0 0 0 .28l.06.06 1.19 1.18-11.74 11.81-5.45-5.43a.14.14 0 0 0-.22 0L39 40.3 30.26 49a.16.16 0 0 0 0 .22l1.48 1.48a.16.16 0 0 0 .22 0l8.61-8.62 4 4L46 47.55a.16.16 0 0 0 .22 0l13.37-13.38 1.24 1.25a.21.21 0 0 0 .28 0 .25.25 0 0 0 .06-.13L62.31 30v-.05a.22.22 0 0 0-.06-.15.22.22 0 0 0-.13-.1z"/><path class="cls-2" d="M42.76 63.67h7a.38.38 0 0 0 .38-.39V47.42c0-.22-.17-.61-.65-.13l-3.28 3.32a.17.17 0 0 1-.22 0l-3-3c-.55-.54-.67-.1-.67.11v15.6a.39.39 0 0 0 .44.35z"/></svg>