<svg id="TARGETS" xmlns="http://www.w3.org/2000/svg" viewBox="0 0 94.85 94.85" width="94.85" height="94.85"><defs><style>.cls-1{fill:#ff3a21}.cls-2{fill:#fff}</style></defs><title>Goal_5_RGB_NG</title><path class="cls-1" d="M0 0h94.85v94.85H0z"/><path class="cls-2" d="M45.82 32a4.1 4.1 0 0 0 0-8.2 4.1 4.1 0 0 0 0 8.2zM72.72 34.32a4.08 4.08 0 0 0 1.78-7.76 1.41 1.41 0 0 0 .15-.61 2.12 2.12 0 0 0-4.12 0 1.41 1.41 0 0 0 .22.72 4.08 4.08 0 0 0 2 7.65z"/><path class="cls-2" d="M82.74 51.52a.94.94 0 0 0-.06-.15c1.19-.65.7-2.21.7-2.21l-.58-1.75-2.67-8.68s-1.14-3.1-3.67-3.1l-6-.09a3.32 3.32 0 0 1-2.46-.91l-7.47-11.2a.54.54 0 0 0-.06-.11 1.69 1.69 0 0 0-1-.84 2.94 2.94 0 0 0-.58-.05c-.31 0-.57 0-1.36.9l-7.22 9.06a4.16 4.16 0 0 1-2.8 1H44.1a4.13 4.13 0 0 1-2.79-1l-7.22-9.06c-.79-.93-1.06-.87-1.36-.9a3.07 3.07 0 0 0-.59.05 1.66 1.66 0 0 0-1 .94l-7.47 11.2a3.32 3.32 0 0 1-2.42.91l-6 .09c-2.53 0-3.67 3.1-3.67 3.1l-3.2 10.4s-.62 1.88 1 2.4 2.1-1.39 2.1-1.39l2.58-8.68s.14-.67.64-.52.31.86.31.86l-4.48 16.27h4.17v11.65a2 2 0 0 0 4 0V58.06h1.45v11.7a2 2 0 0 0 4 0V58h4.25l-4.07-14.72a4.14 4.14 0 0 1 .41-2.71l2.63-4.81 4.73-7.89s.39-.55.78-1.25l4.71 7.05 2.78 5.09a4.31 4.31 0 0 1 .43 2.87l-4.3 15.61H41v12.43a2.14 2.14 0 0 0 4.27 0V57.24h1.21v12.43a2.14 2.14 0 0 0 4.27 0V57.24h4.44l-4.3-15.61a4.31 4.31 0 0 1 .43-2.87l2.78-5.09 4.72-7.06c.39.7.79 1.26.79 1.26l4.73 7.89 2.64 4.81a4.09 4.09 0 0 1 .4 2.71L63.26 58h4.21v11.76a2 2 0 0 0 4 0V58.05H73v11.66a2 2 0 0 0 4 0V58.06h4.17l-4.52-16.27s-.19-.72.31-.86.64.52.64.52l2.06 6.92.48 1.74s.35 1.3 1.4 1.48a.43.43 0 0 0 0 .16l3.72 19.47a.61.61 0 0 0 .6.5H86a.6.6 0 0 0 .48-.72zM16.21 27.25c-.06-.49-.57-1.09-1.67-.57-1.35.64-1.2 2.63-1.2 2.63 0 .18.05.3.08.22.12-.3.44-.8 1.53-1a1.59 1.59 0 0 0 .57-.18 4.51 4.51 0 0 1 .68-.94 1.41 1.41 0 0 0 .01-.16z"/><path class="cls-2" d="M24.23 26.68c-1.09-.52-1.61.08-1.67.57a2 2 0 0 0 0 .26 4.32 4.32 0 0 1 .61.86 1.56 1.56 0 0 0 .63.21c1.1.15 1.41.65 1.54 1 0 .08.05 0 .07-.22.02-.05.17-2.04-1.18-2.68zM19.37 26.75a3.74 3.74 0 1 0 3.73 3.74 3.73 3.73 0 0 0-3.73-3.74z"/></svg>