<svg id="TARGETS" xmlns="http://www.w3.org/2000/svg" viewBox="0 0 94.85 94.85" width="94.85" height="94.85"><defs><style>.cls-1{fill:#bf8b2e}.cls-2{fill:#fff}</style></defs><title>Goal_12_RGB_NG</title><path class="cls-1" d="M0 0h94.85v94.85H0z"/><path class="cls-2" d="M42.2 41.72a.59.59 0 0 0 .82 0 .49.49 0 0 0 .14-.38l1.57-9.64v-.11a.55.55 0 0 0-.19-.42.54.54 0 0 0-.4-.15l-9.38 2.59h-.18a.58.58 0 0 0-.3.18.57.57 0 0 0-.15.42.58.58 0 0 0 .19.4l1.95 1.76a9.18 9.18 0 0 1-3 1.23 12.67 12.67 0 0 1-2.49.25 10.14 10.14 0 0 1-8-3.64l-.05-.07C21 32 20.47 30.19 20.47 27c0-4.1 1.2-7.13 3.57-9a11.76 11.76 0 0 1 7-2.26 6.67 6.67 0 0 1 1.33.11h.21c3.07.7 7.27 1.65 13.1 13.36 3.08 6.18 6.94 10.22 11.79 12.35a17.35 17.35 0 0 0 7.43 1.73 14.85 14.85 0 0 0 5.19-.92c2.83-1.06 9.43-4.68 9.43-15.36 0-7.15-3-11-5.58-13a17.2 17.2 0 0 0-10.35-3.39 11.08 11.08 0 0 0-2.5.24l-.26.06c-2.46.58-6.57 1.55-11.36 7.49l-.14.18a.6.6 0 0 0-.12.36.71.71 0 0 0 .08.31l.11.18c.79 1.32 1.45 2.47 2 3.44a.64.64 0 0 0 1 .15l.09-.13c4.13-5.72 7.37-6.48 9.52-7l.27-.06a6.25 6.25 0 0 1 1.31-.11A12.22 12.22 0 0 1 70.75 18c2.4 1.9 3.62 4.93 3.62 9 0 6.84-3.31 9.51-6.09 10.54a9.56 9.56 0 0 1-3.39.6A12 12 0 0 1 59.8 37l-.2-.1c-2.39-1-6-3.2-9.33-10C43.35 13 37.55 11.7 33.7 10.83l-.2-.05a11.5 11.5 0 0 0-2.5-.22 16.5 16.5 0 0 0-10.18 3.37c-2.51 2-5.5 5.88-5.5 13 0 4.35.9 7.23 3.2 10.26A15.3 15.3 0 0 0 30.67 43a18.53 18.53 0 0 0 3.51-.34 15 15 0 0 0 6-2.74zM77.78 54.34a2.78 2.78 0 1 0 2.78-2.78 2.77 2.77 0 0 0-2.78 2.78zM83.8 58.19h-6.48A3.71 3.71 0 0 0 74 61.88v7.7a1.08 1.08 0 0 0 2.15 0V63c0-.24.07-.58.53-.58s.38.33.39.55v19.77a1.55 1.55 0 1 0 3.09 0V71.32a.42.42 0 0 1 .45-.45.43.43 0 0 1 .44.45v11.42a1.55 1.55 0 1 0 3.09 0V62.93c0-.22.08-.55.39-.55s.53.34.53.58v6.62a1.08 1.08 0 0 0 2.15 0v-7.7a3.71 3.71 0 0 0-3.41-3.69zM54.59 55.83a2.63 2.63 0 1 0 2.62-2.62 2.62 2.62 0 0 0-2.62 2.62zM60.34 63.28c.34-.1.43.35.43.35l1.76 5.93s.34 1.27 1.43 1 .72-1.63.72-1.63l-2.18-7.1s-.78-2.05-2.51-2.05h-5.56c-1.72 0-2.5 2.05-2.5 2.05l-2.19 7.1s-.39 1.3.72 1.63 1.43-1 1.43-1l1.76-5.93s.1-.45.44-.35.21.58.21.58L51.24 75h2.85v8a1.37 1.37 0 0 0 2.73 0v-8h.78v8a1.37 1.37 0 0 0 2.74 0v-8h2.84l-3.06-11.14s-.12-.48.22-.58zM38.86 55.79a2.63 2.63 0 1 0 2.63-2.62 2.63 2.63 0 0 0-2.63 2.62zM46.77 61.74s-.78-2.06-2.5-2.06h-5.56c-1.73 0-2.51 2.06-2.51 2.06l-2.2 7.1s-.39 1.3.71 1.63 1.43-1 1.43-1l1.76-5.93s.1-.45.44-.35.22.58.22.58l-3.04 11.16h2.84v7.95a1.37 1.37 0 0 0 2.74 0v-7.95h.77v7.95a1.37 1.37 0 0 0 2.74 0v-7.95h2.85L44.4 63.82s-.13-.49.21-.58.44.35.44.35l1.75 5.93s.34 1.27 1.44 1 .71-1.63.71-1.63zM16.25 57.42a2.75 2.75 0 1 0-2.75-2.74 2.75 2.75 0 0 0 2.75 2.74zM19.46 58.48h-6.41a3.66 3.66 0 0 0-3.33 3.65v7.62a1 1 0 0 0 .42.82L7.7 83.44a.42.42 0 0 0 .33.5h.07a.41.41 0 0 0 .41-.34l2.42-12.82a1.06 1.06 0 0 0 .92-1v-6.57c0-.25.06-.58.51-.58s.38.33.39.54v19.6a1.53 1.53 0 0 0 3.06 0v-11.3a.41.41 0 0 1 .44-.44.42.42 0 0 1 .44.44v11.3a1.53 1.53 0 0 0 3.06 0v-19.6c0-.21.08-.54.39-.54s.51.33.51.58v6.54a1.07 1.07 0 0 0 2.13 0v-7.62a3.66 3.66 0 0 0-3.32-3.65zM66.62 68.06a2.23 2.23 0 1 0 2.23-2.23 2.23 2.23 0 0 0-2.23 2.23zM73.33 74.6c-1.34-3.46-1.57-3.44-2.78-3.47h-3.4c-1.22 0-1.44 0-2.79 3.47-.19.49-1 2.42-1 2.51s-.34.81.41 1.08.94-.56.94-.56l1.37-3.37s0-.08.08-.08 0 .07.06.11v8.79a1.16 1.16 0 0 0 1.15 1.2 1.14 1.14 0 0 0 1.12-1.2v-3.51s0-.54.35-.53.35.53.35.53v3.51a1.16 1.16 0 0 0 1.15 1.2 1.13 1.13 0 0 0 1.11-1.2v-8.8-.1l.09.08 1.24 3s.36.81 1 .49.32-1 .32-1-.58-1.66-.77-2.15zM32.91 69a.82.82 0 0 0-1.1.36 21.75 21.75 0 0 1-1.4 2.14.89.89 0 0 1-.68.32h-2.66a.88.88 0 0 1-.68-.32C26 71.15 25 69.32 25 69.27a.77.77 0 0 0-.69-.37.8.8 0 0 0-.8.79 1.51 1.51 0 0 0 .08.36l2.22 4a1.41 1.41 0 0 1 .13.52v.6a2.44 2.44 0 0 1-.11.68l-1.06 4.21h1.13v3.14a1.09 1.09 0 0 0 2.17 0v-3a.47.47 0 0 1 0-.13h.65a.47.47 0 0 1 0 .13v3a1.09 1.09 0 0 0 2.17 0v-3.13h1.17L31 75.86a3.36 3.36 0 0 1-.09-.55v-.73a1.33 1.33 0 0 1 .14-.52l2-3.71s.14-.27.19-.38a.7.7 0 0 0-.33-.97z"/><path class="cls-2" d="M28.4 70.42a2.2 2.2 0 1 0-2.2-2.2 2.19 2.19 0 0 0 2.2 2.2z"/></svg>