<svg id="TARGETS" xmlns="http://www.w3.org/2000/svg" viewBox="0 0 94.85 94.85" width="94.85" height="94.85"><defs><style>.cls-1{fill:#19486a}.cls-2{fill:#fff}</style></defs><title>Goal_17_RGB_NG</title><path class="cls-1" d="M0 0h94.85v94.85H0z"/><path class="cls-2" d="M56.23 31.11a10 10 0 0 0-1-4.3l8-4.81a6.53 6.53 0 1 0-.8-1.46l-8 4.84a9.93 9.93 0 0 0-16.3.08l-8.22-5a6.7 6.7 0 0 0 .43-2.34A6.59 6.59 0 1 0 29.09 22l8.18 4.94A9.93 9.93 0 0 0 45.45 41v9.41a6.56 6.56 0 1 0 1.66 0V41a10 10 0 0 0 9.12-9.89zm12.3-17.85a4.91 4.91 0 1 1-4.9 4.9 4.91 4.91 0 0 1 4.9-4.9zm-44.78 9.81a4.91 4.91 0 1 1 4.9-4.91 4.91 4.91 0 0 1-4.9 4.91zm14.12 8a8.41 8.41 0 1 1 8.41 8.4 8.42 8.42 0 0 1-8.41-8.36zm13.31 25.86a4.91 4.91 0 1 1-4.9-4.93 4.92 4.92 0 0 1 4.9 4.93zM27.83 58.9a5.65 5.65 0 1 0-5.65 5.66 5.65 5.65 0 0 0 5.65-5.66zM28.78 65.84a2.63 2.63 0 0 0-.43 0h-2.66l-3.61 8.31-3.42-8.35H16a2.72 2.72 0 0 0-.42 0 7.53 7.53 0 0 0-6.85 7.51v9.9h4.38v-7.65c0-.51.14-1.19 1.07-1.19.63 0 .77.68.8 1.11v7.77h14.4v-7.77c0-.43.16-1.11.8-1.11.92 0 1.07.68 1.07 1.19v7.69h4.38v-9.9a7.53 7.53 0 0 0-6.85-7.51zm-6.5 14.61a.79.79 0 1 1 .81-.78.79.79 0 0 1-.81.78zM70.3 53.24a5.88 5.88 0 1 0 5.87 5.89 5.89 5.89 0 0 0-5.87-5.89zM77.39 74c.77-.23 1 .79 1 .79l2.51 8.46h5.23l-3.89-12.62S80.5 66 76.63 66h-2.84l-3.59 8.31L66.81 66h-2.64c-3.86 0-5.61 4.59-5.61 4.59l-3.87 12.66h5.22l2.51-8.46s.22-1 1-.79.49 1.31.49 1.31l-2.21 7.94h17.41l-2.19-7.94s-.29-1.1.47-1.31zm-7.09 7a.78.78 0 1 1 .78-.78.78.78 0 0 1-.78.78z"/></svg>