<svg id="TARGETS" xmlns="http://www.w3.org/2000/svg" viewBox="0 0 94.85 94.85" width="94.85" height="94.85"><defs><style>.cls-1{fill:#56c02b}.cls-2{fill:#fff}</style></defs><title>Goal_15_RGB_NG</title><path class="cls-1" d="M0 0h94.85v94.85H0z"/><path class="cls-2" d="M74 33.28a5 5 0 0 0 1.47 2.18c1.11 1.09 2.27 1.69 2.6 1.36s0-.93-.62-1.7c.92.23 1.64.21 1.77-.11s-.84-1.27-2.27-1.86a5 5 0 0 0-2.63-.48c0-.13.07-.27.09-.41a2.54 2.54 0 0 0 0-.62 2.78 2.78 0 0 0-.12-.71l-.19-.11a2.55 2.55 0 0 0-.69.21 2.82 2.82 0 0 0-.54.31 2.22 2.22 0 0 0-.33.28 4.79 4.79 0 0 0-1.64-2.13c-1.19-1-2.39-1.52-2.7-1.16s.09.9.72 1.62c-1-.17-1.69-.1-1.79.23s.92 1.2 2.4 1.68a5.11 5.11 0 0 0 2.62.31z"/><path class="cls-2" d="M73.51 33.85l-1.66-1c-.06.24-.16.47-.24.7l1.4.85a6.39 6.39 0 0 1 .5-.55zM72.52 34.94l-1.18-.72-.24.7.91.55.51-.53zM71.49 36l-.62-.37c-.09.3-.17.6-.25.9l.18.12z"/><rect class="cls-2" x="33.58" y="42.06" width="27.7" height="2.03" rx=".47" ry=".47"/><rect class="cls-2" x="33.58" y="62.2" width="27.7" height="3.09" rx=".47" ry=".47"/><path class="cls-2" d="M33.68 40.14a.58.58 0 0 0 0 .19.43.43 0 0 0 .39.42h26.8a.44.44 0 0 0 .4-.43v-.22a14.11 14.11 0 0 0-27.52 0zM60 61a.47.47 0 0 0 .47-.47V46a.47.47 0 0 0-.47-.47H35a.47.47 0 0 0-.47.47v14.5a.47.47 0 0 0 .47.5zm-7.24-13.53H57V59h-4.24zm-7.24 0h4.27V59h-4.27zm-7.19 0h4.28V59h-4.28z"/><path class="cls-2" d="M48.69 22.13H47.4v5.15a6.86 6.86 0 0 1 1.58 0 4 4 0 0 1 2.64 1 4.52 4.52 0 0 0 2.3.75h2v-5.1H54a4.58 4.58 0 0 1-3.07-1.22 4 4 0 0 0-2.24-.58zM12.48 18.31l15 6.81 1.47-.5-2.75-1.22-4.05-4 .76-1 9.66-5.74-11.65-.59-3 4.16-4-.84s-3.5 2.19-2.83 3.61c.33-.45 1.39-.69 1.39-.69z"/><g><path class="cls-2" d="M78.79 10.49A4.49 4.49 0 1 0 83.3 15a4.48 4.48 0 0 0-4.51-4.51zM71.34 15.33h2a.38.38 0 0 0 .34-.37.37.37 0 0 0-.34-.37h-2a.37.37 0 0 0 0 .73zM84 14.92a.37.37 0 0 0 .35.37h2a.39.39 0 0 0 .34-.38.37.37 0 0 0-.35-.36h-2a.38.38 0 0 0-.34.37zM78.79 9.79a.39.39 0 0 0 .37-.35v-2a.37.37 0 0 0-.74 0v2a.38.38 0 0 0 .37.35z"/><path class="cls-2" d="M78.82 20.1a.37.37 0 0 0-.36.34v2a.38.38 0 0 0 .37.34.37.37 0 0 0 .37-.34v-2a.36.36 0 0 0-.38-.34zM72.13 11.57l1.71 1a.39.39 0 0 0 .49-.16.38.38 0 0 0-.12-.49l-1.71-1a.38.38 0 0 0-.49.15.38.38 0 0 0 .12.5zM83.41 18l1.71 1a.37.37 0 0 0 .48-.15.37.37 0 0 0-.12-.49l-1.71-1a.37.37 0 0 0-.48.15.38.38 0 0 0 .12.49zM81.84 10.34l1-1.71a.37.37 0 0 0-.14-.48.38.38 0 0 0-.5.12l-1 1.73a.38.38 0 0 0 .15.48.38.38 0 0 0 .49-.14zM75.77 19.54l-1 1.71a.38.38 0 0 0 .15.49.38.38 0 0 0 .49-.12l1-1.71a.38.38 0 0 0-.15-.49.38.38 0 0 0-.49.12zM75.73 10.37a.38.38 0 0 0 .49.11.37.37 0 0 0 .15-.48l-1-1.7a.37.37 0 0 0-.49-.12.38.38 0 0 0-.15.49zM81.39 19.4a.38.38 0 0 0-.14.49l1 1.7a.39.39 0 0 0 .5.11.38.38 0 0 0 .14-.48l-1-1.7a.38.38 0 0 0-.5-.12zM83.75 12.5l1.7-1a.38.38 0 0 0 .12-.5.38.38 0 0 0-.49-.14l-1.7 1a.38.38 0 0 0-.11.5.37.37 0 0 0 .48.14zM73.86 17.38l-1.7 1a.37.37 0 0 0 .37.63l1.7-1a.37.37 0 0 0-.37-.64z"/></g><path class="cls-2" d="M14.77 58.85h1.7v6.24a.21.21 0 0 0 .21.21h2.85a.21.21 0 0 0 .21-.21v-6.27h2.9a4.17 4.17 0 0 0 3-7 3.9 3.9 0 0 0-1.94-7.28h-.25A5.27 5.27 0 0 0 13 44.9a5.32 5.32 0 0 0 .53 2.3 5.9 5.9 0 0 0 1.28 11.65z"/><g><path class="cls-2" d="M85.68 54.47l.42-.8.15-1.43a1.54 1.54 0 0 0 .14-1.48c-.51-.15-.87.56-.87.56a5.18 5.18 0 0 0-1-.09 4.27 4.27 0 0 0-.89.09.84.84 0 0 0-1-.43 1.06 1.06 0 0 0 .13 1L79 53.82l-4.62.46c-3 0-4.3 1.57-4.44 3.87a9 9 0 0 1-1.25 4c-1.24 1.21-2-.77-1.91-1.16a1.13 1.13 0 0 0 .78-1.17s-2.26.19-.85 2.55a1.42 1.42 0 0 0 2.1.41l.43 2.18.21.35 1.29-.05.13-.55-.6-.28L70 63.1l3.64-4.1 1.87.55 5.11.42 1.12 4.19.17.95 1.45.16.38-.46-1-.71v-4.55l2.19-4.58z"/><path class="cls-2" d="M74.63 65.27h1.06l.15-.57-.84-.39-.75-1.31 1.15-3.14-1.58-.42-.66.79a3.1 3.1 0 0 1-.06 2.83z"/></g><path class="cls-2" d="M87.25 81.2h-.1c-.08 0-.16.08-.24.12-2.54 1.27-10.41 4.29-17.55-2.46-.06-.07-.25-.25-.41-.24a.71.71 0 0 0-.39.22C66.44 80.5 56.66 87.1 48 79l-.13-.13a.48.48 0 0 0-.35-.14.46.46 0 0 0-.34.14L47 79c-8.69 8.11-18.47 1.5-20.59-.12-.12-.09-.18-.2-.4-.19a.62.62 0 0 0-.41.21c-7.14 6.75-15 3.73-17.54 2.46l-.25-.12a.32.32 0 0 0-.09 0 .49.49 0 0 0-.49.49v3.37a.48.48 0 0 0 .14.34c8.25 7.18 16.06.47 17.86-1.31a1.08 1.08 0 0 1 .18-.16.34.34 0 0 1 .22-.07.53.53 0 0 1 .35.15c9.31 8.88 19.08 1.69 21.11 0l.2-.19a.26.26 0 0 1 .19-.08c.11 0 .13 0 .19.08l.21.19c2 1.68 11.79 8.87 21.1 0a.45.45 0 0 1 .33-.14.51.51 0 0 1 .27.09.44.44 0 0 1 .13.14c1.81 1.77 9.6 8.49 17.86 1.31a.48.48 0 0 0 .14-.34v-3.42a.49.49 0 0 0-.49-.49"/><rect class="cls-2" x="7.15" y="69.78" width="80.69" height="4.74" rx=".57" ry=".57"/></svg>