<svg id="TARGETS" xmlns="http://www.w3.org/2000/svg" viewBox="0 0 94.85 94.85" width="94.85" height="94.85"><defs><style>.cls-1{fill:#ff3a21}.cls-2{fill:#fff}</style></defs><title>Goal_5_RGB_NG</title><path class="cls-1" d="M0 0h94.85v94.85H0z"/><path class="cls-2" d="M40.75 24.47H13.81a.18.18 0 0 0-.19.19v17.7a.18.18 0 0 0 .18.18h15.49V30.16h6.4v12.38h5.06a.18.18 0 0 0 .19-.18V24.65a.18.18 0 0 0-.19-.18zM24.59 36.14h-6v-6h6zM27.27 9.13a.59.59 0 0 0-.4-.16.56.56 0 0 0-.42.18l-.1.11-14.47 13.59a.14.14 0 0 0 .1.25h30.61a.14.14 0 0 0 .1-.25L27.39 9.26z"/><g><path class="cls-2" d="M67.56 14a13.55 13.55 0 1 0 13.55 13.55A13.57 13.57 0 0 0 67.56 14zm12.16 11.41a.58.58 0 0 1-.1.44.62.62 0 0 1-.37.24h-.11a.59.59 0 0 1-.33-.11.58.58 0 0 1-.24-.38.55.55 0 0 1 .1-.43.54.54 0 0 1 .37-.24.58.58 0 0 1 .68.48zm-.56-2.08a.58.58 0 0 1-.35.75.65.65 0 0 1-.2 0 .53.53 0 0 1-.24-.06.57.57 0 0 1-.3-.33.55.55 0 0 1 0-.45.58.58 0 0 1 1.07 0zm-2-1.81a.61.61 0 0 1 .28-.35.58.58 0 0 1 .58 1 .6.6 0 0 1-.29.08h-.15a.59.59 0 0 1-.36-.28.56.56 0 0 1-.04-.45zm-4.24-4.44a.58.58 0 1 1 1 .58.61.61 0 0 1-.36.27h-.15a.6.6 0 0 1-.29-.08.59.59 0 0 1-.27-.35.56.56 0 0 1 .09-.42zM71.74 26a.2.2 0 0 1-.2-.2V25h2.07v.8a.2.2 0 0 1-.2.2v5h-1.63v-5zm-4.1-1.56h-6.51V24h13v.45zM66.8 26a.2.2 0 0 1-.2-.2V25h2.08v.8a.2.2 0 0 1-.2.2v5h-1.63v-5zm-4.93 0a.2.2 0 0 1-.2-.2V25h2.07v.8a.2.2 0 0 1-.2.2v5h-1.63v-5zm5.77-2.49h-7l-.28-.28a.2.2 0 0 1 0-.32l7.19-2.7 7.19 2.7a.2.2 0 0 1 0 .32l-.28.28zM71 16.3a.58.58 0 0 1 1.07-.05.55.55 0 0 1 0 .45.57.57 0 0 1-.3.33.52.52 0 0 1-.24 0 .76.76 0 0 1-.21 0 .56.56 0 0 1-.32-.3.54.54 0 0 1 0-.43zm-1.77-.81a.57.57 0 0 1 .44-.09.58.58 0 0 1 .23 1 .56.56 0 0 1-.33.1h-.07a.56.56 0 0 1-.37-.23.58.58 0 0 1-.1-.44.6.6 0 0 1 .24-.34zm-1.71-.28a.59.59 0 0 1 .59.58.6.6 0 0 1-.59.59.59.59 0 0 1-.58-.59.58.58 0 0 1 .62-.58zm-2.52.43a.59.59 0 0 1 .81-.15.56.56 0 0 1 .24.38.58.58 0 0 1-.09.44.64.64 0 0 1-.38.24h-.1a.59.59 0 0 1-.34-.1.61.61 0 0 1-.24-.38.59.59 0 0 1 .1-.43zm-2 .61a.58.58 0 0 1 .33-.3.61.61 0 0 1 .44 0 .59.59 0 0 1 .31.33.63.63 0 0 1 0 .45.6.6 0 0 1-.33.3.71.71 0 0 1-.2 0 .54.54 0 0 1-.25-.06.57.57 0 0 1-.3-.33.59.59 0 0 1 0-.39zm-1.62.61a.56.56 0 0 1 .44-.06.59.59 0 0 1 .36.28.58.58 0 0 1-.22.79.51.51 0 0 1-.29.08.58.58 0 0 1-.29-1.09zm-1.76 1.24a.62.62 0 0 1 .43-.14.61.61 0 0 1 .4.21.59.59 0 0 1-.07.82.62.62 0 0 1-.38.14.58.58 0 0 1-.45-.21.59.59 0 0 1 .07-.82zm-2.75 3.28a.58.58 0 0 1 1 .59.6.6 0 0 1-.51.29.6.6 0 0 1-.29-.08.59.59 0 0 1-.2-.8zM56 23.33a.57.57 0 0 1 .3-.33.63.63 0 0 1 .45 0 .64.64 0 0 1 .33.3.64.64 0 0 1 0 .45.59.59 0 0 1-.55.39.65.65 0 0 1-.2 0 .59.59 0 0 1-.33-.81zm.12 1.61a.56.56 0 0 1 .38.24.59.59 0 0 1 .09.43.54.54 0 0 1-.24.38.57.57 0 0 1-.33.11h-.1a.6.6 0 0 1-.48-.68.59.59 0 0 1 .64-.48zm-.87 2.61a.59.59 0 0 1 .18-.41.57.57 0 0 1 .37-.14.57.57 0 0 1 .41.17.59.59 0 0 1-.41 1 .59.59 0 0 1-.59-.62zm.19 2.15a.6.6 0 0 1 .48-.68.58.58 0 0 1 .67.48.57.57 0 0 1-.47.67H56a.59.59 0 0 1-.6-.47zm1.11 2.46a.59.59 0 0 1-.55-.38.59.59 0 1 1 .75.35.69.69 0 0 1-.24.03zm1.43 1.43a.59.59 0 0 1-.27.35.6.6 0 0 1-.29.08.6.6 0 0 1-.51-.29.59.59 0 0 1 .21-.8.59.59 0 0 1 .86.66zm.16-14a.58.58 0 0 1 .83-.07.59.59 0 0 1 .07.82.58.58 0 0 1-.45.21.57.57 0 0 1-.37-.14.59.59 0 0 1-.12-.79zm.83 15.94a.62.62 0 0 1-.38.14.58.58 0 0 1-.37-1 .6.6 0 0 1 .42-.14.61.61 0 0 1 .4.21.58.58 0 0 1-.11.82zm1.52 1.38a.58.58 0 0 1-.45.21.6.6 0 0 1-.58-.53.6.6 0 0 1 .13-.43A.61.61 0 0 1 60 36a.62.62 0 0 1 .43.14.59.59 0 0 1 .07.82zm.19-4.55h.49v-.78a.09.09 0 0 1 .09-.09h12.8a.09.09 0 0 1 .09.09v.78h.49v.82h-14zM62.19 38a.61.61 0 0 1-.8.22.58.58 0 0 1-.27-.36.61.61 0 0 1 .05-.44.58.58 0 0 1 .36-.27.56.56 0 0 1 .44.06.58.58 0 0 1 .22.79zm1.9.78a.59.59 0 0 1-.55.38.64.64 0 0 1-.2 0 .59.59 0 1 1 .75-.35zm1.43.91h-.1a.59.59 0 0 1-.48-.67.59.59 0 1 1 .58.68zm2 .18a.58.58 0 0 1-.58-.58.59.59 0 0 1 .58-.59.6.6 0 0 1 .59.59.59.59 0 0 1-.55.61zm2.52-.43a.54.54 0 0 1-.37.24h-.07a.58.58 0 0 1-.1-1.16.62.62 0 0 1 .44.1.58.58 0 0 1 .24.38.55.55 0 0 1-.1.47zm2-.62a.56.56 0 0 1-.33.31.64.64 0 0 1-.2 0 .69.69 0 0 1-.24 0 .6.6 0 0 1-.3-.33.54.54 0 0 1 0-.45.56.56 0 0 1 .32-.3.59.59 0 0 1 .75.35.52.52 0 0 1 .07.45zm1.62-.6a.6.6 0 0 1-.29.08h-.15a.55.55 0 0 1-.35-.28.57.57 0 0 1 .21-.79.57.57 0 0 1 .44-.06.58.58 0 0 1 .36.27.59.59 0 0 1-.15.81zM75.5 37a.62.62 0 0 1-.38.14.58.58 0 0 1-.58-.64.56.56 0 0 1 .21-.39.6.6 0 0 1 .42-.14.61.61 0 0 1 .4.21.58.58 0 0 1-.07.82zm.07-18.09a.61.61 0 0 1-.4.21.55.55 0 0 1-.37-.14.57.57 0 0 1-.21-.4.55.55 0 0 1 .14-.42.57.57 0 0 1 .82-.07.59.59 0 0 1 .07.82zM77 35.49a.61.61 0 0 1-.4.21h-.05a.55.55 0 0 1-.37-.14.57.57 0 0 1-.07-.82.57.57 0 0 1 .82-.07.59.59 0 0 1 .07.82zm-.07-15a.59.59 0 0 1-.38.14.6.6 0 0 1-.53-.64.56.56 0 0 1 .21-.39.58.58 0 0 1 .82.07.54.54 0 0 1 .13.42.56.56 0 0 1-.18.35zm1.3 13.29a.56.56 0 0 1-.5.29.6.6 0 0 1-.29-.08.57.57 0 0 1-.28-.35.59.59 0 0 1 .06-.45.61.61 0 0 1 .36-.27.57.57 0 0 1 .44.06.58.58 0 0 1 .23.75zm.91-1.95a.58.58 0 0 1-.55.38h-.2a.57.57 0 0 1-.32-.31.52.52 0 0 1 0-.44.55.55 0 0 1 .3-.33.56.56 0 0 1 .44 0 .58.58 0 0 1 .35.65zm.32-1.7a.56.56 0 0 1-.33.1H79a.59.59 0 0 1-.47-.67.6.6 0 0 1 .68-.48.59.59 0 0 1 .47.68.6.6 0 0 1-.2.32zm-.16-1.94a.59.59 0 1 1 .59-.59.58.58 0 0 1-.57.54z"/><path class="cls-2" d="M67.56 12.1A15.46 15.46 0 1 0 83 27.55 15.45 15.45 0 0 0 67.56 12.1zm0 29.72a14.27 14.27 0 1 1 14.27-14.27 14.28 14.28 0 0 1-14.27 14.27z"/></g><g><path class="cls-2" d="M16.85 57.36s-1.6 1.72-1.59 3c0 1.06 1.26 1.7 1.61 1.93 0 0 1.63-.87 1.62-2-.01-1.29-1.64-2.93-1.64-2.93zM13.28 60.49s-.25 2.84 1 3.69c0 0 .41.52 2.32.81 0 0 .19-1.84-.52-2.59-.01 0-.37-.55-2.8-1.91zM13.06 64s-.27 3.1 1.07 4c0 0 .44.57 2.5.88 0 0 .2-2-.57-2.82 0 .01-.38-.59-3-2.06zM13.15 68s-.42 3.35.92 4.27c0 0 .54.63 2.6.94 0 0 .29-2.06-.48-2.87 0 .02-.43-.84-3.04-2.34zM12.76 72.08s-.19 3.47 1.15 4.4a5.49 5.49 0 0 0 2.75 1s.23-2.25-.53-3.07a10.83 10.83 0 0 0-3.37-2.33zM20.45 60.42s.3 2.84-.92 3.71c0 0-.4.53-2.31.85 0 0-.22-1.83.48-2.59 0 0 .35-.56 2.75-1.97zM20.73 63.92s.33 3.09-1 4c0 0-.43.58-2.48.93 0 0-.24-2 .51-2.83.01.04.39-.57 2.97-2.1zM20.72 68s.48 3.34-.84 4.29c0 0-.53.63-2.58 1 0 0-.33-2 .42-2.88 0-.07.42-.93 3-2.41zM21.19 72s.25 3.47-1.07 4.42a5.4 5.4 0 0 1-2.73 1s-.28-2.24.47-3.07A10.67 10.67 0 0 1 21.19 72zM13.89 54.31a.29.29 0 0 0-.3-.3.29.29 0 0 0-.3.3l.05 5.62.61.34zM15.12 53.32a.29.29 0 0 0-.3-.3.3.3 0 0 0-.3.3l.06 6.68a8.27 8.27 0 0 1 .59-1.5zM16.39 51.76a.32.32 0 0 0-.31-.3.3.3 0 0 0-.3.31l.06 5.81c.21-.31.43-.61.59-.83zM19.73 54.25a.32.32 0 0 1 .3-.31.31.31 0 0 1 .31.3l.05 5.62-.6.36zM18.48 53.29a.3.3 0 0 1 .3-.31.31.31 0 0 1 .31.3l.06 6.72a8.17 8.17 0 0 0-.62-1.49zM17.19 51.75a.3.3 0 0 1 .3-.3.31.31 0 0 1 .31.3l.05 5.81-.61-.82zM16.61 77.95h.89v7.87h-.89z"/><g><path class="cls-2" d="M77.74 56.74s-1.59 1.73-1.58 3c0 1.06 1.25 1.7 1.6 1.92 0 0 1.63-.87 1.62-1.95-.01-1.32-1.64-2.97-1.64-2.97zM74.17 59.87s-.25 2.85 1 3.7c0 0 .41.52 2.33.81 0 0 .18-1.84-.53-2.59.03 0-.37-.55-2.8-1.92zM74 63.38s-.27 3.1 1.07 4c0 0 .44.57 2.5.88 0 0 .2-2-.57-2.82 0 .02-.43-.58-3-2.06zM74 67.41s-.42 3.35.92 4.27c0 0 .54.62 2.6.93 0 0 .29-2-.48-2.87.04 0-.39-.85-3.04-2.33zM73.65 71.46s-.19 3.48 1.15 4.4a5.41 5.41 0 0 0 2.75 1s.24-2.25-.53-3.07a10.92 10.92 0 0 0-3.37-2.33zM81.34 59.81s.31 2.84-.92 3.71c0 0-.4.53-2.31.85 0 0-.22-1.84.48-2.6 0 0 .35-.56 2.75-1.96zM81.63 63.3s.32 3.1-1 4c0 0-.42.58-2.48.92 0 0-.24-2 .52-2.83 0 .05.33-.55 2.96-2.09zM81.62 67.33s.47 3.35-.85 4.29c0 0-.52.64-2.58 1 0 0-.33-2 .43-2.88 0-.01.38-.87 3-2.41zM82.08 71.39s.25 3.47-1.07 4.41a5.39 5.39 0 0 1-2.73 1s-.28-2.25.47-3.08a11 11 0 0 1 3.33-2.33zM74.78 53.69a.29.29 0 0 0-.3-.3.3.3 0 0 0-.3.31v5.61l.61.35zM76 52.71a.3.3 0 0 0-.31-.3.29.29 0 0 0-.3.3l.06 6.72a6.83 6.83 0 0 1 .59-1.5zM77.28 51.15a.3.3 0 0 0-.31-.3.31.31 0 0 0-.3.3l.06 5.85.6-.83zM80.63 53.64a.3.3 0 0 1 .3-.31.3.3 0 0 1 .3.3v5.62l-.6.35zM79.38 52.67a.29.29 0 0 1 .29-.3.3.3 0 0 1 .31.3l.02 6.71a7.45 7.45 0 0 0-.62-1.48zM78.08 51.14a.3.3 0 0 1 .3-.3.3.3 0 0 1 .31.3v5.81l-.61-.82zM77.5 77.33h.89v7.87h-.89z"/></g><g><path class="cls-2" d="M59.49 56.11a3 3 0 1 1 3-3 3 3 0 0 1-3 3zM55.94 57.28H63.04a4.06 4.06 0 0 1 3.69 4v8.44a1.18 1.18 0 0 1-2.36 0v-7.21c0-.27-.08-.64-.57-.64s-.42.37-.43.6v21.71a1.7 1.7 0 1 1-3.39 0V71.67a.47.47 0 0 0-.49-.5.46.46 0 0 0-.48.5v12.51a1.7 1.7 0 1 1-3.39 0V62.47c0-.23-.09-.6-.43-.6-.5 0-.58.37-.58.64v7.25a1.18 1.18 0 1 1-2.36 0v-8.44a4.06 4.06 0 0 1 3.69-4.04z"/><g><path class="cls-2" d="M36.8 56.58a3 3 0 1 0-3-3 3 3 0 0 0 3 3zM45.4 68.4l-2.51-8.06S42 58 40 58h-6.41c-2 0-2.88 2.33-2.88 2.33l-2.52 8.07s-.44 1.47.83 1.84 1.65-1.07 1.65-1.07l2-6.72s.11-.52.51-.41.25.67.25.67l-3.53 12.6h3.3v9a1.58 1.58 0 0 0 3.15 0v-9h.89v9a1.58 1.58 0 0 0 3.15 0v-9h3.28l-3.52-12.6s-.15-.56.24-.67.51.41.51.41l2 6.72s.39 1.44 1.65 1.07.85-1.84.85-1.84z"/></g></g></g></svg>