<svg id="TARGETS" xmlns="http://www.w3.org/2000/svg" viewBox="0 0 94.85 94.85" width="94.85" height="94.85"><defs><style>.cls-1{fill:#3f7e44}.cls-2{fill:#fff}</style></defs><title>Goal_13_RGB_NG</title><path class="cls-1" d="M0 0h94.85v94.85H0z"/><path class="cls-2" d="M23.78 59.82v15.75c0 3.23-1.38 5.31-4.94 5.31s-5.22-2.08-5.22-5.31V59.82h3.5v16.09c0 1.23.49 2.06 1.72 2.06s1.72-.83 1.72-2.06V59.82zM28.84 67.56v13.08h-2.95V59.82h3.44l3.77 11.95V59.82H36v20.82h-3zM38 59.82h8.19v2.86h-4.65v5.95H45v2.83h-3.5v9.18H38zM47.16 75.27V65.2c0-3.26 1.54-5.62 5.22-5.62 3.87 0 4.95 2.15 4.95 5.22v2.45h-3.2v-2.73c0-1.29-.43-2-1.68-2s-1.79.89-1.79 2.15v11.15c0 1.26.53 2.15 1.79 2.15s1.68-.8 1.68-2V72.1h3.2v3.6c0 3-1.23 5.18-4.95 5.18s-5.22-2.39-5.22-5.61zM59.08 75.27V65.2c0-3.26 1.53-5.62 5.22-5.62 3.87 0 4.94 2.15 4.94 5.22v2.45h-3.19v-2.73c0-1.29-.43-2-1.69-2s-1.78.89-1.78 2.15v11.15c0 1.26.52 2.15 1.78 2.15s1.69-.8 1.69-2V72.1h3.19v3.6c0 3-1.23 5.18-4.94 5.18s-5.22-2.39-5.22-5.61zM71 75.27V65.2c0-3.26 1.54-5.62 5.22-5.62 3.87 0 4.94 2.15 4.94 5.22v2.45H78v-2.73c0-1.29-.43-2-1.69-2s-1.78.89-1.78 2.15v11.15c0 1.26.52 2.15 1.78 2.15s1.69-.8 1.69-2V72.1h3.19v3.6c0 3-1.22 5.18-4.94 5.18S71 78.49 71 75.27zM81 30.77a41.66 41.66 0 0 0-66.87 0c-.11.14-.19.27-.27.37.08.11.16.24.27.38a41.66 41.66 0 0 0 66.87 0l.26-.38-.26-.37m-44.72-8.31c.18-.27.78-1 .86-1.12a1.07 1.07 0 0 1 .68-.28c.21 0 .5.08.53.24a1.79 1.79 0 0 1-.19.89 2.28 2.28 0 0 1-1.49.67c-.33-.05-.45-.3-.39-.4m-.72 1.43l.07-.08a1.91 1.91 0 0 1 1.11-.41c.35-.06.82.12.87.35s-.88.66-1 .82c-.48.45-1.24 1.36-1.69 1.45a.54.54 0 0 1-.36 0 13.72 13.72 0 0 1 1.05-2.1m7.55 15.5a4 4 0 0 1-.86 1.8 2.93 2.93 0 0 1-1.92.73c-.64-.05-.73-1.75-.73-2.63 0-.3-.43.6-.65-1.23-.15-1.17-.9.12-1-.66s-.43-.62-.82-1.11-.88.05-1.43.3-.32.37-1.1.12a14 14 0 0 1-1.1-5.47 13 13 0 0 1 .07-1.4.38.38 0 0 1 .09-.13c.74-.88.72-1.09.72-1.09l.82-.28a13.8 13.8 0 0 1 2.31.57c.81.31 2.1 1 2.84.69.54-.22 1-.51.91-1s-.5-.7-1-.32c-.2.14-.62-.85-.95-.8s.41 1.16.13 1.21-.85-1.16-.95-1.36-.53-.67-.92-.3c-.83.78-2.18.73-2.45.94-.82.61-1-.21-1-.7 0-.12.07-.23.1-.35a1.72 1.72 0 0 1 1.57-.17c.36.24.62-.06.76-.21s.1-.38 0-.57.18-.34.37-.39a10.82 10.82 0 0 0 .96-.61 3.49 3.49 0 0 1 2.14 0 1.12 1.12 0 0 0 1.4-.28 3.78 3.78 0 0 1 1-.85c.2-.09-.5-.75-1.08 0s-.88.78-1.15.78-1.9-.41-2.1-.92.51-.9 1.11-1.19a14.7 14.7 0 0 1 2.66-.37c.85-.19 1.94-.62 2.49-.25s-2.3 1-1.36 1.52c.33.18 1.83-.86 2.34-1.13 1.21-.62-1.17-.83-.86-2.1.35-1.43-2.92-.88-4.55-.75a14 14 0 0 1 21.24 8.55 2.28 2.28 0 0 1-.07.65.92.92 0 0 1-1.65.13c-.14-.2-.74-.77-.72.2s1 1.07.05 1.66a3.61 3.61 0 0 1-1.48.59 1.89 1.89 0 0 0-.72 1.69c.1.53 1.38 2 .43 1.94a5.62 5.62 0 0 1-2.18-1.9c-.29-.78-.61-1.54-.84-2.13a.84.84 0 0 0-1.32-.39c-.5.35.14.69-.22 1.42s-.62 1.39-1.14.78C50 31 48 31.77 47.69 30c-.17-1-1-.86-1.67-1.4s-1.07-.82-1.19-.44 2.15 2.13 2.31 2.58c.24.68-.67 1.28-1.34 1.44s-1-.37-1.61-1.06-.94-1.16-1-.63a3.1 3.1 0 0 0 1.29 2.34c.57.36 1.21.52 1 1.1s0 .26-.64.89a1.7 1.7 0 0 0-.71 1.71c0 .88-.18.93-.32 1.66s-.45.1-.73 1.17m15.08-5.61c.47 0 1.18.62.91.87a1.27 1.27 0 0 1-1.35-.12c-.35-.27.23-.73.44-.75m-.6-.43c-.15-.06-.28-.2-.4-.54a.32.32 0 0 1 .46-.41 1.36 1.36 0 0 1 .66.81c0 .23-.56.2-.72.14m-6.2 0a1.31 1.31 0 0 1-1.36-.11c-.35-.28.23-.74.44-.75.47 0 1.18.62.91.87m-5.74 2.79c-.2.31-.73 2.68-1.08 2.4s.14-2.74.25-2.93c.55-1 1.75-1 .83.53m1.91 9.16a13.87 13.87 0 0 1-4-.57.56.56 0 0 1-.17-.68 3.12 3.12 0 0 1 2.75-1.68c2.28-.22 5.28 1.48 5.75 1.21s1.53-1.56 2.95-1.48a2.26 2.26 0 0 1 1.28.32 14 14 0 0 1-8.52 2.88m9.91-4.09A3.42 3.42 0 0 1 57 41c-.77-.4-.67.23-1.05.09s.42-1-.71-.27-.82-.12-1.32-1.37a2.56 2.56 0 0 1 1.46-3A16.9 16.9 0 0 1 58 35.8c1.69-.42 2-1.42 2.35-.81l.17.32a2.34 2.34 0 0 1 .22.92 14.11 14.11 0 0 1-3.23 5m3.85-7.1c-.37-.1-2-2.28-.7-3.72.2-.24-.42-.93-.25-.94.68-.06 1 .37 1.22 1v.81a13.64 13.64 0 0 1-.3 2.87"/></svg>