<svg id="TARGETS" xmlns="http://www.w3.org/2000/svg" viewBox="0 0 94.85 94.85" width="94.85" height="94.85"><defs><style>.cls-1{fill:#4c9f38}.cls-2{fill:#fff}</style></defs><title>Goal_3_RGB_NG</title><path class="cls-1" d="M0 0h94.85v94.85H0z"/><path class="cls-2" d="M76.35 55.21A3.21 3.21 0 1 0 73.13 52a3.21 3.21 0 0 0 3.22 3.21zM80.1 56.45h-7.48a4.28 4.28 0 0 0-3.89 4.27v8.9a1.25 1.25 0 0 0 2.49 0V62c0-.29.08-.67.6-.67.36 0 .44.38.45.63v22.88a1.79 1.79 0 1 0 3.58 0V71.63a.49.49 0 0 1 .51-.52.49.49 0 0 1 .51.52v13.21a1.79 1.79 0 1 0 3.57 0V61.93c0-.25.09-.63.45-.63.53 0 .61.38.61.67v7.65a1.25 1.25 0 0 0 2.49 0v-8.9a4.28 4.28 0 0 0-3.89-4.27zM48.16 56.73a3 3 0 1 0-3-3 3 3 0 0 0 3 3zM56.82 68.8l-2.53-8.23s-.91-2.37-2.91-2.37h-6.44c-2 0-2.91 2.37-2.91 2.37l-2.52 8.23a2.07 2.07 0 0 0-.07.47 1.11 1.11 0 0 0-.29-.22 1 1 0 0 0-1.27.42 25.09 25.09 0 0 1-1.61 2.46 1 1 0 0 1-.78.37h-3.07a1 1 0 0 1-.78-.37c-.4-.39-1.57-2.49-1.65-2.56a.87.87 0 0 0-.79-.37.91.91 0 0 0-.73.39v-8.67a4.29 4.29 0 0 0-3.89-4.27h-7.49a4.29 4.29 0 0 0-3.89 4.27v8.9a1.25 1.25 0 0 0 .57 1l-2.9 15.3a.57.57 0 0 0 .46.66h.1a.57.57 0 0 0 .56-.46l2.89-15.36a1.24 1.24 0 0 0 .8-1.15V62c0-.29.09-.67.61-.67.36 0 .44.38.45.63v22.88a1.79 1.79 0 0 0 3.58 0V71.63a.52.52 0 1 1 1 0v13.21a1.79 1.79 0 1 0 3.57 0V61.93c0-.25.1-.63.46-.63.52 0 .6.38.6.67v7.65a1.24 1.24 0 0 0 2.36.54.6.6 0 0 0 0 .11l2.55 4.62a1.62 1.62 0 0 1 .16.61v.69A2.72 2.72 0 0 1 31 77l-1.22 4.85h1.35v3.6a1.25 1.25 0 0 0 2.5 0V82a.6.6 0 0 1 0-.15h.75v3.6a1.25 1.25 0 0 0 2.5 0v-3.6h1.35L36.93 77a2.37 2.37 0 0 1-.1-.64V75.5a1.7 1.7 0 0 1 .15-.61l2.36-4.26s.15-.32.22-.45v-.1a1.14 1.14 0 0 0 .75.61c1.27.38 1.66-1.1 1.66-1.1l2-6.87s.12-.52.51-.41.25.68.25.68l-3.49 12.87h3.3v9.22a1.59 1.59 0 0 0 3.17 0v-9.22h.9v9.22a1.59 1.59 0 0 0 3.17 0v-9.22h3.3L51.54 63s-.16-.56.24-.68.51.41.51.41l2 6.87s.39 1.48 1.67 1.1.86-1.9.86-1.9zM20.83 55.21A3.21 3.21 0 1 0 17.62 52a3.22 3.22 0 0 0 3.21 3.21zM62.67 70.74a2.55 2.55 0 1 0-2.55-2.55 2.55 2.55 0 0 0 2.55 2.55zM67.8 75.67c-1.54-4-1.79-3.93-3.19-4h-3.89c-1.39 0-1.64 0-3.18 4-.22.57-1.14 2.77-1.15 2.88s-.39.93.47 1.24 1.08-.65 1.08-.65l1.56-3.86s0-.08.1-.08.06.08.06.12v10.06A1.32 1.32 0 0 0 61 86.75a1.3 1.3 0 0 0 1.29-1.37v-4s-.05-.62.39-.61.4.61.4.61v4a1.32 1.32 0 0 0 1.31 1.37 1.29 1.29 0 0 0 1.28-1.37V75.32v-.13c0-.01.11.09.11.09l1.42 3.47s.41.92 1.19.56a.87.87 0 0 0 .37-1.15c.02-.11-.76-1.92-.96-2.49z"/><path class="cls-2" d="M34 70.71a2.54 2.54 0 1 0-2.53-2.54A2.54 2.54 0 0 0 34 70.71zM36.43 11.99h-1.67v32.08h22.99v-1.94H36.43V11.99z"/><path class="cls-2" d="M38.2 8.1v32.07h23V8.1zM41 19.52h4.4l1.3-3a.57.57 0 0 1 .59-.36.62.62 0 0 1 .54.43l1.56 5 3.06-8.37a.6.6 0 0 1 .55-.39.58.58 0 0 1 .56.36l1.23 2.84a.59.59 0 0 1-.31.79.61.61 0 0 1-.79-.32l-.63-1.45-3.16 8.63a.59.59 0 0 1-.56.39.59.59 0 0 1-.56-.42L47.2 18.5l-.81 1.86a.63.63 0 0 1-.55.36H41zm17.39 16.34a.14.14 0 0 1-.14.14H41.18a.14.14 0 0 1-.14-.14v-2.67a.14.14 0 0 1 .14-.14h17.07a.14.14 0 0 1 .14.14zm0-4.72a.15.15 0 0 1-.14.15H41.18a.15.15 0 0 1-.14-.15v-2.66a.15.15 0 0 1 .14-.15h17.07a.15.15 0 0 1 .14.15zM58.07 20l-2 2.06L54 20a1.47 1.47 0 0 1-.46-1 1.4 1.4 0 0 1 1.36-1.5c.41 0 .86.44 1.12.71a2 2 0 0 1 1.15-.71 1.37 1.37 0 0 1 1.32 1.5 1.51 1.51 0 0 1-.42 1z"/></svg>