<svg id="TARGETS" xmlns="http://www.w3.org/2000/svg" viewBox="0 0 94.8 94.88" width="94.8" height="94.8"><style>.st0{fill:#56c02b}.st1{fill:#fff}</style><title>Goal_15_RGB_NG</title><path class="st0" d="M0 0h94.8v94.8H0z"/><path class="st1" d="M41.7 22.5v-3c0-.1-.1-.3-.3-.2h-.2l-.2.1c-2 1.4-8.1 4.9-13.6-.2l-.1-.1c-.1-.1-.1-.1-.2-.1s-.2 0-.2.1l-.1.1c-5.6 5.2-11.8 1.5-13.7.1l-.1-.1c-.2 0-.3.1-.3.3v3.1c0 .1 0 .1.1.2l.2.2c4.1 3.3 10 3.1 14-.3l.1-.1h.3l.1.1c1.3 1.1 7.5 5.3 14.1.1.1 0 .1-.1.1-.3 0 .1 0 .1 0 0z"/><path class="st1" d="M34.5 18.6c-.2.5-.2.8-.2.8.6 0 5-.3 6.7-6.4-1.2 0-2.4.3-3.4.9-.7.5-1.4 1.2-1.8 2-.6.9-1 1.8-1.3 2.7zM33.9 19.5v-.1c.1-1.6-.5-3.2-1.5-4.5-.5-.6-1-1.1-1.6-1.5-.9-.5-1.9-.8-2.9-.9 1 6.1 5.1 6.9 6 7zM35.8 14.9c0-1.8-.6-3.5-1.8-4.7-.8 1.2-1.4 2.6-1.6 4.1 1 1 1.6 2.3 1.8 3.7.4-1.1.9-2.2 1.6-3.1zM84.3 14.4c-.5-.5-.9-1.1-1.1-1.7v-.4L81 10.6s-.1-1.1-.9-1.3l-.5 1.5-1.3.2s-2.6-.6-2.8-.7c-1.6 1.3-2.5 3.3-2.2 5.3-.5-1.9-.1-4 1.1-5.6-1.1-.3-2.2-.3-3.2.1-.8 2.3-.7 4.8.2 7.1 0 0-2.3-3.7-1.3-6.8l-1.8.6c-.7 1.9-.8 4-.2 6 0 0-1.6-3-.8-5.8-.6.1-1.2.2-1.8.2-1 1.3-1.4 3-.9 4.5-.7-1.5-.7-3.2 0-4.7-.7-.2-1.4-.3-2.1-.3-1.3 1.3-1.8 3.2-1.3 5a5.1 5.1 0 0 1 0-4.8c-1.3.2-2.5.9-3.3 1.9-1.2 1.3-2.3 2.7-3.3 4.3 0 0-1.9 4.3-5.1 4.5s-2.7-3-2.7-3 1.5-.8 1.4-1.6-1.7.2-2 1.2-.3 4.5 3.5 4.4 7.4-6.4 7.4-6.4l.4 1.2c.1.6-1.5 3.2-1.5 3.5l2.5 4h3.3s-.6-1.6-1.9-1.5c-.4-.8-.8-1.6-1.1-2.5L62 18c2.5-.6 9 1.2 9 1.2l1.1 2.9 1.2 1.2 2.1 2h4s-.3-1.4-2.6-1.9L75 21.3l-.1-3 4.8-2.6 3.3 1.1c.4-.7.9-1.3 1.4-1.9l-.1-.5z"/><path class="st1" d="M80.1 18.5c-.7-.2-2.3-.7-2.3-.7l-1.8.9v1.1c1 .2 1.9.4 2.8.8l-.2 1.4c1.4.6 2.1-1 2.1-1 .2-.4.3-.8.4-1.2.1-.7.1-1-1-1.3zM47 45.9l-.5-.7c1-.7 1.8-1.5 2.5-2.5 0 0-3.1.7-4-.1l-2.1-3.1c.5-.7.5-1.7.1-2.5-.2-.3-.8-.7-.9-.2v.2c-.2.4-.5.8-1 .9 0-.4-.2-.7-.4-1-.2-.3-.8-.5-.9-.1v.2c0 .2-.1.4-.2.5L37 36.4c-1.2-.9-2.7-1.5-4.2-1.6h-1.2c-1.6.3-3.1.5-4.7.6l-7.6.3s-6.4.2-6.5 3.5l-.3 10.6c1.3.9.7-1.3.6-2.1.1-1.1.3-2.1.7-3.1l1.7 9.6h4.3c0-1-.6-2-1.6-2.3l.6-3.1 1.8-1.1c2.3 1.1 4.9 1.2 7.3.3l1.5 6.2h5.1c-.2-1.9-2.9-2.4-2.9-2.4l1.3-5.1s.5-.1 1.1-.3l.8-.2.2-.1c.8-.3 1.5-.8 2.1-1.2 0 0 2.3 3 3.3 3.4l3.5 1.6c.4.2.9.2 1.3-.1l.6-.3c.4 0 .8-.1 1.1-.3.3-.2.6-.5.7-.8 1.9-.2 5.9-3.6 5.9-3.6L47 45.9zM71.6 50.7h-2.2l-1.3-7.5-.1 7.5h-2l-1.6-9.1-.1 9.1h-6.2v3.4h22.8v-3.4h-5.1l-.1-7.5-1.3 7.5h-2.2V43v-3.4c.2.2.4.3.6.5 1.2.9 2.4 1.2 2.7.7s-.3-1.5-1.5-2.4c-.1-.1-.3-.2-.5-.3.1-.1.3-.1.4-.2 1.3-.7 2.1-1.7 1.8-2.2s-1.5-.3-2.8.4v-.2c.1-1.4-.3-2.7-.9-2.7s-1.1 1.1-1.2 2.5v.3l-.3-.2c-1.2-.9-2.4-1.2-2.7-.8s.3 1.5 1.5 2.4c.1.1.3.2.4.3-.1.1-.3.1-.4.2-1.3.7-2 1.7-1.8 2.2s1.5.3 2.8-.4c.4-.2.8-.5 1.2-.8v.2c.1 1.2.1 1.2 0 3.7l.1 7.9zm-.4-13.1c0-.3.6-.5.6-.5s.5.3.5.6-.3.5-.6.5-.5-.3-.5-.6z"/><g><path class="st1" d="M58.2 74.4c-1.7.7-4.9 1.9-7.5 1.4-3.7-.7.4.6.4.6 1.3.3 2.7.3 4 .1.2 3 .8 6.3.8 6.6 0 0 0 .4.2.4l.4.1s.1 0 .1-.2c-.1-1.9 0-3.7.2-5.6.2-.7.4-1.3.8-1.9.4-.2.9-.3 1.3-.5l-.1-.4c-.4-.8-.6-.6-.6-.6z"/><path class="st1" d="M83 71.5c-.4-2.6-1-3.4-2-4.6a8.25 8.25 0 0 0-5.8-2.8c-3.1-.2-7.1-.2-7.1-.2s-.7-.1-.8.8c-.2 2.2-.7 4.3-1.4 6.4-.3.8-2 1-2.2 1.1 0 0 1.8-1 2-1.6.4-1.9.6-3.9.6-5.9-.2-2-.2-2.1-.2-2.1s0-.5-.9-.5H61s-.4-.1-.5.5 0 .8-.8 1-2.3.4-3.1 1.2c-1.1 1.6-1.7 3.5-1.7 5.5v.2c-.1 1.3 0 2.7.3 4 1.1-.1 2.2-.4 3.2-1 .7-.4 1.1.6 1.1.6s.3.6.3.7c.1.1.1.3 0 .4 0 0-.3.1-.2.3.1.2.3.4.6.4.4.1 1.6 1.8 1.6 1.8 0 .3.2 3 .2 3l.6 3.8s-1.2.9.8.9h2.1s.9 0 .9-.6l-.1-3.8.6-3c2 1.4 8.4 1.1 8.4 1.1.3.1.5.3.7.5l.6 2.2.2 2.4s-1.3 1.3.5 1.3h2s1 .1.8-.6c-.3-1 1.2-7.1 1.2-8.7s.1-4 .2-4.7c.2 1.1.4 2.3.4 3.5.2 2.4.2 2.6.2 3.9 0 0 .1 1.1.2.4.4-1.2 1.1-5.6.7-7.8z"/></g><g><path class="st1" d="M19.8 68.4l.9 17.1h1.7zM32.3 66.8l-3.6 18.7h1.7zM35 75l-2.3 10.5h1.6zM38.4 80.1l-1.2 5.4h.8zM16.7 77.7l.5 7.8h1.2zM25.9 71.4h.2c.8 0 1.4-.6 1.4-1.4v-5c0-.8-.6-1.4-1.4-1.4h-.3v-2.3c0-.2-.1-.3-.3-.3s-.3.1-.3.3v2.3H25c-.8 0-1.4.6-1.4 1.4v5c0 .8.6 1.4 1.4 1.4h.1v14.1h.8V71.4z"/></g><path class="st1" d="M58.1 50.7h22.8v3.4H58.1z"/></svg>