<svg id="TARGETS" xmlns="http://www.w3.org/2000/svg" viewBox="0 0 94.85 94.85" width="94.85" height="94.85"><defs><style>.cls-1{fill:#3f7e44}.cls-2{fill:#fff}</style></defs><title>Goal_13_RGB_NG</title><path class="cls-1" d="M0 0h94.85v94.85H0z"/><path class="cls-2" d="M77.78 55.7a2.78 2.78 0 1 0 2.78-2.78 2.77 2.77 0 0 0-2.78 2.78zM83.8 59.55h-6.48A3.7 3.7 0 0 0 74 63.23v7.7a1.08 1.08 0 1 0 2.15 0v-6.61c0-.25.07-.58.53-.58s.38.33.39.54V84.1a1.55 1.55 0 0 0 3.09 0V72.68a.43.43 0 0 1 .45-.46.43.43 0 0 1 .44.46V84.1a1.55 1.55 0 0 0 3.09 0V64.28c0-.21.08-.54.39-.54s.53.33.53.58v6.61a1.08 1.08 0 1 0 2.15 0v-7.7a3.7 3.7 0 0 0-3.41-3.68zM54.59 57.19a2.63 2.63 0 1 0 2.62-2.63 2.62 2.62 0 0 0-2.62 2.63zM60.34 64.63c.34-.1.43.36.43.36l1.76 5.93s.34 1.27 1.43.94.72-1.62.72-1.62l-2.18-7.11s-.78-2.05-2.51-2.05h-5.56c-1.72 0-2.5 2.05-2.5 2.05l-2.19 7.11s-.39 1.3.72 1.62 1.43-.94 1.43-.94L53.65 65s.1-.46.44-.36.21.59.21.59l-3.06 11.1h2.85v8a1.37 1.37 0 1 0 2.73 0v-8h.78v8a1.37 1.37 0 0 0 2.74 0v-8h2.84l-3.06-11.11s-.12-.49.22-.59zM38.86 57.15a2.63 2.63 0 1 0 2.63-2.63 2.62 2.62 0 0 0-2.63 2.63zM46.77 63.09S46 61 44.27 61h-5.56c-1.71 0-2.51 2.09-2.51 2.09l-2.2 7.1s-.39 1.31.71 1.63 1.43-.95 1.43-.95L37.92 65s.1-.46.44-.36.22.59.22.59l-3.06 11.1h2.84v8a1.37 1.37 0 0 0 2.74 0v-8h.77v8a1.37 1.37 0 0 0 2.74 0v-8h2.85L44.4 65.18s-.13-.49.21-.59.44.36.44.36l1.75 5.92s.34 1.28 1.44.95.71-1.63.71-1.63zM16.25 58.78A2.75 2.75 0 1 0 13.5 56a2.75 2.75 0 0 0 2.75 2.78zM19.46 59.84h-6.41a3.66 3.66 0 0 0-3.33 3.65v7.61a1.06 1.06 0 0 0 .42.83L7.7 84.8a.41.41 0 0 0 .33.49h.07a.41.41 0 0 0 .41-.29l2.42-12.81a1.07 1.07 0 0 0 .92-1v-6.63c0-.24.06-.58.51-.58s.38.33.39.54v19.61a1.53 1.53 0 0 0 3.06 0v-11.3a.42.42 0 0 1 .44-.45.42.42 0 0 1 .44.45v11.3a1.53 1.53 0 0 0 3.06 0V64.52c0-.21.08-.54.39-.54s.51.34.51.58v6.54a1.07 1.07 0 1 0 2.13 0v-7.61a3.66 3.66 0 0 0-3.32-3.65zM67 69.41a2.23 2.23 0 1 0 2.23-2.22A2.23 2.23 0 0 0 67 69.41zM73.72 76c-1.34-3.46-1.56-3.43-2.78-3.47h-3.4c-1.22 0-1.44 0-2.78 3.47-.19.5-1 2.42-1 2.52s-.33.81.42 1.08.93-.57.93-.57l1.37-3.37s0-.07.08-.07.06.07.06.11v8.78a1.15 1.15 0 0 0 1.14 1.2 1.13 1.13 0 0 0 1.13-1.2v-3.5s0-.54.34-.53.35.53.35.53v3.5a1.16 1.16 0 0 0 1.15 1.2 1.13 1.13 0 0 0 1.12-1.2v-8.84-.11c0-.01.1.08.1.08l1.23 3s.36.81 1 .49a.77.77 0 0 0 .33-1c.07-.1-.59-1.65-.79-2.1zM32.91 70.34a.81.81 0 0 0-1.1.37 21.83 21.83 0 0 1-1.4 2.13.89.89 0 0 1-.68.32h-2.66a.88.88 0 0 1-.68-.32A24.92 24.92 0 0 1 25 70.62a.79.79 0 0 0-.69-.37.8.8 0 0 0-.8.8 1.39 1.39 0 0 0 .08.35l2.22 4a1.5 1.5 0 0 1 .13.53v.6a2.42 2.42 0 0 1-.11.67l-1.06 4.21h1.13v3.13a1.09 1.09 0 0 0 2.17 0v-3a.45.45 0 0 1 0-.13h.65a.45.45 0 0 1 0 .13v3a1.09 1.09 0 0 0 2.17 0v-3.12h1.17L31 77.22a3.53 3.53 0 0 1-.09-.55v-.73a1.41 1.41 0 0 1 .14-.53l2-3.7s.14-.27.19-.39a.71.71 0 0 0-.33-.98z"/><path class="cls-2" d="M28.4 71.78a2.2 2.2 0 1 0-2.2-2.2 2.2 2.2 0 0 0 2.2 2.2zM81.68 26.3a42.41 42.41 0 0 0-68.07 0l-.27.38.27.38a42.1 42.1 0 0 0 34 17.11 42.07 42.07 0 0 0 34-17.11c.11-.14.2-.27.27-.38s-.16-.23-.27-.38m-45.42-8.46c.19-.27.8-1.05.88-1.14a1.05 1.05 0 0 1 .69-.29c.22 0 .51.08.54.25a1.86 1.86 0 0 1-.19.91 2.39 2.39 0 0 1-1.52.68c-.33-.05-.46-.31-.4-.41m-.73 1.46l.07-.09a2 2 0 0 1 1.13-.41c.36-.06.83.12.89.36s-.9.66-1.07.83c-.49.45-1.27 1.38-1.72 1.48a.56.56 0 0 1-.37 0 13.69 13.69 0 0 1 1.07-2.13m7.68 15.77a4 4 0 0 1-.88 1.84 2.93 2.93 0 0 1-1.95.74c-.65 0-.74-1.78-.74-2.68 0-.3-.43.61-.66-1.25-.15-1.19-.91.13-1-.67s-.43-.63-.83-1.13-.9 0-1.46.3-.33.38-1.11.13a14.18 14.18 0 0 1-1.13-5.57c0-.48 0-1 .07-1.43l.09-.13c.76-.9.74-1.11.74-1.11l.84-.29a14.23 14.23 0 0 1 2.34.59c.83.31 2.14 1 2.9.7.55-.22 1-.52.92-1s-.51-.71-1.06-.32c-.2.14-.63-.87-1-.82s.41 1.19.13 1.23-.87-1.18-1-1.38-.54-.69-.94-.31c-.84.8-2.21.75-2.49 1-.83.62-1.06-.21-1-.72 0-.11.07-.23.11-.34a1.67 1.67 0 0 1 1.59-.18c.37.25.64-.06.78-.21a.51.51 0 0 0 0-.59c-.09-.2.19-.34.38-.39a9.65 9.65 0 0 0 1.08-.65 3.55 3.55 0 0 1 2.18 0 1.16 1.16 0 0 0 1.43-.29 3.87 3.87 0 0 1 1-.86c.21-.1-.51-.77-1.1 0s-.89.79-1.17.79-1.93-.41-2.13-.93.52-.91 1.13-1.21a15.06 15.06 0 0 1 2.7-.38c.87-.19 2-.63 2.53-.25s-2.33 1-1.38 1.55c.34.18 1.87-.88 2.39-1.15 1.23-.64-1.2-.85-.88-2.14.36-1.46-3-.89-4.63-.77a14.31 14.31 0 0 1 21.62 8.71 2.36 2.36 0 0 1-.07.66.94.94 0 0 1-1.68.13c-.14-.21-.76-.79-.74.21s1 1.09 0 1.68a3.5 3.5 0 0 1-1.5.61 1.94 1.94 0 0 0-.73 1.71c.1.55 1.41 2 .44 2a5.53 5.53 0 0 1-2.22-1.94c-.3-.79-.62-1.56-.85-2.16a.86.86 0 0 0-1.35-.39c-.51.35.14.69-.23 1.44s-.62 1.41-1.16.79c-1.4-1.6-3.43-.81-3.75-2.59-.17-1-1-.87-1.69-1.42s-1.09-.84-1.21-.44 2.19 2.16 2.35 2.62c.24.69-.68 1.3-1.37 1.47s-1-.38-1.64-1.08-1-1.19-1-.64a3.11 3.11 0 0 0 1.31 2.37c.58.37 1.23.54 1 1.13s0 .26-.65.9a1.75 1.75 0 0 0-.73 1.74c0 .9-.18 1-.32 1.69s-.46.1-.75 1.19m15.36-5.7c.48 0 1.2.62.92.88a1.3 1.3 0 0 1-1.37-.12c-.36-.28.23-.75.45-.76m-.61-.44c-.16-.06-.29-.21-.41-.56s.18-.55.47-.41a1.4 1.4 0 0 1 .67.82c0 .24-.57.21-.73.15m-6.32 0a1.3 1.3 0 0 1-1.37-.12c-.36-.28.23-.75.45-.76.48-.05 1.2.63.92.88m-5.84 2.84c-.2.33-.74 2.73-1.1 2.45s.15-2.79.25-3c.57-1 1.79-1 .85.53m1.94 9.33a14.06 14.06 0 0 1-4-.58.57.57 0 0 1-.17-.69 3.18 3.18 0 0 1 2.8-1.71c2.32-.23 5.37 1.5 5.86 1.23s1.46-1.56 2.9-1.51a2.33 2.33 0 0 1 1.31.33 14.23 14.23 0 0 1-8.68 2.93m10.1-4.16a3.15 3.15 0 0 1-.45-.17c-.78-.4-.69.24-1.08.1s.44-1-.72-.28-.83-.12-1.34-1.39a2.6 2.6 0 0 1 1.49-3.06 19.18 19.18 0 0 1 2.59-.69c1.85-.58 2.2-1.58 2.51-.99.06.12.11.23.17.33a2.4 2.4 0 0 1 .22.94 14.45 14.45 0 0 1-3.28 5m3.92-7.23c-.39-.1-2-2.33-.72-3.79.21-.24-.43-.95-.26-1a1.17 1.17 0 0 1 1.25 1v.83a14.75 14.75 0 0 1-.3 2.92"/></svg>