<svg id="TARGETS" xmlns="http://www.w3.org/2000/svg" viewBox="0 0 94.85 94.85" width="94.85" height="94.85"><defs><style>.cls-1{fill:#00689d}.cls-2{fill:#fff}</style></defs><title>Goal_16_RGB_NG</title><path class="cls-1" d="M0 0h94.85v94.85H0z"/><path class="cls-2" d="M5.13 84.17s26-15 27.26-16.24A9.72 9.72 0 0 1 41 65c4.38.73 7 1.09 9.25 1.37s3.64 0 3.76.77c.15 1-1 2-2.77 2.15s-4.94-.09-5.56-.06-1.13.2-.9.71 3.74.65 4.79.61a20.92 20.92 0 0 0 7.08-1.9c1.9-1 5.61-3.68 6.24-3.94s1.77-.83 2.25-.19-.43 1.53-1.1 2.18a64.83 64.83 0 0 1-10.15 7.7c-3.13 1.74-3.92 2-7.14 1.74S40.89 74.79 39.2 75a10.85 10.85 0 0 0-5.2 2.23c-.68.49-13.8 12.7-13.8 12.7H5.13zM53.29 16.31a3.13 3.13 0 0 0-3-3.39c-.91 0-2 1-2.61 1.61-.59-.62-1.62-1.61-2.53-1.61A3.17 3.17 0 0 0 42 16.31a3.44 3.44 0 0 0 1 2.4l4.67 4.67 4.65-4.67a3.45 3.45 0 0 0 1-2.4M56.93 32.56a4.22 4.22 0 1 0-4.22-4.22 4.21 4.21 0 0 0 4.22 4.22zM67.05 44.83c0-.18-1.27-3.17-1.63-4.11-2.55-6.55-3-6.5-5.27-6.57h-6.44c-2.3.07-2.73 0-5.27 6.57-.16.43-.57 1.41-1 2.38L45.42 37A3.79 3.79 0 0 0 43 34.79a12.63 12.63 0 0 0-2-.1h-5.2s-1.33 0-2 .07A3.32 3.32 0 0 0 31.3 37l-3.08 9.23s-.48 1.48.88 1.84A1.46 1.46 0 0 0 30.86 47l2.57-8s.11-.51.53-.4.27.66.27.66L34 40l-2.7 9.6-.1.4h2.29v6.89a2.11 2.11 0 0 0 2.12 2.12 2.13 2.13 0 0 0 2.11-2.12v-6.6a1.72 1.72 0 0 1 0-.25H39a1.72 1.72 0 0 1 0 .25v6.64a2.13 2.13 0 0 0 2.11 2.12 2.12 2.12 0 0 0 2.12-2.12V50h2.28l-.13-.48-2.7-9.52-.18-.66s-.16-.55.26-.66.53.4.53.4L45.86 47a1.87 1.87 0 0 0 1.6 1.11c1.15 0 1.64-1.6 1.64-1.6l2.59-6.38s.07-.15.15-.14.1.13.11.2v16.59a2.18 2.18 0 0 0 2.17 2.27 2.15 2.15 0 0 0 2.13-2.27v-6.64s-.08-1 .66-1 .65 1 .65 1v6.64a2.19 2.19 0 0 0 2.18 2.27 2.13 2.13 0 0 0 2.11-2.27V40.13c0-.15.05-.2.08-.21s.18.16.18.16l2.34 5.73s.68 1.52 2 .92.6-1.9.6-1.9zM38.94 32.72a4.29 4.29 0 1 0-4.29-4.3 4.3 4.3 0 0 0 4.29 4.3z"/></svg>