<svg id="TARGETS" xmlns="http://www.w3.org/2000/svg" viewBox="0 0 94.8 94.88" width="94.8" height="94.8"><style>.st0{fill:#00689d}.st1{fill:#fff}</style><title>Goal_16_RGB_NG</title><path class="st0" d="M0 0h94.8v94.8H0z"/><path class="st1" d="M47.3 25.7c3.2 0 5.9-2.6 5.9-5.9 0-3.2-2.6-5.9-5.9-5.9-3.2 0-5.9 2.6-5.9 5.9 0 3.3 2.6 5.9 5.9 5.9zM54.1 28H40.5c-3.6.3-6.5 3.1-7 6.6h27.7c-.6-3.6-3.5-6.3-7.1-6.6zM47.3 50.2c-4.4 0-8 3.6-8 8s3.6 8 8 8 8-3.6 8-8-3.6-8-8-8zm-5 2.6c.1 0 .2.1.2.1 0 .1 0 .4-.1.5-.2.2-.6.4-.8.4h-.1c.2-.4.5-.7.8-1zm-1.1 1.4c.1-.1.3-.1.5-.1s.4.1.5.2c0 .1-.5.3-.6.4-.3.2-.7.7-.9.8h-.1c.1-.5.3-.9.6-1.3zm6.1 11.2c-.7 0-1.5-.1-2.1-.3V65c.2-.6.9-.8 1.5-.9 1.2-.1 2.8.8 3 .6.3-.1.8-.8 1.5-.8h.4c-1.3 1-2.7 1.5-4.3 1.5zm-1.4-4.9c.3-.5.9-.5.4.3-.1.2-.4 1.4-.6 1.3-.1-.2.1-1.5.2-1.6zm3-1.6c.3 0 .6.3.5.5-.1.1-.5.1-.7-.1-.2-.2.1-.4.2-.4zm3.4 4.5c-.3-.1-.3.1-.5.1-.2-.1.2-.5-.4-.1-.6.4-.4-.1-.7-.7-.3-.7.3-1.4.8-1.6.6-.2 1-.3 1.3-.4.9-.2 1.1-.7 1.2-.4 0 .1.1.1.1.2-.3 1.1-1 2.1-1.8 2.9zm.3-4c-.1 0-.1-.1-.2-.3-.1-.2.1-.3.2-.2.2.1.4.3.4.4 0 .1-.3.1-.4.1zm.8.7c-.1.1-.5.1-.7-.1-.2-.1.1-.4.2-.4.3 0 .7.3.5.5zm1.1-1.9c0 .5 0 .9-.1 1.4-.3-.4-.6-1.2-.1-1.8.1-.1-.2-.5-.1-.5.2 0 .3 0 .4.1-.1.2-.1.5-.1.8zm-.8-1.3c-.1-.1-.4-.4-.4.1s.5.6 0 .9c-.5.3-.6.2-.8.3-.2.1-.4.6-.4.9.1.3.7 1.1.2 1-.1 0-1-.6-1.2-1-.1-.4-.3-.8-.4-1.1-.1-.3-.4-.4-.7-.2-.3.2.1.4-.1.8s-.3.7-.6.4c-.7-.8-1.8-.4-1.9-1.4-.1-.5-.5-.5-.9-.7-.4-.3-.6-.4-.6-.2-.1.2 1.1 1.1 1.2 1.4.1.4-.4.7-.7.8-.4.1-.5-.2-.9-.6-.3-.3-.5-.6-.5-.4v.1c0 .4.3 1 .7 1.2.3.2.6.3.5.6-.1.3 0 .1-.3.5-.3.3-.4.4-.4.9s-.1.5-.2.9-.2.1-.4.6c-.1.6-.3.8-.5 1-.1.2-.7.4-1 .4-.1 0-.1 0-.2-.1-.2-.2-.2-.9-.2-1.3 0-.2-.2.3-.3-.7-.1-.6-.5.1-.5-.4 0-.4-.2-.3-.4-.6s-.5 0-.8.2c-.2.1-.2.2-.4.1-.4-.9-.7-1.9-.7-3 0-.3 0-.6.1-.9.2-.3.2-.4.3-.4.1 0 .3-.1.3-.1l.2-.1s.7.1 1.2.3c.4.1.9.4 1.3.4h.2c.3-.1.5-.3.5-.5 0-.3-.3-.4-.6-.2-.1.1-.3-.5-.5-.4-.2 0 .2.6.1.6s-.4-.6-.5-.7c0-.1-.3-.4-.5-.2-.4.4-1.1.4-1.3.5-.1 0-.1.1-.2.1-.2.1-.3-.1-.4-.2 0-.2.1-.3.1-.5.2-.1.6-.1.7 0 .2.1.3 0 .4-.1.1-.1 0-.2 0-.3 0-.1.1-.2.2-.2s.4-.3.6-.3c.1-.1.8-.2 1.1 0 .3.2.6 0 .7-.1l.5-.5c.1 0-.3-.4-.6 0s-.5.4-.6.4c-.1 0-1-.2-1.1-.5-.1-.3.3-.5.6-.6.3-.1 1.2-.1 1.4-.2.5-.1 1-.3 1.3-.1.3.2-1.2.5-.7.8.2.1 1-.5 1.2-.6.6-.3-.6-.4-.5-1.1.2-.7-1.3-.5-2.2-.4 1.1-.7 2.4-1 3.7-1 3.6 0 6.6 2.7 7.2 6.1.2-.1-.2-.1-.4-.4z"/><path class="st1" d="M62 37.4H27.9v3.5h2.8v40.3h33.5V40.9H67v-3.5h-5zm-1.1 21.8c0 .3-.3.6-.6.6-.4 0-.7.1-1.1.1-.4 0-.7.2-.8.6-.1.5-.5 1.5-.6 1.9-.1.4 0 .6.4.9.3.2.5.4.8.6.3.3.4.6.2.9-.4.8-.9 1.5-1.5 2.1-.2.3-.6.3-.9.1l-.9-.6c-.3-.2-.7-.2-1 .1-.4.3-1.3 1-1.6 1.2-.3.2-.3.6-.2.9.1.3.2.6.3 1 .1.4 0 .7-.4.9-.8.4-1.6.7-2.4.8-.3.1-.6-.1-.8-.4-.2-.4-.3-.6-.4-1-.1-.3-.4-.6-.9-.5h-2c-.4 0-.6.2-.7.6l-.3.9c-.1.4-.4.5-.8.5-.9-.1-1.7-.4-2.5-.8-.3-.1-.5-.5-.4-.8.1-.4.2-.7.3-1.1.1-.4 0-.7-.4-.9-.4-.3-1.4-1-1.7-1.2-.3-.3-.6-.2-1 .1-.3.2-.5.4-.8.6-.3.2-.6.2-.9-.1-.6-.6-1.1-1.3-1.6-2.1-.2-.3-.1-.6.2-.9.3-.3.5-.5.8-.7.3-.2.4-.6.3-1-.2-.4-.5-1.2-.6-1.9-.1-.4-.4-.5-.8-.5h-1c-.4 0-.6-.2-.7-.6-.1-.9-.1-1.7 0-2.6 0-.3.3-.6.6-.6.4 0 .7-.1 1.1-.1.4 0 .7-.2.8-.6.1-.4.5-1.5.6-1.9.1-.4 0-.6-.4-.9-.3-.2-.5-.4-.8-.6-.3-.3-.4-.6-.2-.9.4-.8.9-1.5 1.5-2.1.2-.3.6-.3.9-.1l.9.6c.3.2.7.2 1-.1.5-.4 1.4-1 1.6-1.2.3-.2.3-.6.2-.9-.1-.3-.2-.6-.3-1-.1-.4 0-.7.4-.9.8-.4 1.6-.7 2.4-.8.3-.1.6.1.8.4.2.4.3.6.4 1 .1.3.4.6.9.5h2c.4 0 .6-.2.7-.6l.3-.9c.1-.4.4-.5.8-.5.9.1 1.7.4 2.5.8.3.1.5.5.4.8-.1.4-.2.7-.3 1.1-.1.4 0 .7.4.9.4.3 1.1.7 1.7 1.2.3.3.6.2 1-.1.3-.2.5-.4.8-.6.3-.2.6-.2.9.1.6.6 1.1 1.3 1.6 2.1.2.3.1.6-.2.9-.3.3-.5.5-.8.7-.3.2-.4.6-.2 1 .3.7.5 1.2.6 1.9.1.4.4.5.8.5h1c.4 0 .6.2.7.6 0 .9 0 1.8-.1 2.6z"/></svg>