<svg id="TARGETS" xmlns="http://www.w3.org/2000/svg" viewBox="0 0 94.85 94.85" width="94.85" height="94.85"><defs><style>.cls-1{fill:#56c02b}.cls-2{fill:#fff}</style></defs><title>Goal_15_RGB_NG</title><path class="cls-1" d="M0 0h94.85v94.85H0z"/><path class="cls-2" d="M28.73 31.31a1.48 1.48 0 0 0 1.62 1.28h4.08c.63.34 1.26.68 1.89 1 1.11.54 2.22 1.08 3.34 1.55s2.2.92 3.32 1.34l-1.45 28.59v.06c0 .06 0 0 0 0a.35.35 0 0 0 .3.31h8a.36.36 0 0 0 .29-.25.29.29 0 0 0 0-.09.4.4 0 0 0 0-.15l-1.43-28.1C50 36 51.14 35 52.83 34c1-.63 2.67-1.71 4.21-2.76l6.65-.06c1.2 0 2.17-.68 2.17-1.5s-1-1.49-2.17-1.49h-4.3a1.59 1.59 0 0 0-.93-1.06c-1.68-.86-5-.71-6 .11a2 2 0 0 0-.66 1h-1c-1.19 0-2.16.67-2.16 1.49s1 1.49 2.16 1.49h3.32c-.91.43-1.8.87-2.58 1.27-1.64.84-3.2 1.6-4.75 2.52l-.51-.16 2.24-9.21h3.54a2.17 2.17 0 0 0 0-4.34H50.2a1.7 1.7 0 0 0-1-2.11c-1.9-1-5.65-.81-6.71.12a2.85 2.85 0 0 0-.54.66c-1.69-.29-3.75-.05-4.46.57a2 2 0 0 0-.62.9h-2a2.17 2.17 0 0 0 0 4.33l5.49-.06 5.59 4.06-2 4.3c-1.21-.37-2.42-.71-3.64-1-.87-.23-1.76-.43-2.64-.62h2.32a1.49 1.49 0 0 0 1.63-1.29A1.49 1.49 0 0 0 40 29.91a1.5 1.5 0 0 0-.82-1.3c-1.4-.83-4.14-.75-4.9 0a1.8 1.8 0 0 0-.36.5 3.59 3.59 0 0 0-2.57.25A1 1 0 0 0 31 30h-.62a1.49 1.49 0 0 0-1.65 1.31zm19.08-5.6l-1 2.22-4.34-2.16zM11.08 59.78c-.08 1.12-.26 4.39.4 5.64h1.12c-.43-.82-.52-3.94-.41-5.63 2.2-.06 3.93-.55 3.93-1.16s-1.93-1.17-4.32-1.17-4.33.54-4.33 1.17 1.53 1.06 3.61 1.15zM20.07 61.41c0-.54-1.05-1-2.35-1s-2.35.44-2.35 1 .86.9 2 1a7.73 7.73 0 0 0 .29 3h.71a9.27 9.27 0 0 1-.28-3c1.11-.1 1.98-.5 1.98-1zM29.42 65.4l-1.29-7.58-.1 7.6 1.39-.02zM33.74 65.4l1.29-7.58.1 7.6-1.39-.02zM24.72 65.42l1.67-.03-1.55-9.11-.12 9.14zM27.7 55.15c.26.45 1.4.29 2.55-.36A6.08 6.08 0 0 0 31.3 54v.2c.06 1.07.06 1.07 0 3.42v7.78h.55v-7.82-3.14a5 5 0 0 0 .54.46c1.06.8 2.17 1.1 2.48.68s-.29-1.4-1.35-2.19l-.41-.28.34-.18c1.15-.65 1.87-1.55 1.61-2s-1.4-.3-2.55.36a.77.77 0 0 0 0-.15c.08-1.32-.27-2.42-.79-2.45s-1 1-1.1 2.33v.31a2.43 2.43 0 0 0-.25-.2c-1.06-.79-2.17-1.1-2.48-.68s.29 1.4 1.35 2.19c.14.11.28.2.42.29l-.34.17c-1.15.69-1.88 1.59-1.62 2.05zm3.3-2.48a.49.49 0 0 1 .53-.47.53.53 0 0 1 .47.54.49.49 0 0 1-.53.46.5.5 0 0 1-.47-.53z"/><path class="cls-2" d="M87.43 58.13l-5.16.92-.39-.52a8.36 8.36 0 0 0 2-1.93s-2.43.57-3.15-.1l-1.63-2.41a2 2 0 0 0 .11-1.93c-.15-.25-.59-.53-.68-.19a.83.83 0 0 0 0 .15 1.19 1.19 0 0 1-.77.69 1.47 1.47 0 0 0-.33-.75c-.19-.24-.67-.44-.7-.09v.15a.83.83 0 0 1-.17.4l-2-.92a6.41 6.41 0 0 0-3.26-1.25 3.31 3.31 0 0 0-.9 0 34.43 34.43 0 0 1-3.67.48l-5.93.2s-5 .12-5.09 2.71L55.35 62c1 .72.54-1.05.43-1.64a8.43 8.43 0 0 1 .58-2.44l1.34 7.51h3.35a1.84 1.84 0 0 0-1.26-1.8l.49-2.42 1.39-.86a7.59 7.59 0 0 0 5.73.24l1.17 4.84h4c-.15-1.5-2.28-1.84-2.28-1.84l1-4 .84-.23.62-.14a.52.52 0 0 0 .15-.06 8.62 8.62 0 0 0 1.67-1 14.51 14.51 0 0 0 2.58 2.65l2.71 1.23a.93.93 0 0 0 1-.05l.45-.27a2.8 2.8 0 0 0 .9-.21 1.49 1.49 0 0 0 .54-.65c1.53-.09 4.68-2.73 4.68-2.73zM17.84 40.43a4.59 4.59 0 0 0 1.33 2c1 1 2 1.53 2.35 1.22s0-.84-.56-1.53c.83.21 1.48.19 1.6-.1s-.76-1.15-2-1.68a4.33 4.33 0 0 0-2.38-.43c0-.13.06-.25.08-.38a2.06 2.06 0 0 0 0-.56 2.69 2.69 0 0 0-.11-.64l-.17-.1a2.51 2.51 0 0 0-.62.19 2.86 2.86 0 0 0-.49.28c-.11.08-.21.17-.3.25A4.36 4.36 0 0 0 15.05 37c-1.07-.9-2.16-1.37-2.43-1s.08.82.65 1.46c-.87-.15-1.53-.09-1.62.21s.84 1.09 2.17 1.52a4.59 4.59 0 0 0 2.36.28z"/><path class="cls-2" d="M17.43 41l-1.5-1c-.06.22-.15.42-.23.63l1.27.77a5.33 5.33 0 0 1 .46-.4zM16.53 41.93l-1.06-.64-.22.63.82.5.46-.49zM15.6 42.9l-.6-.34c-.08.27-.16.54-.23.82l.17.1z"/><g><path class="cls-2" d="M15.57 10a4.49 4.49 0 1 0 4.5 4.47 4.5 4.5 0 0 0-4.5-4.47zM8.12 14.86h2a.39.39 0 0 0 .34-.38.37.37 0 0 0-.35-.36h-2a.38.38 0 0 0-.35.37.37.37 0 0 0 .36.37zM20.74 14.45a.38.38 0 0 0 .35.37h2a.37.37 0 0 0 .35-.37.38.38 0 0 0-.35-.37h-2a.38.38 0 0 0-.35.37zM15.57 9.31a.37.37 0 0 0 .36-.31V7a.38.38 0 0 0-.37-.35.39.39 0 0 0-.37.35v2a.37.37 0 0 0 .38.31z"/><path class="cls-2" d="M15.6 19.62a.39.39 0 0 0-.37.35v2a.37.37 0 0 0 .74 0V20a.38.38 0 0 0-.37-.38zM8.91 11.1l1.71 1a.37.37 0 0 0 .48-.15.37.37 0 0 0-.12-.49l-1.71-1a.37.37 0 0 0-.48.15.38.38 0 0 0 .12.49zM20.19 17.51l1.71 1a.38.38 0 0 0 .48-.15.39.39 0 0 0-.12-.5l-1.71-1a.37.37 0 0 0-.36.65zM18.62 9.87l1-1.71a.37.37 0 0 0-.62-.37L18 9.5a.38.38 0 0 0 .15.49.38.38 0 0 0 .47-.12zM12.54 19.07l-1 1.71a.38.38 0 0 0 .16.48.37.37 0 0 0 .49-.12l1-1.71A.38.38 0 0 0 13 19a.39.39 0 0 0-.46.07zM12.51 9.89A.37.37 0 0 0 13 10a.38.38 0 0 0 .15-.49l-1-1.7a.38.38 0 0 0-.49-.11.37.37 0 0 0-.15.48zM18.17 18.93a.37.37 0 0 0-.15.48l1 1.7a.37.37 0 0 0 .49.12.38.38 0 0 0 .15-.49l-1-1.7a.38.38 0 0 0-.49-.11zM20.53 12l1.7-1a.37.37 0 0 0 .11-.49.36.36 0 0 0-.48-.14l-1.7 1a.37.37 0 0 0-.12.49.38.38 0 0 0 .49.14zM10.64 16.91l-1.7 1a.38.38 0 0 0-.12.5.39.39 0 0 0 .49.14l1.7-1a.38.38 0 0 0 .11-.5.37.37 0 0 0-.48-.14z"/></g><path class="cls-2" d="M87.3 80.71h-.1l-.25.12c-2.53 1.27-10.4 4.29-17.54-2.46a.75.75 0 0 0-.41-.24c-.13 0-.26.12-.39.22-2.12 1.65-11.9 8.25-20.61.14l-.13-.13a.48.48 0 0 0-.35-.14.46.46 0 0 0-.34.14l-.14.13c-8.67 8.11-18.45 1.51-20.57-.12-.12-.09-.18-.2-.4-.19a.66.66 0 0 0-.41.21c-7.14 6.75-15 3.73-17.54 2.46l-.25-.12h-.09a.48.48 0 0 0-.49.49v3.41a.52.52 0 0 0 .14.34c8.25 7.17 16.06.46 17.86-1.32a1.08 1.08 0 0 1 .18-.16.41.41 0 0 1 .22-.07.53.53 0 0 1 .35.15c9.31 8.89 19.08 1.69 21.11 0l.2-.19a.31.31 0 0 1 .19-.08c.11 0 .13 0 .19.08l.21.19c2 1.68 11.79 8.88 21.1 0a.45.45 0 0 1 .33-.14.51.51 0 0 1 .27.09.44.44 0 0 1 .13.14c1.81 1.77 9.6 8.49 17.86 1.32a.52.52 0 0 0 .14-.34V81.2a.48.48 0 0 0-.49-.49"/><rect class="cls-2" x="7.2" y="69.29" width="80.69" height="4.74" rx=".57" ry=".57"/><path class="cls-2" d="M79 21.49a7.71 7.71 0 0 0-4.37-2 5.44 5.44 0 0 0-4.24 1.4c-.26.23-.69.8-.31 1.11.23.13.58 0 .93-.17a3.84 3.84 0 0 1 2.09-.23 7.9 7.9 0 0 1 5.2 2.65.72.72 0 0 0 .44.22c.23.05.5-.19.5-.19a7.93 7.93 0 0 1 5.54-1.85 4.29 4.29 0 0 1 2.06.59.88.88 0 0 0 .89.22c.36-.17.15-.74-.05-1a5.8 5.8 0 0 0-4.1-2.14A7.72 7.72 0 0 0 79 21.49zM65.54 9.9a6.21 6.21 0 0 0-3.86-.26 4.34 4.34 0 0 0-2.76 2.27c-.12.24-.28.8.09.92.21 0 .43-.18.65-.4a3.08 3.08 0 0 1 1.49-.78 6.36 6.36 0 0 1 4.64.48.58.58 0 0 0 .39 0c.19 0 .32-.29.32-.29a6.38 6.38 0 0 1 3.6-3 3.34 3.34 0 0 1 1.71-.15.72.72 0 0 0 .73-.1c.22-.23-.1-.59-.32-.71a4.6 4.6 0 0 0-3.68-.42 6.09 6.09 0 0 0-3 2.44z"/></svg>