<svg id="TARGETS" xmlns="http://www.w3.org/2000/svg" viewBox="0 0 94.85 94.85" width="94.85" height="94.85"><defs><style>.cls-1{fill:#c5192d}.cls-2{fill:#fff}</style></defs><title>Goal_4_RGB_NG</title><path class="cls-1" d="M0 0h94.85v94.85H0z"/><path class="cls-2" d="M43.31 20.2l-14.88-8.59v27.78l14.88 4.49V20.2zM44.94 20.25v23.64l14.97-4.5V11.61l-14.97 8.64zM71.59 10.91a1.76 1.76 0 0 0-3.52 0v1.89h3.52zM68.51 38.9h-.44l1.76 6.15 1.76-6.15h-.44.44V14.18h-3.52V38.9h.44z"/><path class="cls-2" d="M63.11 12.8l-1.6-1.26v28.61l-16.52 5.34H43.31l-16.46-4.6V11.54l-1.59 1.26v29.21l17.97 4.97h1.83l16.58-5.26 1.47-.43V12.8z"/><g><path class="cls-2" d="M84.82 71.09s-.4-1.49-1.7-1.47h-4.66a1.15 1.15 0 0 1-.87-.41c-.44-.44-1.75-2.78-1.84-2.85l-.64-1.08a1.08 1.08 0 0 0-.87-.52 1 1 0 0 0-1 1 1.92 1.92 0 0 0 .1.45l3.48 6.27a1.81 1.81 0 0 1 .18.68v.7a2.16 2.16 0 0 1-.09.62l-1.44 5.22H77v4.54a1.39 1.39 0 1 0 2.78 0v-4.37a.78.78 0 0 1 0-.17h.84a.78.78 0 0 1 0 .17v4.31a1.43 1.43 0 0 0 .94 1.38 1.4 1.4 0 0 0 1.85-1.32V79.7h1.51l-2-7.07s-.1-.36.18-.43.35.27.35.27l1.69 5.2a1 1 0 0 0 1.16.7c.89-.24.58-1.21.58-1.21z"/><path class="cls-2" d="M80.55 68.31a2.83 2.83 0 1 0-2.82-2.83 2.83 2.83 0 0 0 2.82 2.83zM14.88 68.19a2.78 2.78 0 1 0-2.78-2.78 2.77 2.77 0 0 0 2.78 2.78zM21.54 76.27c0-.12-.84-2.09-1.08-2.71-1.67-4.31-1.95-4.28-3.46-4.32h-4.24c-1.52 0-1.8 0-3.47 4.32-.24.62-1.24 3-1.25 3.14s-.42 1 .51 1.34 1.17-.7 1.17-.7l1.71-4.2s0-.09.1-.09.06.09.07.13v11a1.44 1.44 0 0 0 1.4 1.45 1.42 1.42 0 0 0 1.4-1.49v-4.37s0-.68.43-.67.43.67.43.67v4.37a1.44 1.44 0 0 0 1.43 1.49 1.41 1.41 0 0 0 1.39-1.49v-11c0-.1 0-.12.05-.13s.12.1.12.1l1.54 3.77s.45 1 1.3.61.45-1.22.45-1.22zM52.82 75.51a1.34 1.34 0 0 0-1.41-.65h-2.73v-4.34a1.81 1.81 0 0 0-1.81-1.8h-.75a1.84 1.84 0 0 0-.41 0 1.52 1.52 0 0 0-.28.09L41.78 70h-.16a1 1 0 0 0-.43.51L40 73.8a1 1 0 1 0 1.86.66l1-2.69 1.47-.47v5.13a1.74 1.74 0 0 0 .19.79 1.65 1.65 0 0 0 1.52 1h5.16l2.26 3.92a1.35 1.35 0 0 0 1.84.5h.07a1.35 1.35 0 0 0 .49-1.84z"/><path class="cls-2" d="M50.73 80.27h-1.54a4.58 4.58 0 1 1-8.53-3.11l-.12-.08-.12-.08-1-.65-.13-.07-.12-.08A6.37 6.37 0 1 0 51 80.27h-.29zM46.7 67.81a2.64 2.64 0 1 0-2.63-2.64 2.64 2.64 0 0 0 2.63 2.64z"/><g><path class="cls-2" d="M33 63.4h-5.52a3.17 3.17 0 0 0-2.88 3.16v6.57a.92.92 0 0 0 1.84 0v-5.65c0-.21 0-.5.44-.5s.33.29.34.47v16.93a1.32 1.32 0 0 0 2.64 0v-9.75a.37.37 0 0 1 .38-.39.36.36 0 0 1 .37.39v9.75a1.33 1.33 0 0 0 2.65 0V67.45c0-.18.06-.47.33-.47s.44.29.44.5v5.65a.93.93 0 0 0 1.85 0v-6.57A3.17 3.17 0 0 0 33 63.4zM27.81 57.16c0-.37-.44-.82-1.27-.43-1 .49-.9 2-.9 2s0 .22.05.17c.1-.23.34-.61 1.16-.72a1.36 1.36 0 0 0 .43-.14 3.66 3.66 0 0 1 .51-.71.78.78 0 0 0 .02-.17zM33.86 56.73c-.83-.39-1.21.06-1.26.43a1.12 1.12 0 0 0 0 .2 3 3 0 0 1 .46.65 1.29 1.29 0 0 0 .47.16c.83.11 1.07.49 1.16.72l.06-.17c.06-.17.13-1.5-.89-1.99z"/><path class="cls-2" d="M30.19 56.79A2.82 2.82 0 1 0 33 59.61a2.82 2.82 0 0 0-2.81-2.82z"/></g><g><path class="cls-2" d="M66.56 62.48h-5.87a3.28 3.28 0 0 0-2.93 3.26v6.83a1 1 0 1 0 1.91 0v-5.86c0-.22.07-.52.47-.52s.34.29.34.48v17.59a1.38 1.38 0 0 0 2.75 0V74.12a.38.38 0 0 1 .4-.4.37.37 0 0 1 .39.4v10.14a1.37 1.37 0 1 0 2.74 0V66.67c0-.19.07-.48.35-.48s.47.3.47.52v5.86a1 1 0 1 0 1.91 0v-6.83a3.29 3.29 0 0 0-2.93-3.26zM65.5 58.35c-.24-.19-.43-.37-.83-.19s-.35.2-.66.35a6.86 6.86 0 0 1-1.76.53 6.74 6.74 0 0 1-1.39.1 2.79 2.79 0 0 0 5.55.06 10.71 10.71 0 0 0-.91-.85z"/><path class="cls-2" d="M62.05 58.41a6.46 6.46 0 0 0 1.67-.49c.46-.21.88-.36.88-.36a1 1 0 0 1 .58-.09 1.36 1.36 0 0 1 .25.16l.22.19s.11.1.75.59c.08.06.15.13.2.11s.08-.49.05-.73a3.74 3.74 0 0 0-.9-1.95c-.06 0-.33-.28-.54-.24s-.67-.24-.81-.34a2.55 2.55 0 0 0-2.18.35 5.45 5.45 0 0 0-1.89 2.54c-.09.23.33.33.54.33a4.71 4.71 0 0 0 1.18-.07z"/></g></g></svg>