<svg id="TARGETS" xmlns="http://www.w3.org/2000/svg" viewBox="0 0 94.85 94.85" width="94.85" height="94.85"><defs><style>.cls-1{fill:#0a97d9}.cls-2{fill:#fff}</style></defs><title>Goal_14_RGB_NG</title><path class="cls-1" d="M0 0h94.85v94.85H0z"/><path class="cls-2" d="M64.13 21.54a1.63 1.63 0 0 0-1.63 1.63v10.56a1.64 1.64 0 1 0 3.27 0V23.17a1.64 1.64 0 0 0-1.64-1.63zM85.22 21.54a1.63 1.63 0 0 0-1.63 1.63v10.56a1.64 1.64 0 1 0 3.27 0V23.17a1.64 1.64 0 0 0-1.64-1.63zM82.08 22.79H67.41a.41.41 0 0 0-.37.44v10.35a.42.42 0 0 0 .37.45H73l-.63 40.87a.42.42 0 0 0 .45.38h3.94a.4.4 0 0 0 .44-.37L76.32 34h5.76a.42.42 0 0 0 .37-.45V23.23a.41.41 0 0 0-.37-.44z"/><g><path class="cls-2" d="M13.84 23.68h-2.85v54.81h39.28v-3.3H13.84V23.68z"/><path class="cls-2" d="M16.87 20.37v51.47h39.28V17H16.87zM38.4 54.23c-.4.54-3 3.84-6.62 3.84-3.15 0-6.53-2.86-6.53-2.86a5.33 5.33 0 0 1-3.87 2.84h-.05a.1.1 0 0 1-.08-.16 8 8 0 0 0 1.19-3.72 7.87 7.87 0 0 0-1.19-3.71.37.37 0 0 1 0-.1s.05-.09.1-.1h.06a5.33 5.33 0 0 1 3.86 2.84s3.38-2.86 6.53-2.86c3.63 0 6.22 3.3 6.62 3.84zM51.18 62a.07.07 0 0 1-.07.08A4 4 0 0 1 48.22 60s-2.5 2.12-4.84 2.12c-2.69 0-4.62-2.45-4.91-2.85a.05.05 0 0 1 0-.06c.29-.4 2.22-2.85 4.91-2.85 2.34 0 4.84 2.12 4.84 2.12a4 4 0 0 1 2.87-2.11.07.07 0 0 1 .07.08v.07a5.84 5.84 0 0 0-.88 2.75 6 6 0 0 0 .9 2.73zM39.66 51.66a1 1 0 1 1 1 1 1 1 0 0 1-1-1zm3.9-1.75a.77.77 0 1 1 1.54 0 .77.77 0 1 1-1.54 0zm-22.32-16v-3.2a.3.3 0 0 1 .3-.27.47.47 0 0 1 .16 0l.16.12c2.09 1.48 8.53 5.19 14.3-.2l.1-.08a.36.36 0 0 1 .24-.11.41.41 0 0 1 .26.11l.09.08c5.87 5.48 12.41 1.56 14.39.14l.13-.09a.2.2 0 0 1 .11 0 .3.3 0 0 1 .3.31V34a.3.3 0 0 1-.08.21l-.19.17c-6.54 5.86-13.3.88-14.72-.31l-.14-.13a.39.39 0 0 0-.15 0 .3.3 0 0 0-.13 0l-.14.13c-1.44 1.2-8.3 6.25-14.9.15a.3.3 0 0 1-.08-.18l-.01-.12zm0 7.35v-3.2a.3.3 0 0 1 .3-.27.32.32 0 0 1 .16 0l.16.12c2.09 1.48 8.53 5.19 14.3-.2l.1-.09a.4.4 0 0 1 .24-.1.46.46 0 0 1 .26.1l.09.09c5.87 5.48 12.41 1.56 14.39.13l.13-.09h.11a.3.3 0 0 1 .3.31v3.22a.32.32 0 0 1-.08.21l-.19.17c-6.54 5.85-13.3.88-14.72-.31l-.14-.13a.4.4 0 0 0-.15 0 .31.31 0 0 0-.13 0l-.14.13c-1.44 1.2-8.3 6.25-14.9.15a.27.27 0 0 1-.08-.17s-.01-.04-.01-.06z"/><path class="cls-2" d="M33.8 52.45a1.06 1.06 0 1 0 1.06 1.06 1.05 1.05 0 0 0-1.06-1.06zM41.88 58a.79.79 0 1 0 .79.78.79.79 0 0 0-.79-.78z"/></g></svg>