<svg id="TARGETS" xmlns="http://www.w3.org/2000/svg" viewBox="0 0 94.85 94.85" width="94.85" height="94.85"><defs><style>.cls-1{fill:#c5192d}.cls-2{fill:#fff}</style></defs><title>Goal_4_RGB_NG</title><path class="cls-1" d="M0 0h94.85v94.85H0z"/><path class="cls-2" d="M82.51 26.3v6.11A.55.55 0 0 1 82 33h-4.37a.54.54 0 0 1-.55-.55V26.3A6.82 6.82 0 0 0 75 37.39a6.68 6.68 0 0 0 2.18 1.46v20.86a2.9 2.9 0 1 0 5.79 0V38.62a6.91 6.91 0 0 0 1.68-1.23 6.83 6.83 0 0 0 0-9.66 7 7 0 0 0-2.14-1.43zM61.24 56.42l2.36 6.19 2.37-6.18h-4.73M65.94 55.55V28.07c0-1-1.06-1.77-2.36-1.77s-2.37.8-2.37 1.77v27.49z"/><g><path class="cls-2" d="M53.95 61.94V27.55l-1.78-1.41-.14-.11v34.53l-19.97 6.45H30.03l-19.88-5.55V26.03l-1.92 1.52v35.26l21.71 6.01h2.21l20.03-6.36 1.77-.52z"/><path class="cls-2" d="M49.84 59.45V26.11l-18 7.14v31.6h.15zM35.93 46.39V46a.21.21 0 0 0 0-.18 1.6 1.6 0 0 1-.94-.54.3.3 0 0 0-.14.05l-.35.21c-.16.1-.25.08-.33-.06a3 3 0 0 1-.29-.74.34.34 0 0 1 .15-.36l.35-.26a.49.49 0 0 0 .15-.17 2.86 2.86 0 0 1 .17-1 .28.28 0 0 0-.09-.1l-.27-.18c-.13-.09-.15-.19 0-.37a5.28 5.28 0 0 1 .5-.82c.11-.13.22-.17.34-.11l.31.15a.25.25 0 0 0 .17 0 3.35 3.35 0 0 1 .8-.55.44.44 0 0 0 0-.15c0-.14 0-.27.05-.4a.35.35 0 0 1 .27-.34 3.36 3.36 0 0 1 .81-.14c.14 0 .21.07.21.23v.41a.27.27 0 0 0 0 .18 1.65 1.65 0 0 1 .89.54.32.32 0 0 0 .15-.06l.34-.21c.17-.1.26-.08.34.06a3 3 0 0 1 .29.74.34.34 0 0 1-.15.36l-.35.26a.46.46 0 0 0-.14.17 2.86 2.86 0 0 1-.17 1 .2.2 0 0 0 .08.1l.28.19c.13.08.14.18 0 .37a5.19 5.19 0 0 1-.5.81q-.15.21-.33.12l-.32-.14a.23.23 0 0 0-.18 0 3.14 3.14 0 0 1-.76.53.42.42 0 0 0 0 .16c0 .13 0 .26-.05.39a.35.35 0 0 1-.27.34 2.89 2.89 0 0 1-.81.15c-.14-.02-.21-.09-.21-.25zm5.7-9.39a.39.39 0 0 0 0-.18l-.18-.41c-.09-.19 0-.33.13-.51a6.42 6.42 0 0 1 .93-.74c.18-.11.31-.1.4 0l.24.39a.3.3 0 0 0 .17.13 3.05 3.05 0 0 1 1.1-.23.57.57 0 0 0 .12-.17l.26-.48c.12-.23.24-.3.44-.26a3.1 3.1 0 0 1 .9.31c.15.08.18.22.1.42l-.22.52a.54.54 0 0 0 0 .27 2.46 2.46 0 0 1 .64 1.24.31.31 0 0 0 .17 0l.46-.06c.22 0 .3.05.31.28a4.86 4.86 0 0 1-.08 1.13.41.41 0 0 1-.33.37l-.48.12a.62.62 0 0 0-.24.13 4.7 4.7 0 0 1-.69 1.24.39.39 0 0 0 0 .18c.06.14.13.27.19.41s0 .33-.14.51a5.85 5.85 0 0 1-.92.74c-.18.12-.31.1-.4 0l-.29-.35a.27.27 0 0 0-.17-.13 3 3 0 0 1-1 .22.76.76 0 0 0-.13.17c-.08.17-.16.33-.25.49s-.24.3-.44.27a3.4 3.4 0 0 1-.9-.3c-.15-.08-.19-.22-.11-.42l.22-.52a.54.54 0 0 0 0-.27 2.41 2.41 0 0 1-.68-1.28.31.31 0 0 0-.17 0l-.46.06c-.22 0-.3-.05-.31-.29a5.38 5.38 0 0 1 .08-1.12.44.44 0 0 1 .34-.38l.48-.12a.5.5 0 0 0 .24-.12 4.64 4.64 0 0 1 .68-1.26zm3.45 15.49l-.42-.24a.43.43 0 0 0-.53.09c-.16.14-.33.27-.5.4a.62.62 0 0 0-.25.52v.6a.46.46 0 0 1-.32.46l-1.15.4c-.23.08-.35 0-.38-.23s0-.38-.08-.56a.31.31 0 0 0-.3-.32h-.57a.49.49 0 0 0-.47.25l-.37.5c-.17.24-.31.29-.52.2a3.44 3.44 0 0 1-.88-.58.37.37 0 0 1 0-.51l.33-.55a.51.51 0 0 0 0-.55l-.25-.46a.32.32 0 0 0-.44-.17l-.55.16c-.21.06-.33 0-.34-.25L37 50.4a.44.44 0 0 1 .29-.46l.59-.24a.55.55 0 0 0 .33-.38c.07-.23.14-.46.2-.7a.38.38 0 0 0-.12-.46l-.41-.32a.32.32 0 0 1 0-.44 6.78 6.78 0 0 1 .81-1.24c.15-.18.3-.22.46-.14l.42.24a.44.44 0 0 0 .54-.09l.49-.4a.64.64 0 0 0 .26-.53v-.59a.45.45 0 0 1 .31-.45l1.16-.41c.23-.08.35 0 .38.23s0 .39.08.58a.3.3 0 0 0 .27.3l.6.05a.54.54 0 0 0 .47-.25l.38-.54c.15-.2.3-.26.48-.18a3.27 3.27 0 0 1 .91.6c.14.12.14.29 0 .5s-.23.38-.35.57a.52.52 0 0 0 0 .52l.27.49a.32.32 0 0 0 .42.16l.57-.17a.24.24 0 0 1 .34.24l.09 1.24a.45.45 0 0 1-.3.46l-.57.24a.6.6 0 0 0-.35.39c-.07.23-.14.46-.2.69a.4.4 0 0 0 .12.46l.41.31a.34.34 0 0 1 .06.46 7.33 7.33 0 0 1-.83 1.25.37.37 0 0 1-.34.15z"/><path class="cls-2" d="M43.85 50.91a2.76 2.76 0 0 0 .26-3.63c-.85-.83-2.34-.55-3.33.62a2.75 2.75 0 0 0-.26 3.63c.85.83 2.34.55 3.33-.62zM42.69 40.3a1.58 1.58 0 0 0 2.31-.42 1.88 1.88 0 0 0 .17-2.47 1.58 1.58 0 0 0-2.27.42 1.88 1.88 0 0 0-.21 2.47zM37.78 44.18a1.48 1.48 0 0 0 .14-2 1.25 1.25 0 0 0-1.8.33 1.48 1.48 0 0 0-.12 2 1.24 1.24 0 0 0 1.78-.33zM29.9 64.79V33.18l-17.72-7-.18-.07v33.34l17.9 5.39zm-9.57-15.71l-.08 8-1.19-.45.06-6.13-.84.66v-1.4l1.11-1zm3.53 1.33v1.24l-1.62 6.18-1.24-.45 1.66-6.31-1.84-.69v-1.1zM19.6 34.67l1.11-1 .95.36-.08 8-1.19-.45.07-6.13-.84.67zm7.8 12.2l.07 1.13L15 44.08 14.92 43z"/></g></svg>