<svg id="TARGETS" xmlns="http://www.w3.org/2000/svg" viewBox="0 0 94.85 94.85" width="94.85" height="94.85"><defs><style>.cls-1{fill:#fd9d24}.cls-2{fill:#fff}</style></defs><title>Goal_11_RGB_NG</title><path class="cls-1" d="M0 0h94.85v94.85H0z"/><path class="cls-2" d="M69.55 73.3a6.77 6.77 0 0 0-2.74.59l-1.55-2.49 1.14-2.12 1.4.11c.53 0 .83-.12.83-.54v-.36a.67.67 0 0 0-.75-.75h-5a.37.37 0 0 0-.37.37v.5a.39.39 0 0 0 .33.38l1.54.12-.61 1.15-8.94-1-.06-1.39a.94.94 0 0 0-.47-.78l-2.68-1.49a.88.88 0 0 0-.48-.15.92.92 0 0 0-.43 1.74l2.21 1.27.08 1.22-1.78 3.81a6.55 6.55 0 0 0-2.09-.37 6.77 6.77 0 1 0 3.78 1.16l1-2.17 5.05 8.19a.92.92 0 0 0 .78.44l3.18.07a6.74 6.74 0 1 0 6.67-7.55zM54 79.92A4.89 4.89 0 1 1 49.08 75a4.7 4.7 0 0 1 1.3.2l-2 4.3a.78.78 0 0 0-.09.37.93.93 0 0 0 1.77.41l2-4.2A4.85 4.85 0 0 1 54 79.92zm11.27-5A6.75 6.75 0 0 0 62.9 79h-1.7l3-5.65zm1 1.59l1.62 2.6-3.11-.11a4.82 4.82 0 0 1 1.45-2.51zM62.8 72l-3.17 5.9-4.12-6.69zm6.75 13a4.88 4.88 0 0 1-4.8-4.06l4.78.1a.93.93 0 0 0 .8-1.42l-2.52-4.12a4.85 4.85 0 0 1 1.74-.33 4.89 4.89 0 1 1 0 9.78zM34.93 67.57h-5.72v-.67a.22.22 0 0 0-.23-.22h-4.32a.22.22 0 0 0-.22.22v.67h-5.68a.22.22 0 0 0-.22.23l.14.92a.22.22 0 0 0 .23.22h15.86a.22.22 0 0 0 .23-.22l.16-.92a.23.23 0 0 0-.23-.23zM34.71 69.78H19a.22.22 0 0 0-.22.22l1.11 16.59a.23.23 0 0 0 .23.23H33.6a.22.22 0 0 0 .22-.23L34.93 70a.22.22 0 0 0-.22-.22zM23.07 84.51a.56.56 0 0 1-.56-.53l-.67-11.25a.56.56 0 0 1 .52-.59.55.55 0 0 1 .59.52l.67 11.26a.56.56 0 0 1-.55.59zm4.35-.51a.56.56 0 0 1-1.12 0V72.7a.56.56 0 1 1 1.12 0zm3.86 0a.57.57 0 0 1-.56.53.57.57 0 0 1-.53-.59l.67-11.26a.56.56 0 1 1 1.11.07zM20.92 52.76h-1.47v3.91a.13.13 0 0 1-.13.13h-1.78a.13.13 0 0 1-.13-.13v-3.93H14.5a3.41 3.41 0 0 1-3.4-3.41A3.37 3.37 0 0 1 12 47a3.17 3.17 0 0 1 1.57-5.93h.21a4.3 4.3 0 0 1 8.58.32 4.36 4.36 0 0 1-.36 1.88 4.8 4.8 0 0 1-1 9.49zM76.87 52.87v3.8a.12.12 0 0 0 .12.13h1.69a.13.13 0 0 0 .13-.13v-3.84a5.65 5.65 0 0 0 4.51-5.73c0-3.38-2.59-9-5.73-9S72 43.72 72 47.1a5.7 5.7 0 0 0 4.87 5.77z"/><g><path class="cls-2" d="M73.23 12.85a4.71 4.71 0 1 1 .31 6.65 4.71 4.71 0 0 1-.31-6.65zM72.57 20.05a.4.4 0 0 1 .53 0 .4.4 0 0 1 .05.53l-1.39 1.52a.39.39 0 0 1-.58-.52zM80.92 12a.4.4 0 0 1-.53 0 .4.4 0 0 1 0-.53L81.73 10a.39.39 0 0 1 .58.52z"/><path class="cls-2" d="M81.27 19.65L82.8 21a.39.39 0 0 1-.52.58l-1.53-1.39a.4.4 0 0 1 0-.53.39.39 0 0 1 .52-.01zM72.21 12.45l-1.52-1.39a.4.4 0 0 1 0-.53.39.39 0 0 1 .53 0l1.52 1.38a.4.4 0 0 1 0 .54.41.41 0 0 1-.53 0zM75.57 21.33a.39.39 0 0 1 .3.43l-.45 2a.39.39 0 0 1-.45.27.4.4 0 0 1-.3-.44l.44-2a.39.39 0 0 1 .46-.26zM77.92 10.77a.4.4 0 0 1-.3-.44l.45-2a.39.39 0 0 1 .75.17l-.45 2a.39.39 0 0 1-.45.27zM82 17.22a.4.4 0 0 1 .44-.3l2 .45a.41.41 0 0 1 .28.46.41.41 0 0 1-.44.3l-2-.45a.4.4 0 0 1-.28-.46zM68.74 14.27a.4.4 0 0 1 .44-.3l2 .45a.38.38 0 0 1 .27.45.39.39 0 0 1-.44.3l-2-.44a.39.39 0 0 1-.27-.46zM78.4 21.2a.38.38 0 0 1 .47.22l.64 2a.4.4 0 0 1-.26.46.38.38 0 0 1-.48-.23l-.63-2a.38.38 0 0 1 .26-.45zM75.09 10.9a.41.41 0 0 1-.48-.23L74 8.7a.4.4 0 0 1 .26-.46.4.4 0 0 1 .48.23l.63 2a.4.4 0 0 1-.28.43zM84.32 14l-2 .63a.39.39 0 0 1-.47-.26.39.39 0 0 1 .23-.47l2-.63a.39.39 0 0 1 .47.25.38.38 0 0 1-.23.48zM69.16 18.07l2-.63a.4.4 0 0 1 .46.26.39.39 0 0 1-.23.48l-2 .63a.39.39 0 0 1-.24-.74z"/><g><path class="cls-2" d="M62.41 22.49l.84.88-3.17.77L61 21l.84.88 2.26-2.15a.41.41 0 0 1 .57.59zM63.43 28.07l.92-3.13.84.89 2.26-2.16a.42.42 0 0 1 .58 0 .41.41 0 0 1 0 .58l-2.26 2.16.85.88z"/></g><rect class="cls-2" x="58.8" y="18.35" width=".75" height="16.95" rx=".31" ry=".31" transform="rotate(-38.29 59.174 26.837)"/><path class="cls-2" d="M32.33 8.65v47.9a.32.32 0 0 0 .32.32h7v-7.79a.41.41 0 0 1 .41-.41H44a.41.41 0 0 1 .41.41v7.79h8v-7.8a.37.37 0 0 1 .37-.37h3.83a.37.37 0 0 1 .37.37V56.87h7.74a.33.33 0 0 0 .33-.33V35.67a.35.35 0 0 0-.11-.26l-.06-.09-1.75-2.21-3.45-4.38-4.38-5.51-.63-.8-3.21-4.06-.11-.15a.32.32 0 0 0-.19-.07.35.35 0 0 0-.34.26.33.33 0 0 0 0 .14V33h-5.14V8.65a.61.61 0 0 0-.62-.65H32.94a.61.61 0 0 0-.61.65zm24.16 19.19a.38.38 0 0 1-.37.38h-3.41a.39.39 0 0 1-.37-.38v-4.3a.39.39 0 0 1 .37-.31.41.41 0 0 1 .3.14l.1.12c.75.92 2.3 2.82 3.21 4l.1.12a.42.42 0 0 1 .07.23zM58.6 49a.36.36 0 0 1 .37-.37h4a.37.37 0 0 1 .38.37v2.36a.38.38 0 0 1-.38.37H59a.37.37 0 0 1-.37-.37zm-.07-4.87a.34.34 0 0 1 .34-.34h4.05a.33.33 0 0 1 .33.34v2.54a.33.33 0 0 1-.33.33h-4.05a.34.34 0 0 1-.34-.33zm0-4.7a.34.34 0 0 1 .34-.33h4.05a.33.33 0 0 1 .33.33V42a.33.33 0 0 1-.33.34h-4.05a.34.34 0 0 1-.34-.34zm0-7.88a.39.39 0 0 1 .37-.32.38.38 0 0 1 .3.15l.1.11c1 1.21 3.32 4.09 3.84 4.83v.06a.5.5 0 0 1 0 .12v.71a.33.33 0 0 1-.33.33h-3.96a.33.33 0 0 1-.33-.33zm-6.2 12.59a.34.34 0 0 1 .34-.34h4a.34.34 0 0 1 .34.34v2.54a.34.34 0 0 1-.34.33h-4a.34.34 0 0 1-.34-.33zm0-4.7a.34.34 0 0 1 .34-.33h4a.34.34 0 0 1 .34.33V42a.34.34 0 0 1-.34.34h-4a.34.34 0 0 1-.34-.34zm0-4.69a.34.34 0 0 1 .34-.33h4a.34.34 0 0 1 .34.33v2.54a.33.33 0 0 1-.34.33h-4a.33.33 0 0 1-.34-.33zm0-4.69a.34.34 0 0 1 .34-.33h4a.34.34 0 0 1 .34.33v2.54a.33.33 0 0 1-.34.33h-4a.33.33 0 0 1-.34-.33zm-6.27 19a.41.41 0 0 1 .41-.41h3.89a.41.41 0 0 1 .41.41v2.38a.41.41 0 0 1-.41.41h-3.89a.41.41 0 0 1-.41-.41zm0-4.73a.41.41 0 0 1 .41-.42h3.89a.41.41 0 0 1 .41.42v2.37a.41.41 0 0 1-.41.42h-3.89a.41.41 0 0 1-.41-.42zm0-4.74a.41.41 0 0 1 .41-.41h3.89a.41.41 0 0 1 .41.41V42a.41.41 0 0 1-.41.41h-3.89a.41.41 0 0 1-.41-.41zm0-4.78a.41.41 0 0 1 .41-.41h3.89a.41.41 0 0 1 .41.41v2.38a.41.41 0 0 1-.41.41h-3.89a.41.41 0 0 1-.41-.41zm-6.39 9.52a.41.41 0 0 1 .41-.42H44a.41.41 0 0 1 .41.42v2.37a.41.41 0 0 1-.41.42h-3.92a.41.41 0 0 1-.41-.42zm0-4.74a.41.41 0 0 1 .41-.41H44a.41.41 0 0 1 .41.41V42a.41.41 0 0 1-.41.41h-3.92a.41.41 0 0 1-.41-.41zm0-4.74a.41.41 0 0 1 .41-.41H44a.41.41 0 0 1 .41.41v2.38a.41.41 0 0 1-.41.41h-3.92a.41.41 0 0 1-.41-.41zm0-4.73a.41.41 0 0 1 .41-.42H44a.41.41 0 0 1 .41.42v2.37a.41.41 0 0 1-.41.42h-3.92a.41.41 0 0 1-.41-.42zm0-4.74a.41.41 0 0 1 .41-.41H44a.41.41 0 0 1 .41.41v2.38a.41.41 0 0 1-.41.41h-3.92a.41.41 0 0 1-.41-.41zm0-4.74a.41.41 0 0 1 .41-.41H44a.41.41 0 0 1 .41.41V23a.41.41 0 0 1-.41.41h-3.92a.41.41 0 0 1-.41-.41zm0-4.73a.41.41 0 0 1 .41-.42H44a.41.41 0 0 1 .41.42v2.39a.41.41 0 0 1-.41.42h-3.92a.41.41 0 0 1-.41-.42zm0-4.74a.41.41 0 0 1 .41-.41H44a.41.41 0 0 1 .41.41v2.38A.41.41 0 0 1 44 14h-3.92a.41.41 0 0 1-.41-.41zm-6.05 37.91a.41.41 0 0 1 .42-.41h3.88a.41.41 0 0 1 .41.41v2.38a.41.41 0 0 1-.41.41H34a.41.41 0 0 1-.42-.41zm0-4.77a.41.41 0 0 1 .38-.41h3.88a.41.41 0 0 1 .41.41v2.42a.41.41 0 0 1-.41.41H34a.41.41 0 0 1-.42-.41zm0-4.73a.42.42 0 0 1 .42-.42h3.88a.41.41 0 0 1 .41.42V42a.41.41 0 0 1-.41.41H34a.42.42 0 0 1-.42-.41zm0-4.73a.42.42 0 0 1 .42-.42h3.88a.41.41 0 0 1 .41.42v2.42a.41.41 0 0 1-.41.41H34a.42.42 0 0 1-.42-.41zm0-4.74a.42.42 0 0 1 .38-.41h3.88a.41.41 0 0 1 .41.41v2.42a.41.41 0 0 1-.41.42H34a.42.42 0 0 1-.42-.42zm0-4.73A.42.42 0 0 1 34 25h3.88a.41.41 0 0 1 .41.41v2.39a.41.41 0 0 1-.41.42H34a.42.42 0 0 1-.42-.42zm0-4.73a.41.41 0 0 1 .42-.41h3.88a.41.41 0 0 1 .41.41v2.42a.41.41 0 0 1-.41.41H34a.41.41 0 0 1-.42-.41zm0-4.73a.41.41 0 0 1 .42-.41h3.88a.41.41 0 0 1 .41.41v2.42a.41.41 0 0 1-.41.41H34a.41.41 0 0 1-.42-.41zm0-4.73a.41.41 0 0 1 .42-.41h3.88a.41.41 0 0 1 .41.41v2.42a.41.41 0 0 1-.41.41H34a.41.41 0 0 1-.42-.41z"/></g></svg>