<svg id="TARGETS" xmlns="http://www.w3.org/2000/svg" viewBox="0 0 94.85 94.85" width="94.85" height="94.85"><defs><style>.cls-1{fill:#00689d}.cls-2{fill:#fff}</style></defs><title>Goal_16_RGB_NG</title><path class="cls-1" d="M0 0h94.85v94.85H0z"/><path class="cls-2" d="M82.53 38.16a2.88 2.88 0 1 0-2.88-2.87 2.86 2.86 0 0 0 2.88 2.87zM85.89 39.5h-6.72a3.82 3.82 0 0 0-3.49 3.82v8a1.12 1.12 0 1 0 2.23 0v-6.88c0-.25.07-.6.55-.6.32 0 .39.34.4.56v20.53a1.6 1.6 0 0 0 3.2 0V53.1a.45.45 0 0 1 .47-.47.43.43 0 0 1 .45.47v11.83a1.61 1.61 0 0 0 3.21 0V44.4c0-.22.08-.56.4-.56s.55.35.55.6v6.85a1.12 1.12 0 1 0 2.23 0v-8a3.82 3.82 0 0 0-3.48-3.79zM66.06 39.52a2.73 2.73 0 1 0-2.72-2.72 2.72 2.72 0 0 0 2.72 2.72zM71.55 43.16S70.74 41 69 41h-5.82c-1.8 0-2.61 2.13-2.61 2.13l-2.26 7.37s-.41 1.36.74 1.69 1.49-1 1.49-1l1.83-6.15s.09-.47.45-.37.22.61.22.61l-3.18 11.58h3v8.26a1.42 1.42 0 0 0 2.84 0v-8.26h.8v8.26a1.42 1.42 0 0 0 2.84 0v-8.26h3l-3.26-11.53s-.13-.51.22-.61.46.37.46.37l1.83 6.15s.34 1.32 1.48 1 .75-1.69.75-1.69zM14 39.66a2.75 2.75 0 1 0-2.75-2.75A2.75 2.75 0 0 0 14 39.66zM17.25 40.72H10.8a3.65 3.65 0 0 0-3.33 3.64V52a1.06 1.06 0 0 0 .42.83l-2.4 12.84a.42.42 0 0 0 .33.5h.07a.42.42 0 0 0 .41-.35L8.72 53a1 1 0 0 0 .92-1v-6.56c0-.25.06-.58.51-.58s.38.33.39.54V65a1.53 1.53 0 0 0 3.06 0V53.71a.42.42 0 0 1 .44-.45.42.42 0 0 1 .44.45V65a1.53 1.53 0 1 0 3.06 0V45.4c0-.21.08-.54.39-.54s.52.33.52.58V52a1.06 1.06 0 1 0 2.12 0v-7.64a3.65 3.65 0 0 0-3.32-3.64zM31.7 51.24a.82.82 0 0 0-1.1.37 21.83 21.83 0 0 1-1.4 2.13.89.89 0 0 1-.68.32h-2.66a.88.88 0 0 1-.68-.32 24.92 24.92 0 0 1-1.43-2.22.79.79 0 0 0-.69-.37.8.8 0 0 0-.8.8 1.39 1.39 0 0 0 .08.35l2.22 4a1.5 1.5 0 0 1 .13.53v.6a2.42 2.42 0 0 1-.11.67l-1.06 4.21h1.17v3.13a1.08 1.08 0 1 0 2.16 0v-3a.45.45 0 0 1 0-.13h.65a.45.45 0 0 1 0 .13v3a1.09 1.09 0 0 0 2.17 0v-3.12h1.17l-1.08-4.2a3.53 3.53 0 0 1-.09-.55v-.73a1.41 1.41 0 0 1 .14-.53l2-3.7s.14-.27.19-.39a.71.71 0 0 0-.3-.98z"/><path class="cls-2" d="M27.19 52.66a2.2 2.2 0 1 0-2.2-2.2 2.2 2.2 0 0 0 2.2 2.2zM45.57 35a3.34 3.34 0 1 0-3.34-3.33A3.33 3.33 0 0 0 45.57 35zM49.46 36.27h-7.78a4.43 4.43 0 0 0-4 3.76h15.75a4.42 4.42 0 0 0-3.97-3.76zM54 41.62H34.55v2h1.59v22.91h19V43.61h1.58v-2zM51.58 47H39.93v-2.1h11.65z"/></svg>