<svg id="TARGETS" xmlns="http://www.w3.org/2000/svg" viewBox="0 0 94.85 94.85" width="94.85" height="94.85"><defs><style>.cls-1{fill:#00689d}.cls-2{fill:#fff}</style></defs><title>Goal_16_RGB_NG</title><path class="cls-1" d="M0 0h94.85v94.85H0z"/><path class="cls-2" d="M77.78 55.61a2.78 2.78 0 1 0 2.78-2.77 2.77 2.77 0 0 0-2.78 2.77zM83.8 59.46h-6.48A3.71 3.71 0 0 0 74 63.15v7.7a1.08 1.08 0 0 0 2.15 0v-6.61c0-.25.07-.59.53-.59s.38.34.39.55V84a1.55 1.55 0 1 0 3.09 0V72.59a.42.42 0 0 1 .45-.45.43.43 0 0 1 .44.45V84a1.55 1.55 0 1 0 3.09 0V64.2c0-.21.08-.55.39-.55s.53.34.53.59v6.61a1.08 1.08 0 0 0 2.15 0v-7.7a3.71 3.71 0 0 0-3.41-3.69zM54.59 57.11a2.63 2.63 0 1 0 2.62-2.63 2.62 2.62 0 0 0-2.62 2.63zM60.34 64.55c.34-.1.43.36.43.36l1.76 5.92s.34 1.27 1.43 1 .72-1.63.72-1.63l-2.18-7.1s-.78-2-2.51-2h-5.56c-1.72 0-2.5 2-2.5 2l-2.19 7.1s-.39 1.3.72 1.63 1.43-1 1.43-1l1.76-5.92s.1-.46.44-.36.21.59.21.59l-3.06 11.1h2.85v8a1.37 1.37 0 0 0 2.73 0v-8h.78v8a1.37 1.37 0 0 0 2.74 0v-8h2.84l-3.06-11.1s-.12-.49.22-.59zM38.86 57.06a2.63 2.63 0 1 0 2.63-2.62 2.63 2.63 0 0 0-2.63 2.62zM46.77 63s-.78-2-2.5-2h-5.56c-1.71 0-2.51 2-2.51 2L34 70.11s-.39 1.3.71 1.63 1.43-.95 1.43-.95l1.76-5.93s.1-.45.44-.35.22.58.22.58L35.52 76.2h2.84v8a1.37 1.37 0 0 0 2.74 0v-8h.77v8a1.37 1.37 0 0 0 2.74 0v-8h2.85L44.4 65.09s-.13-.48.21-.58.44.35.44.35l1.75 5.93s.34 1.27 1.44.95.71-1.63.71-1.63zM16.25 58.7A2.75 2.75 0 1 0 13.5 56a2.75 2.75 0 0 0 2.75 2.7zM19.46 59.76h-6.41a3.65 3.65 0 0 0-3.33 3.64V71a1.06 1.06 0 0 0 .42.83L7.7 84.71a.42.42 0 0 0 .33.5h.07a.42.42 0 0 0 .41-.35l2.42-12.82a1.05 1.05 0 0 0 .92-1v-6.56c0-.25.06-.58.51-.58s.38.33.39.54V84a1.53 1.53 0 0 0 3.06 0V72.75a.42.42 0 0 1 .44-.45.42.42 0 0 1 .44.45V84a1.53 1.53 0 1 0 3.06 0V64.44c0-.21.08-.54.39-.54s.51.33.51.58V71a1.07 1.07 0 0 0 2.13 0v-7.6a3.65 3.65 0 0 0-3.32-3.64zM66.62 69.33a2.23 2.23 0 1 0 2.23-2.23 2.23 2.23 0 0 0-2.23 2.23zM73.33 75.87c-1.34-3.46-1.57-3.43-2.78-3.47h-3.4c-1.22 0-1.44 0-2.79 3.47-.19.5-1 2.42-1 2.51s-.34.82.41 1.08.94-.56.94-.56l1.37-3.37s0-.08.08-.07 0 .07.06.1v8.79a1.15 1.15 0 0 0 1.15 1.2 1.13 1.13 0 0 0 1.12-1.2v-3.51s0-.53.35-.53.35.53.35.53v3.51a1.15 1.15 0 0 0 1.15 1.2 1.12 1.12 0 0 0 1.11-1.2v-8.79-.11l.09.08 1.24 3s.36.8 1 .49a.77.77 0 0 0 .32-1c.08-.08-.58-1.65-.77-2.15zM32.91 70.26a.82.82 0 0 0-1.1.36 21.75 21.75 0 0 1-1.4 2.14.89.89 0 0 1-.68.32h-2.66a.88.88 0 0 1-.68-.32C26 72.42 25 70.59 25 70.54a.79.79 0 0 0-.69-.37.8.8 0 0 0-.8.8 1.52 1.52 0 0 0 .08.35l2.22 4a1.42 1.42 0 0 1 .13.53v.6a2.42 2.42 0 0 1-.11.67l-1.06 4.21h1.13v3.13a1.09 1.09 0 0 0 2.17 0v-3a.47.47 0 0 1 0-.13h.65a.47.47 0 0 1 0 .13v3a1.09 1.09 0 0 0 2.17 0v-3.12h1.17L31 77.14a3.62 3.62 0 0 1-.09-.56V75.86a1.35 1.35 0 0 1 .14-.53l2-3.7.19-.39a.71.71 0 0 0-.33-.98z"/><path class="cls-2" d="M28.4 71.69a2.2 2.2 0 1 0-2.2-2.2 2.19 2.19 0 0 0 2.2 2.2zM68.61 33a.22.22 0 0 0 0-.08l-7.56-20.19a.44.44 0 0 0-.42-.29H48.38V9.27h-2.27v3.15H34.36a.43.43 0 0 0-.41.28l-7.77 20.2V33.05c0 4.3 3.8 7.79 8.46 7.79s8.47-3.49 8.47-7.79v-.07-.08l-6.73-18.26h9.75l.21 27.85h-7.08v2.27h16.52v-2.27h-7.17l-.21-27.85h10.19L51.74 32.9V33.05c0 4.3 3.8 7.79 8.47 7.79s8.46-3.49 8.46-7.79c-.03-.05-.05-.05-.06-.05zm-28-.37H28.67l6.11-15.93zm13.63 0l6-15.93 6 15.93z"/></svg>