<svg id="TARGETS" xmlns="http://www.w3.org/2000/svg" viewBox="0 0 94.85 94.85" width="94.85" height="94.85"><defs><style>.cls-1{fill:#bf8b2e}.cls-2{fill:#fff}</style></defs><title>Goal_12_RGB_NG</title><path class="cls-1" d="M0 0h94.85v94.85H0z"/><path class="cls-2" d="M47.63 27.36a20.24 20.24 0 1 0 20.24 20.23 20.25 20.25 0 0 0-20.24-20.23zm10.22 35.55c-.21.14-.43.26-.65.39a18.3 18.3 0 0 1-14.57 1.87.75.75 0 0 1-.23-.89c.57-1.49 2.27-2.07 3.6-2.2 3-.29 6.91 1.94 7.53 1.58s1.88-2 3.73-1.93a2.83 2.83 0 0 1 1.64.4c-.27.21-.54.42-.82.62zM45.5 29.31h.44c.56-.05 1.12-.09 1.69-.09a18.45 18.45 0 0 1 18 14.56q0 .23-.06.36a1.21 1.21 0 0 1-2.16.16c-.18-.27-1-1-1 .26s1.24 1.4.07 2.17a4.5 4.5 0 0 1-1.94.77 2.56 2.56 0 0 0-.94 2.21c.14.7 1.82 2.62.58 2.54a7.17 7.17 0 0 1-2.86-2.49c-.39-1-.8-2-1.1-2.77a1.1 1.1 0 0 0-1.73-.52c-.65.46.19.9-.28 1.86s-.81 1.81-1.5 1c-1.8-2.06-4.4-1-4.81-3.33-.22-1.24-1.29-1.12-2.18-1.82s-1.4-1.08-1.54-.57 2.8 2.77 3 3.37c.32.88-.88 1.67-1.75 1.88s-1.25-.49-2.11-1.38-1.23-1.53-1.29-.83a4 4 0 0 0 1.68 3.05c.75.47 1.58.69 1.34 1.44s0 .34-.84 1.17a2.24 2.24 0 0 0-.93 2.23c.06 1.16-.24 1.22-.42 2.17s-.6.13-1 1.53a5.25 5.25 0 0 1-1.13 2.35 3.72 3.72 0 0 1-2.51 1c-.83-.06-1-2.29-1-3.44 0-.39-.56.78-.85-1.61-.19-1.52-1.17.16-1.24-.85s-.56-.82-1.07-1.46-1.16.07-1.88.38-.41.49-1.42.17h-.07a18.3 18.3 0 0 1-1.44-7.15c0-.62 0-2.9 1-3.54a2.13 2.13 0 0 1 1.23-.26 18.87 18.87 0 0 1 3 .75c1.06.41 2.74 1.31 3.71.91.7-.29 1.26-.67 1.2-1.26-.08-.74-.66-.92-1.36-.41-.27.17-.82-1.12-1.26-1s.55 1.52.17 1.58-1.1-1.52-1.23-1.78-.7-.88-1.21-.4c-1.08 1-2.67.63-3.26.86-1.25.49-1.3.15-1.28-.5a.87.87 0 0 1 .14-.49 2.21 2.21 0 0 1 2-.22c.49.31.82-.08 1-.28s.12-.49 0-.75.25-.44.49-.5a11.69 11.69 0 0 0 1.39-.84 4.59 4.59 0 0 1 2.79 0 1.46 1.46 0 0 0 2.06-.5 5 5 0 0 1 1.34-1.11c.27-.13-.66-1-1.42 0s-1.14 1-1.49 1-2.49-.52-2.75-1.19.67-1.18 1.44-1.56a20.13 20.13 0 0 1 3.48-.49c1.12-.25 2.53-.8 3.25-.32s-3 1.33-1.77 2c.43.25 2.39-1.12 3.06-1.48 1.58-.8-1.53-1.08-1.13-2.73.46-1.88-3.81-1.15-5.94-1a18.21 18.21 0 0 1 6.66-2.6c.31-.12.62-.18.94-.21zm20.56 18.28a18.19 18.19 0 0 1-.37 3.64c-.62-.4-2.36-3-.82-4.82.26-.3-.56-1.21-.33-1.23A1.38 1.38 0 0 1 66 46c0 .55.06 1.07.06 1.59zm-5.88 12.76c-1-.52-.89.3-1.38.12s.56-1.33-.92-.36-1.08-.11-1.72-1.78.74-3.5 1.9-3.93a23.46 23.46 0 0 1 3.34-.88c2.21-.55 2.67-1.86 3.07-1.07.07.15.15.3.22.43a3 3 0 0 1 .26.95 18.51 18.51 0 0 1-4.24 6.72 2.69 2.69 0 0 1-.53-.2zm.74-10c-.21-.08-.38-.27-.54-.71a.42.42 0 0 1 .6-.54 1.77 1.77 0 0 1 .87 1.06c0 .27-.74.24-.93.16zm2 1.7a1.66 1.66 0 0 1-1.76-.16c-.46-.36.3-1 .57-1 .58-.06 1.51.8 1.15 1.11zM52.8 50.29a1.68 1.68 0 0 1-1.8-.16c-.46-.37.3-1 .58-1 .66-.04 1.58.87 1.22 1.16zm-7.51 3.64c-.25.42-.94 3.51-1.4 3.14s.19-3.58.32-3.82c.73-1.34 2.29-1.25 1.08.68zM32.2 37.84a2.49 2.49 0 0 1 1.44-.53c.47-.08 1.08.16 1.15.46s-1.15.86-1.37 1.07c-.63.58-1.63 1.77-2.21 1.9a.72.72 0 0 1-.47-.05A17.09 17.09 0 0 1 32.11 38zm2.86-3.59c.28-.06.65.1.7.31a2.42 2.42 0 0 1-.25 1.17 3 3 0 0 1-1.94.87.64.64 0 0 1-.48-.27A18.21 18.21 0 0 1 35 34.27zM84.41 63.72h-.09l-3.62-2a36.35 36.35 0 0 0 2.17-7.28A35.8 35.8 0 0 0 70.8 20.63a.77.77 0 0 0-1.08.1l-1.89 2.33a.74.74 0 0 0 .11 1 31.29 31.29 0 0 1 8.79 35.39l-4.24-2.34c-.12 0-.45-.12-.43.21l.27 4.68c.24 3.68.24 3.59.33 5.53l.24 4.08c0 .41.51.12.51.12l11-7.53c.31-.2.13-.41 0-.48zM12.6 40l2.87.66a.77.77 0 0 0 .92-.56 31.45 31.45 0 0 1 26.44-23.2v1L43 22c0 .42.5.14.5.14l11.18-7.2c.36-.23.18-.39.05-.47h-.09L43 7.52c-.12 0-.45-.14-.44.2l.14 4.59A36 36 0 0 0 12 39a.79.79 0 0 0 .6 1zM59.68 77.74a.74.74 0 0 0-1-.4 31.3 31.3 0 0 1-37.63-11.88l4.18-2.3c.1-.08.35-.32.05-.48l-4-2.22c-3.24-1.77-3.16-1.72-4.84-2.68l-3.58-2c-.36-.2-.38.36-.38.36l.49 13.28c0 .43.24.36.38.29h.09l3.69-2A35.68 35.68 0 0 0 40.7 83.45a36.74 36.74 0 0 0 6.51.59 35.62 35.62 0 0 0 13.23-2.55.77.77 0 0 0 .41-1z"/></svg>