<svg id="TARGETS" xmlns="http://www.w3.org/2000/svg" viewBox="0 0 94.85 94.85" width="94.85" height="94.85"><defs><style>.cls-1{fill:#bf8b2e}.cls-2{fill:#fff}</style></defs><title>Goal_12_RGB_NG</title><path class="cls-1" d="M0 0h94.85v94.85H0z"/><path class="cls-2" d="M77.27 47.16c0-6.65-2.82-10.28-5.19-12.15a16 16 0 0 0-9.64-3.16 10.9 10.9 0 0 0-2.33.22l-.24.06c-2.29.54-6.12 1.44-10.57 7l-.14.16a.59.59 0 0 0-.11.33.64.64 0 0 0 .08.3l.1.16c.74 1.23 1.35 2.3 1.84 3.21a.58.58 0 0 0 1 .13l.08-.11C56 38 59 37.25 61 36.78l.25-.06a6.25 6.25 0 0 1 1.22-.1 11.28 11.28 0 0 1 6.67 2.14c2.24 1.77 3.38 4.59 3.38 8.4 0 6.37-3.08 8.85-5.67 9.81a9 9 0 0 1-3.16.56 11.34 11.34 0 0 1-4.74-1.08l-.19-.09c-2.22-1-5.54-3-8.68-9.28-6.44-12.93-11.85-14.16-15.43-15h-.19a10.7 10.7 0 0 0-2.3-.21A15.35 15.35 0 0 0 22.65 35c-2.34 1.86-5.12 5.48-5.12 12.13A14.06 14.06 0 0 0 31.8 62.05a17.66 17.66 0 0 0 3.27-.32 14.1 14.1 0 0 0 5.58-2.55l1.88 1.69a.56.56 0 0 0 .77 0 .49.49 0 0 0 .13-.36l1.46-9v-.11a.56.56 0 0 0-.17-.39.54.54 0 0 0-.38-.14l-8.74 2.42h-.17a.47.47 0 0 0-.27.16.52.52 0 0 0-.14.39.5.5 0 0 0 .17.37L37 55.88A8.66 8.66 0 0 1 34.18 57a12.49 12.49 0 0 1-2.32.23 9.46 9.46 0 0 1-7.49-3.39l-.05-.07c-1.5-2-2-3.66-2-6.67 0-3.81 1.12-6.64 3.32-8.4a11 11 0 0 1 6.51-2.1 5.88 5.88 0 0 1 1.24.1h.19c2.86.65 6.77 1.54 12.2 12.44 2.86 5.75 6.46 9.51 11 11.5a16.08 16.08 0 0 0 6.91 1.6 14 14 0 0 0 4.83-.85c2.61-.92 8.75-4.28 8.75-14.23zM87.43 6.75h-.16l-9 1s-.35 0-.42.15 0 .26.13.41l.11.12 2 2-11.44 11a.28.28 0 0 0 0 .39l3.43 3.57a.27.27 0 0 0 .38.05l11.44-11 2 2.08c.15.15.26.19.41.11a.36.36 0 0 0 .16-.27l1.29-9.13v-.1a.39.39 0 0 0-.12-.27.4.4 0 0 0-.21-.11zM7.47 6.75h.16l9 1s.35 0 .42.15 0 .26-.12.41l-.11.12-2 2 11.43 11a.28.28 0 0 1 0 .39l-3.43 3.57a.28.28 0 0 1-.38.05L11 14.45l-2 2.08c-.15.15-.25.19-.4.11a.37.37 0 0 1-.17-.27L7.11 7.24v-.1a.39.39 0 0 1 .12-.27.37.37 0 0 1 .24-.12zM7.42 88.1h.16l9-1s.36 0 .43-.15 0-.26-.13-.41l-.11-.12-2-2 11.44-11a.28.28 0 0 0 0-.39l-3.43-3.58a.26.26 0 0 0-.38 0l-11.44 11-2-2.08c-.14-.16-.25-.2-.4-.12a.41.41 0 0 0-.17.27l-1.32 9.09v.1a.39.39 0 0 0 .12.27.47.47 0 0 0 .23.12zM87.38 88.1h-.16l-9-1s-.36 0-.43-.15 0-.26.13-.41l.11-.12 2-2-11.44-11a.28.28 0 0 1 0-.39l3.43-3.58a.26.26 0 0 1 .38 0l11.44 11 2-2.08c.14-.16.25-.2.4-.12a.41.41 0 0 1 .17.27l1.28 9.14v.1a.39.39 0 0 1-.12.27.47.47 0 0 1-.19.07z"/></svg>