<svg id="TARGETS" xmlns="http://www.w3.org/2000/svg" viewBox="0 0 94.8 94.88" width="94.8" height="94.8"><style>.st0{fill:#dd1367}.st1{fill:#fff}</style><title>Goal_10_RGB_NG</title><path class="st0" d="M0 0h94.8v94.8H0z"/><path class="st1" d="M26.7 23.3h-2.9v54.9h39.3v-3.4H26.7z"/><path class="st1" d="M29.7 16.7v54.8H69V16.7H29.7zm19.7 5.2c6.8 0 12.2 5.5 12.2 12.2s-5.5 12.2-12.2 12.2-12.2-5.5-12.2-12.2c0-6.7 5.4-12.2 12.2-12.2zM64.2 64c0 .1-.1.2-.3.2h-29c-.2 0-.3-.1-.3-.2v-4.7c0-.1.1-.2.3-.2h29c.2 0 .3.1.3.2V64zm0-8.1c0 .1-.1.2-.3.2h-29c-.2 0-.3-.1-.3-.2v-4.6c0-.1.1-.2.3-.2h29c.2 0 .3.1.3.2v4.6z"/><path class="st1" d="M49.4 46c6.5 0 11.8-5.3 11.8-11.9s-5.3-11.8-11.9-11.8c-6.5 0-11.8 5.3-11.8 11.8 0 6.6 5.3 11.9 11.9 11.9zm0-23c6.1 0 11.1 5 11.1 11.1s-5 11.1-11.1 11.1-11.1-5-11.1-11.1S43.3 23 49.4 23z"/><path class="st1" d="M49.4 44.3c5.6 0 10.2-4.6 10.2-10.2S55 23.9 49.4 23.9s-10.2 4.6-10.2 10.2c0 5.7 4.5 10.2 10.2 10.2zm3.2-11.4c-.1 0-.2-.1-.2-.1v-.6H54v.6c0 .1-.1.2-.2.2v3.8h-1.2v-3.9zm-3.2-1.2h-5v-.3h10v.4l-5-.1zm-.6 1.2c-.1 0-.2-.1-.2-.1v-.6h1.6v.6c0 .1-.1.2-.1.2v3.8h-1.3v-3.9zm-3.8 0c-.1 0-.2-.1-.2-.2v-.6h1.6v.6c0 .1-.1.2-.1.2v3.8h-1.2l-.1-3.8zm4.5-1.9h-5.3l-.2-.2c-.1 0-.1-.1 0-.2l5.5-2.1 5.6 2.1c.1.1.1.2 0 .2l-.3.2h-5.3zm-5.4 6.8h.4v-.6s0-.1.1-.1h9.8s.1 0 .1.1v.6h.4v.6H44.1v-.6zm1.2 4.3c-.1.1-.2.2-.3.2h-.1c-.1 0-.2 0-.2-.1-.2-.1-.3-.4-.2-.7.1-.2.4-.3.7-.2.2.3.3.6.1.8 0 0 0 .1 0 0zm1.5.6c-.1.2-.2.3-.5.3h-.2c-.3-.1-.4-.4-.3-.6.1-.3.4-.4.6-.3.1 0 .2.1.3.2.1.2.1.3.1.4zm1 .8c-.2 0-.3-.1-.4-.2-.1-.1-.1-.2-.1-.4 0-.1.1-.2.2-.3.1-.1.2-.1.4-.1.1 0 .2.1.3.2.1.1.1.2.1.4s-.2.4-.5.4zm1.6.1c-.3 0-.5-.2-.5-.5s.2-.5.5-.5.5.2.5.5-.2.5-.5.5zm2-.4c-.1.1-.2.2-.3.2H51c-.2 0-.4-.2-.5-.4 0-.1 0-.3.1-.4.2-.2.5-.3.7-.1.1.1.2.2.2.3 0 .2 0 .4-.1.4zm1.6-.4c-.1.1-.1.2-.3.2h-.2c-.2 0-.4-.1-.5-.3v-.4c.1-.1.2-.2.3-.2.3-.1.5 0 .6.3.1.1.1.3.1.4zm1.4-.8c0 .1-.1.2-.2.3-.1 0-.2.1-.2.1h-.1c-.3-.1-.4-.3-.4-.6.1-.3.3-.4.6-.4.2.1.4.4.3.6zm1.1-.6c-.1.1-.2.1-.3.1-.1 0-.3-.1-.4-.2-.2-.2-.1-.5.1-.7.2-.2.5-.1.7.1.1.1.1.2.1.3 0 .2-.1.3-.2.4zm2.2-2.6c-.1.1-.2.2-.3.2h-.1c-.1 0-.2 0-.2-.1-.1-.1-.2-.2-.2-.3v-.4c.1-.1.2-.2.3-.2.3-.1.5.1.6.3-.1.3-.1.4-.1.5zm.7-1.5c-.1.2-.3.3-.5.3h-.2c-.2-.1-.4-.4-.3-.6 0-.1.1-.2.2-.3.1-.1.3-.1.4 0 .1 0 .2.1.3.2.1.2.1.4.1.4zm0-1.2c-.4-.1-.5-.3-.5-.6 0-.1.1-.2.2-.3.1-.1.2-.1.4-.1.3 0 .4.3.4.6-.1.3-.3.5-.5.4-.1.1-.1.1 0 0zm.6-2c0 .3-.2.5-.5.5-.1 0-.3 0-.3-.1-.2-.2-.2-.5 0-.7.1-.1.2-.1.3-.1.2 0 .4.2.5.4zm-.2-1.7c0 .1 0 .3-.1.4-.1.1-.2.2-.3.2h-.5c-.1-.1-.2-.2-.2-.3 0-.1 0-.3.1-.4.1-.1.2-.2.3-.2.1 0 .3 0 .4.1.2.1.2.2.3.2zm-.6-1.8c.2.1.3.4.2.6 0 .1-.1.2-.3.2h-.4c-.1 0-.2-.1-.2-.3v-.4c.1-.1.2-.2.3-.2.1 0 .2 0 .4.1zM57 29.2c.1-.1.2-.1.4 0 .1 0 .2.1.3.2v.4c0 .1-.1.2-.2.3-.1 0-.2.1-.2.1h-.1c-.1 0-.2-.1-.3-.2v-.4c-.1-.2 0-.3.1-.4zM56 28c.2-.2.5-.1.7.1.1.1.1.2.1.3 0 .2-.2.4-.5.5-.3 0-.5-.2-.5-.5 0-.2.1-.3.2-.4zm-.1 11.7c.1-.1.2-.2.3-.2.1 0 .3 0 .4.1.2.2.2.5.1.7-.1.1-.2.2-.3.2h-.1c-.1 0-.2 0-.3-.1-.1-.1-.2-.2-.2-.3 0-.2 0-.4.1-.4zm-1.1-12.8c.2-.2.5-.2.7-.1.1.1.2.2.2.3 0 .1 0 .3-.1.4-.1.1-.2.2-.3.2-.1 0-.2 0-.3-.1-.1-.1-.2-.2-.2-.3-.1-.2-.1-.3 0-.4zm-1.3-.8c.1-.2.4-.3.7-.2.1.1.2.2.2.3.1.1.1.3 0 .4-.1.1-.2.2-.3.2H54c-.1 0-.2 0-.2-.1-.1-.1-.2-.2-.2-.3-.2-.1-.2-.2-.1-.3zm-1.5-.6c0-.1.1-.2.2-.3.1-.1.3-.1.4 0 .1 0 .2.1.3.2v.4c0 .1-.1.2-.3.3h-.4c-.1 0-.2-.1-.3-.2 0-.1 0-.3.1-.4zm-1-.7c.3 0 .4.3.4.6 0 .1-.1.2-.2.3-.1.1-.2.1-.3.1h-.1c-.1 0-.2-.1-.3-.2-.1-.1-.1-.2-.1-.4.1-.3.3-.5.6-.4 0-.1 0 0 0 0zm-1.7-.2c.3 0 .5.2.5.5s-.2.5-.5.5-.5-.2-.5-.5c.1-.3.3-.5.5-.5.1 0 .1 0 0 0zm-1.6.2c.1 0 .3 0 .4.1.1.1.2.2.2.3 0 .3-.1.5-.4.6h-.1c-.1 0-.2 0-.3-.1-.1-.1-.2-.2-.2-.3 0-.4.1-.6.4-.6zm-1.6.4c.1-.1.3-.1.4 0 .1.1.2.2.2.3v.4c-.1.1-.2.2-.3.2H46c-.1-.1-.2-.2-.2-.3 0-.3.1-.5.3-.6zm-1.5.7c.2-.1.5-.1.7.2.1.1.1.2 0 .4 0 .1-.1.2-.2.3-.1 0-.2.1-.2.1-.2 0-.3-.1-.4-.2-.2-.4-.1-.7.1-.8zm-1.4.9c.1-.1.2-.1.4-.1.3 0 .5.2.4.5 0 .1-.1.3-.2.3-.1.1-.2.1-.3.1-.1 0-.3-.1-.4-.2-.1-.1 0-.4.1-.6zm0 13.9c.2-.2.5-.2.7-.1.2.2.2.5.1.7-.1.1-.2.2-.4.2-.3 0-.5-.2-.5-.5 0-.1 0-.2.1-.3zM42.1 28c.1-.1.2-.2.3-.2.1 0 .3 0 .3.1.2.2.2.5.1.7-.1.1-.2.2-.4.2-.1 0-.2 0-.3-.1-.1-.2-.2-.5 0-.7zm-1 1.4c.1-.2.4-.3.7-.2.2.1.3.4.2.7-.1.2-.2.2-.4.2-.1 0-.2 0-.2-.1-.3-.1-.4-.4-.3-.6zm-.7 1.5c.1-.2.4-.4.6-.3.1 0 .2.1.3.2v.4c0 .1-.1.2-.2.3h-.4c-.2-.1-.3-.4-.3-.6zm.1 1.2c.1 0 .2.1.3.2.1.1.1.2.1.4s-.2.4-.5.4h-.1c-.3-.1-.4-.3-.4-.6.1-.3.4-.5.6-.4 0 0 .1 0 0 0zm-.7 2c0-.3.2-.5.5-.5s.5.2.5.5-.2.5-.5.5c-.2 0-.4-.2-.5-.5zm.2 1.7c0-.3.1-.5.4-.6.1 0 .2 0 .4.1.1.1.2.2.2.3 0 .3-.1.5-.4.6h-.1c-.3 0-.5-.2-.5-.4zm.9 1.9c-.2 0-.4-.1-.5-.3V37c0-.1.1-.2.3-.2.3-.1.5 0 .6.3.1.3 0 .5-.3.6h-.1zm.9 1.3c-.1 0-.2.1-.2.1-.2 0-.3-.1-.4-.2-.1-.2-.1-.5.2-.7s.5-.1.7.2v.4c-.1.1-.2.2-.3.2zm.2.9c0-.1.1-.2.2-.3.2-.2.5-.1.7.1.2.2.2.5 0 .7-.1.1-.2.1-.3.1-.1 0-.3-.1-.4-.2-.2-.2-.2-.3-.2-.4z"/></svg>