<svg id="TARGETS" xmlns="http://www.w3.org/2000/svg" viewBox="0 0 94.85 94.85" width="94.85" height="94.85"><defs><style>.cls-1{fill:#dd1367}.cls-2{fill:#fff}</style></defs><title>Goal_10_RGB_NG</title><path class="cls-1" d="M0 0h94.85v94.85H0z"/><path class="cls-2" d="M63.54 35H31.31a.36.36 0 0 0-.36.35v8.85a.36.36 0 0 0 .36.37h32.23a.36.36 0 0 0 .35-.37v-8.81a.36.36 0 0 0-.35-.39zM63.54 50.77H31.31a.36.36 0 0 0-.36.37v8.8a.36.36 0 0 0 .36.36h32.23a.36.36 0 0 0 .35-.36v-8.8a.36.36 0 0 0-.35-.37z"/><g><path class="cls-2" d="M85.78 58.41c-.42-1.66.37-4.38.33-7.63s-.43-4-2.5-7a65.23 65.23 0 0 0-8.8-9.32c-.72-.6-1.7-1.4-2.29-.86s0 1.52.43 2.22 3.39 4 4.61 5.82a21.37 21.37 0 0 1 2.66 6.88c.15 1 .38 4.57-.1 4.85s-.73-.34-.8-.82-.23-3.77-.54-5.56-1.46-2.8-2.45-2.54c-.75.19-.33 1.52-.36 3.84s-.12 4.93-.38 9.39A9.8 9.8 0 0 0 79.41 66c.7.58 5.48 6.8 10.09 12.87V64.48l-1-1.15a10.91 10.91 0 0 1-2.72-4.92zM9.11 37.32C9.54 39 8.75 41.7 8.78 45s.43 4 2.51 7a66 66 0 0 0 8.79 9.33c.72.59 1.7 1.4 2.29.86s0-1.52-.42-2.23-3.39-4-4.62-5.82a21.32 21.32 0 0 1-2.66-6.87c-.15-1.06-.38-4.58.1-4.86s.74.34.81.82.22 3.77.53 5.57 1.47 2.79 2.45 2.54c.75-.2.34-1.53.37-3.85s.07-5.02.37-9.49a9.77 9.77 0 0 0-3.82-8.26c-.7-.58-5.51-6.84-10.13-12.93v14.38c.55.67.92 1.11 1 1.21a10.88 10.88 0 0 1 2.76 4.92zM61.78 11.25a10.7 10.7 0 0 1-4.91 2.64c-1.65.4-4.32-.43-7.54-.45s-4 .36-6.92 2.37A64 64 0 0 0 33 24.35c-.6.71-1.41 1.66-.89 2.25s1.5 0 2.21-.38 4-3.29 5.83-4.47A21.1 21.1 0 0 1 47 19.23c1-.13 4.53-.3 4.8.18s-.34.72-.83.78-3.73.17-5.51.44S42.71 22 42.94 23c.18.74 1.51.36 3.8.43s4.87.19 9.28.52a9.68 9.68 0 0 0 8.23-3.64c.83-1 13.28-9.86 20.49-15H67.18c-2.66 3-5.12 5.69-5.4 5.94zM33 84.61A10.65 10.65 0 0 1 37.89 82c1.65-.39 4.32.43 7.54.45s4-.36 6.92-2.36a64.5 64.5 0 0 0 9.37-8.55c.6-.7 1.41-1.66.89-2.25s-1.51 0-2.21.39-4 3.28-5.83 4.46a21.1 21.1 0 0 1-6.84 2.52c-1 .13-4.53.3-4.8-.18s.34-.72.82-.78 3.73-.16 5.51-.44 2.79-1.4 2.55-2.38c-.18-.74-1.5-.35-3.79-.42s-4.88-.2-9.29-.53a9.68 9.68 0 0 0-8.23 3.64c-.77.9-11.74 8.76-19 14h17c2.28-2.57 4.23-4.75 4.5-4.96z"/></g></svg>