<svg id="TARGETS" xmlns="http://www.w3.org/2000/svg" viewBox="0 0 94.85 94.85" width="94.85" height="94.85"><defs><style>.cls-1{fill:#ff3a21}.cls-2{fill:#fff}</style></defs><title>Goal_5_RGB_NG</title><path class="cls-1" d="M0 0h94.85v94.85H0z"/><path class="cls-2" d="M52.93 19.09c-.53-.09-1-.16-1.59-.22l1.46-2 3.43-4.77-4.71-4.53h-8.19l-4.71 4.49 4.21 5.86.67.95-.67.09a34.3 34.3 0 1 0 10.1.13zM17.85 53a29.55 29.55 0 0 1 49.21-22.12L54.42 43.52a3.79 3.79 0 0 0-3-1.73h-8.53c-2.6 0-3.77 3.09-3.77 3.09L35.36 57.2s-.59 2 1.08 2.45 2.15-1.43 2.15-1.43l3.13-10.55s.14-.68.66-.54.32.89.32.89L40 58 25.34 72.6A29.48 29.48 0 0 1 17.85 53zm29.58 29.53a29.44 29.44 0 0 1-18.66-6.64L39.9 64.75h1.47v9.94c0 1.67.77 3 2.43 3s2.42-1.34 2.42-3v-9.94l1-4.72-1.73.79 2.63-8.65L47 58.61l1.88-.75-.84 6.89v9.94c0 1.67.76 3 2.42 3s2.43-1.34 2.43-3v-9.94h3.28L52.7 52l.9-.9 2.12 7.16s.5 1.92 2.15 1.43S59 57.2 59 57.2l-2.68-8.81 14.03-14.08a29.55 29.55 0 0 1-22.92 48.22z"/><path class="cls-2" d="M39 34c.17-.42.61-1.11 2.12-1.32a2 2 0 0 0 .78-.25 6.29 6.29 0 0 1 .93-1.3 2.19 2.19 0 0 0 0-.28c-.09-.69-.8-1.51-2.31-.8-1.86.9-1.66 3.64-1.66 3.64.02.23.06.4.14.31zM52.46 32.38a2.18 2.18 0 0 0 .86.29c1.51.21 2 .9 2.12 1.32 0 .1.08-.07.11-.31 0 0 .21-2.74-1.66-3.64-1.51-.71-2.22.11-2.31.8a3.27 3.27 0 0 0 0 .35 6.28 6.28 0 0 1 .88 1.19zM47.17 40.46A5.16 5.16 0 1 0 42 35.3a5.16 5.16 0 0 0 5.17 5.16z"/></svg>