<svg id="TARGETS" xmlns="http://www.w3.org/2000/svg" viewBox="0 0 94.85 94.85" width="94.85" height="94.85"><defs><style>.cls-1{fill:#fcc30b}.cls-2{fill:#fff}</style></defs><title>Goal_7_RGB_NG</title><path class="cls-1" d="M0 0h94.85v94.85H0z"/><path class="cls-2" d="M47.42 16.28A11.73 11.73 0 1 0 59.14 28a11.73 11.73 0 0 0-11.72-11.72zm-.87 4.64a.9.9 0 0 1 .88-.82.88.88 0 0 1 .86.82v4a.87.87 0 0 1-.86.81.89.89 0 0 1-.88-.81zM47.42 34a6.1 6.1 0 0 1-1.81-11.92v2.27a4 4 0 1 0 3.61 0v-2.26A6.1 6.1 0 0 1 47.42 34zM34 27.91a1 1 0 0 0-.9-1h-5.17a1 1 0 0 0 0 1.93h5.13a1 1 0 0 0 .94-.93zM66.93 26.94h-5.14a1 1 0 0 0 0 1.93h5.14a1 1 0 0 0 0-1.93zM47.43 14.45a1 1 0 0 0 1-.9V8.41a1 1 0 0 0-1.93 0v5.14a1 1 0 0 0 .93.9z"/><path class="cls-2" d="M47.43 41.37a1 1 0 0 0-1 .9v5.14a1 1 0 0 0 1.93 0v-5.14a1 1 0 0 0-.93-.9zM30 19.06l4.45 2.55a1 1 0 0 0 1.26-.39 1 1 0 0 0-.3-1.28L31 17.39a1 1 0 0 0-1 1.67zM64.83 36.76l-4.46-2.55a1 1 0 0 0-1.26.38 1 1 0 0 0 .3 1.29l4.46 2.55a1 1 0 0 0 1.26-.43 1 1 0 0 0-.3-1.24zM54.11 16.23a1 1 0 0 0 1.28-.31l2.55-4.45a1 1 0 0 0-1.67-1L53.72 15a1 1 0 0 0 .39 1.23zM40.74 39.59a1 1 0 0 0-1.29.31l-2.55 4.45a1 1 0 0 0 .39 1.26 1 1 0 0 0 1.28-.3l2.55-4.45a1 1 0 0 0-.38-1.27zM39.43 15.94a1 1 0 0 0 1.29.3A1 1 0 0 0 41.1 15l-2.56-4.45a1 1 0 0 0-1.67 1zM55.42 39.88a1 1 0 0 0-1.29-.31 1 1 0 0 0-.38 1.27l2.56 4.45a1 1 0 0 0 1.67-1zM60.35 21.58L64.8 19a1 1 0 0 0 .31-1.28 1 1 0 0 0-1.27-.39l-4.45 2.56a1 1 0 0 0-.3 1.29 1 1 0 0 0 1.26.4zM34.49 34.23L30 36.79a1 1 0 0 0-.3 1.29 1 1 0 0 0 1.26.38l4.45-2.56a1 1 0 0 0 .31-1.28 1 1 0 0 0-1.23-.39zM77.78 57.38a2.78 2.78 0 1 0 2.78-2.77 2.77 2.77 0 0 0-2.78 2.77zM83.8 61.23h-6.48A3.71 3.71 0 0 0 74 64.92v7.7a1.08 1.08 0 0 0 2.15 0V66c0-.25.07-.59.53-.59s.38.33.39.55v19.82a1.55 1.55 0 1 0 3.09 0V74.36a.42.42 0 0 1 .45-.45.43.43 0 0 1 .44.45v11.42a1.55 1.55 0 1 0 3.09 0V66c0-.22.08-.55.39-.55s.53.34.53.59v6.61a1.08 1.08 0 0 0 2.15 0v-7.7a3.71 3.71 0 0 0-3.41-3.72zM54.59 58.87a2.63 2.63 0 1 0 2.62-2.62 2.62 2.62 0 0 0-2.62 2.62zM60.34 66.32c.34-.1.43.36.43.36l1.76 5.92s.34 1.27 1.43 1 .72-1.63.72-1.63l-2.18-7.1s-.78-2-2.51-2h-5.56c-1.72 0-2.5 2-2.5 2l-2.19 7.1s-.39 1.3.72 1.63 1.43-1 1.43-1l1.76-5.92s.1-.46.44-.36.21.58.21.58L51.24 78h2.85v8a1.37 1.37 0 0 0 2.73 0v-8h.78v8a1.37 1.37 0 0 0 2.74 0v-8h2.84l-3.06-11.1s-.12-.48.22-.58zM38.86 58.83a2.63 2.63 0 1 0 2.63-2.62 2.63 2.63 0 0 0-2.63 2.62zM46.77 64.78s-.78-2.06-2.5-2.06h-5.56c-1.73 0-2.51 2.06-2.51 2.06l-2.2 7.1s-.39 1.3.71 1.63 1.43-1 1.43-1l1.76-5.93s.1-.45.44-.35.22.58.22.58L35.52 78h2.84v8a1.37 1.37 0 0 0 2.74 0v-8h.77v8a1.37 1.37 0 0 0 2.74 0v-8h2.85L44.4 66.86s-.13-.49.21-.58.44.35.44.35l1.75 5.93s.34 1.27 1.44 1 .71-1.63.71-1.63zM16.25 60.47a2.75 2.75 0 1 0-2.75-2.75 2.75 2.75 0 0 0 2.75 2.75zM19.46 61.52h-6.41a3.66 3.66 0 0 0-3.33 3.65v7.62a1.06 1.06 0 0 0 .42.83L7.7 86.48A.42.42 0 0 0 8 87h.1a.41.41 0 0 0 .41-.34l2.42-12.82a1.05 1.05 0 0 0 .92-1v-6.59c0-.25.06-.58.51-.58s.38.33.39.54v19.6a1.53 1.53 0 0 0 3.06 0V74.52a.42.42 0 0 1 .44-.45.42.42 0 0 1 .44.45v11.29a1.53 1.53 0 0 0 3.06 0v-19.6c0-.21.08-.54.39-.54s.51.33.51.58v6.54a1.07 1.07 0 0 0 2.13 0v-7.62a3.66 3.66 0 0 0-3.32-3.65zM66.92 71.1a2.23 2.23 0 1 0 2.23-2.23 2.23 2.23 0 0 0-2.23 2.23zM73.63 77.64c-1.34-3.46-1.56-3.44-2.78-3.47h-3.4c-1.22 0-1.44 0-2.78 3.47-.2.49-1 2.42-1 2.51s-.34.82.42 1.08.93-.56.93-.56l1.37-3.37s0-.08.08-.07.05.06.06.1v8.79a1.16 1.16 0 0 0 1.15 1.2 1.15 1.15 0 0 0 1.13-1.2v-3.51s0-.53.34-.53.35.53.35.53v3.51a1.16 1.16 0 0 0 1.15 1.2 1.13 1.13 0 0 0 1.11-1.2v-8.79-.11l.1.08 1.23 3s.36.81 1 .49.32-1 .32-1-.59-1.66-.78-2.15zM32.91 72a.82.82 0 0 0-1.1.36 21.75 21.75 0 0 1-1.4 2.14.89.89 0 0 1-.68.32h-2.66a.88.88 0 0 1-.68-.32C26 74.19 25 72.36 25 72.31a.77.77 0 0 0-.69-.37.8.8 0 0 0-.8.8 1.52 1.52 0 0 0 .08.35l2.22 4a1.42 1.42 0 0 1 .13.53v.59a2.44 2.44 0 0 1-.11.68l-1.06 4.21h1.13v3.13a1.09 1.09 0 0 0 2.17 0v-3a.47.47 0 0 1 0-.13h.65a.47.47 0 0 1 0 .13v3a1.09 1.09 0 0 0 2.17 0v-3.12h1.17L31 78.91a3.62 3.62 0 0 1-.09-.56V77.63a1.35 1.35 0 0 1 .09-.53l2-3.7.19-.39a.71.71 0 0 0-.28-1.01z"/><path class="cls-2" d="M28.4 73.46a2.2 2.2 0 1 0-2.2-2.2 2.19 2.19 0 0 0 2.2 2.2z"/></svg>