<svg id="TARGETS" xmlns="http://www.w3.org/2000/svg" viewBox="0 0 94.85 94.85" width="94.85" height="94.85"><defs><style>.cls-1{fill:#26bde2}.cls-2{fill:#fff}</style></defs><title>Goal_6_RGB_NG</title><path class="cls-1" d="M0 0h94.85v94.85H0z"/><path class="cls-2" d="M65.26 71.6l-.09.07c-.3.33.09-.07.09-.07zM41.26 34.33v23.39h-30.6V34.33H9.53v24.52h32.86V34.33h-1.13z"/><path class="cls-2" d="M12.45 45.85c5.95 5.5 12.14.94 13.43-.13l.12-.12a.25.25 0 0 1 .12 0 .27.27 0 0 1 .13 0l.13.12c1.28 1.07 7.37 5.55 13.26.28l.18-.16a.29.29 0 0 0 .07-.19v-2.9a.28.28 0 0 0-.28-.28h-.09l-.12.09c-1.78 1.28-7.68 4.81-13-.13l-.08-.07a.33.33 0 0 0-.23-.1.32.32 0 0 0-.22.1l-.08.07c-5.21 4.86-11 1.51-12.9.19l-.14-.11a.28.28 0 0 0-.15 0 .27.27 0 0 0-.27.24v3a.35.35 0 0 0 .12.1z"/><path class="cls-2" d="M12.45 52.47c5.95 5.5 12.14.94 13.43-.14l.13-.11h.12a.28.28 0 0 1 .13 0l.13.11c1.28 1.07 7.37 5.56 13.26.28l.18-.15a.29.29 0 0 0 .07-.19v-2.9a.28.28 0 0 0-.28-.28h-.09l-.12.08c-1.78 1.29-7.68 4.82-13-.12l-.05-.05a.36.36 0 0 0-.23-.09.36.36 0 0 0-.22.09l-.08.08c-5.21 4.86-11 1.51-12.9.18l-.14-.1a.28.28 0 0 0-.15 0 .27.27 0 0 0-.27.24v3a.28.28 0 0 0 .08.07zM12.88 39.93a.46.46 0 1 0-.46-.46.47.47 0 0 0 .46.46zM14.93 39.93a.46.46 0 0 0 0-.92.46.46 0 0 0 0 .92zM17 39.93a.46.46 0 0 0 0-.93.46.46 0 1 0 0 .92zM19 39.93a.46.46 0 0 0 0-.93.46.46 0 0 0 0 .92zM21.09 39.93a.46.46 0 0 0 0-.92.46.46 0 0 0 0 .92zM23.14 39.93a.46.46 0 1 0-.46-.46.47.47 0 0 0 .46.46zM25.2 39.93a.46.46 0 0 0 0-.92.46.46 0 0 0 0 .92zM27.25 39.93a.46.46 0 0 0 0-.92.46.46 0 0 0 0 .92zM29.3 39.93a.46.46 0 0 0 0-.92.46.46 0 0 0 0 .92zM31.36 39.93a.46.46 0 0 0 0-.92.46.46 0 0 0 0 .92zM33.41 39.93a.46.46 0 1 0-.46-.46.47.47 0 0 0 .46.46zM35.46 39.93a.46.46 0 0 0 0-.92.46.46 0 0 0 0 .92zM37.52 39.93a.46.46 0 0 0 0-.92.46.46 0 0 0 0 .92zM39.57 39.93a.46.46 0 1 0-.46-.46.47.47 0 0 0 .46.46zM14 38.34a.47.47 0 0 0 .46-.46.46.46 0 0 0-.92 0 .47.47 0 0 0 .46.46zM16.06 38.34a.46.46 0 0 0 .46-.46.45.45 0 0 0-.46-.46.46.46 0 0 0-.46.46.47.47 0 0 0 .46.46zM18.12 38.34a.47.47 0 0 0 .46-.46.46.46 0 0 0-.46-.46.45.45 0 0 0-.46.46.46.46 0 0 0 .46.46zM20.17 38.34a.47.47 0 0 0 .46-.46.46.46 0 1 0-.92 0 .47.47 0 0 0 .46.46zM22.22 38.34a.46.46 0 0 0 .46-.46.45.45 0 0 0-.46-.46.46.46 0 0 0-.46.46.47.47 0 0 0 .46.46zM24.28 38.34a.47.47 0 0 0 .46-.46.46.46 0 0 0-.46-.46.45.45 0 0 0-.46.46.46.46 0 0 0 .46.46zM26.33 38.34a.47.47 0 0 0 .46-.46.46.46 0 0 0-.46-.46.45.45 0 0 0-.46.46.46.46 0 0 0 .46.46zM28.38 38.34a.46.46 0 0 0 .46-.46.45.45 0 0 0-.46-.46.46.46 0 0 0-.46.46.47.47 0 0 0 .46.46zM30.44 38.34a.47.47 0 0 0 .46-.46.47.47 0 0 0-.93 0 .47.47 0 0 0 .47.46zM32.49 38.34a.47.47 0 0 0 .46-.46.46.46 0 0 0-.46-.46.45.45 0 0 0-.46.46.46.46 0 0 0 .46.46zM34.54 38.34a.46.46 0 0 0 .46-.46.45.45 0 0 0-.46-.46.46.46 0 0 0-.46.46.47.47 0 0 0 .46.46zM36.59 38.34a.46.46 0 0 0 .46-.46.45.45 0 0 0-.46-.46.46.46 0 0 0-.46.46.47.47 0 0 0 .46.46zM38.65 38.34a.47.47 0 0 0 .46-.46.46.46 0 0 0-.46-.46.45.45 0 0 0-.46.46.46.46 0 0 0 .46.46zM13 36.74a.45.45 0 0 0 .46-.46.46.46 0 0 0-.46-.46.47.47 0 0 0-.46.46.46.46 0 0 0 .46.46zM15 36.74a.46.46 0 0 0 .46-.46.47.47 0 0 0-.46-.46.46.46 0 0 0-.46.46.45.45 0 0 0 .46.46zM17.09 36.74a.46.46 0 0 0 .46-.46.46.46 0 0 0-.92 0 .46.46 0 0 0 .46.46zM19.14 36.74a.45.45 0 0 0 .46-.46.46.46 0 0 0-.46-.46.47.47 0 0 0-.46.46.46.46 0 0 0 .46.46zM21.2 36.74a.46.46 0 0 0 .46-.46.47.47 0 0 0-.46-.46.46.46 0 0 0-.46.46.45.45 0 0 0 .46.46zM23.25 36.74a.46.46 0 0 0 .46-.46.46.46 0 0 0-.92 0 .46.46 0 0 0 .46.46zM25.3 36.74a.45.45 0 0 0 .46-.46.46.46 0 0 0-.46-.46.47.47 0 0 0-.46.46.46.46 0 0 0 .46.46zM27.36 36.74a.46.46 0 0 0 .46-.46.47.47 0 0 0-.46-.46.46.46 0 0 0-.46.46.45.45 0 0 0 .46.46zM29.41 36.74a.46.46 0 0 0 .46-.46.47.47 0 0 0-.46-.46.46.46 0 0 0-.46.46.45.45 0 0 0 .46.46zM31.46 36.74a.45.45 0 0 0 .46-.46.46.46 0 0 0-.46-.46.47.47 0 0 0-.46.46.46.46 0 0 0 .46.46zM33.51 36.74a.45.45 0 0 0 .46-.46.46.46 0 0 0-.46-.46.47.47 0 0 0-.46.46.46.46 0 0 0 .46.46zM35.57 36.74a.46.46 0 0 0 .46-.46.47.47 0 0 0-.46-.46.46.46 0 0 0-.46.46.45.45 0 0 0 .46.46zM37.62 36.74a.45.45 0 0 0 .46-.46.46.46 0 0 0-.46-.46.47.47 0 0 0-.46.46.46.46 0 0 0 .46.46zM39.67 36.74a.45.45 0 0 0 .46-.46.46.46 0 0 0-.46-.46.47.47 0 0 0-.46.46.46.46 0 0 0 .46.46zM85.26 34.07A.31.31 0 0 0 85 34H61.11a.27.27 0 0 0-.21.09.25.25 0 0 0-.06.23l4 24.31a.28.28 0 0 0 .27.24h16.17a.28.28 0 0 0 .28-.24l3.76-24.33a.32.32 0 0 0-.06-.23zM76 53.54a4.63 4.63 0 0 1-5.72 0 4.25 4.25 0 0 1-.53-5.17c.39-.72 3.14-4.86 3.38-5.21.23.35 3 4.49 3.38 5.21a4.25 4.25 0 0 1-.51 5.17zm7.6-14.35a3 3 0 0 0-2.26.13c-3 1.21-5 1.64-8.11.66-2-.61-3.81-1.9-6-1.12a12.31 12.31 0 0 1-4.42 1L61.88 35h22.4zM71.35 73.38l-2.78-2.23a.59.59 0 0 0-.87 0c-8.85 10.48-24 11.58-34.77 3-.33-.26-.63-.54-.94-.81l3.16-2c.32-.2-.12-.46-.12-.46l-10.82-5.41c-.34-.18-.39 0-.39.17v.1L23.77 78c0 .12.09.42.35.25l3.54-2.21c.69.67 1.41 1.32 2.17 1.93 12.79 10.26 30.92 8.89 41.47-3.54l.11-.14a.62.62 0 0 0-.06-.91zM23.88 22.79l2.91 2.07a.58.58 0 0 0 .86-.11c8.22-11 23.3-12.95 34.54-4.95.34.24.66.5 1 .75l-3 2.16c-.3.21.15.45.15.45L71.41 28c.35.16.38-.06.38-.19v-.1l-.66-12.26c0-.12-.12-.42-.36-.24l-3.45 2.39q-1.08-.95-2.28-1.8c-13.36-9.51-31.38-7.09-41.19 5.93l-.1.14a.61.61 0 0 0 .13.92z"/></svg>