<svg id="TARGETS" xmlns="http://www.w3.org/2000/svg" viewBox="0 0 94.85 94.85" width="94.85" height="94.85"><defs><style>.cls-1{fill:#3f7e44}.cls-2{fill:#fff}</style></defs><title>Goal_13_RGB_NG</title><path class="cls-1" d="M0 0h94.85v94.85H0z"/><path class="cls-2" d="M55.94 48.4h1.64v4.36a.15.15 0 0 0 .14.15h2a.15.15 0 0 0 .14-.15v-4.38h3.24A3.79 3.79 0 0 0 65.85 42a3.54 3.54 0 0 0-1.76-6.61h-.23a4.79 4.79 0 0 0-9.56.36 4.86 4.86 0 0 0 .48 2.09 5.35 5.35 0 0 0 1.16 10.56zM49.5 55.17a.93.93 0 1 0 1.85 0 .93.93 0 0 0-1.85 0zM53.68 55.17a.93.93 0 1 0 .92-.92.92.92 0 0 0-.92.92zM57.85 55.17a.93.93 0 1 0 .92-.92.92.92 0 0 0-.92.92zM63 56.1a.93.93 0 1 0-.93-.93.92.92 0 0 0 .93.93zM66.19 55.17a.93.93 0 1 0 1.85 0 .93.93 0 0 0-1.85 0zM51.41 52a.93.93 0 1 0 .93-.93.93.93 0 0 0-.93.93zM65.38 52.9a.93.93 0 1 0-.93-.93.93.93 0 0 0 .93.93zM36.25 17.94l-11.53 5.22-1.13-.38 2.12-.94 3.11-3.05-.58-.74-7.41-4.41 8.94-.45 2.29 3.19 3.06-.64s2.69 1.68 2.17 2.77c-.23-.4-1.04-.57-1.04-.57z"/><g><path class="cls-2" d="M73.14 34.89v21.16a.34.34 0 0 0 .34.33h7.85v-7.91a.38.38 0 0 1 .38-.38h3.88a.38.38 0 0 1 .37.38v7.91h1.31a.33.33 0 0 0 .33-.33V17.51a.32.32 0 0 0 0-.14.38.38 0 0 0-.35-.27.34.34 0 0 0-.19.07l-.12.14-3.25 4.13-.63.8-4.41 5.59-3.5 4.44-1.77 2.24-.06.09a.42.42 0 0 0-.18.29zM86 26.94a.39.39 0 0 1-.37.39h-3.47a.39.39 0 0 1-.37-.39.35.35 0 0 1 .07-.23l.1-.12c.93-1.19 2.49-3.12 3.25-4.05l.1-.12a.39.39 0 0 1 .31-.15.38.38 0 0 1 .37.32zm-4.79 16.53a.34.34 0 0 1 .34-.34h4.11a.34.34 0 0 1 .34.34V46a.34.34 0 0 1-.34.34h-4.11a.34.34 0 0 1-.34-.34zm0-4.76a.34.34 0 0 1 .34-.33h4.11a.34.34 0 0 1 .34.33v2.58a.34.34 0 0 1-.34.33h-4.11a.34.34 0 0 1-.34-.33zm0-4.75a.34.34 0 0 1 .34-.34h4.11A.34.34 0 0 1 86 34v2.57a.34.34 0 0 1-.34.34h-4.11a.34.34 0 0 1-.34-.34zm0-4.76a.34.34 0 0 1 .34-.34h4.11a.34.34 0 0 1 .34.34v2.57a.34.34 0 0 1-.34.34h-4.11a.34.34 0 0 1-.34-.34zm-1.48 7.34a.34.34 0 0 1-.34.33h-4.11a.34.34 0 0 1-.34-.33v-.72a.27.27 0 0 1 0-.12c.53-.75 2.9-3.68 3.9-4.9l.1-.12a.37.37 0 0 1 .3-.14.4.4 0 0 1 .38.31zm-4.46 1.84h4.11a.34.34 0 0 1 .34.33v2.58a.34.34 0 0 1-.34.33h-4.11a.34.34 0 0 1-.34-.33v-2.58a.34.34 0 0 1 .34-.33zM79.72 46a.34.34 0 0 1-.34.34h-4.11a.34.34 0 0 1-.34-.34v-2.53a.34.34 0 0 1 .34-.34h4.11a.34.34 0 0 1 .34.34zm-4.84 2.37a.38.38 0 0 1 .38-.38h4a.38.38 0 0 1 .38.38v2.43a.38.38 0 0 1-.38.38h-4a.38.38 0 0 1-.38-.38z"/><rect class="cls-2" x="78.68" y="17.33" width=".76" height="17.19" rx=".29" ry=".29" transform="rotate(-141.72 79.064 25.921)"/></g><g><path class="cls-2" d="M54.84 11.34A3.77 3.77 0 1 0 60 12.68a3.77 3.77 0 0 0-5.16-1.34z"/><path class="cls-2" d="M60.18 19.86l-.84-1.43a.31.31 0 0 0-.41-.09.32.32 0 0 0-.12.41l.84 1.42a.31.31 0 0 0 .53-.31zM54.53 10.88a.31.31 0 0 0 .11-.41L53.81 9a.31.31 0 0 0-.54.32l.84 1.42a.33.33 0 0 0 .42.14zM53 16.81a.31.31 0 0 0-.4-.12l-1.43.84a.31.31 0 0 0-.09.41.31.31 0 0 0 .41.12l1.42-.84a.31.31 0 0 0 .09-.41zM60.46 12.41a.33.33 0 0 0 .41.12l1.42-.84a.32.32 0 0 0 .09-.42.31.31 0 0 0-.4-.12l-1.43.85a.32.32 0 0 0-.09.41zM57.12 20.88v-1.65a.33.33 0 0 0-.32-.29.32.32 0 0 0-.31.29v1.66a.32.32 0 0 0 .31.29.33.33 0 0 0 .32-.3zM57 10V8.35a.33.33 0 0 0-.36-.35.32.32 0 0 0-.31.29v1.66a.32.32 0 0 0 .31.29A.33.33 0 0 0 57 10zM52.39 14.66a.31.31 0 0 0-.29-.3h-1.65a.32.32 0 0 0-.29.31.32.32 0 0 0 .3.31h1.65a.31.31 0 0 0 .28-.32zM61.35 14.86h1.66a.31.31 0 0 0 .28-.32.31.31 0 0 0-.29-.3h-1.65a.32.32 0 0 0-.29.31.32.32 0 0 0 .29.31zM54.71 18.78a.3.3 0 0 0-.12-.4.31.31 0 0 0-.42.1l-.81 1.43a.32.32 0 0 0 .12.41.33.33 0 0 0 .42-.1zM60.09 9.3a.3.3 0 0 0-.09-.4.3.3 0 0 0-.41.1l-.82 1.43a.31.31 0 0 0 .54.31zM52.86 12.06l-1.44-.82a.32.32 0 0 0-.41.13.31.31 0 0 0 .11.41l1.43.82a.33.33 0 0 0 .41-.13.31.31 0 0 0-.1-.41zM60.59 17.16L62 18a.32.32 0 0 0 .41-.13.32.32 0 0 0-.1-.41l-1.44-.82a.32.32 0 0 0-.41.13.32.32 0 0 0 .13.39zM77.08 21.7L74.21 19l1.06-1.12-4-.94 1.18 3.93 1.06-1.12 2.86 2.69a.51.51 0 0 0 .73 0 .52.52 0 0 0-.02-.74zM67.83 21.63l2.86 2.7-1 1.12 4 .94-1.18-3.93-1 1.12-2.86-2.7a.52.52 0 0 0-.71.75z"/></g><g><path class="cls-2" d="M26.31 37.36a1.77 1.77 0 1 0-1.76 1.76 1.76 1.76 0 0 0 1.76-1.76zM26.61 39.8h-4.12a2.36 2.36 0 0 0-2.14 2.35V47a.69.69 0 0 0 1.37 0v-4.2c0-.16 0-.37.33-.37s.24.21.25.34V55.4a1 1 0 0 0 2 0v-7.25a.27.27 0 0 1 .28-.29.27.27 0 0 1 .28.29v7.25a1 1 0 0 0 2 0V42.81c0-.13 0-.34.24-.34s.34.21.34.37V47a.68.68 0 0 0 1.36 0v-4.85a2.35 2.35 0 0 0-2.19-2.35zM39.27 37.64A1.73 1.73 0 1 0 41 35.91a1.72 1.72 0 0 0-1.73 1.73zM44.48 41.56s-.51-1.35-1.65-1.35h-3.66c-1.14 0-1.65 1.35-1.65 1.35l-1.44 4.67s-.26.86.47 1.08 1-.63 1-.63l1.15-3.9s.07-.3.29-.24.14.39.14.39l-2 7.32H39v5.23a.9.9 0 1 0 1.8 0v-5.23h.51v5.23a.91.91 0 0 0 1.81 0v-5.23h1.87l-2-7.32s-.08-.32.15-.39.28.24.28.24l1.16 3.9s.22.84 1 .63.47-1.08.47-1.08z"/><g><path class="cls-2" d="M35.14 47.33a.49.49 0 0 0-.66.21 12.57 12.57 0 0 1-.82 1.27.56.56 0 0 1-.41.19h-1.57a.56.56 0 0 1-.41-.19c-.2-.2-.8-1.28-.84-1.32a.47.47 0 0 0-.41-.22.48.48 0 0 0-.47.48 1 1 0 0 0 0 .2l1.32 2.38a.81.81 0 0 1 .08.31V51a1.39 1.39 0 0 1-.07.4l-.63 2.49H31v1.85a.64.64 0 1 0 1.28 0v-1.85h.39v1.85a.64.64 0 0 0 1.28 0v-1.85h.7L34 51.4a2.38 2.38 0 0 1-.06-.33V50.66a.81.81 0 0 1 .08-.31l1.21-2.19s.08-.17.12-.23a.43.43 0 0 0-.21-.6z"/><path class="cls-2" d="M32.46 48.18a1.31 1.31 0 1 0 0-2.61 1.31 1.31 0 0 0 0 2.61z"/></g><g><path class="cls-2" d="M12.71 38.18a1.73 1.73 0 1 0 3.45 0 1.71 1.71 0 0 0-.89-1.5.62.62 0 0 0 .09-.3.8.8 0 0 0-.87-.69.8.8 0 0 0-.87.69.55.55 0 0 0 .07.25 1.72 1.72 0 0 0-.98 1.55zM17.91 41.54s-.51-1.35-1.65-1.35h-3.65c-1.14 0-1.65 1.35-1.65 1.35l-1.43 4.67s-.21.7.31 1a.11.11 0 0 0 0 .07l-1.69 8.8a.28.28 0 0 0 .22.31h.05a.27.27 0 0 0 .26-.22l1.68-8.79v-.07c.45-.09.61-.64.61-.64l1.15-3.9s.07-.3.29-.23.14.38.14.38l-2 7.3h1.87v5.23a.9.9 0 1 0 1.8 0v-5.24h.51v5.23a.9.9 0 0 0 1.8 0v-5.23h1.87l-2-7.3s-.09-.32.14-.38.29.23.29.23l1.15 3.9s.22.83.94.62.47-1.07.47-1.07z"/></g></g><g><path class="cls-2" d="M7.16 59.49h18.77v5.57H7.16zM27.74 59.49h18.77v5.57H27.74zM48.31 59.49h18.77v5.57H48.31zM68.89 59.49h18.77v5.57H68.89zM7.29 67.41h80.5v5.57H7.29z"/></g><path d="M87.35 79.27h-.1l-.25.13A15 15 0 0 1 69.46 77a.7.7 0 0 0-.41-.25.88.88 0 0 0-.4.23c-2.11 1.63-11.89 8.22-20.58.12l-.13-.13a.52.52 0 0 0-.35-.14.48.48 0 0 0-.35.14l-.13.13c-8.69 8.1-18.47 1.5-20.59-.12-.12-.1-.19-.2-.4-.2a.64.64 0 0 0-.41.22c-7.14 6.74-15 3.73-17.54 2.46l-.25-.13h-.09a.49.49 0 0 0-.49.49v3.41a.48.48 0 0 0 .14.34c8.25 7.17 16.06.47 17.86-1.31a.75.75 0 0 1 .18-.16.29.29 0 0 1 .22-.07.53.53 0 0 1 .35.15c9.31 8.88 19.08 1.69 21.11 0l.2-.18a.24.24 0 0 1 .18-.08.27.27 0 0 1 .2.08l.2.18c2 1.69 11.79 8.88 21.11 0a.51.51 0 0 1 .33-.13.52.52 0 0 1 .28.09.58.58 0 0 1 .13.14c1.81 1.77 9.6 8.48 17.86 1.31a.48.48 0 0 0 .14-.34v-3.49a.49.49 0 0 0-.49-.49"/></svg>