<svg id="TARGETS" xmlns="http://www.w3.org/2000/svg" viewBox="0 0 94.85 94.85" width="94.85" height="94.85"><defs><style>.cls-1{fill:#19486a}.cls-2{fill:#fff}</style></defs><title>Goal_17_RGB_NG</title><path class="cls-1" d="M0 0h94.85v94.85H0z"/><path class="cls-2" d="M87.4 47.26a.68.68 0 0 0-.71-.63h-1c-.4 0-.72-.11-.83-.5a11.9 11.9 0 0 0-.66-2 .85.85 0 0 1 .26-1c.31-.25.55-.46.85-.73a.68.68 0 0 0 .17-.88 10.08 10.08 0 0 0-1.58-2.09.67.67 0 0 0-.94-.09l-.84.57c-.33.24-.65.34-1 .09-.6-.45-1.28-.94-1.68-1.2a.84.84 0 0 1-.38-1c.1-.39.18-.7.26-1.09A.68.68 0 0 0 79 36a9.92 9.92 0 0 0-2.5-.77.67.67 0 0 0-.81.48c-.14.36-.23.62-.35 1s-.33.66-.74.64h-2.06a.83.83 0 0 1-.86-.55c-.15-.37-.27-.67-.43-1a.7.7 0 0 0-.79-.44 10.17 10.17 0 0 0-2.47.85.68.68 0 0 0-.38.87c.1.37.18.63.29 1s.12.73-.23 1-1.19.85-1.65 1.23a.85.85 0 0 1-1 .06l-1-.58a.68.68 0 0 0-.89.11 9.93 9.93 0 0 0-1.5 2.14.66.66 0 0 0 .21.92c.29.24.51.41.8.63s.52.51.38.9-.49 1.55-.62 2a.84.84 0 0 1-.79.66c-.4 0-.72 0-1.11.09a.67.67 0 0 0-.66.61 9.5 9.5 0 0 0 0 2.61.66.66 0 0 0 .7.63h1c.34 0 .72.11.83.5a17.06 17.06 0 0 0 .66 2 .83.83 0 0 1-.25 1l-.85.73a.68.68 0 0 0-.17.88 9.46 9.46 0 0 0 1.57 2.09.67.67 0 0 0 .94.09l.85-.57c.33-.24.65-.34 1-.08s1.27.93 1.67 1.19a.85.85 0 0 1 .39.95c-.11.39-.18.7-.27 1.09a.7.7 0 0 0 .39.82 10 10 0 0 0 2.49.76.67.67 0 0 0 .82-.48c.13-.35.23-.61.35-1s.32-.66.74-.64h2.05a.83.83 0 0 1 .87.54c.14.38.27.67.43 1a.69.69 0 0 0 .79.43 9.76 9.76 0 0 0 2.47-.85.67.67 0 0 0 .37-.87c-.1-.36-.17-.63-.28-1s-.12-.72.22-.95 1.3-.94 1.66-1.22a.83.83 0 0 1 1-.07l1 .59a.7.7 0 0 0 .9-.12 9.93 9.93 0 0 0 1.5-2.14.68.68 0 0 0-.21-.92l-.8-.63c-.33-.24-.53-.51-.38-.9s.47-1.47.62-2a.82.82 0 0 1 .78-.65l1.12-.09a.71.71 0 0 0 .66-.62 9.92 9.92 0 0 0-.07-2.69zM73.67 57.43a8.55 8.55 0 1 1 8.57-8.53 8.57 8.57 0 0 1-8.57 8.53z"/><path class="cls-2" d="M67.37 46.43c.2.14.33 0 .41-.11a.25.25 0 0 0 0-.3c0-.11.1-.18.2-.21a4.49 4.49 0 0 0 .57-.34 1.93 1.93 0 0 1 1.15 0 .61.61 0 0 0 .75-.14 2.07 2.07 0 0 1 .55-.46c.11 0-.27-.4-.58 0s-.47.42-.62.42-1-.22-1.12-.5.27-.48.59-.63a8.15 8.15 0 0 1 1.43-.2c.46-.1 1-.33 1.33-.12s-1.23.53-.72.81c.17.09 1-.47 1.25-.61.65-.33-.62-.44-.45-1.12s-1.49-.49-2.38-.42a7.36 7.36 0 0 0-1.18.9c.11 0 .22.06.24.13a1 1 0 0 1-.11.48 1.25 1.25 0 0 1-.8.36.26.26 0 0 1-.14-.07 4.91 4.91 0 0 0-.38.55 1.1 1.1 0 0 1 .55-.19c.19 0 .45.06.47.19s-.47.35-.56.43c-.26.24-.67.73-.91.78a.22.22 0 0 1-.18 0c-.06.17-.13.33-.18.5a.92.92 0 0 1 .82-.13zM79.76 48.5a1.83 1.83 0 0 1-.8.32 1 1 0 0 0-.39.9c.06.29.74 1.08.23 1a2.85 2.85 0 0 1-1.17-1c-.15-.41-.32-.82-.44-1.14a.45.45 0 0 0-.71-.21c-.27.18.07.37-.12.76s-.33.74-.62.42c-.73-.85-1.8-.44-2-1.37-.09-.51-.53-.47-.89-.75s-.58-.45-.64-.24 1.15 1.14 1.23 1.39-.36.68-.72.77-.51-.2-.86-.57-.5-.63-.53-.34a1.64 1.64 0 0 0 .69 1.25c.31.2.64.28.55.6s0 .13-.35.47a.91.91 0 0 0-.38.91c0 .48-.1.5-.18.89s-.24.05-.39.63a2.18 2.18 0 0 1-.47 1 1.59 1.59 0 0 1-1 .39c-.34 0-.38-1-.38-1.42 0-.16-.23.32-.35-.66-.07-.63-.48.07-.51-.35s-.23-.34-.44-.6-.47 0-.76.16-.17.2-.59.06a7.52 7.52 0 0 0 4.82 4.31.29.29 0 0 1-.09-.36 1.69 1.69 0 0 1 1.5-.92c1.22-.11 2.82.8 3.08.66s.77-.82 1.53-.79a1.19 1.19 0 0 1 .68.17 6.69 6.69 0 0 0 .76-.65 1.13 1.13 0 0 1-.24-.08c-.41-.21-.36.12-.57 0s.24-.54-.37-.15-.45-.06-.71-.73a1.38 1.38 0 0 1 .79-1.61 9.43 9.43 0 0 1 1.37-.36c.91-.22 1.1-.76 1.26-.43l.09.17a1.24 1.24 0 0 1 .11.46 6.89 6.89 0 0 0 .33-1.12c-.21-.09-1-1.23-.36-2 .11-.12-.22-.5-.13-.51a.58.58 0 0 1 .62.46 7.49 7.49 0 0 0-.24-1.11 1.09 1.09 0 0 1 0 .26.49.49 0 0 1-.88.07c-.07-.11-.4-.42-.39.1s.51.58.03.89zm-7.08 3c-.11.17-.4 1.44-.59 1.29s.09-1.47.14-1.57c.3-.59.94-.56.45.24zm3.08-1.5a.68.68 0 0 1-.76-.1c-.19-.14.12-.39.23-.39.3-.03.68.33.53.49zm3.11-.27a.17.17 0 0 1 .24-.22c.16.09.36.32.36.44s-.3.11-.38.07-.16-.13-.22-.32zm1 1a.66.66 0 0 1-.72-.06c-.19-.15.12-.39.23-.4s.62.29.51.42zM67.09 47.26a7.42 7.42 0 0 1 1.23.31c.44.17 1.12.54 1.52.38s.52-.28.5-.52-.27-.37-.56-.17c-.11.08-.34-.46-.51-.43s.22.62.06.65-.45-.62-.5-.73-.29-.36-.5-.17c-.44.42-1.16.4-1.31.51a.37.37 0 0 1-.15.08c-.29.12-.39-.18-.39-.41a7 7 0 0 0-.26 1.29v-.06c.25-.46.3-.51.38-.55a2 2 0 0 1 .29-.12zM71.78 73.38L69 71.15a.58.58 0 0 0-.86 0c-8.84 10.48-24 11.58-34.77 3-.32-.26-.63-.54-.94-.81l3.16-2c.32-.2-.12-.46-.12-.46l-10.84-5.41c-.34-.18-.39 0-.39.17V78.02c0 .12.09.42.35.25l3.54-2.21c.69.67 1.41 1.32 2.17 1.93 12.8 10.26 30.92 8.89 41.47-3.54l.11-.14a.62.62 0 0 0-.1-.93zM24.3 22.79l2.91 2.07a.59.59 0 0 0 .87-.11c8.22-11 23.3-12.95 34.54-4.95.34.24.66.5 1 .75l-3 2.16c-.31.21.14.45.14.45L71.83 28c.35.16.39-.06.38-.19v-.1l-.65-12.26c0-.12-.12-.42-.37-.24l-3.45 2.39q-1.08-.95-2.28-1.8C52.1 6.29 34.08 8.71 24.27 21.73l-.1.14a.61.61 0 0 0 .13.92z"/><g><path class="cls-2" d="M20.1 55.55a5.36 5.36 0 0 1-1.4.62 14 14 0 0 1-4.36.54 17.89 17.89 0 0 1-2.16-.16 12.65 12.65 0 0 1-1.31-.26c-.23 0-.44-.11-.65-.17a5.39 5.39 0 0 1-1.69-.81 1.94 1.94 0 0 1-.48-.51v1.42a1.22 1.22 0 0 0 .5.92A7 7 0 0 0 12 58.4a16 16 0 0 0 2.48.19 14.72 14.72 0 0 0 3.52-.41 7.51 7.51 0 0 0 1.8-.7c.6-.36.94-.78.94-1.23 0 0 .05-1.29 0-1.4a3 3 0 0 1-.64.7zM13.83 51.23c3.52 0 6.38-1.06 6.38-2.36 0 0 .07-1.22.05-1.48a1.46 1.46 0 0 0-.11-.5 1.47 1.47 0 0 0 .72-1.07s.06-1.36 0-1.62c-.17-1.6-3.38-2.45-6.41-2.45s-6.43.91-6.43 2.59c0 .08.06 1.48.06 1.48a1.09 1.09 0 0 0 .08.28 1.61 1.61 0 0 0-.8 1.29c0 .08.06 1.48.06 1.48a1.28 1.28 0 0 0 .5.92 7.15 7.15 0 0 0 3.39 1.26 16.06 16.06 0 0 0 2.51.18zm.66-8.82c3.4 0 5.77 1 5.77 1.93s-2.37 1.93-5.77 1.93-5.76-1-5.76-1.93 2.36-1.93 5.76-1.93zm-6.43 5a1 1 0 0 1 .5-.72 3.52 3.52 0 0 0 .65.47 11.78 11.78 0 0 0 5.29 1 13.34 13.34 0 0 0 4.5-.69c.21-.08.38-.17.56-.25a.8.8 0 0 1 0 .15c0 .91-2.36 1.93-5.76 1.93s-5.74-1-5.74-1.91z"/><path class="cls-2" d="M11.93 56.12a16.15 16.15 0 0 0 2.48.18 15.14 15.14 0 0 0 3.59-.4 7 7 0 0 0 1.81-.71 2.44 2.44 0 0 0 .39-.28 1.49 1.49 0 0 0 .48-.62.78.78 0 0 0 .07-.33v-1.41c-.21.27-.76 1.11-3.27 1.62a20 20 0 0 1-3.25.28 11.89 11.89 0 0 1-5.1-1 3.75 3.75 0 0 1-.8-.55 3.21 3.21 0 0 1-.33-.5V54a1.28 1.28 0 0 0 .5.9 7.19 7.19 0 0 0 3.43 1.22z"/><path class="cls-2" d="M20.07 51a3.21 3.21 0 0 1-.37.21s-.39.18-.56.24l-.56.18-.76.18-1 .16-1 .09-1.47.07a14.17 14.17 0 0 1-2-.15c-.49-.07-1-.16-1.44-.27a8.23 8.23 0 0 1-1.52-.48A2.78 2.78 0 0 1 8.09 50V51.61a1.28 1.28 0 0 0 .5.92A7.15 7.15 0 0 0 12 53.82a16.06 16.06 0 0 0 2.48.18 15.2 15.2 0 0 0 3.57-.4 6.81 6.81 0 0 0 1.8-.71 2.55 2.55 0 0 0 .4-.28 1.58 1.58 0 0 0 .55-.61 1 1 0 0 0 .07-.33s.05-1.35.05-1.38a.8.8 0 0 0-.21-.58l-.16-.14a1.15 1.15 0 0 0-.27-.14 1.48 1.48 0 0 1-.28.37l.25.14a.63.63 0 0 1 .3.49.57.57 0 0 1-.23.42 1.8 1.8 0 0 1-.25.15z"/><g><path class="cls-2" d="M49.56 55.55a5.21 5.21 0 0 1-1.4.62 13.9 13.9 0 0 1-4.35.54 17.75 17.75 0 0 1-2.16-.16 12.65 12.65 0 0 1-1.31-.26c-.23 0-.45-.11-.65-.17a5.42 5.42 0 0 1-1.7-.81 2.08 2.08 0 0 1-.47-.51v1.42a1.25 1.25 0 0 0 .5.92 7.09 7.09 0 0 0 3.39 1.26 16.25 16.25 0 0 0 2.49.19 14.72 14.72 0 0 0 3.57-.41 7.44 7.44 0 0 0 1.81-.7c.59-.36.94-.78.94-1.23 0 0 .05-1.29 0-1.4a2.67 2.67 0 0 1-.66.7zM43.3 51.23c3.52 0 6.37-1.06 6.37-2.36 0 0 .07-1.22 0-1.48a1.46 1.46 0 0 0-.11-.5 1.45 1.45 0 0 0 .73-1.07V44.2C50.2 42.6 47 41.75 44 41.75s-6.43.91-6.43 2.59c0 .08.06 1.48.06 1.48a1 1 0 0 0 .07.28 1.61 1.61 0 0 0-.8 1.29c0 .08.06 1.48.06 1.48a1.26 1.26 0 0 0 .51.92 7.11 7.11 0 0 0 3.39 1.26 16.06 16.06 0 0 0 2.44.18zm.7-8.82c3.39 0 5.76 1 5.76 1.93s-2.41 1.93-5.76 1.93-5.77-1-5.77-1.93 2.33-1.93 5.77-1.93zm-6.43 5a1 1 0 0 1 .5-.72 3.21 3.21 0 0 0 .65.47 11.7 11.7 0 0 0 5.28 1 13.41 13.41 0 0 0 4.51-.69c.2-.08.38-.17.55-.25a.42.42 0 0 1 0 .15c0 .91-2.37 1.93-5.77 1.93s-5.76-1-5.76-1.91z"/><path class="cls-2" d="M41.4 56.12a16.06 16.06 0 0 0 2.48.18 15.27 15.27 0 0 0 3.57-.4 7 7 0 0 0 1.8-.71 3.13 3.13 0 0 0 .4-.28 1.58 1.58 0 0 0 .48-.62 1 1 0 0 0 .06-.33v-1.41c-.22.27-.76 1.11-3.28 1.62a19.75 19.75 0 0 1-3.25.28 11.88 11.88 0 0 1-5.09-1 4.1 4.1 0 0 1-.81-.55 3.21 3.21 0 0 1-.39-.48v1.56a1.25 1.25 0 0 0 .5.9 7.11 7.11 0 0 0 3.53 1.24z"/><path class="cls-2" d="M49.54 51l-.37.21s-.39.18-.56.24l-.57.18-.76.18-1 .16-1 .09-1.47.07a14.07 14.07 0 0 1-2-.15c-.49-.07-1-.16-1.44-.27a8 8 0 0 1-1.53-.48 2.6 2.6 0 0 1-.79-.54 3.19 3.19 0 0 1-.5-.66V51.64a1.26 1.26 0 0 0 .51.92 7.11 7.11 0 0 0 3.39 1.26A16.06 16.06 0 0 0 44 54a15.27 15.27 0 0 0 3.57-.4 7.1 7.1 0 0 0 1.8-.71 3.13 3.13 0 0 0 .4-.28 1.58 1.58 0 0 0 .48-.62 1 1 0 0 0 .06-.33s.06-1.35.06-1.38a.8.8 0 0 0-.21-.58 1.17 1.17 0 0 0-.17-.14.92.92 0 0 0-.26-.14 1.4 1.4 0 0 1-.29.37 2 2 0 0 1 .25.14.58.58 0 0 1 .3.49.51.51 0 0 1-.23.42 1.66 1.66 0 0 1-.22.16z"/></g><g><path class="cls-2" d="M28.51 46.63c3.52 0 6.37-1.06 6.37-2.37 0 0 .08-1.21.06-1.47a1.34 1.34 0 0 0-.12-.51 1.42 1.42 0 0 0 .73-1.07s.06-1.35 0-1.62c-.17-1.59-3.39-2.45-6.41-2.45s-6.43.91-6.43 2.6c0 .08.06 1.47.06 1.47a.9.9 0 0 0 .08.28 1.63 1.63 0 0 0-.8 1.3c0 .08.06 1.47.06 1.47a1.22 1.22 0 0 0 .5.92A7 7 0 0 0 26 46.44a16 16 0 0 0 2.51.19zm.66-8.82c3.4 0 5.76 1 5.76 1.93s-2.36 1.93-5.76 1.93-5.77-1-5.77-1.93 2.37-1.93 5.77-1.93zm-6.43 5a1 1 0 0 1 .5-.73 2.79 2.79 0 0 0 .65.47 11.68 11.68 0 0 0 5.28 1 13.39 13.39 0 0 0 4.51-.7 4.11 4.11 0 0 0 .56-.25 1.1 1.1 0 0 1 0 .16c0 .91-2.37 1.93-5.76 1.93s-5.74-.99-5.74-1.9z"/><path class="cls-2" d="M35.55 45.33a.81.81 0 0 0-.16-.25l-.16-.14a1.73 1.73 0 0 0-.27-.15 1.53 1.53 0 0 1-.29.38 1.17 1.17 0 0 1 .25.14.6.6 0 0 1 .31.48.57.57 0 0 1-.23.42l-.25.19-.37.2s-.39.18-.56.24a5.84 5.84 0 0 1-.57.18l-.76.18-1 .16-1 .1c-.1 0-1.05.06-1.47.07a14.2 14.2 0 0 1-2-.16c-.49-.06-1-.16-1.44-.26a9.91 9.91 0 0 1-1.53-.48 3.11 3.11 0 0 1-.78-.54 3 3 0 0 1-.51-.67V47.03a1.22 1.22 0 0 0 .5.92 7 7 0 0 0 3.39 1.26 16 16 0 0 0 2.48.19 14.72 14.72 0 0 0 3.61-.4 6.63 6.63 0 0 0 1.8-.7A3.13 3.13 0 0 0 35 48a1.52 1.52 0 0 0 .48-.62.88.88 0 0 0 .06-.33s.06-1.34.06-1.37a.84.84 0 0 0-.05-.35zM34.81 51a5.36 5.36 0 0 1-1.4.62 14.62 14.62 0 0 1-4.36.54 18.07 18.07 0 0 1-2.16-.17 12.68 12.68 0 0 1-1.31-.25c-.23 0-.44-.11-.64-.17a5.38 5.38 0 0 1-1.7-.82 1.94 1.94 0 0 1-.48-.51v1.43a1.25 1.25 0 0 0 .5.92 7.11 7.11 0 0 0 3.39 1.25 16 16 0 0 0 2.48.19 14.72 14.72 0 0 0 3.57-.41 6.76 6.76 0 0 0 1.8-.7c.6-.36.94-.78.94-1.23 0 0 .05-1.3 0-1.41a3 3 0 0 1-.63.72z"/><path class="cls-2" d="M23.25 50.25a7.09 7.09 0 0 0 3.39 1.26 16.11 16.11 0 0 0 2.48.19 14.6 14.6 0 0 0 3.57-.41 6.7 6.7 0 0 0 1.81-.7 2.44 2.44 0 0 0 .39-.28 1.43 1.43 0 0 0 .48-.62.72.72 0 0 0 .07-.33v-1.4c-.21.27-.76 1.1-3.27 1.61a17.94 17.94 0 0 1-3.25.28 11.89 11.89 0 0 1-5.1-1 3.73 3.73 0 0 1-.8-.54 3.07 3.07 0 0 1-.39-.49v1.57a1.25 1.25 0 0 0 .62.86zM35.61 54.78a2.81 2.81 0 0 1-.77.74 5.36 5.36 0 0 1-1.4.62 14 14 0 0 1-4.36.54 16.2 16.2 0 0 1-2.16-.17 13.21 13.21 0 0 1-1.31-.25l-.61-.17a5.17 5.17 0 0 1-1.7-.82 1.76 1.76 0 0 1-.48-.5v1.42a1.27 1.27 0 0 0 .5.92 7.15 7.15 0 0 0 3.39 1.26 16.06 16.06 0 0 0 2.48.18 15.27 15.27 0 0 0 3.57-.4 7 7 0 0 0 1.8-.71c.6-.36.95-.78.95-1.23.07-.02.11-1.31.1-1.43z"/><path class="cls-2" d="M26.68 56.08a16 16 0 0 0 2.48.19 14.72 14.72 0 0 0 3.57-.41 6.76 6.76 0 0 0 1.8-.7 4.62 4.62 0 0 0 .4-.28 1.68 1.68 0 0 0 .48-.62 1 1 0 0 0 .06-.34v-1.4c-.21.27-.76 1.1-3.27 1.62a19.85 19.85 0 0 1-3.2.26 12.08 12.08 0 0 1-5.1-1 4 4 0 0 1-.8-.55 3.21 3.21 0 0 1-.39-.48v1.56a1.28 1.28 0 0 0 .5.9 7.2 7.2 0 0 0 3.47 1.25z"/></g></g></svg>