<svg id="TARGETS" xmlns="http://www.w3.org/2000/svg" viewBox="0 0 94.85 94.85" width="94.85" height="94.85"><defs><style>.cls-1{fill:#dda63a}.cls-2{fill:#fff}</style></defs><title>Template_Goal_2_RGB_NG</title><path class="cls-1" d="M0 0h94.85v94.85H0z"/><path class="cls-2" d="M82.14 32.65a8.71 8.71 0 0 0-5.67-2.91 33.19 33.19 0 0 1 1.29-6.12A7.44 7.44 0 0 1 80.48 20l-2.15-.13a10.76 10.76 0 0 0-3 6.38V14l-1.87-.3v10.58a39.94 39.94 0 0 0-1.63-4.73A10.87 10.87 0 0 0 70.14 17l-1.86.09a19.73 19.73 0 0 1 2.92 6.21 20.88 20.88 0 0 1 .69 6.45 7.74 7.74 0 0 0-5.49 2.7c-2.51 2.77-1.47 7.49-1.47 7.49s.1.49.26 1.33h8a.4.4 0 0 1 .39.4v.73a.4.4 0 0 1-.39.4h-7.7c.37 1.88.89 4.55 1.49 7.58h6a.4.4 0 0 1 .4.4v.74a.4.4 0 0 1-.4.39h-5.7c.47 2.43 1 5 1.48 7.58h4.14a.4.4 0 0 1 .4.4v.74a.39.39 0 0 1-.4.39h-3.84c1.59 8.14 3 15.63 3.13 16.07.17 1 .88 3.56 1.87 3.51 1.29 0 1.7-2.8 1.7-2.8l7.43-37.34s1.4-4.71-1.05-7.81zM49.67 68.93A69.43 69.43 0 0 0 57 39c-.06-15.47-7.83-22.49-9.56-23.9a.53.53 0 0 0-.33-.12.55.55 0 0 0-.36.13l-.31.2c-3.76 2.85-9.77 11.58-9.77 22.69 0 11.8 8.71 30.78 8.71 30.78-2.8 3.42-5.34 8.3-5.68 11.1v.56a.42.42 0 0 0 .69.24l.33-.45a8.65 8.65 0 0 1 6.43-3.19c3.32 0 5.58 2.22 7.26 3.57.47.39.54.58 1 .51s.19-.88.19-.88c-1.32-5.78-5.93-11.31-5.93-11.31zm-5.36-38.64a2.55 2.55 0 1 1 2.55-2.54 2.54 2.54 0 0 1-2.55 2.54zM20.71 28.05s-3.59 3.81-3.59 6.62c0 2.35 2.75 3.81 3.53 4.31 0 0 3.65-1.9 3.65-4.31 0-2.92-3.59-6.62-3.59-6.62zM12.69 35s-.62 6.33 2.13 8.24c0 0 .9 1.17 5.16 1.85 0 0 .45-4.09-1.12-5.78 0-.05-.79-1.31-6.17-4.31zM12.14 42.74s-.67 6.9 2.29 9c0 0 1 1.29 5.55 2 0 0 .48-4.46-1.21-6.29 0-.01-.85-1.35-6.63-4.71zM12.24 51.71s-1 7.45 2 9.53c0 0 1.18 1.4 5.77 2.13 0 0 .68-4.56-1-6.39-.01.02-1.01-1.91-6.77-5.27zM11.29 60.74s-.49 7.73 2.47 9.81c0 0 1.52 1.45 6.11 2.18 0 0 .57-5-1.12-6.84 0 0-1.52-2.01-7.46-5.15zM28.66 35s.62 6.33-2.13 8.24c0 0-.9 1.17-5.16 1.85 0 0-.45-4.09 1.12-5.78 0-.05.79-1.31 6.17-4.31zM29.22 42.74s.66 6.9-2.3 9c0 0-1 1.29-5.54 2 0 0-.49-4.46 1.2-6.29 0-.01.85-1.35 6.64-4.71zM29.11 51.71s1 7.45-2 9.53c0 0-1.19 1.4-5.77 2.13 0 0-.69-4.56 1-6.39.04.02.98-1.91 6.77-5.27zM30.06 60.74s.49 7.73-2.47 9.81c0 0-1.52 1.45-6.11 2.18 0 0-.56-5 1.13-6.84 0 0 1.51-2.01 7.45-5.15zM19.64 73.91h2.02v7.24h-2.02zM14.19 21.2a.68.68 0 1 0-1.35 0v12.5l1.35.78zM17 19a.67.67 0 0 0-.67-.67.68.68 0 0 0-.68.67v15A17.75 17.75 0 0 1 17 30.68zM19.79 15.59a.67.67 0 1 0-1.34 0v12.94c.49-.68 1-1.35 1.34-1.83zM27.19 21.2a.68.68 0 1 1 1.35 0v12.5l-1.35.78zM24.43 19a.67.67 0 0 1 1.34 0v15a17.75 17.75 0 0 0-1.34-3.32zM21.59 15.59a.67.67 0 1 1 1.34 0v12.94c-.49-.68-1-1.35-1.34-1.83z"/></svg>