<svg id="TARGETS" xmlns="http://www.w3.org/2000/svg" viewBox="0 0 94.8 94.88" width="94.8" height="94.8"><style>.st0{fill:#dd1367}.st1{fill:#fff}</style><title>Goal_10_RGB_NG</title><path class="st0" d="M0 0h94.8v94.8H0z"/><path class="st1" d="M65.8 9.1c-9.9 0-18 8.1-18 18s8.1 18 18 18 18-8.1 18-18-8.1-18-18-18zm0 34.7c-9.2 0-16.7-7.4-16.7-16.6 0-9.2 7.4-16.7 16.6-16.7s16.7 7.4 16.7 16.6c0 9.2-7.5 16.7-16.6 16.7z"/><path class="st1" d="M65.8 11.3c-8.7 0-15.8 7.1-15.8 15.8S57 43 65.8 43s15.8-7.1 15.8-15.8c0-8.8-7.1-15.9-15.8-15.9zM80 24.6c0 .2 0 .4-.1.5-.1.1-.3.3-.4.3h-.1c-.1 0-.3 0-.4-.1-.1-.1-.3-.3-.3-.4 0-.2 0-.4.1-.5.2-.3.6-.4.9-.2.2.1.3.3.3.4zm-1-2.8c.3.1.5.5.4.9-.1.2-.2.3-.4.4h-.2c-.1 0-.2 0-.3-.1-.2-.1-.3-.2-.4-.4-.1-.2-.1-.4 0-.5.1-.2.2-.3.4-.4.2.1.3.1.5.1zm-2-1.7c0-.2.2-.3.3-.4.3-.2.7-.1.9.2.1.2.1.3.1.5s-.2.3-.3.4c-.1.1-.2.1-.3.1h-.2c-.2 0-.3-.2-.4-.3-.1-.1-.2-.3-.1-.5zm-5-5.2c.1-.2.2-.3.4-.3.4-.1.7.1.8.5 0 .2 0 .3-.1.5s-.2.3-.4.3h-.2c-.1 0-.2 0-.3-.1-.2-.1-.3-.2-.3-.4s0-.3.1-.5zm-1.4 10.4c-.1 0-.2-.1-.2-.2v-.9h2.4v.9c0 .1-.1.2-.2.2v5.9h-1.9l-.1-5.9zm-4.8-1.8h-7.6V23h15.2v.5h-7.6zm-1 1.8c-.1 0-.2-.1-.2-.2v-.9H67v.9c0 .1-.1.2-.2.2v5.9h-1.9l-.1-5.9zm-5.7 0c-.1 0-.2-.1-.2-.2v-.9h2.4v.9c0 .1-.1.2-.2.2v5.9h-1.9l-.1-5.9zm6.7-2.9h-8.1l-.3-.3c-.1-.1-.1-.2 0-.3h.1l8.4-3.1 8.4 3.1c.1.1.1.2 0 .3l-.3.3h-8.2zm4-8.4c.1-.3.5-.5.9-.4.2.1.3.2.4.4.1.2.1.4 0 .5-.1.2-.2.3-.4.4-.1 0-.2.1-.3.1-.4 0-.7-.4-.7-.7.1-.2.1-.2.1-.3zm-2-.9c.3-.2.7-.2.9.1 0 0 0 .1.1.1.2.3.1.7-.2.9-.1.1-.2.1-.4.1h-.1c-.2 0-.3-.1-.4-.3-.1-.1-.1-.3-.1-.5-.1-.1 0-.3.2-.4zm-2-.4c.4 0 .7.3.7.7 0 .4-.3.7-.7.7-.4 0-.7-.3-.7-.7 0-.4.3-.7.7-.7zm-2.6.3c.2 0 .4 0 .5.1.1.1.3.3.3.4.1.4-.2.7-.5.8h-.1c-.3 0-.6-.2-.7-.6-.1-.3.2-.6.5-.7zm-2.4.6c.2-.1.4-.1.5 0 .2.1.3.2.3.4.1.2.1.4 0 .5-.1.2-.2.3-.4.4H61c-.4 0-.7-.3-.7-.7.1-.3.3-.5.5-.6zm-2.3 1.1c.3-.2.7-.1.9.2s.1.7-.2.9c-.3.2-.7.1-.9-.2-.2-.3-.1-.7.2-.9zM53.3 20c.1-.2.2-.3.4-.3s.4 0 .5.1c.3.2.4.7.1 1-.2.3-.5.4-.8.2-.3-.3-.5-.7-.2-1-.1 0 0 0 0 0zm-1.1 2.2c.1-.3.5-.5.9-.4.2.1.3.2.4.4.1.2.1.4 0 .5-.1.3-.4.4-.6.5h-.2c-.5-.2-.6-.6-.5-1 0 .1 0 0 0 0zm.1 1.9c.2 0 .3.1.4.3.1.2.1.3.1.5-.1.3-.3.6-.7.6H52c-.4-.1-.6-.4-.6-.8.2-.4.6-.7.9-.6zm-1 3c0-.4.3-.7.7-.7s.7.3.7.7-.3.7-.7.7c-.4 0-.7-.3-.7-.7 0 .1 0 .1 0 0zm.3 2.5c0-.2 0-.4.1-.5.1-.1.3-.2.4-.3.4 0 .7.3.7.6s-.2.6-.5.7h-.1c-.3.1-.6-.1-.6-.5zm1.3 2.9c-.3 0-.5-.2-.6-.5-.1-.2-.1-.4 0-.5.1-.2.2-.3.4-.4.4-.1.7.1.9.4.1.4-.1.7-.4.9-.2.1-.3.1-.3.1zm1.3 2.1c-.1.1-.2.1-.3.1-.4 0-.7-.3-.7-.7 0-.2.1-.5.3-.6.3-.2.7-.1.9.2s.1.8-.2 1zm.5-16.7c.2-.3.7-.3 1-.1.3.2.4.7.1 1-.1.2-.3.2-.5.2s-.3-.1-.4-.1c-.4-.2-.5-.7-.2-1zm1 18.6c-.1.1-.3.2-.4.2-.2 0-.4-.1-.5-.2-.2-.3-.2-.7.1-1 .3-.2.7-.2 1 .1.2.2.1.7-.2.9zm.8-20.4c.3-.3.7-.2.9 0l.1.1c.3.3.2.7-.1 1-.1.1-.3.2-.4.2-.2 0-.4-.1-.5-.2-.3-.2-.3-.7-.1-.9 0-.2.1-.2.1-.2zm1 22c-.1.2-.3.2-.5.2s-.3-.1-.4-.2c-.3-.2-.3-.7-.1-1 .1-.1.3-.2.5-.2s.4 0 .5.2c.2.3.2.7 0 1-.1 0-.1 0 0 0zm.3-5.3h.6v-.9c0-.1.1-.1.1-.1h15c.1 0 .1 0 .1.1v.9h.4v1H57.7l.1-1zm1.8 6.6c-.2.3-.6.4-.9.2-.3-.2-.4-.6-.2-.9.2-.3.6-.4.9-.2.2.2.3.6.2.9zm2.2.9c-.1.3-.4.5-.6.5H61c-.4-.1-.5-.5-.4-.9.1-.2.2-.3.4-.4.3-.2.7 0 .9.3-.1.2-.1.4-.1.5zm1.6 1.1h-.1c-.4 0-.6-.4-.6-.8s.4-.6.8-.6c.2 0 .3.1.4.3.1.1.2.3.1.5 0 .3-.3.6-.6.6zm2.4.2c-.4 0-.7-.3-.7-.7 0-.4.3-.7.7-.7.4 0 .7.3.7.7 0 .4-.3.7-.7.7zm3-.5c-.1.1-.3.3-.4.3h-.1c-.4.1-.7-.2-.8-.6s.2-.7.6-.8c.2 0 .4 0 .5.1.1.1.3.3.3.4-.1.2-.1.4-.1.6zm2-.4c-.2.1-.4.1-.5 0-.2-.1-.3-.2-.4-.4-.1-.2-.1-.4 0-.5.1-.2.2-.3.4-.3.2-.1.4-.1.5 0 .3.1.5.5.4.9-.1.1-.2.2-.4.3zm2.2-1.1c-.1.1-.2.1-.3.1-.2 0-.5-.1-.6-.3-.1-.2-.2-.4-.1-.5 0-.2.2-.3.3-.4.2-.1.3-.1.5-.1s.3.2.4.3c.2.3.1.7-.2.9zm2-1.4c-.1.1-.3.2-.4.2-.2 0-.4-.1-.5-.2-.3-.3-.2-.7.1-1 .3-.3.7-.2 1 .1.2.2.1.6-.2.9zm.1-21.1c-.1.1-.3.2-.5.2h-.1c-.2 0-.3-.1-.4-.2-.1-.1-.2-.3-.2-.5s0-.4.2-.5c.2-.3.7-.3 1-.1.1.1.2.3.2.5s-.1.4-.2.6zm1.7 19.3c-.1.1-.3.2-.5.2h-.1c-.2 0-.3-.1-.4-.2-.3-.2-.3-.7-.1-1 .1-.1.3-.2.5-.2s.4 0 .5.2c.3.3.3.7.1 1zm-.1-17.6c-.1.1-.3.2-.4.2h-.1c-.2 0-.3-.1-.5-.2-.1-.1-.2-.3-.2-.5s.1-.3.2-.5c.1-.1.3-.2.5-.2s.3.1.5.2c.3.4.3.8 0 1zm1.5 15.6c-.1.2-.2.3-.4.3h-.2c-.1 0-.2 0-.3-.1-.3-.2-.5-.6-.3-.9.1-.2.2-.3.4-.3s.4 0 .5.1c.2.1.3.2.3.4.1.1.1.3 0 .5zm1.1-2.3c-.1.2-.2.3-.3.4-.1 0-.2.1-.3.1h-.2c-.4-.1-.5-.5-.4-.9.1-.2.2-.3.3-.4.2-.1.4-.1.5 0 .3.1.5.4.4.8zm.3-2c-.1.1-.2.1-.4.1h-.1c-.4-.1-.6-.4-.6-.8 0-.2.1-.3.3-.4.1-.1.3-.1.5-.1.4.1.6.4.6.8 0 .1-.1.3-.3.4zm-.1-2.3c-.4 0-.7-.3-.7-.7s.3-.7.7-.7.7.3.7.7-.4.7-.7.7z"/><g><path class="st1" d="M28.6 34.9c3 0 5.4-2.4 5.4-5.4 0-3-2.4-5.4-5.4-5.4-3 0-5.4 2.4-5.4 5.4 0 3 2.4 5.4 5.4 5.4zM34.8 37H22.3c-3.3.3-5.9 2.8-6.4 6.1h25.4c-.5-3.3-3.2-5.8-6.5-6.1zM28.6 57.3c-4 0-7.3 3.3-7.3 7.3s3.3 7.3 7.3 7.3 7.3-3.3 7.3-7.3-3.3-7.3-7.3-7.3zM24 59.8c.1 0 .1.1.2.1 0 .1 0 .4-.1.4-.1.2-.5.4-.7.3h-.1c.2-.3.5-.6.7-.8zM23 61c.1-.1.3-.1.4-.1.2 0 .4.1.4.2s-.4.3-.5.4c-.2.2-.6.7-.8.7h-.1c.2-.4.3-.8.6-1.2zm5.6 10.3c-.7 0-1.3-.1-2-.3v-.1c.2-.5.8-.8 1.3-.8 1.1-.1 2.6.7 2.8.6.2-.1.7-.7 1.4-.7h.3c-1 .8-2.4 1.3-3.8 1.3zm-1.3-4.5c.3-.5.8-.5.4.3-.1.2-.4 1.3-.5 1.2-.2-.2.1-1.4.1-1.5zm2.8-1.5c.2 0 .6.3.4.4-.1.1-.5.1-.7-.1-.1-.1.2-.3.3-.3zm3.1 4.2c-.3-.1-.3.1-.5.1-.2-.1.2-.5-.3-.1s-.4-.1-.6-.7c-.2-.6.3-1.3.7-1.5.6-.2 1-.3 1.2-.3.8-.2 1-.7 1.1-.4 0 .1.1.1.1.2-.3 1-1 1.9-1.7 2.7zm.3-3.7c-.1 0-.1-.1-.2-.3-.1-.2.1-.3.2-.2.1.1.3.3.3.4.1.1-.2.1-.3.1zm.7.6c-.1.1-.5.1-.7-.1-.2-.1.1-.4.2-.4.3.1.7.4.5.5zm1-1.7c0 .4 0 .9-.1 1.3-.3-.3-.6-1.1-.1-1.6.1-.1-.2-.5-.1-.5s.2 0 .3.1v.7zm-.8-1.2c-.1-.1-.4-.4-.4.1s.5.5 0 .8c-.4.3-.5.2-.7.3-.2.1-.4.5-.4.8.1.3.7 1 .2.9-.1 0-.9-.6-1.1-.9-.1-.4-.3-.7-.4-1-.1-.3-.4-.4-.6-.2-.2.2.1.3-.1.7-.2.4-.3.7-.6.4-.7-.8-1.6-.4-1.8-1.2-.1-.5-.5-.4-.8-.7-.3-.3-.5-.4-.6-.2-.1.2 1 1 1.1 1.3.1.3-.3.6-.7.7-.3.1-.5-.2-.8-.5-.3-.3-.4-.5-.5-.4v.1c0 .4.3.9.6 1.1.3.2.6.3.5.5-.1.3 0 .1-.3.4v.8c0 .4-.1.5-.2.8-.1.4-.2.1-.4.6-.1.5-.3.7-.4.9-.1.2-.6.4-.9.4-.1 0-.1 0-.1-.1-.2-.2-.2-.8-.2-1.2 0-.2-.2.3-.3-.6-.1-.6-.4.1-.5-.3 0-.4-.2-.3-.4-.5s-.4 0-.7.1c-.2.1-.2.2-.4.1-.4-.8-.6-1.8-.6-2.7 0-.3 0-.6.1-.8.2-.3.2-.4.3-.4.1 0 .3-.1.3-.1l.2-.1s.6.1 1.1.3c.3.1.8.4 1.2.4h.2c.3-.1.5-.3.4-.5 0-.3-.2-.3-.5-.2-.1.1-.3-.4-.5-.4s.2.6.1.6-.4-.6-.5-.7c0-.1-.3-.3-.4-.2-.4.4-1.1.4-1.2.5-.1 0-.1.1-.1.1-.2.1-.3 0-.3-.2 0-.1.1-.3.1-.4.2-.1.5-.1.7 0 .2.1.3 0 .4-.1.1-.1 0-.2 0-.3 0-.1.1-.2.2-.2s.4-.2.5-.3c.1-.1.8-.1 1 0 .3.1.5 0 .7-.1.2-.2.4-.4.5-.4.1 0-.2-.4-.5 0-.3.3-.4.4-.6.4-.1 0-.9-.2-1-.5-.1-.2.2-.4.5-.6.3-.1 1.1-.1 1.3-.2.4-.1.9-.3 1.2-.1.3.2-1.1.5-.7.7.2.1.9-.4 1.1-.5.6-.3-.6-.4-.4-1 .2-.7-1.2-.5-2-.4 1-.6 2.2-1 3.4-1 3.3 0 6.1 2.4 6.6 5.6-.3.1-.7.1-.9-.2z"/><path class="st1" d="M42.1 45.6H10.8v3.2h2.6v37h30.7v-37h2.6v-3.2h-4.6zm-1 20.1c0 .3-.3.5-.6.6-.4 0-.6.1-1 .1-.3 0-.6.2-.7.6-.1.4-.4 1.4-.6 1.8-.1.4 0 .6.3.8.3.2.5.4.7.6.3.2.4.5.2.8-.4.7-.8 1.4-1.4 1.9-.2.2-.5.3-.8.1-.3-.2-.6-.3-.9-.5-.3-.2-.6-.2-.9.1-.3.3-1.2.9-1.5 1.1-.3.2-.3.5-.2.9l.3.9c.1.4 0 .6-.3.8-.7.4-1.5.6-2.2.8-.3.1-.6-.1-.7-.4-.1-.3-.3-.6-.4-.9-.1-.6-.4-.8-.8-.8h-1.9c-.4 0-.6.2-.7.6-.1.3-.2.5-.3.9-.1.4-.4.5-.7.4-.8-.1-1.5-.4-2.3-.7-.3-.1-.4-.4-.3-.7.1-.4.1-.6.2-1 .1-.3 0-.6-.3-.9-.4-.2-1.3-.9-1.5-1.1-.3-.2-.6-.1-.9.1-.3.2-.5.3-.8.5-.3.2-.6.2-.9-.1-.6-.6-1-1.2-1.4-1.9-.2-.3-.1-.6.2-.8.3-.2.5-.4.8-.7.3-.2.4-.5.2-.9s-.4-1.1-.6-1.8c-.1-.4-.4-.5-.8-.5h-.9c-.4 0-.6-.2-.6-.6-.1-.8-.1-1.6 0-2.4 0-.3.3-.5.6-.6.4 0 .6-.1 1-.1.3 0 .6-.2.7-.6.1-.4.4-1.4.6-1.8.1-.4 0-.6-.3-.8-.3-.2-.5-.4-.7-.6-.3-.2-.4-.5-.2-.8.4-.7.8-1.4 1.4-1.9.2-.2.5-.3.8-.1.3.2.6.3.9.5.3.2.6.2.9-.1.4-.3 1.2-.9 1.5-1.1.3-.2.3-.5.2-.9l-.3-.9c-.1-.4 0-.6.3-.8.7-.4 1.5-.6 2.2-.8.3-.1.6.1.7.4.1.3.3.6.4.9.1.3.4.5.8.5h1.9c.4 0 .6-.2.7-.6.1-.3.2-.5.3-.9.1-.4.4-.5.7-.4.8.1 1.5.4 2.3.7.3.1.4.4.3.7-.1.4-.1.6-.2 1-.1.3 0 .6.3.9.4.2 1 .7 1.5 1.1.3.2.6.1.9-.1.3-.2.5-.3.8-.5.3-.2.6-.2.8.1.6.6 1 1.2 1.4 1.9.2.3.1.6-.2.8-.3.2-.5.4-.8.7-.3.2-.4.5-.2.9.3.7.4 1.1.6 1.8.1.4.4.5.8.5h.9c.4 0 .6.2.6.6.2 1.1.2 1.9.1 2.7z"/></g></svg>