<svg id="TARGETS" xmlns="http://www.w3.org/2000/svg" viewBox="0 0 94.85 94.85" width="94.85" height="94.85"><defs><style>.cls-1{fill:#0a97d9}.cls-2{fill:#fff}</style></defs><title>Goal_14_RGB_NG</title><path class="cls-1" d="M0 0h94.85v94.85H0z"/><path class="cls-2" d="M77.77 38.94a1.66 1.66 0 1 0 1.66 1.66 1.66 1.66 0 0 0-1.66-1.66zM52.75 25.4v11.35h14l.89-2.62h16.14v-1.87H73l1.49-6.86zm11.87 6.71h-4.45v-5.39h4.45zm6.56 0h-5.47v-5.38h6.58zM52.74 22.57h19.69v2.08H52.74z"/><path class="cls-2" d="M68.31 35.73l-1 2.83H52.14V17.28h.94v-.78h-.94V5.78h-.56V16.5h-1v.78h.7c-8.52 4.51-22.47 2.5-26.73 1.42h-.09l-.3.4v1.49h-.12v.72h.11v.52a1.57 1.57 0 0 0-.37.81.82.82 0 0 0 .19.61.48.48 0 0 0 .35.14.57.57 0 0 0 .52-.64v-.14h-.29v.14c0 .21-.09.36-.24.36a.2.2 0 0 1-.15-.06.6.6 0 0 1-.11-.4 1.4 1.4 0 0 1 .34-.68v-.62h.11v-.72h-.1v-.81l7.25 17.43 1.15 7.15c1.82 1.38 9.67 6.59 16.67.06l.11-.1a.45.45 0 0 1 .27-.12.48.48 0 0 1 .29.12l.1.1c7.06 6.59 15 1.22 16.72-.1a.39.39 0 0 1 .2-.15h.12a.35.35 0 0 1 .17 0l.16.16a12.09 12.09 0 0 0 13.79 2.21l5.4-10.88zm-31.74 1.51H32l-7.08-17.05 11.71 16.46a2.88 2.88 0 0 0-.06.59zm.28-1.24l-10-14 11.62 12.47A3 3 0 0 0 36.85 36zm7.72 2.57l-.29-1.3h-1.75a3 3 0 0 0-2.82-3v-3.1h1v-.56h-2.52v.56h1v3.13h-.06L24.87 19.07C29.53 20.16 43 22 51.36 17.57l-6 21zm1.11 0l5.48-19.25-2.87 19.24zm5.9 0h-3l3-20.14zm26.19 4.53a2.51 2.51 0 1 1 2.51-2.5 2.5 2.5 0 0 1-2.51 2.5z"/><g><path class="cls-2" d="M8.32 80.72a4.25 4.25 0 0 0 2.23 1 3.14 3.14 0 0 0 2.26-1.31A3.11 3.11 0 0 0 10.55 79a4.23 4.23 0 0 0-2.23 1A1.83 1.83 0 0 0 7 79a2.69 2.69 0 0 1 .41 1.27A2.57 2.57 0 0 1 7 81.62a1.83 1.83 0 0 0 1.32-.9zm2.92-1a.36.36 0 0 1 .36.36.36.36 0 1 1-.72 0 .36.36 0 0 1 .36-.31zM25.09 70a2 2 0 0 0 1.54-1 4.74 4.74 0 0 0 2.5 1.1 3.53 3.53 0 0 0 2.54-1.47 3.5 3.5 0 0 0-2.54-1.48 4.74 4.74 0 0 0-2.5 1.1 2.07 2.07 0 0 0-1.48-1.09 3 3 0 0 1 .46 1.42A3 3 0 0 1 25.1 70zm4.82-2.1a.41.41 0 1 1-.41.41.41.41 0 0 1 .41-.38zM7.93 68.22a4.74 4.74 0 0 0 2.5 1.1A3.53 3.53 0 0 0 13 67.85a3.5 3.5 0 0 0-2.54-1.48 4.74 4.74 0 0 0-2.5 1.1 2 2 0 0 0-1.48-1.09 3.06 3.06 0 0 1 .46 1.43 3 3 0 0 1-.46 1.42 2 2 0 0 0 1.45-1.01zm3.28-1.06a.4.4 0 0 1 .4.41.41.41 0 1 1-.81 0 .41.41 0 0 1 .41-.41zM7.75 59.27a4.76 4.76 0 0 0 2.5 1.09 3.5 3.5 0 0 0 2.54-1.47 3.5 3.5 0 0 0-2.54-1.47 4.76 4.76 0 0 0-2.5 1.09 2 2 0 0 0-1.48-1.08 3 3 0 0 1 .46 1.42 3.06 3.06 0 0 1-.46 1.43 2.07 2.07 0 0 0 1.48-1.01zM11 58.21a.41.41 0 0 1 0 .79.41.41 0 1 1 0-.81zM21.17 75.85a3.14 3.14 0 0 0 2.27 1.32 4.23 4.23 0 0 0 2.23-1 1.81 1.81 0 0 0 1.32 1 2.17 2.17 0 0 1 0-2.54 1.83 1.83 0 0 0-1.32 1 4.25 4.25 0 0 0-2.23-1 3.17 3.17 0 0 0-2.27 1.22zm1.58.17a.36.36 0 1 1 .36-.36.36.36 0 0 1-.36.34zM11.8 72a4.08 4.08 0 0 0 2.93 1.7 5.47 5.47 0 0 0 2.88-1.27 2.39 2.39 0 0 0 1.72 1.26 2.82 2.82 0 0 1 0-3.29v-.05a2.36 2.36 0 0 0-1.71 1.25 5.49 5.49 0 0 0-2.88-1.26A4.08 4.08 0 0 0 11.8 72zm2 .22a.47.47 0 0 1 0-.94.47.47 0 1 1 0 .94zM24.21 59.77a.06.06 0 0 0-.06-.06 3.05 3.05 0 0 0-2.18 1.61 7 7 0 0 0-3.68-1.62 5.19 5.19 0 0 0-3.73 2.17 5.19 5.19 0 0 0 3.73 2.17 7 7 0 0 0 3.68-1.62 3 3 0 0 0 2.19 1.61.06.06 0 0 0 .05-.06 4.43 4.43 0 0 1-.67-2.09 4.52 4.52 0 0 1 .67-2.1.08.08 0 0 0 0-.01zm-7.09 2.38a.59.59 0 0 1-.59-.6.58.58 0 0 1 .59-.59.59.59 0 0 1 .6.59.6.6 0 0 1-.6.6z"/><path class="cls-2" d="M37.3 68.12a7.54 7.54 0 0 0-.36-2C34.27 57.56 10.78 53 5.47 52.05v1.18c5.48 1 28 5.5 30.38 13.24a10.29 10.29 0 0 1 .38 3.92v.38a12 12 0 0 1-.34 1.5c-2.36 7.44-23.19 11.9-29.7 13.12-.16 0-.21.48-.16.81v3.25h.75v-1l2.05-.31v1.32h.75V88l1.76-.31v1.76h.75v-1.91c.6-.12 1.19-.24 1.76-.37v2.28h.75V87c.61-.13 1.2-.28 1.77-.42v2.87h.75c.61-.15 1.19-.31 1.77-.47v.47h.75v-.67l1.76-.54v1.21h.75V88c.61-.2 1.2-.4 1.77-.61v2h.75v-2.26c.61-.23 1.2-.46 1.76-.69v3h.75V89c.62-.26 1.21-.52 1.76-.78v1.28h.75v-1.68c.64-.3 1.23-.6 1.77-.89v2.52h.78c.65-.37 1.22-.72 1.74-1.06v1.06h.75v-1.57a20.53 20.53 0 0 0 1.76-1.39v3h.75V71.13 68.16zM8.83 87.52l-2 .31v-1.37l2.05-.4zm2.51-.45l-1.76.32V85.9l1.76-.38zm2.51-.51c-.57.13-1.16.25-1.76.37v-1.58l1.76-.42zm2.52-.6c-.57.15-1.16.29-1.77.43v-1.65c.58-.14 1.17-.3 1.77-.46zm2.52 2.4c-.58.16-1.16.32-1.77.47v-2.44l1.77-.49zm0-3.08l-1.77.49v-1.69l1.77-.51zm2.51 2.33l-1.76.54v-2.47c.6-.18 1.19-.37 1.76-.56zm0-3.11c-.57.19-1.16.37-1.76.55v-1.7l1.76-.56zm2.52 2.26c-.57.2-1.16.41-1.77.61v-2.49l1.77-.63zm0-3.15c-.57.21-1.16.43-1.77.63v-1.7q.88-.3 1.77-.63zm2.51 2.16c-.56.24-1.15.47-1.76.7V84c.61-.23 1.19-.47 1.76-.71zm0-3.16c-.56.24-1.15.48-1.76.71v-1.69c.59-.22 1.18-.46 1.76-.7zm2.51 4.9c-.55.26-1.14.52-1.76.79v-2.18c.62-.27 1.21-.53 1.76-.8zm0-2.87c-.55.27-1.14.54-1.76.81v-2.52c.62-.27 1.21-.54 1.76-.81zm0-3.18c-.55.27-1.14.54-1.76.82v-1.67c.6-.27 1.19-.54 1.76-.82zm2.52 4.78c-.54.29-1.13.6-1.77.91V85c.65-.32 1.22-.63 1.77-.93zm0-2.92c-.54.31-1.13.63-1.77 1v-2.57c.64-.32 1.22-.63 1.77-.93zm0-3.18c-.54.31-1.13.62-1.77 1v-1.73c.62-.32 1.21-.66 1.77-1zM34 87.67c-.51.35-1.11.72-1.77 1.1v-2.26q1-.56 1.77-1.05zm0-2.94c-.52.34-1.1.7-1.77 1.09v-2.2c.67-.4 1.25-.76 1.77-1.11zm0-3c-.51.34-1.1.72-1.77 1.12V80.4c.66-.39 1.25-.75 1.77-1.09zm0-3.17q-.76.51-1.77 1.11v-1.73A19.34 19.34 0 0 0 34 76.63zm.73-2.56a9.58 9.58 0 0 0 1.76-2.28v3a20.27 20.27 0 0 1-1.76 1.38zm0 2.85c.79-.55 1.37-1 1.76-1.32v2.36h-.05a16.15 16.15 0 0 1-1.71 1.43zm0 3.18a20.82 20.82 0 0 0 1.76-1.41v2.26a18.73 18.73 0 0 1-1.76 1.38zm0 5.15V85a20.7 20.7 0 0 0 1.76-1.32v2a18.08 18.08 0 0 1-1.76 1.46z"/></g><g><path class="cls-2" d="M53 83.25c-.44 0-.7.21-.77 0a1.14 1.14 0 0 1 .08-.8 1.29 1.29 0 0 1 .69-.2c.29 0 .17-.35-.13-.32s-.53.06-.53 0 .09-.8-.19-.81-.25.19-.26.3.06.75-.08.71a1 1 0 0 1-.39-.37c-.13-.18-.38-.12-.33.06a1.64 1.64 0 0 0 .3.52c.27.4.31.48.19.73a2.43 2.43 0 0 1-.78.81c-.17.06-.44 0-.41-.46s0-1.73-.3-1.84-.37.1-.37.27.06.62.06.79-.15.11-.27 0-.47-.3-.57-.13a.29.29 0 0 0 .07.44c.15.08.42.06.55.26a.91.91 0 0 1 .14.92 8.56 8.56 0 0 1-1.42 1.66c-.34.3-1.07.24-1-.34s.06-1 .48-1 1.06 0 1.09-.33-.38-.34-.67-.33-.42-.2-.31-.42.77-1.83 1-2.38c0 0 .06-.34.34-.31a1.58 1.58 0 0 1 .69.12c.3.14.36 0 .35-.13s-.13-.27-.41-.37-.51-.18-.46-.33a.79.79 0 0 1 .72-.38 1.77 1.77 0 0 1 1 .51c.29.23.47-.1.35-.25s-.51-.42-.61-.57 0-.33.21-.33.91-.36 1-.6-.35-.39-.74-.22-.72.37-.79.24a5.32 5.32 0 0 1 0-.8c0-.19-.3-.28-.37-.13s0 .4-.08.73a1.57 1.57 0 0 1-.81.94c-.25 0-.32-.11-.31-.34s0-.71.27-.83.52-.31.45-.49-.4 0-.6.13-.47.08-.44-.25a1.92 1.92 0 0 1 .34-1.07c.27-.34.15-.45 0-.52s-.29.07-.48.34-.36.23-.48-.11-.51-.76-.81-.58-.29.63-.08 1 .57.88.4 1-.41 0-.69-.09a.23.23 0 1 0-.22.4 3.49 3.49 0 0 1 1 .82 2.26 2.26 0 0 1 .31 1.29c0 .56-.1.95-.26.83a7.78 7.78 0 0 0-1-.94c-.5-.35-.78-.32-.8-.7s.05-1.1-.37-1.1-.36.46-.39.6 0 .7-.22.58-1.06-.66-1.32-.32.18.52.4.62.89.35 1 .53-.07.2-.29.31-.75.42-.73.68.34.2.52.08a2.16 2.16 0 0 1 1.29-.55 1.53 1.53 0 0 1 1.21 1 3.22 3.22 0 0 1 0 1.25c0 .16-.19.27-.52-.07s-1.2-.82-1.49-.45.2.43.52.65.85.61.84 1a3.59 3.59 0 0 1-.5 1.56c-.23.24-.82 0-.8-.5s0-.92-.36-.89-.26.61-.45.55a1 1 0 0 1-.59-.91 1.59 1.59 0 0 1 .39-1.07c.22-.24.35-.43.22-.54s-.4 0-.59.24-.34.52-.48.37a5.87 5.87 0 0 0-.66-.85c-.33-.29-.69-.34-.87-.12s-.1.34.2.67.67.61.69.85a.32.32 0 0 1-.35.38c-.24 0-.75 0-.76.17s.2.2.68.32a1.66 1.66 0 0 1 1.12.69c.27.4.87 1.13.8 1.41s-.43.28-.75-.17-.61-.4-.71-.17a.66.66 0 0 0 .23.72c.22.24.07.29-.24.39s-.64.14-.63.43.3.38.61.23.45-.32.69-.36.31 0 .27.17a3.4 3.4 0 0 0-.19.81c0 .22.29.42.45.08s.37-1.23.7-1.31a1.24 1.24 0 0 1 1.38.39c.68.6.2 1.64.36 1.86.62.06 1.19.18 1.33-.11l.31-.79c.25-.66.51-.73.83-.68s.77.53.94.53.28.09.41-.19-.26-.34-.41-.45-.64-.34-.66-.6 0-.57.43-.57 1.06-.13 1.36.19a1.1 1.1 0 0 1 .32.89 3.28 3.28 0 0 0 .05.58.24.24 0 0 0 .29.13c.22 0 .09-.23.1-.38a2.26 2.26 0 0 1 0-.62c.06-.21.15-.06.22 0a3.4 3.4 0 0 0 .91.68.26.26 0 0 0 .23-.46 3 3 0 0 1-.62-.62c-.11-.23 0-.22.1-.32s.42-.37.28-.57-.44 0-.65.2a.57.57 0 0 1-.76 0 2.8 2.8 0 0 0-.85-.42c-.26-.09-.42-.3-.19-.5a1.87 1.87 0 0 1 1.07-.48.86.86 0 0 1 .74.27c.21.2.5.25.61.1a.38.38 0 0 0-.12-.5c-.17-.16-.34-.2-.26-.33s.54-.12.94-.07.76-.25.74-.52-.4-.35-.86-.35zM80.05 78.81a2.06 2.06 0 0 1-.31.61L86.2 84a6.94 6.94 0 0 1 1.8-4.82l-7.88-.93a2.11 2.11 0 0 1-.07.56zM55.45 67.12a2.47 2.47 0 0 0-.52.18l-.83-3.7-.57.13.88 3.92a2.45 2.45 0 0 0-.76 1.14.49.49 0 0 0-.28.07l-.27.14a.52.52 0 0 0-.17.71L54 71.55a.51.51 0 0 0 .71.18h.08a2.37 2.37 0 0 0 1.7.25 2.43 2.43 0 0 0 1.71-1.41c0-.06 0-.13.08-.19a2.46 2.46 0 0 0-2.87-3.21zM81.86 71.09l7.43-1.42A6.91 6.91 0 0 1 87 65l-5.67 4.7a2.31 2.31 0 0 1 .38.64 2.18 2.18 0 0 1 .15.75zM73.05 74.41l.68.22h.2l6.3-2.3a1.51 1.51 0 0 0 .31-.16 1.36 1.36 0 0 0 .57-1.1 1.21 1.21 0 0 0-.08-.46 1.27 1.27 0 0 0-.25-.42 1.33 1.33 0 0 0-1-.47 1.25 1.25 0 0 0-.46.09l-5.72 2.1-2.49-.23a3 3 0 0 1 .35 1.21z"/><path class="cls-2" d="M78.46 76.9l-5.81-1.82-1.94-1.87v-.33a1.76 1.76 0 0 0-.07-.4 2 2 0 0 0-.23-.54A2.15 2.15 0 0 0 69 70.88l-7.48-1.53a2.28 2.28 0 0 0-.44 0 2.21 2.21 0 0 0-.78 4.28 11.58 11.58 0 0 1 .78 1.3l-1.78 2.36a1.12 1.12 0 0 0 0 1.64.7.7 0 0 0 .49.2 1.89 1.89 0 0 0 1.12-.6c.13-.14.44-.51.8-1 .85-1 2-2.4 2-2.4a.91.91 0 0 0 .09-.83l4.26.87a2.28 2.28 0 0 0 .44 0 1.93 1.93 0 0 0 .42 0l2.1 2 .23.22 6.4 2a2 2 0 0 0 .35.06 1.35 1.35 0 0 0 .41-2.63zM48.51 67.78a1 1 0 0 0-.18-1.38 1 1 0 0 0-1.38.17 1 1 0 0 0 .18 1.43 1 1 0 0 0 1.38-.22zM47.57 61.07a.72.72 0 1 0-1 .13.73.73 0 0 0 1-.13zM65.81 83.47a1.07 1.07 0 0 0-.31 0h-1.47c-.4 0-.57 0-.73-.42a7.56 7.56 0 0 1-.3-1.45c0-.23 0-.28-.17-.32s-.22 0-.37.24a5.1 5.1 0 0 0-.6 1.6.41.41 0 0 1-.39.36h-2s-.29 0-.37.18.25.32.32.36l1.48 1s.22.09.1.42l-.62 1.72s-.11.23 0 .33a.29.29 0 0 0 .36 0 12.6 12.6 0 0 0 1.52-1.17.33.33 0 0 1 .47 0 18.19 18.19 0 0 0 1.49 1.1s.22.23.44.1c0 0 .19-.07.07-.33s-.71-1.62-.73-1.72a.51.51 0 0 1 .24-.53c.27-.19 1.41-.79 1.64-1s.17-.45-.07-.47zM63.91 64.18h.05a2.33 2.33 0 0 0 1.7-1.18 5.42 5.42 0 0 0 2.84 1.24 4 4 0 0 0 2.89-1.67 4 4 0 0 0-2.89-1.68 5.4 5.4 0 0 0-2.84 1.25 2.35 2.35 0 0 0-1.66-1.3h-.05a2.77 2.77 0 0 1 0 3.23zm5.47-2.38a.47.47 0 0 1 0 .93.47.47 0 0 1 0-.93zM76.58 62a1 1 0 1 0-1 1 1 1 0 0 0 1-1zM80.16 59.91a.54.54 0 1 0-.54-.54.54.54 0 0 0 .54.54z"/></g><path class="cls-2" d="M82.42 49.67h-.08l-.21.1a12.35 12.35 0 0 1-14.43-2c-.06-.06-.21-.21-.34-.2a.61.61 0 0 0-.33.18c-1.74 1.34-9.79 6.77-16.94.1l-.09-.11a.4.4 0 0 0-.29-.11.41.41 0 0 0-.28.11l-.11.11c-7.15 6.67-15.2 1.24-16.94-.1a.57.57 0 0 0-.33-.16c-.16 0-.34.07-.34.46v3.42A.89.89 0 0 0 32 52c7.67 7.3 15.7 1.38 17.37 0l.17-.15a.24.24 0 0 1 .15-.07c.1 0 .11 0 .16.07L50 52c1.67 1.38 9.7 7.3 17.37 0a.41.41 0 0 1 .28-.11.35.35 0 0 1 .22.08.29.29 0 0 1 .11.11c1.49 1.46 7.9 7 14.7 1.08a.44.44 0 0 0 .11-.28v-2.81a.4.4 0 0 0-.4-.4"/></svg>