<svg id="TARGETS" xmlns="http://www.w3.org/2000/svg" viewBox="0 0 94.85 94.85" width="94.85" height="94.85"><defs><style>.cls-1{fill:#e5243b}.cls-2{fill:#fff}</style></defs><title>Goal_1_RGB_NG</title><path class="cls-1" d="M0 0h94.85v94.85H0z"/><path class="cls-2" d="M27.4 22.98h-2.9v55.65h39.88v-3.36H27.4V22.98z"/><path class="cls-2" d="M30.47 16.22v55.65h39.87V16.22zM59 26.24a1.7 1.7 0 1 1-1.7 1.7 1.7 1.7 0 0 1 1.7-1.7zm-4.82 10.15l1.42-4.6s.5-1.33 1.62-1.33h3.6c1.12 0 1.62 1.33 1.62 1.33l1.41 4.6s.26.84-.46 1-.93-.61-.93-.61L61.33 33s-.07-.29-.29-.23-.14.38-.14.38l2 7.19H61v5.16a.89.89 0 0 1-1.77 0v-5.17h-.5v5.16a.89.89 0 0 1-1.77 0v-5.16h-1.81l2-7.19s.08-.31-.14-.38-.29.23-.29.23l-1.14 3.84s-.21.83-.92.61-.48-1.05-.48-1.05zm-3.64-1.82A1.43 1.43 0 1 1 49.12 36a1.43 1.43 0 0 1 1.42-1.43zm-2.67 1.86a.52.52 0 0 1 .45.24s.7 1.22.92 1.44a.56.56 0 0 0 .44.2h1.73a.57.57 0 0 0 .44-.2 13.79 13.79 0 0 0 .9-1.39.54.54 0 0 1 .72-.23.46.46 0 0 1 .23.63l-.13.25-1.32 2.4a.91.91 0 0 0-.09.34V40.57a1.64 1.64 0 0 0 .06.36l.7 2.72h-.76v2a.7.7 0 1 1-1.4 0v-2h-.43v2a.7.7 0 0 1-1.4 0v-2h-.76l.69-2.72a1.67 1.67 0 0 0 .07-.44v-.39a.91.91 0 0 0-.09-.34l-1.43-2.6a.77.77 0 0 1-.06-.22.52.52 0 0 1 .52-.51zm-5.4-11a1.78 1.78 0 1 1-1.79 1.78 1.78 1.78 0 0 1 1.79-1.77zM38.23 37v-4.95a2.37 2.37 0 0 1 2.16-2.36h4.15a2.36 2.36 0 0 1 2.15 2.36V37a.69.69 0 1 1-1.37 0v-4.26a.32.32 0 0 0-.34-.37c-.2 0-.24.21-.25.35v12.69a1 1 0 1 1-2 0V38.1a.27.27 0 0 0-.28-.29.27.27 0 0 0-.28.29v7.31a1 1 0 1 1-2 0V32.72c0-.14-.05-.35-.25-.35a.32.32 0 0 0-.34.37V37a.69.69 0 0 1-.59.67L37.45 46a.26.26 0 0 1-.26.22.28.28 0 0 1-.22-.32l1.59-8.33a.68.68 0 0 1-.33-.57zM64.4 64.73a.15.15 0 0 1-.14.12h-27.7a.14.14 0 0 1-.14-.14V60.3a.15.15 0 0 1 .14-.15h27.69a.16.16 0 0 1 .14.12v4.46zm0-7.81a.16.16 0 0 1-.14.12h-27.7a.15.15 0 0 1-.14-.15v-4.4a.14.14 0 0 1 .14-.14h27.69a.15.15 0 0 1 .14.12z"/></svg>