<svg id="TARGETS" xmlns="http://www.w3.org/2000/svg" viewBox="0 0 94.85 94.85" width="94.85" height="94.85"><defs><style>.cls-1{fill:#19486a}.cls-2{fill:#fff}</style></defs><title>Goal_17_RGB_NG</title><path class="cls-1" d="M0 0h94.85v94.85H0z"/><path class="cls-2" d="M84.4 40.67a37.29 37.29 0 0 0-6.89-14.06l-.08.06a33.68 33.68 0 0 1 2.75 4.88 34.12 34.12 0 0 1-57.65 36.27 32.21 32.21 0 0 1 46.76-43.91l.2.18a1.21 1.21 0 0 0 .73.27 1.24 1.24 0 0 0 .81-.31l.13-.13 4.09-4 .27-.26a1.18 1.18 0 0 0-.07-1.56l-.13-.12a39.57 39.57 0 1 0-50.84 60.6A37.34 37.34 0 0 0 84.4 40.67z"/><path class="cls-2" d="M31.55 47.32c3.51 0 6.35-1 6.35-2.35 0 0 .07-1.21.05-1.47a1.42 1.42 0 0 0-.11-.5 1.41 1.41 0 0 0 .72-1.07s.06-1.35 0-1.61c-.17-1.59-3.37-2.44-6.38-2.44s-6.41.9-6.41 2.58c0 .08.06 1.47.06 1.47a.9.9 0 0 0 .08.28 1.62 1.62 0 0 0-.8 1.29c0 .08.06 1.47.06 1.47a1.28 1.28 0 0 0 .5.92 7.16 7.16 0 0 0 3.38 1.25 16 16 0 0 0 2.5.18zm.66-8.78c3.38 0 5.74 1 5.74 1.92s-2.36 1.92-5.74 1.92-5.74-1-5.74-1.92 2.35-1.92 5.74-1.92zm-6.4 5a1 1 0 0 1 .49-.72 3.52 3.52 0 0 0 .65.47 11.77 11.77 0 0 0 5.26 1 13.54 13.54 0 0 0 4.49-.69c.21-.08.38-.17.55-.25a.42.42 0 0 1 0 .15c0 .91-2.36 1.92-5.74 1.92s-5.7-1.01-5.7-1.92z"/><path class="cls-2" d="M38.56 46a.54.54 0 0 0-.16-.26.81.81 0 0 0-.16-.14.92.92 0 0 0-.24-.1 1.4 1.4 0 0 1-.29.37 1.17 1.17 0 0 1 .25.14.6.6 0 0 1 .3.48.57.57 0 0 1-.23.42l-.24.19-.37.2s-.39.18-.56.24l-.56.18-.76.18-1 .16-1 .09c-.1 0-1.05.06-1.47.07a13.94 13.94 0 0 1-2-.15c-.49-.07-1-.16-1.43-.27a8 8 0 0 1-1.53-.48 2.88 2.88 0 0 1-.78-.53 2.66 2.66 0 0 1-.5-.67V47.73a1.28 1.28 0 0 0 .5.92 7.11 7.11 0 0 0 3.38 1.25 15.93 15.93 0 0 0 2.47.18 15.18 15.18 0 0 0 3.56-.4 6.83 6.83 0 0 0 1.8-.7 4.62 4.62 0 0 0 .4-.28 1.68 1.68 0 0 0 .48-.62 1 1 0 0 0 .06-.33v-1.37a.6.6 0 0 0 .08-.38zM37.82 51.63a5.15 5.15 0 0 1-1.39.61 13.83 13.83 0 0 1-4.34.54 17.59 17.59 0 0 1-2.15-.16c-.49-.07-.85-.15-1.31-.25-.22-.06-.44-.11-.64-.18a5.17 5.17 0 0 1-1.69-.81 1.88 1.88 0 0 1-.47-.5v1.41a1.25 1.25 0 0 0 .5.92 7 7 0 0 0 3.38 1.25 15.88 15.88 0 0 0 2.47.19 14.49 14.49 0 0 0 3.55-.41 6.63 6.63 0 0 0 1.8-.7c.59-.36.94-.78.94-1.23v-1.4a2.66 2.66 0 0 1-.65.72z"/><path class="cls-2" d="M26.31 50.94a7.16 7.16 0 0 0 3.38 1.25 16 16 0 0 0 2.47.18 14.61 14.61 0 0 0 3.56-.4 6.55 6.55 0 0 0 1.79-.7A4.39 4.39 0 0 0 38 51a1.58 1.58 0 0 0 .48-.62 1 1 0 0 0 .06-.33v-1.4c-.22.27-.76 1.1-3.27 1.61a18.55 18.55 0 0 1-3.23.28 11.83 11.83 0 0 1-5.08-1 4 4 0 0 1-.8-.54 3.21 3.21 0 0 1-.39-.48v1.55a1.27 1.27 0 0 0 .54.87zM38.62 55.45a2.67 2.67 0 0 1-.77.73 5.12 5.12 0 0 1-1.39.62 14.14 14.14 0 0 1-4.34.54 15.94 15.94 0 0 1-2.12-.17 12.48 12.48 0 0 1-1.3-.25 8.71 8.71 0 0 1-.65-.17 5.39 5.39 0 0 1-1.69-.81 2.08 2.08 0 0 1-.47-.51v1.42a1.25 1.25 0 0 0 .5.91A7 7 0 0 0 29.77 59a15.93 15.93 0 0 0 2.47.18 15.18 15.18 0 0 0 3.56-.4 6.89 6.89 0 0 0 1.79-.7c.59-.36.94-.78.94-1.23.06 0 .11-1.29.09-1.4z"/><path class="cls-2" d="M29.72 56.74a16 16 0 0 0 2.48.19 15.09 15.09 0 0 0 3.55-.4 6.76 6.76 0 0 0 1.8-.7 3 3 0 0 0 .39-.28 1.56 1.56 0 0 0 .48-.61 1 1 0 0 0 .06-.34v-1.39c-.22.26-.76 1.09-3.26 1.61a18.89 18.89 0 0 1-3.24.27 11.84 11.84 0 0 1-5.08-1 4 4 0 0 1-.8-.55 2.86 2.86 0 0 1-.38-.48v1.56a1.21 1.21 0 0 0 .5.89 7 7 0 0 0 3.5 1.23z"/><g><path class="cls-2" d="M47.74 47.45c3.51 0 6.35-1.05 6.35-2.36 0 0 .07-1.21 0-1.46a1.51 1.51 0 0 0-.11-.51 1.43 1.43 0 0 0 .72-1.06s.06-1.35 0-1.62c-.09-1.58-3.29-2.44-6.3-2.44s-6.4.91-6.4 2.59c0 .08.06 1.47.06 1.47a1.09 1.09 0 0 0 .08.28 1.6 1.6 0 0 0-.8 1.29c0 .08.06 1.46.06 1.46a1.25 1.25 0 0 0 .5.92 7 7 0 0 0 3.38 1.25 15.88 15.88 0 0 0 2.46.19zm.66-8.79c3.38 0 5.74 1 5.74 1.93s-2.36 1.92-5.74 1.92-5.75-1-5.75-1.92 2.35-1.93 5.75-1.93zm-6.41 5a1 1 0 0 1 .5-.73 2.79 2.79 0 0 0 .65.47 11.63 11.63 0 0 0 5.26 1 13.32 13.32 0 0 0 4.49-.69 5.65 5.65 0 0 0 .55-.25.42.42 0 0 1 0 .16c0 .9-2.36 1.92-5.74 1.92S42 44.53 42 43.63z"/><path class="cls-2" d="M54.75 46.16a.81.81 0 0 0-.16-.25 1.31 1.31 0 0 0-.42-.29 1.93 1.93 0 0 1-.29.38 1.49 1.49 0 0 1 .25.13.62.62 0 0 1 .3.49.57.57 0 0 1-.23.42 2.5 2.5 0 0 1-.24.18l-.37.21-.56.24-.56.18-.76.18-1 .15-1 .1c-.1 0-1 .06-1.46.06a12.66 12.66 0 0 1-2-.15c-.49-.06-1-.16-1.44-.26a10.26 10.26 0 0 1-1.52-.48 2.66 2.66 0 0 1-.78-.54 2.62 2.62 0 0 1-.5-.66v1.6a1.25 1.25 0 0 0 .5.92A7 7 0 0 0 45.93 50a15.88 15.88 0 0 0 2.47.19 14.49 14.49 0 0 0 3.6-.39 6.76 6.76 0 0 0 1.8-.7 2.44 2.44 0 0 0 .39-.28 1.43 1.43 0 0 0 .48-.62.88.88 0 0 0 .07-.33V46.5a.81.81 0 0 0 .01-.34zM54 51.75a5.27 5.27 0 0 1-1.39.62 14.14 14.14 0 0 1-4.34.54 15.94 15.94 0 0 1-2.15-.17 12.68 12.68 0 0 1-1.31-.25l-.64-.17a5.39 5.39 0 0 1-1.69-.81A1.76 1.76 0 0 1 42 51v1.42a1.25 1.25 0 0 0 .5.91 7 7 0 0 0 3.38 1.26 15.84 15.84 0 0 0 2.47.18 15.09 15.09 0 0 0 3.55-.4 7.12 7.12 0 0 0 1.8-.7c.59-.36.94-.78.94-1.23v-1.4a3 3 0 0 1-.64.71z"/><path class="cls-2" d="M42.5 51.06a7 7 0 0 0 3.38 1.25 16 16 0 0 0 2.47.19 15.18 15.18 0 0 0 3.56-.4 6.55 6.55 0 0 0 1.79-.7 3.13 3.13 0 0 0 .4-.28 1.66 1.66 0 0 0 .48-.61 1 1 0 0 0 .06-.34v-1.39c-.21.26-.75 1.1-3.26 1.61a19.61 19.61 0 0 1-3.24.28 12 12 0 0 1-5.07-1 3.75 3.75 0 0 1-.8-.55 3.21 3.21 0 0 1-.39-.48v1.56a1.25 1.25 0 0 0 .62.86zM54.81 55.57a2.66 2.66 0 0 1-.77.74 5.15 5.15 0 0 1-1.39.61 13.83 13.83 0 0 1-4.34.54 17.59 17.59 0 0 1-2.15-.16c-.49-.07-.85-.15-1.31-.25-.22-.06-.44-.11-.64-.18a5.17 5.17 0 0 1-1.69-.81 1.73 1.73 0 0 1-.47-.5v1.41a1.25 1.25 0 0 0 .5.92A7.11 7.11 0 0 0 46 59.14a15.88 15.88 0 0 0 2.47.19 14.49 14.49 0 0 0 3.53-.41 6.76 6.76 0 0 0 1.8-.7c.59-.36.94-.78.94-1.23.04.01.09-1.3.07-1.42z"/><path class="cls-2" d="M45.91 56.87a16 16 0 0 0 2.47.18 14.67 14.67 0 0 0 3.56-.4 6.55 6.55 0 0 0 1.79-.7 4.62 4.62 0 0 0 .4-.28 1.58 1.58 0 0 0 .48-.62 1 1 0 0 0 .06-.33v-1.4c-.21.27-.75 1.1-3.26 1.61a18.55 18.55 0 0 1-3.23.28 11.83 11.83 0 0 1-5.08-1 4 4 0 0 1-.8-.54 3.21 3.21 0 0 1-.39-.48v1.55a1.23 1.23 0 0 0 .49.9 7.16 7.16 0 0 0 3.51 1.23z"/></g><g><path class="cls-2" d="M64 47.39c3.51 0 6.35-1.06 6.35-2.36 0 0 .07-1.21 0-1.47a1.51 1.51 0 0 0-.11-.5A1.43 1.43 0 0 0 71 42s.06-1.35 0-1.61c-.17-1.59-3.37-2.44-6.38-2.44s-6.41.91-6.41 2.58c0 .09.06 1.47.06 1.47a.9.9 0 0 0 .08.28 1.62 1.62 0 0 0-.8 1.29c0 .08.06 1.47.06 1.47a1.25 1.25 0 0 0 .5.92 7.11 7.11 0 0 0 3.38 1.25 15.88 15.88 0 0 0 2.51.18zm.66-8.79c3.38 0 5.74 1 5.74 1.92s-2.4 1.93-5.75 1.93-5.75-1-5.75-1.93 2.36-1.92 5.75-1.92zm-6.41 5a1.05 1.05 0 0 1 .5-.72 3.11 3.11 0 0 0 .65.47 11.63 11.63 0 0 0 5.26 1 13.58 13.58 0 0 0 4.49-.69 5.65 5.65 0 0 0 .55-.25.42.42 0 0 1 0 .15c0 .91-2.36 1.93-5.74 1.93s-5.72-1.02-5.72-1.93z"/><path class="cls-2" d="M71 46.1a.51.51 0 0 0-.16-.25.92.92 0 0 0-.16-.15l-.26-.14a1.74 1.74 0 0 1-.29.37 2 2 0 0 1 .25.14.6.6 0 0 1 .3.49.59.59 0 0 1-.23.42l-.24.18-.37.2s-.39.18-.56.24l-.56.18L68 48l-1 .16-1 .1c-.1 0-1 .06-1.46.06a12.66 12.66 0 0 1-2-.15c-.49-.07-1-.16-1.44-.26a10.26 10.26 0 0 1-1.52-.48 2.87 2.87 0 0 1-.78-.54 2.62 2.62 0 0 1-.5-.66v1.6a1.25 1.25 0 0 0 .5.92A7.11 7.11 0 0 0 62.18 50a15.88 15.88 0 0 0 2.47.19 14.49 14.49 0 0 0 3.55-.41A6.76 6.76 0 0 0 70 49a2.44 2.44 0 0 0 .39-.28 1.43 1.43 0 0 0 .48-.62.78.78 0 0 0 .07-.33V46.4a.77.77 0 0 0 .06-.3zM70.26 51.69a5.27 5.27 0 0 1-1.39.62 14.46 14.46 0 0 1-4.34.54 17.76 17.76 0 0 1-2.15-.17 12.68 12.68 0 0 1-1.31-.25l-.64-.17a5.45 5.45 0 0 1-1.69-.82 1.6 1.6 0 0 1-.47-.5v1.42a1.25 1.25 0 0 0 .5.91 7 7 0 0 0 3.38 1.26 15.84 15.84 0 0 0 2.47.18 15.09 15.09 0 0 0 3.55-.4 7.51 7.51 0 0 0 1.8-.7c.59-.35.94-.77.94-1.22v-1.4a3 3 0 0 1-.65.7z"/><path class="cls-2" d="M58.75 51a7.11 7.11 0 0 0 3.38 1.25 16 16 0 0 0 2.47.19 14.64 14.64 0 0 0 3.56-.44 6.55 6.55 0 0 0 1.79-.7 3.13 3.13 0 0 0 .4-.28 1.61 1.61 0 0 0 .48-.62 1 1 0 0 0 .06-.33v-1.4c-.21.27-.75 1.1-3.26 1.61a18.58 18.58 0 0 1-3.24.28 12 12 0 0 1-5.07-1 4 4 0 0 1-.8-.55 3.21 3.21 0 0 1-.39-.48v1.56a1.25 1.25 0 0 0 .62.91zM71.06 55.51a2.8 2.8 0 0 1-.77.74 5.49 5.49 0 0 1-1.39.61 13.83 13.83 0 0 1-4.34.54 15.94 15.94 0 0 1-2.15-.17A10.84 10.84 0 0 1 61.1 57l-.64-.17a5.39 5.39 0 0 1-1.69-.83 2 2 0 0 1-.47-.5V56.91a1.25 1.25 0 0 0 .5.92 7.11 7.11 0 0 0 3.38 1.25 15.88 15.88 0 0 0 2.47.19 14.49 14.49 0 0 0 3.55-.41 6.76 6.76 0 0 0 1.8-.7c.59-.36.94-.78.94-1.23.06-.02.14-1.31.12-1.42z"/><path class="cls-2" d="M62.16 56.81a16 16 0 0 0 2.47.18 15.11 15.11 0 0 0 3.56-.4 7.26 7.26 0 0 0 1.79-.7 3.13 3.13 0 0 0 .4-.28 1.56 1.56 0 0 0 .48-.61 1 1 0 0 0 .06-.33v-1.4c-.21.27-.75 1.1-3.26 1.61a19.58 19.58 0 0 1-3.23.28 12 12 0 0 1-5.08-1 4.47 4.47 0 0 1-.8-.54 3.21 3.21 0 0 1-.39-.48v1.55a1.23 1.23 0 0 0 .49.89 7 7 0 0 0 3.51 1.23z"/></g></svg>