<svg id="TARGETS" xmlns="http://www.w3.org/2000/svg" viewBox="0 0 94.85 94.85" width="94.85" height="94.85"><defs><style>.cls-1{fill:#c5192d}.cls-2{fill:#fff}</style></defs><title>Goal_4_RGB_NG</title><path class="cls-1" d="M0 0h94.85v94.85H0z"/><path class="cls-2" d="M18.65 37.42v4.22c0 2.41 6.26 4.55 11.31 4.58s11.3-2.07 11.34-4.48v-4.18L30 40.89z"/><path class="cls-2" d="M49.54 33.05L30 27l-19.39 6 2 .6 3.18 1v8.55a.56.56 0 0 0-.31.45l-.26 5.26h1.6l-.22-5.26a.58.58 0 0 0-.3-.46v-8.4l.83.25v-.07L30 38.8zM84.09 49.65L79.44 34.5s-1.67-4.38-5.35-4.38H65.8a4.79 4.79 0 0 1-3.5-1.32L52.12 13.57A2.29 2.29 0 0 0 48 15.66l8.87 14.77 3.8 7a5.92 5.92 0 0 1 .58 3.92l-5.83 21.29h6.08v17a2.92 2.92 0 0 0 5.83 0v-17H69v17a2.92 2.92 0 0 0 5.84 0v-17h6.07L74.36 39s-.27-1 .46-1.25.94.76.94.76l3.75 12.59s.71 2.71 3 2 1.58-3.45 1.58-3.45zM74.35 18.75a2.53 2.53 0 0 0 .88.28c1.68.22 2.16 1 2.35 1.46 0 .12.09-.07.12-.34 0 0 .23-3-1.84-4-1.68-.79-2.47.12-2.57.88a3.16 3.16 0 0 0 0 .32 6.64 6.64 0 0 1 1.06 1.4z"/><path class="cls-2" d="M59.27 20.49c.19-.46.67-1.24 2.35-1.46a2.35 2.35 0 0 0 1-.33 7.71 7.71 0 0 1 .94-1.32 2.13 2.13 0 0 0 0-.39c-.1-.76-.89-1.67-2.57-.88-2.07 1-1.84 4-1.84 4 .03.31.08.5.12.38zM68.45 27.68A5.73 5.73 0 1 0 62.72 22a5.73 5.73 0 0 0 5.73 5.68z"/><g><path class="cls-2" d="M28.43 79a7.09 7.09 0 0 1-1.78.79 18.08 18.08 0 0 1-5.54.68 22.11 22.11 0 0 1-2.74-.21A16.48 16.48 0 0 1 16.7 80c-.29-.07-.57-.14-.82-.22a6.71 6.71 0 0 1-2.16-1 2.44 2.44 0 0 1-.6-.64v1.81a1.59 1.59 0 0 0 .63 1.17 9.1 9.1 0 0 0 4.32 1.6 20.78 20.78 0 0 0 3.15.24 19.31 19.31 0 0 0 4.55-.52 9 9 0 0 0 2.3-.9c.76-.45 1.2-1 1.2-1.56 0 0 .07-1.65 0-1.79a3.44 3.44 0 0 1-.84.81zM20.47 73.53c4.48 0 8.11-1.35 8.11-3 0 0 .09-1.54.06-1.87a1.81 1.81 0 0 0-.14-.66 1.81 1.81 0 0 0 .92-1.37s.07-1.72 0-2.06c-.22-2-4.31-3.11-8.16-3.11s-8.18 1.15-8.18 3.3c0 .1.08 1.87.08 1.87a1.14 1.14 0 0 0 .1.36 2.09 2.09 0 0 0-1 1.65c0 .1.08 1.87.08 1.87a1.59 1.59 0 0 0 .66 1.18 9 9 0 0 0 4.31 1.61 20.86 20.86 0 0 0 3.16.23zm.83-11.22c4.33 0 7.34 1.3 7.34 2.46s-3 2.45-7.34 2.45-7.3-1.29-7.3-2.45 3-2.46 7.3-2.46zm-8.17 6.34a1.36 1.36 0 0 1 .63-.93 3.62 3.62 0 0 0 .83.6 14.9 14.9 0 0 0 6.72 1.33 17.17 17.17 0 0 0 5.69-.88 6.81 6.81 0 0 0 .71-.32.71.71 0 0 1 0 .2c0 1.16-3 2.45-7.33 2.45s-7.25-1.29-7.25-2.45z"/><path class="cls-2" d="M18.05 79.74a19.6 19.6 0 0 0 3.16.24 19.31 19.31 0 0 0 4.54-.51h.05a8.68 8.68 0 0 0 2.29-.89 2.79 2.79 0 0 0 .5-.36 1.88 1.88 0 0 0 .61-.78 1.07 1.07 0 0 0 .09-.43v-1.78c-.27.34-1 1.4-4.17 2a23.89 23.89 0 0 1-4.13.36c-2.59-.06-5.28-.52-6.49-1.27a5.71 5.71 0 0 1-1-.7 4.09 4.09 0 0 1-.49-.61v1.98a1.59 1.59 0 0 0 .64 1.14 9 9 0 0 0 4.4 1.61z"/><path class="cls-2" d="M29.22 71.56a1.7 1.7 0 0 0-.21-.18 1.79 1.79 0 0 0-.34-.18 1.73 1.73 0 0 1-.36.47 2.74 2.74 0 0 1 .32.18.81.81 0 0 1 .38.62.74.74 0 0 1-.29.54 2.21 2.21 0 0 1-.32.23s-.33.2-.46.26-.5.23-.72.31c0 0-.5.17-.72.23l-1 .23c-.06 0-.85.15-1.23.2l-1.27.12c-.13 0-1.34.08-1.87.08a16.7 16.7 0 0 1-2.59-.19c-.62-.09-1.25-.2-1.83-.34a11.91 11.91 0 0 1-1.94-.61A3.61 3.61 0 0 1 13.16 72v2.06a1.61 1.61 0 0 0 .64 1.17 9.05 9.05 0 0 0 4.31 1.6 20.81 20.81 0 0 0 3.16.24 18.77 18.77 0 0 0 4.54-.52 8.67 8.67 0 0 0 2.29-.9 5.41 5.41 0 0 0 .5-.36 1.9 1.9 0 0 0 .61-.79 1 1 0 0 0 .08-.42s.07-1.71.07-1.75a1 1 0 0 0-.06-.42 1.1 1.1 0 0 0-.08-.35zM39.14 67.67c4.48 0 8.11-1.34 8.11-3 0 0 .09-1.55.06-1.88a1.81 1.81 0 0 0-.14-.64 1.81 1.81 0 0 0 .92-1.37s.07-1.72 0-2.05c-.22-2-4.31-3.12-8.15-3.12s-8.18 1.16-8.18 3.3c0 .1.07 1.87.07 1.87a1.14 1.14 0 0 0 .1.36 2.09 2.09 0 0 0-1 1.65c0 .1.08 1.88.08 1.88a1.61 1.61 0 0 0 .64 1.17 9.05 9.05 0 0 0 4.35 1.6 20.86 20.86 0 0 0 3.14.23zM40 56.45c4.32 0 7.33 1.3 7.33 2.46s-3 2.45-7.33 2.45-7.34-1.29-7.34-2.45 2.99-2.46 7.34-2.46zm-8.2 6.34a1.31 1.31 0 0 1 .64-.92 4 4 0 0 0 .82.6A14.94 14.94 0 0 0 40 63.79a17 17 0 0 0 5.74-.88 5.67 5.67 0 0 0 .7-.32.84.84 0 0 1 0 .2c0 1.16-3 2.45-7.34 2.45s-7.3-1.24-7.3-2.45z"/><path class="cls-2" d="M48.09 66a.82.82 0 0 0-.2-.32 2.34 2.34 0 0 0-.21-.19 2 2 0 0 0-.33-.18 2.08 2.08 0 0 1-.37.48 2.12 2.12 0 0 1 .32.17.81.81 0 0 1 .38.62.73.73 0 0 1-.29.54 2.78 2.78 0 0 1-.31.23s-.34.2-.47.26-.5.23-.72.31c0 0-.5.17-.72.23s-.7.18-1 .23c-.06 0-.85.15-1.23.2-.1 0-.93.1-1.27.12-.13 0-1.34.08-1.87.09a18 18 0 0 1-2.59-.19c-.62-.09-1.25-.21-1.83-.35a10.14 10.14 0 0 1-1.94-.61 3.41 3.41 0 0 1-1-.68 3.72 3.72 0 0 1-.64-.85v2.06a1.61 1.61 0 0 0 .64 1.17A9 9 0 0 0 36.82 71a20.81 20.81 0 0 0 3.18.2 18.77 18.77 0 0 0 4.54-.52 8.67 8.67 0 0 0 2.29-.9 4.33 4.33 0 0 0 .5-.36 1.9 1.9 0 0 0 .61-.79 1.06 1.06 0 0 0 .09-.42s.06-1.71.06-1.75a.94.94 0 0 0 0-.46zM47.15 73.17a7.07 7.07 0 0 1-1.78.79 18.43 18.43 0 0 1-5.54.69 22.27 22.27 0 0 1-2.75-.22 14.11 14.11 0 0 1-1.67-.32 8.87 8.87 0 0 1-.82-.22 6.65 6.65 0 0 1-2.16-1 2.66 2.66 0 0 1-.6-.65v1.81a1.57 1.57 0 0 0 .64 1.17 9 9 0 0 0 4.31 1.6A20.81 20.81 0 0 0 40 77a18.77 18.77 0 0 0 4.54-.52 8.67 8.67 0 0 0 2.29-.9c.75-.46 1.19-1 1.19-1.57 0 0 .07-1.65.05-1.79a3.77 3.77 0 0 1-.92.95z"/><path class="cls-2" d="M32.45 72.29a9.05 9.05 0 0 0 4.31 1.6 20.86 20.86 0 0 0 3.16.23 19.31 19.31 0 0 0 4.54-.51 8.68 8.68 0 0 0 2.29-.89 3.37 3.37 0 0 0 .5-.35 2.1 2.1 0 0 0 .62-.79 1.25 1.25 0 0 0 .08-.42v-1.79c-.27.34-1 1.4-4.17 2.06a23.92 23.92 0 0 1-4.13.35c-2.59 0-5.28-.52-6.49-1.27a5.55 5.55 0 0 1-1-.7 4.09 4.09 0 0 1-.49-.61v1.99a1.6 1.6 0 0 0 .78 1.1zM48.17 78.05a3.77 3.77 0 0 1-1 .94 7.1 7.1 0 0 1-1.78.78 17.8 17.8 0 0 1-5.54.69 22.11 22.11 0 0 1-2.75-.21c-.62-.09-1.09-.18-1.67-.32-.29-.07-.56-.14-.82-.22a6.93 6.93 0 0 1-2.16-1 2.44 2.44 0 0 1-.6-.64v1.81a1.61 1.61 0 0 0 .7 1.12 9.05 9.05 0 0 0 4.31 1.6 20.86 20.86 0 0 0 3.16.23 19.31 19.31 0 0 0 4.54-.51 8.68 8.68 0 0 0 2.29-.89c.75-.45 1.19-1 1.19-1.56.08-.03.15-1.68.13-1.82z"/><path class="cls-2" d="M36.8 79.7a19.6 19.6 0 0 0 3.16.24 18.71 18.71 0 0 0 4.54-.52 8.68 8.68 0 0 0 2.29-.89 3.3 3.3 0 0 0 .51-.36 2.06 2.06 0 0 0 .61-.78 1.26 1.26 0 0 0 .08-.43v-1.78c-.27.34-1 1.4-4.17 2a23.8 23.8 0 0 1-4.13.36c-2.59-.06-5.28-.52-6.48-1.27a5.8 5.8 0 0 1-1-.7 4.09 4.09 0 0 1-.49-.61v1.98a1.59 1.59 0 0 0 .64 1.14 9 9 0 0 0 4.44 1.62z"/></g></svg>