<svg id="TARGETS" xmlns="http://www.w3.org/2000/svg" viewBox="0 0 94.85 94.85" width="94.85" height="94.85"><defs><style>.cls-1{fill:#0a97d9}.cls-2{fill:none}.cls-3{fill:#fff}</style></defs><title>Goal_14_RGB_NG</title><path class="cls-1" d="M0 0h94.85v94.85H0z"/><path class="cls-2" d="M10.28 53.55l-.38-2-1.6.93.19 2.12 1.79-1.05zM9.82 51.16l-.39-2.02-1.36.79.19 2.14 1.56-.91zM10.51 42.76l-2.88-7.17 2.26 7.53.62-.36zM9.55 43.31l-2.41-8.04 1.64 8.49.77-.45zM8.85 44.14l.39 2.02 1-.58-.58-1.91-.81.47z"/><path d="M33.29 67.39c-.37-.09-.74-.18-1.1-.3l-26.35-37 25 20.76.75-4.23L5.8 30.07l25.62 1.85v-.37L5.57 29.67v.06-.05 36.59A.5.5 0 0 1 6 66a.32.32 0 0 1 .09 0 2.06 2.06 0 0 1 .26.12 16.59 16.59 0 0 0 1.65.81l-.94-.38L9 65.46l.17 1.84.38.1-.19-2.16 2.77-1.61.44 2.3-2.7 1.56.52.13 2.26-1.3L13 68h.38L13 66.12l2.81-1.63.65 2.18L14.09 68h.77l1.68-1 .22.73.36-.08-.25-.84 2.56-1.48.57 1.4c.11 0 .23-.08.34-.14l-.57-1.42 2.6-1.51.63 1.27.3-.24-.63-1.22 2.17-1.25L26 64a6.55 6.55 0 0 1-.55-.41c2.2 1.69 12.38 8.57 21.43.13l.06-.06v-20L28.11 55zm-8.07-8.79l-1.6.93-1.18-1.9 1.48-.86zm-16.6-1.35l-.18-2.07 1.83-1.08.38 2zm2.11-.79v.11a4.65 4.65 0 0 0-.85 2.54l-1.05.61-.19-2.06zm8.52.36l1.65-1 1 1.63-1.78 1zm.56 1.91l-.7.41a4.72 4.72 0 0 0-.49-2l.31-.18zm-.73-2.24l-.89-1.74 1.48-.85 1 1.65zM18 54.42l-.86-1.67 1.34-.75 1 1.6zm-1-2l-.9-1.72 1.16-.7 1 1.64zm-1.06-2.05l-.87-1.7 1-.58 1 1.61zm-3.77-3.13l-1 .57-.57-1.89.84-.49zm-.39-2l.85-.49.88 1.71-1 .59zM10.83 48l-1.21.71-.39-2 1-.61zm.11.37l.58 1.91-1.44.84-.39-2zm.33-.2l1-.59.73 1.84-1.18.68zm1.35-.78l1-.61.9 1.74-1.21.7zm2.11 1.46l.87 1.7-1.39.81-.72-1.79zm.15-.52L14 46.6l.84-.49 1 1.66zm-1.06-2.07l-.88-1.71.68-.4 1 1.63zm-1.06-2l-.88-1.72.52-.3 1 1.63zm-1-2l-3.3-6.4 3.75 6zm.73 2.24l-.82.47-.73-1.8.67-.39zm-1.15.66l-.81.47-.57-1.9.65-.38zm-1.14.67l-1 .58-.39-2 .81-.47zm-1.33.77l-1.09.64L7.54 45l.89-.52zm.07.39l.39 2-1.33.69-.19-2.11zm.46 2.39l.39 2-1.56.91-.23-2.2zm.46 2.42l.39 2-1.85.97-.18-2.12zm.35-.2l1.47-.86.56 1.89-1.65 1zM12 50.47l1.21-.7.72 1.79-1.36.8zm2 1.44l.72 1.8-1.55.9-.57-1.88zm.86 2.15l.25.63a4.48 4.48 0 0 0-.64-.06 4.28 4.28 0 0 0-.72.07zm.19-.54l-.73-1.8 1.42-.83.89 1.71zm1.75-.58l.86 1.67-1 .59a4.67 4.67 0 0 0-1.11-.44l-.35-.89zm1 2l.9 1.74-.32.18A4.69 4.69 0 0 0 17 55.4zm1.22 4.64l.9-.52 1 2-2.36 1.37-.27-.68a4.5 4.5 0 0 0 .79-2.17zm1.23-.71l1.8-1 1.18 1.89-2 1.14zm3.39-2.4l-1.46.85-1-1.64 1.36-.79zm-1.34-1.88l-1.3.77-1-1.65 1.23-.71zm-1.3-1.9l-1.21.7-1-1.59 1.1-.65zm-1.3-1.84l-1.09.63-1-1.65 1-.57zM18.35 49l-1 .57-1-1.62.86-.5zM17 47.09l-.83.49-1-1.66.73-.42zm-1.36-1.9l-.7.41-1-1.62.61-.36zm-1.33-1.87l-.59.34-1-1.64.48-.28zM13 41.44l-.46.26-4.47-7.16zm-1.61.92l-.63.37-2.93-7.27zm-1 .56l-.62.36-2.23-7.53zm-.95.56l-.77.45-1.64-8.5zm-1.12.65l-.85.49-.81-9.13zM6.27 35l.87 9.79-.87.51zm0 10.73l.91-.53.19 2.14-1.1.66zm0 2.68l1.14-.66.19 2.11-1.33.77zm0 2.65l1.36-.79.19 2.14-1.55.91zm0 2.68l1.59-.92.19 2.18-1.78 1zm0 2.68l1.81-1.06.19 2.06-2 1.16zm0 2.59l2-1.18.18 2.07-2.18 1.31zm0 2.6l2.25-1.3.2 2.16-2.45 1.45zm.41 4.72l-.37-.17v-1.81l2.48-1.44.15 2.09zm2.2-6.23l1-.6a4.52 4.52 0 0 0 .57 1.94l-1.41.83zm.42 4.71l-.19-2.13 1.56-.91A4.52 4.52 0 0 0 12 63.11v.14zm1.7-9l-.38-2 1.68-1 .57 1.88zm1.89 9.85l-.44-2.3h.08a4.49 4.49 0 0 0 2 .46 4.42 4.42 0 0 0 1-.13l.12.41zm2.88-4.18a2.22 2.22 0 0 1-1 .3v.73h-.36v-.73a2.35 2.35 0 0 1-1.07-.31 1.57 1.57 0 0 1-.62-1.44h1a1.7 1.7 0 0 0 .14.62.8.8 0 0 0 .56.32v-1.5l-.29-.08a1.87 1.87 0 0 1-1-.58 1.39 1.39 0 0 1-.29-.88 1.71 1.71 0 0 1 .11-.62 1.35 1.35 0 0 1 .32-.48 1.23 1.23 0 0 1 .58-.36 2.72 2.72 0 0 1 .56-.1v-.48h.36v.49a1.77 1.77 0 0 1 .94.3 1.45 1.45 0 0 1 .65 1.32h-1a1.21 1.21 0 0 0-.11-.48.55.55 0 0 0-.5-.28v1.39a4.66 4.66 0 0 1 1.17.54 1.28 1.28 0 0 1 .49 1.08 1.47 1.47 0 0 1-.64 1.3zm.13 2.06a4.53 4.53 0 0 0 2.21-1.53l.21.52L16 63.94zm.86 2.87l-.65-2.18 2.35-1.36.82 2.13zm2.85-1.66l-.83-2.06 2.39-1.39 1 2zm2.9-1.68l-1-2 2-1.15 1.16 1.87zm1.3-3.3l1.63-.94 1.28 1.8-1.75 1zM25.17 62l1.77-1 1.3 1.82-1.89 1.1zm1.55 2.48l-.17-.27 1.91-1.1 1.28 1.8-1.14.67c-.73-.35-1.36-.73-1.88-1.07zM29 65.81l1-.56 1 1.43c-.73-.27-1.4-.57-2-.87z"/><path d="M89.2 29.83v-.07l-25.75 1.86v-.68h-6.84V29H48.1V10.63h-1.58V29h-8.21v2h-6.84v1.5h6.84v5.85h-4.66L31.91 51.1l15.3-9.2L63 51.1l-1.79-12.81h-4.6v-5.85h6.84V32L89 30.16 63.2 46.75 64 51l25-20.77L62.68 67c-.39.12-.79.24-1.2.33l5-12.9L47.65 43.6v19.95h.05l.14.14c9 8.44 19.21 1.56 21.43-.13l-.27.24.93-1.49 2.17 1.26-.63 1.21.31.22.64-1.24 2.6 1.5-.55 1.38.34.14.54-1.33 2.56 1.49-.24.77.37.08.19-.66 1.52.88h.77l-2.17-1.26.65-2.16 2.8 1.62-.35 1.79h.38l.3-1.57 2.11 1.22.53-.13L82.21 66l.44-2.29 2.78 1.61-.19 2 .39-.11.15-1.72 1.76 1 .42-.19-2.14-1.24L86 63l2.48 1.43v1.68a1.51 1.51 0 0 1 .18-.09h.11a.52.52 0 0 1 .51.5V29.78zm-37.12 8.33h-9.34v-5.6h9.34zM80.2 48.62l.9-1.74 1 .61-.73 1.83zm1.07 1.05l-.72 1.79-1.39-.81L80 49zm1-2.53l-1-.59.88-1.71.86.5zm1-1.61l.84.49-.57 1.89-1-.58zm-.86 2.15l1 .6-.57 1.92-1.19-.69zm1.35.79l1.25.73-.39 2-1.43-.83zm.12-.37l.56-1.89 1 .6-.38 2zm.67-2.26l.57-1.9.81.47-.38 2zm-.33-.19l-.81-.47.73-1.81.65.37zM83.15 45l-.83-.48.89-1.72.66.39zm-.1-2.72l-.49-.28 3.75-6zm-.16.33L82 44.32l-.66-.38 1-1.64zm-1.06 2.06L81 46.36l-.82-.47 1-1.63zm-1 2l-.9 1.74-1-.58 1-1.65zm-1.07 2.07l-.87 1.69-1.19-.63 1-1.62zm-1 2l-.88 1.71-1.3-.75 1-1.65zm-1 2l-.86 1.68-1.46-.85 1-1.6zm-1 2l-.9 1.74-1.62-1 1-1.65zm-.64 4.55l-1-.58.88-1.72.43.25a4.62 4.62 0 0 0-.35 1.74c-.17.22-.14.31-.14.42zm-.43-2.48l-.88 1.71-1.78-1 1-1.64zm-1.05 2l-1 2-2-1.14 1.18-1.9zm.32.19l1.21.7a4.5 4.5 0 0 0 .57 1.56l-.44 1.09-2.36-1.37zm1.47-2l-.43-.23.9-1.77.78.45A4.53 4.53 0 0 0 76.43 57zm.64-2.32l.86-1.68 1.62.93-.29.72a4.61 4.61 0 0 0-1.26.56zm1-2L79 51l1.42.83-.72 1.8zm1.76 1.45l.59.34a4.54 4.54 0 0 0-.75.07zm.17-.33l.72-1.8 1.4.82-.54 1.8-.27-.06zm.86-2.15l.72-1.79 1.22.71-.57 1.88zm2.27-.89l1.47.85-.39 2-1.65-1zm1.35 3.44l1.83 1.07-.18 2.07-2-1.17zm.07-.39l.39-2 1.6.93-.19 2.12zm.45-2.39l.39-2 1.37.8-.2 2.14zm.49-2.42l.38-2 1.13.65-.19 2.12zm.51-2.38l.39-2 .89.52-.28 2.11zm.46-2.4l1.66-8.64-.81 9.13zm-.34-.2l-.78-.45 2.42-8zM85 43.38l-.66-.38 2.88-7.18zm-1-.55l-.64-.37 3.55-6.9zm2.67-8.2l-4.43 7.17-.46-.27zm-5.13 7.2l.48.28-1 1.64-.59-.34zm-1.34 1.89l.6.35-1 1.63-.71-.41zm-1.34 1.87l.73.43-1 1.66-.84-.49zm-1.34 1.91l.86.49-1 1.62-1-.56zm-1.32 1.85l1 .58-1 1.64-1.08-.63zm-1.35 1.89l1.11.65-1 1.6-1.21-.71zm-1.32 1.85l1.24.71-1 1.66-1.34-.78zM72.18 55l1.36.78-1 1.64-1.46-.85zm-1.34 1.88l1.49.86-1.19 1.89-1.6-.93zM63.9 66.6l.9-1.26.84.49c-.54.27-1.12.53-1.74.77zm4.31-2.26A22.37 22.37 0 0 1 66 65.62L65 65l1.28-1.81 1.92 1.11zm.2-.32l-1.89-1.09 1.31-1.83 1.76 1zm1.38-2.22l-1.74-1 1.27-1.8 1.63.94zm2.47 1.43L70.11 62l1.16-1.86 2 1.15zm2.89 1.68l-2.57-1.49 1-2L76 62.85zM78 66.57l-2.52-1.47.82-2.1 2.35 1.36zm.76-2.57l-2.31-1.34.35-.89a4.6 4.6 0 0 0 2.2 1.64zm3.11 1.79l-2.77-1.6.21-.7a4.45 4.45 0 0 0 1.22.19 4.67 4.67 0 0 0 1.58-.3l.2.11zm-.08-4.42a2.21 2.21 0 0 1-1 .3v.74h-.36v-.73a2.56 2.56 0 0 1-1.08-.32 1.6 1.6 0 0 1-.6-1.36h1a1.88 1.88 0 0 0 .15.62.73.73 0 0 0 .56.32v-1.61l-.3-.09a1.93 1.93 0 0 1-1-.57 1.42 1.42 0 0 1-.29-.89 1.56 1.56 0 0 1 .12-.62 1.42 1.42 0 0 1 .31-.48 1.48 1.48 0 0 1 .58-.36 2.83 2.83 0 0 1 .57-.09v-.49h.36v.5a1.86 1.86 0 0 1 .93.29 1.46 1.46 0 0 1 .64 1.27h-1a1.45 1.45 0 0 0-.1-.47.57.57 0 0 0-.5-.29v1.4A4.81 4.81 0 0 1 82 59a1.31 1.31 0 0 1 .5 1.09 1.47 1.47 0 0 1-.71 1.31zm.21-6.64l.46-1.73 1.68 1-.35 1.84A4.51 4.51 0 0 0 82 54.73zm3.51 10.2l-2.73-1.59v-.24a4.57 4.57 0 0 0 1.37-1.18l1.51.88zm.23-2.54l-1.32-.76a4.51 4.51 0 0 0 .7-1.87l.81.47zm.23-2.57l-.81-.47a2.3 2.3 0 0 0 0-.26 4.47 4.47 0 0 0-.61-2.24l1.57.9zM88.49 64l-2.44-1.4.19-2.17 2.25 1.31zm0-2.72L86.28 60l.18-2 2 1.18zm0-2.6l-2-1.15.18-2.07 1.81 1.05zm0-2.6l-1.77-1L86.9 53l1.59.92zm0-2.66l-1.55-.9.19-2.14 1.36.79zm0-2.68L87.17 50l.19-2.12 1.13.66zm0-2.66l-1.1-.64.19-2.13.91.53zm0-2.67l-.87-.51.87-9.79z"/><path d="M79.82 57.66a.59.59 0 0 0 .23.49 1.36 1.36 0 0 0 .4.19v-1.29a.61.61 0 0 0-.47.17.6.6 0 0 0-.16.44zM80.81 59.45v1.43a.9.9 0 0 0 .41-.13.68.68 0 0 0 .23-.58.63.63 0 0 0-.21-.5 1.53 1.53 0 0 0-.43-.22zM14.78 59.59V61a1.09 1.09 0 0 0 .42-.13.71.71 0 0 0 .23-.59.62.62 0 0 0-.22-.5 1.66 1.66 0 0 0-.43-.19zM13.8 57.81a.59.59 0 0 0 .23.49 1.6 1.6 0 0 0 .39.18v-1.29a.72.72 0 0 0-.47.17.64.64 0 0 0-.15.45z"/><g><path class="cls-3" d="M88.62 78.88h-.11l-.25.13c-2.64 1.34-10.82 4.5-18.26-2.55-.07-.07-.27-.26-.43-.26a1 1 0 0 0-.41.23C67 78.14 56.8 85 47.77 76.56l-.14-.13a.5.5 0 0 0-.37-.15.47.47 0 0 0-.35.15l-.14.13c-9 8.47-19.21 1.57-21.42-.13-.12-.09-.19-.2-.41-.2a.7.7 0 0 0-.43.23C17.09 83.51 8.91 80.35 6.27 79L6 78.9h-.09a.5.5 0 0 0-.51.51V83a.51.51 0 0 0 .14.36c8.58 7.49 16.71.48 18.57-1.38a2 2 0 0 1 .19-.17.42.42 0 0 1 .23-.07.53.53 0 0 1 .36.16c9.69 9.28 19.85 1.76 22 0l.21-.19a.26.26 0 0 1 .19-.08.31.31 0 0 1 .21.08l.21.19c2.1 1.76 12.26 9.28 21.94 0a.5.5 0 0 1 .35-.14.56.56 0 0 1 .28.1.47.47 0 0 1 .14.14c1.88 1.85 10 8.87 18.57 1.38a.51.51 0 0 0 .15-.36v-3.63a.51.51 0 0 0-.51-.51M88.62 66h-.11l-.25.13c-2.64 1.3-10.82 4.45-18.26-2.6-.07-.07-.27-.26-.43-.26a.88.88 0 0 0-.41.24c-2.2 1.7-12.38 8.59-21.41.12l-.14-.13a.5.5 0 0 0-.37-.15.47.47 0 0 0-.35.15l-.14.13c-9 8.47-19.21 1.58-21.42-.12-.12-.1-.19-.21-.41-.21a.7.7 0 0 0-.43.23c-7.42 7-15.6 3.9-18.24 2.57L6 66h-.09a.5.5 0 0 0-.51.51V70a.51.51 0 0 0 .14.36c8.58 7.49 16.71.48 18.57-1.38a2 2 0 0 1 .19-.17.42.42 0 0 1 .23-.07.53.53 0 0 1 .36.16c9.69 9.28 19.85 1.76 22 0l.21-.2a.26.26 0 0 1 .19-.08.31.31 0 0 1 .21.08l.21.2c2.1 1.75 12.26 9.27 21.94 0a.55.55 0 0 1 .35-.14.56.56 0 0 1 .28.1.47.47 0 0 1 .14.14c1.88 1.86 10 8.87 18.57 1.38a.51.51 0 0 0 .15-.36v-3.56a.51.51 0 0 0-.51-.51"/></g></svg>
