<svg id="TARGETS" xmlns="http://www.w3.org/2000/svg" viewBox="0 0 94.85 94.85" width="94.85" height="94.85"><defs><style>.cls-1{fill:#26bde2}.cls-2{fill:#fff}</style></defs><title>Goal_6_RGB_NG</title><path class="cls-1" d="M0 0h94.85v94.85H0z"/><path class="cls-2" d="M22.92 40.78a1.55 1.55 0 1 0-1.55 1.55 1.54 1.54 0 0 0 1.55-1.55zM19.57 42.92A2.07 2.07 0 0 0 17.69 45v4.29a.6.6 0 1 0 1.2 0v-3.7c0-.14 0-.33.29-.33s.22.19.22.31v11a.87.87 0 0 0 1.73 0v-6.32a.23.23 0 0 1 .24-.25.23.23 0 0 1 .25.25v6.37a.87.87 0 0 0 1.73 0v-11c0-.12 0-.31.21-.31s.3.19.3.33v3.68a.6.6 0 0 0 1.2 0V45a2.07 2.07 0 0 0-1.88-2.06h-3.61zM13.35 41a1.52 1.52 0 1 0-3 0 1.52 1.52 0 0 0 3 0zM8.76 49l1-3.42s.06-.27.26-.21.12.34.12.34l-1.76 6.38H10v4.6a.79.79 0 1 0 1.58 0v-4.6h.45v4.6a.79.79 0 0 0 1.58 0v-4.6h1.64l-1.77-6.42s-.07-.28.13-.34.25.21.25.21l1 3.42s.19.74.83.55.41-.94.41-.94l-1.26-4.11s-.45-1.18-1.45-1.18h-3.16c-1 0-1.45 1.18-1.45 1.18l-1.27 4.11s-.22.75.42.94.83-.51.83-.51zM52.58 22.56v3.25a.11.11 0 0 0 .11.11h1.44a.11.11 0 0 0 .11-.11v-3.28a4.81 4.81 0 0 0 3.84-4.88c0-2.5-1.66-6.43-3.84-7.44a2.52 2.52 0 0 0-.84-.21h-.2c-1.88 0-3.48 2.38-4.27 4.8l-.15.48a9.26 9.26 0 0 0-.37 2.42 4.85 4.85 0 0 0 4.17 4.86zM39.06 22.56h3.49v3.25a.11.11 0 0 0 .11.11h1.46a.12.12 0 0 0 .12-.11v-3.25h3.51a.24.24 0 0 0 .24-.24.28.28 0 0 0 0-.09L43.7 8.31v-.05a.25.25 0 0 0-.22-.14.23.23 0 0 0-.2.11v.09l-4.41 13.87a.33.33 0 0 0 0 .14.24.24 0 0 0 .19.23zM83.13 43.22s1.07-.55 1.07-1.22a3.79 3.79 0 0 0-1-1.93s-1.1 1.07-1.1 1.93.81 1.07 1.03 1.22zM81.43 44.45s.26.34 1.51.54c0 0 .13-1.2-.33-1.69a6.2 6.2 0 0 0-1.8-1.3s-.18 1.89.62 2.45zM81.32 46.94s.28.37 1.62.58c0 0 .14-1.3-.36-1.83a6.54 6.54 0 0 0-1.93-1.37s-.19 2.01.67 2.62zM80.68 46.94s-.29 2.17.57 2.78a3 3 0 0 0 1.69.62s.2-1.33-.3-1.87c0 0-.27-.56-1.96-1.53zM81.12 52.43a3.52 3.52 0 0 0 1.79.64s.16-1.46-.33-2a6.94 6.94 0 0 0-2.18-1.5s-.14 2.26.72 2.86zM83.67 43.3c-.46.49-.33 1.69-.33 1.69 1.25-.2 1.51-.54 1.51-.54.8-.56.62-2.41.62-2.41a6.2 6.2 0 0 0-1.8 1.26zM85.63 44.32a6.54 6.54 0 0 0-1.93 1.37c-.5.53-.35 1.83-.35 1.83 1.33-.21 1.61-.58 1.61-.58.87-.61.67-2.62.67-2.62zM83.64 48.47c-.49.54-.29 1.87-.29 1.87a3 3 0 0 0 1.65-.62c.86-.61.57-2.78.57-2.78-1.66.97-1.93 1.53-1.93 1.53zM85.88 49.57a7.13 7.13 0 0 0-2.18 1.5c-.49.54-.32 2-.32 2a3.51 3.51 0 0 0 1.78-.64c.84-.6.72-2.86.72-2.86zM82.84 53.41h.59v5.04h-.59zM81.05 37.56a.19.19 0 0 0-.19.2v3.92l.39.23v-4.15a.2.2 0 0 0-.2-.2zM82.05 37.13a.19.19 0 0 0-.19-.2.2.2 0 0 0-.2.2v4.63a5.78 5.78 0 0 1 .39-1zM82.69 35.93a.2.2 0 0 0-.2.19v4.05l.39-.53v-3.52a.19.19 0 0 0-.19-.19zM85.24 37.56a.2.2 0 0 0-.2.2v4.15l.4-.23v-3.92a.2.2 0 0 0-.2-.2zM84.63 37.13a.2.2 0 0 0-.2-.2.19.19 0 0 0-.19.2v3.67a5 5 0 0 1 .39 1zM83.6 35.93a.2.2 0 0 0-.19.19v3.52l.39.53v-4.05a.2.2 0 0 0-.2-.19zM75.64 43.22s1.06-.55 1.06-1.22a3.79 3.79 0 0 0-1-1.93s-1.1 1.07-1.1 1.93.81 1.07 1.04 1.22zM73.93 44.45s.27.34 1.51.54c0 0 .13-1.2-.33-1.69a6.2 6.2 0 0 0-1.8-1.3s-.18 1.89.62 2.45zM73.82 46.94s.28.37 1.62.58c0 0 .14-1.3-.35-1.83a6.78 6.78 0 0 0-1.94-1.37s-.15 2.01.67 2.62zM73.18 46.94s-.29 2.17.57 2.78a3 3 0 0 0 1.69.62s.2-1.33-.3-1.87c0 0-.27-.56-1.96-1.53zM73.62 52.43a3.52 3.52 0 0 0 1.79.64s.16-1.46-.33-2a6.94 6.94 0 0 0-2.18-1.5s-.14 2.26.72 2.86zM76.17 43.3c-.46.49-.32 1.69-.32 1.69 1.24-.2 1.5-.54 1.5-.54.8-.56.62-2.41.62-2.41a6.2 6.2 0 0 0-1.8 1.26zM78.13 44.32a6.79 6.79 0 0 0-1.93 1.37c-.49.53-.35 1.83-.35 1.83 1.33-.21 1.62-.58 1.62-.58.86-.61.66-2.62.66-2.62zM76.14 48.47c-.49.54-.29 1.87-.29 1.87a3 3 0 0 0 1.68-.62c.86-.61.57-2.78.57-2.78-1.69.97-1.96 1.53-1.96 1.53zM78.38 49.57a6.94 6.94 0 0 0-2.17 1.5c-.5.54-.33 2-.33 2a3.45 3.45 0 0 0 1.78-.64c.86-.6.72-2.86.72-2.86zM75.34 53.41h.59v5.04h-.59zM73.55 37.56a.19.19 0 0 0-.19.2v3.92l.39.23v-4.15a.2.2 0 0 0-.2-.2zM74.56 37.13a.2.2 0 0 0-.4 0v4.63a5.12 5.12 0 0 1 .4-1zM75.19 35.93a.2.2 0 0 0-.2.19v4.05l.4-.53v-3.52a.2.2 0 0 0-.2-.19zM77.74 37.56a.2.2 0 0 0-.2.2v4.15l.4-.23v-3.92a.2.2 0 0 0-.2-.2zM77.13 37.13a.2.2 0 0 0-.2-.2.19.19 0 0 0-.19.2v3.67a5 5 0 0 1 .39 1zM76.1 35.93a.2.2 0 0 0-.19.19v3.52l.39.53v-4.05a.2.2 0 0 0-.2-.19zM65.01 34.71h-1.15v23.82H32.69V34.71h-1.15v24.97h33.47V34.71z"/><path class="cls-2" d="M34.51 46.44c6.06 5.6 12.36 1 13.68-.13l.13-.12a.27.27 0 0 1 .12 0 .28.28 0 0 1 .13 0l.13.12c1.31 1.08 7.51 5.65 13.51.28l.18-.16a.32.32 0 0 0 .07-.19v-3a.28.28 0 0 0-.28-.28h-.09l-.12.09c-1.82 1.3-7.83 4.9-13.21-.13l-.09-.08a.36.36 0 0 0-.23-.09.34.34 0 0 0-.22.09l-.09.08c-5.3 5-11.22 1.54-13.13.19l-.15-.11a.24.24 0 0 0-.15 0 .28.28 0 0 0-.27.24v3a.33.33 0 0 0 .08.2z"/><path class="cls-2" d="M34.51 53.19c6.06 5.59 12.36.95 13.68-.14l.13-.12a.27.27 0 0 1 .12 0 .28.28 0 0 1 .13 0l.13.12c1.31 1.09 7.51 5.65 13.51.28l.18-.16a.29.29 0 0 0 .07-.19V50a.28.28 0 0 0-.28-.28h-.09l-.12.09c-1.82 1.3-7.83 4.9-13.21-.12l-.09-.09a.36.36 0 0 0-.23-.09.34.34 0 0 0-.22.09l-.09.09c-5.3 4.94-11.22 1.53-13.13.18l-.15-.11a.24.24 0 0 0-.15 0 .28.28 0 0 0-.27.25V53a.29.29 0 0 0 .08.19zM35 40.41a.47.47 0 1 0-.46-.47.47.47 0 0 0 .46.47z"/><circle class="cls-2" cx="37.05" cy="39.94" r=".47"/><circle class="cls-2" cx="39.14" cy="39.94" r=".47"/><path class="cls-2" d="M41.23 39.47a.47.47 0 1 0 .47.47.47.47 0 0 0-.47-.47zM43.32 39.47a.47.47 0 1 0 .47.47.47.47 0 0 0-.47-.47z"/><circle class="cls-2" cx="45.41" cy="39.94" r=".47"/><path class="cls-2" d="M47.5 39.47a.47.47 0 1 0 .47.47.47.47 0 0 0-.47-.47zM49.59 39.47a.47.47 0 1 0 .47.47.47.47 0 0 0-.47-.47zM51.68 39.47a.47.47 0 1 0 .47.47.47.47 0 0 0-.47-.47z"/><circle class="cls-2" cx="53.77" cy="39.94" r=".47"/><circle class="cls-2" cx="55.86" cy="39.94" r=".47"/><path class="cls-2" d="M58 39.47a.47.47 0 1 0 .47.47.47.47 0 0 0-.47-.47zM60.05 40.41a.47.47 0 1 0-.47-.47.47.47 0 0 0 .47.47z"/><circle class="cls-2" cx="62.14" cy="39.94" r=".47"/><path class="cls-2" d="M36.11 38.79a.47.47 0 1 0-.47-.47.47.47 0 0 0 .47.47z"/><circle class="cls-2" cx="38.2" cy="38.32" r=".47"/><path class="cls-2" d="M39.82 38.32a.47.47 0 1 0 .47-.47.47.47 0 0 0-.47.47zM41.91 38.32a.47.47 0 1 0 .47-.47.47.47 0 0 0-.47.47zM44 38.32a.47.47 0 1 0 .47-.47.47.47 0 0 0-.47.47z"/><circle class="cls-2" cx="46.56" cy="38.32" r=".47"/><circle class="cls-2" cx="48.65" cy="38.32" r=".47"/><path class="cls-2" d="M50.27 38.32a.47.47 0 1 0 .47-.47.47.47 0 0 0-.47.47zM52.37 38.32a.47.47 0 1 0 .46-.47.47.47 0 0 0-.46.47z"/><circle class="cls-2" cx="54.92" cy="38.32" r=".47"/><path class="cls-2" d="M56.55 38.32a.47.47 0 1 0 .47-.47.47.47 0 0 0-.47.47zM59.11 38.79a.47.47 0 1 0-.47-.47.47.47 0 0 0 .47.47z"/><circle class="cls-2" cx="61.2" cy="38.32" r=".47"/><path class="cls-2" d="M35.06 37.17a.47.47 0 1 0-.47-.47.47.47 0 0 0 .47.47zM37.15 37.17a.47.47 0 1 0-.47-.47.47.47 0 0 0 .47.47z"/><circle class="cls-2" cx="39.24" cy="36.7" r=".47"/><path class="cls-2" d="M41.33 36.23a.47.47 0 1 0 .47.47.47.47 0 0 0-.47-.47zM43.42 36.23a.47.47 0 1 0 .47.47.47.47 0 0 0-.47-.47z"/><circle class="cls-2" cx="45.52" cy="36.7" r=".47"/><path class="cls-2" d="M47.61 36.23a.47.47 0 1 0 .47.47.47.47 0 0 0-.47-.47zM49.7 36.23a.47.47 0 1 0 .47.47.47.47 0 0 0-.47-.47zM51.79 36.23a.47.47 0 1 0 .47.47.47.47 0 0 0-.47-.47z"/><circle class="cls-2" cx="53.88" cy="36.7" r=".47"/><circle class="cls-2" cx="55.97" cy="36.7" r=".47"/><circle class="cls-2" cx="58.06" cy="36.7" r=".47"/><path class="cls-2" d="M60.15 37.17a.47.47 0 1 0-.47-.47.47.47 0 0 0 .47.47zM62.24 37.17a.47.47 0 1 0-.47-.47.47.47 0 0 0 .47.47z"/><path class="cls-2" transform="rotate(-45.29 76.197 19.321)" d="M60.98 18.66h30.43v1.32H60.98z"/><path class="cls-2" transform="rotate(-44.74 76.192 75.526)" d="M75.53 60.32h1.32v30.43h-1.32z"/><path class="cls-2" transform="rotate(-44.74 19.084 19.32)" d="M18.42 4.1h1.32v30.43h-1.32z"/><path class="cls-2" transform="rotate(-45.29 19.077 75.528)" d="M3.87 74.86H34.3v1.32H3.87z"/><path class="cls-2" d="M60.46 72.69H34.81a.27.27 0 0 0-.26.27v12.41H36v-6.31a.24.24 0 0 1 .24-.24h4.26a.25.25 0 0 1 .25.24v6.26H60.5a.22.22 0 0 0 .21-.2V72.95a.27.27 0 0 0-.25-.26zM40.75 77a.25.25 0 0 1-.25.24h-4.28A.24.24 0 0 1 36 77v-2.29a.24.24 0 0 1 .24-.24h4.26a.24.24 0 0 1 .25.24zm6.18 4.35a.24.24 0 0 1-.24.24h-4.28a.25.25 0 0 1-.25-.24v-2.29a.24.24 0 0 1 .25-.24h4.28a.24.24 0 0 1 .24.24zm0-4.35a.24.24 0 0 1-.24.24h-4.28a.25.25 0 0 1-.25-.24v-2.29a.24.24 0 0 1 .25-.24h4.28a.24.24 0 0 1 .24.24zm6.19 4.35a.25.25 0 0 1-.25.24h-4.28a.24.24 0 0 1-.24-.24v-2.29a.24.24 0 0 1 .24-.24h4.28a.24.24 0 0 1 .25.24zm0-4.35a.25.25 0 0 1-.25.24h-4.28a.24.24 0 0 1-.24-.24v-2.29a.24.24 0 0 1 .24-.24h4.28a.24.24 0 0 1 .25.24zm6.18 4.35a.24.24 0 0 1-.24.24h-4.28a.24.24 0 0 1-.24-.24v-2.29a.24.24 0 0 1 .24-.24h4.28a.23.23 0 0 1 .24.24zm0-4.35a.24.24 0 0 1-.24.24h-4.28a.24.24 0 0 1-.24-.24v-2.29a.24.24 0 0 1 .24-.24h4.28a.23.23 0 0 1 .24.24z"/><rect class="cls-2" x="34.55" y="70.83" width="26.18" height="1.1" rx=".15" ry=".15"/></svg>