<svg id="TARGETS" xmlns="http://www.w3.org/2000/svg" viewBox="0 0 94.85 94.85" width="94.85" height="94.85"><defs><style>.cls-1{fill:#19486a}.cls-2{fill:#fff}</style></defs><title>Goal_17_RGB_NG</title><path class="cls-1" d="M0 0h94.85v94.85H0z"/><path class="cls-2" d="M65 28.23A9.26 9.26 0 0 0 56.06 19a9.24 9.24 0 0 0-17.43 0 9.24 9.24 0 0 0-5.34 16.52 9.5 9.5 0 0 0-.36 2.57 9.24 9.24 0 0 0 14.46 7.61 9.16 9.16 0 0 0 5.13 1.56A9.26 9.26 0 0 0 61.77 38a9.52 9.52 0 0 0-.35-2.52A9.21 9.21 0 0 0 65 28.23m-10.27-6.16a7.39 7.39 0 0 1-6.29 7.29 7.08 7.08 0 0 1-.1-1.13 7.39 7.39 0 0 1 6.3-7.3 8.49 8.49 0 0 1 .09 1.14m-7.35 21.24a7.38 7.38 0 0 1-.07-10.52 7.35 7.35 0 0 1 .07 10.52m-7.32-22.38a7.39 7.39 0 0 1 6.3 7.3 7.08 7.08 0 0 1-.1 1.13A7.39 7.39 0 0 1 40 22.07a7.11 7.11 0 0 1 .1-1.14m5.51 10.6A7.4 7.4 0 0 1 39 35.61a7.32 7.32 0 0 1-3.39-.83 7.37 7.37 0 0 1 10-3.25m3.54-.05a7.27 7.27 0 0 1 3.41-.85 7.38 7.38 0 0 1 6.62 4.14 7.36 7.36 0 0 1-10-3.29m-1.76-16.8a7.4 7.4 0 0 1 6.77 4.44 9.26 9.26 0 0 0-6.77 5.2 9.28 9.28 0 0 0-6.77-5.2 7.39 7.39 0 0 1 6.77-4.44M31.59 28.23a7.4 7.4 0 0 1 6.59-7.35 9.39 9.39 0 0 0-.08 1.19 9.26 9.26 0 0 0 3 6.83 9.29 9.29 0 0 0-7.1 4.8 7.37 7.37 0 0 1-2.44-5.47m3.2 9.85a7.63 7.63 0 0 1 .24-1.53 9.25 9.25 0 0 0 8.49-.23 8.67 8.67 0 0 0-.16 1.7 9.19 9.19 0 0 0 2.61 6.43 7.31 7.31 0 0 1-3.71 1 7.39 7.39 0 0 1-7.39-7.38M59.91 38a7.4 7.4 0 0 1-7.39 7.38 7.28 7.28 0 0 1-3.64-1 9.21 9.21 0 0 0 2.54-6.35 9.32 9.32 0 0 0-.17-1.77 9.21 9.21 0 0 0 8.51.23 8 8 0 0 1 .15 1.51m-6.28-9.18a9.22 9.22 0 0 0 3-6.77 9.39 9.39 0 0 0-.07-1.19 7.37 7.37 0 0 1 4.16 12.8 9.25 9.25 0 0 0-7-4.84M80.83 68.09L74 55.68a.6.6 0 0 0-.61-.24l-8.75 4.36a2.09 2.09 0 0 1-.8.16 2.06 2.06 0 0 1-.88-.2l-.81-.4c-2-1-8-4-8.82-4.31a2.23 2.23 0 0 0-1.19 0c-.22.08-5.27 1.8-6.53 2.17a7.78 7.78 0 0 0-1.81.78c-.42.31-7 5.13-7.45 5.46a.76.76 0 0 0-.3.52 2.25 2.25 0 0 0 .55 1.66 2 2 0 0 0 1.67.69 4.27 4.27 0 0 0 1.35-.2C40 66 49 62.17 49 62.17a1.89 1.89 0 0 1 .7-.17 1.55 1.55 0 0 1 .9.28c.69.55 16.95 13.44 17.52 13.92a.39.39 0 0 0 .45 0l.07-.06 12-7.7c.3-.14.25-.23.19-.35z"/><path class="cls-2" d="M66.72 77.34L50.55 64.49a1.72 1.72 0 0 0-.93-.35h-.17a1.38 1.38 0 0 0-.49.1l-8.34 3.55a5.43 5.43 0 0 1-2.23.49A4.21 4.21 0 0 1 35.32 67a3.42 3.42 0 0 1-1.25-2.84 2.67 2.67 0 0 1 1.33-1.86l.54-.34a1.15 1.15 0 0 0-.32 0l-.84.13a10.7 10.7 0 0 1-5.21-.34c-2.39-.8-9.26-4-9.26-4a.37.37 0 0 0-.15 0 .65.65 0 0 0-.5.27L14 68.2a.25.25 0 0 0 0 .2.36.36 0 0 0 .17.18l11.65 5.82 1.37.73.05-.17v-.14a3.44 3.44 0 0 1 6.26-.35 3.44 3.44 0 0 1 5.15.93 3.42 3.42 0 0 1 2.19-.79 3.47 3.47 0 0 1 3.39 2.73 3.45 3.45 0 0 1 4.79 3.19 4.05 4.05 0 0 1 0 .48l5.08 4a1.64 1.64 0 0 0 2.31-.26 1.65 1.65 0 0 0-.26-2.32l-10-7.92h-.06l-.14-.11a1 1 0 0 1-.17-1.55c.52-.64 1.27-.21 1.57 0l12.32 9.8a1.64 1.64 0 0 0 2.32-.27 1.64 1.64 0 0 0-.26-2.31l-12.24-9.82c-.29-.27-.85-.79-.32-1.5s1-.29 1.35-.06l14.14 11.24a1.67 1.67 0 0 0 1 .35 1.62 1.62 0 0 0 1.34-.62 1.65 1.65 0 0 0-.28-2.32zM49.79 84.32l-1.36-1.09-1 3a3.45 3.45 0 0 1-.14.34l.46.37a1.64 1.64 0 0 0 2.32-.27 1.63 1.63 0 0 0-.28-2.35z"/><path class="cls-2" d="M46.58 79.17a1.56 1.56 0 0 0-.28-.17 1.75 1.75 0 0 0-.65-.13 1.71 1.71 0 0 0-1.29.62 1.41 1.41 0 0 0-.19.34l-.06.1V80l-.76 2.18-.33 1-.42 1.22-.1.32a1.5 1.5 0 0 0-.1.53 1.75 1.75 0 0 0 .13.65 1.67 1.67 0 0 0 .61.73 1.25 1.25 0 0 0 .28.15 1.53 1.53 0 0 0 .64.13 1.77 1.77 0 0 0 .56-.09 1.72 1.72 0 0 0 .86-.64 1.49 1.49 0 0 0 .24-.49l.1-.29 1.11-3.4.26-.76a1.56 1.56 0 0 0 .05-.16 3.1 3.1 0 0 0 .08-.58 1.65 1.65 0 0 0-.74-1.33zM42.53 78.65v-.09c0-.03 0-.21.05-.31s0-.12 0-.17a1.63 1.63 0 0 0-.29-.93 1.66 1.66 0 0 0-1.38-.73 1.58 1.58 0 0 0-.8.22 1.71 1.71 0 0 0-.74.83v.08l-.73 2.12-.77 2.22-.1.33a1.5 1.5 0 0 0-.1.53A1.68 1.68 0 0 0 39 84.37a1.24 1.24 0 0 0 .33 0 1.67 1.67 0 0 0 .55-.09 1.71 1.71 0 0 0 1.12-1.1l.44-1.29 1-3.07s.07-.1.09-.17zM35.78 75.5a1.69 1.69 0 0 0-.5.08 2 2 0 0 0-.44.21 1.67 1.67 0 0 0-.45.5 1.43 1.43 0 0 0-.15.27v.06l-.78 2.29-.15.44a1.78 1.78 0 0 0-.09.53 1.65 1.65 0 0 0 1.66 1.66 1.75 1.75 0 0 0 1.42-.73 1.69 1.69 0 0 0 .23-.49l.63-1.86.18-.55a1.58 1.58 0 0 0 .09-.36 3.08 3.08 0 0 0 0-.38 1.67 1.67 0 0 0-1.65-1.67zM31.94 75.17a1.73 1.73 0 0 0-.73-.61 1.75 1.75 0 0 0-.65-.13 1.65 1.65 0 0 0-.93.29 1.42 1.42 0 0 0-.36.33 1.73 1.73 0 0 0-.25.44l-.24.74s-.1.32-.17.6a2.5 2.5 0 0 0-.07.39 1.76 1.76 0 0 0 0 .33 1.59 1.59 0 0 0 .25.6 1.75 1.75 0 0 0 .45.45 1.67 1.67 0 0 0 .93.28 1.76 1.76 0 0 0 1-.35 1.71 1.71 0 0 0 .38-.38 1.83 1.83 0 0 0 .23-.49l.25-.84a.84.84 0 0 0 0-.17c0-.12 0-.26.07-.39a1.41 1.41 0 0 0 0-.2 1.53 1.53 0 0 0-.13-.64 1.25 1.25 0 0 0-.03-.25z"/></svg>