<svg id="TARGETS" xmlns="http://www.w3.org/2000/svg" viewBox="0 0 94.85 94.85" width="94.85" height="94.85"><defs><style>.cls-1{fill:#a21942}.cls-2{fill:#fff}</style></defs><title>Goal_8_RGB_NG</title><path class="cls-1" d="M0 0h94.85v94.85H0z"/><path class="cls-2" d="M29.98 26.16l-2.52.01.04 48.42 34.7-.02v-2.93l-32.18.03-.04-45.51z"/><path class="cls-2" d="M32.65 20.28v48.43h34.7V20.28zM57.22 25a.14.14 0 0 1 0-.19.13.13 0 0 1 .07 0h.07l3.59-.81H61a.2.2 0 0 1 .08 0 .14.14 0 0 1 0 .1l-.44 2.08-.35 1.59a.11.11 0 0 1 0 .08.13.13 0 0 1-.2 0l-.87-.85L50 36.23a.11.11 0 0 1-.15 0l-1-1-2.73-2.72-6 6a.12.12 0 0 1-.16 0l-1-1a.11.11 0 0 1 0-.15l6-6 1-1a.11.11 0 0 1 .15 0l3.8 3.64 7.79-7.81.35-.34zm2.18 4.57v17.52a.27.27 0 0 1-.27.27h-4.84a.27.27 0 0 1-.29-.26V34.58a.8.8 0 0 1 .26-.67L59 29.44c.28-.3.4-.03.4.11zm-6.71 6.58v11a.27.27 0 0 1-.26.27h-4.84a.27.27 0 0 1-.27-.27V36.32c0-.15.08-.45.46-.08l2.06 2.1a.1.1 0 0 0 .14 0l2.27-2.29c.33-.33.44-.05.44.08zm-6.81-.75v11.71a.27.27 0 0 1-.27.26h-4.84a.27.27 0 0 1-.27-.27v-6.7a.78.78 0 0 1 .26-.67l4.69-4.47c.31-.26.43-.02.43.12zm16.31 27.05c0 .08-.12.15-.26.15H38.12c-.14 0-.26-.07-.26-.15v-3.8c0-.09.11-.16.26-.16h23.8c.15 0 .27.07.27.16zm0-6.8c0 .09-.11.16-.26.16H38.12c-.14 0-.25-.07-.25-.16v-3.8c0-.08.12-.15.26-.15h23.81c.14 0 .26.07.26.15z"/></svg>