<svg id="TARGETS" xmlns="http://www.w3.org/2000/svg" viewBox="0 0 94.85 94.85" width="94.85" height="94.85"><defs><style>.cls-1{fill:#19486a}.cls-2{fill:#fff}</style></defs><title>Goal_17_RGB_NG</title><path class="cls-1" d="M0 0h94.85v94.85H0z"/><path class="cls-2" d="M40.15 43.86a8.29 8.29 0 0 1 1.34-1.72l-4.4-4.83A15.26 15.26 0 0 0 34.3 41zM50.93 40.46a8.13 8.13 0 0 1 1.84 1.15l4.41-4.81a14.77 14.77 0 0 0-3.91-2.44zM61 41.91l-5.85 2.91a8.41 8.41 0 0 1 .59 2.06l6.5-.61A14.8 14.8 0 0 0 61 41.91M54.76 44l5.85-2.91a15.18 15.18 0 0 0-2.73-3.62l-4.41 4.81A8.06 8.06 0 0 1 54.76 44M39 48.13v-.4l-6.51-.58v1a15.4 15.4 0 0 0 .44 3.62l6.29-1.81a8.3 8.3 0 0 1-.2-1.81M54 53.47A8.68 8.68 0 0 1 52.36 55l3.43 5.56a15.19 15.19 0 0 0 3.37-3.13zM55.86 48.13a8.84 8.84 0 0 1-.19 1.79L62 51.73a15.3 15.3 0 0 0 .44-3.6v-.92l-6.51.61v.31M41 53.6l-5.2 3.95a15 15 0 0 0 3.39 3.07l3.44-5.55A8.16 8.16 0 0 1 41 53.6M39.09 46.8a8.24 8.24 0 0 1 .63-2.1l-5.85-2.91a15 15 0 0 0-1.29 4.42zM55 61l-3.42-5.55a8.81 8.81 0 0 1-2 .81l1.21 6.42A14.67 14.67 0 0 0 55 61M55.42 50.83a8.41 8.41 0 0 1-.92 1.88l5.22 3.93a15.06 15.06 0 0 0 2-4zM48.64 56.48a9.73 9.73 0 0 1-1.22.09c-.33 0-.66 0-1-.06l-1.21 6.42a15.9 15.9 0 0 0 2.19.16 14.94 14.94 0 0 0 2.43-.2zM48 39.71a8.41 8.41 0 0 1 2.09.4L52.4 34a14.57 14.57 0 0 0-4.4-.82zM45.51 56.35a8.36 8.36 0 0 1-2.07-.79L40 61.12a14.56 14.56 0 0 0 4.29 1.64zM44.89 40.08A8.8 8.8 0 0 1 47 39.7v-6.53a14.82 14.82 0 0 0-4.49.82zM40.43 52.85a8.48 8.48 0 0 1-1-2l-6.28 1.8a14.83 14.83 0 0 0 2.08 4.15zM42.2 41.51a8.3 8.3 0 0 1 1.8-1.09l-2.36-6.09a14.7 14.7 0 0 0-3.85 2.36z"/><g><path class="cls-2" d="M71.32 39.73h-1.01v19.31h14.22v-1.17H71.32V39.73z"/><path class="cls-2" d="M72.38 37.38v19.31h13.84V37.38zm12.16 16.71a.09.09 0 0 1-.09.08H74.19a.09.09 0 0 1-.1-.09V52.5a.09.09 0 0 1 .1-.09h10.25a.09.09 0 0 1 .09.08zm0-3.08a.1.1 0 0 1-.09.08H74.19a.09.09 0 0 1-.1-.1v-1.56a.1.1 0 0 1 .1-.1h10.25a.1.1 0 0 1 .09.08zm0-3.06a.08.08 0 0 1-.07 0H74.2a.1.1 0 0 1-.1-.09v-1.5a.1.1 0 0 1 .1-.09h10.26a.08.08 0 0 1 .07 0z"/></g><g><path class="cls-2" d="M9.63 39.73H8.62v19.31h14.22v-1.17H9.63V39.73z"/><path class="cls-2" d="M10.7 37.38v19.31h13.84V37.38zm12.15 16.71a.09.09 0 0 1-.09.08H12.5a.1.1 0 0 1-.1-.09V52.5a.1.1 0 0 1 .1-.09h10.26a.09.09 0 0 1 .09.08zm0-3.08a.11.11 0 0 1-.09.08H12.5a.1.1 0 0 1-.1-.1v-1.56a.11.11 0 0 1 .1-.1h10.26a.11.11 0 0 1 .09.08V51zm0-3.06a.1.1 0 0 1-.08 0H12.51a.09.09 0 0 1-.09-.09v-1.5a.09.09 0 0 1 .09-.09h10.26a.1.1 0 0 1 .08 0z"/></g><path class="cls-2" d="M70 73.38l-2.78-2.23a.59.59 0 0 0-.87 0c-8.85 10.48-24 11.58-34.77 3-.33-.26-.63-.54-.94-.81l3.16-2c.31-.2-.13-.46-.13-.46l-10.82-5.41c-.34-.18-.39 0-.39.17v.1L22.4 78c0 .12.1.42.36.25l3.55-2.21A28.7 28.7 0 0 0 28.5 78c12.79 10.24 30.92 8.87 41.5-3.56l.12-.14a.62.62 0 0 0-.12-.92zM22.52 22.79l2.91 2.07a.58.58 0 0 0 .86-.11c8.23-11 23.31-12.95 34.55-4.95.34.24.65.5 1 .75l-3 2.16c-.3.21.15.45.15.45L70.05 28c.35.16.38-.06.38-.19v-.1l-.66-12.26c0-.12-.12-.42-.37-.24L66 17.6c-.73-.63-1.48-1.23-2.28-1.8-13.41-9.51-31.42-7.09-41.23 5.93l-.11.14a.62.62 0 0 0 .14.92z"/></svg>