<svg id="TARGETS" xmlns="http://www.w3.org/2000/svg" viewBox="0 0 94.85 94.85" width="94.85" height="94.85"><defs><style>.cls-1{fill:#19486a}.cls-2{fill:#fff}</style></defs><title>Goal_17_RGB_NG</title><path class="cls-1" d="M0 0h94.85v94.85H0z"/><path class="cls-2" d="M47.59 7.52a40.13 40.13 0 1 0 40 40.29 40.18 40.18 0 0 0-40-40.29zm-5 1.1c-5 2.25-9.34 7.83-12.31 15.42a4.28 4.28 0 0 0-.81-.08 4.2 4.2 0 0 0-3.91 2.65 63.42 63.42 0 0 1-9.25-3A39.32 39.32 0 0 1 42.58 8.62zM23.65 47.8a2.86 2.86 0 0 0 2.51 2.61 70.22 70.22 0 0 0 1.68 13.23 3.43 3.43 0 0 0-1.46 1.26L9.12 47.77zM9.14 47l17-16.23a4.3 4.3 0 0 0 1.7 1.23 69.76 69.76 0 0 0-1.65 12.7 2.88 2.88 0 0 0-2.51 2.3zM27 50.4a2.87 2.87 0 0 0 2.42-2.59h12.19a5.77 5.77 0 0 0 1.16 3.28L31.11 63.84a3.4 3.4 0 0 0-1.81-.53 2.89 2.89 0 0 0-.72.07A70.1 70.1 0 0 1 27 50.4zM41.59 47H29.35A2.87 2.87 0 0 0 27 44.72a71.21 71.21 0 0 1 1.61-12.47 3.86 3.86 0 0 0 .84.09 4 4 0 0 0 2.15-.6l12.05 11.47A5.75 5.75 0 0 0 41.59 47zM15.8 24.29a62.28 62.28 0 0 0 9.53 3.09 3.67 3.67 0 0 0-.08.75 4.11 4.11 0 0 0 .48 1.92L8.11 46.85a39.15 39.15 0 0 1 7.69-22.56zM8.1 47.88L26 65.67a3.23 3.23 0 0 0-.2 1.08 3.8 3.8 0 0 0 .05.46 63.94 63.94 0 0 0-10.25 3.52 39.15 39.15 0 0 1-7.5-22.85zm8 23.5a65 65 0 0 1 10-3.4 3.47 3.47 0 0 0 3.21 2.24 3.41 3.41 0 0 0 .46 0c2.91 8.09 7.34 14.07 12.53 16.46a39.35 39.35 0 0 1-26.21-15.3zM46.86 87c-6.8-.28-12.77-6.94-16.37-17a3.46 3.46 0 0 0 1.37-1l12.57 7.61a2.86 2.86 0 0 0 2.46 2.7zm.06-13.31a2.88 2.88 0 0 0-2.4 2.12l-12.2-7.39a3.35 3.35 0 0 0 .42-1.61v-.23A81.74 81.74 0 0 1 47 65.31zm0-9.14a84.53 84.53 0 0 0-14.39 1.24 3.4 3.4 0 0 0-.83-1.42l11.52-12.6A5.71 5.71 0 0 0 47 53.4zm.09-22.63a5.81 5.81 0 0 0-2.74.85L32.23 31.26A4.18 4.18 0 0 0 33.55 29a94.87 94.87 0 0 0 13.55 1zm.05-12.61a95.06 95.06 0 0 1-13.47-1.06A4.23 4.23 0 0 0 33 26l11.67-7.3a2.89 2.89 0 0 0 2.46 2.13zm.06-14.16a2.88 2.88 0 0 0-2.58 2.7l-12 7.57A4.1 4.1 0 0 0 31 24.27c3.7-9.5 9.57-15.72 16.18-15.94zM86.73 46.6L68.41 29.4a3.26 3.26 0 0 0 .22-1.09 4.23 4.23 0 0 0 0-.5 70.88 70.88 0 0 0 10.7-3.19 39.08 39.08 0 0 1 7.4 21.98zm-18.85-1.83a2.89 2.89 0 0 0-2.38 2.33H53.08a5.79 5.79 0 0 0-1.14-2.9L64 31a3.21 3.21 0 0 0 1.5.41 3.5 3.5 0 0 0 .65-.07 69.24 69.24 0 0 1 1.73 13.43zm-1-13.68a3.2 3.2 0 0 0 1.14-1l18.12 17h-15a2.9 2.9 0 0 0-2.5-2.35 70.23 70.23 0 0 0-1.76-13.65zM53.1 47.87h12.37a2.89 2.89 0 0 0 2.4 2.57 70.3 70.3 0 0 1-1.55 12.28h-.25a4.19 4.19 0 0 0-2.24.65L51.92 51.14a5.73 5.73 0 0 0 1.18-3.27zm15.57 2.6a2.87 2.87 0 0 0 2.53-2.57h15L69.68 64.84a4.22 4.22 0 0 0-2.59-2 70.58 70.58 0 0 0 1.58-12.37zM78.79 24a72.38 72.38 0 0 1-10.43 3.09 3.1 3.1 0 0 0-2.84-1.87 2.21 2.21 0 0 0-.37 0c-2.9-8.15-7.36-14.16-12.57-16.56A39.32 39.32 0 0 1 78.79 24zM48 8.33c6.83.28 12.82 7 16.41 17.06a3.14 3.14 0 0 0-1.22.87l-12.86-8.42A2.88 2.88 0 0 0 48 15.13zm0 12.48a2.85 2.85 0 0 0 2.3-2.08l12.49 8.19a3.08 3.08 0 0 0-.32 1.24 96.62 96.62 0 0 1-14.5 1.11zm0 9.26A97.71 97.71 0 0 0 62.46 29a3.19 3.19 0 0 0 .88 1.57l-11.93 13a5.74 5.74 0 0 0-3.56-1.66zm-.2 23.33a5.8 5.8 0 0 0 3.59-1.65L63.2 63.86a4.18 4.18 0 0 0-1.2 2 85.18 85.18 0 0 0-14.25-1.37zm0 11.91a82.72 82.72 0 0 1 14.13 1.36v.22a4.22 4.22 0 0 0 .31 1.6l-12.14 7.3a2.87 2.87 0 0 0-2.38-2.13zm-.06 14a2.88 2.88 0 0 0 2.49-2.69l12.32-7.42A4.2 4.2 0 0 0 64 70.55C60.32 80.32 54.37 86.74 47.66 87zm4.57 7.31c5.09-2.29 9.49-8 12.46-15.8a4.11 4.11 0 0 0 1.23.28 4.2 4.2 0 0 0 3.87-2.54 60 60 0 0 1 8.6 3.14 39.31 39.31 0 0 1-26.21 14.97zM70.15 67.8a4.93 4.93 0 0 0 .1-.87 4.27 4.27 0 0 0-.22-1.3l16.7-17.09A39.14 39.14 0 0 1 79 71.05a60.66 60.66 0 0 0-8.85-3.25z"/></svg>