<svg id="TARGETS" xmlns="http://www.w3.org/2000/svg" viewBox="0 0 94.85 94.85" width="94.85" height="94.85"><defs><style>.cls-1{fill:#fd6925}.cls-2{fill:#fff}</style></defs><title>Goal_9_RGB_NG</title><path class="cls-1" d="M0 0h94.85v94.85H0z"/><path class="cls-2" d="M42.33 14.42a.76.76 0 0 0-.75-.75H15a.76.76 0 0 0-.76.75v16.76h28.09zM41.2 30.19H15.6v-15.3h25.6zM42.38 31.83h-28l-2.29 1.78v.81c0 .33.52.33.52.33h31.7c.39 0 .39-.44.39-.44v-.76zM30.66 34H26v-.52h4.66zM80.57 13.3H68.8a.81.81 0 0 0-.81.81V35.3a.81.81 0 0 0 .81.81h11.77a.81.81 0 0 0 .81-.81V14.11a.81.81 0 0 0-.81-.81zM74.71 35a1.21 1.21 0 1 1 1.21-1.21A1.21 1.21 0 0 1 74.71 35zm5.61-4.17H69.1V14.47h11.22zM50.62 20.23a5.89 5.89 0 0 1 .58 2.52 6 6 0 0 1-.73 2.91l1.19.77a7.38 7.38 0 0 0 1-3.69 7.5 7.5 0 0 0-.8-3.3zM54 18a10 10 0 0 1 1.25 4.77 10.2 10.2 0 0 1-1.38 5.16l1.18.77a11.64 11.64 0 0 0 1.61-5.94 11.44 11.44 0 0 0-1.48-5.54zM58.61 14.87l-1.17.79a14.14 14.14 0 0 1-.11 14.45l1.18.77a15.54 15.54 0 0 0 .1-16z"/><g><path class="cls-2" d="M75.12 50.08a3.22 3.22 0 1 0-3.22-3.21 3.21 3.21 0 0 0 3.22 3.21zM78.87 51.32H71.4a4.29 4.29 0 0 0-3.9 4.27v8.91a1.25 1.25 0 0 0 2.49 0v-7.65c0-.29.08-.68.61-.68.36 0 .44.38.45.63v22.93a1.79 1.79 0 1 0 3.58 0V66.52a.49.49 0 0 1 .52-.53.5.5 0 0 1 .51.53v13.21a1.79 1.79 0 1 0 3.58 0V56.8c0-.25.09-.63.45-.63.52 0 .61.39.61.68v7.65a1.25 1.25 0 0 0 2.49 0v-8.91a4.29 4.29 0 0 0-3.92-4.27zM38.61 50.55a3.15 3.15 0 1 0-3.15-3.15 3.14 3.14 0 0 0 3.15 3.15zM47.57 63.06L45 54.54s-.94-2.47-3-2.47h-6.73c-2.07 0-3 2.47-3 2.47l-2.61 8.52s-.47 1.56.86 2 1.71-1.14 1.71-1.14l2.11-7.11s.12-.55.53-.43.26.71.26.71l-3.69 13.27h3.42v9.55a1.64 1.64 0 0 0 3.28 0v-9.55h.93v9.55a1.64 1.64 0 0 0 3.28 0v-9.55h3.42L42.1 57s-.16-.59.25-.71.53.43.53.43L45 63.87s.4 1.53 1.72 1.14.85-1.95.85-1.95z"/><g><path class="cls-2" d="M65 66.21l-2.17-7.07s-.78-2-2.49-2h-5.55c-1.71 0-2.49 2-2.49 2l-2.17 7.07s-.39 1.29.71 1.62 1.43-.94 1.43-.94L54 61s.09-.45.43-.36.22.59.22.59l-3.05 11h2.83v7.92a1.36 1.36 0 0 0 2.72 0v-7.88h.77v7.92a1.37 1.37 0 0 0 2.73 0v-7.92h2.85l-3-11s-.12-.49.22-.59.43.36.43.36l1.75 5.9s.34 1.26 1.43.94.67-1.67.67-1.67zM53 52.8c.1-.24.35-.64 1.21-.75a1.49 1.49 0 0 0 .45-.14 3.41 3.41 0 0 1 .54-.75V51c0-.39-.46-.86-1.32-.46-1.07.51-.95 2.09-.95 2.09s.07.23.07.17zM60.7 51.88a1.54 1.54 0 0 0 .5.17c.86.11 1.11.51 1.21.75 0 .06.05 0 .06-.17s.12-1.58-.94-2.09c-.87-.4-1.28.07-1.33.46a1.12 1.12 0 0 0 0 .2 3 3 0 0 1 .5.68zM57.68 56.5a3 3 0 1 0-3-3 2.95 2.95 0 0 0 3 3z"/></g><g><path class="cls-2" d="M26.35 59.83v6.57a1.11 1.11 0 0 1-2.22 0v-6.81c0-.26-.07-.6-.54-.6s-.39.34-.4.55V80A1.6 1.6 0 0 1 20 80V68.2a.43.43 0 0 0-.45-.47.43.43 0 0 0-.45.47V80a1.6 1.6 0 0 1-3.19 0V59.54c0-.21-.08-.55-.4-.55-.47 0-.54.34-.54.6v6.81a1.11 1.11 0 0 1-2.22 0v-7.93a3.82 3.82 0 0 1 3.47-3.8h6.67a3.82 3.82 0 0 1 3.47 3.8v1.36zM21.43 50.41c-.24-.2-.44-.38-.85-.19-.25.12-.36.2-.68.36a7 7 0 0 1-1.8.53 5.72 5.72 0 0 1-1.41.1 2.85 2.85 0 0 0 5.67.07c-.48-.46-.36-.42-.93-.87z"/><path class="cls-2" d="M18 50.5a6.09 6.09 0 0 0 1.61-.5c.47-.22.9-.37.9-.37a1 1 0 0 1 .59-.09 1.06 1.06 0 0 1 .26.17l.22.19s.11.1.77.61c.08.05.15.12.2.1s.08-.49.06-.74a4.18 4.18 0 0 0-.87-2 .61.61 0 0 0-.61-.28c-.38.07-.37-.2-.63-.35a2.61 2.61 0 0 0-2.5.4 6.5 6.5 0 0 0-1.86 2.55c-.09.24.19.41.55.41a6.67 6.67 0 0 0 1.31-.1z"/></g></g></svg>