<svg id="TARGETS" xmlns="http://www.w3.org/2000/svg" viewBox="0 0 94.85 94.85" width="94.85" height="94.85"><defs><style>.cls-1{fill:#fd6925}.cls-2{fill:#fff}</style></defs><title>Goal_9_RGB_NG</title><path class="cls-1" d="M0 0h94.85v94.85H0z"/><path class="cls-2" d="M78 35.91a2.33 2.33 0 1 0 2.33-2.33A2.33 2.33 0 0 0 78 35.91zM85 41.18s-.69-1.82-2.22-1.82h-4.89c-1.53 0-2.22 1.82-2.22 1.82l-1.94 6.3s-.34 1.15.64 1.44 1.27-.84 1.27-.84l1.56-5.25s.08-.41.39-.32.19.52.19.52l-2.72 9.85h2.53v7a1.21 1.21 0 0 0 2.42 0v-7h.69v7a1.21 1.21 0 0 0 2.42 0v-7h2.53L82.94 43s-.12-.43.18-.52.39.32.39.32l1.56 5.25s.3 1.13 1.27.84.64-1.44.64-1.44zM62.45 35.14a2.41 2.41 0 1 0 2.41-2.41 2.41 2.41 0 0 0-2.41 2.41zM67.68 38.49h-5.63a3.2 3.2 0 0 0-2.92 3.2v6.68a.94.94 0 0 0 1.87 0v-5.74c0-.21.06-.51.45-.51s.33.29.34.48v17.2a1.34 1.34 0 1 0 2.68 0v-9.91a.38.38 0 0 1 .39-.4.37.37 0 0 1 .38.4v9.91a1.35 1.35 0 0 0 2.69 0V42.6c0-.19.07-.48.34-.48s.46.3.46.51v5.74a.94.94 0 0 0 1.87 0v-6.68a3.21 3.21 0 0 0-2.92-3.2zM72.6 73.32l-2.86-2.13a.59.59 0 0 0-.87.09c-8.47 10.85-23.59 12.52-34.66 4.3-.34-.25-.65-.51-1-.77l3.08-2.09c.31-.22-.14-.46-.14-.46l-11-5.06c-.35-.17-.39 0-.38.18v.1l.41 12.27c0 .12.11.42.37.24l3.46-2.34a28.85 28.85 0 0 0 2.24 1.84c13.17 9.78 31.23 7.72 41.3-5.1l.11-.14a.61.61 0 0 0-.06-.93zM24.05 22.29L27 24.36a.59.59 0 0 0 .87-.11c8.22-11 23.3-12.95 34.54-4.95.34.24.66.5 1 .75l-3 2.16c-.31.21.15.45.15.45l11.08 4.84c.35.16.39-.06.38-.19v-.1l-.65-12.26c0-.12-.12-.42-.37-.24l-3.4 2.42q-1.09-.95-2.28-1.8C51.84 5.79 33.83 8.21 24 21.23c0 0-.06.08-.1.14a.62.62 0 0 0 .15.92z"/><g><path class="cls-2" d="M22.26 33.55A13.55 13.55 0 1 0 35.82 47.1a13.57 13.57 0 0 0-13.56-13.55zM34.42 45a.57.57 0 0 1-.09.44.6.6 0 0 1-.38.24h-.1a.6.6 0 0 1-.34-.11.57.57 0 0 1-.14-.81.58.58 0 0 1 1.05.23zm-.55-2.07a.58.58 0 0 1-.35.74.51.51 0 0 1-.2 0 .6.6 0 0 1-.55-.39.56.56 0 0 1 0-.44.57.57 0 0 1 .33-.3.58.58 0 0 1 .77.34zm-2-1.82a.56.56 0 0 1 .27-.35.58.58 0 1 1 .58 1 .6.6 0 0 1-.29.08h-.15a.56.56 0 0 1-.35-.27.59.59 0 0 1-.04-.51zm-4.25-4.44a.58.58 0 0 1 .8-.21.57.57 0 0 1 .21.79.56.56 0 0 1-.35.27.39.39 0 0 1-.15 0 .6.6 0 0 1-.3-.07.61.61 0 0 1-.27-.36.56.56 0 0 1 .08-.47zm-1.2 8.94a.2.2 0 0 1-.2-.2v-.79h2.08v.79a.2.2 0 0 1-.2.2h-.05v5h-1.57v-5zM22.34 44h-6.51v-.46h13V44zm-.83 1.55a.2.2 0 0 1-.2-.2v-.79h2.07v.79a.2.2 0 0 1-.2.2v5h-1.63v-5zm-4.94 0a.2.2 0 0 1-.2-.2v-.79h2.07v.79a.2.2 0 0 1-.2.2v5h-1.63v-5zm5.77-2.49h-6.95l-.28-.28a.2.2 0 0 1 .05-.32l7.18-2.69 7.19 2.69a.2.2 0 0 1 0 .32l-.28.28zm3.4-7.23a.58.58 0 0 1 .75-.34.58.58 0 0 1 .35.74.56.56 0 0 1-.31.33.5.5 0 0 1-.24.06.45.45 0 0 1-.2 0 .55.55 0 0 1-.33-.3.58.58 0 0 1-.02-.48zM24 35a.58.58 0 0 1 .91.58.54.54 0 0 1-.24.37.57.57 0 0 1-.33.11h-.1a.58.58 0 0 1-.38-.24A.57.57 0 0 1 24 35zm-1.71-.29a.59.59 0 1 1-.58.59.58.58 0 0 1 .55-.55zm-2.52.43a.6.6 0 0 1 .38-.24.58.58 0 0 1 .44.1.57.57 0 0 1 .14.81.58.58 0 0 1-.38.24h-.1a.57.57 0 0 1-.33-.11.54.54 0 0 1-.24-.37.57.57 0 0 1 .06-.39zm-2 .62a.57.57 0 0 1 .33-.3.58.58 0 0 1 .75.35.56.56 0 0 1 0 .44.57.57 0 0 1-.33.3.45.45 0 0 1-.2 0 .6.6 0 0 1-.55-.39.61.61 0 0 1-.06-.36zm-1.62.61a.57.57 0 0 1 .44-.06.55.55 0 0 1 .36.27.59.59 0 0 1-.22.8.6.6 0 0 1-.29.08.58.58 0 0 1-.5-.3.57.57 0 0 1 .15-.75zm-1.76 1.23a.54.54 0 0 1 .42-.13.56.56 0 0 1 .4.2.57.57 0 0 1-.07.82.54.54 0 0 1-.38.14.56.56 0 0 1-.44-.21.58.58 0 0 1 .01-.78zm-2.76 3.28a.59.59 0 0 1 .8-.21.59.59 0 0 1 .21.8.56.56 0 0 1-.5.29.51.51 0 0 1-.29-.08.59.59 0 0 1-.28-.76zm-.91 2a.58.58 0 0 1 .3-.33.54.54 0 0 1 .45 0 .57.57 0 0 1 .33.3.58.58 0 0 1 0 .45.59.59 0 0 1-.55.38.48.48 0 0 1-.2 0 .58.58 0 0 1-.39-.8zm.12 1.6a.58.58 0 0 1 .38.24.57.57 0 0 1-.14.81.6.6 0 0 1-.34.11h-.1a.58.58 0 1 1 .2-1.15zm-.92 2.62a.57.57 0 0 1 .17-.41.55.55 0 0 1 .41-.18.57.57 0 0 1 .41.17.62.62 0 0 1 .18.42.59.59 0 0 1-.59.58.58.58 0 0 1-.58-.58zm.18 2.14a.59.59 0 0 1 1.16-.2.6.6 0 0 1-.48.68h-.1a.59.59 0 0 1-.58-.48zm1.11 2.47a.6.6 0 1 1 .2 0 .65.65 0 0 1-.2 0zm1.43 1.42a.58.58 0 0 1-.27.36.59.59 0 1 1-.58-1 .58.58 0 0 1 .79.22.56.56 0 0 1 .06.42zm.17-14a.59.59 0 0 1 .82-.07.61.61 0 0 1 .21.4.6.6 0 0 1-.14.42.57.57 0 0 1-.45.21.54.54 0 0 1-.37-.14.57.57 0 0 1-.07-.79zm.82 16a.58.58 0 0 1-.38.13.56.56 0 0 1-.44-.21.58.58 0 0 1 .07-.82.59.59 0 0 1 .82.07.59.59 0 0 1-.07.81zm1.52 1.37a.57.57 0 0 1-.45.21.58.58 0 0 1-.37-.13.63.63 0 0 1-.21-.4.6.6 0 0 1 .14-.43.55.55 0 0 1 .39-.2.57.57 0 0 1 .43.13.61.61 0 0 1 .21.4.6.6 0 0 1-.14.4zm.2-4.55h.48v-.78a.09.09 0 0 1 .09-.09h12.85a.09.09 0 0 1 .09.09v.78h.48v.82h-14zm1.54 5.65a.58.58 0 0 1-.8.21.58.58 0 1 1 .8-.21zm1.9.77a.59.59 0 0 1-.55.39.79.79 0 0 1-.2 0 .59.59 0 1 1 .75-.35zm1.43.92h-.1a.58.58 0 0 1-.47-.68.57.57 0 0 1 .67-.47.58.58 0 0 1-.1 1.16zm2 .17a.58.58 0 1 1 .59-.58.58.58 0 0 1-.55.56zm2.57-.46a.64.64 0 0 1-.38.24h-.1a.58.58 0 0 1-.1-1.16.55.55 0 0 1 .43.09.6.6 0 0 1 .24.38.62.62 0 0 1-.09.45zm2-.62a.6.6 0 0 1-.33.3.79.79 0 0 1-.2 0 .54.54 0 0 1-.25-.06.57.57 0 0 1-.3-.33.59.59 0 0 1 0-.45.58.58 0 0 1 .33-.3.59.59 0 0 1 .75.35.63.63 0 0 1 .03.51zm1.62-.61a.6.6 0 0 1-.29.08h-.16a.59.59 0 1 1 .66-.86.59.59 0 0 1-.18.8zm1.76-1.23a.58.58 0 0 1-.37.13.57.57 0 0 1-.45-.21.6.6 0 0 1-.14-.42.61.61 0 0 1 .21-.4.6.6 0 0 1 .43-.13.55.55 0 0 1 .39.2.59.59 0 0 1-.04.85zm.07-18.1a.56.56 0 0 1-.39.21h-.06a.59.59 0 0 1-.37-.14.57.57 0 0 1-.07-.82.58.58 0 0 1 .82-.07.61.61 0 0 1 .21.4.6.6 0 0 1-.11.44zM31.72 55a.56.56 0 0 1-.39.21h-.06a.56.56 0 0 1-.37-.13.58.58 0 0 1-.07-.83.55.55 0 0 1 .39-.2.6.6 0 0 1 .43.13.61.61 0 0 1 .21.4.58.58 0 0 1-.14.42zm-.07-15a.57.57 0 0 1-.37.14h-.06a.61.61 0 0 1-.39-.21.6.6 0 0 1-.14-.42.61.61 0 0 1 .21-.4.58.58 0 0 1 .82.07.57.57 0 0 1-.07.82zM33 53.27a.61.61 0 0 1-.8.22.58.58 0 0 1-.27-.36.56.56 0 0 1 .06-.44.53.53 0 0 1 .35-.27.61.61 0 0 1 .44 0 .59.59 0 0 1 .22.85zm.91-2a.59.59 0 0 1-.55.39.65.65 0 0 1-.2 0 .55.55 0 0 1-.33-.3.58.58 0 0 1 0-.45.6.6 0 0 1 .3-.33.59.59 0 0 1 .8.73zm.31-1.7a.56.56 0 0 1-.33.1h-.1a.6.6 0 0 1-.48-.68.58.58 0 0 1 .68-.47.57.57 0 0 1 .47.67.54.54 0 0 1-.28.43zM34 47.68a.58.58 0 0 1-.59-.58.57.57 0 0 1 .17-.41.56.56 0 0 1 .42-.18.59.59 0 0 1 .58.59.58.58 0 0 1-.58.58z"/><path class="cls-2" d="M22.26 31.64A15.46 15.46 0 1 0 37.72 47.1a15.46 15.46 0 0 0-15.46-15.46zm0 29.72A14.27 14.27 0 1 1 36.53 47.1a14.28 14.28 0 0 1-14.27 14.26z"/></g></svg>