<svg id="TARGETS" xmlns="http://www.w3.org/2000/svg" viewBox="0 0 94.85 94.85" width="94.85" height="94.85"><defs><style>.cls-1{fill:#fd6925}.cls-2{fill:#fff}</style></defs><title>Goal_9_RGB_NG</title><path class="cls-1" d="M0 0h94.85v94.85H0z"/><path class="cls-2" d="M55.41 28.54v-5.69l-9.68 5.69v-5.69L36 28.58V9.3a.24.24 0 0 0-.24-.24H30a.24.24 0 0 0-.24.24v36.88a.24.24 0 0 0 .24.24h34.85a.24.24 0 0 0 .23-.22V22.85zm-16.89 14a.32.32 0 0 1-.32.31h-5.53a.31.31 0 0 1-.31-.31v-3a.31.31 0 0 1 .31-.32h5.53a.32.32 0 0 1 .32.32zm0-6a.32.32 0 0 1-.32.31h-5.53a.31.31 0 0 1-.31-.31v-3a.31.31 0 0 1 .31-.32h5.53a.32.32 0 0 1 .32.32zm8 6a.31.31 0 0 1-.32.31h-5.54a.31.31 0 0 1-.31-.31v-3a.31.31 0 0 1 .31-.32h5.53a.32.32 0 0 1 .32.32zm0-6a.31.31 0 0 1-.32.31h-5.54a.31.31 0 0 1-.31-.31v-3a.31.31 0 0 1 .31-.32h5.53a.32.32 0 0 1 .32.32zm8 6a.31.31 0 0 1-.32.31h-5.55a.31.31 0 0 1-.31-.31v-3a.31.31 0 0 1 .31-.32h5.53a.32.32 0 0 1 .32.32zm0-6a.31.31 0 0 1-.32.31h-5.55a.31.31 0 0 1-.31-.31v-3a.31.31 0 0 1 .31-.32h5.53a.32.32 0 0 1 .32.32zm8 6a.31.31 0 0 1-.31.31h-5.56a.31.31 0 0 1-.32-.31v-3a.32.32 0 0 1 .32-.32h5.53a.31.31 0 0 1 .31.32zm0-6a.31.31 0 0 1-.31.31h-5.56a.31.31 0 0 1-.32-.31v-3a.32.32 0 0 1 .32-.32h5.53a.31.31 0 0 1 .31.32z"/><path class="cls-2" d="M41.24 20.75a15.05 15.05 0 0 1 2-3.14c1.74.65 4.74 1.4 6.87-.09 2.82-2 2.53-6.4 6.57-8.55.94-.5-7.91-2.6-12.56.1A6.22 6.22 0 0 0 41 15.5a14.84 14.84 0 0 1 11-5s-9.39 3.22-12.15 9.67c-.13.52 1.15 1.19 1.39.58z"/><g><path class="cls-2" d="M14.19 55.81a2.89 2.89 0 1 0 2.89-2.89 2.89 2.89 0 0 0-2.89 2.89zM22.9 62.35s-.86-2.26-2.76-2.26H14c-1.9 0-2.76 2.26-2.76 2.26l-2.4 7.82s-.41 1.43.81 1.83 1.57-1 1.57-1l1.94-6.53s.1-.5.48-.39.24.64.24.64l-3.37 12.15h3.13v8.75a1.51 1.51 0 1 0 3 0v-8.75h.86v8.75a1.51 1.51 0 1 0 3 0v-8.75h3.13l-3.35-12.23s-.14-.53.24-.64.48.39.48.39l1.93 6.53s.37 1.39 1.58 1 .79-1.79.79-1.79zM74.88 55.81a2.89 2.89 0 1 0 2.89-2.89 2.89 2.89 0 0 0-2.89 2.89zM83.59 62.35s-.86-2.26-2.76-2.26h-6.12c-1.9 0-2.76 2.26-2.76 2.26l-2.4 7.82s-.43 1.43.79 1.79 1.57-1 1.57-1l1.94-6.53s.1-.5.48-.39.24.64.24.64L71.2 76.87h3.13v8.75a1.51 1.51 0 1 0 3 0v-8.75h.86v8.75a1.5 1.5 0 1 0 3 0v-8.75h3.14L81 64.64s-.14-.53.23-.64.49.39.49.39l1.93 6.53s.37 1.39 1.58 1 .79-1.79.79-1.79z"/><g><path class="cls-2" d="M37.56 65.68a2.77 2.77 0 1 0-2.76-2.78 2.77 2.77 0 0 0 2.76 2.78zM49.14 82.73L48 80.46l-2.76-5.49a1.33 1.33 0 0 0-1.32-.73h-4l-.07-5c0-1.5-.39-2.37-1.55-2.68a5.66 5.66 0 0 0-1.71 0h-.14l-4.66 1.5h-.25a1.11 1.11 0 0 0-.51.61l-1.33 3.74a1.17 1.17 0 1 0 2.21.78L33 70.14l1.74-.56h.08v5.22c0 1.18.39 2.37 1.55 2.68l.37.1a3.34 3.34 0 0 0 .61.05h5.85l1.54 3a.69.69 0 0 1 0 .1l.56 1.07.53 1v.08l.58 1.12a1.46 1.46 0 0 0 2.6-1.35z"/><path class="cls-2" d="M40.64 79.43v.29a5.62 5.62 0 1 1-10-3.46l-1.41-1.1a7.41 7.41 0 1 0 13.24 4.56v-.29z"/></g><g><path class="cls-2" d="M55.47 54.86a3 3 0 1 0 3-3 3 3 0 0 0-3 3zM62 59H55a4 4 0 0 0-3.62 4v8.29a1.16 1.16 0 1 0 2.32 0v-7.14c0-.27.07-.63.56-.63s.41.36.42.59v21.35a1.67 1.67 0 1 0 3.33 0V73.15a.46.46 0 0 1 .48-.48.45.45 0 0 1 .47.48v12.31a1.67 1.67 0 0 0 3.34 0V64.11c0-.23.08-.59.42-.59s.56.36.56.63v7.12a1.16 1.16 0 0 0 2.32 0V63a4 4 0 0 0-3.6-4z"/></g></g></svg>