<svg id="TARGETS" xmlns="http://www.w3.org/2000/svg" viewBox="0 0 94.85 94.85" width="94.85" height="94.85"><defs><style>.cls-1{fill:#fcc30b}.cls-2{fill:#fff}</style></defs><title>Goal_7_RGB_NG</title><path class="cls-1" d="M0 0h94.85v94.85H0z"/><path class="cls-2" d="M20.48 48a1.3 1.3 0 0 0 1.2 1.27h6.77a1.27 1.27 0 0 0 0-2.54h-6.77a1.3 1.3 0 0 0-1.2 1.27zM74.29 48a1.29 1.29 0 0 0-1.19-1.27h-6.77a1.27 1.27 0 0 0 0 2.54h6.77A1.29 1.29 0 0 0 74.29 48zM48.66 29.07V22.3a1.28 1.28 0 0 0-2.55 0v6.77a1.28 1.28 0 0 0 2.55 0zM46.11 67v6.77a1.28 1.28 0 0 0 2.55 0V67a1.28 1.28 0 0 0-2.55 0zM30.32 39.71a1.28 1.28 0 0 0 1.26-2.21l-5.88-3.36a1.28 1.28 0 0 0-1.66.5 1.3 1.3 0 0 0 .4 1.7zM63.2 58.52l5.87 3.37a1.31 1.31 0 0 0 1.67-.52 1.29 1.29 0 0 0-.41-1.69l-5.87-3.36a1.27 1.27 0 0 0-1.26 2.2zM57.89 32.21l3.37-5.88a1.27 1.27 0 0 0-2.21-1.26l-3.36 5.87a1.27 1.27 0 0 0 2.2 1.27zM36.87 63.82l-3.36 5.88a1.27 1.27 0 0 0 2.2 1.3l3.37-5.88a1.27 1.27 0 0 0-2.21-1.26zM38.54 32.62a1.29 1.29 0 0 0 .51-1.62l-3.38-5.87a1.3 1.3 0 0 0-1.7-.4 1.29 1.29 0 0 0-.5 1.67l3.37 5.87a1.3 1.3 0 0 0 1.7.35zM56.23 63.39a1.3 1.3 0 0 0-.5 1.68l3.37 5.87a1.3 1.3 0 0 0 1.7.39 1.29 1.29 0 0 0 .5-1.66l-3.37-5.87a1.32 1.32 0 0 0-1.7-.41zM64.43 39.67l5.87-3.37a1.27 1.27 0 0 0-1.3-2.21l-5.87 3.38a1.27 1.27 0 0 0 1.26 2.2zM25.73 61.93l5.86-3.37a1.27 1.27 0 0 0-1.26-2.21l-5.87 3.38a1.27 1.27 0 0 0 1.27 2.2z"/><path class="cls-2" d="M47.38 32.29a15.86 15.86 0 1 0 15.86 15.85 15.85 15.85 0 0 0-15.86-15.85zm-3.57 23.76l-1.6-5.18-1.58 5.18h-2.51l2.34-7.37-2.1-6.42h2.73l1.36 4.43 1.36-4.43h2.48L44.2 48.8l2.36 7.25zm11.92-11.6A5.17 5.17 0 0 1 54 48.61l-1.8 1.87A3.17 3.17 0 0 0 51 53v.78h4.55v2.26h-7.2V53c0-1.63.56-2.7 2.07-4.3L52 47.05a3.25 3.25 0 0 0 1-2.84v-1.36c0-1-.47-1.24-1-1.24s-1 .29-1 1.29V45h-2.57v-2c0-2.31 1.24-3.6 3.67-3.6s3.63 1.12 3.63 3.48z"/><path class="cls-2" d="M86.66 52l-3.07-.36a.44.44 0 0 0-.5.38 36.43 36.43 0 0 1-63.2 19.58l1-.89 2.34-2.13.08-.08a.37.37 0 0 0 0-.52.35.35 0 0 0-.22-.12H23l-10.24-1.8h-.11a.45.45 0 0 0-.31.13.47.47 0 0 0-.15.25v.18l.92 10.23v.06a.32.32 0 0 0 .09.26.38.38 0 0 0 .51 0l.13-.12 2.4-2.05.69-.63a40.43 40.43 0 0 0 70.13-21.82.46.46 0 0 0-.4-.55zM47.47 11.32a36.51 36.51 0 0 1 27.18 12.19l-.91.61-2.63 1.76L71 26a.38.38 0 0 0-.09.51.37.37 0 0 0 .2.15h.09l9.85 3.29h.11a.49.49 0 0 0 .33-.08.54.54 0 0 0 .18-.23v-.18l.6-10.25v-.06a.41.41 0 0 0-.06-.28.38.38 0 0 0-.49-.12l-.15.1L79 20.64l-1 .63A40.43 40.43 0 0 0 7.28 43.16a.46.46 0 0 0 .41.51l3.08.31a.44.44 0 0 0 .49-.39 36.31 36.31 0 0 1 36.21-32.27z"/></svg>