<svg id="TARGETS" xmlns="http://www.w3.org/2000/svg" viewBox="0 0 94.85 94.85" width="94.85" height="94.85"><defs><style>.cls-1{fill:#56c02b}.cls-2{fill:#fff}</style></defs><title>Goal_15_RGB_NG</title><path class="cls-1" d="M0 0h94.85v94.85H0z"/><path class="cls-2" d="M10.61 60.49l14.59-21h23.23a7.14 7.14 0 0 0 5.53-3l4.17 5.9 6.73-9.9 18.3 28.08h2.42l-.69-1.2-20-30.68-6.79 10-3.1-4.47a7.33 7.33 0 0 0 .27-1.94 7.16 7.16 0 0 0-6.68-7.14l-8.08-11.46-6 8.67h-.68a6.33 6.33 0 0 0-12.66 0v.21a9 9 0 0 0-1.89-.21 8.55 8.55 0 0 0 0 17.1h3.37l-14.59 21zm29.92-43.22l5.68 8.1a7.22 7.22 0 0 0-3.68 2.41 8.59 8.59 0 0 0-5.72-5.12z"/><path class="cls-2" d="M40.52 78.14h2a.16.16 0 0 0 .16-.15v-4.44h4.81a.33.33 0 0 0 .33-.33.24.24 0 0 0 0-.12l-5.85-19v-.07a.34.34 0 0 0-.3-.19.35.35 0 0 0-.27.14l-.08.13L35.34 73a.32.32 0 0 0 .25.51h4.78V78a.15.15 0 0 0 .15.14zM55.6 78.14h2a.15.15 0 0 0 .15-.15v-4.44h4.82a.33.33 0 0 0 .33-.33.24.24 0 0 0 0-.12L57 54.05V54a.32.32 0 0 0-.29-.19.35.35 0 0 0-.27.14l-.08.13L50.42 73a.32.32 0 0 0 .25.51h4.78V78a.15.15 0 0 0 .15.14zM30.54 67.44l.44-.83.15-1.46a1.6 1.6 0 0 0 .14-1.51c-.53-.15-.89.57-.89.57a5.41 5.41 0 0 0-1-.09 4.36 4.36 0 0 0-.91.09.88.88 0 0 0-1-.44 1.09 1.09 0 0 0 .13 1.06l-3.86 1.94-4.74.47c-3 0-4.39 1.61-4.53 4a9.26 9.26 0 0 1-1.28 4.07c-1.27 1.24-2-.79-2-1.19a1.15 1.15 0 0 0 .8-1.19s-2.31.19-.87 2.61a1.46 1.46 0 0 0 2.15.41l.43 2.23.22.36h1.32l.12-.56-.61-.29-.29-1.34L18.24 72l1.91.56 5.22.43 1.14 4.28.18 1 1.49.16.38-.47-1-.73v-4.65l2.24-4.68z"/><path class="cls-2" d="M19.25 78.47h1.09l.15-.58-.88-.37-.75-1.33L20 73l-1.62-.43-.67.81a3.19 3.19 0 0 1-.06 2.89zM80.55 77.72l.93-4.42-1.2-1.71L81 69s.32-2.58-3.12-2.25l-5.91.69-1.31.46-1.49-2.9a4.59 4.59 0 0 0 0-.92l-.83.6-1.13-.16a1.54 1.54 0 0 1-.53 1.27c-.59.6-1.25.76-1.06 1.51a13.71 13.71 0 0 0 2.28-.25l1.55 3.26 2.74 1.9 1 5.47H74l-.55-3.55.5-2.44h2.58l1.31-.48L80.51 74l-.68 3.74z"/><path class="cls-2" d="M77.37 77.72l2.17-4-1.7-1.92-.34.1 1.07 2.27-2.02 3.55h.82zM71.5 77.72h.8l.15-2.36-.41-2.49-.54 4.85zM67.73 64.26l.58.12a11.24 11.24 0 0 1 3.38-2.75c-1.53.15-3.96 2.63-3.96 2.63zM67.43 64.08l.71-.63a10.21 10.21 0 0 1 2.58-2.24c-2.84 1.14-3.29 2.87-3.29 2.87z"/><rect class="cls-2" x="7.54" y="81.74" width="79.56" height="4.74" rx=".57" ry=".57"/><path class="cls-2" d="M77.33 27.22a6.3 6.3 0 0 0-3.7-1.39 4.42 4.42 0 0 0-3.38 1.4c-.2.2-.52.7-.19.92s.47 0 .75-.19a3.12 3.12 0 0 1 1.7-.32 6.46 6.46 0 0 1 4.41 1.85.62.62 0 0 0 .37.16.6.6 0 0 0 .4-.19 6.48 6.48 0 0 1 4.42-1.85 3.38 3.38 0 0 1 1.72.36c.25.15.51.26.74.12s.08-.61-.1-.8A4.77 4.77 0 0 0 81 25.82a6.32 6.32 0 0 0-3.67 1.4zM66.27 16.94a2.65 2.65 0 0 1 1.38-.34 5.34 5.34 0 0 1 3.7 1.3.51.51 0 0 0 .31.11.47.47 0 0 0 .32-.17 5.32 5.32 0 0 1 3.53-1.73 3 3 0 0 1 1.43.21c.21.11.43.19.61.06s0-.5-.12-.64a3.9 3.9 0 0 0-2.92-1.06 5.07 5.07 0 0 0-3 1.32 5.22 5.22 0 0 0-3.1-1 3.67 3.67 0 0 0-2.7 1.31c-.15.18-.4.6-.11.77s.45 0 .67-.14zM74.94 10.8a2 2 0 0 1 1.11.11 4.15 4.15 0 0 1 2.42 1.94.4.4 0 0 0 .21.17c.11 0 .28-.05.28-.05a4.25 4.25 0 0 1 3.09-.36 2.37 2.37 0 0 1 1 .53.46.46 0 0 0 .44.21c.2-.05.16-.37.08-.51a3.07 3.07 0 0 0-1.91-1.56 4.09 4.09 0 0 0-2.55.2A4.17 4.17 0 0 0 77.08 10a2.91 2.91 0 0 0-2.36.26c-.16.1-.45.35-.29.55s.31.03.51-.01z"/></svg>