<svg id="TARGETS" xmlns="http://www.w3.org/2000/svg" viewBox="0 0 94.85 94.85" width="94.85" height="94.85"><defs><style>.cls-1{fill:#fd9d24}.cls-2{fill:#fff}</style></defs><title>Goal_11_RGB_NG</title><path class="cls-1" d="M0 0h94.85v94.85H0z"/><path class="cls-2" d="M73 55.06h3.45a1 1 0 1 0 0-2h-8.16a1 1 0 0 0 0 2h2.63L69.49 61h-3.87S57 61 47.5 74.47c-3.21 4.06 3.33 4.06 3.33 4.06H88v-10h-8a.83.83 0 0 1-.83-.83v-2.46a.84.84 0 0 1 .83-.83h8V61H71.54zm-7.41 10s-1.06 2.26-1.37 2.89-.64.58-.64.58h-6.52c-1.45 0-1.36-.12-1-.59a13.37 13.37 0 0 1 4.52-3.52h4.57c.4-.01.55.28.41.63zm6.49-.64h4.06a.83.83 0 0 1 .83.83v9.61a.83.83 0 0 1-.83.83h-4.09a.83.83 0 0 1-.83-.83v-9.62a.83.83 0 0 1 .83-.83zM34.81 67a5.81 5.81 0 0 0-2.36.51l-1.33-2.14 1-1.82 1.21.1c.45 0 .7-.11.7-.47v-.31a.57.57 0 0 0-.64-.64h-4.31a.32.32 0 0 0-.33.32V63a.33.33 0 0 0 .29.32l1.32.11-.53 1-7.67-.83-.05-1.2a.8.8 0 0 0-.4-.66l-2.29-1.31a.71.71 0 0 0-.42-.13.8.8 0 0 0-.8.8.81.81 0 0 0 .43.7l1.9 1.09v1L19 67.21a6 6 0 0 0-1.8-.31 5.8 5.8 0 1 0 3.24 1l.91-1.9 4.33 7a.81.81 0 0 0 .67.38l2.73.06A5.79 5.79 0 1 0 34.81 67zm-13.37 5.7a4.2 4.2 0 1 1-4.2-4.2 4.16 4.16 0 0 1 1.12.17l-1.73 3.69a.72.72 0 0 0-.07.33.8.8 0 0 0 .8.8.8.8 0 0 0 .71-.45l1.68-3.6a4.2 4.2 0 0 1 1.69 3.26zm9.66-4.31a5.81 5.81 0 0 0-2 3.51h-1.46l2.61-4.9zm.9 1.37L33.34 72l-2.63-.06A4.16 4.16 0 0 1 32 69.76zm-3-3.83L26.29 71l-3.54-5.74zM34.81 77a4.2 4.2 0 0 1-4.13-3.49l4.11.09a.79.79 0 0 0 .69-.4.8.8 0 0 0 0-.82l-2.18-3.49A4.19 4.19 0 1 1 34.81 77z"/><rect class="cls-2" x="6.81" y="81.1" width="81.18" height="4.74" rx=".57" ry=".57"/><g><path class="cls-2" d="M42.05 25.19L40 15.76a1 1 0 0 0-1-.92l-15.75.06H6.91v2.9h6.4a.78.78 0 0 1 .78.78v5.39a.77.77 0 0 1-.78.77H6.85v10.78h12.34a4.5 4.5 0 0 1-.14-1.11 4.51 4.51 0 0 1 9 0 4.58 4.58 0 0 1-.14 1.12h12.74A1.39 1.39 0 0 0 42 34.06V25.19zm-13.87-1.26a.77.77 0 0 1-.78.77H16.93a.77.77 0 0 1-.77-.77v-5.39a.78.78 0 0 1 .77-.78H27.4a.78.78 0 0 1 .78.78zm6.82 8.2a.83.83 0 0 1-.83.83h-3a.83.83 0 0 1-.83-.83v-13.5a.83.83 0 0 1 .83-.83h3a.83.83 0 0 1 .83.83zm5.2-3.78h-2.65a.5.5 0 0 1-.49-.57v-9.64s-.06-.38.51-.38h1.48l1.59 7.43v2.59s.08.57-.43.57z"/><path class="cls-2" d="M23.56 30.7a3.7 3.7 0 0 0-3.7 3.7 3.7 3.7 0 0 0 3.7 3.69 3.7 3.7 0 0 0 3.69-3.7 3.7 3.7 0 0 0-3.69-3.69zm0 5.6a1.91 1.91 0 1 1 1.91-1.9 1.9 1.9 0 0 1-1.91 1.9zM84.26 9h-1.53c-.07 0-.12 0-.12.09v.78h-5.18V19h5.18v19s0 .09.12.09h1.53c.07 0 .12 0 .12-.09V9.13c0-.05-.05-.13-.12-.13zM55.66 19.58a1.94 1.94 0 0 0 1-3.64.65.65 0 0 0 .11-.33 1 1 0 0 0-2 0 .55.55 0 0 0 .07.28 1.94 1.94 0 0 0 .85 3.69zM61.26 26.66l-1.63-5.24S59 19.9 57.75 19.9h-4.17c-1.3 0-1.89 1.52-1.89 1.52l-1.63 5.24s-.24.81.37 1.13v.07l-1.92 9.89a.3.3 0 0 0 .24.35h.06a.31.31 0 0 0 .3-.24L51 28v-.08c.53-.08.71-.72.71-.72L53 22.79s.07-.34.33-.27.16.44.16.44l-2.3 8.2h2.14V37a1 1 0 0 0 2 0v-5.84H56V37a1 1 0 0 0 2 0v-5.84h2.13L57.85 23s-.1-.36.16-.44.32.27.32.27l1.32 4.38s.25.94 1.08.7.53-1.25.53-1.25z"/><g><path class="cls-2" d="M70.35 23.71a1.87 1.87 0 1 0-1.86-1.87 1.87 1.87 0 0 0 1.86 1.87zM78.12 35.17l-.79-1.53-1.85-3.69a.9.9 0 0 0-.89-.49h-2.66l-.05-3.33c0-1-.26-1.59-1-1.8a4.09 4.09 0 0 0-1.15 0h-.09l-3.13 1h-.06a.2.2 0 0 1-.08 0 .79.79 0 0 0-.35.41L65 28.32a.79.79 0 0 0 1.49.53l.76-2.14 1.17-.38h.05v3.5c0 .8.26 1.59 1 1.8l.25.07h4.34l1 2v.06l.38.72.35.71.39.76a1 1 0 0 0 1.74-.91z"/><path class="cls-2" d="M72.41 33v.19a3.77 3.77 0 1 1-6.74-2.32l-1-.74a5 5 0 1 0 8.9 3.06V33z"/></g><rect class="cls-2" x="6.81" y="40.47" width="81.18" height="4.74" rx=".57" ry=".57"/></g></svg>