<svg id="TARGETS" xmlns="http://www.w3.org/2000/svg" viewBox="0 0 94.85 94.85" width="94.85" height="94.85"><defs><style>.cls-1{fill:#56c02b}.cls-2{fill:#fff}</style></defs><title>Goal_15_RGB_NG</title><path class="cls-1" d="M0 0h94.85v94.85H0z"/><path class="cls-2" d="M69.83 73.38l-2.78-2.23a.59.59 0 0 0-.87 0c-8.85 10.48-24 11.58-34.77 3-.33-.26-.63-.54-.94-.81l3.15-2c.32-.2-.12-.46-.12-.46l-10.81-5.41c-.35-.18-.39 0-.4.17v.1L22.24 78c0 .12.1.42.36.25l3.55-2.21A26.88 26.88 0 0 0 28.34 78c12.79 10.26 30.92 8.89 41.46-3.54l.12-.14a.62.62 0 0 0-.09-.94zM22.36 22.79l2.91 2.07a.58.58 0 0 0 .86-.11c8.23-11 23.3-12.95 34.54-4.95.35.24.66.5 1 .75l-3 2.16c-.3.21.15.45.15.45L69.89 28c.35.16.38-.06.38-.19v-.1l-.67-12.3c0-.12-.12-.42-.37-.24L65.8 17.6c-.73-.63-1.48-1.23-2.28-1.8-13.37-9.51-31.38-7.09-41.19 5.93l-.11.14a.62.62 0 0 0 .14.92zM83 56.49h3.42l-4.16-7.41 2-.15L81 44.15l2-.15-4.17-5.44 1.82-.15-4-6.95v.23-.18l-4 7 1.82.15-4.16 5.44 2 .15L69 49l2 .15-4.2 7.44h8.31v6a.19.19 0 0 0 .19.19h2.57a.18.18 0 0 0 .19-.19v-6h4.89zM24.29 56.76h.18a.43.43 0 0 0 .4-.42.4.4 0 0 0-.07-.24l-7.74-24.84-.06-.16a.42.42 0 0 0-.74.06l-.06.09-7.69 24.92a.41.41 0 0 0 0 .16.42.42 0 0 0 .42.43h6.3v5.8a.19.19 0 0 0 .2.19H18a.19.19 0 0 0 .2-.19v-5.8z"/><path class="cls-2" d="M59 72.64a.23.23 0 0 0-.07.07c-.25.29.07-.07.07-.07zM31.48 30.21l.07-.07c.24-.26-.07.07-.07.07zM44.89 55.83a5.78 5.78 0 0 1-1.51.66 15.48 15.48 0 0 1-4.71.59 19.1 19.1 0 0 1-2.33-.18c-.53-.08-.92-.16-1.41-.27-.25-.06-.48-.12-.7-.19a5.77 5.77 0 0 1-1.84-.88 2.24 2.24 0 0 1-.51-.55v1.54a1.35 1.35 0 0 0 .54 1 7.67 7.67 0 0 0 3.66 1.36 17.38 17.38 0 0 0 2.68.2 16 16 0 0 0 3.86-.44 7.63 7.63 0 0 0 1.95-.76c.64-.39 1-.85 1-1.33 0 0 .05-1.4 0-1.52a2.94 2.94 0 0 1-.68.77zM38.12 51.16C41.93 51.16 45 50 45 48.6c0 0 .08-1.31.06-1.59a2 2 0 0 0-.12-.54 1.55 1.55 0 0 0 .78-1.16s.06-1.46 0-1.75c-.19-1.72-3.66-2.65-6.92-2.65s-7 1-7 2.81c0 .08.07 1.59.07 1.59a1.11 1.11 0 0 0 .08.3 1.77 1.77 0 0 0-.87 1.4c0 .09.07 1.59.07 1.59a1.35 1.35 0 0 0 .54 1 7.72 7.72 0 0 0 3.76 1.4 17.16 17.16 0 0 0 2.67.16zm.72-9.53c3.67 0 6.22 1.1 6.22 2.09s-2.55 2.08-6.22 2.08-6.23-1.1-6.23-2.08 2.56-2.09 6.23-2.09zm-7 5.38a1.1 1.1 0 0 1 .54-.78 3.62 3.62 0 0 0 .7.51 12.69 12.69 0 0 0 5.71 1.12 14.36 14.36 0 0 0 4.87-.75c.22-.08.41-.17.6-.26a.94.94 0 0 1 0 .16c0 1-2.56 2.09-6.23 2.09S31.89 48 31.89 47z"/><path class="cls-2" d="M36.07 56.43a17.38 17.38 0 0 0 2.68.2 16.5 16.5 0 0 0 3.86-.43 7.48 7.48 0 0 0 2-.76 4 4 0 0 0 .43-.3 1.75 1.75 0 0 0 .52-.67 1.15 1.15 0 0 0 .07-.36v-1.52c-.23.29-.82 1.2-3.53 1.75a19.61 19.61 0 0 1-3.51.3 12.79 12.79 0 0 1-5.51-1.08 4.73 4.73 0 0 1-.87-.59 3.55 3.55 0 0 1-.42-.52v1.69a1.33 1.33 0 0 0 .54 1 7.51 7.51 0 0 0 3.74 1.29z"/><path class="cls-2" d="M45.55 49.49a1.81 1.81 0 0 0-.17-.16 1.57 1.57 0 0 0-.29-.15 1.74 1.74 0 0 1-.31.4 1.72 1.72 0 0 1 .27.15.68.68 0 0 1 .33.53.59.59 0 0 1-.25.45 1.58 1.58 0 0 1-.27.2 3.61 3.61 0 0 1-.39.22 6.46 6.46 0 0 1-.61.26s-.42.15-.61.2-.6.15-.82.19c0 0-.73.13-1 .17l-1.08.11-1.59.07a15.17 15.17 0 0 1-2.2-.16c-.52-.08-1.06-.18-1.55-.29a9.93 9.93 0 0 1-1.65-.52 3.08 3.08 0 0 1-1.39-1.3v1.74a1.39 1.39 0 0 0 .54 1 7.72 7.72 0 0 0 3.65 1.4 17.29 17.29 0 0 0 2.68.2 15.86 15.86 0 0 0 3.85-.44h.05a7.4 7.4 0 0 0 1.94-.76 2.86 2.86 0 0 0 .42-.31 1.63 1.63 0 0 0 .52-.66.92.92 0 0 0 .07-.36s.06-1.46.06-1.49a.93.93 0 0 0-.05-.35.69.69 0 0 0-.15-.34zM54 46.18c3.8 0 6.88-1.14 6.88-2.55 0 0 .08-1.31.06-1.59a1.52 1.52 0 0 0-.12-.55 1.55 1.55 0 0 0 .78-1.16s.06-1.46 0-1.74c-.18-1.72-3.65-2.65-6.92-2.65s-6.95 1-6.95 2.8c0 .09.07 1.59.07 1.59a1.09 1.09 0 0 0 .08.31A1.74 1.74 0 0 0 47 42c0 .08.06 1.59.06 1.59a1.35 1.35 0 0 0 .55 1A7.43 7.43 0 0 0 51.3 46a17.29 17.29 0 0 0 2.7.18zm.71-9.52c3.67 0 6.23 1.1 6.23 2.08s-2.56 2.09-6.23 2.09-6.23-1.1-6.23-2.09 2.52-2.08 6.21-2.08zM47.75 42a1.12 1.12 0 0 1 .54-.79 3 3 0 0 0 .7.51 12.65 12.65 0 0 0 5.71 1.13 14.51 14.51 0 0 0 4.86-.75 5.65 5.65 0 0 0 .6-.27.53.53 0 0 1 0 .17c0 1-2.56 2.08-6.23 2.08S47.75 43 47.75 42z"/><path class="cls-2" d="M61.58 44.79a.75.75 0 0 0-.17-.28l-.18-.15a1.87 1.87 0 0 0-.23-.16 1.65 1.65 0 0 1-.31.41 1.72 1.72 0 0 1 .27.15.64.64 0 0 1 .32.52.62.62 0 0 1-.25.46 2 2 0 0 1-.26.2l-.4.22-.6.26-.62.19-.82.2c-.05 0-.73.13-1.05.17l-1.08.1c-.11 0-1.14.07-1.59.07a15 15 0 0 1-2.24-.15 14.68 14.68 0 0 1-1.55-.29 8.81 8.81 0 0 1-1.66-.52 2.85 2.85 0 0 1-.84-.58 2.93 2.93 0 0 1-.55-.72v1.74a1.35 1.35 0 0 0 .54 1A7.63 7.63 0 0 0 52 49a17.38 17.38 0 0 0 2.68.2 16 16 0 0 0 3.86-.44 7.63 7.63 0 0 0 2-.76 2.74 2.74 0 0 0 .43-.3 1.68 1.68 0 0 0 .52-.67 1.15 1.15 0 0 0 .07-.36s.05-1.45.05-1.48a.72.72 0 0 0-.03-.4zM60.78 50.85a5.74 5.74 0 0 1-1.51.67 15.48 15.48 0 0 1-4.71.59 19.12 19.12 0 0 1-2.33-.19 12.31 12.31 0 0 1-1.42-.27c-.24 0-.48-.12-.69-.18a5.83 5.83 0 0 1-1.84-.89 2 2 0 0 1-.51-.54v1.53a1.35 1.35 0 0 0 .54 1A7.63 7.63 0 0 0 52 53.93a17.29 17.29 0 0 0 2.68.2 16 16 0 0 0 3.86-.44 7.4 7.4 0 0 0 1.94-.76 1.7 1.7 0 0 0 1-1.33s.06-1.39 0-1.51a3.29 3.29 0 0 1-.7.76z"/><path class="cls-2" d="M48.3 50.1a7.67 7.67 0 0 0 3.7 1.36 17.38 17.38 0 0 0 2.68.2 16 16 0 0 0 3.86-.44 7.63 7.63 0 0 0 2-.76 3.65 3.65 0 0 0 .43-.31 1.65 1.65 0 0 0 .52-.66 1.15 1.15 0 0 0 .07-.36v-1.52c-.23.29-.82 1.19-3.54 1.75a21.45 21.45 0 0 1-3.51.3 12.93 12.93 0 0 1-5.51-1.1 4.73 4.73 0 0 1-.87-.59 4.23 4.23 0 0 1-.42-.52v1.69a1.33 1.33 0 0 0 .59.96zM61.64 55a3 3 0 0 1-.83.79 5.59 5.59 0 0 1-1.51.67 15.16 15.16 0 0 1-4.7.58 17.3 17.3 0 0 1-2.34-.18 12.14 12.14 0 0 1-1.41-.27l-.7-.18a5.9 5.9 0 0 1-1.83-.89 1.88 1.88 0 0 1-.51-.54v1.53a1.37 1.37 0 0 0 .54 1 7.72 7.72 0 0 0 3.67 1.36 18.47 18.47 0 0 0 2.67.2 16.46 16.46 0 0 0 3.86-.44 7.34 7.34 0 0 0 2-.76c.64-.39 1-.84 1-1.33.06-.03.11-1.42.09-1.54z"/><path class="cls-2" d="M52 56.4a17.29 17.29 0 0 0 2.68.2 15.86 15.86 0 0 0 3.85-.44 7.34 7.34 0 0 0 2-.76 3 3 0 0 0 .43-.31 1.72 1.72 0 0 0 .52-.66.92.92 0 0 0 .07-.36v-1.52c-.23.29-.82 1.19-3.54 1.75a21.66 21.66 0 0 1-3.51.3 12.94 12.94 0 0 1-5.5-1.1 4.8 4.8 0 0 1-.86-.59 3.37 3.37 0 0 1-.42-.52v1.69a1.35 1.35 0 0 0 .54 1A7.72 7.72 0 0 0 52 56.4z"/></svg>