<svg id="TARGETS" xmlns="http://www.w3.org/2000/svg" viewBox="0 0 94.85 94.85" width="94.85" height="94.85"><defs><style>.cls-1{fill:#4c9f38}.cls-2{fill:none}.cls-3{fill:#fff}</style></defs><title>Goal_3_RGB_NG</title><path class="cls-1" d="M0 0h94.85v94.85H0z"/><path class="cls-2" d="M20.85 64.15a6.93 6.93 0 0 0 1.88.95l.3-1a5.49 5.49 0 0 1-1.6-.81zM24.81 64.42v1a6.66 6.66 0 0 0 2.08-.34l-.31-1a5.61 5.61 0 0 1-1.77.34zM28.18 63.31l.59.81a7 7 0 0 0 1.49-1.49l-.81-.63a5.67 5.67 0 0 1-1.27 1.31zM20.78 53.24a7 7 0 0 0-1.48 1.5l.82.58A5.67 5.67 0 0 1 21.38 54zM30.26 60.44l.95.31a6.69 6.69 0 0 0 .33-2.1h-.3l-.7.05a5.56 5.56 0 0 1-.28 1.74zM24.74 52.92v-1a6.67 6.67 0 0 0-2.08.35l.32.94a6.19 6.19 0 0 1 1.76-.29zM28.7 53.17a6.63 6.63 0 0 0-1.88-.94l-.3 1a5.71 5.71 0 0 1 1.6.8zM18.38 60.79a6.66 6.66 0 0 0 1 1.87l.81-.59a5.75 5.75 0 0 1-.83-1.59zM19.31 56.93l-.95-.3a6.64 6.64 0 0 0-.32 2h1a5.65 5.65 0 0 1 .27-1.7zM28.52 58.06c0-1.26-.65-2.27-1.87-2.27-.89 0-1.49 1.13-1.89 1.53-.4-.41-.8-1.53-1.85-1.53-1.22 0-1.91 1-1.91 2.27a2.29 2.29 0 0 0 .64 1.6l3.12 3.12 3.12-3.12a2.29 2.29 0 0 0 .64-1.6zM29.41 55.24a5.75 5.75 0 0 1 .83 1.59l1-.32a7 7 0 0 0-1-1.87zM70.27 50.8a.93.93 0 1 0 .92.92.92.92 0 0 0-.92-.92zM70.27 43.77a.93.93 0 1 0 0 1.85.93.93 0 0 0 0-1.85zM70.26 58a.93.93 0 1 0 .93.93.93.93 0 0 0-.93-.93zM59.21 12.93c-.13-.18-3-4.33-9.11-2.48 0 0-.25.08-.6.23a8.29 8.29 0 0 0-1.34.72 5.46 5.46 0 0 0-2.65 3.91c-.37 3.16 2.09 5 3 5.57.19.12.32.18.35.2a7.21 7.21 0 0 0 1 .39 7.78 7.78 0 0 0 4.57.22l.32-.12 2.42 1.49-.06-2.28.33-.22a6.84 6.84 0 0 0 2.68-3.81 5 5 0 0 0-.91-3.82z"/><path class="cls-2" d="M44.1 15.15a6.67 6.67 0 0 1 2.84-4.65 9.31 9.31 0 0 0-2.17-1 12.47 12.47 0 0 0-3.69-.59 9.18 9.18 0 0 0-7.49 3.63 6.14 6.14 0 0 0-1.2 4.73A8.41 8.41 0 0 0 35.7 22l.32.22-.02 2.91 3-1.91.33.12c2.72 1 6.39-.48 6.85-.73a10.32 10.32 0 0 0 1.2-.77 7.14 7.14 0 0 1-3.28-6.69z"/><path class="cls-3" d="M58.61 21.5a8 8 0 0 0 3-4.47 6.29 6.29 0 0 0-1.19-4.89c0-.05-3.55-5.21-10.69-3.05a9.91 9.91 0 0 0-1.41.58 12.1 12.1 0 0 0-3.1-1.55c-8.53-2.59-12.73 3.56-12.76 3.61A7.57 7.57 0 0 0 31 17.55a9.52 9.52 0 0 0 3.59 5.36l-.11 4.81 4.75-2.94c3.21.95 7-.57 7.69-.92a12.56 12.56 0 0 0 1.87-1.29 10 10 0 0 0 5.85.56l4.08 2.51zm-12.39 1.11c-.46.25-4.13 1.7-6.85.73l-.37-.12-3 1.91v-2.95l-.3-.18a8.41 8.41 0 0 1-3.31-4.7 6.14 6.14 0 0 1 1.2-4.73 9.18 9.18 0 0 1 7.49-3.67 12.47 12.47 0 0 1 3.69.59 9.31 9.31 0 0 1 2.17 1 6.67 6.67 0 0 0-2.84 4.65 7.14 7.14 0 0 0 3.32 6.69 10.32 10.32 0 0 1-1.2.78zm11.28-2.05l-.33.22.06 2.28-2.42-1.49-.32.12a7.78 7.78 0 0 1-4.57-.22 7.21 7.21 0 0 1-1-.39s-.16-.08-.35-.2c-.94-.58-3.4-2.41-3-5.57a5.46 5.46 0 0 1 2.65-3.91 8.29 8.29 0 0 1 1.34-.72c.35-.15.59-.22.6-.23 6.1-1.85 9 2.3 9.11 2.48a5 5 0 0 1 1 3.82 6.84 6.84 0 0 1-2.77 3.81zM24.76 33.08a5.5 5.5 0 1 0-5.5-5.49 5.49 5.49 0 0 0 5.5 5.49zM35.83 40s-1.64-4.3-5.25-4.3H18.94c-3.62 0-5.25 4.3-5.25 4.3L9.12 54.91s-.82 2.72 1.5 3.4 3-2 3-2l3.68-12.39s.2-1 .92-.75.45 1.23.45 1.23l-6.42 23.26h6v16.66a2.86 2.86 0 0 0 5.72 0V67.66h1.63v16.66a2.87 2.87 0 0 0 5.73 0V67.66h6L30.85 44.4s-.27-1 .45-1.23.92.75.92.75l3.68 12.41s.7 2.67 3 2 1.49-3.4 1.49-3.4zm-9 12.19a6.63 6.63 0 0 1 1.88.94l-.58.81a5.71 5.71 0 0 0-1.6-.8zm-2.09-.31v1a6.19 6.19 0 0 0-1.77.29l-.32-.94a6.67 6.67 0 0 1 2.08-.31zM18 58.71a6.64 6.64 0 0 1 .32-2l.95.3a5.65 5.65 0 0 0-.27 1.66zm1.31 3.95a6.66 6.66 0 0 1-1-1.87l.95-.31a5.75 5.75 0 0 0 .83 1.59zm.77-7.34l-.82-.58a7 7 0 0 1 1.48-1.5l.6.8a5.67 5.67 0 0 0-1.22 1.28zm2.61 9.78a6.93 6.93 0 0 1-1.88-.95l.58-.82a5.49 5.49 0 0 0 1.6.81zm2.08.32v-1a5.61 5.61 0 0 0 1.77-.29l.31 1a6.66 6.66 0 0 1-2.04.29zm0-2.64l-3.12-3.12a2.29 2.29 0 0 1-.64-1.6c0-1.26.69-2.27 1.91-2.27 1.05 0 1.45 1.12 1.85 1.53.4-.4 1-1.53 1.89-1.53 1.22 0 1.87 1 1.87 2.27a2.29 2.29 0 0 1-.65 1.6zm4 1.34l-.59-.81A5.67 5.67 0 0 0 29.45 62l.81.59a7 7 0 0 1-1.49 1.53zm2.77-5.47a6.69 6.69 0 0 1-.33 2.1l-.95-.31a5.56 5.56 0 0 0 .28-1.77l.7-.05zm-.35-2.14l-1 .32a5.75 5.75 0 0 0-.83-1.59l.8-.6a7 7 0 0 1 1.03 1.87zM70.26 23a5.44 5.44 0 1 0 5.44 5.44A5.44 5.44 0 0 0 70.26 23zM85.73 55.45l-4.52-14.71S79.6 36.49 76 36.49H64.51c-3.58 0-5.2 4.25-5.2 4.25L54.8 55.45s-.81 2.69 1.48 3.37 3-2 3-2l3.65-12.28s.2-.94.9-.73.45 1.21.45 1.21l-6.34 23h5.89v16.51a2.84 2.84 0 0 0 5.67 0V68.06h1.61v16.47a2.83 2.83 0 1 0 5.66 0V68.06h5.9l-6.34-23s-.27-1 .44-1.21.91.73.91.73l3.64 12.28s.69 2.63 3 2 1.41-3.41 1.41-3.41zM70.26 59.9a.93.93 0 1 1 .93-.93.93.93 0 0 1-.93.93zm0-7.25a.93.93 0 1 1 0-1.85.93.93 0 0 1 0 1.85zm0-7a.93.93 0 1 1 .92-.92.92.92 0 0 1-.91.89z"/><path class="cls-3" d="M70.39 21.94a6.84 6.84 0 0 1 4.71 2l2.31-2.47a9.83 9.83 0 0 0-14.3.23l2.7 2.12a6.85 6.85 0 0 1 4.58-1.88z"/></svg>