<svg id="TARGETS" xmlns="http://www.w3.org/2000/svg" viewBox="0 0 94.8 94.8" width="94.8" height="94.8">
  <style>
    .st0{fill:#fd9d24}.st1{fill:#fff}.st2{fill:none}
  </style>
  <path class="st0" d="M0 0h94.8v94.8H0z"/>
  <path class="st1" d="M58.4 27H34.7c-.2 0-.4.2-.4.4v1c0 .2.2.4.4.4h23.7c.2 0 .4-.2.4-.4v-1c0-.2-.2-.4-.4-.4zm0 17.9H34.7c-.2 0-.4.2-.4.4v1.9c0 .2.2.4.4.4h23.7c.2 0 .4-.2.4-.4v-1.9c0-.3-.2-.4-.4-.4zm.4-19.6c-1.3-5.6-6.2-9.7-12.2-9.7-6 0-10.9 4.2-12.2 9.7v.2c0 .2.2.3.4.4h23.7c.2 0 .4-.2.4-.4l-.1-.2zm-1.1 4.8H35.6c-.2 0-.4.2-.4.4v12.8c0 .2.2.4.4.4h22.1c.2 0 .4-.2.4-.4V30.5c0-.2-.2-.4-.4-.4zM42.3 42h-3.8V31.8h3.8V42zm6.4 0h-3.8V31.8h3.8V42zm6.4 0h-3.8V31.8h3.8V42zm-8.5-28V9.4h1.1s1.1-.1 1.9.5c.8.6 1.4 1.1 2.7 1.1H54v4.5h-1.8s-1.2 0-2-.7c-.4-.3-.9-.7-2.3-.8-1.4-.1-1.3 0-1.3 0z"/>
  <path class="st2" d="M15.2 40.1h3.7v3.8h-3.7z"/>
  <path class="st1" d="M29 36.4H12.2c-.1 0-.1.1-.1.1v11.1c0 .1.1.1.1.1h9.7v-7.4h4v7.4H29c.1 0 .1-.1.1-.1L29 36.4c.1 0 0 0 0 0zm-10.1 7.5h-3.7v-3.8h3.7v3.8z"/>
  <path d="M11.1 35.5c-.1 0-.1 0 0 0" fill="none" stroke="#fff" stroke-width="0" stroke-linecap="round" stroke-linejoin="round"/>
  <path class="st1" d="M20.6 26.9c-.2-.2-.2-.2-.3-.2s-.2.1-.2.1l-.1.1-9 8.4c-.1.1-.1.1.1.2h19.1c.1 0 .1 0 .1-.1v-.1l-9.7-8.4zm58.6 17.9v2.8c0 .1 0 .1.1.1h1.3c.1 0 .1 0 .1-.1v-2.8c2-.4 3.4-2.2 3.3-4.2 0-2.5-1.9-6.6-4.2-6.6s-4.1 4.1-4.1 6.6c-.2 2 1.3 3.8 3.5 4.2zm-6.9-27.7h-.6v-2c.3-.1.6-.4.6-.8s-.3-.8-.8-.8-.8.3-.8.8c0 .3.2.6.6.8v2h-7.7c-.1 0-.2.1-.2.2v30.1c0 .1.1.2.2.2h8.8c.1 0 .2-.1.2-.2V17.3c-.1-.1-.2-.2-.3-.2zm-5.3 27c0 .1-.1.1-.1.1h-2c-.1 0-.1-.1-.1-.1v-2.2c0-.1.1-.1.1-.1h2c.1 0 .1.1.1.1v2.2zm0-5.2c0 .1-.1.1-.1.1h-2c-.1 0-.1-.1-.1-.1v-2.2c0-.1.1-.1.1-.1h2c.1 0 .1.1.1.1v2.2zm0-5.1c0 .1-.1.1-.1.1h-2c-.1 0-.1-.1-.1-.1v-2.2c0-.1.1-.1.1-.1h2c.1 0 .1.1.1.1v2.2zm0-5.2c0 .1-.1.1-.1.1h-2c-.1 0-.1-.1-.1-.1v-2.2c0-.1.1-.1.1-.1h2c.1 0 .1.1.1.1v2.2zm0-5.1c0 .1-.1.1-.1.1h-2c-.1 0-.1-.1-.1-.1v-2.2c0-.1.1-.1.1-.1h2c.1 0 .1.1.1.1v2.2zm4 20.6c0 .1-.1.1-.1.1h-2c-.1 0-.1-.1-.1-.1v-2.2c0-.1.1-.1.1-.1h2c.1 0 .1.1.1.1v2.2zm0-5.2c0 .1-.1.1-.1.1h-2c-.1 0-.1-.1-.1-.1v-2.2c0-.1.1-.1.1-.1h2c.1 0 .1.1.1.1v2.2zm0-5.1c0 .1-.1.1-.1.1h-2c-.1 0-.1-.1-.1-.1v-2.2c0-.1.1-.1.1-.1h2c.1 0 .1.1.1.1v2.2zm0-5.2c0 .1-.1.1-.1.1h-2c-.1 0-.1-.1-.1-.1v-2.2c0-.1.1-.1.1-.1h2c.1 0 .1.1.1.1v2.2zm0-5.1c0 .1-.1.1-.1.1h-2c-.1 0-.1-.1-.1-.1v-2.2c0-.1.1-.1.1-.1h2c.1 0 .1.1.1.1v2.2z"/>
  <path class="st2" d="M53.3 67.4l-.7.9h7.8l-.7-.9z"/>
  <path class="st1" d="M61.2 67.2c1-.4 1.6-1.3 1.6-2.3l-.6-8.4c0-1.4-1.1-2.5-2.5-2.5h-6.4c-1.4 0-2.5 1.1-2.5 2.5l-.6 8.4c0 1.1.7 2 1.6 2.3L49.7 70h1.6l.6-.8h9.3l.6.8h1.6l-2.2-2.8zm-9-10.8c0-.2.2-.4.4-.4h7.9c.2 0 .4.2.4.4l.3 3.6c0 .2-.1.4-.3.4h-8.6c-.2 0-.3-.2-.3-.4l.2-3.6zm-.4 7.6c0-.6.5-1 1-1s1 .5 1 1a1 1 0 0 1-2 0zm.8 4.3l.7-.9h6.5l.7.9h-7.9zm7.6-3.2a1 1 0 0 1 0-2c.6 0 1 .5 1 1 .1.5-.4 1-1 1zm-13.1-8.8h-1.9c0-.6.1-1-.6-1H34.3c-.7 0-.6.5-.6 1h-1.9c-.1 0-.2.1-.2.2v2.4c0 .1.1.2.2.2h1.1c.1 0 .2-.1.2-.2v-1.6h.6l-.5 7.3v3.6h.5v1.1c0 .3.3.6.6.6h.6c.3 0 .6-.3.6-.6v-1.1h8.3v1.1c0 .3.3.6.6.6h.6c.3 0 .6-.3.6-.6v-1.1h.5v-3.6l-.5-7.3h.6v1.6c0 .1.1.2.2.2h1.1c.1 0 .2-.1.2-.2v-2.4c-.4-.1-.5-.2-.6-.2zM35 57c0-.3.3-.5.6-.5h7.7c.3 0 .6.2.6.5l.6 5.7c0 .3-.3.5-.6.5H35c-.3 0-.6-.2-.6-.5L35 57zm.3 10c-.6 0-1-.4-1-1s.4-1 1-1 1 .4 1 1c0 .5-.4 1-1 1zm6.2-.1h-4.1v-.6h4.1v.6zm0-1.3h-4.1V65h4.1v.6zm2 1.4c-.6 0-1-.4-1-1s.4-1 1-1 1 .4 1 1c0 .5-.4 1-1 1zm14.4 12.6h2.4v2h-2.4zm4.9 0h2.4v2h-2.4zm-9.7 0h2.4v2h-2.4zm14.5 0H70v2h-2.4zm4.9 0h2.4v2h-2.4z"/>
  <circle class="st0" cx="14.4" cy="80.6" r="2"/>
  <path class="st0" d="M49.4 80.6a2 2 0 0 0-2-2c-1.1 0-2 .9-2 2s.9 2 2 2c1.1-.1 2-.9 2-2z"/>
  <path class="st1" d="M47.4 76.5c-1.9 0-3.5 1.3-3.9 3.1H18.3c-.4-1.7-2-3.1-3.9-3.1-2.2 0-4.1 1.8-4.1 4.1 0 2.2 1.8 4.1 4.1 4.1 1.9 0 3.5-1.3 3.9-3.1h25.2c.4 1.7 2 3.1 3.9 3.1 2.2 0 4.1-1.8 4.1-4.1s-1.8-4.1-4.1-4.1zm-33 6c-1.1 0-2-.9-2-2s.9-2 2-2 2 .9 2 2-.9 2-2 2zm33 0c-1.1 0-2-.9-2-2s.9-2 2-2 2 .9 2 2-.9 2-2 2z"/>
  <circle class="st0" cx="80.5" cy="80.6" r="2"/>
  <path class="st1" d="M80.5 76.5c-2.2 0-4.1 1.8-4.1 4.1 0 2.2 1.8 4.1 4.1 4.1 2.2 0 4.1-1.8 4.1-4.1-.1-2.3-1.9-4.1-4.1-4.1zm0 6c-1.1 0-2-.9-2-2s.9-2 2-2 2 .9 2 2-.9 2-2 2z"/>
</svg>
