<svg id="TARGETS" xmlns="http://www.w3.org/2000/svg" viewBox="0 0 94.85 94.85" width="94.85" height="94.85"><defs><style>.cls-1{fill:#56c02b}.cls-2{fill:#fff}</style></defs><title>Goal_15_RGB_NG</title><path class="cls-1" d="M0 0h94.85v94.85H0z"/><path class="cls-2" d="M31.48 24.74l15.29 5.81 4.83-4.33 7.51 10.34 6.96-9.94L84.99 54.8h2.5l-.72-1.2-20.66-30.79-7.03 10.04L40.9 7.84 7.36 54.83H10l21.48-30.09z"/><path class="cls-2" d="M44 60.75h1.22a.09.09 0 0 0 .09-.09V58h2.93a.18.18 0 0 0 .19-.19.19.19 0 0 0 0-.08l-3.54-11.61a.19.19 0 0 0-.18-.11.18.18 0 0 0-.16.08l-.05.08-3.62 11.49a.21.21 0 0 0 0 .11.19.19 0 0 0 .12.23h2.9v2.7a.09.09 0 0 0 .1.05zM34.72 60.75h1.22a.09.09 0 0 0 .09-.09V58H39a.19.19 0 0 0 .2-.19.19.19 0 0 0 0-.08l-3.62-11.61a.19.19 0 0 0-.18-.11.21.21 0 0 0-.17.08v.08l-3.6 11.53a.2.2 0 0 0 0 .11.19.19 0 0 0 .18.19h2.91v2.7a.09.09 0 0 0 0 .05zM25.21 60.75h1.21a.09.09 0 0 0 .1-.09V58h2.92a.19.19 0 0 0 .2-.19v-.08l-3.57-11.61a.18.18 0 0 0-.17-.11.21.21 0 0 0-.17.08l-.05.08-3.62 11.49a.2.2 0 0 0 0 .11.19.19 0 0 0 .18.19h2.91v2.7a.09.09 0 0 0 .06.09zM72.77 52.6a2 2 0 1 0-2-2 2 2 0 0 0 2 2zM75.12 53.38h-4.7A2.68 2.68 0 0 0 68 56.05v5.57a.78.78 0 0 0 1.56 0v-4.79c0-.18 0-.42.38-.42s.27.24.28.4v14.34a1.12 1.12 0 1 0 2.24 0v-8.27a.3.3 0 0 1 .32-.33.31.31 0 0 1 .32.33v8.27a1.12 1.12 0 0 0 2.24 0V56.81c0-.16 0-.4.28-.4s.38.24.38.42v4.79a.78.78 0 0 0 1.56 0v-5.57a2.68 2.68 0 0 0-2.44-2.67zM60.71 53.53a1.91 1.91 0 1 0-1.9-1.9 1.9 1.9 0 0 0 1.9 1.9zM66.13 61.09l-1.59-5.15s-.56-1.49-1.81-1.49h-4c-1.25 0-1.81 1.49-1.81 1.49l-1.59 5.15s-.28.94.52 1.18 1-.69 1-.69l1.28-4.3s.07-.33.31-.25.16.42.16.42l-2.22 8.06h2.06v5.77a1 1 0 0 0 2 0v-5.77H61v5.77a1 1 0 0 0 2 0v-5.77h2l-2.22-8.06s-.09-.35.16-.42.31.25.31.25l1.28 4.3s.24.93 1 .69.6-1.18.6-1.18zM87.2 79.46h-.1l-.24.13c-2.54 1.27-10.41 4.28-17.54-2.46-.07-.07-.26-.25-.42-.25a.8.8 0 0 0-.39.23c-2.12 1.63-11.9 8.22-20.59.12l-.13-.13a.48.48 0 0 0-.35-.14.48.48 0 0 0-.34.14l-.14.13c-8.69 8.1-18.47 1.5-20.58-.12-.12-.1-.19-.2-.4-.2a.7.7 0 0 0-.42.22c-7.13 6.74-15 3.73-17.53 2.46l-.25-.13h-.09a.48.48 0 0 0-.49.54v3.41a.48.48 0 0 0 .13.34c8.25 7.17 16.07.47 17.86-1.31a1 1 0 0 1 .18-.16.29.29 0 0 1 .22-.07.5.5 0 0 1 .35.15c9.32 8.88 19.08 1.69 21.11 0l.2-.18a.28.28 0 0 1 .19-.08c.11 0 .13 0 .19.08l.21.18c2 1.69 11.79 8.88 21.1 0a.49.49 0 0 1 .33-.13.51.51 0 0 1 .27.09.35.35 0 0 1 .13.14c1.81 1.77 9.61 8.48 17.86 1.31a.45.45 0 0 0 .15-.34V80a.5.5 0 0 0-.5-.49"/><rect class="cls-2" x="7.18" y="67.85" width="45.6" height="4.4" rx=".53" ry=".53"/></svg>