<svg id="TARGETS" xmlns="http://www.w3.org/2000/svg" viewBox="0 0 94.85 94.85" width="94.85" height="94.85"><defs><style>.cls-1{fill:#ff3a21}.cls-2{fill:#fff}</style></defs><title>Goal_5_RGB_NG</title><path class="cls-1" d="M0 0h94.85v94.85H0z"/><path class="cls-2" d="M86.22 69.46V46.89s.15-3-2.31-4.31a1.67 1.67 0 0 1-1.1-1.4c-.12-1.1.08-2.32-1.32-2.35s-1.21 1.25-1.33 2.35a1.67 1.67 0 0 1-1.09 1.4c-2.47 1.28-2.31 4.31-2.31 4.31v22.57a1.19 1.19 0 0 0 .24 2.36h9a1.19 1.19 0 0 0 .23-2.36zM69.81 39.46h-8.87a1 1 0 0 0-1 1v30.32a1 1 0 0 0 1 1h8.87a1 1 0 0 0 1-1V40.51a1 1 0 0 0-1-1.05zm-7.58 31a1 1 0 1 1 1-1 1 1 0 0 1-1 .97zm0-3.06a1 1 0 1 1 1-1 1 1 0 0 1-1 .97zm0-3.07a1 1 0 1 1 1-1 1 1 0 0 1-1 .97zm0-3.06a1 1 0 1 1 1-1 1 1 0 0 1-1 .97zm0-3.06a1 1 0 1 1 1-1 1 1 0 0 1-1 .97zm0-3.07a1 1 0 1 1 1-1 1 1 0 0 1-1 .97zm0-3.07a1 1 0 1 1 1-1 1 1 0 0 1-1 .93zm0-3.06a1 1 0 1 1 1-1 1 1 0 0 1-1 .99zm0-3.06a1 1 0 1 1 1-1.05 1 1 0 0 1-1 1.02zm0-3.07a1 1 0 1 1 1-1 1 1 0 0 1-1 .97zm3.4 27.32a.27.27 0 0 1-.54 0V44.35a.27.27 0 0 1 .54 0zm-.34-27.32a1 1 0 1 1 1-1 1 1 0 0 1-1 .97zm3.26 27.58a1 1 0 1 1 1-1 1 1 0 0 1-1 .97zm0-3.06a1 1 0 1 1 1-1 1 1 0 0 1-1 .97zm0-3.07a1 1 0 1 1 1-1 1 1 0 0 1-1 .97zm0-3.06a1 1 0 1 1 1-1 1 1 0 0 1-1 .97zm0-3.06a1 1 0 1 1 1-1 1 1 0 0 1-1 .97zm0-3.07a1 1 0 1 1 1-1 1 1 0 0 1-1 .97zm0-3.07a1 1 0 1 1 1-1 1 1 0 0 1-1 .93zm0-3.06a1 1 0 1 1 1-1 1 1 0 0 1-1 .99zm0-3.06a1 1 0 1 1 1-1.05 1 1 0 0 1-1 1.02zm0-3.07a1 1 0 1 1 1-1 1 1 0 0 1-1 .97zM44.18 33.88A3.86 3.86 0 1 0 40.33 30a3.85 3.85 0 0 0 3.85 3.88zM52 38.76s-1.14-3-3.68-3H40.1c-2.53 0-3.68 3-3.68 3l-3.2 10.43s-.58 1.91 1.05 2.39 2.1-1.39 2.1-1.39l2.63-8.7s.15-.67.65-.53.31.86.31.86l-4.54 16.32h4.18v11.68a2 2 0 0 0 4 0V58.14h1.13v11.68a2 2 0 0 0 4 0V58.14H53l-4.54-16.32s-.19-.71.31-.86.65.53.65.53l2.58 8.7s.49 1.87 2.1 1.39 1-2.39 1-2.39zm-4.52 14l-3.19 3.2L41 52.71a2.34 2.34 0 0 1-.66-1.64 2.18 2.18 0 0 1 2.12-2.33c.62 0 1.32.69 1.73 1.11a3.2 3.2 0 0 1 1.81-1.1 2.14 2.14 0 0 1 2.07 2.32 2.32 2.32 0 0 1-.66 1.64zM18.73 26.17A3.86 3.86 0 1 0 22.58 30a3.86 3.86 0 0 0-3.85-3.83zM29.7 49.19l-3.21-10.43s-1.14-3-3.68-3h-8.17c-2.53 0-3.68 3-3.68 3l-3.2 10.43s-.58 1.91 1.05 2.39 2.1-1.39 2.1-1.39l2.59-8.7s.14-.67.64-.53.32.86.32.86L10 58.14h4.18v11.68a2 2 0 0 0 4 0V58.14h1.12v11.68a2 2 0 0 0 4 0V58.14h4.2L23 41.82s-.2-.71.3-.86.65.53.65.53l2.58 8.7s.49 1.87 2.11 1.39 1.06-2.39 1.06-2.39zm-11 3.16a.66.66 0 1 1 0-1.32.66.66 0 0 1 0 1.32zm0-5.14a.66.66 0 1 1 .66-.66.67.67 0 0 1-.63.66zm0-5a.66.66 0 0 1-.66-.65.66.66 0 0 1 1.32 0 .66.66 0 0 1-.63.66z"/><path class="cls-2" d="M18.82 25.43a4.85 4.85 0 0 1 3.34 1.45l1.64-1.75a7.2 7.2 0 0 0-5-2.11 7.29 7.29 0 0 0-5.16 2.27l1.91 1.5a4.88 4.88 0 0 1 3.27-1.36z"/></svg>