<svg id="TARGETS" xmlns="http://www.w3.org/2000/svg" viewBox="0 0 94.85 94.85" width="94.85" height="94.85"><defs><style>.cls-1{fill:#fd9d24}.cls-2{fill:#fff}</style></defs><title>Goal_11_RGB_NG</title><path class="cls-1" d="M0 0h94.85v94.85H0z"/><path class="cls-2" d="M82.28 78.42a98.42 98.42 0 0 0-25.53 1.4c-1.57.3-3 .53-4.46.72-1.93-.73-2.2-2-2.13-2.35l.32-1.84a1.69 1.69 0 0 1 .48-.76c.73-.62 1.39-.46 2.48-.55a3 3 0 0 0 2-.71c.48-.4.83-.78.57-1.07s-.34-.27-.53-.26-.61.55-.81.65-.11-.08-.11-.08A2.33 2.33 0 0 1 55 72.4a.54.54 0 0 0 0-.81c-.76-.44-1.24 1.1-1.32 1.41s-.21 1-.54 1.07a13.67 13.67 0 0 0-1.58.17c-.22.09-.13-.08-.13-.08l2-2.68c.25-.35.12-.44 1.36-1a4.18 4.18 0 0 0 1.87-1.24c.38-.4.55-.66.17-1s-.93.37-1.22.67a1.09 1.09 0 0 1-.61.32 2.42 2.42 0 0 1 .44-1 .45.45 0 0 0-.08-.67c-.33-.29-.68.08-.68.08a3.37 3.37 0 0 0-.71 1.69c-.11.49-.59.71-.85.92a8.9 8.9 0 0 0-.89 1.13c-.13.18-1.05 1.16-1.05 1.16a4 4 0 0 1 .73-2.91c1-1.37 1.9-2.92 1.35-4.78 0 0-.3-.77-.86-.62s-.45.57-.33 1.06a3.21 3.21 0 0 1-.06 1.5 2.19 2.19 0 0 0-.31-.47 2.55 2.55 0 0 1-.7-1.42s-.27-.6-.72-.44-.54.52-.35 1.18c0 0 .74 1.7 1 2.26s.1.65-.07.86a5.47 5.47 0 0 0-.56.93c-.09.2-.11.17-.2-.1a13.13 13.13 0 0 0-.67-1.79c-.24-.37-.76-.84-.7-1.51a4.39 4.39 0 0 0-.21-2.41s-.28-.61-.82-.37a.61.61 0 0 0-.37.81 3.36 3.36 0 0 1 .16 1.43 1.41 1.41 0 0 1-.64-.66c-.25-.49-.66-1.6-1.27-1.34s-.5.66-.19 1.32a5.62 5.62 0 0 0 1.85 2.32c1.36 1.15 1.15 1.2 1.34 1.75L50 73.32s.05.25-.19 0a19.85 19.85 0 0 0-1.92-.85c-.41-.18-.28-1.14-.25-1.57s0-2.55-1.08-2.31a.72.72 0 0 0-.39 1 3 3 0 0 1 .13 1.66s0 .27-.17.06-.51-1.06-.75-1.15-.34-.15-.78.11-.16.89.29 1.57A4 4 0 0 0 47 73.59c1.33.55 1.19 1 1.86 2.13a2.17 2.17 0 0 1-.07 2.3 12.3 12.3 0 0 1-.64 1.24 3 3 0 0 1-1.51 1.37c-.45.2-.91.38-1.42.55-5.35.27-9.93.11-15.41.72-2.9.33-5.22.5-7.23.59a2.41 2.41 0 0 1 .5-2.26 1.58 1.58 0 0 1 1.78-.5c.42.1.7 1.24.91 1.68s.54.18.58-.09a4.34 4.34 0 0 0-.25-1c-.06-.28 0-.28.34-.22s.5.27.9.47.77.07.79-.31-.42-.42-.82-.55-.59-.19-.3-.5a.88.88 0 0 0 .29-.93c-.12-.29-.5-.36-.91.22s-.87.58-1 .22.68-1.3 1-1.83a2.19 2.19 0 0 1 1.54-.89c.62-.15.9-.15.89-.41s-.68-.22-1-.22a.41.41 0 0 1-.46-.49c0-.31.5-.67.88-1.1s.5-.6.27-.87-.69-.21-1.12.16a7.38 7.38 0 0 0-.86 1.1c-.18.19-.37-.17-.62-.47s-.59-.46-.76-.32 0 .38.29.7a2.08 2.08 0 0 1 .5 1.38 1.23 1.23 0 0 1-.76 1.18c-.25.06-.15-.68-.58-.72s-.5.48-.47 1.14-.73 1-1 .65a4.5 4.5 0 0 1-.64-2c0-.47.66-1 1.08-1.26s1.05-.36.67-.84-1.49.14-1.92.58-.62.3-.67.1a3.83 3.83 0 0 1 .07-1.62 2 2 0 0 1 1.56-1.3 2.73 2.73 0 0 1 1.65.72c.24.15.65.22.68-.11s-.65-.72-.94-.87-.45-.17-.37-.4.94-.57 1.23-.69.87-.36.52-.8-1.39.26-1.71.41-.24-.56-.28-.74 0-.78-.51-.78-.44.94-.47 1.43-.38.44-1 .89a10.11 10.11 0 0 0-1.28 1.17c-.21.15-.31-.35-.34-1.08a3 3 0 0 1 .4-1.66 4.75 4.75 0 0 1 1.34-1.06.29.29 0 1 0-.27-.51c-.37.18-.68.29-.9.11s.24-.8.51-1.31.29-1.1-.1-1.33-.89.34-1 .76-.39.49-.63.14-.49-.54-.62-.44-.27.23.07.68a2.44 2.44 0 0 1 .44 1.38c0 .43-.3.52-.56.32s-.68-.41-.78-.17.21.48.58.63.34.76.35 1.07-.08.49-.4.44a2.08 2.08 0 0 1-1.05-1.22 5.19 5.19 0 0 0-.1-.93c-.09-.2-.45-.09-.48.16a7.2 7.2 0 0 1 0 1c-.08.16-.52-.09-1-.31s-1 0-.95.28 1 .77 1.22.77.42.24.28.43-.62.54-.79.73.07.62.45.33a2.25 2.25 0 0 1 1.25-.66 1 1 0 0 1 .93.5c.07.19-.24.27-.6.41s-.51.35-.52.48.07.35.45.17a2.06 2.06 0 0 1 .89-.15c.36 0 .44.4.44.4.25.7 1.1 2.77 1.24 3.06s0 .57-.4.56-.91 0-.87.41.87.39 1.41.43.52.59.62 1.35-.84.83-1.28.44a10.82 10.82 0 0 1-1.82-2.14 1.17 1.17 0 0 1 .17-1.18c.17-.27.52-.24.71-.34a.38.38 0 0 0 .1-.56c-.14-.22-.6 0-.75.16s-.34.24-.34 0 .08-.8.08-1-.11-.49-.49-.35-.42 1.77-.38 2.38-.31.66-.53.59a3.17 3.17 0 0 1-1-1c-.16-.32-.11-.43.24-.94a2.28 2.28 0 0 0 .39-.68c.06-.23-.26-.3-.43-.08a1.3 1.3 0 0 1-.51.49c-.18 0-.08-.76-.09-.92s0-.4-.34-.38-.24.88-.24 1-.31.11-.7.07-.53.4-.16.42a1.63 1.63 0 0 1 .9.26 1.42 1.42 0 0 1 .09 1c-.08.21-.42 0-1 0s-1.16.06-1.19.41.43.72 1 .66 1.11-.07 1.22.1-.11.22-.33.43-.29.44-.15.63.51.14.78-.12a1.08 1.08 0 0 1 1-.35 2.42 2.42 0 0 1 1.38.62c.29.25.08.53-.25.64a3.73 3.73 0 0 0-1.09.55.74.74 0 0 1-1 0c-.28-.24-.67-.53-.85-.27s.2.6.36.74.28.12.13.41a3.57 3.57 0 0 1-.8.8.34.34 0 0 0 .3.59 4.17 4.17 0 0 0 1.05-.85c.1-.08.21-.27.29 0a2.84 2.84 0 0 1 0 .81c0 .19-.15.42.14.48a.33.33 0 0 0 .38-.17 5.51 5.51 0 0 0 .05-.74 1.46 1.46 0 0 1 .42-1.16c.38-.41 1.24-.24 1.76-.24s.58.41.55.74-.66.63-.85.77-.69.22-.53.58.31.25.53.25.79-.64 1.21-.69.74 0 1.07.88a8.75 8.75 0 0 1 .35 1.07c-3.29.08-5.8-.06-8.92 0-3.82 0-4.75 1-4.78 1.58v.75c0 .63.34.93 1.17.93h78.25c.71 0 1.17-.21 1.17-.88v-4.04c.01-2.02-.03-1.92-5.47-2.5z"/><path class="cls-2" d="M85.19 74.66a4.23 4.23 0 0 1 0-4.92v-.07a.07.07 0 0 0-.07-.06 3.53 3.53 0 0 0-2.56 1.88s-2.24-1.89-4.33-1.89c-2.41 0-4.12 2.19-4.39 2.55.27.36 2 2.55 4.39 2.55 2.09 0 4.33-1.9 4.33-1.9a3.56 3.56 0 0 0 2.57 1.89.07.07 0 0 0 .07-.07zm-8.31-2.19a.7.7 0 1 1 .7-.7.7.7 0 0 1-.7.7zM38.49 76.24s1.6-1.07 1.68-1.11.44-.15.36-.42-.42-.21-.42-.21h-2.26c-.39 0-.44-.43-.44-.43a6.18 6.18 0 0 0-.68-1.87c-.17-.28-.28-.32-.42-.27s-.19.1-.19.36a8.34 8.34 0 0 1-.35 1.71c-.18.5-.37.51-.82.49s-1.67 0-1.67 0a1.37 1.37 0 0 0-.35 0 .28.28 0 0 0-.15.52c.26.19 1.55.9 1.86 1.12a.61.61 0 0 1 .28.62c0 .11-.7 1.71-.84 2s.08.39.08.39c.25.14.5-.13.5-.13a16.72 16.72 0 0 0 1.69-1.28.39.39 0 0 1 .54 0 13.41 13.41 0 0 0 1.72 1.37.32.32 0 0 0 .41 0c.18-.12 0-.39 0-.39s-.55-1.63-.69-2 .16-.47.16-.47zM65.33 71.79a.63.63 0 1 0-.63.63.63.63 0 0 0 .63-.63zM69.32 67.52A1.47 1.47 0 1 0 67.85 69a1.47 1.47 0 0 0 1.47-1.48zM55.29 19.81l7.66 2.91 2.14-1.91 3.84 5.28 3.48-4.97 9.24 13.77h3.28l-.45-.76-12.04-17.56-3.54 5.06-9.13-12.55-18.7 25.82h3.45l10.77-15.09z"/><path class="cls-2" d="M70.12 40.5h1a.08.08 0 0 0 .08-.08V38.1h2.51a.16.16 0 0 0 .17-.17.13.13 0 0 0 0-.06l-3-9.94a.15.15 0 0 0-.15-.1.16.16 0 0 0-.14.08v.06l-3.09 9.91a.17.17 0 0 0 0 .1.16.16 0 0 0 .16.16H70v2.32a.08.08 0 0 0 .12.04zM62.13 40.5h1a.07.07 0 0 0 .08-.08V38.1h2.52a.17.17 0 0 0 .17-.17.14.14 0 0 0 0-.06l-3.05-9.94a.18.18 0 0 0-.16-.1.16.16 0 0 0-.14.08v.06l-3.08 9.91a.17.17 0 0 0 0 .1.16.16 0 0 0 .16.16h2.49v2.32a.07.07 0 0 0 .01.04zM54 40.5h1a.07.07 0 0 0 .08-.08V38.1h2.51a.16.16 0 0 0 .17-.17.13.13 0 0 0 0-.06l-3-9.94a.15.15 0 0 0-.15-.1.16.16 0 0 0-.14.08v.06l-3.09 9.91a.17.17 0 0 0 0 .1.16.16 0 0 0 .16.16h2.5v2.32a.07.07 0 0 0-.04.04zM60.58 64.08a.64.64 0 0 0-.63-.63.63.63 0 0 0-.63.63.63.63 0 0 0 .63.63.63.63 0 0 0 .63-.63zM13.08 31.28v-8.49h.07a.34.34 0 0 0 .34-.34v-1.34H10v1.34a.34.34 0 0 0 .34.34h.07v8.49zM20.88 31.28v-8.49H21a.34.34 0 0 0 .34-.34v-1.34h-3.5v1.34a.34.34 0 0 0 .33.34h.07v8.49zM28.68 31.28v-8.49h.07a.34.34 0 0 0 .34-.34v-1.34h-3.5v1.34a.34.34 0 0 0 .34.34H26v8.49zM36.49 31.28v-8.49h.07a.34.34 0 0 0 .34-.34v-1.34h-3.51v1.34a.34.34 0 0 0 .34.34h.07v8.49zM8.25 35h29.62v-1.44h-1v-1.32a.17.17 0 0 0-.19-.15H9.46a.18.18 0 0 0-.19.15v1.32h-1zM7.79 18.58h30.88l.62-.62a.45.45 0 0 0-.1-.71l-16-6-15.95 6a.45.45 0 0 0-.11.71zM36.9 19.4H9.07v.76H36.9v-.76z"/><rect class="cls-2" x="6.85" y="43.79" width="81.18" height="3.75" rx=".57" ry=".57"/><path class="cls-2" d="M87.24 52.84h-.1l-.24.16c-2.54 1.27-10.41 4.29-17.55-2.46-.06-.07-.25-.25-.41-.24a.71.71 0 0 0-.39.22c-2.12 1.63-11.9 8.23-20.59.12l-.13-.13a.48.48 0 0 0-.35-.14.46.46 0 0 0-.34.14l-.14.13c-8.69 8.11-18.47 1.51-20.59-.12-.12-.09-.18-.2-.4-.19a.62.62 0 0 0-.41.21c-7.14 6.75-15 3.73-17.54 2.46l-.25-.12h-.09a.48.48 0 0 0-.49.48V56a.5.5 0 0 0 .14.34c8.25 7.17 16.06.47 17.86-1.32a1.08 1.08 0 0 1 .18-.16.41.41 0 0 1 .22-.07.57.57 0 0 1 .35.16c9.31 8.88 19.08 1.68 21.11 0l.2-.19a.3.3 0 0 1 .19-.07c.11 0 .13 0 .19.07l.21.19c2 1.68 11.79 8.88 21.1 0a.45.45 0 0 1 .33-.14.52.52 0 0 1 .27.1.33.33 0 0 1 .13.13c1.81 1.78 9.6 8.49 17.86 1.32a.5.5 0 0 0 .14-.34v-2.7a.48.48 0 0 0-.49-.48"/></svg>