<svg id="TARGETS" xmlns="http://www.w3.org/2000/svg" viewBox="0 0 94.85 94.85" width="94.85" height="94.85"><defs><style>.cls-1{fill:#dda63a}.cls-2{fill:#fff}</style></defs><title>Template_Goal_2_RGB_NG</title><path class="cls-1" d="M0 0h94.85v94.85H0z"/><path class="cls-2" d="M33.09 24.3s2.2-1.15 2.2-2.61c0-1.76-2.17-4-2.17-4S31 20 31 21.69c0 1.42 1.61 2.31 2.09 2.61zM29.56 26.84s.54.71 3.12 1.12c0 0 .27-2.47-.68-3.49 0 0-.47-.75-3.73-2.61 0 0-.37 3.83 1.29 4.98zM29.32 32s.59.78 3.36 1.22c0 0 .29-2.7-.73-3.8 0 0-.51-.82-4-2.85-.01 0-.41 4.17 1.37 5.43zM28 32s-.6 4.51 1.19 5.76c0 0 .72.85 3.49 1.29 0 0 .41-2.76-.61-3.86 0 0-.57-1.19-4.07-3.19zM31.94 40.58s-.92-1.22-4.51-3.12c0 0-.3 4.68 1.49 5.93 0 0 .92.88 3.69 1.33 0 0 .39-3.03-.67-4.14zM34.2 24.47c-1 1-.68 3.49-.68 3.49 2.58-.41 3.12-1.12 3.12-1.12 1.67-1.15 1.29-5 1.29-5-3.25 1.88-3.73 2.63-3.73 2.63zM34.26 29.42c-1 1.1-.73 3.8-.73 3.8 2.77-.44 3.35-1.22 3.35-1.22 1.79-1.26 1.39-5.43 1.39-5.43-3.5 2.03-4.01 2.85-4.01 2.85zM34.14 35.19c-1 1.1-.61 3.86-.61 3.86 2.77-.44 3.47-1.29 3.47-1.29 1.8-1.25 1.21-5.76 1.21-5.76-3.51 2-4.07 3.19-4.07 3.19zM34.27 40.58c-1 1.11-.68 4.14-.68 4.14 2.78-.45 3.7-1.33 3.7-1.33 1.79-1.25 1.49-5.93 1.49-5.93-3.59 1.9-4.51 3.12-4.51 3.12zM32.48 45.43h1.22v7.38h-1.22zM29.18 13.54a.4.4 0 0 0-.41-.4.41.41 0 0 0-.41.4v7.56l.82.48zM30.85 19.28v-7a.41.41 0 0 0-.81 0v9.06a10.7 10.7 0 0 1 .81-2.06zM32.57 10.15a.41.41 0 1 0-.81 0V18c.29-.41.59-.82.81-1.11zM37.86 13.54a.41.41 0 0 0-.81 0v8l.81-.48zM36.19 21.27v-9a.41.41 0 0 0-.82 0v7.05a10.78 10.78 0 0 1 .82 2zM34.47 10.15a.41.41 0 0 0-.41-.41.42.42 0 0 0-.41.41v6.72l.82 1.13zM47.63 24.3s2.2-1.16 2.2-2.61c0-1.77-2.17-4-2.17-4s-2.17 2.31-2.17 4c0 1.42 1.67 2.31 2.14 2.61zM44.1 26.84s.55.71 3.12 1.12c0 0 .28-2.48-.67-3.49 0 0-.48-.75-3.73-2.62 0 0-.38 3.84 1.28 4.99zM43.87 32s.58.77 3.35 1.22c0 0 .29-2.7-.73-3.81 0 0-.51-.81-4-2.84-.01 0-.41 4.17 1.38 5.43zM42.54 32s-.6 4.51 1.19 5.77c0 0 .72.84 3.49 1.29 0 0 .41-2.76-.61-3.87 0-.01-.56-1.19-4.07-3.19zM46.48 40.57s-.92-1.22-4.51-3.12c0 0-.3 4.68 1.49 5.94 0 0 .92.88 3.7 1.32 0 0 .34-3.03-.68-4.14zM48.74 24.47c-1 1-.67 3.49-.67 3.49 2.57-.41 3.12-1.12 3.12-1.12 1.66-1.15 1.28-5 1.28-5-3.25 1.88-3.73 2.63-3.73 2.63zM48.8 29.41c-1 1.11-.73 3.81-.73 3.81 2.77-.45 3.35-1.22 3.35-1.22 1.79-1.26 1.39-5.43 1.39-5.43-3.5 2.03-4.01 2.84-4.01 2.84zM51.56 37.76C53.35 36.5 52.75 32 52.75 32c-3.51 2-4.07 3.19-4.07 3.19-1 1.11-.61 3.87-.61 3.87 2.77-.46 3.49-1.3 3.49-1.3zM48.81 40.57c-1 1.11-.68 4.14-.68 4.14 2.78-.44 3.7-1.32 3.7-1.32 1.79-1.26 1.49-5.94 1.49-5.94-3.59 1.9-4.51 3.12-4.51 3.12zM47.02 45.42h1.22v7.38h-1.22zM43.72 13.54a.41.41 0 1 0-.81 0v7.56l.81.47zM45.39 19.27v-7a.41.41 0 1 0-.81 0v9a11.26 11.26 0 0 1 .81-2zM47.11 10.15a.41.41 0 1 0-.81 0V18c.29-.41.59-.81.81-1.1zM52.4 13.54a.41.41 0 1 0-.81 0v8l.81-.47zM50.73 21.27v-9a.41.41 0 0 0-.41-.41.41.41 0 0 0-.41.41v7a10.65 10.65 0 0 1 .82 2zM49 10.15a.41.41 0 1 0-.81 0v6.72L49 18zM61.73 24.41s2.2-1.15 2.2-2.61c0-1.76-2.17-4-2.17-4s-2.17 2.31-2.17 4c0 1.43 1.67 2.31 2.14 2.61zM58.2 27s.55.71 3.12 1.12c0 0 .28-2.48-.67-3.49 0 0-.48-.75-3.73-2.62 0-.01-.38 3.79 1.28 4.99zM58 32.12s.59.77 3.36 1.21c0 0 .29-2.69-.73-3.8 0 0-.51-.81-4-2.84-.05 0-.45 4.17 1.37 5.43zM56.64 32.11s-.6 4.51 1.19 5.77c0 0 .72.84 3.49 1.29 0 0 .41-2.76-.61-3.87 0 0-.56-1.16-4.07-3.19zM57.56 43.51s.92.88 3.7 1.32c0 0 .34-3-.68-4.14 0 0-.92-1.22-4.51-3.12 0 0-.3 4.68 1.49 5.94zM62.84 24.59c-1 1-.67 3.49-.67 3.49 2.57-.41 3.12-1.12 3.12-1.12 1.66-1.16 1.28-5 1.28-5-3.25 1.88-3.73 2.63-3.73 2.63zM62.9 29.53c-1 1.11-.73 3.8-.73 3.8 2.77-.44 3.35-1.21 3.35-1.21 1.79-1.26 1.39-5.43 1.39-5.43-3.5 2.03-4.01 2.84-4.01 2.84zM65.66 37.88c1.79-1.26 1.19-5.77 1.19-5.77-3.51 2-4.07 3.19-4.07 3.19-1 1.11-.61 3.87-.61 3.87 2.77-.45 3.49-1.29 3.49-1.29zM62.91 40.69c-1 1.11-.68 4.14-.68 4.14 2.78-.44 3.7-1.32 3.7-1.32 1.79-1.26 1.49-5.94 1.49-5.94-3.59 1.9-4.51 3.12-4.51 3.12zM61.12 45.54h1.22v7.38h-1.22zM57.82 13.66a.41.41 0 1 0-.81 0v7.56l.81.47zM59.49 19.39v-7a.41.41 0 1 0-.81 0v9a11.26 11.26 0 0 1 .81-2zM61.21 10.27a.41.41 0 1 0-.81 0v7.82c.29-.41.59-.81.81-1.11zM66.5 13.66a.41.41 0 1 0-.81 0v8l.81-.47zM64.83 21.39v-9a.41.41 0 0 0-.41-.41.41.41 0 0 0-.41.41v7a10.65 10.65 0 0 1 .82 2zM63.11 10.27a.41.41 0 1 0-.81 0V17c.21.3.51.7.81 1.11zM67.33 66.06l-7.25 5.7a.35.35 0 0 1-.3.08c-.17 0-.22-.14-.22-.35V68.6H29.81a.27.27 0 0 1-.25-.29v-5a.28.28 0 0 1 .25-.31h29.75v-2.83c0-.22.06-.32.22-.36a.4.4 0 0 1 .31.08l7.2 5.49a.41.41 0 0 1 .21.38.38.38 0 0 1-.17.3zM27.72 80.23l7.28 5.7a.38.38 0 0 0 .3.08c.17 0 .22-.14.22-.35v-2.89h29.72a.27.27 0 0 0 .25-.3v-5a.28.28 0 0 0-.25-.3H35.49v-2.84c0-.21-.06-.31-.22-.35a.36.36 0 0 0-.31.08l-7.2 5.48a.43.43 0 0 0-.21.39c.01.07.05.18.17.3z"/></svg>