<svg id="TARGETS" xmlns="http://www.w3.org/2000/svg" viewBox="0 0 94.85 94.85" width="94.85" height="94.85"><defs><style>.cls-1{fill:#fd6925}.cls-2{fill:#fff}</style></defs><title>Goal_9_RGB_NG</title><path class="cls-1" d="M0 0h94.85v94.85H0z"/><path class="cls-2" d="M61.77 47.46L55 43.52v-7.88a.47.47 0 0 0-.24-.41l-7.05-4.07a.49.49 0 0 0-.47 0l-7.06 4.07a.49.49 0 0 0-.23.41v7.88l-6.83 3.94a.47.47 0 0 0-.23.4V56a.49.49 0 0 0 .23.41l7.06 4.07a.46.46 0 0 0 .23.06.48.48 0 0 0 .24-.06l6.82-3.94 6.83 3.94a.47.47 0 0 0 .46 0l7.06-4.07A.47.47 0 0 0 62 56v-8.14a.46.46 0 0 0-.23-.4zM47 55.21l-5.7-3.27 5.7-3.27zm6.59-11.42l-5.66 3.27v-6.54zM47 47.06l-5.7-3.27 5.7-3.27zm1.4.8l6.12-3.53 6.13 3.53-6.17 3.54zM54 43l-5.66-3.27L54 36.44zm-7.53-3.27L40.83 43v-6.56zM39.9 59.28l-6.13-3.53v-7.08l6.13 3.54zm.93 0v-6.53L46.49 56zm20.25-3.53L55 59.28v-7.07l6.13-3.54zM29.2 36.73a22.06 22.06 0 0 1 3.36-4.32l-11-12.07a37.85 37.85 0 0 0-7 9.1zM56.2 28.2a21 21 0 0 1 4.62 2.9L71.86 19a37.43 37.43 0 0 0-9.78-6.11zM81.49 31.83l-14.63 7.3a21 21 0 0 1 1.46 5.17l16.29-1.53a37 37 0 0 0-3.12-10.94M65.81 37l14.63-7.3a37.35 37.35 0 0 0-6.84-9.08l-11 12A21.51 21.51 0 0 1 65.81 37M26.3 47.42v-1L10 45v2.42a37.59 37.59 0 0 0 1.11 9.06L26.79 52a21.19 21.19 0 0 1-.49-4.54M63.76 60.8a21.64 21.64 0 0 1-4 3.74l8.59 13.92a37.53 37.53 0 0 0 8.43-7.82zM68.55 47.42a21.44 21.44 0 0 1-.48 4.49l15.72 4.52a37.24 37.24 0 0 0 1.1-9c0-.77 0-1.54-.07-2.3l-16.28 1.53v.76M31.35 61.12L18.34 71a37.55 37.55 0 0 0 8.5 7.7l8.59-13.9a22 22 0 0 1-4.08-3.68M26.56 44.08a20.49 20.49 0 0 1 1.56-5.24l-14.63-7.29a37 37 0 0 0-3.23 11.07zM66.38 79.72l-8.58-13.9a20.89 20.89 0 0 1-5 2l3 16.09a37.3 37.3 0 0 0 10.56-4.22M67.44 54.19a21.17 21.17 0 0 1-2.29 4.71l13.06 9.85a37.49 37.49 0 0 0 5-10zM50.47 68.32a20.36 20.36 0 0 1-3 .23A22.25 22.25 0 0 1 45 68.4l-3 16.08a37 37 0 0 0 11.56-.09zM48.77 26.33a21 21 0 0 1 5.23 1l5.88-15.26A37.23 37.23 0 0 0 48.77 10zM42.64 68a20.91 20.91 0 0 1-5.19-2l-8.6 14a37.16 37.16 0 0 0 10.76 4.12zM41.07 27.27a20.55 20.55 0 0 1 5.34-.95V10a37.41 37.41 0 0 0-11.25 2zM29.92 59.24a21.23 21.23 0 0 1-2.49-5l-15.72 4.51a37.27 37.27 0 0 0 5.19 10.38zM34.33 30.85a21.07 21.07 0 0 1 4.53-2.75L33 12.86a37.42 37.42 0 0 0-9.64 5.9z"/></svg>