<svg id="TARGETS" xmlns="http://www.w3.org/2000/svg" viewBox="0 0 94.85 94.85" width="94.85" height="94.85"><defs><style>.cls-1{fill:#a21942}.cls-2{fill:#fff}</style></defs><title>Goal_8_RGB_NG</title><path class="cls-1" d="M0 0h94.85v94.85H0z"/><path class="cls-2" d="M37 33.64a1 1 0 0 1-.81-.09 1.88 1.88 0 0 1-.77-.93l-.66-1.68a1.39 1.39 0 0 1 .47-1.82L38.09 28l-.66-1.68-2.86 1.12A2.89 2.89 0 0 0 32.84 30a2.7 2.7 0 0 0-.82-.3 2.89 2.89 0 0 0-2.18.44L27 32.07l1.32 1.28 2.53-1.71a1.09 1.09 0 0 1 .83-.17 1.07 1.07 0 0 1 .7.47l1.29 1.91a1 1 0 0 1 .17.82 1.09 1.09 0 0 1-.38.62 5.36 5.36 0 0 1 1.3 1.27 2.9 2.9 0 0 0 .79-1.34 2.85 2.85 0 0 0 1.16.27 2.74 2.74 0 0 0 .94-.17l3-1.19-.65-1.67zM16 54.62l-1 1.9a1.12 1.12 0 0 1-.64.55 1.14 1.14 0 0 1-.85-.06l-2-1a1.1 1.1 0 0 1-.5-1.48l1.9-3.78-1.23-1.55-2.32 4.48a2.86 2.86 0 0 0-.16 2.22 3.21 3.21 0 0 0 .33.67 2.76 2.76 0 0 0-.66.29 2.9 2.9 0 0 0-1.29 1.81l-1.21 5.21a2.91 2.91 0 0 0 2.18 3.48l2.25.52a2.82 2.82 0 0 0 .65.08 2.94 2.94 0 0 0 1.55-.45 2.85 2.85 0 0 0 1.29-1.81l1.2-5.2a2.87 2.87 0 0 0-.21-1.88 2.86 2.86 0 0 0 1.34-1.3l.57-1.15zm-2.22 5.47l-1.2 5.21a1.08 1.08 0 0 1-.58.7 1.1 1.1 0 0 1-.83.15L9 65.61a1.12 1.12 0 0 1-.69-.49 1.09 1.09 0 0 1-.14-.84l1.2-5.2a1.12 1.12 0 0 1 .49-.69 1.08 1.08 0 0 1 .84-.14l2.24.52a1.08 1.08 0 0 1 .69.49 1.15 1.15 0 0 1 .1.83z"/><path class="cls-2" transform="rotate(-53.71 48.562 18.1)" d="M44.68 16.93h7.76v2.34h-7.76z"/><path class="cls-2" transform="rotate(-15.08 39.155 16.06)" d="M37.97 12.18h2.34v7.76h-2.34z"/><path class="cls-2" transform="rotate(-66.28 32.317 22.039)" d="M31.15 18.16h2.34v7.76h-2.34z"/><path class="cls-2" d="M53.35 34.56c.34-.41.81-1 1.34-1.56l-1-.2a1.09 1.09 0 0 1-.7-.48 1.07 1.07 0 0 1-.17-.83l.46-2.26a1.11 1.11 0 0 1 1.08-.88h.22l3.84.78a7.65 7.65 0 0 1 .81-.66 3.63 3.63 0 0 1 1.61-.59 3 3 0 0 0-.66-.23l-5.24-1.06a2.89 2.89 0 0 0-2.48.66 2.83 2.83 0 0 0-1.86-1.31l-3.2-.64-.35 1.76 3.18.63a1 1 0 0 1 .68.48 1.39 1.39 0 0 1 .16 1l-.31 1.59a1.22 1.22 0 0 1-1.33 1l-3-.59-.37 1.83 3 .6a3.05 3.05 0 0 0 .52.05 2.83 2.83 0 0 0 1.74-.65 2.38 2.38 0 0 0 .17.31 2.89 2.89 0 0 0 1.84 1.24zM24.36 36.8a2.51 2.51 0 0 1 .55-.4 9.17 9.17 0 0 1 1.26-.4l1.19-.35.68-.2a1.12 1.12 0 0 0-.32-.63l-1.9-1.85a1.4 1.4 0 0 0-1-.35 2.16 2.16 0 0 0-1.46.66 2.06 2.06 0 0 0-.65 1.45 1.22 1.22 0 0 0 .37.91zM21.57 41.69a1.34 1.34 0 0 0 1 .39 2.28 2.28 0 0 0 2-1.67 1.91 1.91 0 0 1-.88-1.23.83.83 0 0 1 0-.15 3 3 0 0 1 0-.67l-3.49-3.72a1.29 1.29 0 0 0-1-.4 2.14 2.14 0 0 0-1.4.61 1.73 1.73 0 0 0-.38 2.38zM17.71 45.37a1.35 1.35 0 0 0 1 .39 2.16 2.16 0 0 0 1.4-.61 2.24 2.24 0 0 0 .69-1.26 1.32 1.32 0 0 0-.31-1.11L16.93 39a1.27 1.27 0 0 0-1-.4 2.14 2.14 0 0 0-1.4.61 2.18 2.18 0 0 0-.69 1.26 1.36 1.36 0 0 0 .31 1.12zM15.05 47.44a2.13 2.13 0 0 0 .7-1.44 1.28 1.28 0 0 0-.33-.94l-1.28-1.35a1.35 1.35 0 0 0-1-.38 2.14 2.14 0 0 0-1.4.61 2.08 2.08 0 0 0-.7 1.44 1.28 1.28 0 0 0 .33.94l1.27 1.35a1.34 1.34 0 0 0 1 .38 2.16 2.16 0 0 0 1.41-.61z"/><path class="cls-2" d="M31.45 49.79l.12-.24c1-2.2 3.88-7.12 4-7.34a2.46 2.46 0 0 0 .24-1 1.84 1.84 0 0 0-.12-.63c-.08-.14-.18-.34-.3-.58-.55-1.08-1.58-3.1-2.59-3.7a3 3 0 0 0-2.33-.3c-.2.06-1.51.42-2.77.79l-1.17.35a10.4 10.4 0 0 0-1.07.37 1.19 1.19 0 0 0-.58 1.35.85.85 0 0 0 .73.7l2.24.2h.31A2.1 2.1 0 0 1 30 41.84a1.22 1.22 0 0 1-.11.53l-1.44 3.28-1.09-.48 1.44-3.3a.91.91 0 0 0-.79-.94h-.2l-1.91-.18a3.88 3.88 0 0 1-1.05 1.66 3.72 3.72 0 0 1-2.41 1h-.25A3.6 3.6 0 0 1 21 46.07a3.73 3.73 0 0 1-2.41 1h-.09a2.53 2.53 0 0 1-1.5-.45 3.87 3.87 0 0 1-1.07 1.73 3.76 3.76 0 0 1-2.27 1l3.14 4.55A4.59 4.59 0 0 0 18 55c.22.26.54.64.78 1a4.8 4.8 0 0 1 .69 1.81C20.22 61.49 20.9 83 20.9 83h14.52s-3.98-22-5.06-28.8a5.3 5.3 0 0 1 .3-2.47c.22-.56.79-1.94.79-1.94z"/><g><path class="cls-2" d="M79.3 50.14a4.24 4.24 0 0 1-3.13-1.46 4.14 4.14 0 0 1-1-2.54 4.2 4.2 0 0 1-2.4.77h-.06a4.19 4.19 0 0 1-4-5.23h-.41a4.19 4.19 0 0 1-3.74-6l-2.39-.48-.64.44 2.48 6-.7.29-.69.28-2.95-7.14 2.18-1.49 5.29 1.06s1.24 0 1.51-.69-.59-1.66-1.11-2a11.39 11.39 0 0 0-1.35-.63l-1.48-.61a157.4 157.4 0 0 0-3.39-1.35c-.08 0-.48-.2-1.29.31A51.08 51.08 0 0 0 54.12 36c-.15.21-.39.53-.46.66 0 0 .06.1.09.2v.1l4.8 16 .25.85L52 83h17.73l3.93-26.8 6.23-6.11a4.75 4.75 0 0 1-.53 0zM66.77 30a10.73 10.73 0 0 1 1.58.75 3.91 3.91 0 0 1 .62.49l.67-.54a2.5 2.5 0 0 0 .36-3.49 2.55 2.55 0 0 0-1.92-.94 2.49 2.49 0 0 0-1.57.56l-2.55 2 1.33.54z"/><path class="cls-2" d="M70.12 34.36a1.07 1.07 0 0 1-.07.19c-.63 1.74-2.82 1.68-3.07 1.67h-.13l-.54-.1a2.49 2.49 0 0 0 2 3.91 2.49 2.49 0 0 0 1.69-.64L77.32 33a2.52 2.52 0 0 0 .85-1.71 2.52 2.52 0 0 0-2.47-2.68 2.5 2.5 0 0 0-1.65.62l-4 3.5a2.51 2.51 0 0 1 .07 1.63zM71.13 40.82a2.51 2.51 0 1 0 3.3 3.77l6.26-5.48a2.48 2.48 0 0 0 .24-3.53 2.53 2.53 0 0 0-1.85-.86 2.48 2.48 0 0 0-1.64.62zM83.49 42.37a2.49 2.49 0 0 0-1.86-.87 2.44 2.44 0 0 0-1.63.61L77.72 44a2.49 2.49 0 0 0-.86 1.71 2.46 2.46 0 0 0 .6 1.82 2.52 2.52 0 0 0 1.86.87 2.44 2.44 0 0 0 1.68-.57l2.24-1.93a2.5 2.5 0 0 0 .25-3.53z"/></g><path class="cls-2" d="M88.43 61.19l-1.42-6a2.89 2.89 0 0 0-2-2.11 2.92 2.92 0 0 0 .27-2.77l-1.19-2.78-1.35 1.42.87 2.05a1.09 1.09 0 0 1 0 .85 1.1 1.1 0 0 1-.59.61l-2.62 1.13A1.13 1.13 0 0 1 79 53v-.07l-1.29 1.35a2.81 2.81 0 0 0 1.17.93 2.89 2.89 0 0 0-.23 2l1.41 6a2.92 2.92 0 0 0 2.83 2.24 3.14 3.14 0 0 0 .67-.08l2.79-.65a2.91 2.91 0 0 0 2.08-3.53zm-1.89 1.25a1.08 1.08 0 0 1-.69.49l-2.79.66a1.11 1.11 0 0 1-1.32-.82l-1.42-6a1.1 1.1 0 0 1 .82-1.33l2.79-.66a1.11 1.11 0 0 1 1.33.82l1.42 6a1.15 1.15 0 0 1-.14.84z"/></svg>