<svg id="TARGETS" xmlns="http://www.w3.org/2000/svg" viewBox="0 0 94.85 94.85" width="94.85" height="94.85"><defs><style>.cls-1{fill:#fd6925}.cls-2{fill:#fff}</style></defs><title>Goal_9_RGB_NG</title><path class="cls-1" d="M0 0h94.85v94.85H0z"/><path class="cls-2" d="M65.1 66.49a11.44 11.44 0 0 0-6.9-2.27 7.81 7.81 0 0 0-1.67.16h-.17c-1.64.39-4.38 1-7.58 5l-.09.12a.41.41 0 0 0-.08.24.54.54 0 0 0 0 .21l.08.12c.52.88 1 1.64 1.31 2.29a.42.42 0 0 0 .68.1l.06-.08c2.76-3.82 4.92-4.33 6.35-4.66l.18-.05a4.87 4.87 0 0 1 .88-.07A8.15 8.15 0 0 1 63 69.17c1.6 1.27 2.42 3.29 2.42 6 0 4.56-2.21 6.34-4.06 7a6.34 6.34 0 0 1-2.27.4 8 8 0 0 1-3.39-.77l-.14-.07c-1.59-.69-4-2.13-6.22-6.65-4.61-9.26-8.48-10.14-11-10.72h-.13a8.15 8.15 0 0 0-1.66-.15 11 11 0 0 0-6.79 2.25C28 67.81 26 70.4 26 75.17a10.06 10.06 0 0 0 10.25 10.68 11.82 11.82 0 0 0 2.34-.23 10 10 0 0 0 4-1.82l1.35 1.2a.4.4 0 0 0 .55 0 .35.35 0 0 0 .09-.26l1.05-6.42v-.08a.37.37 0 0 0-.13-.24.39.39 0 0 0-.27-.1L39 79.58h-.12a.37.37 0 0 0-.2.12.39.39 0 0 0-.1.28.41.41 0 0 0 .13.27L40 81.44a6.24 6.24 0 0 1-2 .82 8.64 8.64 0 0 1-1.66.16A6.77 6.77 0 0 1 30.93 80a6.87 6.87 0 0 1-1.44-4.78c0-2.73.8-4.76 2.38-6a7.85 7.85 0 0 1 4.66-1.51 4.16 4.16 0 0 1 .89.08h.14c2 .46 4.85 1.1 8.73 8.91 2.06 4.12 4.63 6.81 7.87 8.24a11.6 11.6 0 0 0 5 1.14 9.77 9.77 0 0 0 3.46-.61c1.89-.7 6.29-3.11 6.29-10.24-.09-4.81-2.11-7.4-3.81-8.74zM31.42 11.59a3.72 3.72 0 1 0 3.8 3.63 3.73 3.73 0 0 0-3.8-3.63zM37.68 14.83h-1.63a.31.31 0 0 0-.28.31.32.32 0 0 0 .3.3h1.63a.31.31 0 0 0 .28-.31.32.32 0 0 0-.3-.3zM27.23 15.38a.31.31 0 0 0-.3-.3H25.3a.32.32 0 0 0-.27.32.31.31 0 0 0 .29.3h1.63a.31.31 0 0 0 .28-.32zM31.4 11a.32.32 0 0 0 .3-.3V9.07a.31.31 0 0 0-.31-.28.32.32 0 0 0-.3.3v1.63a.31.31 0 0 0 .31.28z"/><path class="cls-2" d="M31.6 19.55a.31.31 0 0 0-.3.29v1.63a.3.3 0 0 0 .31.28.31.31 0 0 0 .3-.29v-1.63a.31.31 0 0 0-.31-.28zM35.56 13.19l1.4-.85a.32.32 0 0 0 .09-.41.32.32 0 0 0-.41-.11l-1.39.84a.31.31 0 0 0-.09.41.32.32 0 0 0 .4.12zM27.44 17.37l-1.4.84a.32.32 0 0 0-.08.41.3.3 0 0 0 .4.12l1.39-.84a.31.31 0 0 0 .09-.41.3.3 0 0 0-.4-.12zM28.88 11.53a.31.31 0 0 0 .53-.31l-.84-1.4a.33.33 0 0 0-.42-.09.32.32 0 0 0-.11.41zM34.12 19a.32.32 0 0 0-.41-.08.29.29 0 0 0-.11.4l.84 1.4a.31.31 0 0 0 .41.08.31.31 0 0 0 .11-.4zM34 11.42l.73-1.42a.31.31 0 0 0-.13-.4.32.32 0 0 0-.41.11l-.78 1.43a.33.33 0 0 0 .13.4.32.32 0 0 0 .46-.12zM29.05 19.14l-.78 1.43a.31.31 0 0 0 .54.29l.78-1.43a.31.31 0 0 0-.54-.29zM27.35 13.37a.32.32 0 0 0 .4-.14.31.31 0 0 0-.11-.4l-1.43-.78a.31.31 0 0 0-.4.13.32.32 0 0 0 .11.41zM35.65 17.19a.31.31 0 0 0-.4.13.32.32 0 0 0 .11.41l1.43.78a.33.33 0 0 0 .4-.13.32.32 0 0 0-.11-.41z"/><g><path class="cls-2" d="M43.3 27.46l.61-4.16-1.46.58-.94-2.36a.52.52 0 0 0-.68-.29.53.53 0 0 0-.3.68l.94 2.36-1.47.58zM37.92 25.62l-1.47.58-.93-2.35a.53.53 0 0 0-.69-.3.52.52 0 0 0-.29.68l.93 2.36-1.47.58 3.3 2.62zM31.75 28.07l-1.46.58-.94-2.36a.53.53 0 0 0-1 .39L29.3 29l-1.46.58 3.3 2.61z"/></g><g><path class="cls-2" d="M74.28 23.43h-1v2.84h-5.42v-2.84h-1v2.84h-6.71l-39.22 13a.41.41 0 0 0-.41.41v19h2.14v-9.57a.37.37 0 0 1 .37-.37h6.55a.38.38 0 0 1 .37.37v9.57h30.26a.33.33 0 0 0 .32-.3v-3.94l6.38-.06v4.33h1v-4.28h5.45v4.33h1zM30 46a.37.37 0 0 1-.37.37h-6.55a.37.37 0 0 1-.37-.37v-3.56a.37.37 0 0 1 .37-.37h6.55a.37.37 0 0 1 .37.37zm9.46 6.65a.37.37 0 0 1-.37.37h-6.55a.37.37 0 0 1-.37-.37v-3.56a.37.37 0 0 1 .37-.37h6.55a.37.37 0 0 1 .37.37zm0-6.65a.37.37 0 0 1-.37.37h-6.55a.37.37 0 0 1-.37-.37v-3.56a.37.37 0 0 1 .37-.37h6.55a.37.37 0 0 1 .37.37zm9.46 6.65a.37.37 0 0 1-.37.37H42a.37.37 0 0 1-.37-.37v-3.56a.37.37 0 0 1 .37-.37h6.55a.37.37 0 0 1 .37.37zm0-6.65a.37.37 0 0 1-.37.37H42a.37.37 0 0 1-.37-.37v-3.56a.37.37 0 0 1 .37-.37h6.55a.37.37 0 0 1 .37.37zm9.46 6.65A.37.37 0 0 1 58 53h-6.54a.37.37 0 0 1-.37-.37v-3.54a.37.37 0 0 1 .37-.37H58a.37.37 0 0 1 .37.37zm0-6.65a.37.37 0 0 1-.37.37h-6.55a.37.37 0 0 1-.37-.37v-3.56a.37.37 0 0 1 .37-.37H58a.37.37 0 0 1 .37.37zm8.5-17.79v10.45l-2.4-5.22zm-5.32 11.67L64 34.57l2.42 5.26zm4.73.95L64 45.92l-2.34-5.09zm0-13.61L64 32.31l-2.34-5.09zm-5.73-.07l2.9 6.29-2.91 6.4zm0 13.68l2.87 6.22-2.93 6.42zm1 12.65l2.44-5.3 2.42 5.26zm2.93-6.43l2.41-5.29V52.3zm8.82-18.3v9.35l-2.14-4.66zm-5.06 11.13l2.41-5.31 2.42 5.26zm4.72.95l-2.32 5.09-2.34-5.09zm0-13.61l-2.32 5.09-2.34-5.09zm-5.11 1.27l2.28 4.95-2.27 5zm0 23.51v-9.87l2.26 4.92zm.36 1.48l2.41-5.3 2.42 5.26zm2.93-6.43l2.15-4.73v9.43z"/><rect class="cls-2" x="19.65" y="30.96" width="41.18" height="1.09" rx=".29" ry=".29" transform="rotate(-18.36 40.246 31.49)"/></g></svg>