<svg id="TARGETS" xmlns="http://www.w3.org/2000/svg" viewBox="0 0 94.85 94.85" width="94.85" height="94.85"><defs><style>.cls-1{fill:#19486a}.cls-2{fill:#fff}</style></defs><title>Goal_17_RGB_NG</title><path class="cls-1" d="M0 0h94.85v94.85H0z"/><path class="cls-2" d="M70.55 45.06a1.12 1.12 0 0 0-1.19-1c-.63 0-1.09-.05-1.71-.06s-1.21-.18-1.39-.84a20.29 20.29 0 0 0-1.1-3.27 1.42 1.42 0 0 1 .42-1.67c.52-.42.93-.78 1.43-1.22a1.15 1.15 0 0 0 .28-1.48A16.56 16.56 0 0 0 64.66 32a1.12 1.12 0 0 0-1.58-.15c-.53.35-.91.6-1.41 1s-1.09.56-1.63.13c-1-.74-2.13-1.56-2.81-2a1.41 1.41 0 0 1-.63-1.59c.17-.65.29-1.18.43-1.82a1.14 1.14 0 0 0-.64-1.37 16.58 16.58 0 0 0-4.18-1.28 1.13 1.13 0 0 0-1.37.81c-.22.59-.38 1-.57 1.6s-.55 1.1-1.25 1.07h-3.44a1.39 1.39 0 0 1-1.45-.91c-.24-.63-.45-1.13-.72-1.74a1.15 1.15 0 0 0-1.32-.75A16 16 0 0 0 38 26.43a1.12 1.12 0 0 0-.63 1.45c.17.62.29 1.06.48 1.64s.2 1.22-.38 1.6-2 1.41-2.77 2.05a1.4 1.4 0 0 1-1.71.11c-.56-.37-1-.64-1.6-1a1.15 1.15 0 0 0-1.49.19 15.92 15.92 0 0 0-2.51 3.58 1.13 1.13 0 0 0 .34 1.55c.5.39.86.68 1.35 1s.88.87.63 1.51-.81 2.6-1 3.29a1.42 1.42 0 0 1-1.32 1.1c-.67 0-1.21.08-1.87.14a1.16 1.16 0 0 0-1.1 1 16.82 16.82 0 0 0 .07 4.37 1.13 1.13 0 0 0 1.19 1c.64 0 1.1.05 1.71.06s1.21.18 1.39.83a26.52 26.52 0 0 0 1.1 3.28 1.4 1.4 0 0 1-.5 1.82c-.52.43-.93.78-1.43 1.22a1.16 1.16 0 0 0-.28 1.48 16.37 16.37 0 0 0 2.63 3.5 1.13 1.13 0 0 0 1.58.15c.53-.35.91-.61 1.41-1s1.09-.57 1.63-.13 2.14 1.56 2.81 2a1.41 1.41 0 0 1 .63 1.6c-.17.65-.29 1.17-.43 1.82a1.17 1.17 0 0 0 .64 1.36 16.58 16.58 0 0 0 4.18 1.28 1.13 1.13 0 0 0 1.37-.81c.22-.59.38-1 .58-1.6s.55-1.11 1.24-1.07h3.44a1.39 1.39 0 0 1 1.45.91c.24.63.46 1.12.72 1.73a1.15 1.15 0 0 0 1.32.73A16.76 16.76 0 0 0 57 68.75a1.13 1.13 0 0 0 .63-1.46c-.17-.61-.29-1.05-.48-1.64s-.2-1.21.38-1.59 2.17-1.57 2.77-2.05a1.41 1.41 0 0 1 1.7-.11c.56.36 1 .64 1.6 1a1.15 1.15 0 0 0 1.49-.19 16.77 16.77 0 0 0 2.52-3.58 1.14 1.14 0 0 0-.35-1.55c-.5-.4-.86-.68-1.35-1.05s-.88-.86-.63-1.51.8-2.47 1-3.28a1.38 1.38 0 0 1 1.31-1.1c.67 0 1.21-.09 1.87-.15a1.15 1.15 0 0 0 1.1-1 16.07 16.07 0 0 0-.01-4.43zm-23 17a14.32 14.32 0 1 1 14.36-14.24 14.33 14.33 0 0 1-14.36 14.27z"/><path class="cls-2" d="M37 43.68c.33.22.56 0 .69-.19a.43.43 0 0 0 0-.51c-.08-.17.17-.3.34-.35a9.29 9.29 0 0 0 .95-.56 3.17 3.17 0 0 1 1.92 0 1 1 0 0 0 1.26-.25 3.6 3.6 0 0 1 .92-.76c.18-.09-.45-.68-1 0s-.79.7-1 .7-1.71-.37-1.89-.83.46-.8 1-1.06a13.23 13.23 0 0 1 2.39-.33c.76-.17 1.74-.55 2.23-.21s-2.06.9-1.22 1.36c.3.16 1.65-.78 2.11-1 1.08-.56-1.05-.75-.77-1.89s-2.49-.82-4-.7a12.69 12.69 0 0 0-2 1.51c.17 0 .36.1.39.22a1.56 1.56 0 0 1-.17.8 2 2 0 0 1-1.34.6.41.41 0 0 1-.24-.11c-.23.3-.44.6-.64.91a1.94 1.94 0 0 1 .93-.31c.32 0 .74.11.79.32s-.79.58-1 .72c-.43.4-1.12 1.22-1.52 1.31a.44.44 0 0 1-.3 0c-.11.27-.21.55-.3.83a1.55 1.55 0 0 1 1.47-.22zM57.74 47.15a3.26 3.26 0 0 1-1.32.53 1.71 1.71 0 0 0-.66 1.51c.1.48 1.24 1.8.39 1.74a4.86 4.86 0 0 1-2-1.71c-.25-.7-.54-1.38-.74-1.91a.76.76 0 0 0-1.15-.31c-.45.31.12.61-.2 1.27s-.56 1.24-1 .7c-1.23-1.42-3-.73-3.3-2.3-.15-.85-.88-.77-1.49-1.25s-1-.74-1.06-.4 1.92 1.91 2.06 2.32c.21.61-.61 1.15-1.21 1.29s-.86-.33-1.44-1-.85-1-.89-.57a2.78 2.78 0 0 0 1.15 2.1c.52.32 1.08.47.92 1s0 .23-.58.79a1.54 1.54 0 0 0-.64 1.53c0 .79-.17.84-.29 1.49s-.41.09-.66 1.05a3.64 3.64 0 0 1-.79 1.62 2.64 2.64 0 0 1-1.72.65c-.57 0-.65-1.58-.65-2.36 0-.28-.38.53-.58-1.12-.12-1-.8.12-.85-.59s-.38-.56-.73-1-.79 0-1.29.26-.28.33-1 .1A12.63 12.63 0 0 0 44 59.81a.51.51 0 0 1-.15-.61 2.82 2.82 0 0 1 2.48-1.5c2-.2 4.73 1.34 5.16 1.1s1.3-1.37 2.57-1.32a2 2 0 0 1 1.14.28 13 13 0 0 0 1.26-1.08 3.84 3.84 0 0 1-.4-.14c-.69-.36-.6.2-.94.08s.38-.91-.63-.25-.75-.1-1.18-1.23a2.29 2.29 0 0 1 1.31-2.7 16.78 16.78 0 0 1 2.3-.59c1.51-.38 1.83-1.27 2.11-.73 0 .11.1.2.15.3a1.92 1.92 0 0 1 .18.76 12.19 12.19 0 0 0 .64-1.87c-.36-.15-1.72-2.07-.61-3.33.19-.21-.37-.84-.22-.86a1 1 0 0 1 1.05.77 12.68 12.68 0 0 0-.28-2 1.93 1.93 0 0 1-.06.44.82.82 0 0 1-1.47.11c-.13-.19-.67-.69-.66.18s.8 1.01-.01 1.53zm-11.85 5c-.18.28-.66 2.4-1 2.16s.14-2.46.23-2.63c.52-.97 1.6-.92.77.42zM51 49.61a1.11 1.11 0 0 1-1.2-.12c-.32-.24.2-.65.39-.66.47-.04 1.11.55.81.78zm5.22-.46a.28.28 0 0 1 .41-.36 1.23 1.23 0 0 1 .59.73c0 .2-.5.18-.64.12s-.22-.17-.32-.49zM58 50.82a1.11 1.11 0 0 1-1.2-.12c-.32-.25.2-.65.39-.66.39-.04 1.02.55.81.78zM36.53 45.07a12.22 12.22 0 0 1 2.07.52c.73.27 1.87.9 2.55.63.48-.2.86-.46.82-.87s-.46-.62-.94-.29c-.18.13-.56-.76-.85-.72s.37 1 .11 1.09-.76-1-.84-1.22-.48-.61-.84-.28c-.74.7-2 .66-2.19.84a1.21 1.21 0 0 1-.26.15c-.49.2-.65-.3-.66-.69a12.91 12.91 0 0 0-.43 2.16l.06-.1c.41-.77.49-.86.63-.93a3.61 3.61 0 0 1 .48-.2zM15.74 9l11.55 11.44a.14.14 0 0 1 0 .19l-5.86 5.47a.14.14 0 0 1-.19 0L9.91 14.87l-2.19 2.21V6.76L18 6.7z"/><g><path class="cls-2" d="M79.11 85.86L67.56 74.41a.14.14 0 0 1 0-.19l5.86-5.48a.12.12 0 0 1 .18 0L84.94 80l2.18-2.21v10.32H76.8zM15.63 85.81l11.55-11.45a.14.14 0 0 0 0-.19l-5.86-5.47a.12.12 0 0 0-.18 0L9.81 79.93l-2.19-2.2v10.32h10.33z"/></g><path class="cls-2" d="M79.21 9L67.67 20.49a.13.13 0 0 0 0 .19l5.87 5.47a.13.13 0 0 0 .18 0L85 14.91l2.19 2.21V6.8L77 6.75z"/></svg>