<svg id="TARGETS" xmlns="http://www.w3.org/2000/svg" viewBox="0 0 94.85 94.85" width="94.85" height="94.85"><defs><style>.cls-1{fill:#fcc30b}.cls-2{fill:#fff}</style></defs><title>Goal_7_RGB_NG</title><path class="cls-1" d="M0 0h94.85v94.85H0z"/><path class="cls-2" d="M84.49 47.42a37.08 37.08 0 1 0-50.84 34.47 17.92 17.92 0 0 0 9 1.74c2.16-.12 6.16-.86 6.16-7.24v-6.91h1a1.63 1.63 0 0 1 1.67 1c.27.72.52 1.29.82 2a1.33 1.33 0 0 0 1.52.83 19 19 0 0 0 4.76-1.63 1.3 1.3 0 0 0 .65-1.68c-.19-.7-.33-1.21-.54-1.88s-.24-1.4.43-1.83S61.61 64.5 62.3 64a1.62 1.62 0 0 1 2-.13c.65.42 1.18.74 1.84 1.13a1.34 1.34 0 0 0 1.72-.22 19 19 0 0 0 2.89-4.12 1.29 1.29 0 0 0-.4-1.78c-.57-.45-1-.78-1.55-1.2s-1-1-.72-1.74.92-2.94 1.16-3.83a1.6 1.6 0 0 1 1.51-1.26c.77 0 1.39-.1 2.15-.17a1.33 1.33 0 0 0 1.27-1.19 19.25 19.25 0 0 0-.09-5 1.29 1.29 0 0 0-1.37-1.2c-.73 0-1.25-.06-2-.07s-1.39-.21-1.6-1a23.81 23.81 0 0 0-1.27-3.76 1.61 1.61 0 0 1 .49-1.91c.6-.49 1.06-.9 1.64-1.4a1.33 1.33 0 0 0 .32-1.71 19.06 19.06 0 0 0-3-4 1.31 1.31 0 0 0-1.82-.17c-.6.4-1 .7-1.62 1.1s-1.26.66-1.88.16c-1.14-.85-2.44-1.8-3.22-2.3a1.6 1.6 0 0 1-.75-1.85c.19-.75.33-1.35.5-2.1a1.34 1.34 0 0 0-.74-1.57A18.47 18.47 0 0 0 53 21.24a1.29 1.29 0 0 0-1.57.93c-.25.68-.44 1.17-.67 1.84s-.63 1.27-1.42 1.23h-4a1.62 1.62 0 0 1-1.67-1.06c-.28-.72-.52-1.29-.83-2a1.31 1.31 0 0 0-1.52-.83A18.93 18.93 0 0 0 36.6 23a1.29 1.29 0 0 0-.73 1.68c.2.7.34 1.21.55 1.88s.23 1.4-.44 1.83-2.29 1.63-3.18 2.36a1.62 1.62 0 0 1-2 .13c-.65-.42-1.18-.74-1.84-1.13a1.32 1.32 0 0 0-1.72.22 19 19 0 0 0-2.88 4.12 1.29 1.29 0 0 0 .39 1.78c.57.45 1 .78 1.55 1.2s1 1 .73 1.74-.94 3-1.19 3.78a1.62 1.62 0 0 1-1.52 1.26c-.77 0-1.38.1-2.15.17a1.32 1.32 0 0 0-1.26 1.18 18.49 18.49 0 0 0 .09 5 1.29 1.29 0 0 0 1.36 1.2c.73 0 1.26.06 2 .07s1.39.2 1.6 1a33.49 33.49 0 0 0 1.27 3.77 1.62 1.62 0 0 1-.48 1.91c-.6.49-1.07.9-1.64 1.4a1.32 1.32 0 0 0-.33 1.7 18.61 18.61 0 0 0 3 4 1.29 1.29 0 0 0 1.81.18c.61-.41 1.05-.7 1.62-1.1s1.26-.66 1.88-.16 2.45 1.8 3.23 2.3a1.61 1.61 0 0 1 .73 1.83c-.2.75-.34 1.35-.5 2.1a1.32 1.32 0 0 0 .75 1.6 19.33 19.33 0 0 0 4.82 1.47 1.3 1.3 0 0 0 1.57-.93c.25-.68.44-1.18.66-1.84s.63-1.27 1.43-1.23h.59l.05 6.93a4.2 4.2 0 0 1-3.89 4.81 16.53 16.53 0 0 1-8-1.56A34.71 34.71 0 1 1 72.82 71c-.08.08-.15.27-.36.18A5.65 5.65 0 0 0 66 72.39c-.22.2-2.48 3-2.48 3a.22.22 0 0 0 .09.34L65.14 77a.21.21 0 0 1 0 .32l-2 2.53a.83.83 0 0 0 .06 1 .75.75 0 0 0 1.13.05l2.08-2.63s.14-.23.31 0 2.45 2 2.45 2 .12.08 0 .25l-2 2.49a.91.91 0 0 0 .02.99.8.8 0 0 0 1.08 0l2.13-2.66s.1-.16.23-.07 1.53 1.25 1.53 1.25a.27.27 0 0 0 .4 0s2.11-2.59 2.36-3a5.11 5.11 0 0 0 .91-3.1 5.31 5.31 0 0 0-1.24-3.51s-.11-.11 0-.28A36.71 36.71 0 0 0 81.52 62a37.11 37.11 0 0 0 2.97-14.58zm-53.28.11A16.47 16.47 0 1 1 47.63 64a16.49 16.49 0 0 1-16.42-16.47z"/><path class="cls-2" d="M35.5 42.87c.38.26.64-.06.79-.22a.49.49 0 0 0 0-.58c-.09-.2.2-.35.39-.41a9.77 9.77 0 0 0 1.1-.65A3.78 3.78 0 0 1 40 41a1.16 1.16 0 0 0 1.45-.28 4 4 0 0 1 1.06-.88c.21-.1-.52-.78-1.12 0s-.9.81-1.18.81-2-.43-2.17-1 .53-.92 1.15-1.22a14.81 14.81 0 0 1 2.74-.38c.88-.19 2-.63 2.57-.24s-2.36 1-1.4 1.56c.34.19 1.89-.89 2.42-1.16 1.25-.64-1.2-.86-.88-2.17s-2.87-.94-4.58-.8A14.1 14.1 0 0 0 37.78 37c.2 0 .42.12.45.25a1.88 1.88 0 0 1-.2.92 2.43 2.43 0 0 1-1.54.7.52.52 0 0 1-.28-.13c-.26.34-.51.69-.74 1a2.14 2.14 0 0 1 1.08-.36c.36-.06.85.12.9.36s-.9.67-1.08.84c-.5.45-1.29 1.39-1.75 1.49a.46.46 0 0 1-.35 0c-.13.32-.24.64-.35 1a1.77 1.77 0 0 1 1.58-.2zM52.2 60.25c.49-.28 1.49-1.57 2.95-1.51a2.33 2.33 0 0 1 1.31.32 13.18 13.18 0 0 0 1.45-1.24 2.54 2.54 0 0 1-.45-.17c-.8-.4-.7.24-1.09.09s.44-1-.73-.28-.85-.12-1.35-1.41A2.64 2.64 0 0 1 55.8 53a18.29 18.29 0 0 1 2.64-.69c1.74-.43 2.11-1.46 2.43-.83a3.59 3.59 0 0 0 .17.34 2.21 2.21 0 0 1 .21.87 14 14 0 0 0 .64-2.15c-.41-.16-2-2.38-.7-3.83.21-.24-.43-1-.25-1a1.14 1.14 0 0 1 1.21.88 13.86 13.86 0 0 0-.33-2.25 3.77 3.77 0 0 1-.06.51 1 1 0 0 1-1.7.12c-.15-.21-.77-.8-.75.2s1 1.12 0 1.72a3.76 3.76 0 0 1-1.53.61c-.43.14-.85 1.18-.75 1.74s1.42 2.07.44 2a5.68 5.68 0 0 1-2.25-2c-.29-.8-.63-1.59-.86-2.19a.87.87 0 0 0-1.36-.41c-.51.35.15.71-.23 1.47s-.64 1.42-1.18.8c-1.41-1.63-3.47-.84-3.79-2.65-.17-1-1-.89-1.72-1.44S45 44 44.9 44.36s2.21 2.21 2.38 2.67c.24.7-.7 1.32-1.39 1.49s-1-.39-1.67-1.1-1-1.21-1-.66a3.13 3.13 0 0 0 1.32 2.42c.59.38 1.24.54 1.06 1.15s0 .26-.67.91a1.76 1.76 0 0 0-.75 1.76c0 .91-.19 1-.33 1.71s-.47.1-.76 1.22a4.22 4.22 0 0 1-.9 1.85 3 3 0 0 1-2 .75c-.66-.05-.75-1.81-.75-2.72 0-.32-.45.62-.67-1.27-.14-1.21-.92.13-1-.68s-.45-.65-.85-1.15-.91 0-1.48.3-.33.38-1.13.12a14.54 14.54 0 0 0 9.27 8.3.6.6 0 0 1-.17-.71A3.25 3.25 0 0 1 46.26 59c2.35-.23 5.44 1.53 5.94 1.25zm7.41-9.17a1.32 1.32 0 0 1-1.39-.08c-.36-.29.24-.76.46-.77.49-.09 1.22.59.93.85zm-2-1.92a.32.32 0 0 1 .47-.41 1.39 1.39 0 0 1 .68.84c0 .23-.58.2-.74.14s-.25-.21-.37-.57zm-11.89 3.39c-.2.32-.76 2.77-1.12 2.48s.15-2.83.26-3c.58-1.03 1.81-1.03.86.52zm5.93-2.87a1.32 1.32 0 0 1-1.39-.12c-.36-.29.24-.76.46-.77.49-.05 1.22.64.93.89zM35 44.47a13.91 13.91 0 0 1 2.38.6c.84.31 2.17 1 2.94.72.56-.23 1-.53.94-1s-.52-.72-1.07-.33c-.21.15-.65-.88-1-.83s.43 1.2.13 1.26-.87-1.21-1-1.41-.55-.7-1-.32c-.86.81-2.25.76-2.53 1a1.33 1.33 0 0 1-.3.17c-.56.23-.74-.35-.75-.79a13.52 13.52 0 0 0-.5 2.47l.07-.11c.47-.88.57-1 .72-1.07a4 4 0 0 1 .56-.22z"/></svg>