<svg id="TARGETS" xmlns="http://www.w3.org/2000/svg" viewBox="0 0 94.85 94.85" width="94.85" height="94.85"><defs><style>.cls-1{fill:#bf8b2e}.cls-2{fill:#fff}</style></defs><title>Goal_12_RGB_NG</title><path class="cls-1" d="M0 0h94.85v94.85H0z"/><path class="cls-2" d="M74.53 23.47H20.32a.77.77 0 0 0-.77.77l3.84 57.19a.77.77 0 0 0 .77.77h46.52a.76.76 0 0 0 .77-.77l3.84-57.19a.76.76 0 0 0-.76-.77zM68.6 79.2H26.25l-3.54-52.73h49.43zM75.3 15.71H55.56v-2.29a.76.76 0 0 0-.76-.77H39.91a.76.76 0 0 0-.77.77v2.29H19.55a.78.78 0 0 0-.77.77l.52 3.2a.76.76 0 0 0 .77.76h54.68a.77.77 0 0 0 .77-.76l.54-3.2a.77.77 0 0 0-.76-.77z"/><path class="cls-2" d="M49 41.62c.37.5 2.75 3.53 6.08 3.53 2.9 0 6-2.62 6-2.62a4.9 4.9 0 0 0 3.55 2.61.09.09 0 0 0 .09-.09 7.33 7.33 0 0 1-1.09-3.41 7.25 7.25 0 0 1 1.09-3.4.41.41 0 0 0 0-.09.1.1 0 0 0-.09-.09h-.06A4.9 4.9 0 0 0 61 40.72s-3.1-2.63-6-2.63c-3.33 0-5.71 3-6.08 3.53m4.23.46a1 1 0 1 1 1-1 1 1 0 0 1-1 1M41 61.61v4c0 2.28-1.14 3.76-3.93 3.76s-3.81-1.6-3.81-4.1v-1.84h2.52v2.06c0 1 .34 1.61 1.29 1.61s1.16-.61 1.16-1.49v-4c0-.89-.34-1.48-1.19-1.48s-1.21.54-1.21 1.51V62h-2.56v-9.25h7.28V55h-4.76v4.1a2.49 2.49 0 0 1 2.36-1.1c1.48 0 2.85 1 2.85 3.61zM42.12 65v-8c0-2.57 1.29-4.44 4.08-4.44s4.1 1.87 4.1 4.44v8c0 2.55-1.28 4.44-4.1 4.44s-4.08-1.93-4.08-4.44zm5.42.44v-8.88c0-1-.37-1.7-1.34-1.7s-1.31.71-1.31 1.7v8.84c0 1 .36 1.7 1.31 1.7s1.34-.71 1.34-1.7zM51.27 56.51v-.7c0-1.92 1-3.25 3.08-3.25s3.09 1.33 3.09 3.25v.7c0 1.92-1 3.25-3.09 3.25s-3.08-1.33-3.08-3.25zm11.21-3.76l-9 16.46h-1.7l9-16.46zm-7.18 4v-1.23c0-.73-.24-1.22-.95-1.22s-.94.49-.94 1.22v1.28c0 .73.24 1.22.94 1.22s.95-.49.95-1.22zm1.53 9.35v-.71c0-1.91 1-3.25 3.08-3.25S63 63.53 63 65.44v.71c0 1.92-1 3.25-3.08 3.25s-3.09-1.33-3.09-3.25zm4 .29v-1.24c0-.72-.24-1.21-1-1.21s-.94.49-.94 1.21v1.29c0 .73.24 1.21.94 1.21s1.03-.48 1.03-1.21z"/><g><path class="cls-2" d="M35.8 44.6v.4a.19.19 0 0 0 .18.18h4.49a.18.18 0 0 0 .17-.18v-.43a7 7 0 0 0 4.83-5.35.18.18 0 0 0-.18-.18H31a.18.18 0 0 0-.18.18v.08a7 7 0 0 0 4.98 5.3M40.64 32.89c-.06.08-1.44 2.07 0 3.67a1.59 1.59 0 0 1 .42 1.82H42a2.3 2.3 0 0 0-.66-2.29c-1.08-1.18 0-2.78 0-2.81a.35.35 0 0 0-.15-.52.5.5 0 0 0-.62.13M38.26 38.38h.94a2.32 2.32 0 0 0-.65-2.29c-1.09-1.18 0-2.78 0-2.81a.34.34 0 0 0-.15-.52.5.5 0 0 0-.62.13c-.06.08-1.44 2.07 0 3.67a1.6 1.6 0 0 1 .43 1.82M35 32.89c-.05.08-1.43 2.07 0 3.67a1.61 1.61 0 0 1 .42 1.82h.94a2.32 2.32 0 0 0-.65-2.29c-1.09-1.18 0-2.78 0-2.81a.34.34 0 0 0-.16-.52.5.5 0 0 0-.62.13"/></g></svg>