<svg id="TARGETS" xmlns="http://www.w3.org/2000/svg" viewBox="0 0 94.8 94.88" width="94.8" height="94.8"><style>.st0{fill:#dd1367}.st1{fill:#fff}</style><title>Goal_10_RGB_NG</title><path class="st0" d="M0 0h94.8v94.8H0z"/><path class="st1" d="M73.2 72.8c.9-1.5 3.4-2.9 5.7-5.2s2.6-3.2 3.2-6.8c.5-4.3.7-8.6.4-12.9-.1-.9-.2-2.2-1-2.2s-1.1 1.1-1.3 1.9-.5 5.3-.8 7.4c-.6 2.4-1.6 4.7-3 6.8-.6.9-3 3.5-3.5 3.4s-.3-.8 0-1.2c.3-.4 2.5-2.9 3.6-4.4s.9-3 .1-3.5c-.7-.4-1.3.8-3 2.5S70 62 66.6 65c-2.4 2.2-3.6 5.4-3.2 8.6.1.7-.6 5.7-1.4 11.4h10.2c-.2-3.6-.4-6.5-.4-6.8-.1-1.8.4-3.7 1.4-5.4zM31.6 73.7c.4-3.2-.8-6.4-3.2-8.6-3.4-3-5.3-4.8-7-6.4s-2.3-2.9-3-2.5c-.9.5-1 2 .1 3.5s3.2 3.8 3.6 4.4c.4.5.6 1 0 1.2-.6.2-2.9-2.5-3.5-3.4-1.4-2.1-2.4-4.4-3-6.8-.4-2.2-.6-6.8-.9-7.4s-.5-1.9-1.3-1.9-.9 1.3-1 2.2c-.3 4.3-.2 8.6.4 12.9.6 3.6.9 4.4 3.2 6.8s4.8 3.7 5.7 5.2c1 1.7 1.5 3.5 1.5 5.5 0 .4-.2 3.7-.4 6.8h10.1c-.6-4.7-1.4-10.4-1.3-11.5zM69.5 34.6c0-.6-.5-1-1.1-1h-1.6c-.6 0-1.2-.2-1.3-.8-.2-1.1-.6-2.1-1-3.1-.2-.6-.1-1.2.4-1.6.5-.4.9-.8 1.4-1.2.4-.3.6-.9.3-1.4-.7-1.2-1.5-2.3-2.5-3.3-.4-.5-1-.5-1.5-.1-.5.3-.9.6-1.3.9s-1 .5-1.5.1c-1-.7-2-1.5-2.7-1.9-.5-.3-.8-.9-.6-1.5.2-.6.3-1.1.4-1.7.2-.5-.1-1.1-.6-1.3-1.3-.6-2.6-1-4-1.2-.6-.1-1.2.2-1.3.8-.2.6-.4 1-.5 1.5-.2.5-.5 1-1.2 1H46c-.6.1-1.2-.2-1.4-.8-.2-.6-.4-1.1-.7-1.7-.2-.5-.7-.8-1.3-.7-1.4.3-2.7.7-4 1.4-.5.2-.8.8-.6 1.4.2.6.3 1 .5 1.6s.2 1.2-.3 1.5-1.9 1.4-2.6 2c-.5.4-1.1.4-1.6.1-.5-.4-1-.6-1.5-.9-.5-.3-1.1-.2-1.4.2-.9 1-1.8 2.2-2.4 3.4-.3.5-.2 1.2.3 1.5.5.4.8.6 1.3 1s.8.8.6 1.4-.8 2.5-1 3.1c-.1.6-.7 1-1.3 1-.6 0-1.1.1-1.8.1-.5 0-1 .5-1 1-.2 1.4-.1 2.8.1 4.2 0 .6.5 1 1.1 1 .6 0 1 0 1.6.1s1.1.2 1.3.8c.3 1.1.6 2.1 1 3.1.2.6.1 1.2-.4 1.6-.5.4-.9.7-1.4 1.2-.4.3-.5.9-.3 1.4.7 1.2 1.5 2.3 2.5 3.3.4.5 1 .5 1.5.1.5-.3.9-.6 1.3-.9s1-.5 1.5-.1 2 1.5 2.7 1.9c.5.3.8.9.6 1.5-.2.6-.3 1.1-.4 1.7-.2.5.1 1.1.6 1.3 1.3.6 2.6 1 4 1.2.6.1 1.2-.2 1.3-.8.2-.6.4-1 .5-1.5s.5-1 1.2-1h3.3c.6-.1 1.2.3 1.4.9.2.6.4 1.1.7 1.7.2.5.7.8 1.3.7 1.4-.3 2.7-.7 4-1.3.6-.2.8-.9.6-1.4V56c-.2-.6-.3-1-.5-1.6s-.2-1.2.3-1.5 2.1-1.5 2.6-2c.5-.4 1.1-.4 1.6-.1l1.5.9c.5.3 1.1.2 1.4-.2.9-1 1.8-2.2 2.4-3.4.3-.5.2-1.1-.3-1.5-.5-.4-.8-.7-1.3-1s-.8-.8-.6-1.4.8-2.4 1-3.1c.2-.6.7-1 1.3-1 .6 0 1.2-.1 1.8-.1.5 0 1-.5 1-1 .1-1.6.1-3.1-.1-4.4zM47.6 50.8c-7.5 0-13.6-6.2-13.6-13.7 0-7.5 6.2-13.6 13.7-13.6 7.5 0 13.6 6.2 13.6 13.7 0 7.5-6.2 13.6-13.7 13.6z"/><path class="st1" d="M37.5 33.2c.3.2.5 0 .7-.2.1-.1.1-.3 0-.5s.2-.3.3-.3c.3-.2.6-.3.9-.5.6-.2 1.2-.2 1.8 0 .4.2.9.1 1.2-.2.2-.3.5-.5.9-.7.2-.1-.4-.6-.9 0s-.8.7-1 .7-1.6-.4-1.8-.8.5-.8 1-1c.7-.2 1.5-.3 2.3-.3.7-.1 1.7-.5 2.1-.2s-2 .9-1.2 1.3c.3.1 1.6-.7 2-1 1-.5-1-.7-.7-1.8s-2.4-.8-3.8-.7c-.7.4-1.3.9-1.9 1.4.2 0 .3.1.4.2 0 .3-.1.5-.2.8-.3.3-.8.5-1.3.6-.1 0-.2-.1-.3-.1l-.6.9c.3-.2.6-.3.9-.3.3 0 .7.1.8.3s-.8.6-.9.7c-.4.4-1.1 1.1-1.5 1.2h-.3c-.1.3-.2.5-.3.8.5-.4 1-.4 1.4-.3zM57.3 36.5c-.4.3-.8.5-1.3.5-.4.3-.7.9-.6 1.5.1.5 1.2 1.7.4 1.7-.8-.4-1.4-.9-1.9-1.6-.2-.7-.5-1.3-.7-1.8-.1-.4-.6-.6-.9-.4-.1 0-.1.1-.2.1-.4.3.1.6-.2 1.2s-.5 1.2-1 .7c-1.2-1.4-2.9-.7-3.1-2.2-.1-.8-.8-.7-1.4-1.2s-.9-.7-1-.4c-.1.3 1.8 1.8 2 2.2.2.6-.6 1.1-1.2 1.2s-.8-.3-1.4-.9-.8-1-.8-.5c0 .8.4 1.5 1.1 2 .5.3 1 .5.9 1s0 .2-.5.8c-.5.3-.7.9-.6 1.5 0 .8-.2.8-.3 1.4s-.4.1-.6 1c-.1.6-.4 1.1-.8 1.5-.5.4-1 .6-1.6.6-.5 0-.6-1.5-.6-2.3 0-.3-.4.5-.5-1.1-.1-1-.8.1-.8-.6s-.4-.5-.7-1-.8 0-1.2.2-.3.3-.9.1c1.4 3.3 4.2 5.9 7.7 6.9-.2-.1-.2-.4-.2-.6.5-.9 1.4-1.4 2.4-1.4 2-.2 4.5 1.3 4.9 1s1.2-1.3 2.5-1.3c.4 0 .8.1 1.1.3.4-.3.8-.6 1.2-1-.1 0-.3-.1-.4-.1-.7-.3-.6.2-.9.1s.4-.9-.6-.2-.7-.1-1.1-1.2c-.3-1.1.3-2.1 1.3-2.6.7-.2 1.4-.4 2.2-.6 1.4-.4 1.8-1.2 2-.7l.1.3c.1.2.2.5.2.7.2-.6.4-1.2.5-1.8-.3-.1-1.6-2-.6-3.2.2-.2-.4-.8-.2-.8.5 0 .9.3 1 .7 0-.6-.1-1.3-.3-1.9v.4c-.2.4-.6.6-1 .4-.2-.1-.3-.2-.4-.3-.1-.2-.6-.7-.6.2-.4.9.4 1-.4 1.5zM46 41.3c-.2.3-.6 2.3-.9 2.1s.1-2.3.2-2.5c.5-1 1.5-.9.7.4zm4.9-2.4c-.4.2-.8.2-1.2-.1-.3-.2.2-.6.4-.6.4-.1 1.1.5.8.7zm5-.4c-.1-.3.2-.5.4-.3.3.1.5.4.6.7 0 .2-.5.2-.6.1s-.3-.2-.4-.5zm1.6 1.5c-.4.2-.8.1-1.2-.1-.3-.2.2-.6.4-.6.4 0 1.1.5.8.7zM37.1 34.6c.7.1 1.3.3 2 .5.7.3 1.8.9 2.4.6.5-.2.8-.4.8-.8s-.4-.6-.9-.3c-.2.1-.5-.7-.8-.7-.3 0 .4 1 .1 1s-.7-1-.8-1.2-.5-.6-.8-.3c-.7.7-1.9.6-2.1.8-.1.1-.2.1-.2.1-.5.2-.6-.3-.6-.6-.2.7-.4 1.4-.4 2.1l.1-.1c.4-.7.5-.8.6-.9.1-.1.3-.1.5-.2h.1z"/></svg>