<svg id="TARGETS" xmlns="http://www.w3.org/2000/svg" viewBox="0 0 94.85 94.85" width="94.85" height="94.85"><defs><style>.cls-1{fill:#19486a}.cls-2{fill:#fff}</style></defs><title>Goal_17_RGB_NG</title><path class="cls-1" d="M0 0h94.85v94.85H0z"/><path class="cls-2" d="M83.36 45.15H50.17a.58.58 0 0 0-.58.58v1.34a.58.58 0 0 0 .58.59h33.19a.58.58 0 0 0 .58-.59v-1.34a.58.58 0 0 0-.58-.58zM83.36 70.12H50.17a.58.58 0 0 0-.58.59v2.67a.58.58 0 0 0 .58.58h33.19a.58.58 0 0 0 .58-.58v-2.67a.58.58 0 0 0-.58-.59zM83.85 42.72a17.49 17.49 0 0 0-34.12.05.4.4 0 0 0-.06.22.52.52 0 0 0 .49.51H83.4a.53.53 0 0 0 .5-.53zM82.38 49.42h-31a.58.58 0 0 0-.59.59V68a.58.58 0 0 0 .59.58h31A.58.58 0 0 0 83 68V50a.58.58 0 0 0-.62-.58zM60.79 66.14h-5.3V51.85h5.3zm8.92 0H64.4V51.85h5.31zm9 0h-5.3V51.85h5.3z"/><path class="cls-2" d="M66.73 26.81v-6.39h1.61a4.89 4.89 0 0 1 2.73.72 5.74 5.74 0 0 0 3.82 1.51h2.44V29h-2.5a5.75 5.75 0 0 1-2.83-.95 5 5 0 0 0-3.28-1.18c-2.1-.14-1.99-.06-1.99-.06zM21 31.41V45.1a.18.18 0 0 0 .18.18h11.3a.18.18 0 0 0 .18-.18V31.41H37L26.77 21.17 16.52 31.41z"/><g><path class="cls-2" d="M24.73 71a5.56 5.56 0 0 1-1.51.68 15.09 15.09 0 0 1-4.71.6 17.31 17.31 0 0 1-2.33-.19 12.31 12.31 0 0 1-1.42-.27l-.69-.19a5.89 5.89 0 0 1-1.84-.9 2.23 2.23 0 0 1-.51-.55v1.56a1.4 1.4 0 0 0 .55 1 7.52 7.52 0 0 0 3.73 1.4 17.29 17.29 0 0 0 2.68.2 16 16 0 0 0 3.86-.44 7.61 7.61 0 0 0 1.95-.78c.64-.4 1-.86 1-1.35v-1.55a2.79 2.79 0 0 1-.76.78zM18 66.27c3.81 0 6.89-1.17 6.89-2.6 0 0 .08-1.33.06-1.62a1.52 1.52 0 0 0-.12-.55 1.59 1.59 0 0 0 .78-1.18s.06-1.49 0-1.78c-.18-1.75-3.66-2.69-6.92-2.69s-6.95 1-6.95 2.85c0 .09.06 1.62.06 1.62a.85.85 0 0 0 .09.31 1.76 1.76 0 0 0-.89 1.42c0 .09.07 1.62.07 1.62a1.37 1.37 0 0 0 .54 1 7.6 7.6 0 0 0 3.66 1.38 17.34 17.34 0 0 0 2.73.22zm.72-9.69c3.67 0 6.22 1.12 6.22 2.12s-2.55 2.12-6.22 2.12-6.23-1.12-6.23-2.12 2.51-2.12 6.19-2.12zm-6.95 5.47a1.15 1.15 0 0 1 .54-.8 3 3 0 0 0 .7.52 12.52 12.52 0 0 0 5.71 1.15 14.34 14.34 0 0 0 4.87-.76c.22-.09.41-.18.6-.28a.59.59 0 0 1 0 .17c0 1-2.56 2.12-6.23 2.12s-6.23-1.12-6.23-2.12z"/><path class="cls-2" d="M15.91 71.63a17.34 17.34 0 0 0 2.68.21 15.92 15.92 0 0 0 3.86-.45 7.68 7.68 0 0 0 2-.77 3 3 0 0 0 .43-.31 1.7 1.7 0 0 0 .52-.68.92.92 0 0 0 .07-.36v-1.54c-.24.29-.83 1.21-3.54 1.77a20.46 20.46 0 0 1-3.51.31A12.75 12.75 0 0 1 13 68.68a4.44 4.44 0 0 1-.87-.6 4 4 0 0 1-.42-.53v1.7a1.37 1.37 0 0 0 .54 1 7.52 7.52 0 0 0 3.66 1.38z"/><path class="cls-2" d="M25.4 64.57a1 1 0 0 0-.18-.16 1.87 1.87 0 0 0-.28-.16 1.57 1.57 0 0 1-.32.41 1.37 1.37 0 0 1 .27.16.66.66 0 0 1 .33.53.62.62 0 0 1-.25.46 2 2 0 0 1-.26.21l-.4.22s-.42.2-.61.27l-.61.19c-.06 0-.6.16-.82.2l-1.05.18-1.08.1c-.11 0-1.14.07-1.59.07a15.17 15.17 0 0 1-2.2-.16c-.53-.08-1.06-.18-1.55-.3a8.56 8.56 0 0 1-1.65-.52 2.91 2.91 0 0 1-.85-.6 2.56 2.56 0 0 1-.54-.73v1.77a1.37 1.37 0 0 0 .54 1 7.7 7.7 0 0 0 3.7 1.4 17.29 17.29 0 0 0 2.68.2 15.36 15.36 0 0 0 3.85-.45 7.06 7.06 0 0 0 1.94-.77c.16-.1.3-.21.43-.31a1.77 1.77 0 0 0 .52-.68 1.15 1.15 0 0 0 .06-.37s.06-1.47.06-1.51a.89.89 0 0 0-.05-.35.79.79 0 0 0-.09-.3zM33.82 61.21c3.81 0 6.89-1.16 6.89-2.6 0 0 .08-1.33.06-1.62a2.11 2.11 0 0 0-.12-.55 1.57 1.57 0 0 0 .78-1.18s.06-1.48 0-1.77c-.18-1.75-3.66-2.7-6.93-2.7s-6.94 1-6.94 2.85c0 .09.06 1.62.06 1.62a.85.85 0 0 0 .09.31 1.79 1.79 0 0 0-.84 1.43c0 .09.07 1.62.07 1.62a1.37 1.37 0 0 0 .54 1A7.55 7.55 0 0 0 31.14 61a17.38 17.38 0 0 0 2.68.21zm.71-9.69c3.68 0 6.23 1.12 6.23 2.12s-2.55 2.12-6.23 2.12-6.22-1.11-6.22-2.12 2.55-2.12 6.22-2.12zM27.59 57a1.12 1.12 0 0 1 .54-.79 3.35 3.35 0 0 0 .7.52 12.53 12.53 0 0 0 5.71 1.14 14.34 14.34 0 0 0 4.87-.76c.22-.08.41-.18.6-.27a.47.47 0 0 1 0 .16c0 1-2.56 2.12-6.23 2.12S27.59 58 27.59 57z"/><path class="cls-2" d="M41.43 59.79a.79.79 0 0 0-.17-.28l-.18-.16a1.57 1.57 0 0 0-.29-.15 1.38 1.38 0 0 1-.31.41 1.72 1.72 0 0 1 .27.15.68.68 0 0 1 .33.53.62.62 0 0 1-.25.47 2 2 0 0 1-.26.2s-.29.17-.4.22-.42.2-.61.27l-.61.2-.82.2c-.05 0-.73.13-1.05.17l-1.08.1c-.11 0-1.14.07-1.59.08a14 14 0 0 1-2.2-.17 14.68 14.68 0 0 1-1.55-.29 9.7 9.7 0 0 1-1.66-.53 2.92 2.92 0 0 1-.85-.59 3.18 3.18 0 0 1-.55-.73v1.77a1.39 1.39 0 0 0 .54 1 7.6 7.6 0 0 0 3.67 1.38 17.29 17.29 0 0 0 2.68.2 15.86 15.86 0 0 0 3.85-.44 7.38 7.38 0 0 0 2.04-.8 3.65 3.65 0 0 0 .43-.31 1.8 1.8 0 0 0 .52-.68 1.13 1.13 0 0 0 .06-.36s.06-1.48.06-1.52a.93.93 0 0 0-.02-.34zM40.63 66a6.16 6.16 0 0 1-1.52.68 15.09 15.09 0 0 1-4.7.59 19.1 19.1 0 0 1-2.34-.18c-.53-.08-.92-.16-1.41-.28-.25-.06-.48-.12-.7-.19a5.55 5.55 0 0 1-1.83-.9 2 2 0 0 1-.52-.55v1.56a1.37 1.37 0 0 0 .54 1 7.6 7.6 0 0 0 3.66 1.38 17.38 17.38 0 0 0 2.69.21 15.9 15.9 0 0 0 3.85-.45 7.33 7.33 0 0 0 2-.77 1.72 1.72 0 0 0 1-1.35s.06-1.42 0-1.54a3.42 3.42 0 0 1-.72.79z"/><path class="cls-2" d="M28.14 65.19a7.6 7.6 0 0 0 3.67 1.38 16.1 16.1 0 0 0 2.68.21 15.84 15.84 0 0 0 3.85-.45 7.39 7.39 0 0 0 1.94-.77 3.61 3.61 0 0 0 .43-.3 1.88 1.88 0 0 0 .52-.68 1.15 1.15 0 0 0 .06-.37s.05-1.43 0-1.54c-.23.3-.82 1.21-3.54 1.77a19.41 19.41 0 0 1-3.51.31 12.61 12.61 0 0 1-5.51-1.1A4.31 4.31 0 0 1 28 63a3.56 3.56 0 0 1-.41-.53v1.71a1.37 1.37 0 0 0 .55 1.01zM41.49 70.17a3.07 3.07 0 0 1-.83.81 5.71 5.71 0 0 1-1.51.68 15.16 15.16 0 0 1-4.71.59 19 19 0 0 1-2.33-.18A14.867 14.867 0 0 1 30 71.6a5.62 5.62 0 0 1-1.84-.89 2.11 2.11 0 0 1-.51-.56v1.56a1.41 1.41 0 0 0 .54 1 7.6 7.6 0 0 0 3.67 1.38 17.24 17.24 0 0 0 2.68.21 15.92 15.92 0 0 0 3.86-.45 7.62 7.62 0 0 0 2-.77c.64-.39 1-.85 1-1.35.06-.02.11-1.44.09-1.56z"/><path class="cls-2" d="M31.84 71.6a17.29 17.29 0 0 0 2.68.2 15.44 15.44 0 0 0 3.86-.45 7.27 7.27 0 0 0 1.95-.77 3 3 0 0 0 .43-.31 1.7 1.7 0 0 0 .52-.68.94.94 0 0 0 .07-.37v-1.54c-.23.3-.82 1.21-3.53 1.78a20.62 20.62 0 0 1-3.52.3 12.72 12.72 0 0 1-5.5-1.09A4.18 4.18 0 0 1 28 68a2.93 2.93 0 0 1-.42-.52v1.7a1.33 1.33 0 0 0 .54 1 7.51 7.51 0 0 0 3.72 1.42z"/></g></svg>