<svg id="TARGETS" xmlns="http://www.w3.org/2000/svg" viewBox="0 0 94.85 94.85" width="94.85" height="94.85"><defs><style>.cls-1{fill:#ff3a21}.cls-2{fill:#fff}</style></defs><title>Goal_5_RGB_NG</title><path class="cls-1" d="M0 0h94.85v94.85H0z"/><path class="cls-2" d="M29.11 25.85a5.42 5.42 0 1 0-5.41-5.41 5.41 5.41 0 0 0 5.41 5.41zM67.66 25.54a5.48 5.48 0 1 0-5.49-5.47 5.47 5.47 0 0 0 5.49 5.47z"/><path class="cls-2" d="M59.78 34.83a5.5 5.5 0 0 1 .89 2.94v9.46h14V37c0-.43.15-1.08.77-1.08.89 0 1 .66 1 1.15v10.16h4.25V34.94a7.29 7.29 0 0 0-6.63-7.28H63.27a4.65 4.65 0 0 1-3.93-1.82l-9.05-12.51a7.52 7.52 0 0 0-1.58-1.75c-1.07-.61-2 0-2.83 1l-9.94 13.13c-1.75 2.18-3.48 2.76-4.59 2.76H23c-3.56 0-5.17 4.23-5.17 4.23l-4.5 14.63h4.85l3.21-10.8s.2-.94.9-.73.44 1.2.44 1.2l-2.84 10.33h17.7l-2.21-8a7.11 7.11 0 0 1 .75-5.15l3.49-5.37 8.28-11.56 6.89 10.52zM36.33 50h-26v2.67h2.14v30.78H38V52.67h2.14V50zm-3.57 7.28H17.12V54.4h15.64zM80.79 50H54.74v2.67h2.13v30.78h25.56V52.67h2.13V50zm-3.19 7.28H62V54.4h15.6z"/></svg>