<svg id="TARGETS" xmlns="http://www.w3.org/2000/svg" viewBox="0 0 94.85 94.85" width="94.85" height="94.85"><defs><style>.cls-1{fill:#4c9f38}.cls-2{fill:#fff}</style></defs><title>Goal_3_RGB_NG</title><path class="cls-1" d="M0 0h94.85v94.85H0z"/><path class="cls-2" d="M47.43 21.16a6.7 6.7 0 1 0-6.7-6.7 6.69 6.69 0 0 0 6.7 6.7zM66.48 47.76l-5.56-18.13s-2-5.23-6.4-5.23H40.33c-4.41 0-6.4 5.23-6.4 5.23l-5.57 18.13s-1 3.32 1.83 4.15 3.66-2.41 3.66-2.41l4.48-15.13s.25-1.16 1.12-.91S40 35 40 35l-7.81 28.3h7.26v20.3a3.49 3.49 0 1 0 7 0V63.3h2v20.3a3.49 3.49 0 0 0 7 0V63.3h7.27L54.85 35s-.33-1.25.54-1.5 1.12.91 1.12.91L61 49.5s.86 3.24 3.66 2.41 1.82-4.15 1.82-4.15zM45.74 32.63c1 0 1.36 1 1.73 1.43.37-.38.93-1.43 1.77-1.43 1.14 0 1.75.95 1.75 2.12a2.14 2.14 0 0 1-.6 1.5l-2.92 2.93-2.92-2.93a2.15 2.15 0 0 1-.61-1.5 1.89 1.89 0 0 1 1.8-2.12zm10.57 17.76a8.84 8.84 0 1 1-8.84-8.83 8.84 8.84 0 0 1 8.84 8.83z"/><path class="cls-2" d="M49.91 46.44c-1.17 0-1.95 1.47-2.47 2-.52-.54-1-2-2.41-2-1.59 0-2.51 1.32-2.51 3a3 3 0 0 0 .85 2.1l4.07 4.08 4.07-4.08a3 3 0 0 0 .84-2.1c0-1.67-.85-3-2.44-3z"/></svg>