<svg id="TARGETS" xmlns="http://www.w3.org/2000/svg" viewBox="0 0 94.85 94.85" width="94.85" height="94.85"><defs><style>.cls-1{fill:#a21942}.cls-2{fill:#fff}</style></defs><title>Goal_8_RGB_NG</title><path class="cls-1" d="M0 0h94.85v94.85H0z"/><path class="cls-2" d="M85.14 27.43a.84.84 0 0 0-.89-.78h-1.27c-.45 0-.91-.14-1-.63a15.32 15.32 0 0 0-.82-2.45 1.06 1.06 0 0 1 .32-1.24c.39-.32.69-.58 1.06-.91a.87.87 0 0 0 .22-1.11 12.87 12.87 0 0 0-2-2.61.84.84 0 0 0-1.18-.11c-.4.26-.68.45-1 .72s-.82.42-1.22.1c-.75-.56-1.59-1.17-2.1-1.5a1.06 1.06 0 0 1-.48-1.19c.13-.48.22-.87.33-1.36a.86.86 0 0 0-.48-1 12.67 12.67 0 0 0-3.12-1 .85.85 0 0 0-1 .61c-.17.44-.29.76-.44 1.19s-.41.83-.92.8h-2.58a1 1 0 0 1-1.08-.69c-.18-.47-.34-.84-.54-1.29a.84.84 0 0 0-1-.54 12.09 12.09 0 0 0-3.1 1.06.85.85 0 0 0-.47 1.09c.13.45.22.78.36 1.22s.15.91-.28 1.19-1.49 1.06-2.07 1.53a1.06 1.06 0 0 1-1.28.09c-.42-.28-.77-.48-1.19-.74a.87.87 0 0 0-1.12.14 12.69 12.69 0 0 0-1.88 2.68.84.84 0 0 0 .26 1.16c.37.29.64.51 1 .78s.65.65.47 1.13-.61 1.94-.77 2.45a1 1 0 0 1-1 .82l-1.4.11a.88.88 0 0 0-.82.77 12.34 12.34 0 0 0 .06 3.27.84.84 0 0 0 .89.79h1.27c.51 0 .9.13 1 .62a21.09 21.09 0 0 0 .82 2.45 1.05 1.05 0 0 1-.31 1.25c-.39.31-.69.58-1.07.91a.86.86 0 0 0-.21 1.1 12 12 0 0 0 2 2.61.85.85 0 0 0 1.18.12l1-.72c.42-.3.82-.43 1.22-.1s1.59 1.17 2.1 1.49a1.05 1.05 0 0 1 .48 1.29c-.13.49-.22.88-.32 1.37a.85.85 0 0 0 .47 1 11.94 11.94 0 0 0 3.13 1 .84.84 0 0 0 1-.6c.17-.44.29-.77.43-1.2s.41-.82.93-.8h2.57a1.06 1.06 0 0 1 1.09.68c.18.47.34.84.53 1.3a.87.87 0 0 0 1 .54A12.41 12.41 0 0 0 75 45.13a.84.84 0 0 0 .49-1.13c-.12-.46-.21-.79-.35-1.22s-.15-.91.28-1.19 1.62-1.18 2.07-1.54a1.06 1.06 0 0 1 1.28-.05c.42.27.76.48 1.19.73a.87.87 0 0 0 1.12-.14A12.2 12.2 0 0 0 83 37.92a.84.84 0 0 0-.26-1.15c-.37-.3-.64-.51-1-.79s-.66-.64-.47-1.12.54-1.86.73-2.46a1.06 1.06 0 0 1 1-.82c.5 0 .9-.06 1.39-.11a.85.85 0 0 0 .82-.77 11.94 11.94 0 0 0-.07-3.27zM68 40.15a10.7 10.7 0 1 1 10.68-10.66A10.7 10.7 0 0 1 68 40.15z"/><path class="cls-2" d="M60.07 26.4c.25.16.42 0 .52-.14a.35.35 0 0 0 0-.38c-.06-.13.12-.23.25-.27a5.73 5.73 0 0 0 .72-.42 2.37 2.37 0 0 1 1.43 0 .77.77 0 0 0 .94-.19 2.46 2.46 0 0 1 .69-.57c.13-.06-.34-.5-.73 0s-.59.53-.77.53-1.27-.28-1.41-.62.35-.6.75-.79a8.82 8.82 0 0 1 1.78-.25c.57-.13 1.3-.41 1.67-.16s-1.54.67-.91 1c.22.13 1.23-.57 1.57-.75.81-.42-.78-.56-.57-1.41s-1.87-.61-3-.52a9 9 0 0 0-1.47 1.13.33.33 0 0 1 .3.16 1.32 1.32 0 0 1-.13.6 1.66 1.66 0 0 1-1 .45.42.42 0 0 1-.19-.08 6.87 6.87 0 0 0-.48.68 1.54 1.54 0 0 1 .7-.24c.24 0 .56.08.59.24s-.59.44-.7.54c-.33.3-.84.91-1.14 1a.27.27 0 0 1-.22 0c-.09.21-.16.42-.23.63a1.09 1.09 0 0 1 1.04-.17zM75.57 29a2.31 2.31 0 0 1-1 .39 1.3 1.3 0 0 0-.49 1.14c.07.36.93 1.34.29 1.3a3.69 3.69 0 0 1-1.46-1.28c-.19-.52-.41-1-.56-1.43a.56.56 0 0 0-.89-.26c-.33.23.1.46-.15.95s-.41.92-.77.52c-.92-1.06-2.25-.54-2.46-1.72C68 28 67.43 28 67 27.66s-.71-.55-.79-.29 1.44 1.43 1.54 1.73c.16.46-.45.86-.9 1s-.64-.25-1.08-.71-.63-.79-.66-.43a2 2 0 0 0 .86 1.57c.38.24.81.35.69.74s0 .18-.44.59a1.16 1.16 0 0 0-.51 1.14c0 .59-.12.63-.22 1.11s-.3.07-.49.79a2.71 2.71 0 0 1-.58 1.21 2 2 0 0 1-1.29.48c-.43 0-.49-1.18-.48-1.76 0-.21-.29.4-.44-.83-.09-.79-.6.08-.63-.44s-.29-.43-.55-.75-.59 0-1 .19-.22.25-.74.08a9.41 9.41 0 0 0 6 5.4.38.38 0 0 1-.11-.46 2.13 2.13 0 0 1 1.85-1.12c1.53-.14 3.54 1 3.86.82s1-1 1.92-1a1.43 1.43 0 0 1 .85.21 9.11 9.11 0 0 0 .94-.81 2.12 2.12 0 0 1-.29-.11c-.52-.26-.45.16-.71.06s.29-.67-.47-.18-.56-.08-.88-.92a1.7 1.7 0 0 1 1-2A12 12 0 0 1 75 32.5c1.13-.28 1.37-.95 1.57-.54l.12.22a1.33 1.33 0 0 1 .13.57 9.43 9.43 0 0 0 .42-1.4c-.27-.11-1.28-1.54-.45-2.49.13-.16-.29-.63-.17-.64a.76.76 0 0 1 .79.57 10.29 10.29 0 0 0-.22-1.46 1.22 1.22 0 0 1 0 .33.62.62 0 0 1-1.1.09c-.1-.15-.5-.53-.49.13s.57.72-.03 1.12zm-8.86 3.7c-.13.21-.49 1.79-.73 1.61s.11-1.84.18-2c.37-.66 1.17-.62.55.38zm3.86-1.87a.83.83 0 0 1-.9-.08c-.24-.18.15-.49.29-.5.32-.04.79.41.61.57zm3.9-.33c-.08-.24.11-.37.3-.28a.94.94 0 0 1 .44.55c0 .15-.38.13-.48.09s-.19-.14-.26-.37zm1.27 1.24a.85.85 0 0 1-.9-.08c-.24-.19.15-.49.29-.5.32-.04.79.4.61.57zM59.72 27.44a8.34 8.34 0 0 1 1.54.39c.55.2 1.41.67 1.91.47s.65-.35.61-.65-.33-.47-.69-.22c-.14.1-.42-.57-.64-.54s.27.78.08.82-.56-.78-.63-.91-.36-.46-.62-.21c-.56.52-1.46.49-1.64.62a.77.77 0 0 1-.19.11c-.37.15-.49-.22-.5-.51a9.56 9.56 0 0 0-.32 1.61v-.07c.31-.58.37-.64.47-.7s.37-.14.37-.14z"/><g><path class="cls-2" d="M24.73 41.86a6.12 6.12 0 0 1-1.66.74 16.88 16.88 0 0 1-5.19.64 21.21 21.21 0 0 1-2.57-.2 14.86 14.86 0 0 1-1.56-.3c-.27-.06-.53-.13-.77-.2a6.32 6.32 0 0 1-2-1 2.14 2.14 0 0 1-.56-.6V42.62a1.52 1.52 0 0 0 .6 1.1 8.53 8.53 0 0 0 4 1.5 19.55 19.55 0 0 0 2.95.22 18 18 0 0 0 4.3-.44h.05a8.39 8.39 0 0 0 2.15-.83c.71-.43 1.12-.93 1.12-1.47 0 0 .06-1.54 0-1.67a3.31 3.31 0 0 1-.86.83zM17.28 36.71c4.19 0 7.59-1.26 7.59-2.81 0 0 .08-1.45.06-1.76a2.17 2.17 0 0 0-.13-.6 1.69 1.69 0 0 0 .86-1.27s.07-1.62 0-1.93c-.2-1.9-4-2.92-7.63-2.92s-7.63 1.08-7.63 3.09c0 .1.08 1.76.08 1.76a1 1 0 0 0 .09.33 1.93 1.93 0 0 0-1 1.54c0 .1.07 1.76.07 1.76a1.47 1.47 0 0 0 .64 1.1 8.37 8.37 0 0 0 4 1.5 18.37 18.37 0 0 0 3 .21zm.78-10.5c4.05 0 6.87 1.21 6.87 2.3s-2.82 2.3-6.87 2.3-6.86-1.21-6.86-2.3 2.8-2.3 6.86-2.3zm-7.65 5.93a1.22 1.22 0 0 1 .59-.86 3.64 3.64 0 0 0 .77.56 14 14 0 0 0 6.3 1.24 16 16 0 0 0 5.36-.82 6.83 6.83 0 0 0 .66-.3.61.61 0 0 1 .05.18c0 1.09-2.82 2.3-6.87 2.3s-6.86-1.21-6.86-2.3z"/><path class="cls-2" d="M15 42.53a19.35 19.35 0 0 0 2.95.22 18 18 0 0 0 4.25-.48h.05a8.16 8.16 0 0 0 2.14-.84 4.33 4.33 0 0 0 .47-.33 1.83 1.83 0 0 0 .57-.74 1.09 1.09 0 0 0 .08-.39v-1.68c-.26.32-.91 1.32-3.9 1.93a22.23 22.23 0 0 1-3.87.33c-2.42-.05-4.94-.49-6.07-1.19a5.37 5.37 0 0 1-1-.65 4.62 4.62 0 0 1-.46-.57v1.85A1.48 1.48 0 0 0 11 41a8.43 8.43 0 0 0 4 1.53z"/><path class="cls-2" d="M25.47 34.87a1.64 1.64 0 0 0-.2-.17 1.49 1.49 0 0 0-.31-.17 1.83 1.83 0 0 1-.34.45 1.56 1.56 0 0 1 .29.16.71.71 0 0 1 .36.58.66.66 0 0 1-.27.5 1.69 1.69 0 0 1-.29.22l-.44.25s-.47.21-.67.28c0 0-.47.16-.67.22l-.93.21-1.16.19-1.19.11c-.12 0-1.25.08-1.75.08a15.69 15.69 0 0 1-2.42-.18c-.58-.08-1.17-.19-1.71-.31a11.51 11.51 0 0 1-1.77-.58 3.27 3.27 0 0 1-.94-.64 3.2 3.2 0 0 1-.59-.79v1.92a1.49 1.49 0 0 0 .6 1.09 8.32 8.32 0 0 0 4 1.5 19.55 19.55 0 0 0 2.95.22 18 18 0 0 0 4.25-.48h.05a8.38 8.38 0 0 0 2.15-.84 2.44 2.44 0 0 0 .47-.33 1.86 1.86 0 0 0 .58-.74 1.07 1.07 0 0 0 .07-.39s.06-1.6.06-1.64a1.13 1.13 0 0 0-.05-.39.89.89 0 0 0-.13-.33zM34.75 31.23c4.19 0 7.59-1.26 7.59-2.81 0 0 .09-1.45.06-1.76a1.63 1.63 0 0 0-.13-.6 1.69 1.69 0 0 0 .86-1.28s.07-1.61 0-1.92c-.2-1.9-4-2.92-7.63-2.92S27.88 21 27.88 23c0 .1.07 1.75.07 1.75a1 1 0 0 0 .1.34 1.92 1.92 0 0 0-1 1.54c0 .1.07 1.76.07 1.76a1.5 1.5 0 0 0 .6 1.09 8.32 8.32 0 0 0 4 1.5 19.55 19.55 0 0 0 3.03.25zm.79-10.5c4 0 6.86 1.21 6.86 2.3s-2.82 2.3-6.86 2.3-6.87-1.22-6.87-2.3 2.82-2.3 6.87-2.3zm-7.66 5.93a1.24 1.24 0 0 1 .6-.86 4.15 4.15 0 0 0 .77.56 14 14 0 0 0 6.29 1.24 16 16 0 0 0 5.37-.83c.24-.09.45-.19.66-.29a.58.58 0 0 1 0 .18c0 1.09-2.82 2.3-6.86 2.3s-6.83-1.21-6.83-2.3z"/><path class="cls-2" d="M43.13 29.69a.76.76 0 0 0-.19-.3.81.81 0 0 0-.19-.17 1.54 1.54 0 0 0-.31-.17 1.81 1.81 0 0 1-.35.44 1.86 1.86 0 0 1 .3.17.73.73 0 0 1 .36.58.67.67 0 0 1-.27.5c-.1.07-.17.14-.3.22l-.43.24s-.47.22-.67.29l-.68.22-.9.21-1.16.19-1.19.11c-.12 0-1.25.07-1.75.08a15.6 15.6 0 0 1-2.4-.18 17.3 17.3 0 0 1-1.71-.32 10.19 10.19 0 0 1-1.82-.57 3.27 3.27 0 0 1-.94-.64 3.44 3.44 0 0 1-.6-.79v1.92a1.49 1.49 0 0 0 .6 1.1 8.49 8.49 0 0 0 4 1.5 19.35 19.35 0 0 0 2.95.22 18 18 0 0 0 4.25-.48h.05A8.17 8.17 0 0 0 42 33.2c.17-.11.33-.22.47-.33a1.83 1.83 0 0 0 .57-.74 1.1 1.1 0 0 0 .08-.4s.06-1.6.06-1.63a.86.86 0 0 0-.05-.41zM42.25 36.38a6.4 6.4 0 0 1-1.67.73 17 17 0 0 1-5.18.65 21.06 21.06 0 0 1-2.57-.2 15 15 0 0 1-1.57-.3 7.6 7.6 0 0 1-.76-.21 6.06 6.06 0 0 1-2-1 2.18 2.18 0 0 1-.57-.6V37.13a1.49 1.49 0 0 0 .6 1.1 8.49 8.49 0 0 0 4 1.5 19.59 19.59 0 0 0 3 .22 17.48 17.48 0 0 0 4.25-.49 8.1 8.1 0 0 0 2.22-.81c.7-.43 1.12-.93 1.12-1.47 0 0 .06-1.54 0-1.67a3.47 3.47 0 0 1-.87.87z"/><path class="cls-2" d="M28.49 35.55a8.53 8.53 0 0 0 4 1.5 19.55 19.55 0 0 0 2.95.22 18 18 0 0 0 4.25-.48h.05a8.39 8.39 0 0 0 2.15-.83 5 5 0 0 0 .48-.33 2 2 0 0 0 .57-.74 1.09 1.09 0 0 0 .07-.4v-1.67c-.25.32-.9 1.32-3.9 1.93a22.23 22.23 0 0 1-3.87.33c-2.42 0-4.94-.49-6.07-1.19a5 5 0 0 1-.95-.65 3.61 3.61 0 0 1-.46-.58v1.86a1.5 1.5 0 0 0 .73 1.03zM43.2 40.94a3.22 3.22 0 0 1-.91.88 6.37 6.37 0 0 1-1.67.74 16.85 16.85 0 0 1-5.18.64 19.5 19.5 0 0 1-2.58-.2 14.86 14.86 0 0 1-1.56-.3c-.27-.06-.53-.13-.77-.2a6.59 6.59 0 0 1-2-1 2.18 2.18 0 0 1-.56-.61V42.57a1.51 1.51 0 0 0 .59 1.09 8.37 8.37 0 0 0 4 1.5 19.59 19.59 0 0 0 3 .22 18.08 18.08 0 0 0 4.27-.38 8.24 8.24 0 0 0 2.17-.9c.71-.42 1.12-.93 1.12-1.46.04-.02.1-1.56.08-1.7z"/><path class="cls-2" d="M32.57 42.49a19.45 19.45 0 0 0 3 .22 18 18 0 0 0 4.25-.48 8.16 8.16 0 0 0 2.18-.85 2.44 2.44 0 0 0 .47-.33 1.86 1.86 0 0 0 .58-.74 1.07 1.07 0 0 0 .07-.39v-1.67c-.25.32-.9 1.31-3.9 1.92a22.23 22.23 0 0 1-3.87.33c-2.42 0-4.94-.48-6.07-1.19a4.53 4.53 0 0 1-.95-.65 3.6 3.6 0 0 1-.47-.57v1.86a1.48 1.48 0 0 0 .6 1.06 8.32 8.32 0 0 0 4.11 1.48z"/></g><path class="cls-2" d="M67.54 62.58l-7.25 5.7a.35.35 0 0 1-.3.08c-.17 0-.22-.14-.22-.35v-2.89H30a.27.27 0 0 1-.25-.29v-4.95a.28.28 0 0 1 .25-.31h29.77v-2.88c0-.22.06-.32.22-.36a.4.4 0 0 1 .31.08l7.2 5.49a.41.41 0 0 1 .21.38.38.38 0 0 1-.17.3zM27.93 76.75l7.25 5.7a.38.38 0 0 0 .3.08c.17 0 .22-.14.22-.35v-2.89h29.75a.27.27 0 0 0 .25-.3V74a.28.28 0 0 0-.25-.3H35.7v-2.85c0-.21-.06-.31-.22-.35a.36.36 0 0 0-.31.08L28 76.06a.43.43 0 0 0-.21.39c-.02.11.02.18.14.3z"/></svg>