<svg id="TARGETS" xmlns="http://www.w3.org/2000/svg" viewBox="0 0 94.85 94.85" width="94.85" height="94.85"><defs><style>.cls-1{fill:#fd6925}.cls-2{fill:#fff}</style></defs><title>Goal_9_RGB_NG</title><path class="cls-1" d="M0 0h94.85v94.85H0z"/><path class="cls-2" d="M88.17 31v-.05L83 27.08a.23.23 0 0 0-.39.15v3.07H76.5a5.24 5.24 0 0 0-4.12-4.19v-9.49h3a.23.23 0 0 0 .22-.23.25.25 0 0 0-.05-.15l-4-5.1v-.05a.32.32 0 0 0-.2-.07.29.29 0 0 0-.17 0l-3.85 5.09a.24.24 0 0 0-.07.16.24.24 0 0 0 .21.24h3V26a5.19 5.19 0 0 0-2.88 8.58l-12.15 7.68v-7.63a.54.54 0 0 0-.26-.46l-8-4.64a.55.55 0 0 0-.53 0l-8 4.64a.55.55 0 0 0-.27.46v7.1l-12.95-8.08a5.13 5.13 0 0 0 .66-5.07l15.6-9.88L43.5 21v.05a.23.23 0 0 0 .32 0 .22.22 0 0 0 .08-.13v-.05l1.57-6.26v-.07a.25.25 0 0 0-.06-.2.31.31 0 0 0-.16-.1h-.05l-6.38.11a.22.22 0 0 0-.17.05.24.24 0 0 0 0 .31l.07.09 1.81 2.3L25 26.91a5.16 5.16 0 0 0-2.75-1.48V17h3a.23.23 0 0 0 .22-.23.25.25 0 0 0-.05-.15l-3.95-5.1h-.05a.32.32 0 0 0-.2-.07.29.29 0 0 0-.17.05l-3.85 5.09a.24.24 0 0 0-.07.16.24.24 0 0 0 .21.24h3v8.45a5.21 5.21 0 0 0-4.17 4.89l-4.89-3.63a.23.23 0 0 0-.39.15V30H6.05v2h4.81v2.88a.24.24 0 0 0 .38.17l4.83-3.75a5.21 5.21 0 0 0 4.14 4.4v5.19a3.83 3.83 0 1 0 2 0v-5.23a5.06 5.06 0 0 0 1.67-.66l14 8.81-7.37 4.25a.54.54 0 0 0-.26.46v9.29a.54.54 0 0 0 .26.46l8 4.64a.59.59 0 0 0 .26.07.6.6 0 0 0 .27-.07L45.87 59v14.55a5.21 5.21 0 0 0-4.08 4H29.4v-2.9a.24.24 0 0 0-.23-.22.25.25 0 0 0-.15 0l-5.11 4v.05a.28.28 0 0 0-.08.2.38.38 0 0 0 .06.17h.05L29 82.81a.23.23 0 0 0 .39-.14v-3.13h12.36a5.2 5.2 0 0 0 10.25.12h20.21v3.06a.24.24 0 0 0 .24.22.22.22 0 0 0 .15-.06l5.1-4h.05a.29.29 0 0 0 .07-.19.28.28 0 0 0-.06-.18l-5.08-3.85a.25.25 0 0 0-.17-.06.23.23 0 0 0-.23.21v3H53.73l11-6.09 1.63 2.57a.24.24 0 0 0 .31.07.26.26 0 0 0 .1-.13L69.06 68v-.07a.28.28 0 0 0 0-.21.3.3 0 0 0-.14-.11h-.07l-6.35-.54a.26.26 0 0 0-.17 0 .23.23 0 0 0-.08.3l.06.09 1.49 2.37-12.17 6.71a5.26 5.26 0 0 0-3.76-3V59l6.78 3.91a.59.59 0 0 0 .26.07.68.68 0 0 0 .27-.07l8-4.64a.54.54 0 0 0 .26-.46v-9.26a.54.54 0 0 0-.26-.46l-6.94-4L69.22 36a5.21 5.21 0 0 0 7.26-3.67h6.1v3a.24.24 0 0 0 .23.22.25.25 0 0 0 .15 0l5.11-4v-.05a.28.28 0 0 0 .08-.2.49.49 0 0 0 .02-.3zM23.05 44.53a1.82 1.82 0 1 1-2.2-1.78h.77a1.82 1.82 0 0 1 1.43 1.78zm-1.79-10.77a3.22 3.22 0 1 1 3.22-3.21 3.21 3.21 0 0 1-3.22 3.21zm17 27.8l-7-4v-8.09l7 4zm16.08-26v7.38h-.06l-6.39-3.69zm-15 0l6.45 3.72-6 3.44-.5-.31zm7 4.64v7.44l-6.44-3.73zm-7 21.37v-7.46l6.45 3.73zm.54-8.37l6.44-3.72v7.45zm10.21 25.46a3.22 3.22 0 1 1-3.22-3.21 3.22 3.22 0 0 1 3.22 3.21zm-2.69-31v-7.47l6.45 3.72zm15 9.9l-7 4V53.5l7-4zm-.53-9l-7 4-7-4 7-4 .26.15v.08h.05zm9.49-14.11a3.22 3.22 0 1 1 3.21-3.21 3.22 3.22 0 0 1-3.19 3.2z"/></svg>