<svg id="TARGETS" xmlns="http://www.w3.org/2000/svg" viewBox="0 0 94.85 94.85" width="94.85" height="94.85"><defs><style>.cls-1{fill:#dd1367}.cls-2{fill:#fff}</style></defs><title>Goal_10_RGB_NG</title><path class="cls-1" d="M0 0h94.85v94.85H0z"/><path class="cls-2" d="M12.46 49.77A2.74 2.74 0 1 0 9.68 47a2.76 2.76 0 0 0 2.78 2.77zM15.7 50.82H9.22a3.66 3.66 0 0 0-3.36 3.63V62a1.06 1.06 0 0 0 1.07 1.06A1.07 1.07 0 0 0 8 62v-6.48c0-.24.07-.57.52-.57s.38.33.39.53V75A1.55 1.55 0 0 0 12 75V63.75a.43.43 0 0 1 .45-.45.42.42 0 0 1 .44.45V75A1.55 1.55 0 0 0 16 75V55.48c0-.2.08-.53.39-.53.46 0 .53.33.53.57V62a1.08 1.08 0 0 0 2.15 0v-7.55a3.67 3.67 0 0 0-3.37-3.63zM27.94 26l5.56 2.72v-2.05l-3.07-1.31 3.07-1.3v-2.05l-5.56 2.72V26zM41.39 24.77A2.19 2.19 0 0 0 43 22.54v-1.2c0-2-.93-3.16-3.07-3.16-2.4 0-3.23 1.43-3.23 3.46v1.22h2.11v-1.4c0-.86.27-1.34 1-1.34s1 .48 1 1.24v1.48A1.09 1.09 0 0 1 39.54 24h-.88v1.77h1c.81 0 1.14.39 1.14 1.12v2.28c0 .73-.33 1.24-1 1.24s-1.08-.53-1.08-1.34v-2h-2.17v1.81c0 2.1.83 3.44 3.19 3.44s3.36-1.24 3.36-3.15v-2a2.13 2.13 0 0 0-1.71-2.4zM51.62 26.26A2.43 2.43 0 0 0 49 29v.59a2.59 2.59 0 1 0 5.17 0V29a2.42 2.42 0 0 0-2.55-2.74zm.79 3.56c0 .61-.2 1-.79 1s-.8-.41-.8-1v-1.08c0-.61.21-1 .8-1s.79.41.79 1zM47 24.23a2.42 2.42 0 0 0 2.58-2.73v-.59a2.58 2.58 0 1 0-5.16 0v.59A2.42 2.42 0 0 0 47 24.23zm-.79-3.56c0-.61.2-1 .79-1s.79.41.79 1v1.07c0 .61-.2 1-.79 1s-.79-.41-.79-1zM52.37 18.35L44.8 32.14h1.41l7.56-13.79h-1.4z"/><g><path class="cls-2" d="M71.26 52.09a2.58 2.58 0 0 0 2.59-2.56 2.54 2.54 0 0 0-1.34-2.23.88.88 0 0 0 .14-.44 1.34 1.34 0 0 0-2.61 0 .79.79 0 0 0 .1.37 2.55 2.55 0 0 0 1.12 4.86zM78.65 61.43l-2.16-6.92s-.77-2-2.48-2h-5.5c-1.71 0-2.48 2-2.48 2l-2.16 6.92s-.31 1 .47 1.48a.31.31 0 0 0 0 .1l-2.53 13a.4.4 0 0 0 .32.46h.07a.42.42 0 0 0 .4-.33l2.53-13a.48.48 0 0 0 0-.12c.68-.12.91-.94.91-.94l1.74-5.78s.1-.44.44-.35.21.58.21.58l-3 10.82h2.82v7.75a1.35 1.35 0 0 0 2.7 0v-7.73h.77v7.75a1.36 1.36 0 0 0 2.71 0v-7.75h2.82l-3-10.82s-.13-.48.21-.58.43.35.43.35l1.74 5.78s.33 1.24 1.42.92.6-1.59.6-1.59z"/></g><g><path class="cls-2" d="M83.7 62.07a2.3 2.3 0 1 0-2.3-2.3 2.3 2.3 0 0 0 2.3 2.3zM89.22 68.76c0-.1-.69-1.73-.89-2.24-1.39-3.52-1.62-3.52-2.87-3.58H82c-1.26 0-1.49 0-2.88 3.58-.2.51-1 2.5-1 2.6s-.34.84.43 1.11 1-.58 1-.58l1.41-3.48s0-.08.09-.08 0 .08 0 .12v9.07a1.2 1.2 0 0 0 1.19 1.24 1.18 1.18 0 0 0 1.16-1.24v-3.62s0-.56.36-.55.35.55.35.55v3.62a1.2 1.2 0 0 0 1.19 1.24 1.17 1.17 0 0 0 1.15-1.24V66.2v-.11l.1.08 1.27 3.12s.38.84 1.08.51.32-1.04.32-1.04z"/></g><g><path class="cls-2" d="M39.49 73.13a5.83 5.83 0 0 1-1.56.69 16.12 16.12 0 0 1-4.88.61 18.84 18.84 0 0 1-2.43-.19c-.55-.08-1-.16-1.47-.28l-.72-.19a6.1 6.1 0 0 1-1.9-.92 1.93 1.93 0 0 1-.53-.57V73.92a1.42 1.42 0 0 0 .56 1 8.08 8.08 0 0 0 3.81 1.41 18.49 18.49 0 0 0 2.78.21 16.54 16.54 0 0 0 4-.46 7.88 7.88 0 0 0 2-.79c.66-.41 1-.88 1-1.38 0 0 .06-1.45 0-1.58a3.1 3.1 0 0 1-.66.8zM32.47 68.28c4 0 7.15-1.18 7.15-2.65 0 0 .08-1.36.06-1.65a1.86 1.86 0 0 0-.13-.56 1.62 1.62 0 0 0 .81-1.21s.07-1.51 0-1.81c-.19-1.79-3.8-2.75-7.19-2.75S26 58.67 26 60.56c0 .09.07 1.65.07 1.65a1.17 1.17 0 0 0 .09.32 1.82 1.82 0 0 0-.9 1.45c0 .09.07 1.65.07 1.65a1.42 1.42 0 0 0 .56 1 8 8 0 0 0 3.8 1.41 18.74 18.74 0 0 0 2.78.24zm.74-9.88c3.81 0 6.46 1.14 6.46 2.16s-2.67 2.16-6.46 2.16-6.46-1.14-6.46-2.16 2.65-2.16 6.46-2.16zM26 64a1.14 1.14 0 0 1 .56-.81 4 4 0 0 0 .72.53 13.28 13.28 0 0 0 5.93 1.16 15.07 15.07 0 0 0 5.05-.77c.23-.09.42-.19.62-.28a.53.53 0 0 1 0 .17c0 1-2.65 2.16-6.46 2.16S26 65 26 64z"/><path class="cls-2" d="M30.35 73.76a18.49 18.49 0 0 0 2.78.21 16.54 16.54 0 0 0 4-.46 7.88 7.88 0 0 0 2-.79 3.84 3.84 0 0 0 .44-.32 1.7 1.7 0 0 0 .54-.69 1 1 0 0 0 .07-.37v-1.58c-.24.3-.85 1.24-3.67 1.81a20.81 20.81 0 0 1-3.64.32 13.46 13.46 0 0 1-5.72-1.12 4.33 4.33 0 0 1-.9-.62 3.44 3.44 0 0 1-.43-.54v1.72a1.42 1.42 0 0 0 .56 1 8.08 8.08 0 0 0 3.97 1.43z"/><path class="cls-2" d="M40.19 66.55a1.42 1.42 0 0 0-.19-.16 1.57 1.57 0 0 0-.29-.16 2 2 0 0 1-.33.42 1.63 1.63 0 0 1 .28.15.69.69 0 0 1 .34.55.62.62 0 0 1-.26.47 2.12 2.12 0 0 1-.27.21l-.41.23s-.44.2-.63.27c0 0-.44.15-.64.2s-.62.16-.85.2c0 0-.76.14-1.09.18l-1.12.11-1.65.07a15 15 0 0 1-2.28-.17c-.55-.08-1.1-.18-1.61-.3a10 10 0 0 1-1.71-.54 2.81 2.81 0 0 1-.88-.6 2.92 2.92 0 0 1-.57-.75v1.81a1.42 1.42 0 0 0 .56 1 8 8 0 0 0 3.8 1.41 17.44 17.44 0 0 0 2.78.21 16.62 16.62 0 0 0 4-.46 7.21 7.21 0 0 0 2-.79 4.38 4.38 0 0 0 .45-.31 1.82 1.82 0 0 0 .54-.7 1.16 1.16 0 0 0 .07-.37s.06-1.51.06-1.54a.78.78 0 0 0-.06-.37.79.79 0 0 0-.04-.27zM48.93 63.12c3.94 0 7.14-1.18 7.14-2.65 0 0 .08-1.36.06-1.65a1.45 1.45 0 0 0-.13-.57 1.58 1.58 0 0 0 .82-1.2s.06-1.52 0-1.81c-.19-1.79-3.79-2.75-7.19-2.75s-7.2 1-7.2 2.91c0 .09.07 1.65.07 1.65a1.25 1.25 0 0 0 .08.32 1.8 1.8 0 0 0-.9 1.45c0 .09.07 1.65.07 1.65a1.39 1.39 0 0 0 .56 1 7.87 7.87 0 0 0 3.81 1.41 17.26 17.26 0 0 0 2.81.24zm.73-9.88c3.81 0 6.47 1.14 6.47 2.16s-2.66 2.16-6.47 2.16-6.46-1.14-6.46-2.16 2.66-2.16 6.46-2.16zm-7.2 5.58A1.17 1.17 0 0 1 43 58a3.27 3.27 0 0 0 .73.53 13.06 13.06 0 0 0 5.92 1.17 15.07 15.07 0 0 0 5-.77c.23-.09.43-.19.62-.28a.47.47 0 0 1 0 .17c0 1-2.65 2.16-6.46 2.16s-6.35-1.14-6.35-2.16z"/><path class="cls-2" d="M56.82 61.67a.76.76 0 0 0-.18-.28l-.18-.16a2.11 2.11 0 0 0-.3-.16 1.7 1.7 0 0 1-.32.42 2.15 2.15 0 0 1 .28.15.68.68 0 0 1 .33.55.61.61 0 0 1-.25.47l-.28.21-.41.23s-.44.2-.63.27l-.63.2-.86.2-1.09.23-1.12.11-1.64.07a14.86 14.86 0 0 1-2.28-.18c-.55-.08-1.11-.18-1.62-.3a10 10 0 0 1-1.71-.54 3 3 0 0 1-.88-.6 3.33 3.33 0 0 1-.56-.75v1.81a1.42 1.42 0 0 0 .56 1A8.08 8.08 0 0 0 46.89 66a18.49 18.49 0 0 0 2.78.21 16.54 16.54 0 0 0 4-.46 7.88 7.88 0 0 0 2-.79 3.84 3.84 0 0 0 .44-.32 1.7 1.7 0 0 0 .54-.69 1 1 0 0 0 .07-.37s.06-1.51.06-1.55a1 1 0 0 0 .04-.36zM56 68a5.77 5.77 0 0 1-1.57.69 16.07 16.07 0 0 1-4.88.61 18.7 18.7 0 0 1-2.42-.19c-.55-.08-1-.16-1.47-.28l-.72-.2a5.83 5.83 0 0 1-1.9-.91 2.26 2.26 0 0 1-.54-.57V68.74a1.42 1.42 0 0 0 .56 1 8.07 8.07 0 0 0 3.8 1.41 18.77 18.77 0 0 0 2.79.2 16.57 16.57 0 0 0 4-.45 7.88 7.88 0 0 0 2-.79c.67-.41 1.06-.88 1.06-1.39 0 0 .06-1.45 0-1.57A3.1 3.1 0 0 1 56 68z"/><path class="cls-2" d="M43 67.19a8 8 0 0 0 3.8 1.41 18.73 18.73 0 0 0 2.79.21 16.54 16.54 0 0 0 4-.46 7.88 7.88 0 0 0 2-.79 3.25 3.25 0 0 0 .45-.32 1.87 1.87 0 0 0 .54-.69 1 1 0 0 0 .07-.38V64.6c-.24.3-.85 1.24-3.67 1.81a22 22 0 0 1-3.65.32 13.44 13.44 0 0 1-5.71-1.12 4.75 4.75 0 0 1-.9-.62 3.83 3.83 0 0 1-.44-.54v1.72a1.42 1.42 0 0 0 .72 1.02zM56.88 72.27a3.18 3.18 0 0 1-.86.82 6 6 0 0 1-1.57.7 15.83 15.83 0 0 1-4.88.6 18.57 18.57 0 0 1-2.42-.19 13.2 13.2 0 0 1-1.47-.28c-.26-.06-.5-.12-.72-.19a5.82 5.82 0 0 1-1.91-.92 2.18 2.18 0 0 1-.53-.56V73.89a1.4 1.4 0 0 0 .56 1 7.88 7.88 0 0 0 3.8 1.41 17.44 17.44 0 0 0 2.78.21 17.08 17.08 0 0 0 4-.45 7.67 7.67 0 0 0 2-.78c.67-.4 1.06-.87 1.06-1.38.13-.06.18-1.51.16-1.63z"/><path class="cls-2" d="M46.87 73.72a17.26 17.26 0 0 0 2.78.21 17.08 17.08 0 0 0 4-.45h.05a7.67 7.67 0 0 0 2-.78 3.22 3.22 0 0 0 .45-.31 1.69 1.69 0 0 0 .53-.7 1 1 0 0 0 .08-.37v-1.57c-.24.3-.85 1.23-3.67 1.81a20.84 20.84 0 0 1-3.64.31c-2.28 0-4.66-.46-5.71-1.12a4.43 4.43 0 0 1-.9-.61 3.16 3.16 0 0 1-.44-.54v1.72a1.38 1.38 0 0 0 .56 1 7.88 7.88 0 0 0 3.91 1.4z"/></g><path class="cls-2" d="M54.39 42.22l-7.25 5.7a.36.36 0 0 1-.31.08c-.16 0-.22-.14-.21-.35v-2.89H27.76a.27.27 0 0 1-.25-.3v-5a.28.28 0 0 1 .25-.3h18.85v-2.84c0-.21.06-.31.22-.35a.4.4 0 0 1 .31.08l7.19 5.49a.4.4 0 0 1 .22.38.45.45 0 0 1-.16.3z"/></svg>