<svg id="TARGETS" xmlns="http://www.w3.org/2000/svg" viewBox="0 0 94.85 94.85" width="94.85" height="94.85"><defs><style>.cls-1{fill:#dd1367}.cls-2{fill:#fff}</style></defs><title>Goal_10_RGB_NG</title><path class="cls-1" d="M0 0h94.85v94.85H0z"/><path class="cls-2" d="M85.09 45.86a.72.72 0 0 0-.76-.66h-1.08c-.43 0-.77-.11-.88-.53a13.76 13.76 0 0 0-.7-2.08.88.88 0 0 1 .27-1c.33-.27.58-.5.9-.77a.73.73 0 0 0 .18-.94 10.34 10.34 0 0 0-1.67-2.22.71.71 0 0 0-1-.1l-.89.61c-.36.25-.7.36-1 .09-.63-.47-1.35-1-1.78-1.27a.89.89 0 0 1-.4-1c.11-.41.18-.75.27-1.16a.72.72 0 0 0-.4-.86 10.38 10.38 0 0 0-2.66-.82.71.71 0 0 0-.86.51c-.14.38-.25.65-.37 1s-.35.7-.79.68h-2.18a.88.88 0 0 1-.92-.58c-.16-.4-.29-.71-.46-1.1a.73.73 0 0 0-.84-.46 10.55 10.55 0 0 0-2.62.9.72.72 0 0 0-.45.9c.11.38.18.66.3 1s.13.78-.24 1-1.26.91-1.75 1.31a.91.91 0 0 1-1.09.07c-.36-.23-.65-.41-1-.62a.72.72 0 0 0-.95.12 10.34 10.34 0 0 0-1.6 2.27.72.72 0 0 0 .22 1l.86.66c.35.26.56.55.4 1s-.52 1.65-.66 2.09a.88.88 0 0 1-.83.69l-1.19.1a.73.73 0 0 0-.7.65 10.78 10.78 0 0 0 0 2.78.72.72 0 0 0 .75.66h1.09c.43 0 .76.11.88.53a19.24 19.24 0 0 0 .7 2.08.89.89 0 0 1-.27 1c-.33.27-.59.5-.9.77a.73.73 0 0 0-.18.94 10.34 10.34 0 0 0 1.67 2.22.71.71 0 0 0 1 .1l.89-.61c.36-.25.7-.36 1-.09s1.35 1 1.78 1.27a.89.89 0 0 1 .4 1c-.11.41-.18.75-.28 1.16a.72.72 0 0 0 .41.86 10.31 10.31 0 0 0 2.65.82.72.72 0 0 0 .87-.52c.14-.37.24-.64.37-1s.35-.7.78-.68h2.19a.88.88 0 0 1 .92.58c.15.4.29.71.46 1.1a.72.72 0 0 0 .83.46 10.48 10.48 0 0 0 2.63-.9.72.72 0 0 0 .4-.93l-.3-1c-.13-.42-.13-.78.24-1s1.37-1 1.75-1.3a.91.91 0 0 1 1.09-.07c.35.23.65.41 1 .62a.72.72 0 0 0 1-.12 10 10 0 0 0 1.59-2.27.7.7 0 0 0-.22-1c-.31-.25-.54-.43-.85-.66s-.56-.55-.4-1 .5-1.57.66-2.09a.88.88 0 0 1 .83-.69l1.19-.1a.71.71 0 0 0 .69-.65 10.35 10.35 0 0 0 .01-2.75zM70.5 56.67a9.09 9.09 0 1 1 9.11-9.06 9.1 9.1 0 0 1-9.11 9.06z"/><path class="cls-2" d="M63.8 45c.21.15.36 0 .44-.11a.29.29 0 0 0 0-.33c0-.11.11-.19.22-.22s.46-.28.6-.36a2 2 0 0 1 1.22 0 .66.66 0 0 0 .8-.16 2.06 2.06 0 0 1 .58-.48c.12-.06-.28-.43-.61 0s-.5.45-.66.45-1.08-.24-1.2-.53.3-.51.64-.67a8.13 8.13 0 0 1 1.51-.21c.49-.11 1.11-.35 1.42-.14s-1.31.58-.77.87c.18.1 1-.5 1.33-.64.69-.36-.66-.48-.48-1.2s-1.59-.52-2.53-.45a7.83 7.83 0 0 0-1.25 1c.11 0 .23.06.25.14a1.09 1.09 0 0 1-.11.51 1.35 1.35 0 0 1-.85.38.26.26 0 0 1-.15-.07c-.15.19-.28.38-.41.58a1.16 1.16 0 0 1 .59-.2c.21 0 .47.07.5.2s-.5.37-.6.46c-.27.25-.71.77-1 .83a.24.24 0 0 1-.19 0c-.07.17-.14.35-.2.53a1 1 0 0 1 .91-.18zM77 47.19a1.89 1.89 0 0 1-.84.33 1.08 1.08 0 0 0-.41 1c.06.31.78 1.14.24 1.11a3.15 3.15 0 0 1-1.24-1.09c-.16-.44-.34-.88-.47-1.21a.48.48 0 0 0-.76-.22c-.28.19.08.38-.12.8s-.36.79-.66.45c-.78-.9-1.91-.47-2.09-1.46-.09-.54-.56-.49-1-.8s-.6-.47-.67-.25 1.23 1.15 1.32 1.43-.38.73-.77.82-.54-.21-.91-.6-.54-.67-.56-.37a1.76 1.76 0 0 0 .73 1.34c.32.2.68.3.58.63s0 .15-.37.5a1 1 0 0 0-.41 1c0 .51-.1.54-.18 1s-.26 0-.42.67a2.22 2.22 0 0 1-.5 1 1.64 1.64 0 0 1-1.09.42c-.36 0-.41-1-.41-1.5 0-.18-.25.33-.37-.71-.08-.66-.51.07-.54-.37s-.24-.36-.46-.64-.51 0-.82.17-.18.21-.62.07a8 8 0 0 0 5.11 4.58.32.32 0 0 1-.09-.39 1.79 1.79 0 0 1 1.57-.95c1.3-.13 3 .85 3.28.7s.82-.87 1.63-.84a1.23 1.23 0 0 1 .72.18 8.8 8.8 0 0 0 .8-.69l-.25-.09c-.44-.22-.38.13-.6 0s.24-.57-.4-.15-.47-.07-.75-.78a1.45 1.45 0 0 1 .8-1.73 9 9 0 0 1 1.46-.38c1-.24 1.16-.81 1.34-.46l.09.18a1.17 1.17 0 0 1 .12.49 8.13 8.13 0 0 0 .35-1.19c-.23-.09-1.09-1.31-.38-2.11.11-.14-.24-.54-.14-.54a.61.61 0 0 1 .66.48 7.26 7.26 0 0 0-.17-1.24v.28a.53.53 0 0 1-.94.07c-.08-.12-.42-.44-.41.11s.5.62.02.95zm-7.52 3.14c-.11.17-.41 1.52-.62 1.37s.09-1.57.15-1.67c.28-.58.99-.55.43.3zm3.27-1.59c-.15.15-.56.09-.76-.07s.13-.41.25-.42.63.35.47.49zm3.25-.28c-.07-.2.09-.31.25-.23a.75.75 0 0 1 .38.46c0 .13-.32.11-.41.08s-.13-.11-.22-.31zm1.07 1a.71.71 0 0 1-.76-.07c-.2-.16.13-.41.25-.42s.7.4.54.54zM63.5 45.87a7.31 7.31 0 0 1 1.32.33c.46.17 1.19.57 1.61.4s.56-.3.53-.55-.29-.4-.6-.19c-.11.08-.35-.48-.54-.45s.23.66.07.69-.48-.66-.53-.78-.31-.38-.53-.17c-.47.44-1.24.41-1.39.53a.56.56 0 0 1-.17.09c-.31.13-.41-.19-.42-.43a8.61 8.61 0 0 0-.27 1.36v-.06c.26-.48.31-.54.4-.59a2 2 0 0 1 .3-.12zM70.72 73.38l-2.78-2.23a.59.59 0 0 0-.87 0c-8.84 10.48-24 11.58-34.77 3-.32-.26-.63-.54-.94-.81l3.16-2c.32-.2-.12-.46-.12-.46l-10.83-5.41c-.34-.18-.39 0-.39.17v.1L23.13 78c0 .12.09.42.35.25l3.54-2.21c.69.67 1.41 1.32 2.17 1.93 12.81 10.27 30.95 8.9 41.5-3.53l.11-.14a.61.61 0 0 0-.08-.92zM23.25 22.79l2.9 2.07a.59.59 0 0 0 .87-.11c8.22-11 23.3-12.95 34.54-4.95.34.24.66.5 1 .75l-3 2.16c-.31.21.15.45.15.45L70.77 28c.35.16.39-.06.38-.19v-.1l-.65-12.26c0-.12-.12-.42-.37-.24l-3.45 2.39q-1.08-.95-2.28-1.8C51 6.29 33 8.71 23.21 21.73c0 0-.06.08-.1.14a.61.61 0 0 0 .14.92z"/><g><path class="cls-2" d="M22.47 56.73a6.13 6.13 0 0 1-1.62.72 16.74 16.74 0 0 1-5.06.63 22.13 22.13 0 0 1-2.5-.2 13.65 13.65 0 0 1-1.52-.29c-.27-.06-.52-.13-.75-.2a6.09 6.09 0 0 1-2-1 2.37 2.37 0 0 1-.56-.58V57.47a1.47 1.47 0 0 0 .58 1.07A8.14 8.14 0 0 0 13.05 60a18.61 18.61 0 0 0 2.88.22 17.24 17.24 0 0 0 4.15-.47 8.27 8.27 0 0 0 2.13-.75c.69-.41 1.09-.9 1.09-1.43 0 0 .06-1.5 0-1.63a3.17 3.17 0 0 1-.83.79zM15.2 51.71c4.09 0 7.4-1.23 7.4-2.74 0 0 .09-1.41.06-1.71a1.58 1.58 0 0 0-.13-.59 1.64 1.64 0 0 0 .84-1.24s.07-1.57 0-1.88c-.2-1.85-3.93-2.85-7.44-2.85s-7.47 1.06-7.47 3c0 .09.07 1.71.07 1.71a1.17 1.17 0 0 0 .09.32 1.91 1.91 0 0 0-.93 1.51c0 .09.07 1.71.07 1.71A1.45 1.45 0 0 0 8.39 50a8.26 8.26 0 0 0 3.93 1.46 18.65 18.65 0 0 0 2.88.25zm.8-10.24c3.94 0 6.69 1.19 6.69 2.25S19.91 46 16 46s-6.69-1.19-6.69-2.24S12 41.47 16 41.47zm-7.49 5.79a1.19 1.19 0 0 1 .58-.85 3.24 3.24 0 0 0 .75.55A13.63 13.63 0 0 0 16 48.17a15.82 15.82 0 0 0 5.24-.8c.23-.09.43-.19.64-.29a.58.58 0 0 1 0 .18c0 1.06-2.75 2.24-6.69 2.24s-6.68-1.18-6.68-2.24z"/><path class="cls-2" d="M13 57.38a18.52 18.52 0 0 0 2.88.22 17.15 17.15 0 0 0 4.12-.47h.05a8.27 8.27 0 0 0 2.09-.82 3.5 3.5 0 0 0 .47-.32 1.78 1.78 0 0 0 .55-.72 1.09 1.09 0 0 0 .08-.39v-1.63c-.25.32-.89 1.29-3.81 1.88a22.06 22.06 0 0 1-3.77.33c-2.36 0-4.82-.48-5.91-1.17a4.4 4.4 0 0 1-.94-.63 3.71 3.71 0 0 1-.45-.56v1.81a1.47 1.47 0 0 0 .58 1A8.14 8.14 0 0 0 13 57.38z"/><path class="cls-2" d="M23.19 49.92a1.08 1.08 0 0 0-.19-.17 2.88 2.88 0 0 0-.31-.17 1.67 1.67 0 0 1-.33.44 1.56 1.56 0 0 1 .29.16.71.71 0 0 1 .35.57.63.63 0 0 1-.27.48 2.28 2.28 0 0 1-.28.22l-.43.24-.65.28-.66.21c-.07 0-.65.16-.88.2l-1.13.19-1.16.11c-.12 0-1.22.07-1.71.08a16.27 16.27 0 0 1-2.36-.18c-.57-.08-1.14-.18-1.67-.31a10.41 10.41 0 0 1-1.8-.56 3.21 3.21 0 0 1-.91-.62 3.41 3.41 0 0 1-.59-.78V52.2a1.47 1.47 0 0 0 .58 1.07 8.14 8.14 0 0 0 3.94 1.46 18.52 18.52 0 0 0 2.88.22 17.09 17.09 0 0 0 4.14-.47h.05a8.27 8.27 0 0 0 2.09-.82 4.13 4.13 0 0 0 .46-.32 1.78 1.78 0 0 0 .55-.72 1 1 0 0 0 .08-.39s.06-1.56.06-1.59a.84.84 0 0 0-.06-.38.64.64 0 0 0-.08-.34zM32.24 46.37c4.09 0 7.4-1.23 7.4-2.75 0 0 .08-1.41.06-1.71a1.5 1.5 0 0 0-.13-.58 1.68 1.68 0 0 0 .84-1.25s.07-1.57 0-1.88c-.2-1.85-3.93-2.84-7.44-2.84s-7.47 1-7.47 3c0 .1.07 1.71.07 1.71a1.35 1.35 0 0 0 .09.33 1.88 1.88 0 0 0-.93 1.5c0 .09.07 1.71.07 1.71a1.47 1.47 0 0 0 .58 1.07 8.14 8.14 0 0 0 3.94 1.46 18.61 18.61 0 0 0 2.92.23zM33 36.13c3.94 0 6.69 1.18 6.69 2.24S37 40.61 33 40.61s-6.7-1.18-6.7-2.24 2.76-2.24 6.7-2.24zm-7.47 5.78a1.21 1.21 0 0 1 .59-.84 3.55 3.55 0 0 0 .75.55A13.63 13.63 0 0 0 33 42.83a15.52 15.52 0 0 0 5.24-.83c.24-.09.44-.19.65-.29a1.16 1.16 0 0 1 0 .18c0 1.06-2.75 2.24-6.69 2.24s-6.66-1.13-6.66-2.22z"/><path class="cls-2" d="M40.41 44.87a.93.93 0 0 0-.18-.3c-.07-.07-.18-.15-.19-.16a1.54 1.54 0 0 0-.31-.17 1.86 1.86 0 0 1-.33.43 2.71 2.71 0 0 1 .29.16.73.73 0 0 1 .35.57.68.68 0 0 1-.27.49 2.43 2.43 0 0 1-.29.21l-.42.24s-.46.21-.65.28l-.66.21-.88.21c-.06 0-.79.14-1.13.18l-1.16.11c-.12 0-1.23.07-1.71.08a16 16 0 0 1-2.36-.17c-.57-.08-1.14-.19-1.67-.31a11.47 11.47 0 0 1-1.77-.56 3.28 3.28 0 0 1-.92-.63 3.31 3.31 0 0 1-.58-.77v1.9a1.47 1.47 0 0 0 .58 1.07 8.34 8.34 0 0 0 3.94 1.46 18.56 18.56 0 0 0 2.88.21 17.15 17.15 0 0 0 4.14-.47h.05a7.59 7.59 0 0 0 2.09-.82 2.36 2.36 0 0 0 .46-.33 1.73 1.73 0 0 0 .56-.71 1.09 1.09 0 0 0 .08-.39s.06-1.56.06-1.6a.75.75 0 0 0 0-.42zM39.55 51.38a5.9 5.9 0 0 1-1.63.72 16 16 0 0 1-5.05.63 20.14 20.14 0 0 1-2.51-.19c-.57-.08-1-.17-1.52-.29-.26-.07-.51-.13-.75-.21a6.13 6.13 0 0 1-2-.94 2.38 2.38 0 0 1-.55-.59V52.17a1.44 1.44 0 0 0 .58 1.07 8.34 8.34 0 0 0 3.94 1.46 18.47 18.47 0 0 0 2.94.2 17.15 17.15 0 0 0 4.14-.47 7.54 7.54 0 0 0 2.1-.82c.69-.42 1.09-.91 1.09-1.43 0 0 .06-1.5 0-1.63a3.1 3.1 0 0 1-.78.83z"/><path class="cls-2" d="M26.14 50.58A8.3 8.3 0 0 0 30.07 52a18.65 18.65 0 0 0 2.88.21 17.18 17.18 0 0 0 4.15-.47 7.79 7.79 0 0 0 2.1-.82 3.4 3.4 0 0 0 .46-.33 1.77 1.77 0 0 0 .56-.72 1 1 0 0 0 .07-.38v-1.63c-.25.31-.88 1.28-3.8 1.88a22.28 22.28 0 0 1-3.77.32 14 14 0 0 1-5.92-1.16 5.07 5.07 0 0 1-.93-.64 3.71 3.71 0 0 1-.45-.56v1.82a1.43 1.43 0 0 0 .72 1.06zM40.48 55.84a3.24 3.24 0 0 1-.89.85 6.22 6.22 0 0 1-1.63.72 16.71 16.71 0 0 1-5.05.63 18.29 18.29 0 0 1-2.51-.2 13.65 13.65 0 0 1-1.52-.29c-.27-.06-.52-.13-.75-.2a5.89 5.89 0 0 1-2-1 1.9 1.9 0 0 1-.55-.58V57.43a1.45 1.45 0 0 0 .59 1.07 8.26 8.26 0 0 0 3.99 1.5 18.65 18.65 0 0 0 2.88.21 17.24 17.24 0 0 0 4.15-.47 7.92 7.92 0 0 0 2.09-.82c.69-.42 1.09-.91 1.09-1.43.07-.02.13-1.49.11-1.65z"/><path class="cls-2" d="M30.11 57.35a20 20 0 0 0 2.88.21 17.24 17.24 0 0 0 4.15-.47 8.27 8.27 0 0 0 2.09-.82c.17-.11.32-.22.46-.33a1.77 1.77 0 0 0 .56-.72 1.22 1.22 0 0 0 .07-.38v-1.63c-.25.31-.88 1.28-3.8 1.87a22.28 22.28 0 0 1-3.78.33c-2.36 0-4.82-.48-5.91-1.16a4.75 4.75 0 0 1-.93-.64 3.41 3.41 0 0 1-.46-.56v1.81a1.47 1.47 0 0 0 .58 1 8.34 8.34 0 0 0 4.09 1.49z"/></g></svg>