<svg id="TARGETS" xmlns="http://www.w3.org/2000/svg" viewBox="0 0 94.85 94.85" width="94.85" height="94.85"><defs><style>.cls-1{fill:#00689d}.cls-2{fill:#fff}</style></defs><title>Goal_16_RGB_NG</title><path class="cls-1" d="M0 0h94.85v94.85H0z"/><path class="cls-2" d="M47.43 7.69a39.14 39.14 0 1 0 39.13 39.13A39.17 39.17 0 0 0 47.43 7.69zm34.11 38.44c-3.76-1.89-13.78-6.76-16-7.76-1.17-.45-2.44-.49-3 .12v-3.83h-1.07l11-11a34 34 0 0 1 9.07 22.47zm-13.64-.74a.33.33 0 0 1-.3.21h-5v-4a2.91 2.91 0 0 0 .88.76L67.75 45a.35.35 0 0 1 .15.39zM14.05 54h5.55a.43.43 0 0 0 .43-.43V32.48a.42.42 0 0 0-.43-.41h-3a34.1 34.1 0 0 1 52.21-11.82L54.4 34.66H38.22c-1.24-1.87-2.57-3.81-2.57-3.81s-.31-.67-1.87-.72-9.73 1.92-11.19 2.49c0 0-.67.16-.67.68v19.07a1 1 0 0 0 .31.67 60.81 60.81 0 0 0 7.66 1.5c.7.1 1.33.18 1.82.23s1.06.1 1.55.14l.83.06-13.24 13.24A34 34 0 0 1 14.05 54zm31.71-10.7l-.23-.23v-2.58c.39.08.57.36.57.82v.83h1.42v-.78a3.41 3.41 0 0 0-.07-.65 1.82 1.82 0 0 0-1.92-1.52v-.46h-.46v.46a2 2 0 0 0-2.07 2.1v.33A3 3 0 0 0 44.19 44l.16.16.29.3.38.39v2.9c-.42-.09-.58-.41-.58-.86v-1.35H43v1.28A2 2 0 0 0 45 49v.6h.46V49a2.52 2.52 0 0 0 1.38-.46 2.07 2.07 0 0 0 .31.42 2.45 2.45 0 0 0 .46.38 3.17 3.17 0 0 0 1.71.52h10.85a.37.37 0 1 1 0 .74H45.23a2.54 2.54 0 0 0-2.55 1.75H29.46v-16h3.16a.59.59 0 0 1 .23.14L37.22 41s1.55 1.19 2.65.41.83-2.41.41-3.41a19 19 0 0 0-1-1.65h21.6v9.25H49.34a3.21 3.21 0 0 0-1.73.51 3.24 3.24 0 0 0-1.3-2.26zm.29 3.18v.38c0 .45-.16.78-.57.86v-2.45a1.67 1.67 0 0 1 .57 1.21zm-1-6v2.14a1.63 1.63 0 0 1-.58-1.15v-.2a.7.7 0 0 1 .6-.78zM47.43 81a34 34 0 0 1-23.17-9.09l17-17 1-.12c.55-.09 1.06-.18 1.52-.28a2.89 2.89 0 0 0 1.48.39h15a.37.37 0 0 1 .32.36.38.38 0 0 1-.32.38H47.75a2.82 2.82 0 0 0-1.82.62 1.93 1.93 0 0 0-.75 1.49 2.39 2.39 0 0 0 2.57 2.13h12.47a.38.38 0 0 1 .32.37.39.39 0 0 1-.35.38h-8.65a2.65 2.65 0 0 0-1.76.62A2 2 0 0 0 49 62.7a2.35 2.35 0 0 0 2.5 2.13l7.7.25c3.88.11 7.86.24 8.21.24 1 0 2.08 0 3.44-.07.78 0 1.64-.11 2.6-.21.77-.08 1.88-.24 3.06-.43A34.14 34.14 0 0 1 47.43 81z"/></svg>