<svg id="TARGETS" xmlns="http://www.w3.org/2000/svg" viewBox="0 0 94.85 94.85" width="94.85" height="94.85"><defs><style>.cls-1{fill:#4c9f38}.cls-2{fill:#fff}</style></defs><title>Goal_3_RGB_NG</title><path class="cls-1" d="M0 0h94.85v94.85H0z"/><path class="cls-2" d="M24.4 23.32a1.51 1.51 0 0 0 1.49 1.5h36.22a1.49 1.49 0 0 0 1.49-1.49v-2.59h2.65a.55.55 0 0 0 .55-.55v-1.28h7.35a.25.25 0 0 0 .25-.25.24.24 0 0 0-.25-.25H66.8V17a.54.54 0 0 0-.55-.55h-2.64v-2.6a1.48 1.48 0 0 0-.44-1.05 1.44 1.44 0 0 0-1.05-.44H25.9a1.49 1.49 0 0 0-1.49 1.49v2.89h-6.58v-3.5a.55.55 0 0 0-.55-.55h-.72a.54.54 0 0 0-.55.55v10.63a.55.55 0 0 0 .55.55h.72a.55.55 0 0 0 .55-.55v-3.66h6.57zM57.2 14a.49.49 0 0 1 1 0v3a.49.49 0 1 1-1 0zm-4.87 0a.49.49 0 0 1 1 0v3a.49.49 0 0 1-.49.49.5.5 0 0 1-.49-.49zm-5 0a.48.48 0 0 1 .49-.49.49.49 0 0 1 .49.49v2.95a.49.49 0 0 1-1 0zm-5 0a.49.49 0 1 1 1 0v3a.49.49 0 0 1-1 0zm-5 0a.49.49 0 1 1 1 0v3a.49.49 0 0 1-1 0zm-12.25-.1a.67.67 0 0 1 .21-.5.71.71 0 0 1 .5-.21h7.26v10.89h-7.16a.71.71 0 0 1-.71-.72zM82.18 40.92l-11.4 5a6.24 6.24 0 0 0 11.4-5zM73.77 37.25A6.26 6.26 0 0 0 70.39 45l11.41-5a6.26 6.26 0 0 0-8.03-2.75zM59.25 58.56a6.23 6.23 0 0 0 8.46-.56L58 50.16a6.24 6.24 0 0 0 1.25 8.4zM67.12 48.85a6.25 6.25 0 0 0-8.47.56l9.67 7.84a6.25 6.25 0 0 0-1.2-8.4zM80.59 54.78l-7.84 9.68a6.25 6.25 0 0 0 7.84-9.68zM71.44 55.38a6.25 6.25 0 0 0 .56 8.47l7.83-9.67a6.25 6.25 0 0 0-8.39 1.2z"/><g><path class="cls-2" d="M12.33 74.69l2.22 7.79 2.23-7.79h-4.45zM16.75 39a2.23 2.23 0 1 0-4.45 0v34.6h4.46z"/></g><g><path class="cls-2" d="M33.15 39.87h11.29a.85.85 0 0 0 .85-.84V38a.86.86 0 0 0-.85-.85H33.15a.85.85 0 0 0-.84.85v1a.85.85 0 0 0 .84.87z"/><path class="cls-2" d="M55.94 78.57l-13-22.08V39.87h-1.06v16.91l4.1 7c-1.12 1.4-4.9 5.93-7.59 6.43-3.23.61-8.39-.64-9.95-1.06l7.26-12.37V39.87h-1.06v16.62l-13 22.08a2.43 2.43 0 0 0 2.1 3.66h30.12a2.42 2.42 0 0 0 2.08-3.66zm-9.3-8.31a1.34 1.34 0 1 1-1.34 1.34 1.34 1.34 0 0 1 1.34-1.34zm-3.58 3.58a2.24 2.24 0 1 1-2.24 2.24 2.24 2.24 0 0 1 2.24-2.24z"/></g></svg>