<svg id="TARGETS" xmlns="http://www.w3.org/2000/svg" viewBox="0 0 94.85 94.85" width="94.85" height="94.85"><defs><style>.cls-1{fill:#dda63a}.cls-2{fill:#fff}</style></defs><title>Template_Goal_2_RGB_NG</title><path class="cls-1" d="M0 0h94.85v94.85H0z"/><path class="cls-2" d="M18.42 51a9.73 9.73 0 1 0 9.73 9.73A9.73 9.73 0 0 0 18.42 51zm0 16.25a6.52 6.52 0 1 1 6.52-6.52 6.52 6.52 0 0 1-6.52 6.51z"/><circle class="cls-2" cx="18.42" cy="60.72" r="4.96"/><path class="cls-2" d="M41.75 57a6.36 6.36 0 1 0 6.35 6.36A6.35 6.35 0 0 0 41.75 57zm0 10.61A4.26 4.26 0 1 1 46 63.35a4.25 4.25 0 0 1-4.25 4.25z"/><path class="cls-2" d="M41.75 60.5a2.85 2.85 0 1 0 2.85 2.85 2.85 2.85 0 0 0-2.85-2.85z"/><path class="cls-2" d="M49.76 51.17L35.3 48.89v-2.65h-.52V42a1.31 1.31 0 0 1 .3-.84 1.15 1.15 0 0 1 .87-.3V40a2 2 0 0 0-1.51.57 2.17 2.17 0 0 0-.54 1.48v4.19h-.51v2.35l-1.82-.29L28 37.31H13.74v11.11a13.94 13.94 0 0 0-4.86 4.52l.93.66a11.19 11.19 0 0 1 19.82 7.12V61h4.92s1.78-5.2 7.22-5.2a6.64 6.64 0 0 1 6.7 4.49h1.4zm-28.15-3h-6.34v-9.35h6.34zm1.54 0v-9.35h3.18l3.19 9.35z"/><g><path class="cls-2" d="M68.09 61c-.46.49-.93 1-1.42 1.46.59.6 1.21 1.25 1.88 2h-3.88l-.73.82c-.11.13-.21.27-.31.41h5.79a12.15 12.15 0 0 1 .9 1.94h-7.77a12.18 12.18 0 0 0-.45 1.23h8.62q.18.66.3 1.26h1.59a16.34 16.34 0 0 0-3.19-7.69c-.42-.5-.91-.98-1.33-1.43zM70.32 26.6a11.66 11.66 0 0 1-.9 1.93h-5.79c.1.14.2.28.31.41.25.3.49.57.73.83h3.88c-.67.78-1.29 1.43-1.88 2 .49.49 1 1 1.42 1.45.42-.44.87-.93 1.33-1.47a16.08 16.08 0 0 0 3.14-7.39H71q-.1.47-.24 1H62.1a11.52 11.52 0 0 0 .45 1.24z"/><path class="cls-2" d="M77.6 47.47a5.27 5.27 0 0 0-4.6 4.3 2.59 2.59 0 0 0 .1 1s3.52-2.31 10.65-1.58c0 0-7.42-.23-12 3.22a10.07 10.07 0 0 0-1.05.91 23.66 23.66 0 0 0 1.71-7.91 23.76 23.76 0 0 0-2-9 16.09 16.09 0 0 0-4.23-5.79c-.84-.82-1.71-1.68-2.66-2.8a12.58 12.58 0 0 1-2.42-5.38h-1.6a16.08 16.08 0 0 0 3.14 7.39c1 1.18 1.94 2.1 2.76 2.91a14.23 14.23 0 0 1 3.76 5 20.3 20.3 0 0 1 1.71 7.64 20.83 20.83 0 0 1-1.68 7.15 14.32 14.32 0 0 1-3.76 5c-.82.81-1.76 1.73-2.76 2.9a16.44 16.44 0 0 0-3.19 7.69h1.58a13 13 0 0 1 2.49-5.68c1-1.11 1.82-2 2.66-2.8A19.89 19.89 0 0 0 69.39 58a9.78 9.78 0 0 1 1.73-1.9 9.45 9.45 0 0 1 3-1.8c1.24 1.08 3.5 2.65 5.74 2.08 3-.77 4.12-4.52 8.15-5 .99-.17-5.7-4.69-10.41-3.91zM54.12 36.23c-.44-1.3-2.59-2.4-2.59-2.4s-1 2.23-.61 3.48c.36 1 1.8 1.28 2.22 1.39 0 0 1.34-1.4.98-2.47zM51.18 41.44s.58.39 2.57.05c0 0-.41-1.88-1.36-2.4 0 0-.54-.43-3.39-1 0 .01.67 2.91 2.18 3.35zM53.58 42.74s-.58-.47-3.66-1.09c0 0 .74 3.17 2.37 3.65 0 0 .62.42 2.77.06 0 0-.46-2.06-1.48-2.62zM54.37 41.28c1.8-.94 2-1.59 2-1.59.93-1.26-.29-4-.29-4-1.93 2.18-2.1 2.85-2.1 2.85-.42.99.39 2.74.39 2.74zM57.85 43.42c1-1.37-.33-4.34-.33-4.34-2.07 2.37-2.25 3.09-2.25 3.09-.47 1.07.41 3 .41 3 1.93-1.04 2.17-1.75 2.17-1.75zM47.46 31.34a.32.32 0 0 0-.4-.19.31.31 0 0 0-.2.4l2 6 .71.15zM50.15 37.24a8.37 8.37 0 0 1 .1-1.68L48.36 30a.31.31 0 0 0-.4-.19.32.32 0 0 0-.2.4l2.39 7.06zM50.92 33.36L49.11 28a.31.31 0 0 0-.4-.2.31.31 0 0 0-.2.4l2.08 6.17zM55.86 35.16l-2-6a.31.31 0 0 0-.4-.2.33.33 0 0 0-.2.4l2.14 6.32zM54.67 35.72l-2.38-7.06a.33.33 0 0 0-.41-.2.32.32 0 0 0-.19.4l1.89 5.6a7.74 7.74 0 0 1 1.09 1.26zM52.59 33.71l-2.08-6.17a.31.31 0 0 0-.4-.2.31.31 0 0 0-.2.4l1.8 5.35z"/><path class="cls-2" d="M62.43 57.5a13.15 13.15 0 0 0 1.62 2.27l1.09-1.09.33-.32a12.19 12.19 0 0 1-1.92-2.51h4.13a9.7 9.7 0 0 0 .72-1.23h-5.46a.36.36 0 0 0 0-.09c-.25-.63-.47-1.24-.67-1.85h6.93c.15-.41.28-.83.4-1.23h-7.73a18.29 18.29 0 0 1-.42-1.94H70c.08-.41.15-.83.19-1.23h-8.91a11.26 11.26 0 0 1-.07-1.15 11.07 11.07 0 0 1 .07-1.13h8.93c0-.4-.11-.82-.19-1.24h-8.57a18.12 18.12 0 0 1 .42-1.93h7.69c-.12-.41-.25-.82-.4-1.24h-6.93c.2-.6.42-1.21.67-1.84a.36.36 0 0 0 0-.09h5.5a9.84 9.84 0 0 0-.72-1.24h-4.13a12.4 12.4 0 0 1 1.92-2.5c-.11-.11-.22-.21-.33-.33l-1.09-1.09a13.32 13.32 0 0 0-2.4 3.88 24.3 24.3 0 0 0-1.95 8.52 1.93 1.93 0 0 0 0 .24 2.09 2.09 0 0 0 0 .25 22.54 22.54 0 0 0 1.18 6.41 47 47 0 0 1-4.5-7.49l-.74.26a54.45 54.45 0 0 0 6.79 11z"/></g></svg>