<svg id="TARGETS" xmlns="http://www.w3.org/2000/svg" viewBox="0 0 94.85 94.85" width="94.85" height="94.85"><defs><style>.cls-1{fill:#fd6925}.cls-2{fill:#fff}</style></defs><title>Goal_9_RGB_NG</title><path class="cls-1" d="M0 0h94.85v94.85H0z"/><path class="cls-2" d="M69.9 47.22h6.48a7.29 7.29 0 0 0 4.83-1.78 5.42 5.42 0 0 0 1.55-4.15c-.05-2.93-.05-9.12 0-14.41a3.91 3.91 0 0 0 3-2.83h5.69v-2h-5.76a3.89 3.89 0 0 0-2.94-2.82v-1.39-.58c0-.91 0-2.62.86-3.5a2.63 2.63 0 0 1 2-.65h5.8v-2h-5.8a4.56 4.56 0 0 0-3.36 1.24c-1.46 1.46-1.46 3.71-1.45 4.92V19.34a3.91 3.91 0 0 0-2.6 2.71h-4.4a5.47 5.47 0 0 1-5.46-5.46V4.05h-2v12.54a7.47 7.47 0 0 0 7.46 7.46h4.4a3.92 3.92 0 0 0 2.58 2.71v14.56a3.48 3.48 0 0 1-.96 2.68 5.28 5.28 0 0 1-3.5 1.22h-6.43v1.08c.03.31.02.62.01.92zM80 23.05A1.92 1.92 0 1 1 81.92 25 1.92 1.92 0 0 1 80 23.05zM26.15 45.22h-6.64a3.92 3.92 0 0 0-2.78-2.75V28.89a3.85 3.85 0 0 1 1.09-3 4.68 4.68 0 0 1 3.24-.89h4.56a8.07 8.07 0 0 0 5.51-1.88 6.52 6.52 0 0 0 1.92-5v-1.66a3.91 3.91 0 0 0 2.55-2.7h8a3.71 3.71 0 0 1 2.45.75 3.49 3.49 0 0 1 1 2.72v7.18a12.74 12.74 0 0 1 2 0v-7.18A5.35 5.35 0 0 0 47.4 13a5.74 5.74 0 0 0-3.92-1.27h-7.87a3.93 3.93 0 0 0-2.56-2.71v-5h-2v4.9a3.92 3.92 0 0 0-3 2.84H4v2h24.07a3.92 3.92 0 0 0 3 2.83v1.52a4.66 4.66 0 0 1-1.28 3.52A6.09 6.09 0 0 1 25.68 23h-4.46a6.72 6.72 0 0 0-4.73 1.44 5.71 5.71 0 0 0-1.76 4.48v13.56A3.88 3.88 0 0 0 12 45.22H4.07v2H12A3.91 3.91 0 0 0 14.73 50v18.1a3.9 3.9 0 0 0-2.67 2.49H3.94v2h8a3.91 3.91 0 0 0 2.83 3V76c0 .92 0 2.63-.87 3.51a2.63 2.63 0 0 1-1.95.65h-8v2h8a4.56 4.56 0 0 0 3.36-1.24c1.46-1.46 1.46-3.71 1.46-4.92v-.38a3.92 3.92 0 0 0 2.86-3h14.6a2.58 2.58 0 0 1 2.57 2.57v16.1h2V75.16a4.58 4.58 0 0 0-4.57-4.57h-14.8a3.92 3.92 0 0 0-2.7-2.5V50a3.88 3.88 0 0 0 2.79-2.79h6.63v-.92c0-.31-.01-.71 0-1.07zm3.77-32.47a1.92 1.92 0 1 1 1.92 1.92 1.92 1.92 0 0 1-1.92-1.92zM17.66 71.87A1.92 1.92 0 1 1 15.74 70a1.92 1.92 0 0 1 1.92 1.87zm-1.92-23.71a1.92 1.92 0 1 1 1.92-1.92 1.92 1.92 0 0 1-1.92 1.92zM76.15 62.27a3.57 3.57 0 0 1 2.5-.75h12.76v-2H78.75a5.51 5.51 0 0 0-3.93 1.26A5.4 5.4 0 0 0 73.21 65v8.49a3.9 3.9 0 0 0-2.77 2.77H52.18A3.17 3.17 0 0 1 49 73.08v-4.9h-2v4.9a5.17 5.17 0 0 0 5.16 5.16h18.28A3.89 3.89 0 0 0 73.21 81v10.26h2V81A3.87 3.87 0 0 0 78 78.24h13.41v-2H78a3.88 3.88 0 0 0-2.77-2.77V65a3.56 3.56 0 0 1 .92-2.73zm0 15a1.92 1.92 0 1 1-1.92-1.92 1.92 1.92 0 0 1 1.9 1.89z"/><path class="cls-2" d="M50.57 61.57c.18.47.34.85.54 1.31a.88.88 0 0 0 1 .56 12.82 12.82 0 0 0 3.14-1.08.86.86 0 0 0 .48-1.11c-.13-.46-.22-.8-.36-1.24s-.15-.92.29-1.21 1.64-1.19 2.1-1.56a1.06 1.06 0 0 1 1.29-.08c.43.28.78.48 1.22.74a.86.86 0 0 0 1.13-.14A12.57 12.57 0 0 0 63.31 55a.85.85 0 0 0-.26-1.17c-.38-.3-.65-.52-1-.8s-.66-.65-.48-1.14.61-1.88.79-2.5a1.08 1.08 0 0 1 1-.83c.51 0 .91-.06 1.42-.11a.87.87 0 0 0 .83-.78 12.3 12.3 0 0 0-.06-3.32.84.84 0 0 0-.9-.8h-1.29c-.52 0-.92-.14-1.06-.64a15.7 15.7 0 0 0-.83-2.48 1.05 1.05 0 0 1 .32-1.26c.39-.32.7-.59 1.08-.93a.87.87 0 0 0 .21-1.12 12.59 12.59 0 0 0-2-2.65.85.85 0 0 0-1.2-.12c-.4.27-.69.46-1.07.73s-.83.43-1.24.1c-.75-.56-1.61-1.18-2.13-1.51a1.08 1.08 0 0 1-.48-1.21c.13-.5.22-.89.33-1.39a.87.87 0 0 0-.48-1 12.31 12.31 0 0 0-3.18-1 .86.86 0 0 0-1 .61c-.16.45-.29.78-.43 1.21s-.42.84-1 .82h-2.61a1.06 1.06 0 0 1-1.1-.69c-.18-.48-.34-.86-.54-1.32a.89.89 0 0 0-1-.55 12.17 12.17 0 0 0-3.14 1.08.84.84 0 0 0-.47 1.1c.12.47.22.8.36 1.25s.15.92-.29 1.2-1.51 1.08-2.1 1.56a1.07 1.07 0 0 1-1.3.09c-.42-.28-.78-.49-1.21-.75a.89.89 0 0 0-1.14.15 12.47 12.47 0 0 0-1.9 2.71.87.87 0 0 0 .24 1.2c.38.3.65.52 1 .79s.67.66.48 1.15-.61 2-.78 2.49a1.05 1.05 0 0 1-1 .83l-1.42.11a.87.87 0 0 0-.83.79 12.3 12.3 0 0 0 .05 3.32.86.86 0 0 0 .9.79h1.3c.47 0 .91.14 1.05.64a22.36 22.36 0 0 0 .84 2.49 1.06 1.06 0 0 1-.32 1.26c-.4.32-.7.59-1.08.92a.88.88 0 0 0-.19 1.17 12.3 12.3 0 0 0 2 2.65.86.86 0 0 0 1.2.11l1.07-.72c.42-.31.83-.44 1.24-.11s1.61 1.19 2.12 1.52a1.07 1.07 0 0 1 .49 1.21c-.13.49-.22.89-.34 1.38a.89.89 0 0 0 .49 1 12.71 12.71 0 0 0 3.18 1 .85.85 0 0 0 1-.61c.17-.45.29-.78.44-1.22s.42-.84.94-.81h2.62a1.07 1.07 0 0 1 1.12.68zM37.24 46.41a10.87 10.87 0 1 1 10.83 10.9 10.88 10.88 0 0 1-10.83-10.9z"/><path class="cls-2" d="M40.07 43.34c.25.17.43 0 .52-.15s.07-.25 0-.38.13-.23.26-.27a6 6 0 0 0 .73-.43 2.44 2.44 0 0 1 1.45 0 .78.78 0 0 0 1-.19 2.55 2.55 0 0 1 .7-.58c.13-.07-.35-.51-.74 0s-.6.54-.79.54-1.29-.29-1.43-.64.35-.61.76-.8a10 10 0 0 1 1.81-.25c.58-.13 1.33-.42 1.7-.16s-1.56.68-.93 1c.23.12 1.25-.59 1.6-.77.82-.42-.79-.56-.58-1.43s-1.89-.62-3-.53a9.32 9.32 0 0 0-1.5 1.15c.14 0 .28.07.3.16a1.24 1.24 0 0 1-.13.61 1.62 1.62 0 0 1-1 .46.38.38 0 0 1-.18-.09c-.17.23-.34.46-.49.69a1.42 1.42 0 0 1 .71-.23c.25 0 .56.08.6.24s-.6.44-.72.55c-.33.3-.85.92-1.15 1a.35.35 0 0 1-.23 0c-.08.2-.16.41-.23.63a1.13 1.13 0 0 1 .96-.13zM53.46 50a11.4 11.4 0 0 1 1.74-.45c1.16-.29 1.4-1 1.61-.55l.11.22a1.48 1.48 0 0 1 .14.58 9.68 9.68 0 0 0 .42-1.42c-.27-.11-1.3-1.57-.46-2.53.14-.16-.28-.64-.16-.65a.75.75 0 0 1 .79.58 8.94 8.94 0 0 0-.21-1.48v.33a.63.63 0 0 1-1.12.09c-.1-.15-.51-.53-.5.13s.64.73 0 1.13a2.28 2.28 0 0 1-1 .4 1.29 1.29 0 0 0-.49 1.15c.07.36.94 1.36.29 1.32a3.64 3.64 0 0 1-1.48-1.3c-.2-.53-.42-1-.57-1.45a.57.57 0 0 0-.9-.26c-.34.23.09.46-.16 1s-.42.94-.78.53c-.93-1.08-2.29-.55-2.5-1.74-.11-.65-.66-.59-1.13-1s-.73-.56-.81-.3 1.46 1.46 1.57 1.76c.16.47-.46.88-.92 1s-.65-.25-1.09-.72-.64-.8-.67-.43A2.05 2.05 0 0 0 46 47.5c.39.25.82.36.7.76s0 .17-.44.6A1.16 1.16 0 0 0 45.8 50c0 .6-.13.64-.22 1.13s-.31.07-.5.8a2.72 2.72 0 0 1-.6 1.23 2 2 0 0 1-1.3.49c-.44 0-.5-1.2-.5-1.79 0-.21-.29.4-.43-.85-.1-.79-.62.09-.65-.44s-.29-.43-.56-.76-.6 0-1 .2-.22.25-.75.08a9.6 9.6 0 0 0 6.11 5.48.4.4 0 0 1-.11-.47 2.15 2.15 0 0 1 1.88-1.1c1.55-.15 3.59 1 3.92.84s1-1 1.95-1a1.48 1.48 0 0 1 .86.21 8.31 8.31 0 0 0 1-.82 1.82 1.82 0 0 1-.3-.11c-.53-.27-.46.16-.72.06s.29-.69-.48-.18-.56-.08-.89-.94a1.74 1.74 0 0 1 .95-2.06zM56 48.75a.87.87 0 0 1-.92-.08c-.24-.19.16-.5.3-.51.31-.03.79.42.62.59zm-1.29-1.26a.22.22 0 0 1 .31-.28 1 1 0 0 1 .45.56c0 .15-.39.13-.49.09s-.22-.13-.29-.37zm-7.88 2.24c-.13.21-.49 1.82-.74 1.63s.11-1.87.18-2c.36-.69 1.17-.65.54.37zm3.92-1.9a.87.87 0 0 1-.92-.08c-.24-.19.16-.5.3-.51.31-.03.79.42.6.59zM39.71 44.39a9 9 0 0 1 1.57.4c.56.2 1.43.68 1.94.48s.65-.36.62-.67-.34-.47-.71-.21c-.14.09-.42-.58-.65-.55s.28.79.09.83-.58-.79-.64-.93-.37-.46-.63-.21c-.57.53-1.48.5-1.67.64a.77.77 0 0 1-.19.11c-.38.15-.5-.23-.51-.52a9.79 9.79 0 0 0-.32 1.63v-.07c.31-.58.38-.65.48-.71a2.81 2.81 0 0 1 .37-.15z"/></svg>