<svg id="TARGETS" xmlns="http://www.w3.org/2000/svg" viewBox="0 0 94.85 94.85" width="94.85" height="94.85"><defs><style>.cls-1{fill:#26bde2}.cls-2{fill:#fff}</style></defs><title>Goal_6_RGB_NG</title><path class="cls-1" d="M0 0h94.85v94.85H0z"/><path class="cls-2" d="M63.11 10.92a.36.36 0 0 0-.28-.12H32a.38.38 0 0 0-.28.12.43.43 0 0 0-.08.29l5.18 31.32a.37.37 0 0 0 .36.3H58a.36.36 0 0 0 .35-.31l4.84-31.31a.34.34 0 0 0-.08-.29M51.2 36a4.93 4.93 0 0 1-3.68 1.28A4.93 4.93 0 0 1 43.84 36a5.45 5.45 0 0 1-.68-6.66c.49-.93 4-6.26 4.35-6.71.3.45 3.85 5.78 4.35 6.71A5.46 5.46 0 0 1 51.2 36M61 17.51a3.8 3.8 0 0 0-2.92.18c-3.82 1.54-6.42 2.1-10.45.84-2.53-.79-4.9-2.45-7.7-1.44a15.76 15.76 0 0 1-5.69 1.29L33 12.16h28.85zM77.5 54.37a2.75 2.75 0 1 1 2.75 2.75 2.75 2.75 0 0 1-2.75-2.75M83.46 58.18a3.66 3.66 0 0 1 3.33 3.65v7.63a1.07 1.07 0 1 1-2.13 0v-6.55c0-.24-.07-.58-.52-.58s-.38.33-.39.54V82.5a1.54 1.54 0 0 1-3.07 0V71.19a.41.41 0 0 0-.43-.45.44.44 0 0 0-.45.45V82.5a1.53 1.53 0 0 1-3.06 0V62.87c0-.21-.08-.54-.38-.54-.46 0-.52.34-.52.58v6.55a1.07 1.07 0 0 1-2.14 0v-7.63a3.67 3.67 0 0 1 3.3-3.65h6.41M59.72 55.85a2.6 2.6 0 1 0-2.6 2.6 2.6 2.6 0 0 0 2.6-2.6M51.88 61.74l-2.16 7s-.38 1.29.71 1.61 1.42-.93 1.42-.93l1.74-5.88s.1-.45.44-.35.21.58.21.58l-3 11H54v7.88a1.36 1.36 0 0 0 2.71 0v-7.84h.77v7.88a1.36 1.36 0 0 0 2.71 0v-7.88H63l-3-11s-.13-.48.21-.58.43.35.43.35l1.74 5.88s.33 1.26 1.42.93.71-1.61.71-1.61l-2.16-7s-.77-2-2.48-2h-5.5c-1.71 0-2.49 2-2.49 2M44.14 55.81a2.6 2.6 0 1 0-2.6 2.6 2.6 2.6 0 0 0 2.6-2.6M36.3 61.69l-2.16 7s-.38 1.29.71 1.61 1.42-.93 1.42-.93L38 63.53s.1-.45.44-.35.21.58.21.58l-3 11h2.82v7.89a1.36 1.36 0 0 0 2.71 0v-7.89h.77v7.89a1.35 1.35 0 1 0 2.7 0v-7.89h2.83l-3-11s-.12-.48.21-.58.44.35.44.35l1.74 5.88s.33 1.25 1.42.93.71-1.61.71-1.61l-2.16-7s-.77-2-2.48-2h-5.57c-1.71 0-2.49 2-2.49 2"/><g><path class="cls-2" d="M10.68 69.63s0 .06-.06.1L8.07 83.2a.41.41 0 0 0 .32.49h.08a.43.43 0 0 0 .41-.34l2.54-13.47s-.11-.1-.12-.15M13.82 54.7a2.72 2.72 0 1 1 2.72 2.72 2.72 2.72 0 0 1-2.72-2.72"/><path class="cls-2" d="M19.72 58.47A3.62 3.62 0 0 1 23 62.09v7.54a1.06 1.06 0 1 1-2.11 0v-6.48c0-.24-.07-.57-.51-.57s-.37.32-.38.53v19.42a1.52 1.52 0 0 1-3 0V71.34a.4.4 0 0 0-.43-.44.42.42 0 0 0-.44.44v11.19a1.52 1.52 0 1 1-3 0V63.11c0-.21-.07-.53-.38-.53s-.51.33-.51.57v6.48a1.06 1.06 0 1 1-2.11 0v-7.54a3.63 3.63 0 0 1 3.29-3.62h6.41"/></g><g><path class="cls-2" d="M69 70.17A2.21 2.21 0 1 0 66.79 68 2.21 2.21 0 0 0 69 70.17zM74.29 76.59c0-.1-.66-1.66-.85-2.16C72.1 71 71.88 71 70.68 71h-3.37c-1.21 0-1.43 0-2.76 3.43-.19.5-1 2.4-1 2.5s-.34.8.41 1.07.92-.56.92-.56l1.36-3.34s0-.08.08-.07 0 .06.06.1v8.71A1.14 1.14 0 0 0 67.53 84a1.13 1.13 0 0 0 1.12-1.19v-3.45s-.05-.53.34-.52.34.52.34.52v3.48A1.14 1.14 0 0 0 70.47 84a1.12 1.12 0 0 0 1.11-1.19v-8.68-.11l.1.08 1.22 3s.36.8 1 .48a.75.75 0 0 0 .39-.99z"/></g><g><path class="cls-2" d="M31.18 73.9l2-3.67.19-.38a.71.71 0 0 0-.35-1 .81.81 0 0 0-1.1.36 21.78 21.78 0 0 1-1.38 2.11.89.89 0 0 1-.68.32h-2.61a.88.88 0 0 1-.67-.32 25 25 0 0 1-1.41-2.2.76.76 0 0 0-.68-.36.79.79 0 0 0-.8.79 1.52 1.52 0 0 0 .08.35l2.2 4a1.41 1.41 0 0 1 .13.52V75a2.31 2.31 0 0 1-.11.66l-1 4.18h1.11V83a1.08 1.08 0 1 0 2.15 0v-3a.47.47 0 0 1 0-.13h.65V83a1.08 1.08 0 1 0 2.15 0v-3.14h1.16l-1.07-4.17a2.09 2.09 0 0 1-.09-.55v-.71a1.41 1.41 0 0 1 .13-.53z"/><path class="cls-2" d="M28.57 70.3a2.18 2.18 0 1 0-2.17-2.18 2.17 2.17 0 0 0 2.17 2.18z"/></g></svg>