<svg id="TARGETS" xmlns="http://www.w3.org/2000/svg" viewBox="0 0 94.85 94.85" width="94.85" height="94.85"><defs><style>.cls-1{fill:#26bde2}.cls-2{fill:#fff}</style></defs><title>Goal_6_RGB_NG</title><path class="cls-1" d="M0 0h94.85v94.85H0z"/><path class="cls-2" d="M75.52 45v12.57h5.56V45.01a.48.48 0 0 0-.47-.48H79.4v-.76h-2.09v.76H76a.47.47 0 0 0-.48.47zM74.55 57.57v-1.16H62.63a.47.47 0 0 0-.47.47v.21a.47.47 0 0 0 .47.47zM81.11 58.53H62.62a.47.47 0 0 0-.46.42v.12a9.48 9.48 0 0 0 6.09 8.3l-2.92 8.42h14l-1.94-9.74a9.43 9.43 0 0 0 3.72-7.52zM55.94 47h-9.56v-1.7h1.15v.83h.72v-2.5h-.71v1h-1.17v-2.19a2.71 2.71 0 0 0-.63-1.95 2.29 2.29 0 0 0-1.77-.7 2.61 2.61 0 0 0-2 .76 2.38 2.38 0 0 0-.62 1.69v2.4h1.33v-2.43a1.16 1.16 0 0 1 .28-.76 1.4 1.4 0 0 1 1-.34 1 1 0 0 1 .79.27 1.42 1.42 0 0 1 .28 1v4.63h-9.5a8.8 8.8 0 0 0 7.53 8.71L40.27 76H51.2l-2.75-20.29A8.79 8.79 0 0 0 55.94 47zM28 61.67H14.9a.19.19 0 0 0-.19.18l1 13.82a.19.19 0 0 0 .19.19h11.24a.19.19 0 0 0 .19-.19l.89-13.83a.19.19 0 0 0-.22-.17zM28.35 60a.2.2 0 0 0-.19-.19h-4.77v-.56a.18.18 0 0 0-.19-.18h-3.59a.18.18 0 0 0-.19.18v.56h-4.73a.19.19 0 0 0-.19.19l.13.77a.19.19 0 0 0 .19.19h13.21a.19.19 0 0 0 .19-.19zM87.51 25.08L48.29 8.15a.68.68 0 0 0-.42-.1 1 1 0 0 0-.33.1L8.35 25a.39.39 0 0 0-.25.39v3.95c0 .31 0 .65.49.49l39.1-16.14a.39.39 0 0 1 .18 0 .45.45 0 0 1 .2 0l39.1 16.14c.47.15.48-.08.48-.49v-3.91a.37.37 0 0 0-.14-.35z"/><rect class="cls-2" x="8" y="81.17" width="79.56" height="4.74" rx=".57" ry=".57"/></svg>