<svg id="TARGETS" xmlns="http://www.w3.org/2000/svg" viewBox="0 0 94.85 94.85" width="94.85" height="94.85"><defs><style>.cls-1{fill:#56c02b}.cls-2{fill:#fff}</style></defs><title>Goal_15_RGB_NG</title><path class="cls-1" d="M0 0h94.85v94.85H0z"/><path d="M25.7 41.5a.32.32 0 0 0 .06.45l2.69 2 3.08 2.31c-.08 3.16-.14 7.56 0 9 0 .31.81.28.81.28h.2c.28 0 .93 0 1-.28.15-2-.18-9.92-.26-12v-.67l4.77-5a.33.33 0 0 0-.48-.45l-1.13 1.18v-3.14a.33.33 0 1 0-.66 0v3.94l-2.54 2.65-.22-4.55c-.13-2-.12-4.08-.28-6.12 0 0 0-.09-.21-.09s-.24.14-.24.14c-.16 2-.12 4-.25 6.07v.05l-2-2.06a.33.33 0 0 0-.46 0 .34.34 0 0 0 0 .47l.59.59-1.42.48a.32.32 0 0 0-.2.41.33.33 0 0 0 .31.23h.1l1.72-.59 1.36 1.37-.25 5.19c0 .46 0 1.23-.06 2.15L29 43.58V40a.33.33 0 1 0-.66 0v3.11l-2.19-1.65a.32.32 0 0 0-.45.04zM12.76 39.44L17 42.66c-.1 4.39-.19 10.52-.05 12.54 0 .43 1.13.38 1.13.38h.27c.39 0 1.3 0 1.33-.38.21-2.84-.25-13.81-.37-16.65v-.93l6.62-6.9a.45.45 0 1 0-.65-.63l-1.58 1.64V27.2a.47.47 0 0 0-.46-.46.46.46 0 0 0-.45.46v5.48l-3.54 3.69-.31-6.37c-.18-2.84-.17-5.68-.39-8.52 0 0 0-.12-.29-.12s-.34.19-.34.19c-.21 2.84-.16 5.61-.35 8.45v.06l-2.83-2.85a.46.46 0 0 0-.65 0 .45.45 0 0 0 0 .64l.82.82-2 .67a.46.46 0 0 0 .14.89.4.4 0 0 0 .15 0l2.39-.81 1.89 1.91-.35 7.21c0 .64-.06 1.71-.09 3l-3.53-2.66v-5a.46.46 0 0 0-.46-.46.45.45 0 0 0-.45.46v4.32l-3.03-2.3a.46.46 0 0 0-.55.73zM46.47 75.84h1.69v4.75h-1.69zM46.47 84.66h1.69v4.74h-1.69zM46.47 49.43h1.69v4.74h-1.69zM46.47 23.03h1.69v4.74h-1.69zM46.47 40.67h1.69v4.74h-1.69zM46.47 31.85h1.69v4.75h-1.69zM46.47 14.26h1.69V19h-1.69zM46.47 5.44h1.69v4.74h-1.69zM6.68 58.3a.32.32 0 0 0-.32.31v4.08a.31.31 0 0 0 .32.3h7.09l-5.11 6.88L12.47 74l-3.59 5.85.85.53 4-6.47-3.73-4.1 3-4 5.67 3.55.53-.85L13.54 65 15 63h6.3l4.36 4-1.19 4.12-4.82 2.59.47.88L24.84 72l6.31 6 .68-.73-6.35-6 1.33-4.63-4-3.63h11.64l-4.07 6.08 8.08 2.66L35.7 81l1 .29 1.59-5.33 3.84 1.33.33-1L38.53 75l1.16-3.88L32 68.53 35.66 63H47.3v-4.7z"/><g><path class="cls-2" d="M88.16 58.3H47.32V63h40.84a.31.31 0 0 0 .32-.3v-4.09a.32.32 0 0 0-.32-.31zM88 66.33H47.63a.32.32 0 0 0-.32.31v4.08a.31.31 0 0 0 .32.3H88a.31.31 0 0 0 .33-.3v-4.08a.32.32 0 0 0-.33-.31zM64.85 47h2.26v8.3a.28.28 0 0 0 .28.29h3.77a.29.29 0 0 0 .29-.29V47h3.85a5.54 5.54 0 0 0 4-9.34 5.18 5.18 0 0 0-2.57-9.68h-.34a7 7 0 1 0-13.28 3.59A7.83 7.83 0 0 0 64.85 47z"/></g></svg>