<svg id="TARGETS" xmlns="http://www.w3.org/2000/svg" viewBox="0 0 94.85 94.85" width="94.85" height="94.85"><defs><style>.cls-1{fill:#00689d}.cls-2{fill:#fff}</style></defs><title>Goal_16_RGB_NG</title><path class="cls-1" d="M0 0h94.85v94.85H0z"/><rect class="cls-2" x="12.05" y="39.42" width="35.87" height="2.62" rx=".61" ry=".61"/><rect class="cls-2" x="12.05" y="65.5" width="35.87" height="4.01" rx=".61" ry=".61"/><path class="cls-2" d="M12.65 37.73h34.7a.56.56 0 0 0 .52-.56v-.28a18.27 18.27 0 0 0-35.64 0 .6.6 0 0 0-.06.23.55.55 0 0 0 .48.61zM46.28 63.88a.61.61 0 0 0 .62-.6V44.5a.62.62 0 0 0-.62-.62H14a.62.62 0 0 0-.62.62v18.78a.61.61 0 0 0 .62.6zM36.9 46.42h5.54v14.92H36.9zm-9.39 0h5.54v14.92h-5.54zm-9.31 0h5.54v14.92H18.2z"/><path class="cls-2" d="M32 20.34a5.29 5.29 0 0 1 3.42 1.23 5.9 5.9 0 0 0 3 1H41v-6.64h-2.54c-2 0-2.77-.73-4-1.57a5.2 5.2 0 0 0-2.85-.76H30v6.67a11.25 11.25 0 0 1 2 .07zM60.25 34.22v18.53a9.46 9.46 0 0 0-1.73.69V38h-1.64v16.48a9.23 9.23 0 0 0-1 .89 9.82 9.82 0 0 0-.26 13.41l-8 10.27a1.36 1.36 0 0 0 .23 1.95 1.35 1.35 0 0 0 1.9-.24l7.93-10.16a9.84 9.84 0 0 0 11.94-1h9.81v-1.9h-8.18a9.88 9.88 0 0 0 1-1.92H82.8V34.22zm5.39 35.43l-.3.1-.47.12-.24.06-.56.09h-1.76l-.46-.02-.36-.06h-.16l-.2-.06-.41-.11-.34-.12-.27-.1a7.78 7.78 0 0 1-3.39-2.66l-.2-.29c-.07-.11-.14-.22-.2-.33a3.58 3.58 0 0 1-.18-.32c-.07-.12-.12-.24-.18-.36s-.1-.21-.14-.32l-.15-.42c0-.09-.07-.18-.09-.27s-.09-.33-.13-.49a1.89 1.89 0 0 1-.05-.23 4.51 4.51 0 0 1-.09-.53v-.74-.23-.49-.3c0-.1 0-.28.05-.42s0-.25.07-.38v-.18a1.09 1.09 0 0 0 .05-.17c0-.14.07-.28.12-.42s.07-.22.1-.32.11-.27.16-.41.14-.27.14-.35.13-.25.19-.37l.18-.31a4 4 0 0 1 .22-.34c.07-.1.14-.21.22-.31l.06-.09a7.88 7.88 0 0 1 1.64-1.57l.3-.2.22-.14a3.62 3.62 0 0 1 .43-.24l.25-.13.42-.18a7.77 7.77 0 0 1 3.37-.55h.3l.42.06c.13 0 .25 0 .37.06h.19l.18.05.4.12.34.11.38.15.34.15a2.79 2.79 0 0 1 .34.18l.34.19.15.08a7.71 7.71 0 0 1 2.21 2.12c.05.07.09.14.14.2l.15.25a4.16 4.16 0 0 1 .23.42l.12.23c.07.15.14.29.2.44s.07.18.1.28.1.27.14.41l.09.36c0 .1.05.19.07.28a8 8 0 0 1 0 3.33 8.46 8.46 0 0 1-.6 1.69l-.15.28-.24.42-.13.2-.33.46-.1.13a7.89 7.89 0 0 1-3.51 2.51zm14.41-9.07c0 .06-.08.1-.18.1h-7.16a9.63 9.63 0 0 0-.92-2.87h8.08c.1 0 .18 0 .18.11zm0-5c0 .06-.08.11-.18.11h-9.51c-.17-.19-.34-.37-.52-.55a9.84 9.84 0 0 0-3.94-2.33h14c.1 0 .18 0 .18.12zm0-4.75c0 .06-.08.11-.18.11H63.22c-.11 0-.19 0-.19-.11v-2.66c0-.06.08-.11.19-.11h16.65c.1 0 .18 0 .18.11z"/></svg>