<svg id="TARGETS" xmlns="http://www.w3.org/2000/svg" viewBox="0 0 94.85 94.85" width="94.85" height="94.85"><defs><style>.cls-1{fill:#0a97d9}.cls-2{opacity:.3}.cls-3{fill:#fff}</style></defs><title>Goal_14_RGB_NG</title><path class="cls-1" d="M0 0h94.85v94.85H0z"/><g class="cls-2"><path d="M69.94 44.44l13.57-3.39 2.56 10.29-11.46-.42-4.67-6.48zM6.37 62.94l1.49-8.65 11.93 8.28-7.13 3.52-6.29-3.15z"/></g><path d="M36.18 44.54a.9.9 0 1 1-1.16.54.9.9 0 0 1 1.16-.54zM40.23 38.46a.9.9 0 1 1-1.16.54.9.9 0 0 1 1.16-.54zM59.27 42a.9.9 0 1 1-.27 1.23.9.9 0 0 1 .27-1.23zM51.27 33.82a.9.9 0 0 1 1 1.49.9.9 0 1 1-1-1.49zM25 40.09a.91.91 0 0 1 .53 1.16.89.89 0 0 1-1.15.54.9.9 0 1 1 .62-1.7zM27.83 33.41a.91.91 0 0 1 .53 1.16.89.89 0 0 1-1.15.54.9.9 0 0 1 .62-1.7zM14.78 43.44a.9.9 0 1 1-1.15.54.89.89 0 0 1 1.15-.54zM15.42 50.42a.91.91 0 0 1 .58 1.16.89.89 0 0 1-1.15.54.9.9 0 0 1 .62-1.7zM10.24 46.21a.88.88 0 0 1 .53 1.15.9.9 0 0 1-1.69-.61.9.9 0 0 1 1.16-.54zM10.24 33.78a.9.9 0 0 1-.62 1.7.9.9 0 0 1 .62-1.7zM13.06 37.43a.9.9 0 1 1-1.16.57.9.9 0 0 1 1.16-.57zM21.44 34.91a.9.9 0 0 1 .56 1.16.89.89 0 0 1-1.15.54.9.9 0 0 1 .61-1.7zM66.21 78.13a.9.9 0 1 1-1.15.54.9.9 0 0 1 1.15-.54zM40.53 76a.9.9 0 1 1-1.16.54.91.91 0 0 1 1.16-.54zM43.29 40.59a.9.9 0 1 1-1.15.54.9.9 0 0 1 1.15-.54zM42.56 44.85a.9.9 0 1 1-1.16.53.9.9 0 0 1 1.16-.53zM77.82 66a.9.9 0 1 1-1.16.53.9.9 0 0 1 1.16-.53zM81.71 58.66a.9.9 0 1 1-1.16.53.91.91 0 0 1 1.16-.53zM69.52 71.9a.9.9 0 0 1-.62 1.69.9.9 0 1 1 .62-1.69zM85.07 85.35a.9.9 0 1 1-1.16.54.9.9 0 0 1 1.16-.54zM66.31 36.53a.91.91 0 0 1 .54 1.16.89.89 0 0 1-1.15.54.9.9 0 0 1 .61-1.7zM71.89 77.82a.9.9 0 1 1-1.16.54.91.91 0 0 1 1.16-.54zM52.92 77a.9.9 0 1 1-1.16.54.9.9 0 0 1 1.16-.54zM66.52 85.35a.9.9 0 1 1-1.15.54.9.9 0 0 1 1.15-.54zM83.26 74.5a.9.9 0 0 1-.62 1.7.9.9 0 0 1 .62-1.7zM85.67 64.36a.9.9 0 1 1-1.16.54.9.9 0 0 1 1.16-.54zM77.79 71.85a.9.9 0 1 1-1.16.54.9.9 0 0 1 1.16-.54zM47.55 84a.9.9 0 1 1-1.15.54.9.9 0 0 1 1.15-.54zM58.89 82.38a.9.9 0 0 1 .54 1.15.9.9 0 1 1-1.69-.61.89.89 0 0 1 1.15-.54zM11.47 83.76a.9.9 0 1 1-1.16.54.91.91 0 0 1 1.16-.54zM34.3 71.51a.9.9 0 0 1 .54 1.15.9.9 0 1 1-1.69-.61.89.89 0 0 1 1.15-.54zM16.72 76.05a.91.91 0 0 1 .53 1.16.89.89 0 0 1-1.15.54.9.9 0 1 1 .62-1.7zM44.08 79.51a.9.9 0 0 1 .54 1.16.89.89 0 0 1-1.15.54.9.9 0 0 1 .61-1.7zM78.55 83.13a.9.9 0 1 1-1.16.53.91.91 0 0 1 1.16-.53zM23.89 83.38a.9.9 0 1 1-1.16.54.9.9 0 0 1 1.16-.54z"/><g><path d="M27.79 82.25l4.94 6.07 5.65-11.65-7.09.39-3.5 5.19zM81.04 31.97l-9.86 9.87 1.46.62 9.45-9.44-1.05-1.05zM83.22 34.15l-8.99 9 1.46.62 8.58-8.57-1.05-1.05zM85.4 36.33l-8.12 8.12 1.15.5.99-.55 7.03-7.02-1.05-1.05zM87.58 38.51l-3.09 3.09 3.99-2.2-.9-.89zM9.99 59.33l-.61 3.55 2.34-2.34-1.73-1.21zM14.77 62.65L9.13 68.3l3.16 1.59 5.28-5.29-2.8-1.95z"/></g><g><path class="cls-3" d="M75.31 59.25c-1.25-1.7-9.37-12-20.75-12-9.87 0-20.44 9-20.44 9S30.15 48 22 47.26h-.2a.33.33 0 0 0-.31.32.84.84 0 0 0 .12.3c1.05 1.74 3.72 6.68 3.72 11.62s-2.69 9.91-3.72 11.64l-.07.11a.28.28 0 0 0-.05.17.31.31 0 0 0 .29.32H22c8.14-.76 12.13-8.91 12.13-8.91s10.57 9 20.44 9c11.38 0 19.5-10.34 20.75-12l.09-.11a.61.61 0 0 0 0-.13.42.42 0 0 0 0-.12.94.94 0 0 0-.09-.12M60.89 60.8a3.32 3.32 0 1 1 3.33-3.32 3.32 3.32 0 0 1-3.33 3.32M86.94 9.27h-.1l-.24.12C84.06 10.68 76.19 13.7 69.06 7c-.07-.06-.26-.24-.42-.24s-.26.12-.39.22c-2.12 1.63-11.9 8.23-20.59.12l-.13-.13a.48.48 0 0 0-.35-.14.48.48 0 0 0-.34.14l-.14.13c-8.7 8.06-18.47 1.46-20.58-.17-.12-.09-.19-.2-.4-.19a.75.75 0 0 0-.42.26c-7.13 6.75-15 3.73-17.53 2.46l-.25-.12h-.09a.48.48 0 0 0-.49.49v3.41a.51.51 0 0 0 .13.34c8.25 7.17 16.07.46 17.86-1.32l.18-.16a.41.41 0 0 1 .22-.07.54.54 0 0 1 .35.16C35 21 44.76 13.8 46.79 12.12l.2-.19a.42.42 0 0 1 .19-.08c.11 0 .13 0 .19.08l.21.19c2 1.68 11.79 8.88 21.1 0a.44.44 0 0 1 .6 0 .27.27 0 0 1 .13.13C71.24 14 79 20.68 87.29 13.51a.49.49 0 0 0 .15-.34V9.76a.49.49 0 0 0-.5-.49M86.94 21.64h-.1l-.24.13c-2.54 1.27-10.41 4.28-17.54-2.46-.07-.07-.26-.25-.42-.25a.8.8 0 0 0-.39.23c-2.12 1.63-11.9 8.22-20.59.12l-.13-.13a.48.48 0 0 0-.35-.14.48.48 0 0 0-.34.14l-.14.13c-8.69 8.1-18.47 1.5-20.58-.12-.12-.1-.19-.2-.4-.2a.7.7 0 0 0-.42.22c-7.13 6.74-15 3.73-17.53 2.46l-.25-.13h-.09a.48.48 0 0 0-.49.49v3.41a.48.48 0 0 0 .13.34c8.25 7.17 16.07.47 17.86-1.31a1 1 0 0 1 .18-.16.29.29 0 0 1 .22-.07.5.5 0 0 1 .35.15c9.31 8.88 19.08 1.69 21.11 0l.2-.18a.28.28 0 0 1 .19-.08c.11 0 .13 0 .19.08l.21.18c2 1.69 11.79 8.88 21.1 0a.49.49 0 0 1 .33-.13.51.51 0 0 1 .27.09.35.35 0 0 1 .13.14c1.81 1.77 9.61 8.48 17.86 1.31a.45.45 0 0 0 .15-.34v-3.43a.5.5 0 0 0-.5-.49"/></g></svg>