<svg id="TARGETS" xmlns="http://www.w3.org/2000/svg" viewBox="0 0 94.85 94.85" width="94.85" height="94.85"><defs><style>.cls-1{fill:#19486a}.cls-2{fill:#fff}</style></defs><title>Goal_17_RGB_NG</title><path class="cls-1" d="M0 0h94.85v94.85H0z"/><path class="cls-2" d="M11.37 56.38h32.42v-7.3H11.37zm15.28-4.75h14.87v2.23H26.65zm-3.46-.11A1.23 1.23 0 1 1 22 52.74a1.22 1.22 0 0 1 1.19-1.22zm-4.17 0a1.23 1.23 0 1 1-1.22 1.22 1.22 1.22 0 0 1 1.2-1.22zm-4.17 0a1.23 1.23 0 1 1-1.22 1.22 1.22 1.22 0 0 1 1.22-1.22zM11.38 39.68h32.43v-7.3H11.39zM26.68 35h14.87v2.24H26.68zm-3.46-.1a1.22 1.22 0 1 1 0 2.44 1.22 1.22 0 0 1 0-2.44zm-4.17 0a1.22 1.22 0 1 1 0 2.44 1.22 1.22 0 0 1 0-2.44zm-4.17 0a1.22 1.22 0 1 1 0 2.44 1.22 1.22 0 0 1 0-2.44zM11.35 70.86a.55.55 0 0 0 .55.55h31.32a.55.55 0 0 0 .55-.55V57.44H11.36zM41 59.54h.55v9.61H41zm-1.19 0h.55v9.61h-.55zm-1.19 0h.55v9.61h-.55zm-1.2 0h.55v9.61h-.55zm-1.19 0h.55v9.61h-.55zm-1.19 0h.55v9.61H35zm-1.2 0h.55v9.61h-.59zm-1.19 0h.55v9.61h-.55zm-1.19 0H32v9.61h-.55zm-1.2 0h.55v9.61h-.55zm-1.19 0h.55v9.61H29zm-1.19 0h.55v9.61h-.55zm-1.2 0h.55v9.61h-.55zM43.28 23.49H12a.55.55 0 0 0-.55.55v7.28h32.37V24a.55.55 0 0 0-.54-.51zM14.9 29.08a1.23 1.23 0 1 1 1.22-1.22 1.22 1.22 0 0 1-1.22 1.22zm4.17 0a1.23 1.23 0 1 1 1.22-1.22 1.22 1.22 0 0 1-1.22 1.22zm4.17 0a1.23 1.23 0 1 1 1.23-1.22 1.22 1.22 0 0 1-1.23 1.22zM41.58 29H26.71v-2.26h14.87zM11.38 48H43.8v-7.3H11.38zm15.3-4.7h14.87v2.24H26.68zm-3.47-.1A1.22 1.22 0 1 1 22 44.45a1.22 1.22 0 0 1 1.21-1.22zm-4.17 0a1.22 1.22 0 1 1-1.22 1.22A1.22 1.22 0 0 1 19 43.23zm-4.17 0a1.22 1.22 0 1 1-1.22 1.22 1.22 1.22 0 0 1 1.22-1.19z"/><g><path class="cls-2" d="M83.08 24.18a.76.76 0 0 0-.76-.77h-27a.76.76 0 0 0-.77.77v17.08h28.53zm-1.15 16.06H55.84V24.66h26.09zM83.13 41.92H54.6l-2.34 1.81v.83c0 .34.53.34.53.34H85.1c.4 0 .4-.45.4-.45v-.78zm-11.94 2.21h-4.75v-.53h4.75z"/></g><path class="cls-2" d="M82.74 50.39H71.87a.75.75 0 0 0-.74.75v19.55a.75.75 0 0 0 .74.75h10.87a.75.75 0 0 0 .74-.75V51.14a.75.75 0 0 0-.74-.75zm-5.41 20a1.12 1.12 0 1 1 1.11-1.11 1.12 1.12 0 0 1-1.11 1.12zm5.17-3.85H72.15V51.47H82.5z"/><g><path class="cls-2" d="M54.43 58.39a5.75 5.75 0 0 1 .57 2.52 5.92 5.92 0 0 1-.73 2.9l1.19.78a7.38 7.38 0 0 0 1-3.69 7.55 7.55 0 0 0-.8-3.31zM57.83 56.11a9.87 9.87 0 0 1 1.25 4.77A10.13 10.13 0 0 1 57.7 66l1.18.76A11.44 11.44 0 0 0 59 55.32zM62.42 53l-1.17.79a14.14 14.14 0 0 1-.11 14.45l1.18.77a15.54 15.54 0 0 0 .1-16z"/></g></svg>