<svg id="TARGETS" xmlns="http://www.w3.org/2000/svg" viewBox="0 0 94.85 94.85" width="94.85" height="94.85"><defs><style>.cls-1{fill:#a21942}.cls-2{fill:#fff}</style></defs><title>Goal_8_RGB_NG</title><path class="cls-1" d="M0 0h94.85v94.85H0z"/><path class="cls-2" d="M11.93 34.9h-1.57v30.27h21.68v-1.83H11.93V34.9z"/><path class="cls-2" d="M13.6 61.49h21.69V31.23H13.6zm2.68-16.85s.07-.1.17-.1h16c.1 0 .18.05.18.1v2.56c0 .06-.08.11-.18.11h-16c-.1 0-.17-.05-.17-.11zm0 4.58c0-.06.07-.11.17-.11h16c.1 0 .18 0 .18.11v2.55c0 .06-.08.11-.18.11h-16c-.1 0-.17-.05-.17-.11zm0 4.46c0-.06.07-.1.17-.1h16c.1 0 .18 0 .18.1v2.56c0 .06-.08.1-.18.1h-16c-.1 0-.17 0-.17-.1z"/><g><path class="cls-2" d="M78.81 29a3.59 3.59 0 1 0-3.58 3.59A3.58 3.58 0 0 0 78.81 29zM68 47.74l1.8-6.24-2.71-1.5L65 46.81s-.53 1.78 1 2.22 2-1.29 2-1.29z"/><path class="cls-2" d="M79.5 39.14c.47-.13.6.49.6.49l.35 1.2 2.71-1.46-.7-2.28s-1.07-2.8-3.43-2.8h-7.61c-2.36 0-3.42 2.8-3.42 2.8l-.66 2.13L70 40.68l.31-1s.14-.62.61-.49.29.8.29.8l-4.15 15.14H71V66a1.87 1.87 0 1 0 3.73 0V55.13h1.06V66a1.88 1.88 0 0 0 3.75 0V55.13h3.89L79.2 39.94s-.2-.66.3-.8z"/><path class="cls-2" d="M85.44 46.81l-2-6.61-2.74 1.46 1.8 6.08s.46 1.74 2 1.29.94-2.22.94-2.22zM71.28 27.76h-.44a4.54 4.54 0 0 1 8.77 0h-.49v2.41h.72a4.42 4.42 0 0 1-1.25 2.13.46.46 0 0 0-.55-.16l-1.32.5a.48.48 0 0 0-.28.62l.12.31a.49.49 0 0 0 .62.28l1.32-.51a.47.47 0 0 0 .28-.62l-.09-.23a4.68 4.68 0 0 0 1.37-2.32h.73v-2.41h-.74a5 5 0 0 0-9.65 0h-.73v2.41h1.61z"/><g><path class="cls-2" d="M49.17 65.85a2 2 0 0 0 4 0v-1.53h-4zM54.39 65.85a2 2 0 0 0 4.06 0v-1.53h-4.06zM50.15 37.74v-4.12h-.31a2 2 0 0 0-.27 0 4.85 4.85 0 0 0-4.42 4.83v10.1a1.42 1.42 0 0 0 2.83 0v-8.64c0-.33.09-.77.69-.77h1.49zM51.71 36.84h4.33v-3.22h-4.33v3.22z"/><path class="cls-2" d="M57.08 40.05h-.4v-2.31h-5.63v2.31h-1.88v23.33h4V50.65a.56.56 0 0 1 .59-.58.55.55 0 0 1 .58.58v12.73h4.06V40.05h-1.32z"/><path class="cls-2" d="M58.06 33.65a2 2 0 0 0-.27 0h-.2v5.53H59c.59 0 .69.44.69.77v8.67a1.41 1.41 0 0 0 2.82 0V38.48a4.85 4.85 0 0 0-4.45-4.83zM56.38 37.1a.43.43 0 1 0 .85 0 .43.43 0 0 0-.85 0zM50.55 37.1a.42.42 0 1 0 .42-.42.42.42 0 0 0-.42.42zM56.22 27.84c-.32-.26-.59-.51-1.12-.26-.35.17-.49.28-.91.48a9.46 9.46 0 0 1-2.39.71 8.12 8.12 0 0 1-1.88.13 3.79 3.79 0 0 0 7.53.09 13.66 13.66 0 0 0-1.23-1.15z"/><path class="cls-2" d="M49.93 28.11a7.83 7.83 0 0 0 1.73-.11 8.35 8.35 0 0 0 2.15-.7c.61-.29 1.19-.49 1.19-.49a1.27 1.27 0 0 1 .78-.12 1.33 1.33 0 0 1 .34.22c.15.12.2.17.3.26s.15.13 1 .8c.11.08.2.17.27.15s.11-.66.07-1a5.43 5.43 0 0 0-1.15-2.59.83.83 0 0 0-.81-.38c-.51.09-.5-.26-.84-.47a3.48 3.48 0 0 0-3.32.54 8.72 8.72 0 0 0-2.47 3.39c-.1.26.27.5.76.5z"/></g></g></svg>