<svg id="TARGETS" xmlns="http://www.w3.org/2000/svg" viewBox="0 0 94.85 94.85" width="94.85" height="94.85"><defs><style>.cls-1{fill:#c5192d}.cls-2{fill:#fff}</style></defs><title>Goal_4_RGB_NG</title><path class="cls-1" d="M0 0h94.85v94.85H0z"/><path class="cls-2" d="M67.94 67l-2-3.72v-.08l-4.52-9a2.2 2.2 0 0 0-2.16-1.2 2.08 2.08 0 0 0-.26 0h-6.18l-.12-8.12c-.06-2.46-.63-3.89-2.54-4.4a9.43 9.43 0 0 0-2.8 0 1.05 1.05 0 0 0-.23.07h-.05L39.43 43h-.13l-.19.09h-.09a2 2 0 0 0-.84 1L36 50.3a1.93 1.93 0 1 0 3.63 1.29l1.86-5.24 2.86-.92h.13v8.56c0 1.94.64 3.89 2.55 4.39l.61.17a5.85 5.85 0 0 0 1 .08h9.56l2.53 4.92a.76.76 0 0 0 .06.16l.91 1.75.87 1.73a1.05 1.05 0 0 0 .08.13l1 1.84A2.4 2.4 0 0 0 67.94 67z"/><path class="cls-2" d="M54 61.6v.46a9.21 9.21 0 1 1-16.44-5.66l-2.31-1.82A12.15 12.15 0 1 0 57 62.06v-.46zM44.35 34.51a4.51 4.51 0 1 0 9 0 4.62 4.62 0 0 0-.12-1h-8.77a4.62 4.62 0 0 0-.11 1zM53.88 31h-.51a4.73 4.73 0 0 0-2.43-2.92l-.68 2.06V27h-2.41v3.09l-.73-2.19a4.68 4.68 0 0 0-2.77 3.1h-.51v1.67h10z"/><g><path class="cls-2" d="M31.79 47.93l-3.6-11.73s-1.29-3.39-4.14-3.39h-1.62l.27.47a4.07 4.07 0 0 1 .49 1.3 2.21 2.21 0 0 1 0 .37v.15a2.48 2.48 0 0 1-.15.84 1.78 1.78 0 0 1 .64 1.36 1.8 1.8 0 1 1-1.8-1.79 2.58 2.58 0 0 1 .39 0 .55.55 0 0 0 .14-.22 2.2 2.2 0 0 0-.06-.72v-.24a4.53 4.53 0 0 0-.26-.6 5.28 5.28 0 0 0-.51-.76l-2 2.73-2.3-2.68a6.23 6.23 0 0 0-.77 3.53 2.87 2.87 0 0 0 .76 1.33 1.87 1.87 0 0 1 .37-.07h.21a1.55 1.55 0 0 1 .29 0 1.1 1.1 0 0 1 .18 0 3.37 3.37 0 0 1 1.6 1l.26.27-1 .87-.49-.57.42-.37a2.11 2.11 0 0 0-1.3-.59 1 1 0 0 0-.29 0h-.13l-.14.08c-.42.36-.33 1.19.17 1.92l.49-.39.47.58-1.07.88-.24-.23a3.41 3.41 0 0 1-.93-2.12 1.68 1.68 0 0 1 .39-1 3.61 3.61 0 0 1-.82-2.16 6.25 6.25 0 0 1 .8-3.42h-1.64c-2.85 0-4.14 3.39-4.14 3.39L7.12 47.93s-.64 2.15 1.18 2.69 2.37-1.56 2.37-1.56l2.91-9.79s.15-.75.72-.59.35 1 .35 1L9.6 58h4.7v13.13a2.26 2.26 0 1 0 4.51 0V58h1.29v13.13a2.26 2.26 0 1 0 4.52 0V58h4.7l-5.06-18.35s-.21-.81.36-1 .72.59.72.59l2.91 9.79s.55 2.1 2.36 1.56 1.18-2.66 1.18-2.66z"/><path class="cls-2" d="M21.66 36.4a.94.94 0 0 0-.63.48 1.17 1.17 0 0 0-.1.26.78.78 0 0 0 0 .34 1 1 0 0 0 .93.73h.22a1 1 0 0 0-.22-1.92zM12.23 25.83c.15-.37.53-1 1.85-1.15a2.07 2.07 0 0 0 .69-.22 5.36 5.36 0 0 1 .81-1.14 1.81 1.81 0 0 0 0-.25c-.07-.6-.7-1.31-2-.69-1.63.78-1.45 3.18-1.45 3.18.03.21.06.36.1.27zM24 24.42a2.12 2.12 0 0 0 .76.26c1.32.17 1.7.78 1.85 1.15 0 .09.07-.06.1-.27 0 0 .18-2.4-1.45-3.18-1.33-.62-2 .09-2 .69a1.42 1.42 0 0 0 0 .31 5.11 5.11 0 0 1 .74 1.04z"/><circle class="cls-2" cx="19.41" cy="26.98" r="4.51" transform="rotate(-45 19.403 26.973)"/></g><g><path class="cls-2" d="M72.09 71a2.41 2.41 0 1 0 4.81 0v-1.8h-4.81zM78.28 71a2.41 2.41 0 0 0 4.82 0v-1.8h-4.82zM73.25 37.67v-4.89h-.37a1.58 1.58 0 0 0-.32 0 5.76 5.76 0 0 0-5.24 5.74v12a1.68 1.68 0 0 0 3.35 0V40.24c0-.39.11-.91.82-.91h1.77zM75.1 36.59h5.14v-3.81H75.1v3.81z"/><path class="cls-2" d="M81.47 40.41H81v-2.74h-6.67v2.74h-2.24v27.68h4.81V53a.66.66 0 0 1 .69-.7.65.65 0 0 1 .68.7v15.1h4.83V40.41h-1.63z"/><path class="cls-2" d="M82.64 32.81a1.61 1.61 0 0 0-.33 0h-.23v6.55h1.62c.71 0 .82.52.82.91v10.26a1.68 1.68 0 0 0 3.35 0v-12a5.76 5.76 0 0 0-5.23-5.72zM80.65 36.91a.51.51 0 0 0 .5.5.5.5 0 0 0 .5-.5.5.5 0 0 0-.5-.5.5.5 0 0 0-.5.5zM73.73 36.91a.5.5 0 0 0 .5.5.51.51 0 0 0 .5-.5.5.5 0 0 0-.5-.5.5.5 0 0 0-.5.5zM80.45 25.92c-.38-.32-.69-.61-1.33-.31-.4.2-.57.33-1.07.56a10.72 10.72 0 0 1-2.84.85 10.2 10.2 0 0 1-2.24.16 4.5 4.5 0 0 0 9 .1 17.64 17.64 0 0 0-1.52-1.36z"/><path class="cls-2" d="M73 26.23a9.52 9.52 0 0 0 2.06-.18 10 10 0 0 0 2.54-.83 13.81 13.81 0 0 1 1.4-.58 1.41 1.41 0 0 1 .93-.14 1.38 1.38 0 0 1 .4.26l.36.3s.17.16 1.21 1c.12.09.23.19.31.17.23-.08.13-.79.09-1.18a6.66 6.66 0 0 0-1.3-3.12 1 1 0 0 0-1-.45c-.6.11-.59-.31-1-.55a4.09 4.09 0 0 0-3.93.63 10.21 10.21 0 0 0-2.93 4c-.14.44.27.67.86.67z"/></g></svg>