<svg id="TARGETS" xmlns="http://www.w3.org/2000/svg" viewBox="0 0 94.85 94.85" width="94.85" height="94.85"><defs><style>.cls-1{fill:#dda63a}.cls-2{fill:#fff}</style></defs><title>Template_Goal_2_RGB_NG</title><path class="cls-1" d="M0 0h94.85v94.85H0z"/><path class="cls-2" d="M16.78 31.38s-2.35 2.49-2.35 4.33c0 1.54 1.8 2.49 2.31 2.82 0 0 2.38-1.25 2.38-2.82 0-1.91-2.34-4.33-2.34-4.33zM11.53 35.89s-.4 4.14 1.4 5.39c0 0 .58.77 3.37 1.21 0 0 .29-2.68-.73-3.78 0 0-.52-.8-4.04-2.82zM11.17 41s-.43 4.51 1.5 5.87c0 0 .63.84 3.63 1.32 0 0 .31-2.92-.79-4.11 0-.02-.51-.9-4.34-3.08zM11.24 46.85s-.65 4.87 1.28 6.23c0 0 .78.91 3.78 1.39 0 0 .44-3-.66-4.18 0 0-.64-1.29-4.4-3.44zM10.62 52.75s-.32 5.06 1.61 6.42c0 0 1 .94 4 1.42 0 0 .37-3.27-.74-4.47 0 0-.99-1.32-4.87-3.37zM22 35.89s.41 4.14-1.39 5.39c0 0-.58.77-3.37 1.21 0 0-.29-2.68.73-3.78-.03 0 .48-.8 4.03-2.82zM22.34 41s.43 4.51-1.5 5.87c0 0-.63.84-3.63 1.32 0 0-.31-2.92.79-4.11 0-.02.55-.9 4.34-3.08zM22.27 46.85s.65 4.87-1.29 6.23c0 0-.77.91-3.77 1.39 0 0-.45-3 .66-4.18 0 0 .61-1.29 4.4-3.44zM22.89 52.75s.32 5.06-1.61 6.42c0 0-1 .94-4 1.42 0 0-.37-3.27.74-4.47-.02 0 .98-1.32 4.87-3.37zM16.08 61.36h1.32v11.3h-1.32zM12.51 26.29a.44.44 0 0 0-.44-.44.44.44 0 0 0-.44.44v8.78l.88.51zM14.32 24.87a.44.44 0 0 0-.88 0v10.39a11.63 11.63 0 0 1 .88-2.17zM16.18 22.62a.44.44 0 0 0-.88 0v9.07c.32-.44.64-.88.88-1.19zM21 26.29a.44.44 0 0 1 .44-.44.44.44 0 0 1 .44.44v8.78l-.88.51zM19.21 24.87a.44.44 0 0 1 .44-.44.44.44 0 0 1 .44.44v10.39a12.36 12.36 0 0 0-.88-2.17zM17.35 22.62a.44.44 0 0 1 .88 0v9.07c-.32-.44-.64-.88-.88-1.19z"/><g><path class="cls-2" d="M30.48 31.38s-2.34 2.49-2.34 4.33c0 1.54 1.79 2.49 2.31 2.82 0 0 2.38-1.25 2.38-2.82 0-1.91-2.35-4.33-2.35-4.33zM25.24 35.89s-.4 4.14 1.4 5.39c0 0 .58.77 3.37 1.21 0 0 .29-2.68-.73-3.78 0 0-.52-.8-4.04-2.82zM24.88 41s-.43 4.51 1.5 5.87c0 0 .63.84 3.63 1.32 0 0 .31-2.92-.79-4.11 0-.02-.55-.9-4.34-3.08zM25 46.85s-.65 4.87 1.28 6.23c0 0 .78.91 3.78 1.39 0 0 .44-3-.66-4.18-.05 0-.67-1.29-4.4-3.44zM24.33 52.75s-.32 5.06 1.61 6.42c0 0 1 .94 4 1.42 0 0 .38-3.27-.73-4.47-.01 0-1-1.32-4.88-3.37zM35.68 35.89s.41 4.14-1.39 5.39c0 0-.59.77-3.37 1.21 0 0-.3-2.68.73-3.78 0 0 .51-.8 4.03-2.82zM36.05 41s.43 4.51-1.5 5.87c0 0-.63.84-3.63 1.32 0 0-.31-2.92.79-4.11 0-.02.55-.9 4.34-3.08zM36 46.85s.65 4.87-1.29 6.23c0 0-.77.91-3.77 1.39 0 0-.45-3 .66-4.18-.02 0 .59-1.29 4.4-3.44zM36.6 52.75s.32 5.06-1.61 6.42c0 0-1 .94-4 1.42 0 0-.37-3.27.74-4.47 0 0 .99-1.32 4.87-3.37zM29.79 61.36h1.32v11.3h-1.32zM26.22 26.29a.44.44 0 0 0-.44-.44.44.44 0 0 0-.44.44v8.78l.88.51zM28 24.87a.44.44 0 0 0-.88 0v10.39A11.63 11.63 0 0 1 28 33.1zM29.89 22.62a.44.44 0 0 0-.44-.43.43.43 0 0 0-.44.43v9.07c.32-.44.64-.88.88-1.19zM34.72 26.29a.45.45 0 0 1 .45-.44.44.44 0 0 1 .43.44v8.78l-.88.51zM32.92 24.87a.44.44 0 0 1 .44-.44.44.44 0 0 1 .44.44v10.39a12.36 12.36 0 0 0-.88-2.17zM31.06 22.62a.44.44 0 0 1 .88 0v9.07c-.32-.44-.64-.88-.88-1.19z"/></g><g><path class="cls-2" d="M44.19 31.38s-2.34 2.49-2.34 4.33c0 1.54 1.79 2.49 2.31 2.82 0 0 2.38-1.25 2.38-2.82 0-1.91-2.35-4.33-2.35-4.33zM39 35.89s-.4 4.14 1.4 5.39c0 0 .58.77 3.37 1.21 0 0 .29-2.68-.74-3.78-.03 0-.56-.8-4.03-2.82zM38.59 41s-.43 4.51 1.5 5.87c0 0 .63.84 3.63 1.32 0 0 .31-2.92-.79-4.11 0-.02-.56-.9-4.34-3.08zM38.66 46.85s-.65 4.87 1.28 6.23c0 0 .78.91 3.78 1.39 0 0 .44-3-.66-4.18 0 0-.62-1.29-4.4-3.44zM38 52.75s-.32 5.06 1.61 6.42c0 0 1 .94 4 1.42 0 0 .38-3.27-.73-4.47.03 0-.96-1.32-4.88-3.37zM49.39 35.89S49.8 40 48 41.28c0 0-.59.77-3.37 1.21 0 0-.3-2.68.73-3.78 0 0 .51-.8 4.03-2.82zM49.76 41s.43 4.51-1.5 5.87c0 0-.63.84-3.63 1.32 0 0-.31-2.92.79-4.11 0-.02.58-.9 4.34-3.08zM49.69 46.85s.64 4.87-1.29 6.23c0 0-.77.91-3.77 1.39 0 0-.45-3 .66-4.18 0 0 .61-1.29 4.4-3.44zM50.31 52.75s.32 5.06-1.61 6.42c0 0-1 .94-4 1.42 0 0-.37-3.27.73-4.47 0 0 .99-1.32 4.88-3.37zM43.5 61.36h1.32v11.3H43.5zM39.93 26.29a.44.44 0 0 0-.88 0v8.78l.88.51zM41.74 24.87a.44.44 0 1 0-.88 0v10.39a11.63 11.63 0 0 1 .88-2.17zM43.6 22.62a.44.44 0 0 0-.44-.43.43.43 0 0 0-.44.43v9.07c.32-.44.64-.88.88-1.19zM48.43 26.29a.44.44 0 0 1 .44-.44.44.44 0 0 1 .44.44v8.78l-.88.51zM46.63 24.87a.44.44 0 0 1 .44-.44.44.44 0 0 1 .44.44v10.39a11.55 11.55 0 0 0-.87-2.17zM44.77 22.62a.44.44 0 0 1 .88 0v9.07l-.88-1.19z"/></g><path class="cls-2" d="M69.23 37.91l-3.44 10.73 3.88 11.9h-4.51L62.52 52l-2.59 8.5h-4.11l3.83-12.09-3.43-10.5h4.47l2.23 7.26 2.24-7.26zM72.2 55.55c0-2.67.91-4.43 3.39-7.06l2.55-2.72c1.48-1.56 1.68-2.43 1.68-4.67v-2.23c0-1.68-.76-2-1.64-2s-1.75.48-1.75 2.12v3.39h-4.15v-3.31c0-3.79 2-5.91 6-5.91s6 1.84 6 5.71v2.63c0 2.71-.52 4.31-2.87 6.83l-2.95 3.07c-1.16 1.24-1.91 2-1.91 4.15v1.28H84v3.71H72.2z"/></svg>