<svg id="TARGETS" xmlns="http://www.w3.org/2000/svg" viewBox="0 0 94.8 94.88" width="94.8" height="94.8"><style>.st0{fill:#e5243b}.st1{fill:#fff}</style><title>Goal_1_RGB_NG</title><path class="st0" d="M0 0h94.8v94.8H0z"/><path class="st1" d="M6.6 61h18.8v5.6H6.6zM27.2 61H46v5.6H27.2zM47.8 61h18.8v5.6H47.8zM68.3 61h18.8v5.6H68.3zM6.7 68.9h80.5v5.6H6.7zM13.7 49.3h1.9v5.2c0 .1.1.2.2.2h2.4c.1 0 .2-.1.2-.2v-5.3h3.9c2.5 0 4.5-2 4.6-4.5 0-1.2-.4-2.3-1.3-3.2 2-1.2 2.7-3.8 1.6-5.8-.8-1.3-2.2-2.1-3.7-2.1h-.3c-.2-3.2-3-5.6-6.1-5.3-3.2.2-5.6 3-5.3 6.1.1.7.2 1.5.6 2.1-3.5.8-5.6 4.2-4.8 7.7.6 3.1 3.1 5.1 6.1 5.1zM7.6 57.5c.5 0 .8-.4.8-.8-.1-.5-.5-.8-.9-.8s-.7.4-.8.8c0 .4.4.8.9.8zM10.5 56.6c0 .5.4.9.8.9.5 0 .9-.4.9-.8 0-.5-.4-.9-.8-.9-.5 0-.9.4-.9.8zM15.1 55.8c-.5 0-.8.4-.8.8 0 .5.4.8.8.8.5 0 .8-.4.9-.8 0-.4-.4-.8-.9-.8zM18.1 56.6c0 .5.4.8.9.8s.9-.4.9-.8-.4-.8-.9-.8-.9.4-.9.8zM21.9 56.6c0 .5.4.8.9.8s.9-.4.9-.8-.4-.8-.9-.8-.9.4-.9.8zM25.6 56.6c-.1.5.3.9.8.9s.9-.3.9-.8v-.2c-.1-.5-.5-.8-.9-.8-.4.2-.7.6-.8.9zM8.6 53.7c0 .5.4.8.9.8s.8-.4.8-.9-.4-.8-.9-.8c-.4.1-.8.5-.8.9zM12.4 53.7c0 .5.4.8.9.8s.8-.4.8-.9-.4-.8-.9-.8c-.4.1-.8.5-.8.9zM20 53.7c0 .5.4.9.8.9s.9-.4.9-.8c0-.5-.4-.9-.8-.9-.5 0-.9.4-.9.8zM23.7 53.7c0 .5.4.8.9.8s.9-.4.9-.8c0-.5-.4-.9-.9-.9s-.9.5-.9.9z"/><g><path class="st1" d="M54.1 41c.9 0 1.7-.8 1.7-1.7s-.8-1.7-1.7-1.7c-.9 0-1.7.8-1.7 1.7 0 1 .8 1.7 1.7 1.7zM58.9 47.6l-1.4-4.5s-.5-1.3-1.6-1.3h-3.5c-1.1 0-1.6 1.3-1.6 1.3l-1.4 4.5s-.2.8.5 1 .9-.6.9-.6l1.1-3.8s.1-.3.3-.2.1.4.1.4l-2 7.1h1.8v5.1c.1.5.5.8 1 .8.4 0 .7-.4.8-.8v-5h.5v5.1c0 .5.4.9.9.9s.9-.4.9-.9v-5.1H58l-2-7.1s-.1-.3.1-.4.3.2.3.2l1.1 3.8s.2.8.9.6.5-1.1.5-1.1zM38 40.4c1 0 1.8-.8 1.8-1.8s-.8-1.8-1.8-1.8-1.8.8-1.8 1.8c.1 1 .8 1.8 1.8 1.8zM40.1 41H36c-1.2.1-2.1 1.1-2.1 2.3v4.9c0 .2.1.4.3.5L32.5 57c0 .1.1.3.2.3s.2-.1.3-.2l1.5-8.2c.3 0 .6-.3.6-.7V44c0-.2 0-.4.3-.4s.2.2.2.3v12.5c.1.5.7.9 1.2.8.4-.1.7-.4.8-.8v-7.2c0-.1.1-.3.2-.3h.1c.1 0 .3.1.3.3v7.2c0 .6.4 1 1 1s1-.4 1-1V44c0-.1 0-.3.2-.3s.3.2.3.4v4.2c0 .4.3.7.7.7s.7-.3.7-.7v-4.8c.1-1.4-.8-2.4-2-2.5zM48.7 47.7c-.3-.1-.6 0-.7.2-.3.5-.6.9-.9 1.4-.1.1-.3.2-.4.2H45c-.2 0-.3-.1-.4-.2-.2-.2-.9-1.4-.9-1.4-.1-.2-.3-.2-.4-.2-.3 0-.5.2-.5.5v.2l1.4 2.6c0 .1.1.2.1.3v.4c0 .1 0 .3-.1.4l-.7 2.7h.7v2c0 .4.4.7.8.6.3 0 .6-.3.6-.6v-2-.1h.4v2c0 .4.4.7.8.6.3 0 .6-.3.6-.6v-2h.8l-.7-2.7c0-.1-.1-.2-.1-.4v-.5c0-.1 0-.2.1-.3l1.3-2.4.1-.2c.1-.1 0-.3-.2-.5 0 .1 0 0 0 0z"/><path class="st1" d="M45.8 48.7c.8 0 1.4-.6 1.4-1.4 0-.8-.6-1.4-1.4-1.4-.8 0-1.4.6-1.4 1.4 0 .7.6 1.4 1.4 1.4z"/></g><g><path class="st1" d="M86.7 42.5H64.6c-.1 0-.2.1-.2.2v14.5c0 .1.1.2.2.2h12.7V47.2h5.2v10.1h4.2c.1 0 .2-.1.2-.1V42.6s-.1-.1-.2-.1zm-13.2 9.6h-4.9v-4.9h4.9v4.9zM75.7 29.9c-.1-.1-.2-.1-.3-.1-.1 0-.3.1-.3.1l-.2.1L63 41.2v.2H88.2c.1 0 .1-.1.1-.1v-.1L75.7 29.9z"/></g><g><path class="st1" d="M47.9 8.1c-6.1 0-11.1 5-11.1 11.1s5 11.1 11.1 11.1S59 25.3 59 19.2 54 8.1 47.9 8.1zm10 9.3c0 .1 0 .3-.1.4-.1.1-.2.2-.3.2h-.1c-.1 0-.2 0-.3-.1-.1-.1-.2-.2-.2-.3 0-.1 0-.3.1-.4.1-.1.2-.2.3-.2.3 0 .5.2.6.4zm-.5-1.7v.4c-.1.1-.2.2-.3.2h-.4c-.1-.1-.2-.2-.2-.3v-.4c.1-.1.2-.2.3-.2.2 0 .5.1.6.3zm-1.6-1.5c0-.1.1-.2.2-.2.2-.1.5 0 .7.2.1.2.1.5-.2.6-.1 0-.2.1-.3.1h-.1c-.1 0-.2-.1-.3-.2-.1-.2-.1-.3 0-.5zm-3.5-3.6c.1-.2.4-.3.6-.2.1.1.2.2.2.3v.4c-.1.1-.2.2-.3.2h-.1c-.1 0-.2 0-.2-.1-.1-.1-.2-.2-.2-.3v-.3zm-1 7.3c-.1 0-.2-.1-.2-.2v-.6h1.7v.6c0 .1-.1.2-.2.2V22h-1.3v-4.1zM48 16.7h-5.4v-.4h10.7v.4H48zm-.7 1.2c-.1 0-.2-.1-.2-.2v-.6h1.7v.6c0 .1-.1.2-.2.2V22h-1.4l.1-4.1zm-4 0c-.1 0-.2-.1-.2-.2v-.6h1.7v.6c0 .1-.1.2-.2.2V22h-1.3v-4.1zm4.7-2h-5.8l-.2-.2c-.1-.1-.1-.2 0-.2l6-2.2 5.9 2.2c.1.1.1.2 0 .2l-.2.2H48zm2.7-5.9c.1-.2.4-.4.6-.3.2.1.3.3.3.6 0 .1-.1.2-.2.3H51c-.1 0-.2-.1-.3-.2V10zm-1.4-.7c.2-.2.5-.1.7.1 0 .2.1.3 0 .4 0 .2-.2.4-.5.4h-.1c-.3 0-.4-.3-.4-.6l.3-.3zm-1.4-.2c.3 0 .5.2.5.5s-.2.5-.5.5-.5-.2-.5-.5c-.1-.3.2-.5.5-.5-.1 0 0 0 0 0zm-2.1.3c.1-.1.2-.2.3-.2.1 0 .3 0 .4.1.1.1.2.2.2.3 0 .3-.1.5-.4.6h-.1c-.2 0-.4-.2-.5-.4 0-.1 0-.3.1-.4zm-1.6.6c.1-.1.2-.2.3-.2h.4s.1.1.1.2c.1.1.1.2 0 .4-.1.1-.1.2-.3.2h-.4c-.1-.1-.2-.2-.2-.3 0-.1 0-.2.1-.3zm-1.4.5c.2-.1.5-.1.6.2.1.2 0 .5-.2.7-.1 0-.1.1-.2.1-.2 0-.3-.1-.4-.2-.1-.4 0-.7.2-.8 0-.1 0-.1 0 0zm-1.4 1c.1-.1.2-.1.3-.1.1 0 .2.1.3.2.2.2.1.5-.1.7-.1.1-.2.1-.3.1-.1 0-.3-.1-.4-.2 0-.3 0-.6.2-.7zm-2.3 2.6c.2-.2.5-.3.7-.1.2.1.2.4.2.6-.1.2-.2.2-.4.2-.1 0-.2 0-.2-.1-.3 0-.4-.3-.3-.6zm-.7 1.6c0-.1.1-.2.2-.3h.4c.1 0 .2.1.3.2.1.2 0 .5-.2.6h-.4c-.3.1-.4-.2-.3-.5 0 .1 0 0 0 0zm.1 1.3c.3.1.4.3.4.6 0 .1-.1.2-.2.3-.1.1-.2.1-.3.1h-.1c-.3 0-.4-.3-.4-.6s.3-.4.6-.4zm-.7 2.2c0-.3.2-.5.4-.5.3 0 .5.1.5.4 0 .3-.1.5-.4.5h-.1c-.2.1-.4-.1-.4-.4zm.1 1.7c0-.3.1-.5.4-.5.3 0 .5.1.5.4 0 .3-.1.5-.4.6h-.1c-.1-.1-.3-.2-.4-.5zm.9 2c-.2 0-.4-.1-.5-.3-.1-.2 0-.5.3-.6.2-.1.5 0 .6.3.1.2 0 .5-.3.6h-.1zm1.2 1.2c0 .1-.1.2-.2.3-.1 0-.2.1-.2.1-.2 0-.3-.1-.4-.2-.1-.2-.1-.5.2-.7.2-.1.5 0 .7.2-.1.1-.1.2-.1.3zm.1-11.4c.1-.1.2-.2.3-.2.1 0 .3 0 .3.1.1.1.2.2.2.4 0 .1 0 .3-.1.4-.1.1-.2.2-.4.2-.1 0-.2 0-.3-.1-.1-.3-.1-.6 0-.8zm.7 13c-.1.1-.2.1-.3.1-.3 0-.5-.2-.5-.5 0-.1.1-.3.2-.3.1-.1.2-.1.3-.1.1 0 .2.1.3.2.2.2.2.5 0 .6zm1.3 1.2c-.1.1-.3.1-.4.1-.1 0-.2 0-.3-.1-.1-.1-.2-.2-.2-.3 0-.1 0-.3.1-.4.1-.1.2-.2.3-.2.1 0 .3 0 .3.1.1.1.2.2.2.3.1.2 0 .4 0 .5zm.1-3.8h.4v-.6s0-.1.1-.1h10.5s.1 0 .1.1v.6h.4v.7H42.2v-.7zm1.3 4.7c-.1.1-.2.2-.4.2-.1 0-.2 0-.2-.1-.1-.1-.2-.2-.2-.3v-.4c.1-.2.4-.3.6-.2.2.2.3.5.2.8 0-.1 0 0 0 0zm1.5.6c-.1.2-.2.3-.5.3h-.2c-.2-.1-.4-.4-.3-.6.1-.2.3-.3.6-.3.4.1.5.3.4.6zm1.2.7c-.3 0-.5-.3-.5-.5 0-.3.3-.4.5-.4.3.1.4.3.4.6 0 .2-.2.3-.4.3zm1.7.2c-.3 0-.5-.2-.5-.5s.2-.5.5-.5.5.2.5.5-.3.5-.5.5zm2.1-.4c-.1.1-.2.2-.3.2h-.1c-.2 0-.4-.2-.5-.4 0-.3.1-.5.4-.6.1 0 .3 0 .4.1.1.1.2.2.2.3 0 .2 0 .3-.1.4zm1.7-.5c-.1.1-.1.2-.3.2-.1.1-.2.1-.4 0-.1 0-.2-.1-.2-.3-.1-.1-.1-.2 0-.4 0-.1.1-.2.3-.2.2-.1.5 0 .6.3v.4zm1.3-.5c-.1 0-.2.1-.2.1h-.1c-.1 0-.2-.1-.3-.2-.1-.1-.1-.2 0-.4 0-.1.1-.2.2-.3.1-.1.2-.1.4 0 .1 0 .2.1.3.2 0 .2-.1.5-.3.6 0 0-.1 0 0 0zm1.4-1c-.1.1-.2.1-.3.1-.1 0-.3-.1-.4-.2-.2-.2-.1-.5.1-.7.2-.2.5-.1.7.1.1.3.1.6-.1.7zm.1-14.8c-.1.1-.2.2-.3.2-.2 0-.4-.2-.5-.4 0-.1 0-.2.1-.3.2-.2.5-.2.7-.1.1.1.2.2.2.3-.1.1-.1.2-.2.3zm1.2 13.6c-.1.1-.2.2-.3.2-.1 0-.2 0-.3-.1-.2-.2-.2-.5-.1-.7.1-.1.2-.2.3-.2.1 0 .3 0 .3.1.1.1.2.2.2.3 0 .2-.1.3-.1.4zm0-12.3c-.1.1-.2.1-.3.1-.1 0-.2-.1-.3-.2-.1-.1-.1-.2-.1-.4 0-.3.2-.5.5-.4.1 0 .3.1.3.2.1.1.1.2.1.4-.1.1-.2.3-.3.3h.1zm1 10.8c-.1.1-.2.2-.4.2-.1 0-.2 0-.2-.1-.2-.1-.3-.4-.2-.6.1-.1.2-.2.3-.2.1-.1.2-.1.4 0 .2.2.2.5.1.7h-.1.1zm.8-1.6c-.1.2-.3.4-.5.4h-.2c-.2-.1-.4-.4-.3-.6 0-.1.1-.2.2-.3.1-.1.2-.1.4 0s.3.3.2.6l.2-.1zm.2-1.3c-.1.1-.2.1-.3.1h-.1c-.3-.1-.4-.3-.4-.6.1-.3.3-.4.6-.4s.4.3.4.5l-.3.3.1.1zm-.1-1.6c-.3 0-.5-.2-.5-.5s.2-.5.5-.5.5.2.5.5-.2.5-.5.5h-.1.1z"/><path class="st1" d="M47.9 6.5c-7 0-12.7 5.7-12.7 12.6s5.7 12.7 12.6 12.7c7 0 12.7-5.7 12.7-12.6 0-7-5.6-12.7-12.6-12.7zm0 24.4c-6.5 0-11.7-5.2-11.7-11.7S41.4 7.5 47.9 7.5c6.5 0 11.7 5.2 11.7 11.7 0 6.4-5.3 11.7-11.7 11.7z"/></g><path d="M86.7 80.7l-.3.1c-2.5 1.3-10.4 4.3-17.5-2.5-.1-.1-.2-.2-.4-.2s-.3.1-.4.2c-2.1 1.6-11.9 8.2-20.6.1l-.1-.1c-.1-.1-.2-.1-.4-.1-.1 0-.2.1-.3.1l-.1.1c-8.8 8.2-18.6 1.6-20.7 0-.1-.1-.2-.2-.4-.2s-.3.1-.4.2c-7.1 6.8-15 3.7-17.5 2.5l-.2-.1h-.1c-.3 0-.5.2-.5.5v3.4c0 .1 0 .3.1.3 8.2 7.2 16.1.5 17.9-1.3l.2-.2c.1 0 .1-.1.2-.1s.3.1.3.2c9.3 8.9 19.1 1.7 21.1 0l.2-.2c0-.1.1-.1.2-.1s.1 0 .2.1l.2.2c2 1.7 11.8 8.9 21.1 0 .2-.1.4-.1.6 0 .1 0 .1.1.1.1C71 85.5 78.8 92.2 87 85c.1-.1.2-.2.2-.3v-3.5c0-.3-.2-.5-.5-.5"/></svg>