<svg id="TARGETS" xmlns="http://www.w3.org/2000/svg" viewBox="0 0 94.85 94.85" width="94.85" height="94.85"><defs><style>.cls-1{fill:#bf8b2e}.cls-2{fill:#fff}</style></defs><title>Goal_12_RGB_NG</title><path class="cls-1" d="M0 0h94.85v94.85H0z"/><path class="cls-2" d="M64.76 71l2.77-41.25a.56.56 0 0 0-.56-.56h-39.1a.56.56 0 0 0-.55.56L30.09 71a.56.56 0 0 0 .56.56H64.2a.56.56 0 0 0 .56-.56zm-3-2.62H33.1l-2.42-36h33.49zM67.14 27a.55.55 0 0 0 .55-.55l.39-2.31a.55.55 0 0 0-.55-.55H53.29v-1.68a.54.54 0 0 0-.55-.55H42a.55.55 0 0 0-.55.55v1.66H27.32a.55.55 0 0 0-.55.55l.37 2.31a.55.55 0 0 0 .55.55z"/><path class="cls-2" d="M44.47 46a4.76 4.76 0 0 1 5.91 0 4.42 4.42 0 0 0 1-1.3 6.4 6.4 0 0 0-8 0 4.36 4.36 0 0 0 1.09 1.3z"/><path class="cls-2" d="M52.4 42.34a5 5 0 0 1-4.74 5.21v.74l.26.07a1.43 1.43 0 0 1 .84 1.83l.63.37a5 5 0 0 1 8.91 4.32l.23.13a1.19 1.19 0 0 0 .08-.2 7.13 7.13 0 0 0-4.16-9.17v-.21a7.1 7.1 0 0 0-6.1-8v.27a5 5 0 0 1 4.05 4.64zM51.3 57.68A5 5 0 0 1 49.16 51l-.64-.38a1.14 1.14 0 0 1-.19.19 1.42 1.42 0 0 1-2-.19l-.63.38a5 5 0 0 1-8.2 5.55l-.23.13a2.09 2.09 0 0 1 .14.17 7.11 7.11 0 0 0 10 1l.17.14a7.13 7.13 0 0 0 10-1.28l-.23-.13a5 5 0 0 1-6.05 1.1z"/><path class="cls-2" d="M49.16 54.11a4.83 4.83 0 0 0 .61 1.55 6.39 6.39 0 0 0 4-6.91 4.36 4.36 0 0 0-1.64.25 4.74 4.74 0 0 1-2.97 5.11zM41.08 48.75a6.42 6.42 0 0 0 4 6.91 4.55 4.55 0 0 0 .62-1.55 4.74 4.74 0 0 1-3-5.11 4.86 4.86 0 0 0-1.62-.25z"/><path class="cls-2" d="M36.55 54.88a5 5 0 0 1 8.9-4.32l.64-.37a1 1 0 0 1-.07-.26 1.43 1.43 0 0 1 1.16-1.64v-.74a5 5 0 0 1-.71-9.86v-.27h-.22a7.11 7.11 0 0 0-5.85 8.19l-.2.08A7.13 7.13 0 0 0 36.31 55zM14.02 86.28H8.57v-5.45h2.9v2.55h2.55v2.9zM74.36 86.28h-8.62v-2.9h8.62zm-15.08 0h-8.62v-2.9h8.62zm-15.09 0h-8.62v-2.9h8.62zm-15.08 0h-8.62v-2.9h8.62zM86.28 86.28h-5.45v-2.9h2.55v-2.55h2.9v5.45zM86.28 74.36h-2.9v-8.62h2.9zm0-15.08h-2.9v-8.62h2.9zm0-15.09h-2.9v-8.62h2.9zm0-15.08h-2.9v-8.62h2.9zM86.28 14.02h-2.9v-2.55h-2.55v-2.9h5.45v5.45zM74.36 11.47h-8.62v-2.9h8.62zm-15.08 0h-8.62v-2.9h8.62zm-15.09 0h-8.62v-2.9h8.62zm-15.08 0h-8.62v-2.9h8.62zM11.47 14.02h-2.9V8.57h5.45v2.9h-2.55v2.55zM11.47 74.36h-2.9v-8.62h2.9zm0-15.08h-2.9v-8.62h2.9zm0-15.09h-2.9v-8.62h2.9zm0-15.08h-2.9v-8.62h2.9z"/></svg>