<svg id="TARGETS" xmlns="http://www.w3.org/2000/svg" viewBox="0 0 94.85 94.85" width="94.85" height="94.85"><defs><style>.cls-1{fill:#0a97d9}.cls-2{fill:none}.cls-3{fill:#fff}</style></defs><title>Goal_14_RGB_NG</title><path class="cls-1" d="M0 0h94.85v94.85H0z"/><path class="cls-2" d="M34.83 48.38a.81.81 0 1 0-.81-.81.82.82 0 0 0 .81.81z"/><path class="cls-3" d="M25.2 50.94a.07.07 0 0 0 .08.08 4.12 4.12 0 0 0 3-2.18s2.58 2.19 5 2.19c2.78 0 4.77-2.53 5.07-3V48c-.3-.42-2.29-2.95-5.07-2.95-2.43 0-5 2.19-5 2.19a4.09 4.09 0 0 0-3-2.18h-.05a.09.09 0 0 0-.08.07.45.45 0 0 0 0 .08 6 6 0 0 1 .91 2.84 6.11 6.11 0 0 1-.91 2.85zm9.63-4.18a.81.81 0 1 1-.81.81.82.82 0 0 1 .81-.81zM38.77 72.46l2-1.32c.09 0 .53-.18.43-.5s-.5-.24-.5-.24H38c-.46 0-.52-.51-.52-.51a7.38 7.38 0 0 0-.81-2.23c-.2-.34-.34-.38-.5-.33s-.23.13-.23.44a9.84 9.84 0 0 1-.41 2c-.22.6-.45.62-1 .59s-2 0-2 0a1.67 1.67 0 0 0-.41 0A.33.33 0 0 0 32 71c.31.23 1.85 1.07 2.22 1.33a.77.77 0 0 1 .33.75c0 .13-.84 2-1 2.39s.1.46.1.46c.29.17.59-.15.59-.15a23.93 23.93 0 0 0 2-1.52.44.44 0 0 1 .64 0 17 17 0 0 0 2 1.63.4.4 0 0 0 .49 0c.21-.15.06-.46.06-.46s-.66-2-.83-2.4.17-.57.17-.57zM56 41.71a.55.55 0 0 0 .53-.45v-.36-.41a6.63 6.63 0 1 0-13.26 0V41.15a.55.55 0 0 0 .55.56h2.72a3.46 3.46 0 0 1 .81 2.49 4.45 4.45 0 0 1-.82 1.49 3.05 3.05 0 0 0-.77 2.31 4.59 4.59 0 0 0 .93 1.77c.5.68 1 1.32.75 1.91-.14.39-.29.7-.43 1a5.57 5.57 0 0 0-.68 2.75.44.44 0 0 0 .44.43.43.43 0 0 0 .43-.43 4.77 4.77 0 0 1 .59-2.43c.15-.32.31-.66.46-1.07.38-1-.28-1.93-.86-2.72a3.87 3.87 0 0 1-.77-1.4c-.1-.55.27-1.06.69-1.64a5.29 5.29 0 0 0 1-1.79 3.73 3.73 0 0 0-.62-2.7h1.81a3.42 3.42 0 0 1 .81 2.49 4.28 4.28 0 0 1-.82 1.49 3 3 0 0 0-.84 2.34 4.33 4.33 0 0 0 .93 1.77c.49.68 1 1.32.75 1.91-.15.39-.3.7-.44 1a5.58 5.58 0 0 0-.67 2.75.43.43 0 0 0 .86 0 4.67 4.67 0 0 1 .6-2.38c.15-.32.3-.66.46-1.07.38-1-.28-1.93-.86-2.72a3.76 3.76 0 0 1-.78-1.4 2.34 2.34 0 0 1 .7-1.64 5.28 5.28 0 0 0 .95-1.79 3.68 3.68 0 0 0-.62-2.7h1.85a3.47 3.47 0 0 1 .82 2.49 4.63 4.63 0 0 1-.82 1.49 3.05 3.05 0 0 0-.85 2.29 4.59 4.59 0 0 0 .93 1.77c.5.68 1 1.32.75 1.91-.14.39-.29.7-.43 1a5.57 5.57 0 0 0-.68 2.75.43.43 0 0 0 .43.43.44.44 0 0 0 .44-.43 4.77 4.77 0 0 1 .59-2.43c.15-.32.31-.66.46-1.07.38-1-.28-1.93-.86-2.72a3.87 3.87 0 0 1-.77-1.4c-.1-.55.27-1.06.69-1.64a5.29 5.29 0 0 0 1-1.79 3.78 3.78 0 0 0-.62-2.7H56zM46.31 69.88a.89.89 0 1 0 .88.88.88.88 0 0 0-.88-.88zM50.74 62.68a2.07 2.07 0 1 0 2.07 2.07 2.07 2.07 0 0 0-2.07-2.07zM42.76 59a.89.89 0 1 0 .89.89.89.89 0 0 0-.89-.89zM37.38 40.34a.89.89 0 1 0-.88.88.88.88 0 0 0 .88-.88zM31.08 35.34A1.1 1.1 0 1 0 30 36.43a1.09 1.09 0 0 0 1.08-1.09z"/><path class="cls-3" d="M85.86 66.15c-2.09.76-5.68 2.08-10.07 3.6-.4-.14-.62-1.32-.66-1.64-.14-1-.7-2.34.7-3.67s2.2-1 2.91-.91 1.23 2 1.59 2.73.9.27 1-.19a6.79 6.79 0 0 0-.46-1.71c-.11-.46 0-.46.56-.39s.83.43 1.5.73 1.28.08 1.28-.54-.7-.68-1.37-.87-1-.29-.53-.8a1.46 1.46 0 0 0 .43-1.57c-.22-.47-.83-.56-1.49.41s-1.4 1-1.58.42 1-2.18 1.59-3.06a3.57 3.57 0 0 1 2.35-1.53c1-.29 1.47-.3 1.43-.73s-1.12-.33-1.63-.32a.66.66 0 0 1-.77-.77c0-.53.78-1.14 1.4-1.87s.79-1 .39-1.45-1.15-.3-1.84.33a11.5 11.5 0 0 0-1.35 1.85c-.29.33-.63-.26-1.06-.74s-1-.73-1.26-.49 0 .64.51 1.15a3.4 3.4 0 0 1 .89 2.25 2 2 0 0 1-1.19 2c-.41.13-.29-1.1-1-1.15s-.8.82-.72 1.92-1.16 1.63-1.67 1.12a7.75 7.75 0 0 1-1.16-3.29c0-.78 1-1.63 1.72-2.13s1.71-.65 1.07-1.43-2.45.31-3.14 1.06-1 .53-1.11.19a6.41 6.41 0 0 1 0-2.66 3.24 3.24 0 0 1 2.51-2.23 4.52 4.52 0 0 1 2.77 1.1c.39.24 1.08.33 1.11-.21s-1.11-1.16-1.59-1.39-.76-.25-.64-.64 1.52-1 2-1.2 1.42-.64.83-1.35-2.29.5-2.81.77-.41-.92-.49-1.22 0-1.27-.88-1.25-.68 1.58-.7 2.37-.62.75-1.67 1.54a16.92 16.92 0 0 0-2 2.07c-.34.26-.52-.56-.61-1.76a4.75 4.75 0 0 1 .58-2.76A7.78 7.78 0 0 1 73.68 44a.48.48 0 1 0-.48-.83c-.6.32-1.1.51-1.47.23s.34-1.33.77-2.19.42-1.84-.23-2.18-1.46.59-1.69 1.31-.61.81-1 .25-.85-.86-1-.69-.45.4.14 1.11a4 4 0 0 1 .8 2.26c.1.7-.47.88-.91.55s-1.14-.63-1.29-.23.37.78 1 1 .59 1.24.63 1.74-.11.82-.64.75a3.4 3.4 0 0 1-1.79-1.95 9.79 9.79 0 0 0-.21-1.55c-.17-.31-.76-.11-.79.3a10.13 10.13 0 0 1 0 1.71c-.13.28-.87-.11-1.7-.45s-1.66 0-1.56.51 1.66 1.22 2.07 1.21.7.37.48.69-1 .92-1.26 1.25.14 1 .75.52a3.74 3.74 0 0 1 2-1.16 1.64 1.64 0 0 1 1.55.78c.13.31-.37.46-1 .71s-.83.6-.84.82.13.57.76.25a3.48 3.48 0 0 1 1.45-.29c.59-.09.75.64.75.64.44 1.15 2 4.52 2.2 5s0 .93-.63.93-1.5.09-1.41.73 1.45.59 2.34.63.9.95 1.1 2.2-1.35 1.41-2.1.8a18.31 18.31 0 0 1-3.11-3.44 1.93 1.93 0 0 1 .23-2c.26-.44.83-.41 1.14-.58a.62.62 0 0 0 .13-.94c-.23-.36-1 0-1.22.31s-.55.41-.56 0 .09-1.32.08-1.69-.21-.79-.82-.54-.61 2.94-.51 3.94-.47 1.11-.84 1a5.23 5.23 0 0 1-1.71-1.68c-.27-.51-.21-.7.36-1.56a3.87 3.87 0 0 0 .6-1.13c.08-.39-.45-.49-.71-.12s-.52.73-.82.83-.17-1.25-.2-1.5 0-.67-.57-.62-.36 1.47-.36 1.72-.49.2-1.13.15-.87.69-.25.69a2.68 2.68 0 0 1 1.49.39c.28.21.34 1.33.21 1.68s-.71-.07-1.64 0-1.91.17-1.94.74.75 1.16 1.61 1 1.82-.17 2 .1-.17.37-.53.72-.45.75-.21 1.06.84.2 1.29-.25a1.77 1.77 0 0 1 1.55-.61 3.93 3.93 0 0 1 2.31.95c.49.4.16.86-.38 1.06a6.22 6.22 0 0 0-1.77 1 1.22 1.22 0 0 1-1.62 0c-.46-.38-1.12-.84-1.4-.39s.35 1 .63 1.19.46.19.23.67a6.06 6.06 0 0 1-1.28 1.36.57.57 0 0 0 .53 1 7.67 7.67 0 0 0 1.89-1.5c.15-.14.33-.46.48 0a5.77 5.77 0 0 1 .09 1.32c0 .32-.23.71.25.79a.52.52 0 0 0 .61-.29 8.81 8.81 0 0 0 0-1.23 2.37 2.37 0 0 1 .63-1.93c.61-.71 2-.48 2.89-.5s1 .65 1 1.19-1.06 1.08-1.37 1.32-1.12.4-.83 1 .51.4.87.39 1.29-1.09 2-1.2 1.23 0 1.82 1.4c.43 1 .82 4.41.23 4.45-7.62 2.57-16.8 5.44-24.82 7.27C36.33 80.77 30.13 81.7 24.25 82c.11-.24.19-.45.25-.62a3.8 3.8 0 0 1 1.31-1.58c.43-.41.35-1 .12-2s.29-1.61.59-2.38a3.44 3.44 0 0 0-.28-2.17 1 1 0 0 0-.19-.3 6.51 6.51 0 0 0-1.24 2.33c-.18 1 0 1.5-.28 2.12s-.93 1.09-.88 1.53a6.33 6.33 0 0 1-.27 2.44 2.22 2.22 0 0 1-.76.55 3.11 3.11 0 0 0-.2-2.25c-.13-.32-.5-.75 0-1.34a2.31 2.31 0 0 0 .61-2c0-.92.11-1 .87-1.69s.46-1.75.36-2.45.26-.52.74-1.08 0-1.58.08-2.31.55-.59.44-1.65a4.56 4.56 0 0 1 .26-2.15c.27-1.11-1.13-2.23-1.39-2.42.16.15 0 .49-.37 1.37s0 1.35.22 2-.2.72-.28 1.4.22.91-.44 1.55-.76 1.16-.77 2.54-.9 1.19-1.35 1.71.19 1.19.15 2.12a1.79 1.79 0 0 1-.26.88 2 2 0 0 0 0-1.32c-.43-1-.47-1.41-.37-1.61a2.65 2.65 0 0 1 .62-.64 1.27 1.27 0 0 1-.15-.26c-.19-.43 0-1 .49-2.06s.17-1.07-.17-1.7-.34-.82.21-1.36a1.68 1.68 0 0 0 .42-1.55 2.6 2.6 0 0 1-.15-1.65c.21-.74.68-.8.43-1.4s-.47-1.18-.47-1.18c-.26-.67.51-1.12 0-2.14s-.07-1.3-.33-2.67a1.44 1.44 0 0 0-1.64-1.24c-.26 0-.53.28-.4 1.29s.8 1.22.5 2.3.31 1.47.52 2-.42.86-.45 1.48.43 1.1-.22 1.75-.77.91-.21 2c.37.74-.05 1-.5 2s-.22 1.28-.07 2.47a6 6 0 0 1 .09 2.14c-.14.81-.6.91-.56 2.18a10.14 10.14 0 0 1 .42 2.57c-.12.56-1.72 1.69-1.6 2.48a11.88 11.88 0 0 0 .18 2.12h-2.04c-.1-1.09-.31-3.16-.73-5.35s.06-4.52.61-7.24 0-.07 0-.1c.23-1.14.46-2.32.67-3.6A49.72 49.72 0 0 0 17 52.77a55.64 55.64 0 0 0-1.21-5.52c-.44-1.73-.86-3.37-1.08-4.81-.46-3-.87-5.24-.87-5.26a.43.43 0 0 0-.49-.34.42.42 0 0 0-.34.49s.41 2.24.87 5.24c.22 1.48.64 3.14 1.09 4.89a52.34 52.34 0 0 1 1.19 5.43A42.26 42.26 0 0 1 16 63c0-1-.06-2-.12-3a34.49 34.49 0 0 0-1.7-8.34.42.42 0 0 0-.54-.26.42.42 0 0 0-.26.54A33.79 33.79 0 0 1 15 60.08a57.53 57.53 0 0 1-.08 9.24v.06c-.57 2.83-1.07 5.28-.62 7.63a52.05 52.05 0 0 1 .7 5.18 7.09 7.09 0 0 1-.6-.84A13 13 0 0 1 13 78.2c-.19-.57-.41-1.24-.72-2.09-1-2.67-.84-7.76-.66-11.36.06-1.06.19-2.16.32-3.33a30.7 30.7 0 0 0 0-9.91c-.95-4.74-.79-6.07-.78-6.08a.43.43 0 0 0-.36-.48.43.43 0 0 0-.48.35c0 .06-.2 1.4.79 6.38a29.88 29.88 0 0 1 0 9.64c-.13 1.18-.26 2.3-.32 3.38-.2 4-.31 8.92.71 11.7.31.84.52 1.5.71 2.06a13.06 13.06 0 0 0 1.46 3.33c.07.12.14.24.21.34a.09.09 0 0 0 0 .06H7.26v6.2h80.6v-23zM25 12a1.08 1.08 0 0 1 .18-.16.34.34 0 0 1 .22-.07.53.53 0 0 1 .35.15c9.31 8.88 19.08 1.69 21.11 0l.2-.19a.31.31 0 0 1 .19-.08c.11 0 .13 0 .19.08l.2.19c2 1.68 11.8 8.87 21.11 0a.45.45 0 0 1 .33-.14.51.51 0 0 1 .27.09.44.44 0 0 1 .13.14c1.81 1.77 9.6 8.49 17.86 1.32a.53.53 0 0 0 .14-.35v-3.4A.48.48 0 0 0 87 9.1h-.1l-.25.12c-2.53 1.27-10.4 4.29-17.54-2.46-.06-.07-.25-.25-.41-.24a.71.71 0 0 0-.39.22c-2.12 1.63-11.9 8.23-20.59.12l-.13-.13a.48.48 0 0 0-.35-.14.46.46 0 0 0-.34.14l-.14.13c-8.65 8.14-18.43 1.53-20.55-.1-.12-.09-.18-.2-.4-.19a.62.62 0 0 0-.41.21c-7.14 6.75-15 3.73-17.54 2.46l-.25-.12h-.09a.48.48 0 0 0-.52.46V13a.53.53 0 0 0 .14.35C15.42 20.51 23.23 13.8 25 12zM25 24.4a1.26 1.26 0 0 1 .18-.17.33.33 0 0 1 .22-.06.53.53 0 0 1 .35.15c9.31 8.88 19.08 1.68 21.11 0l.2-.18a.26.26 0 0 1 .19-.08c.11 0 .13 0 .19.08l.2.18c2 1.68 11.8 8.88 21.11 0a.49.49 0 0 1 .33-.13.51.51 0 0 1 .27.09.44.44 0 0 1 .13.14c1.81 1.77 9.6 8.48 17.86 1.31a.48.48 0 0 0 .14-.34V22a.49.49 0 0 0-.49-.49h-.1l-.25.13a15 15 0 0 1-17.54-2.46.7.7 0 0 0-.41-.25c-.13 0-.26.12-.39.22-2.12 1.64-11.9 8.23-20.59.12l-.13-.12a.45.45 0 0 0-.35-.14.42.42 0 0 0-.34.14l-.14.12c-8.69 8.11-18.47 1.51-20.59-.12-.12-.09-.18-.2-.4-.19a.67.67 0 0 0-.41.22c-7.14 6.74-15 3.73-17.54 2.46l-.25-.13h-.09A.49.49 0 0 0 7 22v3.41a.48.48 0 0 0 .14.34c8.28 7.13 16.09.43 17.86-1.35z"/></svg>