<svg id="TARGETS" xmlns="http://www.w3.org/2000/svg" viewBox="0 0 94.85 94.85" width="94.85" height="94.85"><defs><style>.cls-1{fill:#a21942}.cls-2{fill:#fff}</style></defs><title>Goal_8_RGB_NG</title><path class="cls-1" d="M0 0h94.85v94.85H0z"/><path class="cls-2" d="M38.79 55.84a3.36 3.36 0 1 0-3.35-3.36 3.36 3.36 0 0 0 3.35 3.36zM42.71 56.63h-7.84a4.47 4.47 0 0 0-4.06 4.46v9.3a1.31 1.31 0 0 0 .7 1.15.37.37 0 0 0-.05.11l-3 15.8a.5.5 0 0 0 .4.58H29a.49.49 0 0 0 .48-.41l3-15.8a.54.54 0 0 0 0-.18 1.3 1.3 0 0 0 1-1.26v-8c0-.3.08-.71.63-.71.38 0 .46.41.47.66V86.3a1.87 1.87 0 0 0 3.74 0V72.5a.52.52 0 0 1 .53-.55.51.51 0 0 1 .54.55v13.8a1.87 1.87 0 0 0 3.74 0V62.35c0-.25.1-.66.47-.66.55 0 .64.41.64.71v8a1.3 1.3 0 1 0 2.6 0v-9.3a4.47 4.47 0 0 0-4.13-4.47zM78.43 55.77a3.31 3.31 0 1 1 3.31-3.31 3.31 3.31 0 0 1-3.31 3.31zM74.56 57.05h7.74a4.41 4.41 0 0 1 4 4.4v9.18a1.29 1.29 0 0 1-2.57 0v-7.89c0-.29-.08-.69-.62-.69-.37 0-.45.39-.47.65v23.63a1.84 1.84 0 0 1-3.68 0V72.71a.52.52 0 0 0-.54-.54.49.49 0 0 0-.52.54v13.62a1.85 1.85 0 0 1-3.69 0V62.7c0-.26-.1-.65-.47-.65-.54 0-.63.4-.63.69v7.89a1.28 1.28 0 0 1-2.56 0v-9.18a4.41 4.41 0 0 1 4.01-4.4zM17.54 57.3a3.14 3.14 0 1 1 3.14-3.14 3.13 3.13 0 0 1-3.14 3.14zM8.62 69.76l2.6-8.49s.94-2.45 3-2.45h6.64c2.07 0 3 2.45 3 2.45l2.61 8.49s.46 1.55-.86 1.94-1.71-1.13-1.71-1.13l-2.1-7.08s-.12-.55-.53-.43-.25.7-.25.7L24.68 77h-3.41v9.51a1.63 1.63 0 0 1-3.26 0V77h-.93v9.51a1.64 1.64 0 0 1-3.27 0V77h-3.4l3.65-13.27s.16-.58-.25-.7-.52.43-.52.43l-2.11 7.08s-.4 1.52-1.71 1.13-.85-1.91-.85-1.91zM50.23 70.87l2.05-6.67.4-1.3s.87-2.31 2.81-2.31h6.24c1.94 0 2.82 2.31 2.82 2.31l.38 1.22L67 70.87s.44 1.46-.8 1.82-1.61-1.06-1.61-1.06l-2-6.65a.63.63 0 0 0 0-.13.37.37 0 0 0-.45-.27c-.39.11-.24.66-.24.66l3.44 12.47h-3.2v8.93a1.54 1.54 0 1 1-3.07 0v-8.93h-.87v8.93a1.54 1.54 0 1 1-3.07 0v-8.93h-3.2l3.44-12.47s.14-.55-.24-.66-.44.21-.48.33a.31.31 0 0 1 0 .07l-2 6.65s-.38 1.43-1.61 1.06-.81-1.82-.81-1.82zM55.48 53.4c-.06-.46-.54-1-1.57-.54-1.27.61-1.13 2.48-1.13 2.48 0 .16 0 .28.07.2.12-.28.42-.75 1.44-.89a1.56 1.56 0 0 0 .54-.17 4.23 4.23 0 0 1 .63-.89 1 1 0 0 0 .02-.19zM63 52.86c-1-.48-1.51.08-1.57.54a1.54 1.54 0 0 0 0 .24 4.55 4.55 0 0 1 .57.81 1.52 1.52 0 0 0 .59.2c1 .14 1.33.61 1.44.89 0 .08.06 0 .08-.2.03 0 .17-1.87-1.11-2.48zM58.44 52.93A3.51 3.51 0 1 0 62 56.44a3.51 3.51 0 0 0-3.56-3.51z"/><g><path class="cls-2" d="M47.42 6.67A18.61 18.61 0 1 0 66 25.28 18.61 18.61 0 0 0 47.42 6.67zm0 35.78A17.18 17.18 0 1 1 64.6 25.28a17.19 17.19 0 0 1-17.18 17.17z"/><path class="cls-2" d="M47.42 9a16.32 16.32 0 1 0 16.32 16.28A16.33 16.33 0 0 0 47.42 9zm14.64 13.7a.73.73 0 0 1-.11.52.67.67 0 0 1-.46.29h-.12a.62.62 0 0 1-.4-.13.65.65 0 0 1-.29-.45.73.73 0 0 1 .11-.52.67.67 0 0 1 .46-.29.69.69 0 0 1 .81.58zm-.67-2.51a.7.7 0 0 1-.42.9.69.69 0 0 1-.24.05.82.82 0 0 1-.3-.07.71.71 0 0 1-.36-.4.75.75 0 0 1 0-.53.73.73 0 0 1 .4-.37.7.7 0 0 1 .92.42zM59 18a.66.66 0 0 1 .33-.42.7.7 0 0 1 1 .79.75.75 0 0 1-.33.43.73.73 0 0 1-.35.09h-.18a.69.69 0 0 1-.43-.33A.72.72 0 0 1 59 18zm-5.1-5.34a.7.7 0 0 1 .42-.33.77.77 0 0 1 .54.07.7.7 0 0 1 .25 1 .66.66 0 0 1-.42.33.63.63 0 0 1-.19 0 .74.74 0 0 1-.35-.1.64.64 0 0 1-.32-.43.66.66 0 0 1 .07-.54zm-1.45 10.76a.24.24 0 0 1-.24-.24v-.95h2.5v.95a.24.24 0 0 1-.24.24v6H52.5v-6zm-4.93-1.86h-7.84V21h15.68v.55zm-1 1.86a.24.24 0 0 1-.24-.24v-.95h2.5v.95a.24.24 0 0 1-.25.24h-.05v6h-1.92v-6zm-5.94 0a.23.23 0 0 1-.24-.24v-.95h2.49v.95a.24.24 0 0 1-.24.24v6h-1.97v-6zm7-3h-8.43l-.34-.34a.24.24 0 0 1 .06-.38l8.65-3.25 8.65 3.25a.24.24 0 0 1 .06.38l-.34.34zm4.09-8.7a.69.69 0 0 1 .9-.42.69.69 0 0 1 .39.36.69.69 0 0 1-.63 1 .69.69 0 0 1-.66-.94zm-2.13-1a.7.7 0 0 1 1.1.69.75.75 0 0 1-.29.46.72.72 0 0 1-.4.12h-.13a.68.68 0 0 1-.45-.29.69.69 0 0 1-.12-.52.67.67 0 0 1 .23-.42zm-2.06-.35a.71.71 0 1 1-.7.71.71.71 0 0 1 .64-.67zm-3 .52a.68.68 0 0 1 .45-.29.71.71 0 0 1 .82.57.69.69 0 0 1-.12.52.68.68 0 0 1-.45.29H45a.71.71 0 0 1-.7-.58.69.69 0 0 1 .09-.47zm-2.45.74a.68.68 0 0 1 .4-.36.72.72 0 0 1 .54 0 .68.68 0 0 1 .36.4.71.71 0 0 1-.42.9.67.67 0 0 1-.24 0 .69.69 0 0 1-.66-.46.72.72 0 0 1-.07-.44zM40 12.4a.75.75 0 0 1 .53-.07.69.69 0 0 1 .43.33.68.68 0 0 1 .07.54.66.66 0 0 1-.33.42.64.64 0 0 1-.35.1.71.71 0 0 1-.61-.36.72.72 0 0 1 .26-.96zm-2.12 1.49a.68.68 0 0 1 .51-.16.65.65 0 0 1 .48.25.7.7 0 0 1-.09 1 .71.71 0 0 1-1-.09.7.7 0 0 1 .09-1zm-3.32 3.95a.71.71 0 0 1 1.22.71.72.72 0 0 1-.61.35.73.73 0 0 1-.35-.09.72.72 0 0 1-.27-.97zm-1.09 2.35a.7.7 0 0 1 .9-.42.74.74 0 0 1 .39.37.7.7 0 0 1 0 .53.73.73 0 0 1-.66.47.93.93 0 0 1-.24 0 .7.7 0 0 1-.4-.95zm.14 1.94a.65.65 0 0 1 .45.29.69.69 0 0 1 .12.52.71.71 0 0 1-.69.58h-.12a.7.7 0 1 1 .24-1.38zm-1 3.15a.7.7 0 0 1 .2-.5.73.73 0 0 1 .5-.21.72.72 0 0 1 .71.71.71.71 0 0 1-1.41 0zm.22 2.58a.72.72 0 0 1 .58-.82.69.69 0 0 1 .52.12.71.71 0 0 1 .29.46.69.69 0 0 1-.12.52.67.67 0 0 1-.45.29h-.12a.71.71 0 0 1-.75-.57zm1.34 3a.7.7 0 0 1-.24-1.36.65.65 0 0 1 .53 0 .73.73 0 0 1 .37.4.7.7 0 0 1-.42.9.67.67 0 0 1-.29.02zM35.51 33a.73.73 0 0 1-.35.09.72.72 0 0 1-.61-.35.7.7 0 0 1 .26-1 .7.7 0 0 1 .7 1.22zM36 15.72a.73.73 0 0 1 .47-.25.7.7 0 0 1 .52.17.71.71 0 0 1 .08 1 .69.69 0 0 1-.54.25.74.74 0 0 1-.45-.17.71.71 0 0 1-.08-1zm1 19.2a.71.71 0 0 1-1-.09.71.71 0 0 1 .08-1 .7.7 0 0 1 1 .09.71.71 0 0 1-.08 1zm1.83 1.66a.72.72 0 0 1-.54.25.71.71 0 0 1-.54-1.16.72.72 0 0 1 1-.08.65.65 0 0 1 .25.47.71.71 0 0 1-.14.52zm.23-5.49h.59v-.93a.1.1 0 0 1 .1-.11h15.5a.11.11 0 0 1 .11.11v.93h.58v1H39.09zm1.94 6.8a.68.68 0 0 1-.61.35.73.73 0 0 1-.35-.09.71.71 0 1 1 .71-1.22.7.7 0 0 1 .25.96zm2.29.94a.7.7 0 0 1-.66.46.69.69 0 0 1-.24 0 .7.7 0 0 1-.42-.9.7.7 0 0 1 .9-.42.72.72 0 0 1 .37.86zm1.71 1.1h-.13a.72.72 0 0 1-.57-.82.7.7 0 0 1 1.27-.28.69.69 0 0 1 .12.52.7.7 0 0 1-.69.58zm2.45.21a.7.7 0 1 1 .71-.7.7.7 0 0 1-.74.7zm3.16-1a.72.72 0 0 1-.57.82h-.13a.71.71 0 1 1 .7-.83zm2.32-.22a.74.74 0 0 1-.39.37 1 1 0 0 1-.24 0 .63.63 0 0 1-.3-.07.69.69 0 0 1-.36-.39.7.7 0 0 1 1-.88.74.74 0 0 1 .37.39.72.72 0 0 1-.11.54zm2.28-1.16a.7.7 0 0 1-.32.43.73.73 0 0 1-.35.09.58.58 0 0 1-.19 0 .71.71 0 0 1-.49-.86.69.69 0 0 1 .32-.43.73.73 0 0 1 .54-.07.7.7 0 0 1 .42.33.66.66 0 0 1 .04.47zm1.79-1.1a.7.7 0 0 1-.45.17h-.07a.73.73 0 0 1-.47-.25.71.71 0 0 1-.16-.52.68.68 0 0 1 .24-.47.76.76 0 0 1 .52-.17.78.78 0 0 1 .48.25.72.72 0 0 1-.09.99zm.09-21.78a.73.73 0 0 1-.48.25h-.06a.71.71 0 0 1-.45-.16.65.65 0 0 1-.25-.48A.67.67 0 0 1 56 14a.7.7 0 0 1 1-.09.71.71 0 0 1 .07.97zm1.74 19.95a.71.71 0 0 1-1 .09.7.7 0 0 1-.09-1 .69.69 0 0 1 .48-.25.66.66 0 0 1 .51.16.7.7 0 0 1 .08 1zm-.09-18.12a.66.66 0 0 1-.45.17h-.06a.65.65 0 0 1-.48-.25.71.71 0 0 1-.16-.51.73.73 0 0 1 .25-.47.71.71 0 0 1 1 .08.69.69 0 0 1 .16.51.65.65 0 0 1-.28.47zm1.58 16a.75.75 0 0 1-.43.33h-.18a.68.68 0 0 1-.35-.09.71.71 0 0 1-.33-.43.7.7 0 0 1 .07-.53.7.7 0 0 1 1-.26.71.71 0 0 1 .2.98zm1.09-2.35a.69.69 0 0 1-.66.46.67.67 0 0 1-.24 0 .71.71 0 0 1-.06-1.3.72.72 0 0 1 .54 0 .7.7 0 0 1 .4.84zm.39-2.05a.71.71 0 0 1-.41.13h-.12a.71.71 0 0 1-.57-.82.68.68 0 0 1 .29-.45.69.69 0 0 1 .52-.12.71.71 0 0 1 .57.82.7.7 0 0 1-.3.44zM61.58 26a.71.71 0 1 1 .71-.7.72.72 0 0 1-.71.7z"/></g></svg>