<svg id="TARGETS" xmlns="http://www.w3.org/2000/svg" viewBox="0 0 94.85 94.85" width="94.85" height="94.85"><defs><style>.cls-1{fill:#4c9f38}.cls-2{fill:#fff}</style></defs><title>Goal_3_RGB_NG</title><path class="cls-1" d="M0 0h94.85v94.85H0z"/><path class="cls-2" d="M65.38 56.84v3c0 1.7-.86 2.81-2.94 2.81s-2.85-1.2-2.85-3.07V58.2h1.88v1.55c0 .72.26 1.2 1 1.2s.87-.46.87-1.11v-3c0-.67-.26-1.11-.89-1.11s-.91.4-.91 1.13v.27h-1.92v-6.91h5.45v1.69h-3.56V55a1.88 1.88 0 0 1 1.74-.85c1.13-.03 2.13.75 2.13 2.69zM71.92 57.84v4.68h-2.07v-4.68l-2.31-7.62h2.16l1.3 4.66 1.26-4.66h2zM77.2 56.88v5.64h-2.07v-12.3h3c2.08 0 2.85 1 2.85 2.76v1.58c0 1.32-.48 2.1-1.66 2.37l2 5.59h-2.18zm0-5v3.83h.69a.9.9 0 0 0 1-1V52.9c0-.67-.31-1-1-1zM82.11 59.87v-1.65H84v1.69c0 .69.31 1.09 1 1.09s.94-.44.94-1.09v-.47a2.23 2.23 0 0 0-.92-1.74l-1.22-1.22c-1.18-1.16-1.73-1.87-1.73-3.28v-.42A2.57 2.57 0 0 1 85 50.07c2.07 0 2.89 1 2.89 2.8v1H86V52.8c0-.71-.33-1.06-1-1.06a.91.91 0 0 0-1 1V53c0 .69.38 1.09 1 1.67L86.37 56C87.5 57.13 88 57.82 88 59.19v.59a2.67 2.67 0 0 1-3 2.89c-2.08 0-2.89-1.18-2.89-2.8z"/><g><path class="cls-2" d="M23 69.47a.93.93 0 0 1 0-.13 1.69 1.69 0 0 0-.11-.27 2.12 2.12 0 0 0-.11-.21.8.8 0 0 1-.09-.14l-.12-.14-.2-.21-4-4.29c-.51-.57-.14-.85-.14-.85l3.49-3.58-5.42-5.59s-3.54 3.59-5 5c-2.31 2.31 0 4.73 0 4.73l7.88 7.88a2.3 2.3 0 0 0 1.63.67h.35a1.89 1.89 0 0 0 .34-.09 2.31 2.31 0 0 0 1.61-2.19v-.07a1.61 1.61 0 0 0-.11-.52zM31.39 54.06L26 59.65l3.49 3.58s.37.28-.15.85l-4 4.29-.19.21-.12.14-.09.14-.12.21c0 .08-.07.17-.1.27a.5.5 0 0 0 0 .13 1.89 1.89 0 0 0-.06.55v.07a2.29 2.29 0 0 0 1.61 2.19l.33.09h.36a2.28 2.28 0 0 0 1.63-.67l7.88-7.88s2.3-2.42 0-4.73c-1.55-1.44-5.08-5.03-5.08-5.03zM23.82 35.93a6.74 6.74 0 1 0-6.74-6.74 6.75 6.75 0 0 0 6.74 6.74z"/><path class="cls-2" d="M88.46 40.36l-5.16-3.94a.26.26 0 0 0-.17-.07.24.24 0 0 0-.23.22v2.76h-12v-2.1h-1v2.1H57.74a1.24 1.24 0 0 0-1.18.84L53 50.58l-5.23-22.51a1.24 1.24 0 0 0-1.18-1 1.28 1.28 0 0 0-1.24.9l-5.72 19.71-9.41-9.42a2.19 2.19 0 0 0-1.63-.72h-9.54a2.18 2.18 0 0 0-1.62.72L7 48.69a3.13 3.13 0 0 0-.44.66l-.09.21a2.2 2.2 0 0 0-.14.73 2.15 2.15 0 0 0 3.32 1.78 1.52 1.52 0 0 0 .2-.18l.34-.36 5.26-5.41s.81-.82 1 .09v4.87h14.76v-4.87c.18-.91 1-.09 1-.09l5.25 5.41.35.36a1.52 1.52 0 0 0 .2.18 2.14 2.14 0 0 0 3.15-1 .75.75 0 0 0 .07-.18l5.2-17.59 5.1 22.1a1.25 1.25 0 0 0 1.15 1h.07a1.26 1.26 0 0 0 1.18-.85l4.7-13.7h11.25v2.1h1v-2.1h12v2.77a.23.23 0 0 0 .23.22.25.25 0 0 0 .15-.05h.05l5.1-3.95v-.05a.32.32 0 0 0 .07-.2.34.34 0 0 0-.02-.23z"/></g></svg>