<svg id="TARGETS" xmlns="http://www.w3.org/2000/svg" viewBox="0 0 94.85 94.85" width="94.85" height="94.85"><defs><style>.cls-1{fill:#a21942}.cls-2{fill:#fff}</style></defs><title>Goal_8_RGB_NG</title><path class="cls-1" d="M0 0h94.85v94.85H0z"/><path class="cls-2" d="M81.73 79.31l-9.91.01v-3.43l-1.5.01v3.42l-12.67.01v-3.42h-1.5v3.42l-12.67.01-.01-3.42h-1.5l.01 3.42-12.68.02v-3.43h-1.5v3.43l-12.43.01-.01-11.7 3.16-.01-.01-1.5-3.15.01-.02-12.68h3.16v-1.5h-3.16l-.01-12.67h3.16v-1.5h-3.16l-.01-12.67 3.16-.01v-1.5l-3.16.01-.01-10.37h-2.2l.06 68.28h.29v.01l67.78-.06h.5l-.01-2.2z"/><path class="cls-2" d="M25.38 63.54l15.8-15.85a6.06 6.06 0 0 0 8.12-.1l8.51 8.14L48.65 65l-8.72-8.86-10.59 10.77 2.49 2.46 8.11-8.25 8.7 8.88 11.7-11.82L67.52 65l2.73-2.88a3.76 3.76 0 0 0 1.91.54 3.82 3.82 0 1 0-3.81-3.81 3.73 3.73 0 0 0 .5 1.84l-1.4 1.48-5.7-5.45 6.82-6.89.35.35 1.65 1.66.06.06a.29.29 0 0 0 .38 0 .25.25 0 0 0 .08-.17v-.06l1-7.61V44a.32.32 0 0 0-.1-.23.39.39 0 0 0-.19-.1h-.14l-7.51 1h-.05a.24.24 0 0 0-.19.08.27.27 0 0 0 0 .37l.09.1 1.66 1.68.45.44-6.89 7L50.54 46a5.94 5.94 0 0 0 .74-2.91 6 6 0 0 0-1.53-4l3.35-3.36 2.63 2.54a3.74 3.74 0 0 0-.3 1.46 3.82 3.82 0 1 0 3.82-3.81 3.77 3.77 0 0 0-2.28.77l-2.45-2.39 14.81-14.87.73.74 1.39 1.39v.05a.23.23 0 0 0 .32 0 .27.27 0 0 0 .07-.14v-.07l.83-6.4v-.07a.28.28 0 0 0-.09-.19.3.3 0 0 0-.16-.08h-.11l-6.31.85a.25.25 0 0 0-.16.06.23.23 0 0 0 0 .32l.08.08 1.4 1.41.6.61-19.73 19.82a6 6 0 0 0-3-.8 6.09 6.09 0 0 0-3.13.88l-2.56-2.44a4.75 4.75 0 0 0 .69-2.45 4.66 4.66 0 0 0-.66-2.37l3.31-3.37.64.64 1.38 1.4a.23.23 0 0 0 .32 0 .17.17 0 0 0 .07-.14v-.05l.84-6.4v-.07a.37.37 0 0 0-.09-.19.3.3 0 0 0-.16-.08h-.12l-6.32.85a.23.23 0 0 0-.17.07.23.23 0 0 0 0 .31l.08.08 1.4 1.42.7.7-3.24 3.3a4.72 4.72 0 0 0-2.76-.9 4.77 4.77 0 1 0 2.71 8.68l2.38 2.28a6 6 0 0 0-.62 6.93L24 62.13zM72.16 57a1.82 1.82 0 1 1-1.81 1.81A1.81 1.81 0 0 1 72.16 57zM59.25 37.91a1.81 1.81 0 0 1 0 3.62 1.81 1.81 0 1 1 0-3.62zM45.18 39a4.1 4.1 0 1 1-4.09 4.1 4.1 4.1 0 0 1 4.09-4.1zm-9.75-3.24A2.77 2.77 0 1 1 38.19 33a2.77 2.77 0 0 1-2.76 2.77z"/></svg>