<svg id="TARGETS" xmlns="http://www.w3.org/2000/svg" viewBox="0 0 94.8 94.88" width="94.8" height="94.8"><style>.st0{fill:#dd1367}.st1{fill:#fff}</style><title>Goal_10_RGB_NG</title><path class="st0" d="M0 0h94.8v94.8H0z"/><path class="st1" d="M30.1 69.5c-4.1-1.5-6.6-2.2-8.7-3.2s-3.1-1.8-3.6-1.2c-.6.8-.2 2.2 1.3 3.2s4.3 2.1 4.9 2.4.9.7.4 1.1-3.6-1.2-4.4-1.8c-2-1.4-3.7-3.2-5.1-5.2-1.1-1.8-3-6-3.4-6.5s-1.1-1.6-1.8-1.3-.4 1.5-.1 2.4c1.2 4.1 2.8 8 4.8 11.7 1.8 3.1 2.3 3.7 5.3 5.1s5.7 1.7 7 2.8c1.5 1.2 2.6 2.7 3.3 4.5 0 .1.1.3.3.7h9.5c-1.8-3.7-3.5-7.1-3.7-7.8-.8-3.2-3-5.7-6-6.9zM85.3 57c-.7-.3-1.3.7-1.8 1.3S81.2 63 80 64.8c-1.4 2-3.1 3.8-5.1 5.2-.9.6-4 2.2-4.4 1.9s0-.8.4-1.1 3.4-1.4 4.9-2.4 1.9-2.5 1.3-3.2c-.5-.6-1.5.3-3.6 1.2-2.1.9-4.6 1.6-8.7 3.2-3 1.2-5.2 3.7-5.9 6.8-.2.7-1.8 4.1-3.7 7.8h9.5l.3-.7c.7-1.8 1.9-3.3 3.3-4.5 1.3-1 4.1-1.4 7-2.8s3.4-2 5.3-5.1c2-3.7 3.6-7.7 4.9-11.7.2-.9.5-2.1-.2-2.4zM36.7 25.8c1.5 0 2.7-1.2 2.7-2.7s-1.2-2.7-2.7-2.7-2.7 1.2-2.7 2.7c0 1.5 1.2 2.7 2.7 2.7zM52.9 36.7c-.3 0-.5.1-.7.4-.1 0-1.1 1.9-1.5 2.3-.2.2-.4.3-.7.3h-2.7c-.3 0-.5-.1-.7-.3-.3-.3-1.4-2.2-1.5-2.3-.1-.2-.4-.4-.7-.4h-.1v-.1l-2.2-7.3s-.8-2.1-2.6-2.1h-5.8c-1.8 0-2.6 2.1-2.6 2.1L29 36.5s-.4 1.3.7 1.7 1.5-1 1.5-1l1.8-6.1s.1-.5.5-.4.2.6.2.6l-3.1 11.4h2.9V51c-.1.8.5 1.5 1.3 1.5.8.1 1.5-.5 1.5-1.3V42.8h.8V51c-.1.8.5 1.5 1.3 1.5.8.1 1.5-.5 1.5-1.3V42.8h2.9l-3.1-11.4s-.1-.5.2-.6.5.4.5.4l1.8 6.1s.3 1.3 1.5 1c.1 0 .2-.1.3-.1l2.1 3.8c.1.2.1.4.1.5v.8L45 47.7h1.2v3.6c-.1.6.4 1.2 1 1.2s1.2-.4 1.2-1V47.7h.6v3.6c-.1.6.4 1.2 1 1.2s1.2-.4 1.2-1V47.7h1.2l-1.2-4.4v-.8c0-.2.1-.4.1-.5l2.1-3.8c.1-.2.2-.4.3-.7 0-.5-.4-.8-.8-.8z"/><path class="st1" d="M48.7 38.2c1.2 0 2.3-1 2.3-2.2 0-1.2-1-2.3-2.2-2.3-1.2 0-2.3 1-2.3 2.2 0 1.3 1 2.3 2.2 2.3zM19.8 24.5c1.6 0 2.9-1.2 2.9-2.8s-1.2-2.9-2.8-2.9c-1.6 0-2.9 1.2-2.9 2.8 0 1.6 1.2 2.8 2.8 2.9zM14.1 38.3c.6 0 1.1-.5 1.1-1.1v-6.8c0-.3.1-.6.5-.6.5 0 .4.3.4.6v20.3c-.1.9.6 1.6 1.5 1.7.9.1 1.6-.6 1.7-1.5V39c0-.2.2-.5.4-.5s.4.2.5.4V50.7c-.1.9.6 1.6 1.5 1.7.9.1 1.6-.6 1.7-1.5V30.4c0-.2.1-.6.4-.6s.5.3.5.6v6.8c0 .4.3.8.7 1v.2l2.5 13.4c0 .3.3.5.5.5h.1c.3-.1.5-.4.5-.7l-2.5-13.4c0-.1 0-.1-.1-.2.3-.2.5-.5.5-.9v-7.9c0-2-1.5-3.6-3.5-3.8H16.4c-2 .2-3.5 1.8-3.5 3.8v7.9c.1.7.6 1.2 1.2 1.2zM54.1 46h13v6.3h-13zM66 39h-1.3c0-1-.8-1.8-1.8-1.8s-1.8.8-1.8 1.8h-1.3v6.3H66V39zm-3.1-1.4c.8 0 1.4.6 1.4 1.3h-2.7c-.1-.7.5-1.3 1.3-1.3zM74 24.4c1.6 0 2.8-1.3 2.8-2.8s-1.3-2.9-2.8-2.9c-1.6 0-2.8 1.3-2.8 2.8-.1 1.6 1.2 2.9 2.8 2.9zM68.3 38.3c.6 0 1.1-.5 1.1-1.1v-6.8c0-.3.1-.6.5-.6s.4.3.4.6v20.3c-.1.9.6 1.6 1.5 1.7s1.6-.6 1.7-1.5V39c0-.2.2-.5.4-.5h.1c.2 0 .4.2.5.4v11.7c-.1.9.6 1.6 1.5 1.7s1.6-.6 1.7-1.5V30.4c0-.2.1-.6.4-.6.5 0 .5.3.5.6v6.8c.1.6.6 1.1 1.2 1 .5-.1.9-.5 1-1v-7.9c0-2-1.5-3.6-3.4-3.8H70.8c-2 .2-3.4 1.8-3.4 3.8v7.9c-.2.6.3 1.1.9 1.1z"/><path class="st1" d="M78.3 39H82v8h-3.7z"/></svg>