<svg id="TARGETS" xmlns="http://www.w3.org/2000/svg" viewBox="0 0 94.85 94.85" width="94.85" height="94.85"><defs><style>.cls-1{fill:#a21942}.cls-2{fill:#fff}</style></defs><title>Goal_8_RGB_NG</title><path class="cls-1" d="M0 0h94.85v94.85H0z"/><path class="cls-2" d="M80.42 27.59a4.26 4.26 0 1 0-4.25 4.26 4.25 4.25 0 0 0 4.25-4.26zM67.53 49.87l2.2-7.4-3.22-1.73-2.46 8s-.63 2.11 1.16 2.64 2.32-1.51 2.32-1.51z"/><path class="cls-2" d="M81.24 39.67c.55-.16.71.58.71.58l.42 1.42 3.21-1.73-.83-2.7s-1.27-3.34-4.07-3.34h-9c-2.81 0-4.07 3.34-4.07 3.34l-.78 2.52L70 41.49l.37-1.24s.15-.74.71-.58.35.95.35.95l-5 18h4.67v12.93a2.22 2.22 0 0 0 4.44 0V58.64h1.26v12.91a2.22 2.22 0 1 0 4.44 0V58.64h4.61l-5-18s-.17-.81.39-.97z"/><path class="cls-2" d="M88.29 48.76l-2.41-7.84-3.22 1.73 2.14 7.22s.54 2.06 2.33 1.53 1.16-2.64 1.16-2.64zM71.49 26.16H71a5.39 5.39 0 0 1 10.41 0h-.59V29h.86a5.18 5.18 0 0 1-1.48 2.53.56.56 0 0 0-.65-.2l-1.57.6a.58.58 0 0 0-.33.74l.14.36a.57.57 0 0 0 .74.33l1.57-.59a.59.59 0 0 0 .33-.74l-.11-.28A5.46 5.46 0 0 0 81.9 29h.87v-2.84h-.88a5.89 5.89 0 0 0-11.45 0h-.87V29h1.92z"/><g><path class="cls-2" d="M37 48.15l-3.66-11.81s-1.3-3.41-4.17-3.41h-1.69l-3.24 4.71-2.85-4.71h-1.46c-2.87 0-4.17 3.41-4.17 3.41l-3.62 11.81a3 3 0 0 0 0 1.55h-.44a1 1 0 0 0-1 1v.82H7.42a1 1 0 0 0-1 1v1.79a2 2 0 0 0 .07.5 1.93 1.93 0 0 0 1.87 1.44h3.7v-.71a.47.47 0 0 1 .48-.48h.91a.48.48 0 0 1 .49.48v.71h3.7a1.93 1.93 0 0 0 1.87-1.44v1.41a2.59 2.59 0 0 1-1.87 1H14v.8a.49.49 0 0 1-.15.34.44.44 0 0 1-.34.14h-.91a.43.43 0 0 1-.19 0 .47.47 0 0 1-.29-.44v-.8H8.39a2.32 2.32 0 0 1-1.19-.36 2.1 2.1 0 0 1-.42-.32 1.56 1.56 0 0 1-.26-.27.42.42 0 0 1-.07-.31v4.9a1 1 0 0 0 1 1h11.18a.94.94 0 0 0 .73-.34v10a2.28 2.28 0 0 0 4.55 0V58.27h1.29V71.5a2.27 2.27 0 0 0 4.54 0V58.27h4.74l-5.09-18.46s-.22-.81.35-1 .73.6.73.6l2.93 9.85s.55 2.12 2.38 1.57S37 48.15 37 48.15zm-22.4 3.34h-3.15v-.78a.25.25 0 0 1 .25-.24h.93a1.68 1.68 0 0 0 .7.38 1.63 1.63 0 0 0 1.27-.08zm5.11-11.68L16.5 51.49h-1.17v-.82a.89.89 0 0 0-.11-.43 3.09 3.09 0 0 0 .49-1l2.92-9.85s.16-.76.73-.6.35 1.02.35 1.02zM17 26.26c.15-.37.54-1 1.89-1.17a2.06 2.06 0 0 0 .7-.22 5.33 5.33 0 0 1 .83-1.16 1.1 1.1 0 0 0 0-.26c-.07-.61-.71-1.34-2.06-.71-1.66.8-1.48 3.25-1.48 3.25.12.21.12.37.12.27zM29.09 24.83a1.88 1.88 0 0 0 .77.26c1.35.18 1.73.8 1.89 1.17 0 .1.07-.06.09-.27 0 0 .19-2.45-1.47-3.25-1.36-.63-2 .1-2.07.71a2.69 2.69 0 0 0 0 .32 5.38 5.38 0 0 1 .79 1.06zM24.37 32a4.61 4.61 0 1 0-4.6-4.6 4.6 4.6 0 0 0 4.6 4.6z"/><rect class="cls-2" x="12.48" y="55.57" width="1.09" height="2.31" rx=".16" ry=".16" transform="rotate(-.35 12.926 55.699)"/></g><g><path class="cls-2" d="M45.25 71.35a2.41 2.41 0 1 0 4.81 0v-1.81h-4.81zM51.44 71.35a2.41 2.41 0 0 0 4.82 0v-1.81h-4.82zM46.41 38v-4.88h-.73a5.77 5.77 0 0 0-5.24 5.75v12a1.68 1.68 0 0 0 3.35 0V40.58c0-.39.11-.91.82-.91h1.77zM48.26 36.93h5.14v-3.81H48.26v3.81z"/><path class="cls-2" d="M54.63 40.75h-.46V38h-6.68v2.74h-2.24v27.69h4.81v-15.1a.66.66 0 0 1 .69-.7.65.65 0 0 1 .68.7v15.1h4.82V40.75h-1.62z"/><path class="cls-2" d="M55.8 33.14h-.56v6.55h1.63c.7 0 .81.52.81.91v10.27a1.68 1.68 0 0 0 3.35 0v-12a5.77 5.77 0 0 0-5.23-5.73zM53.81 37.25a.51.51 0 0 0 .5.5.5.5 0 0 0 .5-.5.5.5 0 0 0-.5-.5.5.5 0 0 0-.5.5zM46.89 37.25a.5.5 0 0 0 .5.5.51.51 0 0 0 .5-.5.5.5 0 0 0-.5-.5.5.5 0 0 0-.5.5zM53.61 26.26c-.38-.32-.69-.61-1.33-.31-.4.2-.57.33-1.07.56a10.61 10.61 0 0 1-2.84.85 10.2 10.2 0 0 1-2.24.16 4.5 4.5 0 0 0 8.95.1 17.64 17.64 0 0 0-1.47-1.36z"/><path class="cls-2" d="M46.15 26.57a9.52 9.52 0 0 0 2.06-.18 10.37 10.37 0 0 0 2.54-.83 13.81 13.81 0 0 1 1.42-.56 1.41 1.41 0 0 1 .93-.14 1.38 1.38 0 0 1 .4.26l.36.3s.17.16 1.21 1c.12.09.23.19.31.16s.13-.78.09-1.17a6.72 6.72 0 0 0-1.36-3.09 1 1 0 0 0-1-.44c-.6.11-.59-.31-1-.56a4.13 4.13 0 0 0-3.93.64 10.21 10.21 0 0 0-2.93 4c-.12.34.32.61.9.61z"/></g></svg>