<svg id="TARGETS" xmlns="http://www.w3.org/2000/svg" viewBox="0 0 94.85 94.85" width="94.85" height="94.85"><defs><style>.cls-1{fill:#19486a}.cls-2{fill:#fff}</style></defs><title>Goal_17_RGB_NG</title><path class="cls-1" d="M0 0h94.85v94.85H0z"/><path class="cls-2" d="M64.28 25a.82.82 0 0 0-.88-.77h-1.26c-.45 0-.9-.14-1-.63a16.1 16.1 0 0 0-.81-2.43 1 1 0 0 1 .31-1.23c.39-.31.69-.58 1.06-.9a.87.87 0 0 0 .21-1.1 12.36 12.36 0 0 0-1.95-2.6.86.86 0 0 0-1.18-.11l-1 .71c-.42.3-.81.43-1.21.1-.74-.55-1.58-1.15-2.08-1.48a1 1 0 0 1-.48-1.18c.13-.48.22-.87.33-1.35a.87.87 0 0 0-.48-1 12.37 12.37 0 0 0-3.1-.95.84.84 0 0 0-1 .6c-.17.44-.29.76-.43 1.19s-.41.82-.92.79h-2.56a1 1 0 0 1-1.07-.68c-.18-.47-.34-.83-.54-1.29a.84.84 0 0 0-1-.53 12.38 12.38 0 0 0-3.07 1.05.83.83 0 0 0-.46 1.08c.12.45.21.78.35 1.22s.15.9-.28 1.18-1.48 1-2.05 1.52a1 1 0 0 1-1.27.08c-.42-.27-.77-.47-1.19-.73a.87.87 0 0 0-1.11.14 12.23 12.23 0 0 0-1.86 2.66.84.84 0 0 0 .25 1.15c.37.29.64.51 1 .78s.65.64.47 1.12-.6 1.92-.77 2.43a1 1 0 0 1-1 .82c-.5 0-.9.06-1.39.11a.86.86 0 0 0-.82.76 12.19 12.19 0 0 0 .06 3.25.84.84 0 0 0 .88.78h1.27c.5 0 .89.13 1 .62a19.48 19.48 0 0 0 .82 2.43 1.06 1.06 0 0 1-.32 1.24c-.38.31-.68.57-1.05.9a.84.84 0 0 0-.21 1.1 12.3 12.3 0 0 0 2 2.59.83.83 0 0 0 1.17.11l1-.71a.91.91 0 0 1 1.21-.1c.35.29 1.58 1.16 2.08 1.48a1.05 1.05 0 0 1 .47 1.19c-.13.48-.22.87-.33 1.35a.86.86 0 0 0 .48 1 12.09 12.09 0 0 0 3.1 1 .84.84 0 0 0 1-.6c.16-.44.28-.76.43-1.19s.4-.82.92-.79h2.55a1 1 0 0 1 1.08.67c.18.47.34.84.53 1.29a.86.86 0 0 0 1 .54 11.88 11.88 0 0 0 3.07-1.06.83.83 0 0 0 .47-1.08c-.13-.45-.22-.78-.35-1.21s-.16-.9.27-1.18 1.61-1.17 2.06-1.52a1 1 0 0 1 1.3-.17c.42.27.76.48 1.18.73a.86.86 0 0 0 1.11-.14 12.28 12.28 0 0 0 1.87-2.66.85.85 0 0 0-.26-1.15c-.37-.29-.63-.5-1-.77s-.65-.64-.47-1.12.59-1.84.77-2.44a1.06 1.06 0 0 1 1-.82c.49 0 .89-.06 1.38-.1a.87.87 0 0 0 .82-.77 12.2 12.2 0 0 0-.12-3.22zM47.22 37.61A10.63 10.63 0 1 1 57.87 27a10.64 10.64 0 0 1-10.65 10.61z"/><path class="cls-2" d="M39.39 24c.25.16.42 0 .52-.14a.35.35 0 0 0 0-.38c-.06-.13.12-.22.25-.26a5.67 5.67 0 0 0 .71-.42 2.41 2.41 0 0 1 1.42 0 .74.74 0 0 0 .93-.18 2.52 2.52 0 0 1 .69-.56c.13-.07-.34-.51-.72 0s-.59.52-.77.52-1.26-.28-1.4-.62.35-.59.74-.78a9.49 9.49 0 0 1 1.78-.25c.56-.12 1.29-.41 1.65-.16s-1.53.67-.9 1c.22.12 1.22-.57 1.56-.75.8-.41-.78-.55-.57-1.4s-1.85-.6-3-.52a9.34 9.34 0 0 0-1.45 1.12c.12 0 .27.08.29.17a1.31 1.31 0 0 1-.13.59 1.61 1.61 0 0 1-1 .45.44.44 0 0 1-.18-.09c-.16.22-.32.45-.47.68a1.35 1.35 0 0 1 .69-.23c.24 0 .55.08.59.23s-.59.44-.7.54c-.33.3-.83.9-1.13 1a.32.32 0 0 1-.22 0 6.56 6.56 0 0 0-.23.62 1.07 1.07 0 0 1 1.05-.18zM54.79 26.52a2.31 2.31 0 0 1-1 .39 1.26 1.26 0 0 0-.47 1.09c.06.35.92 1.33.28 1.29a3.7 3.7 0 0 1-1.45-1.27c-.19-.52-.4-1-.55-1.42a.56.56 0 0 0-.89-.26c-.33.23.1.46-.14.95s-.42.91-.77.51c-.91-1.05-2.24-.54-2.44-1.7-.11-.64-.65-.58-1.11-.93s-.71-.55-.79-.3 1.43 1.42 1.53 1.72c.16.46-.45.86-.89 1s-.64-.25-1.08-.71-.62-.78-.65-.42a2 2 0 0 0 .85 1.54c.38.24.8.35.68.74s0 .17-.43.59a1.16 1.16 0 0 0-.47 1.15c0 .59-.12.63-.21 1.11s-.3.06-.49.78a2.71 2.71 0 0 1-.58 1.2 2 2 0 0 1-1.28.48C42 34 42 32.88 42 32.3c0-.21-.29.39-.43-.83-.09-.78-.6.09-.63-.44s-.28-.41-.54-.74-.59 0-1 .2-.21.24-.73.08a9.34 9.34 0 0 0 6 5.35.37.37 0 0 1-.11-.45 2.09 2.09 0 0 1 1.84-1.11c1.52-.15 3.51 1 3.83.81s1-1 1.9-1a1.52 1.52 0 0 1 .85.21 8.9 8.9 0 0 0 .93-.8 1.43 1.43 0 0 1-.29-.1c-.51-.27-.45.15-.7 0s.29-.67-.47-.18-.55-.08-.87-.91a1.7 1.7 0 0 1 1-2 11.51 11.51 0 0 1 1.7-.44c1.13-.28 1.37-1 1.57-.54 0 .08.08.15.11.22a1.47 1.47 0 0 1 .14.56 9.27 9.27 0 0 0 .41-1.39c-.27-.1-1.27-1.53-.45-2.47.14-.15-.28-.62-.16-.63a.73.73 0 0 1 .78.57 11.25 11.25 0 0 0-.21-1.45v.32a.62.62 0 0 1-1.1.09c-.09-.14-.49-.52-.49.13s.5.78-.09 1.16zM46 30.2c-.13.2-.49 1.78-.72 1.6s.1-1.83.17-2c.36-.63 1.15-.6.55.4zm3.83-1.86a.83.83 0 0 1-.9-.08c-.23-.18.15-.49.29-.5.31-.02.78.42.6.58zm3.86-.34c-.08-.23.11-.36.3-.27a.93.93 0 0 1 .44.54c0 .15-.38.13-.48.09s-.19-.12-.26-.36zM55 29.24a.81.81 0 0 1-.89-.08c-.24-.19.15-.49.29-.5.26-.02.73.42.6.58zM39.05 25a8.32 8.32 0 0 1 1.53.39c.54.2 1.39.66 1.89.46s.65-.34.61-.64-.33-.47-.69-.22c-.14.1-.42-.56-.64-.53s.28.77.09.81-.56-.78-.63-.91-.35-.45-.62-.2c-.55.52-1.44.48-1.62.62a.81.81 0 0 1-.2.11c-.36.15-.48-.23-.48-.51A9.26 9.26 0 0 0 38 26v-.07c.3-.57.37-.64.46-.7s.36-.14.36-.14z"/><g><path class="cls-2" d="M45 81.34a5.83 5.83 0 0 1-1.54.68 15.7 15.7 0 0 1-4.81.6 18 18 0 0 1-2.38-.19c-.54-.07-.95-.16-1.45-.27-.25-.06-.49-.13-.71-.2a5.67 5.67 0 0 1-1.87-.9 2.13 2.13 0 0 1-.53-.55v1.56a1.4 1.4 0 0 0 .55 1 7.92 7.92 0 0 0 3.75 1.39 18 18 0 0 0 2.73.2 16.58 16.58 0 0 0 3.94-.44 7.57 7.57 0 0 0 2-.77c.65-.39 1-.86 1-1.36v-1.55a2.93 2.93 0 0 1-.68.8zM38.12 76.57c3.89 0 7-1.17 7-2.61 0 0 .08-1.34.05-1.63a1.52 1.52 0 0 0-.12-.55 1.6 1.6 0 0 0 .8-1.19s.06-1.49 0-1.79c-.19-1.75-3.73-2.7-7.07-2.7s-7.1 1-7.1 2.86c0 .09.07 1.63.07 1.63a1.09 1.09 0 0 0 .08.31 1.81 1.81 0 0 0-.83 1.43c0 .09.07 1.63.07 1.63a1.35 1.35 0 0 0 .55 1 7.72 7.72 0 0 0 3.74 1.39 16.85 16.85 0 0 0 2.76.22zm.73-9.74c3.75 0 6.36 1.13 6.36 2.13s-2.61 2.13-6.36 2.13S32.49 70 32.49 69s2.61-2.17 6.36-2.17zm-7.1 5.5a1.14 1.14 0 0 1 .56-.8 3.43 3.43 0 0 0 .71.52 12.89 12.89 0 0 0 5.83 1.15 15 15 0 0 0 5-.76c.22-.09.42-.18.61-.28a.59.59 0 0 1 0 .17c0 1-2.61 2.13-6.36 2.13s-6.35-1.12-6.35-2.13z"/><path class="cls-2" d="M36 82a18 18 0 0 0 2.73.2 16.58 16.58 0 0 0 3.94-.44 7.45 7.45 0 0 0 2-.77 2.88 2.88 0 0 0 .44-.31 1.73 1.73 0 0 0 .53-.68 1.16 1.16 0 0 0 .07-.37v-1.55c-.23.3-.83 1.22-3.61 1.79a21.3 21.3 0 0 1-3.59.31c-2.24 0-4.58-.45-5.62-1.11a4.2 4.2 0 0 1-.89-.6 3.6 3.6 0 0 1-.43-.53v1.7a1.4 1.4 0 0 0 .55 1A7.92 7.92 0 0 0 36 82z"/><path class="cls-2" d="M45.71 74.86a1 1 0 0 0-.18-.16 2.52 2.52 0 0 0-.29-.16 1.7 1.7 0 0 1-.32.42 1.63 1.63 0 0 1 .28.15.66.66 0 0 1 .33.54.62.62 0 0 1-.25.46l-.27.21-.41.22s-.43.2-.62.27l-.62.2-.84.2c-.06 0-.75.13-1.07.17l-1.11.11-1.62.07a14.46 14.46 0 0 1-2.24-.17 15.46 15.46 0 0 1-1.59-.29 10.35 10.35 0 0 1-1.69-.53 3.06 3.06 0 0 1-.87-.6 3.5 3.5 0 0 1-.55-.73v1.78a1.35 1.35 0 0 0 .55 1 7.72 7.72 0 0 0 3.74 1.39 18 18 0 0 0 2.74.21 16.55 16.55 0 0 0 3.94-.45 7.64 7.64 0 0 0 2-.78 4 4 0 0 0 .43-.31 1.73 1.73 0 0 0 .53-.69.92.92 0 0 0 .07-.36s.06-1.49.06-1.52a1 1 0 0 0 0-.36.76.76 0 0 0-.13-.29zM20.91 81.61c3.89 0 7-1.17 7-2.61 0 0 .08-1.34.05-1.63a1.52 1.52 0 0 0-.12-.55 1.6 1.6 0 0 0 .8-1.19s.06-1.49 0-1.78c-.19-1.76-3.73-2.71-7.07-2.71s-7.1 1-7.1 2.87c0 .09.07 1.62.07 1.62a1 1 0 0 0 .09.32 1.77 1.77 0 0 0-.89 1.42c0 .09.07 1.63.07 1.63a1.42 1.42 0 0 0 .55 1 7.92 7.92 0 0 0 3.74 1.39 18.19 18.19 0 0 0 2.81.22zm.73-9.73C25.39 71.88 28 73 28 74s-2.61 2.13-6.36 2.13S15.28 75 15.28 74s2.61-2.12 6.36-2.12zm-7.09 5.49a1.14 1.14 0 0 1 .55-.8 3.11 3.11 0 0 0 .71.52 12.92 12.92 0 0 0 5.83 1.15 14.9 14.9 0 0 0 5-.76 5.82 5.82 0 0 0 .61-.28.59.59 0 0 1 0 .17c0 1-2.61 2.13-6.36 2.13s-6.34-1.12-6.34-2.13z"/><path class="cls-2" d="M28.5 79.9c-.06-.07-.16-.14-.17-.16a2.1 2.1 0 0 0-.3-.15 1.57 1.57 0 0 1-.32.41 1.63 1.63 0 0 1 .28.15.66.66 0 0 1 .33.54.59.59 0 0 1-.25.46 3.17 3.17 0 0 1-.27.21 4.38 4.38 0 0 1-.41.22l-.61.27s-.44.15-.63.2l-.84.2s-.74.13-1.07.17l-1.11.11-1.62.07a15.69 15.69 0 0 1-2.24-.16c-.54-.08-1.09-.18-1.59-.3a10.66 10.66 0 0 1-1.68-.53 3 3 0 0 1-.86-.6 3.23 3.23 0 0 1-.56-.73v1.78a1.35 1.35 0 0 0 .55 1 7.72 7.72 0 0 0 3.74 1.39 18 18 0 0 0 2.74.21 16.55 16.55 0 0 0 3.94-.45 7.64 7.64 0 0 0 2-.78 3.8 3.8 0 0 0 .44-.31 1.94 1.94 0 0 0 .53-.69 1.1 1.1 0 0 0 .07-.36l.05-1.52a.81.81 0 0 0-.05-.36.73.73 0 0 0-.09-.29zM21.17 49.63l5.15 6.53a.36.36 0 0 1 .07.28c0 .14-.13.19-.32.19h-2.6v8.29a.25.25 0 0 1-.27.22h-4.46a.27.27 0 0 1-.28-.23v-8.27h-2.6c-.19 0-.28 0-.32-.2a.37.37 0 0 1 .07-.28l4.95-6.48a.36.36 0 0 1 .35-.2.38.38 0 0 1 .26.15zM38.51 49.59l5.14 6.53a.35.35 0 0 1 .07.27c0 .15-.13.2-.32.2h-2.6V60a.25.25 0 0 1-.27.23h-4.46a.25.25 0 0 1-.27-.23v-3.41h-2.61c-.19 0-.28-.05-.32-.2a.33.33 0 0 1 .08-.28l4.94-6.49a.38.38 0 0 1 .35-.19.34.34 0 0 1 .27.16z"/><g><path class="cls-2" d="M80.38 81.34a5.83 5.83 0 0 1-1.54.68 15.75 15.75 0 0 1-4.81.6 18 18 0 0 1-2.38-.19 12.566 12.566 0 0 1-2.16-.47 5.7 5.7 0 0 1-1.88-.9 2.27 2.27 0 0 1-.52-.55v1.56a1.37 1.37 0 0 0 .55 1 7.92 7.92 0 0 0 3.74 1.39 18.09 18.09 0 0 0 2.74.2 16.58 16.58 0 0 0 3.94-.44 7.65 7.65 0 0 0 2-.77c.66-.39 1-.86 1-1.36 0 0 .06-1.42 0-1.55a3.08 3.08 0 0 1-.68.8zM73.47 76.57c3.88 0 7-1.17 7-2.61 0 0 .08-1.34.06-1.63a1.52 1.52 0 0 0-.12-.55 1.59 1.59 0 0 0 .79-1.19s.07-1.49 0-1.79c-.19-1.75-3.74-2.7-7.08-2.7s-7.02 1-7.02 2.9c0 .09.07 1.63.07 1.63a1.09 1.09 0 0 0 .08.31 1.78 1.78 0 0 0-.88 1.43c0 .09.06 1.63.06 1.63a1.37 1.37 0 0 0 .57 1 7.72 7.72 0 0 0 3.74 1.39 16.85 16.85 0 0 0 2.73.18zm.72-9.74c3.75 0 6.37 1.13 6.37 2.13s-2.62 2.13-6.37 2.13S67.83 70 67.83 69s2.61-2.17 6.36-2.17zm-7.09 5.5a1.15 1.15 0 0 1 .55-.8 3.26 3.26 0 0 0 .72.52 12.86 12.86 0 0 0 5.83 1.15 14.88 14.88 0 0 0 5-.76c.23-.09.42-.18.62-.28a1.36 1.36 0 0 1 0 .17c0 1-2.62 2.13-6.37 2.13s-6.35-1.12-6.35-2.13z"/><path class="cls-2" d="M71.37 82a18.09 18.09 0 0 0 2.74.2 16.58 16.58 0 0 0 3.94-.44 7.31 7.31 0 0 0 2-.77 2.37 2.37 0 0 0 .43-.31 1.65 1.65 0 0 0 .53-.68.94.94 0 0 0 .07-.37v-1.55c-.24.3-.84 1.22-3.61 1.79a21.3 21.3 0 0 1-3.47.23 13.12 13.12 0 0 1-5.65-1.1 4.39 4.39 0 0 1-.88-.6 3.6 3.6 0 0 1-.43-.53v1.7a1.37 1.37 0 0 0 .55 1A7.92 7.92 0 0 0 71.37 82z"/><path class="cls-2" d="M81.06 74.86a1 1 0 0 0-.18-.16 2.52 2.52 0 0 0-.29-.16 1.7 1.7 0 0 1-.32.42 2.15 2.15 0 0 1 .28.15.68.68 0 0 1 .33.54.62.62 0 0 1-.25.46c-.09.07-.16.13-.28.21l-.4.22s-.43.2-.62.27l-.63.2-.84.2s-.74.13-1.07.17l-1.1.11-1.62.07a14.59 14.59 0 0 1-2.25-.17 15.26 15.26 0 0 1-1.58-.29 10.35 10.35 0 0 1-1.69-.53 3.06 3.06 0 0 1-.87-.6 2.92 2.92 0 0 1-.55-.73v1.78a1.39 1.39 0 0 0 .55 1 7.8 7.8 0 0 0 3.75 1.39 18 18 0 0 0 2.74.21 16.62 16.62 0 0 0 3.94-.45 7.79 7.79 0 0 0 2-.78 4.19 4.19 0 0 0 .44-.31 1.73 1.73 0 0 0 .53-.69.92.92 0 0 0 .07-.36s.06-1.49.06-1.52a.76.76 0 0 0-.06-.36.67.67 0 0 0-.09-.29z"/></g><g><path class="cls-2" d="M56.26 81.61c3.88 0 7-1.17 7-2.61 0 0 .08-1.34.06-1.63a1.52 1.52 0 0 0-.12-.55 1.6 1.6 0 0 0 .8-1.19s.06-1.49 0-1.78c-.19-1.76-3.74-2.71-7.07-2.71s-7.1 1-7.1 2.87c0 .09.07 1.62.07 1.62a1.25 1.25 0 0 0 .1.37 1.75 1.75 0 0 0-.88 1.42c0 .09.07 1.63.07 1.63a1.39 1.39 0 0 0 .55 1 7.92 7.92 0 0 0 3.74 1.39 18.09 18.09 0 0 0 2.78.17zm.74-9.73c3.75 0 6.36 1.12 6.36 2.13s-2.62 2.13-6.36 2.13S50.62 75 50.62 74s2.62-2.12 6.38-2.12zm-7.1 5.49a1.17 1.17 0 0 1 .55-.8 3.42 3.42 0 0 0 .72.52A12.86 12.86 0 0 0 57 78.24a15 15 0 0 0 5-.76c.22-.09.41-.18.61-.28a1.36 1.36 0 0 1 0 .17c0 1-2.62 2.13-6.37 2.13s-6.35-1.12-6.35-2.13z"/><path class="cls-2" d="M63.85 79.9a1.72 1.72 0 0 0-.18-.16 1.57 1.57 0 0 0-.29-.15 1.57 1.57 0 0 1-.32.41 1.63 1.63 0 0 1 .28.15.68.68 0 0 1 .33.54.62.62 0 0 1-.25.46 3.17 3.17 0 0 1-.27.21l-.41.22s-.43.2-.62.27c0 0-.43.15-.62.2l-.84.2c-.06 0-.75.13-1.08.17-.08 0-.8.09-1.1.11l-1.62.07a15.92 15.92 0 0 1-2.25-.16c-.54-.08-1.08-.18-1.58-.3a10.35 10.35 0 0 1-1.69-.53 3.06 3.06 0 0 1-.87-.6 3.18 3.18 0 0 1-.55-.73v1.78a1.37 1.37 0 0 0 .56 1 7.72 7.72 0 0 0 3.74 1.39 18 18 0 0 0 2.74.21 16.62 16.62 0 0 0 3.94-.45 7.64 7.64 0 0 0 2-.78 3.1 3.1 0 0 0 .44-.31 1.73 1.73 0 0 0 .53-.69.89.89 0 0 0 .07-.36s.06-1.49.06-1.52a1 1 0 0 0 0-.36.87.87 0 0 0-.15-.29z"/></g><path class="cls-2" d="M56.52 49.63l5.14 6.53a.33.33 0 0 1 .08.28c0 .14-.13.19-.32.19h-2.61v8.29c0 .12-.12.22-.27.22h-4.46a.26.26 0 0 1-.27-.23v-8.27h-2.6c-.2 0-.28 0-.32-.2a.37.37 0 0 1 .07-.28l4.94-6.48a.36.36 0 0 1 .62 0zM73.85 49.59L79 56.12a.35.35 0 0 1 .07.27c0 .15-.13.2-.32.2h-2.6V60a.25.25 0 0 1-.27.23h-4.46a.26.26 0 0 1-.28-.22v-3.42h-2.6c-.19 0-.28-.05-.32-.2a.36.36 0 0 1 .07-.28l4.95-6.49a.37.37 0 0 1 .34-.19.34.34 0 0 1 .27.16z"/></g></svg>