<svg id="TARGETS" xmlns="http://www.w3.org/2000/svg" viewBox="0 0 94.85 94.85" width="94.85" height="94.85"><defs><style>.cls-1{fill:#fcc30b}.cls-2{fill:#fff}.cls-3{fill:none}</style></defs><title>Goal_7_RGB_NG</title><path class="cls-1" d="M0 0h94.85v94.85H0z"/><path class="cls-2" d="M12.1 82.56H4v-2h8.1a2.39 2.39 0 0 0 1.74-.56 2.33 2.33 0 0 0 .57-1.48v-2.8h2v2.76a4 4 0 0 1-4.31 4.08z"/><path class="cls-3" d="M15.41 70.18a1.92 1.92 0 1 0 1.92 1.92 1.92 1.92 0 0 0-1.92-1.92zM31.69 14.91A1.92 1.92 0 1 0 29.78 13a1.92 1.92 0 0 0 1.91 1.91z"/><circle class="cls-3" cx="81.43" cy="23.28" r="1.92"/><path class="cls-3" d="M72 77.47a1.92 1.92 0 1 0 1.91-1.92A1.92 1.92 0 0 0 72 77.47zM47.46 44.43a.84.84 0 0 0 .83-.77v-3.85a.83.83 0 0 0-1.66 0v3.85a.84.84 0 0 0 .83.77z"/><path class="cls-3" d="M49.18 40.93v2.17a3.82 3.82 0 1 1-3.46 0v-2.16a5.82 5.82 0 1 0 3.46 0z"/><path class="cls-2" d="M47.46 35.38a11.21 11.21 0 1 0 11.2 11.21 11.21 11.21 0 0 0-11.2-11.21zm-.83 4.43a.83.83 0 0 1 1.66 0v3.85a.83.83 0 0 1-1.66 0zm.83 12.52a5.83 5.83 0 0 1-1.74-11.39v2.17a3.81 3.81 0 1 0 3.46 0v-2.18a5.83 5.83 0 0 1-1.72 11.4zM28 46.49a.94.94 0 0 0 .87.92h4.9a.92.92 0 0 0 0-1.84h-4.9a.94.94 0 0 0-.87.92zM67 46.49a.94.94 0 0 0-.86-.92h-4.95a.92.92 0 0 0 0 1.84h4.91a.94.94 0 0 0 .9-.92zM48.38 32.77v-4.91a.92.92 0 0 0-1.84 0v4.91a.92.92 0 0 0 1.84 0z"/><path class="cls-2" d="M46.54 60.22v4.91a.92.92 0 0 0 1.84 0v-4.91a.92.92 0 0 0-1.84 0zM35.09 40.47a.92.92 0 0 0 .91-1.6l-4.26-2.43a.94.94 0 0 0-1.21.36 1 1 0 0 0 .3 1.24zM58.92 54.11l4.26 2.44a.92.92 0 0 0 .91-1.6l-4.26-2.44a1 1 0 0 0-1.21.37.94.94 0 0 0 .3 1.23zM53.85 35.33a1 1 0 0 0 1.23-.33l2.43-4.26a.93.93 0 0 0-.36-1.21 1 1 0 0 0-1.24.29l-2.43 4.26a.94.94 0 0 0 .37 1.25zM39.84 58l-2.44 4.21a.92.92 0 0 0 1.6.92l2.44-4.26a.92.92 0 0 0-1.6-.92zM41.05 35.34a.93.93 0 0 0 .36-1.21L39 29.88a.93.93 0 0 0-1.23-.29 1 1 0 0 0-.37 1.21l2.45 4.25a.94.94 0 0 0 1.2.29zM53.87 57.64a1 1 0 0 0-.36 1.22L56 63.11a.92.92 0 0 0 1.6-.92l-2.5-4.25a.94.94 0 0 0-1.23-.3zM59.82 40.45L64.07 38a.93.93 0 0 0 .29-1.23 1 1 0 0 0-1.21-.37l-4.25 2.45a.92.92 0 0 0 .92 1.6zM31.76 56.58L36 54.14a.92.92 0 0 0-.92-1.6L30.84 55a.92.92 0 0 0 .92 1.6zM73.42 24.28h4.24a3.89 3.89 0 0 0 7.54 0h5.35v-2H85.2a3.92 3.92 0 0 0-2.77-2.77v-2c0-.92 0-2.63.86-3.5a2.63 2.63 0 0 1 2-.66h5.32v-2h-5.36a4.56 4.56 0 0 0-3.36 1.24c-1.46 1.46-1.46 3.71-1.45 4.92v2a3.92 3.92 0 0 0-2.77 2.77h-4.25A5.47 5.47 0 0 1 68 16.82V4h-2v12.82a7.47 7.47 0 0 0 7.42 7.46zm8-2.91a1.92 1.92 0 1 1-1.92 1.91 1.92 1.92 0 0 1 1.93-1.91zM4.05 13.58v.06l5.08 3.85a.26.26 0 0 0 .17.07.24.24 0 0 0 .23-.22v-3.15L28 14.12a3.92 3.92 0 0 0 2.78 2.66h.09v-.4h2v.29a3.88 3.88 0 0 0 2.61-2.66h7.63a4.06 4.06 0 0 1 2.49.99 3.38 3.38 0 0 1 .88 2.52v7.18h2v-7.18a5.31 5.31 0 0 0-1.49-4 6 6 0 0 0-4-1.51h-7.51a3.91 3.91 0 0 0-2.67-2.8V3.96h-2l-.05 5.2a3.91 3.91 0 0 0-2.92 2.93H9.57V9.32a.24.24 0 0 0-.38-.17h-.05l-5.1 4a.32.32 0 0 0-.07.2.29.29 0 0 0 0 .17zm27.64-2.5A1.92 1.92 0 1 1 29.78 13a1.92 1.92 0 0 1 1.91-1.92zM14.4 56.28h2v2h-2zM14.4 64.29h2v2h-2zM14.4 52.28h2v2h-2zM14.4 60.28h2v2h-2zM90.79 60.33h-.05l-5.08-3.86a.23.23 0 0 0-.39.15v3.22h-6.85A5.51 5.51 0 0 0 74.49 61a5.37 5.37 0 0 0-1.61 4.19v8.51a3.93 3.93 0 0 0-2.77 2.77H51.85a3.36 3.36 0 0 1-3.38-3.16v-5.22h-2v5.22a5.34 5.34 0 0 0 5.38 5.16h18.26a3.93 3.93 0 0 0 2.77 2.77v9.47h2v-9.47a3.92 3.92 0 0 0 2.77-2.77h12.92v-2H77.65a3.92 3.92 0 0 0-2.77-2.77v-8.49a3.52 3.52 0 0 1 .94-2.7 3.6 3.6 0 0 1 2.5-.76h6.88v2.81a.24.24 0 0 0 .23.22.25.25 0 0 0 .15 0l5.11-4a.32.32 0 0 0 .07-.2.24.24 0 0 0 .03-.25zm-15 17.14a1.92 1.92 0 1 1-1.92-1.92 1.92 1.92 0 0 1 1.93 1.92zM41.34 85h-2.91v-9.61a4.58 4.58 0 0 0-4.57-4.57H19.1a3.9 3.9 0 0 0-2.7-2.49 4.29 4.29 0 0 0-2 0 3.92 3.92 0 0 0-2.67 2.49H4v2h7.6a3.9 3.9 0 0 0 2.83 3 4.25 4.25 0 0 0 2 0 3.92 3.92 0 0 0 2.86-3.05h14.6a2.58 2.58 0 0 1 2.57 2.57V85h-3.18a.24.24 0 0 0-.22.23.25.25 0 0 0 0 .15l4 5.1a.29.29 0 0 0 .19.07.35.35 0 0 0 .18 0h.05l3.86-5.08a.22.22 0 0 0 .07-.17.23.23 0 0 0-.07-.3zM15.41 74a1.92 1.92 0 1 1 1.92-1.91A1.91 1.91 0 0 1 15.41 74z"/><path class="cls-2" transform="rotate(-89.72 81.385 37.118)" d="M80.44 36.12h1.88v2h-1.88z"/><path class="cls-2" transform="rotate(-89.72 81.4 33.363)" d="M80.46 32.36h1.88v2h-1.88z"/><path class="cls-2" transform="rotate(-89.72 81.417 29.61)" d="M80.48 28.61h1.88v2h-1.88z"/><path class="cls-2" d="M74.47 50.37v-2.78h3.79a4.1 4.1 0 0 0 4.09-4.08v-3.57h-2v3.56a2.1 2.1 0 0 1-2.09 2.09h-3.79v-3.14a.23.23 0 0 0-.23-.22.25.25 0 0 0-.15.05l-5.11 3.95v.06a.27.27 0 0 0-.07.19.24.24 0 0 0 .06.17v.05L74 50.62a.24.24 0 0 0 .16.07.23.23 0 0 0 .23-.21zM30.83 16.79v4.34a2.3 2.3 0 0 1-.58 1.48 2.36 2.36 0 0 1-1.73.58h-8.14a6.36 6.36 0 0 0-4.21 1.45 5.71 5.71 0 0 0-1.76 4.48v13.59a3.9 3.9 0 0 0-2.75 2.74H4v2h7.67a3.91 3.91 0 0 0 2.76 2.79 4.42 4.42 0 0 0 2 0 3.9 3.9 0 0 0 2.79-2.8h6.87v-2h-6.9a3.92 3.92 0 0 0-2.78-2.75V29.12a3.85 3.85 0 0 1 1.09-3 4.46 4.46 0 0 1 2.9-.94h8.12A4.22 4.22 0 0 0 31.7 24a4.28 4.28 0 0 0 1.13-2.88v-4.4h-.09a4.59 4.59 0 0 1-1.91.07zm-13.5 29.68a1.92 1.92 0 1 1-1.92-1.91 1.92 1.92 0 0 1 1.92 1.91z"/><path class="cls-2" d="M30.83 16.39v.4a4.59 4.59 0 0 0 1.91 0h.09v-.29z"/></svg>