<svg id="TARGETS" xmlns="http://www.w3.org/2000/svg" viewBox="0 0 94.85 94.85" width="94.85" height="94.85"><defs><style>.cls-1{fill:#26bde2}.cls-2{fill:#fff}</style></defs><title>Goal_6_RGB_NG</title><path class="cls-1" d="M0 0h94.85v94.85H0z"/><path class="cls-2" d="M16.67 35.35a1.73 1.73 0 0 1-1.27.45 1.7 1.7 0 0 1-1.26-.45 1.87 1.87 0 0 1-.24-2.28c.17-.32 1.39-2.15 1.5-2.31.1.16 1.32 2 1.49 2.31a1.86 1.86 0 0 1-.23 2.28M26.52 39.34a2 2 0 0 1-2.53 0 1.88 1.88 0 0 1-.23-2.29c.17-.32 1.39-2.15 1.5-2.31.11.16 1.33 2 1.5 2.31a1.88 1.88 0 0 1-.24 2.29M22.13 16.94a1.71 1.71 0 0 1-1.26.44 1.72 1.72 0 0 1-1.27-.44 1.88 1.88 0 0 1-.23-2.29c.17-.32 1.39-2.15 1.49-2.31.11.16 1.33 2 1.5 2.31a1.88 1.88 0 0 1-.24 2.29M39.68 37.88a2 2 0 0 1-2.53 0 1.88 1.88 0 0 1-.23-2.29c.17-.32 1.39-2.15 1.49-2.3.1.15 1.33 2 1.5 2.3a1.89 1.89 0 0 1-.24 2.29M15.76 24.53a1.71 1.71 0 0 1-1.26.47 1.72 1.72 0 0 1-1.27-.44 1.88 1.88 0 0 1-.23-2.32c.17-.32 1.39-2.15 1.49-2.31.1.16 1.32 2 1.49 2.31a1.88 1.88 0 0 1-.23 2.29M29.31 23a2 2 0 0 1-2.53 0 1.86 1.86 0 0 1-.23-2.28c.17-.32 1.39-2.15 1.49-2.31.1.16 1.33 2 1.5 2.31a1.88 1.88 0 0 1-.23 2.28M40.19 26.54a2 2 0 0 1-2.53 0 1.88 1.88 0 0 1-.23-2.29c.17-.32 1.39-2.15 1.49-2.3.1.15 1.33 2 1.5 2.3a1.88 1.88 0 0 1-.24 2.29M35.9 17.46a1.73 1.73 0 0 1-1.27.45 1.7 1.7 0 0 1-1.26-.45 1.87 1.87 0 0 1-.24-2.28c.17-.32 1.39-2.15 1.5-2.31.1.16 1.32 2 1.49 2.31a1.86 1.86 0 0 1-.23 2.28M23.73 29.58a1.67 1.67 0 0 1-1.26.44 1.7 1.7 0 0 1-1.27-.44 1.89 1.89 0 0 1-.2-2.29c.17-.32 1.39-2.15 1.5-2.3.11.15 1.33 2 1.5 2.3a1.87 1.87 0 0 1-.24 2.29M33.22 32.11a1.71 1.71 0 0 1-1.26.44 1.75 1.75 0 0 1-1.27-.44 1.88 1.88 0 0 1-.23-2.29c.17-.32 1.39-2.15 1.5-2.31.11.16 1.33 2 1.5 2.31a1.87 1.87 0 0 1-.24 2.29M44.11 43.07v25.95H10.15V43.07H8.89v27.21h36.47V43.07h-1.25z"/><path class="cls-2" d="M12.13 55.85c6.6 6.1 13.46 1 14.9-.15l.14-.14h.28l.14.14c1.42 1.18 8.18 6.16 14.72.31l.19-.18a.29.29 0 0 0 .09-.2v-3.22a.3.3 0 0 0-.31-.3.16.16 0 0 0-.1 0l-.13.09c-2 1.42-8.53 5.34-14.4-.13l-.08-.07a.34.34 0 0 0-.5 0l-.09.09c-5.78 5.39-12.22 1.67-14.31.2l-.16-.12a.3.3 0 0 0-.46.22v3.21a.37.37 0 0 0 .08.25z"/><path class="cls-2" d="M12.13 63.21c6.6 6.1 13.46 1.05 14.9-.15l.14-.13a.5.5 0 0 1 .28 0l.14.13c1.42 1.19 8.18 6.16 14.72.31l.19-.17a.33.33 0 0 0 .1-.2v-3.23a.31.31 0 0 0-.31-.31h-.1l-.13.1c-2 1.42-8.53 5.34-14.4-.14l-.09-.09a.36.36 0 0 0-.5 0l-.09.09c-5.78 5.39-12.22 1.68-14.31.2l-.16-.12a.42.42 0 0 0-.16 0 .3.3 0 0 0-.3.27V63a.37.37 0 0 0 .08.21zM12.61 49.28a.51.51 0 0 0 .51-.51.51.51 0 0 0-1 0 .51.51 0 0 0 .49.51z"/><circle class="cls-2" cx="14.89" cy="48.77" r=".51"/><circle class="cls-2" cx="17.17" cy="48.77" r=".51"/><path class="cls-2" d="M19.45 49.28a.51.51 0 0 0 .51-.51.51.51 0 1 0-1 0 .51.51 0 0 0 .49.51z"/><circle class="cls-2" cx="21.73" cy="48.77" r=".51"/><circle class="cls-2" cx="24" cy="48.77" r=".51"/><circle class="cls-2" cx="26.28" cy="48.77" r=".51"/><circle class="cls-2" cx="28.56" cy="48.77" r=".51"/><path class="cls-2" d="M30.84 49.28a.51.51 0 0 0 .51-.51.51.51 0 1 0-1 0 .51.51 0 0 0 .49.51z"/><circle class="cls-2" cx="33.12" cy="48.77" r=".51"/><circle class="cls-2" cx="35.39" cy="48.77" r=".51"/><circle class="cls-2" cx="37.67" cy="48.77" r=".51"/><path class="cls-2" d="M40 49.28a.51.51 0 0 0 .51-.51.51.51 0 0 0-1 0 .51.51 0 0 0 .49.51z"/><circle class="cls-2" cx="42.23" cy="48.77" r=".51"/><circle class="cls-2" cx="13.87" cy="47.01" r=".51"/><circle class="cls-2" cx="16.15" cy="47.01" r=".51"/><circle class="cls-2" cx="18.42" cy="47.01" r=".51"/><circle class="cls-2" cx="20.7" cy="47.01" r=".51"/><circle class="cls-2" cx="22.98" cy="47.01" r=".51"/><circle class="cls-2" cx="25.26" cy="47.01" r=".51"/><circle class="cls-2" cx="27.54" cy="47.01" r=".51"/><circle class="cls-2" cx="29.81" cy="47.01" r=".51"/><circle class="cls-2" cx="32.09" cy="47.01" r=".51"/><path class="cls-2" d="M34.37 47.52a.51.51 0 0 0 .51-.51.51.51 0 0 0-1 0 .51.51 0 0 0 .49.51z"/><circle class="cls-2" cx="36.65" cy="47.01" r=".51"/><circle class="cls-2" cx="38.93" cy="47.01" r=".51"/><circle class="cls-2" cx="41.21" cy="47.01" r=".51"/><circle class="cls-2" cx="12.73" cy="45.24" r=".51"/><path class="cls-2" d="M15 45.75a.51.51 0 0 0 0-1 .51.51 0 0 0 0 1zM17.28 45.75a.51.51 0 1 0-.51-.51.51.51 0 0 0 .51.51z"/><circle class="cls-2" cx="19.56" cy="45.24" r=".51"/><circle class="cls-2" cx="21.84" cy="45.24" r=".51"/><circle class="cls-2" cx="24.12" cy="45.24" r=".51"/><path class="cls-2" d="M26.4 45.75a.51.51 0 1 0-.51-.51.51.51 0 0 0 .51.51z"/><circle class="cls-2" cx="28.68" cy="45.24" r=".51"/><circle class="cls-2" cx="30.95" cy="45.24" r=".51"/><circle class="cls-2" cx="33.23" cy="45.24" r=".51"/><circle class="cls-2" cx="35.51" cy="45.24" r=".51"/><path class="cls-2" d="M37.79 45.75a.51.51 0 1 0-.51-.51.51.51 0 0 0 .51.51z"/><circle class="cls-2" cx="40.07" cy="45.24" r=".51"/><circle class="cls-2" cx="42.34" cy="45.24" r=".51"/><path class="cls-2" d="M85.87 37.65a.37.37 0 0 0-.29-.12H54a.36.36 0 0 0-.28.12.38.38 0 0 0-.08.3l5.31 32.12a.37.37 0 0 0 .36.31h6.49l.4 4.71h-1.61a.31.31 0 0 0-.29.3.34.34 0 0 0 .06.2v.05l5.2 6.71.07.06a.36.36 0 0 0 .26.1.35.35 0 0 0 .22-.08l.06-.06 5.06-6.69a.31.31 0 0 0 .09-.21.32.32 0 0 0-.28-.31h-1.45l.4-4.71h6.63a.36.36 0 0 0 .36-.31L86 38a.36.36 0 0 0-.13-.35zM73.65 63.37a5.06 5.06 0 0 1-3.77 1.31 5.1 5.1 0 0 1-3.78-1.31 5.6 5.6 0 0 1-.7-6.83c.51-1 4.15-6.42 4.46-6.89.31.47 4 5.93 4.46 6.89a5.59 5.59 0 0 1-.67 6.83zm10-19a3.93 3.93 0 0 0-3 .18c-3.92 1.59-6.59 2.16-10.71.87-2.6-.81-5-2.52-7.91-1.48a16.07 16.07 0 0 1-5.84 1.32L55 38.92h29.57z"/></svg>