<svg id="TARGETS" xmlns="http://www.w3.org/2000/svg" viewBox="0 0 94.85 94.85" width="94.85" height="94.85"><defs><style>.cls-1{fill:#e5243b}.cls-2{fill:#fff}</style></defs><title>Goal_1_RGB_NG</title><path class="cls-1" d="M0 0h94.85v94.85H0z"/><path class="cls-2" d="M74 42.37a3.2 3.2 0 1 0-3.19-3.19A3.19 3.19 0 0 0 74 42.37zM83.05 55l-2.65-8.6s-1-2.49-3.05-2.49h-6.76c-2.1 0-3 2.49-3 2.49l-2.7 8.6s-.47 1.59.87 2 1.74-1.15 1.74-1.15l2.14-7.2s.12-.56.54-.44.26.72.26.72l-3.73 13.5h3.47v9.67a1.66 1.66 0 0 0 3.32 0v-9.66h.94v9.67a1.67 1.67 0 0 0 3.33 0v-9.67h3.46l-3.72-13.5s-.16-.6.26-.72.53.44.53.44l2.14 7.2s.41 1.55 1.74 1.15.87-2.01.87-2.01zm-4.85 1.29a4.21 4.21 0 1 1-4.2-4.21 4.21 4.21 0 0 1 4.2 4.21z"/><path class="cls-2" d="M75.12 54.32A2.07 2.07 0 0 0 74 55c-.25-.26-.7-.69-1.09-.69a1.37 1.37 0 0 0-1.34 1.47 1.46 1.46 0 0 0 .42 1l2 2 2-2a1.46 1.46 0 0 0 .42-1 1.36 1.36 0 0 0-1.29-1.46z"/><g><path class="cls-2" d="M48.11 47.46a3.4 3.4 0 1 0-3.4-3.41 3.4 3.4 0 0 0 3.4 3.41zM62.3 68.37l-1.45-2.78v-.06l-3.41-6.73a1.63 1.63 0 0 0-1.62-.9H51l-.09-6.07c0-1.83-.48-2.9-1.9-3.28a7.11 7.11 0 0 0-2.09 0h-.18L41 50.4h-.1l-.14.07h-.07a1.36 1.36 0 0 0-.62.75l-1.64 4.58a1.44 1.44 0 0 0 2.72 1l1.39-3.92 2.14-.69h.09v6.39c0 1.46.48 2.91 1.9 3.29l.46.12a3.25 3.25 0 0 0 .75.06H55l1.89 3.68v.12l.69 1.31.64 1.29.07.1.83 1.45a1.79 1.79 0 0 0 3.18-1.66z"/><path class="cls-2" d="M51.88 64.33v.35a6.89 6.89 0 1 1-12.3-4.24l-1.73-1.36a9.08 9.08 0 1 0 16.23 5.6v-.35z"/></g><g><path class="cls-2" d="M22.93 44.3a3.08 3.08 0 0 0 1.49-5.77 1 1 0 0 0 .16-.54A1.42 1.42 0 0 0 23 36.76 1.42 1.42 0 0 0 21.48 38a1 1 0 0 0 .11.46 3.08 3.08 0 0 0 1.34 5.85zM31.7 55.57l-2.56-8.34s-.92-2.42-2.94-2.42h-6.54c-2 0-2.95 2.42-2.95 2.42l-2.56 8.34s-.36 1.26.55 1.78a.5.5 0 0 0 0 .13l-3 15.72a.48.48 0 0 0 .38.56h.09a.47.47 0 0 0 .47-.39l3-15.72a.65.65 0 0 0 0-.14c.81-.15 1.08-1.15 1.08-1.15l2.07-7s.11-.54.52-.42.25.69.25.69l-3.6 13h3.35v9.35a1.61 1.61 0 0 0 3.21 0v-9.25h.91v9.35a1.61 1.61 0 0 0 3.22 0v-9.35h3.34l-3.59-13s-.15-.58.25-.69.51.42.51.42l2.07 7s.39 1.5 1.68 1.11.79-2 .79-2z"/></g><path class="cls-2" d="M87.11 25.52L47.89 8.58a.77.77 0 0 0-.42-.1 1 1 0 0 0-.33.1L8 25.47a.4.4 0 0 0-.25.39v3.95c0 .31 0 .65.48.49l39.06-16.14a.52.52 0 0 1 .18 0 .54.54 0 0 1 .19 0L86.77 30.3c.47.16.48-.07.48-.49v-3.95a.36.36 0 0 0-.14-.34z"/><rect class="cls-2" x="7.6" y="82.6" width="79.56" height="4.74" rx=".57" ry=".57"/></svg>