<svg id="TARGETS" xmlns="http://www.w3.org/2000/svg" viewBox="0 0 94.85 94.85" width="94.85" height="94.85"><defs><style>.cls-1{fill:#00689d}.cls-2{fill:#fff}</style></defs><title>Goal_16_RGB_NG</title><path class="cls-1" d="M0 0h94.85v94.85H0z"/><path class="cls-2" d="M68.32 67.68v-.12a1.45 1.45 0 0 0-.1-.25c0-.06-.06-.13-.1-.2A1.25 1.25 0 0 0 68 67a1.47 1.47 0 0 0-.1-.13 1.85 1.85 0 0 1-.18-.19c-.73-.78-3.42-3.63-3.71-4-.48-.52-.14-.78-.14-.78l3.21-3.28-5-5.14s-3.25 3.3-4.59 4.64a3.07 3.07 0 0 0 0 4.34l7.24 7.24a2.07 2.07 0 0 0 1.5.62h.33l.31-.08a2.13 2.13 0 0 0 1.47-2v-.06a1.54 1.54 0 0 0-.02-.5zM76 53.52l-5 5.14 3.21 3.28s.34.26-.14.78c-.29.32-3 3.17-3.71 4l-.18.19-.11.13-.08.12c0 .07-.07.14-.11.2s-.06.16-.09.25a.34.34 0 0 0 0 .12 1.88 1.88 0 0 0-.05.5v.06a2.14 2.14 0 0 0 1.48 2l.31.08h.33a2.09 2.09 0 0 0 1.5-.62l7.24-7.24a3.07 3.07 0 0 0 0-4.34c-1.36-1.35-4.6-4.65-4.6-4.65zM85 49.39a1.19 1.19 0 0 0-.08-.2 2.8 2.8 0 0 0-.4-.61L74.91 39a2 2 0 0 0-1.49-.66h-8.76a2 2 0 0 0-1.49.66l-9.58 9.58a3.05 3.05 0 0 0-.41.61l-.08.2a2.1 2.1 0 0 0-.13.67 2 2 0 0 0 2 2 1.92 1.92 0 0 0 1.03-.37 1.22 1.22 0 0 0 .18-.16l.32-.33 4.83-5s.74-.75.91.08v4.48h13.58V46.3c.17-.83.91-.08.91-.08l4.83 5 .31.33a1.94 1.94 0 0 0 .19.16 1.91 1.91 0 0 0 1.08.33 2 2 0 0 0 2-2 1.86 1.86 0 0 0-.14-.65zM69 36.86a6.19 6.19 0 1 0-6.19-6.19A6.19 6.19 0 0 0 69 36.86z"/><g><path class="cls-2" d="M13.5 32.79h-1.75v33.67h24.12v-2.03H13.5V32.79z"/><path class="cls-2" d="M39.48 28.7H15.36v33.67h24.12zm-2.93 28.2c0 .06-.09.11-.2.11H18.53c-.11 0-.2 0-.2-.11v-2.85c0-.06.09-.11.2-.11h17.82c.11 0 .2.05.2.11zm0-5.34c0 .06-.09.11-.2.11H18.53c-.11 0-.2-.05-.2-.11v-2.85c0-.06.09-.12.2-.12h17.82c.11 0 .2.06.2.12zm0-5.09c0 .07-.09.12-.2.12H18.53c-.11 0-.2-.05-.2-.12v-2.85c0-.06.09-.11.2-.11h17.82c.11 0 .2.05.2.11z"/><g><path class="cls-2" d="M47.3 30.07a1.74 1.74 0 0 0-3.48 0v1.8h3.48zM44.09 56.65h-.43l1.7 5.85 1.78-5.83-.43-.01.43.01.14-23.49h-1.32l-.87-.01h-.86l-.43-.01-.14 23.49h.43z"/></g></g></svg>