<svg id="TARGETS" xmlns="http://www.w3.org/2000/svg" viewBox="0 0 94.85 94.85" width="94.85" height="94.85"><defs><style>.cls-1{fill:#e5243b}.cls-2{fill:#fff}</style></defs><title>Goal_1_RGB_NG</title><path class="cls-1" d="M0 0h94.85v94.85H0z"/><path class="cls-2" d="M60 61.56a2.47 2.47 0 1 0-2.46-2.46A2.47 2.47 0 0 0 60 61.56zM67 71.33l-2-6.66s-.73-1.92-2.35-1.92h-5.24c-1.62 0-2.35 1.92-2.35 1.92L53 71.33s-.37 1.22.67 1.53S55 72 55 72l1.65-5.56s.09-.43.41-.33.21.55.21.55L54.41 77h2.67v7.5a1.29 1.29 0 0 0 2.57 0V77h.73v7.5a1.28 1.28 0 0 0 2.56 0V77h2.67l-2.87-10.37s-.12-.46.2-.55.41.33.41.33L65 72s.32 1.19 1.35.89.65-1.56.65-1.56zM35.8 60.63a2.58 2.58 0 1 0-2.58-2.58 2.58 2.58 0 0 0 2.58 2.58zM38.81 61.62H32.81A3.44 3.44 0 0 0 29.67 65v7.14a1 1 0 0 0 .39.78L27.77 85a.4.4 0 0 0 .31.46h.07a.4.4 0 0 0 .39-.33l2.27-12a1 1 0 0 0 .86-1v-6.08c0-.23.06-.54.48-.54s.35.31.36.5V84.4a1.44 1.44 0 0 0 2.87 0V73.8a.4.4 0 0 1 .42-.42.4.4 0 0 1 .41.42v10.6a1.44 1.44 0 0 0 2.87 0V66c0-.19.07-.5.36-.5s.49.31.49.54v6.13a1 1 0 1 0 2 0V65a3.43 3.43 0 0 0-3.12-3.38zM51.88 71.47a.78.78 0 0 0-1 .34 22.17 22.17 0 0 1-1.31 2 .88.88 0 0 1-.64.3h-2.5a.85.85 0 0 1-.63-.3c-.33-.32-1.28-2-1.35-2.09a.72.72 0 0 0-.64-.35.76.76 0 0 0-.75.75 1.42 1.42 0 0 0 .07.33l2.08 3.76a1.32 1.32 0 0 1 .13.5v.56a2.34 2.34 0 0 1-.1.63l-1 4h1.1v2.9a1 1 0 0 0 2 0v-2.94H48v2.94a1 1 0 0 0 2 0v-2.94h1.1l-1-3.94a2.24 2.24 0 0 1-.1-.52v-.68a1.32 1.32 0 0 1 .13-.5L52 72.75s.12-.25.18-.36a.68.68 0 0 0-.3-.92z"/><path class="cls-2" d="M47.64 72.82a2.07 2.07 0 1 0-2.06-2.07 2.07 2.07 0 0 0 2.06 2.07z"/><g><path class="cls-2" d="M16.85 57.39s-1.6 1.72-1.59 3c0 1.06 1.26 1.7 1.61 1.93 0 0 1.63-.87 1.62-2-.01-1.32-1.64-2.93-1.64-2.93zM13.28 60.52s-.25 2.85 1 3.69c0 0 .41.52 2.32.81 0 0 .19-1.84-.52-2.59-.01 0-.37-.55-2.8-1.91zM13.06 64s-.27 3.1 1.07 4c0 0 .44.57 2.5.88 0 0 .2-2-.57-2.82 0 .04-.38-.56-3-2.06zM13.15 68.05s-.42 3.35.92 4.27c0 0 .54.63 2.6.94 0 0 .29-2.06-.48-2.87 0 0-.43-.86-3.04-2.34zM12.76 72.11s-.19 3.47 1.15 4.4a5.49 5.49 0 0 0 2.75.95s.23-2.25-.53-3.07a10.83 10.83 0 0 0-3.37-2.28zM20.45 60.45s.3 2.84-.92 3.71c0 0-.4.53-2.31.85 0 0-.22-1.83.48-2.59 0 0 .35-.56 2.75-1.97zM20.73 64s.33 3.09-1 4c0 0-.43.58-2.48.93 0 0-.24-2 .51-2.83.01-.01.39-.62 2.97-2.1zM20.72 68s.48 3.34-.84 4.29c0 0-.53.63-2.58 1 0 0-.33-2 .42-2.88 0-.04.42-.9 3-2.41zM21.19 72s.25 3.47-1.07 4.42a5.4 5.4 0 0 1-2.73 1s-.28-2.24.47-3.07A10.67 10.67 0 0 1 21.19 72zM13.89 54.34a.29.29 0 0 0-.3-.3.29.29 0 0 0-.3.3l.05 5.66.61.34zM15.12 53.35a.29.29 0 0 0-.3-.3.3.3 0 0 0-.3.31l.06 6.71a8.27 8.27 0 0 1 .59-1.5zM16.39 51.79a.32.32 0 0 0-.31-.3.3.3 0 0 0-.3.31l.06 5.81c.21-.31.43-.61.59-.83zM19.73 54.28A.3.3 0 0 1 20 54a.3.3 0 0 1 .31.3l.05 5.61-.6.36zM18.48 53.32a.3.3 0 0 1 .3-.31.32.32 0 0 1 .31.3l.06 6.69a8.17 8.17 0 0 0-.62-1.49zM17.19 51.78a.3.3 0 0 1 .3-.3.31.31 0 0 1 .31.3l.05 5.81-.61-.82zM16.61 77.98h.89v7.87h-.89z"/></g><g><path class="cls-2" d="M77.74 56.77s-1.59 1.73-1.58 3c0 1.06 1.25 1.7 1.6 1.92 0 0 1.63-.87 1.62-2-.01-1.27-1.64-2.92-1.64-2.92zM74.17 59.9s-.25 2.85 1 3.7c0 0 .41.52 2.33.81 0 0 .18-1.84-.53-2.59.03 0-.37-.55-2.8-1.92zM74 63.41s-.27 3.1 1.07 4c0 0 .44.57 2.5.88 0 0 .2-2-.57-2.82 0 .02-.43-.58-3-2.06zM74 67.44s-.42 3.35.92 4.27c0 0 .54.62 2.6.93 0 0 .29-2-.48-2.87.04 0-.39-.85-3.04-2.33zM73.65 71.49s-.19 3.48 1.15 4.4a5.41 5.41 0 0 0 2.75 1s.24-2.25-.53-3.07a10.92 10.92 0 0 0-3.37-2.33zM81.34 59.84s.31 2.84-.92 3.71c0 0-.4.53-2.31.85 0 0-.22-1.84.48-2.6 0 0 .35-.56 2.75-1.96zM81.63 63.33s.32 3.1-1 4c0 0-.42.58-2.48.92 0 0-.24-2 .52-2.83 0 .05.33-.55 2.96-2.09zM81.62 67.36s.47 3.35-.85 4.29c0 0-.52.64-2.58 1 0 0-.33-2 .43-2.88 0-.01.38-.87 3-2.41zM82.08 71.42s.25 3.47-1.07 4.41a5.39 5.39 0 0 1-2.73 1s-.28-2.25.47-3.08a11 11 0 0 1 3.33-2.33zM74.78 53.72a.29.29 0 0 0-.3-.3.3.3 0 0 0-.3.31v5.61l.61.35zM76 52.74a.31.31 0 0 0-.31-.3.29.29 0 0 0-.3.3l.06 6.72a7 7 0 0 1 .59-1.5zM77.28 51.18a.3.3 0 0 0-.31-.3.31.31 0 0 0-.3.3l.06 5.82.6-.83zM80.63 53.67a.3.3 0 0 1 .3-.31.3.3 0 0 1 .3.3v5.62l-.6.35zM79.38 52.7a.29.29 0 0 1 .29-.3.3.3 0 0 1 .31.3l.02 6.71a7.28 7.28 0 0 0-.62-1.49zM78.08 51.17a.3.3 0 0 1 .3-.3.3.3 0 0 1 .31.3v5.81l-.61-.82zM77.5 77.36h.89v7.87h-.89z"/></g><g><path class="cls-2" d="M40.75 24.5H13.81a.18.18 0 0 0-.19.19v17.7a.18.18 0 0 0 .18.18h15.49V30.19h6.4v12.38h5.06a.18.18 0 0 0 .19-.18v-17.7a.18.18 0 0 0-.19-.19zM24.59 36.17h-6v-6h6zM27.27 9.16a.59.59 0 0 0-.4-.16.54.54 0 0 0-.42.19l-.1.1-14.47 13.59a.14.14 0 0 0 .1.25h30.61a.14.14 0 0 0 .1-.25L27.39 9.29z"/></g><g><path class="cls-2" d="M67.56 14a13.55 13.55 0 1 0 13.55 13.58A13.57 13.57 0 0 0 67.56 14zm12.16 11.44a.59.59 0 0 1-.47.68h-.11a.59.59 0 0 1-.33-.11.58.58 0 0 1-.24-.38.56.56 0 0 1 .1-.43.54.54 0 0 1 .33-.2.58.58 0 0 1 .72.44zm-.56-2.08a.58.58 0 0 1-.35.75.65.65 0 0 1-.2 0 .53.53 0 0 1-.24-.06.57.57 0 0 1-.3-.33.55.55 0 0 1 0-.45.58.58 0 0 1 1.07.05zm-2-1.81a.61.61 0 0 1 .28-.35.58.58 0 0 1 .58 1 .6.6 0 0 1-.29.08h-.15a.59.59 0 0 1-.36-.28.56.56 0 0 1-.04-.45zm-4.24-4.44a.58.58 0 1 1 1 .58.61.61 0 0 1-.36.27.39.39 0 0 1-.15 0 .6.6 0 0 1-.29-.08.59.59 0 0 1-.27-.35.56.56 0 0 1 .09-.42zm-1.2 8.94a.2.2 0 0 1-.2-.2v-.8h2.07v.8a.2.2 0 0 1-.2.2v5h-1.61v-5zm-4.1-1.56h-6.49V24h13v.45zm-.84 1.56a.2.2 0 0 1-.2-.2v-.8h2.08v.8a.2.2 0 0 1-.2.2v5h-1.61v-5zm-4.93 0a.2.2 0 0 1-.2-.2v-.8h2.07v.8a.2.2 0 0 1-.2.2v5h-1.61v-5zm5.77-2.49h-7l-.28-.28a.2.2 0 0 1 0-.32l7.19-2.7 7.3 2.74a.2.2 0 0 1 0 .32l-.28.28zM71 16.33a.58.58 0 0 1 1.07 0 .55.55 0 0 1 0 .45.57.57 0 0 1-.3.33.53.53 0 0 1-.24.06.78.78 0 0 1-.21 0 .56.56 0 0 1-.32-.3.54.54 0 0 1 0-.54zm-1.77-.81a.57.57 0 0 1 .44-.09.58.58 0 0 1 .23 1.05.56.56 0 0 1-.33.1h-.07a.56.56 0 0 1-.37-.23.58.58 0 0 1-.1-.44.6.6 0 0 1 .24-.39zm-1.71-.28a.59.59 0 0 1 .59.58.6.6 0 0 1-.59.59.59.59 0 0 1-.58-.59.58.58 0 0 1 .62-.58zm-2.52.43a.59.59 0 0 1 .81-.15.56.56 0 0 1 .24.38.58.58 0 0 1-.09.44.64.64 0 0 1-.38.24h-.1a.59.59 0 0 1-.34-.1.61.61 0 0 1-.24-.38.59.59 0 0 1 .1-.43zm-2 .61a.58.58 0 0 1 .33-.3.61.61 0 0 1 .44 0 .62.62 0 0 1 .31.33.63.63 0 0 1 0 .45.6.6 0 0 1-.33.3.71.71 0 0 1-.2 0 .54.54 0 0 1-.25-.06.57.57 0 0 1-.3-.33.59.59 0 0 1 0-.39zm-1.62.61a.56.56 0 0 1 .44-.06.59.59 0 0 1 .36.28.58.58 0 0 1-.22.79.51.51 0 0 1-.29.08.58.58 0 0 1-.29-1.09zm-1.77 1.24a.62.62 0 0 1 .43-.14.61.61 0 0 1 .4.21.59.59 0 0 1-.07.82.62.62 0 0 1-.38.14.58.58 0 0 1-.45-.21.59.59 0 0 1 .08-.82zm-2.75 3.28a.58.58 0 0 1 1 .59.6.6 0 0 1-.51.29.6.6 0 0 1-.29-.08.59.59 0 0 1-.19-.8zM56 23.36a.57.57 0 0 1 .3-.33.63.63 0 0 1 .45 0 .62.62 0 0 1 .33.31.61.61 0 0 1 0 .44.59.59 0 0 1-.55.39.65.65 0 0 1-.2 0 .59.59 0 0 1-.33-.81zm.08 1.64a.56.56 0 0 1 .38.24.6.6 0 0 1 .09.43.54.54 0 0 1-.24.38.57.57 0 0 1-.33.11h-.1a.6.6 0 0 1-.48-.68.59.59 0 0 1 .68-.48zm-.87 2.61a.59.59 0 0 1 .18-.41.57.57 0 0 1 .41-.2.57.57 0 0 1 .41.17.59.59 0 0 1-.41 1 .59.59 0 0 1-.59-.59zm.19 2.15a.6.6 0 0 1 .48-.68.58.58 0 0 1 .67.48.57.57 0 0 1-.47.67H56a.59.59 0 0 1-.6-.5zm1.11 2.46a.59.59 0 0 1-.55-.38.59.59 0 1 1 .75.35.69.69 0 0 1-.2 0zm1.43 1.43a.59.59 0 0 1-.27.35.6.6 0 0 1-.29.08.57.57 0 0 1-.51-.29.58.58 0 1 1 1-.58.56.56 0 0 1 .07.41zm.16-14a.58.58 0 0 1 .83-.07.59.59 0 0 1 .07.82.58.58 0 0 1-.45.21.57.57 0 0 1-.37-.14.59.59 0 0 1-.08-.82zm.83 15.94a.62.62 0 0 1-.38.14.58.58 0 0 1-.37-1 .6.6 0 0 1 .42-.14.61.61 0 0 1 .4.21.58.58 0 0 1-.07.79zM60.45 37a.58.58 0 0 1-.45.21.6.6 0 0 1-.58-.53.6.6 0 0 1 .13-.43A.61.61 0 0 1 60 36a.62.62 0 0 1 .43.14.59.59 0 0 1 .07.82zm.19-4.55h.49v-.78a.09.09 0 0 1 .09-.09h12.84a.09.09 0 0 1 .09.09v.78h.49v.82h-14zm1.55 5.64a.6.6 0 0 1-.51.3.6.6 0 0 1-.29-.08.58.58 0 0 1-.27-.36.61.61 0 0 1 .05-.44.58.58 0 0 1 .36-.27.56.56 0 0 1 .44.06.58.58 0 0 1 .22.76zm1.9.78a.59.59 0 0 1-.55.38.64.64 0 0 1-.2 0 .59.59 0 1 1 .75-.35zm1.43.91h-.1a.59.59 0 0 1-.48-.67.59.59 0 1 1 .58.68zm2 .18a.58.58 0 0 1-.58-.58.59.59 0 0 1 .58-.59.6.6 0 0 1 .59.59.59.59 0 0 1-.55.55zm2.52-.43a.54.54 0 0 1-.37.24h-.07a.58.58 0 0 1-.1-1.16.62.62 0 0 1 .44.1.58.58 0 0 1 .24.38.55.55 0 0 1-.1.41zm2-.61a.58.58 0 0 1-.33.3.64.64 0 0 1-.2 0 .69.69 0 0 1-.24 0 .6.6 0 0 1-.3-.33.54.54 0 0 1 0-.45.56.56 0 0 1 .32-.3.59.59 0 0 1 .75.35.55.55 0 0 1 .07.4zm1.62-.61a.6.6 0 0 1-.29.08h-.15a.55.55 0 0 1-.35-.28.57.57 0 0 1 .21-.79.57.57 0 0 1 .44-.06.58.58 0 0 1 .36.27.59.59 0 0 1-.15.75zM75.5 37a.62.62 0 0 1-.38.14.58.58 0 0 1-.58-.64.56.56 0 0 1 .21-.39.6.6 0 0 1 .42-.14.61.61 0 0 1 .4.21.58.58 0 0 1-.07.82zm.07-18a.61.61 0 0 1-.4.21.55.55 0 0 1-.37-.14.57.57 0 0 1-.21-.4.55.55 0 0 1 .14-.42.57.57 0 0 1 .82-.07.59.59 0 0 1 .07.82zM77 35.52a.61.61 0 0 1-.4.21h-.05a.55.55 0 0 1-.37-.14.57.57 0 0 1-.07-.82.57.57 0 0 1 .89-.07.56.56 0 0 1 .2.4.54.54 0 0 1-.2.42zm0-15.05a.59.59 0 0 1-.38.14A.6.6 0 0 1 76 20a.56.56 0 0 1 .21-.39.58.58 0 0 1 .82.07.54.54 0 0 1 .13.42.56.56 0 0 1-.16.37zm1.3 13.29a.56.56 0 0 1-.5.29.51.51 0 0 1-.29-.08.57.57 0 0 1-.28-.35.59.59 0 0 1 .06-.45.61.61 0 0 1 .36-.27.57.57 0 0 1 .35.1.58.58 0 0 1 .25.76zm.91-1.95a.58.58 0 0 1-.55.38h-.2a.59.59 0 0 1-.32-.3.55.55 0 0 1 0-.45.57.57 0 0 1 .3-.33.56.56 0 0 1 .44 0 .58.58 0 0 1 .28.7zm.32-1.7a.56.56 0 0 1-.33.1H79a.59.59 0 0 1-.47-.67.6.6 0 0 1 .68-.48.59.59 0 0 1 .47.68.6.6 0 0 1-.2.37zm-.16-1.94a.59.59 0 1 1 .59-.59.58.58 0 0 1-.64.59z"/><path class="cls-2" d="M67.56 12.13A15.46 15.46 0 1 0 83 27.58a15.45 15.45 0 0 0-15.44-15.45zm0 29.72a14.27 14.27 0 1 1 14.27-14.27 14.28 14.28 0 0 1-14.27 14.27z"/></g></svg>