<svg id="TARGETS" xmlns="http://www.w3.org/2000/svg" viewBox="0 0 94.8 94.88" width="94.8" height="94.8"><style>.st0{fill:#0a97d9}.st1{fill:#fff}</style><title>Goal_14_RGB_NG</title><path class="st0" d="M0 0h94.8v94.8H0z"/><path class="st1" d="M47 18.5c.3.4 2.2 2.8 4.8 2.8 2.3 0 4.7-2.1 4.7-2.1.6 1.1 1.6 1.8 2.8 2 0 0 .1 0 .1-.1-.5-.8-.8-1.7-.9-2.7.1-.9.4-1.9.9-2.7v-.1s0-.1-.1-.1c-1.2.2-2.2.9-2.8 2 0 0-2.4-2.1-4.7-2.1-2.6.3-4.5 2.7-4.8 3.1zm3.3-1.2c.4 0 .8.3.8.8s-.3.8-.8.8c-.4 0-.8-.3-.8-.8s.4-.8.8-.8zM29.9 56.9c-.4-.6-3.2-4.1-7-4.1-3.4 0-6.9 3-6.9 3s-1.4-2.8-4.1-3h-.1c-.1 0-.1.1-.1.1v.1c.7 1.2 1.2 2.6 1.3 4-.1 1.4-.5 2.8-1.3 4v.1c0 .1 0 .1.1.1h.1c2.8-.2 4.1-3 4.1-3s3.6 3 6.9 3c3.8-.2 6.6-3.7 7-4.3zM25 55c.6 0 1.1.5 1.1 1.1 0 .6-.5 1.1-1.1 1.1-.6 0-1.1-.5-1.1-1.1 0-.6.5-1.1 1.1-1.1zM65.1 78.4C64 76.9 57 68 47.2 68c-8.5 0-17.6 7.7-17.6 7.7s-3.4-7-10.4-7.7H19c-.1 0-.3.1-.3.3 0 .1.1.2.1.3.9 1.5 3.2 5.8 3.2 10 0 4.3-2.3 8.5-3.2 10l-.1.1v.1c0 .1.1.3.3.3 7-.6 10.5-7.7 10.5-7.7s9.1 7.7 17.6 7.7c9.8 0 16.8-8.9 17.9-10.4l.1-.1v-.1-.1zm-12.5 1.3c-1.6 0-2.9-1.3-2.9-2.9 0-1.6 1.3-2.9 2.9-2.9 1.6 0 2.9 1.3 2.9 2.9 0 1.7-1.3 2.9-2.9 2.9zM85.7 64.5c-.9-.6-1.5-1.6-1.6-2.7 0-1.4 1.1-2.4 1.7-3.1.2-.2.3-.2.2-.4s-.4-.1-.4-.1c-1.9.4-3.8 1-5.6 1.8-4.6-2-9.6-2.8-14.5-2.5-7.6.5-11 3.7-11.6 4.4v.1c0 .1 0 .1.1.2l.1.1c1.4 1.6 5.7 3.8 11.1 3.8 5.8 0 15-3 15-3 1.7 1 3.5 1.6 5.4 1.7H85.9c.1 0 .2-.1.2-.2v-.1h-.4zm-26.9-2.1c-.6 0-1.1-.5-1.1-1.1 0-.6.5-1.1 1.1-1.1.6 0 1.1.5 1.1 1.1 0 .6-.5 1.1-1.1 1.1zM21.7 31.7c-.3.7-.7 1.4-1.1 2 1.3-.3 2.5-.8 3.6-1.5 0 0 8.6 1.2 11.3 1.5 0 0-1 3.2-1.3 3.9 1.9-.9 3.6-2.2 5.1-3.6 0 0 9.9-2.1 12-4.1.2-.2.2-.6 0-.8 0-.1-.1-.1-.2-.1 0 0-10.4-4.1-11.9-4.6s-6.2-5.7-7.5-6.2l1.7 5.3s-.1.5-.4.6-16.4 3.8-16.4 3.8-7.2-5-7.7-5.2c0 0-.4 0-.2.3s3.1 5 3.2 5.8c-.2 1.6-.6 3.1-1.2 4.5 0 0-.2.2.3.1s5.4-3.2 5.4-3.2 3.6 1.1 5.3 1.5zm21.4-4.8c.6 0 1 .4 1 1s-.4 1-1 1-1-.4-1-1 .5-1 1-1zM54.8 40.5s-4.7-3.8-9.9-2h-.1c-.1.1-.1.2-.1.3 0 .1.1.1.2.1 1.1.8 4.2 3 5.5 6 1.4 3 1.2 6.8 1.1 8.1v.2c.1.1.2.1.3.1h.1c4.7-2.8 4.8-8.9 4.8-8.9s9 2.4 15-.4c6.9-3.2 8.9-11.8 9.2-13.2V5.6H80v24.6c-2.4-1.2-9.2-3.9-15.3-1s-9.9 11.3-9.9 11.3zm15.7-8.8c1.1-.5 2.4 0 3 1.1.5 1.1 0 2.4-1.1 3-1.1.5-2.4 0-3-1.1-.5-1.2 0-2.5 1.1-3z"/></svg>