<svg id="TARGETS" xmlns="http://www.w3.org/2000/svg" viewBox="0 0 94.85 94.85" width="94.85" height="94.85"><defs><style>.cls-1{fill:#4c9f38}.cls-2{fill:#1a1818;opacity:.3}.cls-3{fill:#fff}</style></defs><title>Goal_3_RGB_NG</title><path class="cls-1" d="M0 0h94.85v94.85H0z"/><path class="cls-2" d="M66.8 30.83a10 10 0 1 1-10-10 10 10 0 0 1 10 10z"/><path class="cls-2" d="M53.34 32.73a5.9 5.9 0 1 1-5.9-5.9 5.89 5.89 0 0 1 5.9 5.9z"/><path class="cls-2" d="M49.72 25.81a5.9 5.9 0 1 1-5.9-5.9 5.9 5.9 0 0 1 5.9 5.9zM71 39a5.44 5.44 0 1 1-5.44-5.44A5.45 5.45 0 0 1 71 39z"/><g><path d="M57.7 57.3a5.94 5.94 0 1 0-2.63-8 6 6 0 0 0 2.63 8zm4.09-8.11a3.15 3.15 0 1 1-4.23 1.4 3.15 3.15 0 0 1 4.23-1.4zM31.08 43.91a5.94 5.94 0 1 0-2.64-8 5.94 5.94 0 0 0 2.64 8zm4.08-8.12a3.15 3.15 0 1 1-4.22 1.4 3.15 3.15 0 0 1 4.22-1.4z"/><path d="M20.9 42.05a8.11 8.11 0 0 1 1.67 1.81l.43.78a78.32 78.32 0 0 0 3.94 7.74 19.07 19.07 0 0 0 7.9 6.84 23.39 23.39 0 0 0 10.1 2.87c2.81.07 6.93-1.86 7.21-1.91s.26 0 1 .16 8.9 3.17 12.94 2.4a5.75 5.75 0 0 0 2.29-1.32 6.67 6.67 0 0 0 .94-1.36c.37-.72 1.64-3.25 1.64-3.25s.44-.88-.13-1.17l-3.56-1.78-.34.11-.54 1.08A6.75 6.75 0 0 1 54.26 49l.49-1 .05-.09-.12-.34-.12-.07-13.86-7-.13-.06a.26.26 0 0 0-.33.1l-.07.14-.42.84v.08a6.76 6.76 0 0 1-12.07-6.07l.14-.25.33-.64.08-.18a.25.25 0 0 0-.11-.33l-.13-.07L25.77 33c-.7-.35-2-.47-2.89 1.27-.4.78-2.54 5-2.54 5a2.07 2.07 0 0 0 .56 2.78zM50.18 57.9c.43.22-.17.45-.17.45-.8.36-5.62 2.78-12.46-.37l2.59-5.13zM28.66 47.07L38.47 52l-2.57 5.12a15.34 15.34 0 0 1-7.56-9.62c-.17-.63.32-.43.32-.43zM68.81 51.69l5-4.82 1.35 2.51-6.35 2.31z"/><circle cx="69.64" cy="47.49" r=".53"/><circle cx="71.63" cy="42.83" r=".53"/><circle cx="74.91" cy="43" r=".53"/><circle cx="78.97" cy="38" r=".53"/><circle cx="70.13" cy="34.17" r=".53"/><circle cx="74.72" cy="38.25" r=".53"/><circle cx="41.95" cy="27.14" r=".53"/><circle cx="64.95" cy="32.52" r=".53"/><circle cx="69.47" cy="29.83" r=".53"/><circle cx="46.13" cy="33.96" r=".53"/><circle cx="66.7" cy="38.33" r=".53"/><rect x="23.07" y="62.94" width="48.31" height="3.85" rx=".47" ry=".47"/></g><path class="cls-3" d="M73.5 19.06a38.46 38.46 0 0 0-54.17 54.56 38.12 38.12 0 0 0 27.93 12A38.46 38.46 0 0 0 73.5 19.06zM20.66 69.87a35 35 0 0 1 49.1-49.45zm26.6 12.27a34.61 34.61 0 0 1-24.19-9.72l49.25-49.61a35 35 0 0 1-25.06 59.33z"/></svg>