<svg id="TARGETS" xmlns="http://www.w3.org/2000/svg" viewBox="0 0 94.85 94.85" width="94.85" height="94.85"><defs><style>.cls-1{fill:#4c9f38}.cls-2{fill:#fff}</style></defs><title>Goal_3_RGB_NG</title><path class="cls-1" d="M0 0h94.85v94.85H0z"/><path class="cls-2" d="M48.57 47.71h-1.69V43h1.69zm0-8.81h-1.69v-4.74h1.69zm0-8.81h-1.69v-4.74h1.69zM48.57 21.33h-1.69v-4.74h1.69zm0-8.81h-1.69V7.77h1.69zM18.1 42.23l4.73-4.73a8.4 8.4 0 0 0-4.73 4.73zM22.15 52.79l11.23-11.24a7.77 7.77 0 0 0-1-1.54L20.6 51.79a8.72 8.72 0 0 0 1.55 1zM25.9 53.68h.24l8.12-8.12v-.25a8.51 8.51 0 0 0-.26-2L23.85 53.42a8.66 8.66 0 0 0 2.05.26zM33.63 48.5l-4.54 4.55a8.4 8.4 0 0 0 4.54-4.55zM28 37.19a8.66 8.66 0 0 0-2.11-.28h-.16l-8.22 8.21v.17a8.57 8.57 0 0 0 .27 2.1zM19.43 50.63l11.8-11.8a8.22 8.22 0 0 0-1.53-1L18.43 49.09a8.84 8.84 0 0 0 1 1.54zM15.22 84.06l25.44-25.44a10.08 10.08 0 0 0-1.66-.87L15.22 81.53zM12.46 74.55l-6.5 6.49v2.54l6.5-6.5v-2.53zM15.22 79.19l22-22a11.54 11.54 0 0 0-1.56-.26 3.93 3.93 0 0 0-.63 0L15.22 76.66zM12.46 86.82v-2.54l-2.79 2.79h2.54l.25-.25zM12.46 71.32c0-.75.2-1.77 1.58-1.77a1 1 0 0 1 .75.33l13-13h-2.51L6 76.17v2.54l6.5-6.49zM16.73 56.86a3.76 3.76 0 0 0-.61 0c-.25 0-.49.06-.73.1l-9.28 9.32A11.4 11.4 0 0 0 6 68v1l12.08-12.14zM20.41 56.86L5.96 71.3v2.54l16.99-16.98h-2.54zM12.46 81.95v-2.53l-6.5 6.49v1.16h1.38l5.12-5.12zM43.24 60.91A10.17 10.17 0 0 0 42 59.62L15.22 86.39v.68h1.86zM45.83 84.92l-2.16 2.15h2.16v-2.15zM36.57 72.45V71.2c0-.64.23-1.65 1.17-1.65a1.44 1.44 0 0 1 1.22.5l6.1-6.05a11.67 11.67 0 0 0-.84-1.7L19.41 87.07H22zM36.57 77.32v-2.54L24.28 87.07h2.54l9.75-9.75zM7.28 62.79l4.61-4.61a11.13 11.13 0 0 0-4.61 4.61zM15.22 74.33l17.46-17.47h-2.54L15.22 71.79v2.54zM36.57 87.06v-2.54l-2.56 2.55h2.54l.02-.01zM39.33 74.56l6.5-6.5a11.45 11.45 0 0 0-.24-2.28L39.33 72zM36.57 82.19v-2.54l-7.43 7.42h2.54l4.89-4.88zM39.33 84.3l6.5-6.5v-2.54l-6.5 6.5v2.54zM45.83 82.59v-2.46l-6.5 6.5v.44h2.01l4.49-4.48zM45.83 72.04v-1.65l-6.5 6.5v2.54l6.5-6.5v-.89z"/><g><path class="cls-2" d="M69.64 53.66a8.38 8.38 0 1 0-8.38-8.38 8.38 8.38 0 0 0 8.38 8.38zM56.2 71.3c0-.75.21-1.76 1.58-1.76.94 0 1.15 1 1.18 1.64v15.89h21.35V71.18c0-.64.23-1.64 1.18-1.64 1.37 0 1.58 1 1.58 1.76v15.77h6.5V68a11.17 11.17 0 0 0-10.15-11.11 5.56 5.56 0 0 0-.63 0H60.47a5.37 5.37 0 0 0-.61 0A11.16 11.16 0 0 0 49.71 68v19h6.49zm17.37-3.73c.55 0 1.18.61 1.54 1 .37-.37 1-1 1.59-1a1.9 1.9 0 0 1 1.84 2.07A2.07 2.07 0 0 1 78 71.1L75.11 74l-2.84-2.9a2.12 2.12 0 0 1-.59-1.46 1.94 1.94 0 0 1 1.89-2.07z"/></g><g><path class="cls-2" d="M23 16.55a4.69 4.69 0 0 1 5.82 0 4.5 4.5 0 0 0 1-1.28 6.31 6.31 0 0 0-7.86 0A4.4 4.4 0 0 0 23 16.55z"/><path class="cls-2" d="M32.86 16.21V16a7 7 0 0 0-6-7.89v.26a4.91 4.91 0 0 1-.71 9.73v.73l.27.07a1.4 1.4 0 0 1 .81 1.8l.63.37a4.91 4.91 0 0 1 8.78 4.26l.23.12c0-.06 0-.13.08-.19a7 7 0 0 0-4.09-9.05zM29.75 28.09a4.92 4.92 0 0 1-2.11-6.62l-.64-.36-.18.19a1.41 1.41 0 0 1-2-.19l-.63.36A4.92 4.92 0 0 1 16.14 27l-.22.13.13.16a7 7 0 0 0 9.88 1l.17.14a7 7 0 0 0 9.84-1.26l-.23-.17a4.91 4.91 0 0 1-5.96 1.09z"/><path class="cls-2" d="M27.65 24.57a4.86 4.86 0 0 0 .59 1.52 6.31 6.31 0 0 0 3.94-6.81 4.43 4.43 0 0 0-1.62.24 4.68 4.68 0 0 1-2.91 5.05zM19.68 19.28a6.33 6.33 0 0 0 3.93 6.81 4.38 4.38 0 0 0 .61-1.52 4.69 4.69 0 0 1-2.92-5.05 4.93 4.93 0 0 0-1.62-.24z"/><path class="cls-2" d="M17.2 19.59a4.89 4.89 0 0 1 6.8 1.48l.63-.37a1 1 0 0 1-.06-.25 1.4 1.4 0 0 1 1.14-1.62v-.73A4.91 4.91 0 0 1 25 8.37v-.26h-.21a7 7 0 0 0-5.79 8.1l-.2.09a7 7 0 0 0-3.8 9.15l.23-.12a4.91 4.91 0 0 1 1.97-5.74z"/></g><g><path class="cls-2" d="M12.43 39.24a.69.69 0 1 1-.69-.69.69.69 0 0 1 .69.69zM7.64 15.13a1 1 0 0 1-2 0 1 1 0 1 1 2 0zM43.43 26.66a1 1 0 1 1-1-1 1 1 0 0 1 1 1zM37.94 34.64a1.28 1.28 0 1 1-1.28-1.28 1.28 1.28 0 0 1 1.28 1.28zM9.22 29.81a1.28 1.28 0 1 1-1.28-1.29 1.28 1.28 0 0 1 1.28 1.29zM41.46 10.66a1.28 1.28 0 1 1-1.28-1.29 1.29 1.29 0 0 1 1.28 1.29zM43.43 44.48a1 1 0 1 1-1-1 1 1 0 0 1 1 1zM6.66 45.46a.69.69 0 1 1-.66-.69.69.69 0 0 1 .66.69zM11.74 50a1 1 0 1 1-1-1 1 1 0 0 1 1 1z"/></g></svg>