<svg id="TARGETS" xmlns="http://www.w3.org/2000/svg" viewBox="0 0 94.85 94.85" width="94.85" height="94.85"><defs><style>.cls-1{fill:#fd9d24}.cls-2{fill:#fff}</style></defs><title>Goal_11_RGB_NG</title><path class="cls-1" d="M0 0h94.85v94.85H0z"/><path class="cls-2" d="M7.22 53.27h18.77v5.57H7.22zM27.8 53.27h18.77v5.57H27.8zM48.37 53.27h18.77v5.57H48.37zM68.95 53.27h18.77v5.57H68.95zM72.47 22.56l-.87-5.14-.07 5.16.94-.02zM75.4 22.56l.88-5.14.06 5.16-.94-.02zM69.28 22.58l1.14-.02-1.05-6.18-.09 6.2zM76.31 12.77c-.17-.31-1-.2-1.73.24s0-.07 0-.11c.05-.89-.19-1.64-.54-1.66s-.69.68-.74 1.58a1.48 1.48 0 0 0 0 .21l-.16-.13c-.72-.54-1.47-.75-1.69-.46s.2.95.92 1.48l.28.2-.23.11c-.78.45-1.27 1.05-1.09 1.36s.94.2 1.72-.24a3.43 3.43 0 0 0 .71-.52v7.76h.37v-5.3-2.13a4 4 0 0 0 .37.31c.72.54 1.47.74 1.68.46s-.2-.95-.91-1.48l-.29-.2a1 1 0 0 0 .23-.12c.79-.45 1.27-1.06 1.1-1.36zm-2.48 1.53a.34.34 0 0 1-.31-.36c0-.19.36-.32.36-.32s.33.17.31.36a.34.34 0 0 1-.36.32zM85.77 14.44l-.28-.2.23-.12c.78-.44 1.27-1 1.09-1.35s-.94-.2-1.72.24 0-.07 0-.11c.06-.89-.18-1.64-.54-1.66s-.68.68-.74 1.58v.21l-.17-.13c-.72-.54-1.47-.75-1.68-.46s.19.95.91 1.48l.29.2-.24.11c-.78.45-1.27 1.05-1.09 1.36s1 .2 1.73-.24a3.73 3.73 0 0 0 .71-.52v7.76h.37v-5.3-2.13l.37.31c.72.54 1.47.74 1.69.46s-.21-.93-.93-1.49zm-1.43-.14a.35.35 0 0 1-.32-.36c0-.19.36-.32.36-.32s.33.17.32.36a.34.34 0 0 1-.36.32zM81.02 22.56l-.88-5.14-.07 5.16.95-.02z"/><path class="cls-2" d="M81.84 22.56l.87-5.14.07 5.16-.94-.02zM77.83 22.58l1.13-.02-1.05-6.18-.08 6.2zM86.38 22.8l-.88-5.14-.06 5.16.94-.02zM86.59 22.44l1.13-.02-.46-5.52-.67 5.54zM53.34 32.4a1.76 1.76 0 1 0-1.75 1.75 1.75 1.75 0 0 0 1.75-1.75zM53.64 34.83h-4.1a2.32 2.32 0 0 0-2.12 2.33V42a.68.68 0 0 0 1.36 0v-4.16c0-.16 0-.37.33-.37s.24.21.24.35v12.51a1 1 0 0 0 2 0v-7.21a.27.27 0 0 1 .28-.29.27.27 0 0 1 .28.29v7.21a1 1 0 0 0 2 0V37.82c0-.14 0-.35.25-.35s.33.21.33.37V42a.68.68 0 0 0 1.36 0v-4.84a2.33 2.33 0 0 0-2.21-2.33zM60.35 32.5a1.72 1.72 0 1 0 1.72-1.72 1.72 1.72 0 0 0-1.72 1.72zM65.53 36.39s-.51-1.34-1.64-1.34h-3.64c-1.13 0-1.64 1.34-1.64 1.34L57.18 41s-.25.85.47 1.06.94-.62.94-.62l1.15-3.87s.06-.3.29-.24.14.39.14.39l-2 7.26H60v5.21a.9.9 0 0 0 1.79 0V45h.5v5.21a.9.9 0 0 0 1.8 0V45H66l-2-7.26s-.09-.32.14-.39.28.24.28.24l1.15 3.87s.22.84.94.62S67 41 67 41zM13.43 44.33h1.73v4.6a.16.16 0 0 0 .15.16h2.1a.16.16 0 0 0 .16-.16V44.3h3.41a4 4 0 0 0 2.92-6.74 3.74 3.74 0 0 0-1.86-7h-.24a5.06 5.06 0 0 0-10.1.44 4.94 4.94 0 0 0 .51 2.2 5.66 5.66 0 0 0 1.22 11.18zM8 51.5a.75.75 0 1 0-.74-.74.74.74 0 0 0 .74.74zM10.6 50.76a.75.75 0 0 0 .75.74.75.75 0 0 0 0-1.49.75.75 0 0 0-.75.75zM14.67 50a.75.75 0 1 0 .75.75.75.75 0 0 0-.75-.75zM17.25 50.76a.75.75 0 0 0 .75.74.75.75 0 0 0 0-1.5.75.75 0 0 0-.75.76zM20.58 50.76a.74.74 0 0 0 .74.74.75.75 0 1 0-.74-.74zM23.9 50.76a.75.75 0 0 0 .75.74.75.75 0 0 0 0-1.49.75.75 0 0 0-.75.75zM8.94 48.18a.75.75 0 1 0 .74-.75.74.74 0 0 0-.74.75zM12.26 48.18a.75.75 0 1 0 .75-.75.75.75 0 0 0-.75.75z"/><path class="cls-2" d="M18.91 48.18a.75.75 0 1 0 .75-.75.75.75 0 0 0-.75.75zM22.24 48.18a.75.75 0 1 0 .75-.75.74.74 0 0 0-.75.75z"/><g><path class="cls-2" d="M32.28 32.18a4.19 4.19 0 0 0-1.08 2c0 .72.85 1.16 1.09 1.31 0 0 1.11-.59 1.1-1.33a3.94 3.94 0 0 0-1.11-1.98zM29.86 34.3s-.17 1.93.67 2.5c0 0 .28.36 1.57.55 0 0 .13-1.25-.35-1.75a6.47 6.47 0 0 0-1.89-1.3zM29.71 36.67s-.18 2.11.72 2.73c0 0 .3.39 1.7.6 0 0 .13-1.36-.39-1.91a6.89 6.89 0 0 0-2.03-1.42zM29.77 39.4s-.28 2.28.62 2.9a3.09 3.09 0 0 0 1.77.63s.19-1.39-.33-1.94c0 .01-.29-.58-2.06-1.59zM29.5 42.15s-.12 2.36.78 3a3.7 3.7 0 0 0 1.87.65s.16-1.52-.36-2.08a7.42 7.42 0 0 0-2.29-1.57zM34.72 34.26s.2 1.92-.63 2.51c0 0-.27.36-1.56.58 0 0-.15-1.25.32-1.76a6.48 6.48 0 0 1 1.87-1.33zM34.91 36.63s.22 2.09-.67 2.73c0 0-.29.4-1.69.63 0 0-.16-1.35.35-1.91a6.87 6.87 0 0 1 2.01-1.45zM34.9 39.36s.33 2.26-.57 2.9a3.07 3.07 0 0 1-1.75.67s-.22-1.39.29-2c0 .07.28-.54 2.03-1.57zM35.22 42.1s.17 2.35-.72 3a3.77 3.77 0 0 1-1.86.69s-.19-1.53.32-2.09a7.4 7.4 0 0 1 2.26-1.6zM30.27 30.11a.2.2 0 0 0-.2-.2.21.21 0 0 0-.21.21v3.8l.41.23zM31.11 29.44a.21.21 0 1 0-.41 0v4.55a5.78 5.78 0 0 1 .4-1zM32 28.39a.2.2 0 0 0-.2-.2.2.2 0 0 0-.21.2v3.94l.41-.56zM34.23 30.08a.21.21 0 0 1 .21-.21.2.2 0 0 1 .2.2v3.81l-.41.24zM33.38 29.42a.2.2 0 0 1 .21-.2.2.2 0 0 1 .2.2l.05 4.58a5.89 5.89 0 0 0-.42-1zM32.51 28.38a.2.2 0 0 1 .2-.2.2.2 0 0 1 .21.2v3.94c-.15-.21-.31-.41-.42-.56zM32.12 46.13h.6v5.33h-.6z"/></g><g><path class="cls-2" d="M40.59 32.11s-1.09 1.17-1.08 2 .85 1.15 1.09 1.3c0 0 1.1-.59 1.1-1.32a3.94 3.94 0 0 0-1.11-1.98zM38.17 34.23s-.17 1.93.67 2.5c0 0 .27.36 1.57.55 0 0 .13-1.25-.36-1.75a6.23 6.23 0 0 0-1.88-1.3zM38 36.6s-.18 2.1.72 2.73c0 0 .3.38 1.7.59a3.07 3.07 0 0 0-.37-1.92A7.09 7.09 0 0 0 38 36.6zM38.08 39.33s-.28 2.27.62 2.9a3.08 3.08 0 0 0 1.76.63s.2-1.39-.32-1.94c0 0-.29-.58-2.06-1.59zM37.81 42.08s-.12 2.36.78 3a3.7 3.7 0 0 0 1.87.65s.16-1.53-.36-2.08a7.42 7.42 0 0 0-2.29-1.57zM43 34.18s.2 1.93-.63 2.52c0 0-.27.36-1.56.57 0 0-.15-1.24.32-1.76A6.77 6.77 0 0 1 43 34.18zM43.22 36.55s.22 2.1-.67 2.74c0 0-.29.39-1.69.63 0 0-.16-1.36.35-1.92a6.9 6.9 0 0 1 2.01-1.45zM43.21 39.28s.32 2.27-.57 2.91a3.07 3.07 0 0 1-1.75.67s-.22-1.39.29-2c0 .05.28-.54 2.03-1.58zM43.53 42s.17 2.35-.73 3a3.64 3.64 0 0 1-1.8.7s-.19-1.52.32-2.08A7.4 7.4 0 0 1 43.53 42zM38.58 30a.2.2 0 0 0-.21-.2.2.2 0 0 0-.2.2v3.81l.41.23zM39.42 29.37a.21.21 0 0 0-.21-.2.2.2 0 0 0-.2.21v4.55a5.27 5.27 0 0 1 .4-1zM40.27 28.32a.2.2 0 0 0-.2-.21.22.22 0 0 0-.21.21v3.94c.15-.21.3-.41.4-.56zM42.54 30a.2.2 0 0 1 .2-.2.2.2 0 0 1 .26.2v3.8l-.41.25zM41.69 29.35a.21.21 0 0 1 .21-.21.2.2 0 0 1 .2.21v4.55a5 5 0 0 0-.41-1zM40.82 28.31a.2.2 0 0 1 .2-.2.2.2 0 0 1 .21.2v3.94l-.41-.56zM40.42 46.05h.6v5.33h-.6z"/></g><path class="cls-2" d="M85.61 22.41H69.26v29a.32.32 0 0 0 .32.32h1.5v-7.59a.26.26 0 0 1 .26-.26h4a.26.26 0 0 1 .26.26v7.58h11.78a.32.32 0 0 0 .32-.32v-29zm.27 25.78a.28.28 0 0 1-.27.28h-7.89a.28.28 0 0 1-.27-.28v-4a.28.28 0 0 1 .27-.28h7.89a.28.28 0 0 1 .27.28zm0-6.48a.27.27 0 0 1-.27.27H71.35a.26.26 0 0 1-.21-.12.25.25 0 0 1-.06-.15v-4a.27.27 0 0 1 .27-.28h14.26a.26.26 0 0 1 .25.23zm0-6.47a.27.27 0 0 1-.27.27H71.35a.27.27 0 0 1-.25-.21v-4.06a.27.27 0 0 1 .27-.28h14.24a.26.26 0 0 1 .25.23v.05zm0-6.55a.27.27 0 0 1-.27.27H71.35a.27.27 0 0 1-.27-.27v-4a.27.27 0 0 1 .27-.28h14.26a.27.27 0 0 1 .27.28z"/><g><path d="M87.09 76.14h-.11l-.24.13a15 15 0 0 1-17.54-2.44c-.07-.07-.25-.25-.41-.25a1 1 0 0 0-.4.22c-2.11 1.64-11.89 8.23-20.58.12l-.14-.12a.45.45 0 0 0-.35-.14.44.44 0 0 0-.34.14l-.13.12c-8.69 8.08-18.47 1.51-20.59-.12a.56.56 0 0 0-.4-.19.7.7 0 0 0-.42.22c-7.13 6.74-15 3.73-17.53 2.46l-.25-.13h-.09a.49.49 0 0 0-.49.49V80a.44.44 0 0 0 .14.34c8.24 7.17 16.06.47 17.85-1.31a2 2 0 0 1 .19-.17.32.32 0 0 1 .22-.06.49.49 0 0 1 .34.15c9.32 8.88 19.09 1.69 21.11 0l.21-.18a.24.24 0 0 1 .18-.08.27.27 0 0 1 .2.08l.2.18c2 1.69 11.79 8.88 21.1 0a.47.47 0 0 1 .6 0 .47.47 0 0 1 .14.14c1.8 1.77 9.6 8.48 17.85 1.31a.45.45 0 0 0 .15-.34v-3.43a.49.49 0 0 0-.49-.49M87.09 65H87l-.24.12c-2.53 1.27-10.4 4.29-17.54-2.46-.07-.07-.25-.25-.41-.24a.77.77 0 0 0-.4.22c-2.11 1.63-11.89 8.22-20.58.12l-.14-.13a.48.48 0 0 0-.35-.14.48.48 0 0 0-.34.14l-.13.13c-8.69 8.1-18.47 1.5-20.59-.12-.12-.09-.19-.2-.4-.19a.65.65 0 0 0-.42.21c-7.13 6.75-15 3.73-17.53 2.46L7.66 65h-.09a.49.49 0 0 0-.49.49v3.41a.44.44 0 0 0 .14.34c8.24 7.18 16.06.47 17.85-1.31a1 1 0 0 1 .19-.16.32.32 0 0 1 .22-.07.49.49 0 0 1 .34.15c9.32 8.88 19.09 1.69 21.11 0l.21-.19a.24.24 0 0 1 .18-.08.27.27 0 0 1 .2.08l.2.19c2 1.68 11.79 8.87 21.1 0a.47.47 0 0 1 .6 0 .47.47 0 0 1 .14.14c1.8 1.77 9.6 8.49 17.85 1.31a.45.45 0 0 0 .15-.34v-3.52a.49.49 0 0 0-.49-.49"/></g></svg>