<svg id="TARGETS" xmlns="http://www.w3.org/2000/svg" viewBox="0 0 94.85 94.85" width="94.85" height="94.85"><defs><style>.cls-1{fill:#4c9f38}.cls-2{fill:#fff}</style></defs><title>Goal_3_RGB_NG</title><path class="cls-1" d="M0 0h94.85v94.85H0z"/><path class="cls-2" d="M64 9.11H30.83A3.84 3.84 0 0 0 27 13v69a3.84 3.84 0 0 0 3.84 3.84H64A3.84 3.84 0 0 0 67.84 82V13A3.84 3.84 0 0 0 64 9.11zM47.58 81.3a4.21 4.21 0 1 1 4.21-4.21 4.21 4.21 0 0 1-4.21 4.21zm17.36-12.69H30.22v-56h34.72z"/><path class="cls-2" d="M61.24 51.32l-13.55-26a.3.3 0 0 0-.53 0l-13.55 26a.3.3 0 0 0 .26.43H61a.3.3 0 0 0 .24-.43zM49 32.86l-.72 11.79h-1.69l-.72-11.79zm-1.58 16.63A1.6 1.6 0 1 1 49 47.9a1.6 1.6 0 0 1-1.58 1.59z"/></svg>