<svg id="TARGETS" xmlns="http://www.w3.org/2000/svg" viewBox="0 0 94.85 94.85" width="94.85" height="94.85"><defs><style>.cls-1{fill:#fd9d24}.cls-2{fill:#fff}</style></defs><title>Goal_11_RGB_NG</title><path class="cls-1" d="M0 0h94.85v94.85H0z"/><path class="cls-2" d="M36.82 73.59a.74.74 0 0 0-1 .33 19.92 19.92 0 0 1-1.28 2 .8.8 0 0 1-.62.29h-2.45a.79.79 0 0 1-.62-.29c-.32-.31-1.25-2-1.31-2a.72.72 0 0 0-.63-.34.74.74 0 0 0-.73.74 1.43 1.43 0 0 0 .07.32l2 3.67a1.31 1.31 0 0 1 .12.48v.55a2.2 2.2 0 0 1-.1.61l-1 3.86h1.13v2.86a1 1 0 1 0 2 0v-2.82a.41.41 0 0 1 0-.12h.6a.41.41 0 0 1 0 .12v2.74a1 1 0 0 0 2 0v-2.86h1l-1-3.85a2.12 2.12 0 0 1-.08-.51v-.65a1.31 1.31 0 0 1 .12-.48l1.96-3.4.17-.36a.65.65 0 0 0-.35-.89z"/><path class="cls-2" d="M32.69 74.9a2 2 0 1 0-2-2 2 2 0 0 0 2 2zM60.75 70a2.28 2.28 0 1 0-2.27-2.28A2.28 2.28 0 0 0 60.75 70zM70.24 84l-1-1.86L67 77.57a1.1 1.1 0 0 0-1.1-.57.48.48 0 0 0-.12 0h-3.1l-.06-4c0-1.23-.31-2-1.27-2.2a4.71 4.71 0 0 0-1.4 0h-.11L56 72h-.16a1 1 0 0 0-.41.5l-1.1 3.07a1 1 0 0 0 .59 1.23 1 1 0 0 0 1.23-.58l.85-2.57 1.43-.46h.06v4.28c0 1 .32 1.94 1.28 2.2l.3.08a3 3 0 0 0 .5 0h4.8l1.26 2.46v.08l.45.88.44.86a.43.43 0 0 0 0 .07l.48.92A1.2 1.2 0 1 0 70.24 84z"/><path class="cls-2" d="M64.88 81.12h-1.77v.24a.71.71 0 0 1 0 .14 4.46 4.46 0 1 1-8-2.74l.09-.12-1.39-1.09-.09.12A6.22 6.22 0 1 0 64.9 81.5a.76.76 0 0 0 0-.15z"/><g><path class="cls-2" d="M45 63.24a2.49 2.49 0 1 0-2.49-2.49A2.49 2.49 0 0 0 45 63.24zM47.88 64.2h-5.8a3.31 3.31 0 0 0-3 3.3v6.9a1 1 0 0 0 1.93 0v-5.93c0-.22.06-.52.47-.52s.34.3.35.49v17.75a1.39 1.39 0 1 0 2.77 0V76a.37.37 0 0 1 .4-.4.37.37 0 0 1 .39.4v10.19a1.39 1.39 0 0 0 2.78 0V68.44c0-.19.06-.49.35-.49s.47.3.47.52v5.93a1 1 0 0 0 1.92 0v-6.9a3.31 3.31 0 0 0-3.03-3.3z"/></g><g><path class="cls-2" d="M77.45 63.59A2.44 2.44 0 1 0 75 61.15a2.43 2.43 0 0 0 2.45 2.44zM84.38 73.27l-2-6.6s-.73-1.91-2.33-1.91h-5.18c-1.61 0-2.33 1.91-2.33 1.91l-2 6.6s-.36 1.2.67 1.51 1.33-.88 1.33-.88l1.63-5.51s.09-.42.41-.33.2.55.2.55L71.9 78.92h2.65v7.39a1.27 1.27 0 0 0 2.54 0v-7.39h.72v7.39a1.27 1.27 0 0 0 2.54 0v-7.39H83l-2.85-10.31s-.12-.46.2-.55.41.33.41.33l1.63 5.51s.31 1.18 1.33.88.66-1.51.66-1.51z"/></g><g><path class="cls-2" d="M19.36 65.07a2.35 2.35 0 0 0 1.14-4.41.86.86 0 0 0 .13-.41 1.09 1.09 0 0 0-1.19-.94 1.08 1.08 0 0 0-1.18.94.67.67 0 0 0 .09.34 2.35 2.35 0 0 0 1 4.48zM26.07 73.68l-2-6.38s-.7-1.84-2.25-1.84h-5c-1.55 0-2.25 1.84-2.25 1.84l-2 6.38s-.28 1 .44 1.36c0 0 0 .06-.06.09l-2.3 12a.38.38 0 0 0 .29.43h.07a.36.36 0 0 0 .36-.3l2.3-12v-.1c.63-.1.85-.88.85-.88L16.17 69s.08-.41.39-.32.19.52.19.52L14 79.15h2.56v7.14a1.23 1.23 0 0 0 2.45 0v-7.14h.7v7.14a1.23 1.23 0 0 0 2.46 0v-7.14h2.55L22 69.17s-.12-.43.19-.52.39.32.39.32l1.58 5.32s.3 1.14 1.29.85.62-1.46.62-1.46z"/></g><g><path class="cls-2" d="M27.55 39A3.58 3.58 0 0 0 24 35.43h-.23a4.84 4.84 0 1 0-9.17 2.48 5.41 5.41 0 0 0 1.17 10.69h1.65V53a.15.15 0 0 0 .15.15h2a.15.15 0 0 0 .15-.15v-4.42h3.27a3.83 3.83 0 0 0 2.79-6.45A3.56 3.56 0 0 0 27.55 39zM26.87 11.76a4.43 4.43 0 1 0-.29 6.24 4.43 4.43 0 0 0 .29-6.24zM27.49 18.55a.36.36 0 0 0-.5 0 .37.37 0 0 0 0 .5l1.31 1.43a.37.37 0 0 0 .5 0 .37.37 0 0 0 0-.5zM19.64 11a.38.38 0 0 0 .5 0 .37.37 0 0 0 0-.5l-1.27-1.43a.37.37 0 0 0-.5 0 .36.36 0 0 0 0 .49z"/><path class="cls-2" d="M19.3 18.16l-1.43 1.31a.36.36 0 0 0 0 .5.37.37 0 0 0 .5 0l1.43-1.31a.38.38 0 0 0 0-.5.37.37 0 0 0-.5 0zM27.83 11.38l1.44-1.3a.37.37 0 0 0 0-.5.36.36 0 0 0-.49 0l-1.44 1.3a.38.38 0 0 0 0 .5.37.37 0 0 0 .49 0zM24.67 19.74a.37.37 0 0 0-.28.42l.42 1.89a.36.36 0 0 0 .71-.16L25.1 20a.38.38 0 0 0-.43-.26zM22.46 9.8a.36.36 0 0 0 .28-.41l-.42-1.9a.36.36 0 0 0-.43-.25.36.36 0 0 0-.28.41l.39 1.9a.36.36 0 0 0 .46.25zM18.59 15.88a.36.36 0 0 0-.41-.28l-1.89.4a.37.37 0 0 0-.26.43.38.38 0 0 0 .42.28l1.89-.42a.37.37 0 0 0 .25-.41zM31.1 13.1a.36.36 0 0 0-.41-.28l-1.9.42a.36.36 0 0 0-.25.43.37.37 0 0 0 .46.33l1.9-.42a.38.38 0 0 0 .2-.48zM22 19.62a.37.37 0 0 0-.45.22L21 21.68a.39.39 0 0 0 .25.44.38.38 0 0 0 .45-.21l.59-1.85a.37.37 0 0 0-.29-.44zM25.12 9.92a.37.37 0 0 0 .45-.21l.6-1.85a.38.38 0 0 0-.25-.44.37.37 0 0 0-.45.22l-.59 1.85a.37.37 0 0 0 .24.43zM16.43 12.87l1.85.59a.38.38 0 0 0 .44-.24.37.37 0 0 0-.22-.45l-1.85-.6a.37.37 0 0 0-.22.7zM30.7 16.68l-1.85-.59a.38.38 0 0 0-.44.24.37.37 0 0 0 .22.45l1.85.59a.38.38 0 0 0 .44-.24.37.37 0 0 0-.22-.45z"/><g><path class="cls-2" d="M37.06 20.83l-.79.84 3 .72-.86-2.94-.8.83-2.13-2a.38.38 0 1 0-.53.55zM36.1 26.09l-.86-2.94-.8.83-2.13-2a.38.38 0 0 0-.54 0 .39.39 0 0 0 0 .55l2.13 2-.79.83z"/></g><rect class="cls-2" x="32.12" y="24.57" width="15.96" height=".71" rx=".29" ry=".29" transform="rotate(-51.71 40.106 24.927)"/><path class="cls-2" d="M64.8 7.23H53.39a.58.58 0 0 0-.58.58v22.88H48V17.11a.28.28 0 0 0 0-.11.32.32 0 0 0-.32-.24.28.28 0 0 0-.18.06l-.11.14-3 3.83-.59.75-4.09 5.18-3.25 4.13-1.64 2.08-.06.08a.33.33 0 0 0-.11.25V52.9a.31.31 0 0 0 .31.31h7.29V45.9a.35.35 0 0 1 .35-.35h3.6a.35.35 0 0 1 .35.35v7.35H54v-7.37a.39.39 0 0 1 .39-.39h3.66a.38.38 0 0 1 .39.39v7.33h6.61a.3.3 0 0 0 .3-.31V7.81a.58.58 0 0 0-.55-.58zM42.7 25.66l.09-.12c.86-1.1 2.32-2.89 3-3.76l.1-.11a.34.34 0 0 1 .28-.13.36.36 0 0 1 .35.29v4a.36.36 0 0 1-.35.36H43a.36.36 0 0 1-.35-.36.38.38 0 0 1 .05-.17zM40.65 48a.35.35 0 0 1-.35.35h-3.72a.36.36 0 0 1-.36-.35v-2.19a.35.35 0 0 1 .36-.35h3.72a.35.35 0 0 1 .35.35zm.06-4.42a.31.31 0 0 1-.31.31h-3.82a.31.31 0 0 1-.31-.31v-2.36a.31.31 0 0 1 .31-.31h3.82a.31.31 0 0 1 .31.31zm0-4.42a.31.31 0 0 1-.31.31h-3.82a.31.31 0 0 1-.31-.31V36.8a.31.31 0 0 1 .31-.31h3.82a.31.31 0 0 1 .31.31zm0-4.41a.31.31 0 0 1-.31.31h-3.81a.31.31 0 0 1-.31-.31v-.66a.25.25 0 0 1 0-.12v-.05c.49-.7 2.69-3.41 3.62-4.54l.09-.12a.37.37 0 0 1 .28-.13.36.36 0 0 1 .35.29zm5.83 8.83a.31.31 0 0 1-.32.31h-3.8a.31.31 0 0 1-.32-.31v-2.36a.31.31 0 0 1 .32-.31h3.81a.31.31 0 0 1 .32.31zm0-4.42a.31.31 0 0 1-.32.31h-3.8a.31.31 0 0 1-.32-.31V36.8a.31.31 0 0 1 .32-.31h3.81a.31.31 0 0 1 .32.31zm0-4.41a.31.31 0 0 1-.32.31h-3.8a.31.31 0 0 1-.32-.31v-2.36a.32.32 0 0 1 .32-.32h3.81a.32.32 0 0 1 .32.32zm0-4.42a.31.31 0 0 1-.32.31h-3.8a.31.31 0 0 1-.32-.31V28a.32.32 0 0 1 .32-.32h3.81a.32.32 0 0 1 .32.32zm5.91 17.75a.39.39 0 0 1-.39.39h-3.65a.38.38 0 0 1-.39-.39v-2.2a.38.38 0 0 1 .39-.39h3.66a.39.39 0 0 1 .39.39zm0-4.46a.39.39 0 0 1-.39.39h-3.65a.38.38 0 0 1-.39-.39v-2.2a.38.38 0 0 1 .39-.39h3.66a.39.39 0 0 1 .39.39zm0-4.46a.39.39 0 0 1-.39.39h-3.65a.38.38 0 0 1-.39-.39V37a.38.38 0 0 1 .39-.39h3.66a.39.39 0 0 1 .39.39zm0-4.49a.4.4 0 0 1-.39.39h-3.65a.39.39 0 0 1-.41-.36v-2.24a.39.39 0 0 1 .39-.39h3.66a.4.4 0 0 1 .39.39zm6 8.95a.38.38 0 0 1-.39.39h-3.64a.39.39 0 0 1-.39-.39v-2.2a.39.39 0 0 1 .39-.39h3.66a.38.38 0 0 1 .39.39zm0-4.46a.38.38 0 0 1-.39.39h-3.64a.39.39 0 0 1-.39-.39V37a.39.39 0 0 1 .39-.39h3.66a.38.38 0 0 1 .39.39zm0-4.46a.38.38 0 0 1-.39.39h-3.64a.39.39 0 0 1-.39-.39v-2.2a.39.39 0 0 1 .39-.39h3.66a.38.38 0 0 1 .39.39zm0-4.45a.38.38 0 0 1-.39.38h-3.64a.39.39 0 0 1-.39-.38V28a.39.39 0 0 1 .39-.39h3.66a.38.38 0 0 1 .39.39zm0-4.46a.38.38 0 0 1-.39.38h-3.64a.39.39 0 0 1-.39-.38v-2.21a.39.39 0 0 1 .39-.39h3.66a.38.38 0 0 1 .39.39zm0-4.46a.38.38 0 0 1-.39.38h-3.64a.39.39 0 0 1-.39-.38v-2.21a.39.39 0 0 1 .39-.39h3.66a.38.38 0 0 1 .39.39zm0-4.46a.39.39 0 0 1-.39.39h-3.64a.4.4 0 0 1-.42-.36v-2.24a.39.39 0 0 1 .39-.39h3.66a.38.38 0 0 1 .39.39zm0-4.46a.39.39 0 0 1-.39.39h-3.64a.4.4 0 0 1-.39-.39V10.2a.39.39 0 0 1 .39-.39h3.66a.38.38 0 0 1 .39.39zm5.69 35.67a.38.38 0 0 1-.39.39h-3.63a.38.38 0 0 1-.39-.39v-2.2a.38.38 0 0 1 .39-.39h3.65a.38.38 0 0 1 .39.39zm0-4.45a.39.39 0 0 1-.39.39h-3.63a.39.39 0 0 1-.39-.39v-2.25a.39.39 0 0 1 .39-.39h3.65a.39.39 0 0 1 .39.39zm0-4.46a.38.38 0 0 1-.39.39h-3.63a.38.38 0 0 1-.39-.39v-2.24a.38.38 0 0 1 .39-.39h3.65a.38.38 0 0 1 .39.39zm0-4.45a.39.39 0 0 1-.39.39h-3.63a.39.39 0 0 1-.39-.39v-2.25a.39.39 0 0 1 .39-.39h3.65a.39.39 0 0 1 .39.39zm0-4.45a.38.38 0 0 1-.39.38h-3.63a.38.38 0 0 1-.39-.38V28a.38.38 0 0 1 .39-.39h3.65a.38.38 0 0 1 .39.39zm0-4.46a.38.38 0 0 1-.39.39h-3.63a.38.38 0 0 1-.39-.39v-2.25a.39.39 0 0 1 .39-.39h3.65a.39.39 0 0 1 .39.39zm0-4.45a.38.38 0 0 1-.39.38h-3.63a.38.38 0 0 1-.39-.38v-2.25a.38.38 0 0 1 .39-.39h3.65a.38.38 0 0 1 .39.39zm0-4.46a.38.38 0 0 1-.39.39h-3.63a.38.38 0 0 1-.39-.39v-2.25a.39.39 0 0 1 .39-.39h3.65a.39.39 0 0 1 .39.39zm0-4.45a.39.39 0 0 1-.39.39h-3.63a.39.39 0 0 1-.39-.39V10.2a.38.38 0 0 1 .39-.39h3.65a.38.38 0 0 1 .39.39zM78.84 52.91V25.45a.3.3 0 0 0-.3-.31H68.39a.3.3 0 0 0-.31.3v27.47a.31.31 0 0 0 .31.31h10.14a.32.32 0 0 0 .31-.31zm-6.16-3.29a.38.38 0 0 1-.38.39h-2.38a.39.39 0 0 1-.39-.39v-2.23a.39.39 0 0 1 .39-.39h2.38a.38.38 0 0 1 .38.39zm0-5.06a.38.38 0 0 1-.38.39h-2.38a.39.39 0 0 1-.39-.39v-2.23a.39.39 0 0 1 .39-.39h2.38a.38.38 0 0 1 .38.39zm0-5.06a.38.38 0 0 1-.38.39h-2.38a.39.39 0 0 1-.39-.39v-2.23a.39.39 0 0 1 .39-.39h2.38a.38.38 0 0 1 .38.39zm0-5.06a.38.38 0 0 1-.38.39h-2.38a.39.39 0 0 1-.39-.39v-2.23a.39.39 0 0 1 .39-.39h2.38a.38.38 0 0 1 .38.39zm0-5.06a.38.38 0 0 1-.38.39h-2.38a.39.39 0 0 1-.39-.39v-2.23a.39.39 0 0 1 .39-.39h2.38a.38.38 0 0 1 .38.39zm4.7 20.24A.38.38 0 0 1 77 50h-2.38a.39.39 0 0 1-.39-.39v-2.22a.39.39 0 0 1 .39-.39H77a.38.38 0 0 1 .38.39zm0-5.06A.38.38 0 0 1 77 45h-2.38a.39.39 0 0 1-.39-.39v-2.28a.39.39 0 0 1 .39-.39H77a.38.38 0 0 1 .38.39zm0-5.06a.38.38 0 0 1-.38.39h-2.38a.39.39 0 0 1-.39-.39v-2.23a.39.39 0 0 1 .39-.39H77a.38.38 0 0 1 .38.39zm0-5.06a.38.38 0 0 1-.38.39h-2.38a.39.39 0 0 1-.39-.39v-2.23a.39.39 0 0 1 .39-.39H77a.38.38 0 0 1 .38.39zm0-5.06a.38.38 0 0 1-.38.39h-2.38a.39.39 0 0 1-.39-.39v-2.23a.39.39 0 0 1 .39-.39H77a.38.38 0 0 1 .38.39z"/></g></svg>