<svg id="TARGETS" xmlns="http://www.w3.org/2000/svg" viewBox="0 0 94.85 94.85" width="94.85" height="94.85"><defs><style>.cls-1{fill:#c5192d}.cls-2{fill:#fff}</style></defs><title>Goal_4_RGB_NG</title><path class="cls-1" d="M0 0h94.85v94.85H0z"/><path class="cls-2" d="M36.07 69.84H47V58.93H36.07zm3.14-8.71h2.34c1.65 0 2.1.78 2.1 1.84A1.33 1.33 0 0 1 43 64.2a1.43 1.43 0 0 1 .9 1.46c0 1.12-.52 2-2.26 2h-2.43z"/><path class="cls-2" d="M42.18 63a.62.62 0 0 0-.68-.7h-.9v1.4h.9a.62.62 0 0 0 .68-.7zM42.37 65.65a.72.72 0 0 0-.8-.81h-1v1.62h1a.72.72 0 0 0 .8-.81zM48.43 58.93v10.91h10.91V58.93zM56 62.56a3 3 0 0 0-1.22-.25c-1.06 0-1.54.43-1.54 2.08s.48 2.07 1.54 2.07a2.85 2.85 0 0 0 1.22-.25v1.31a3 3 0 0 1-1.36.25c-1.9 0-2.8-.93-2.81-3.38S52.71 61 54.61 61a3.24 3.24 0 0 1 1.36.24zM47.14 52.96h1.11l-.56-2.47-.55 2.47z"/><path class="cls-2" d="M53.16 46.66H42.25v10.92h10.91zm-4.34 8.74l-.3-1.34h-1.65l-.31 1.34h-1.47l1.8-6.55h1.6l1.81 6.55z"/><g><path class="cls-2" d="M73.68 35.83a5.42 5.42 0 1 0-5.42-5.42 5.41 5.41 0 0 0 5.42 5.42zM86.67 51.59c0-.24-1.62-4.07-2.09-5.28-3.27-8.41-3.81-8.35-6.77-8.44h-8.26c-3 .09-3.5 0-6.77 8.44-.47 1.21-2.42 5.88-2.44 6.11 0 0-.82 2 1 2.63 1.58.56 2.27-1.37 2.27-1.37l3.39-8.2s.09-.18.2-.17.13.16.14.26v21.36a2.8 2.8 0 0 0 2.79 2.91 2.76 2.76 0 0 0 2.73-2.91v-8.52s-.09-1.31.85-1.29.84 1.29.84 1.29v8.52a2.81 2.81 0 0 0 2.79 2.91A2.74 2.74 0 0 0 80 66.93V45.55c0-.2.06-.25.1-.26s.23.19.23.19l3 7.36s.88 2 2.53 1.19.81-2.44.81-2.44z"/></g><g><path class="cls-2" d="M34.15 53.32l-4-11.86A4.89 4.89 0 0 0 27 38.69a16.68 16.68 0 0 0-2.57-.12h-6.65s-1.71 0-2.58.09c-2.29.27-3.14 2.8-3.14 2.8l-4 11.86s-.61 1.9 1.14 2.36a1.88 1.88 0 0 0 2.27-1.37l3.29-10.16s.14-.65.68-.51.34.84.34.84l-.24.86-3.44 12.32-.17.62h2.93v8.85a2.72 2.72 0 0 0 2.73 2.71 2.73 2.73 0 0 0 2.72-2.71V58.6a1.41 1.41 0 0 1 0-.32h1.63a1.41 1.41 0 0 1 0 .32v8.53a2.71 2.71 0 0 0 .86 2 2.68 2.68 0 0 0 1.85.74 2.71 2.71 0 0 0 2.72-2.71v-8.88h2.94l-.17-.62-3.46-12.32-.25-.86s-.2-.7.34-.84.68.51.68.51l3.3 10.16A1.87 1.87 0 0 0 33 55.68c1.77-.46 1.15-2.36 1.15-2.36zM21.86 36a5.52 5.52 0 1 0-5.5-5.52 5.52 5.52 0 0 0 5.5 5.52z"/></g></svg>