<svg id="TARGETS" xmlns="http://www.w3.org/2000/svg" viewBox="0 0 94.85 94.85" width="94.85" height="94.85"><defs><style>.cls-1{fill:#c5192d}.cls-2{fill:#fff}</style></defs><title>Goal_4_RGB_NG</title><path class="cls-1" d="M0 0h94.85v94.85H0z"/><path class="cls-2" d="M48.14 14.14l8.59 7.69h26.6l-6.53-7.69H57.63A2.72 2.72 0 0 1 56 13.6l-7.85-5.84L31.6 21.87h7.94zM32.37 50.92V23.21h-1v3.43H16.71v-3.37h-1v3.39h-3.19v-3.45h-1V51h1v-2.3h3.15v2.39h1V48.7h14.7v2.22zm-16.7-3.22h-3.15v-2.51h3.15zm0-3.51h-3.15v-2.51h3.15zm0-3.51h-3.15v-2.5h3.15zm0-3.5h-3.15v-2.51h3.15zm0-3.51h-3.15v-2.51h3.15zm0-3.51h-3.15v-2.5h3.15zm15.7 10.29l-6.13-2.81 6.13-2.82zm-12.77.23l5.4-2.49 5.45 2.49zm10.8 1L24 44.14l-5.35-2.46zm-.88-7h.88L24 37.09l-5.31-2.44zm-10-1l5.31-2.44 5.31 2.44H18.55zm12.82-.09l-6.31-2.9 6.31-2.89zm-2.16-5.9l-5.35 2.45-5.35-2.45zm-12.5.27l5.95 2.73-6 2.74zm0 6.9l6.15 2.83-6.16 2.82zm0 7l6.17 2.83-6.18 2.83zm2 5.84L24 45.24l5.4 2.46zm6.55-3l6.13-2.81v5.61zM48.56 51.89H58.6v1.22H48.56z"/><path class="cls-2" d="M55.74 23.29l-7.61-6.95-8.08 7h-6.36v27.78h1.42l8.51-1.91v-10h4.18v9.31h.5v-9.35h4.35v10.51h-4.09v1.44H80.3V23.29zm12.12 3.3h3.22V29h-3.22zm0 2.86h3.22v5.41h-3.22zm-19.81-7a3.63 3.63 0 1 1-3.63 3.63 3.62 3.62 0 0 1 3.63-3.59zm-4.43 16.22v-.8s1.32-1.34 4.52-1.34 4.51 1.34 4.51 1.34v.8zm18.21 6.93h-3.22v-5.39h3.22zm0-5.89h-3.22v-2.39h3.22zm0-4.9h-3.22v-5.36h3.22zm3.72 10.79h-3.22v-5.39h3.22zm0-5.89h-3.22v-2.39h3.22zm0-4.9h-3.22v-5.36h3.22zm0-5.86h-3.22v-2.42h-.5V29h-3.22v-2.47h6.94zm5.53 16.71h-3.22v-5.45h3.22zm3.72 0h-3.22v-5.45h3.22zm0-5.95h-3.22v-2.33h-.5v2.33h-3.22v-2.33h6.94zm0-4.85h-3.22v-5.41h3.22zm0-5.91h-3.22v-2.36h3.22z"/><path class="cls-2" d="M40.58 51.12l-8.8 1.98h15.66v-3.52l-3.82.86-3.04.68zM46.73 27.73a.27.27 0 0 0 .19-.08l1.4-1.44v-2.83a.27.27 0 1 0-.53 0V26l-1.25 1.28a.27.27 0 0 0 0 .38.26.26 0 0 0 .19.07z"/><g><path class="cls-2" d="M82.38 73.43S82 72 80.79 72.05h-4.35a1.06 1.06 0 0 1-.82-.39c-.41-.4-1.64-2.6-1.72-2.66l-.6-1a1 1 0 0 0-.82-.48 1 1 0 0 0-1 1 1.68 1.68 0 0 0 .1.42l3.25 5.86a1.63 1.63 0 0 1 .17.63V76a2.33 2.33 0 0 1-.08.59l-1.33 4.87H75v4.24a1.31 1.31 0 0 0 1.76 1.3 1.33 1.33 0 0 0 .88-1.28v-4a.7.7 0 0 1 0-.16h.79v4.18A1.33 1.33 0 0 0 79.3 87a1.3 1.3 0 0 0 1.7-1.28v-4.24h1.41l-1.86-6.61s-.1-.33.16-.4.33.25.33.25l1.58 4.86a.9.9 0 0 0 1.08.66c.84-.23.55-1.14.55-1.14z"/><path class="cls-2" d="M78.39 70.83a2.64 2.64 0 1 0-2.64-2.65 2.64 2.64 0 0 0 2.64 2.65zM17 70.72a2.6 2.6 0 1 0-2.59-2.6 2.59 2.59 0 0 0 2.59 2.6zM23.23 78.27c0-.11-.78-2-1-2.53-1.57-4-1.83-4-3.25-4H15c-1.42 0-1.68 0-3.24 4-.22.58-1.16 2.82-1.17 2.93s-.39 1 .48 1.26 1.09-.66 1.09-.66l1.6-3.93s0-.08.09-.08.06.08.07.13v10.23A1.34 1.34 0 0 0 15.28 87a1.32 1.32 0 0 0 1.31-1.4v-4.06s-.05-.63.41-.62.4.62.4.62v4.08A1.35 1.35 0 0 0 18.74 87a1.32 1.32 0 0 0 1.3-1.4V75.38c0-.1 0-.12.05-.13s.11.09.11.09l1.44 3.53s.42.94 1.21.57.38-1.17.38-1.17zM65.31 65.38h-5.49a3.07 3.07 0 0 0-2.73 3.05v6.39a.89.89 0 0 0 1.78 0v-5.49c0-.2.06-.48.44-.48s.31.27.32.45v16.44a1.29 1.29 0 0 0 2.57 0v-9.48a.35.35 0 0 1 .37-.37.34.34 0 0 1 .36.37v9.48a1.29 1.29 0 0 0 2.57 0V69.3c0-.18.06-.45.33-.45s.43.28.43.48v5.49a.9.9 0 0 0 1.79 0v-6.39a3.07 3.07 0 0 0-2.74-3.05zM64.32 61.53c-.22-.19-.4-.36-.77-.18s-.33.19-.63.32a6.67 6.67 0 0 1-2.94.59 2.61 2.61 0 0 0 5.19.06 9.23 9.23 0 0 0-.85-.79z"/><path class="cls-2" d="M61.09 61.58a6.08 6.08 0 0 0 1.57-.46c.42-.2.82-.34.82-.34a.89.89 0 0 1 .52-.08.83.83 0 0 1 .23.15l.21.18s.1.09.7.55c.07.06.14.12.18.1s.08-.45.06-.68a3.62 3.62 0 0 0-.84-1.83c-.06 0-.31-.26-.52-.22s-.62-.23-.75-.31a2.33 2.33 0 0 0-2 .32 5.14 5.14 0 0 0-1.78 2.37c-.08.22.31.31.51.32a5.13 5.13 0 0 0 1.09-.07z"/><g><path class="cls-2" d="M52.47 77.56a1.26 1.26 0 0 0-1.32-.56h-2.56v-4a1.69 1.69 0 0 0-1.68-1.69h-.7a1.67 1.67 0 0 0-.39.05l-.27.08-3.39 1.09h-.15a.91.91 0 0 0-.4.48L40.5 76a.93.93 0 0 0 1.75.62l.89-2.51 1.37-.44v4.8a1.65 1.65 0 0 0 .18.74 1.53 1.53 0 0 0 1.42 1H51l2.12 3.67a1.26 1.26 0 0 0 1.72.46h.06a1.27 1.27 0 0 0 .46-1.73z"/><path class="cls-2" d="M50.52 82h-1.44a4.28 4.28 0 1 1-8-2.91L41 79h-.13l-1-.6-.12-.07-.11-.07A6 6 0 1 0 50.78 82h-.26zM46.75 70.36a2.47 2.47 0 1 0-2.46-2.47 2.46 2.46 0 0 0 2.46 2.47z"/></g><g><path class="cls-2" d="M34 66.24h-5.22a3 3 0 0 0-2.69 3v6.15a.86.86 0 0 0 1.72 0v-5.33c0-.2.05-.47.42-.47s.3.27.31.43v15.83a1.24 1.24 0 1 0 2.47 0v-9.12a.33.33 0 0 1 .35-.36.32.32 0 0 1 .34.36v9.12a1.24 1.24 0 0 0 2.48 0V70c0-.16.06-.43.31-.43s.42.27.42.47v5.28a.86.86 0 0 0 1.72 0v-6.13A3 3 0 0 0 34 66.24zM29.09 60.41c-.05-.35-.41-.77-1.18-.4-1 .45-.85 1.86-.85 1.86s0 .21.05.15c.09-.21.31-.57 1.09-.67a1.11 1.11 0 0 0 .4-.13 3.09 3.09 0 0 1 .48-.66c0-.05.01-.09.01-.15zM34.75 60c-.78-.37-1.14.05-1.18.4v.18a3.78 3.78 0 0 1 .44.61 1 1 0 0 0 .44.15c.77.1 1 .46 1.08.67 0 .06 0 0 .06-.15s.11-1.4-.84-1.86zM31.31 60.06A2.64 2.64 0 1 0 34 62.7a2.64 2.64 0 0 0-2.69-2.64z"/></g></g></svg>