<svg id="TARGETS" xmlns="http://www.w3.org/2000/svg" viewBox="0 0 94.85 94.85" width="94.85" height="94.85"><defs><style>.cls-1{fill:#dda63a}.cls-2{fill:none;stroke:#fff;stroke-miterlimit:10}.cls-3{fill:#fff}</style></defs><title>Template_Goal_2_RGB_NG</title><path class="cls-1" d="M0 0h94.85v94.85H0z"/><path class="cls-2" d="M28.25 70.82l.01 10.14"/><path class="cls-3" d="M36.76 66.5h3v.7h-3zM51.76 66.5h3v.7h-3zM61.76 66.5h3v.7h-3zM46.76 66.5h3v.7h-3zM16.76 66.5h3v.7h-3zM66.76 66.5h3v.7h-3zM76.76 66.5h2.8v.7h-2.8zM16.76 52.42h3v.7h-3zM46.76 52.42h3v.7h-3zM61.76 52.42h3v.7h-3zM66.76 52.42h3v.7h-3zM76.76 52.42h2.8v.7h-2.8zM31.76 52.42h3v.7h-3zM21.76 52.42h3v.7h-3zM16.76 38.16h3v.7h-3zM76.76 38.16h2.8v.7h-2.8zM46.76 38.16h3v.7h-3zM61.76 38.16h3v.7h-3zM31.76 38.16h3v.7h-3zM36.76 38.16h3v.7h-3zM21.76 38.16h3v.7h-3zM26.76 38.16h3v.7h-3zM56.76 23.98h3v.7h-3zM61.76 23.98h3v.7h-3zM51.76 23.98h3v.7h-3zM16.76 23.98h3v.7h-3zM46.76 23.98h3v.7h-3zM26.76 23.98h3v.7h-3zM31.76 23.98h3v.7h-3zM41.76 23.98h3v.7h-3zM36.76 23.98h3v.7h-3zM71.76 23.98h3v.7h-3zM66.76 23.98h3v.7h-3zM21.76 23.98h3v.7h-3z"/><path class="cls-3" d="M72 79.42V67.2h2.81v-.7H72V53.12h2.81v-.7h-2.26a5.14 5.14 0 0 0 1.37-.52 2 2 0 0 0 .3-.2 2 2 0 0 0 .67-1 8.94 8.94 0 0 0 .31-2.91l-.31.18a9.22 9.22 0 0 0-2.67 1.89 3.38 3.38 0 0 0-.49 2.06h-.57a3.25 3.25 0 0 0-.49-2.06 8.4 8.4 0 0 0-2.36-1.72l-.62-.35s-.15 2.4.62 3.54a1.35 1.35 0 0 0 .36.39 2 2 0 0 0 .3.2 5.92 5.92 0 0 0 2 .64v26.86H57.12V67.2h2.64v-.7h-2.64v-8.88h-1v21.8H42.93V67.2h1.83v-.7h-3v.7h.17v12.22H15.26V48.89l26.68-8.06 14.23-9.27 25-5.83v-2l-1.65.39V24h-2.8v.7H77l-21.14 4.91-13.14 8.55h-1v.62l-.17.12-26.29 7.94V13.23h-2.2v68.39h68.72v-2.2z"/><path class="cls-3" d="M71.44 39.06s1.46-.76 1.46-1.73c0-1.16-1.44-2.64-1.44-2.65S70 36.21 70 37.33c0 .95 1.12 1.53 1.44 1.73zM69.1 40.75s.36.47 2.07.74c0 0 .18-1.64-.45-2.32a8.7 8.7 0 0 0-2.41-1.69h-.06a6.47 6.47 0 0 0 0 .72h-1.49v.7h1.51a2.7 2.7 0 0 0 0 .28 2.37 2.37 0 0 0 .83 1.57zM71.17 48.83s.27-1.83-.41-2.56c0 0-.36-.72-2.45-2l-.24-.14a7.32 7.32 0 0 0 .24 3.06 1.59 1.59 0 0 0 .55.75s.47.59 2.31.89zM73.79 40.75c1.1-.77.85-3.31.85-3.31a8.75 8.75 0 0 0-2.47 1.73c-.63.68-.45 2.32-.45 2.32 1.71-.27 2.07-.74 2.07-.74zM72.21 42.45c-.68.73-.48 2.52-.48 2.52 1.83-.3 2.22-.81 2.22-.81.74-.52.91-1.79.94-2.67V41v-.39a9.1 9.1 0 0 0-2.68 1.84zM74 48c1.18-.83.78-3.81.78-3.81-2.32 1.34-2.69 2.11-2.69 2.11-.68.73-.4 2.56-.4 2.56A4.05 4.05 0 0 0 74 48zM68.85 34.68v-2.74a.27.27 0 0 0-.54 0v5l.54.31zM69.42 37.07a7.07 7.07 0 0 1 .58-1.33v-4.67a.27.27 0 1 0-.53 0v6zM70.69 34.68l.4-.54v-4.45a.27.27 0 1 0-.54 0v5.18a1.33 1.33 0 0 0 .14-.19zM74.59 37v-5a.27.27 0 1 0-.53 0v5.32zM73.49 37.07v-6a.27.27 0 1 0-.54 0v4.67a6.52 6.52 0 0 1 .54 1.33zM72.35 34.68v-5a.27.27 0 0 0-.54 0v4.45l.4.54.14.19zM71.17 45s.19-1.79-.49-2.52a8.66 8.66 0 0 0-2.37-1.72l-.31-.19a7.45 7.45 0 0 0 0 1.06v.57a4.23 4.23 0 0 0 .25 1 1.94 1.94 0 0 0 .63.91s.45.56 2.29.89zM58.07 41.46c0-1.17-1.44-2.65-1.44-2.65s-1.43 1.53-1.43 2.65c0 .94 1.1 1.53 1.41 1.73 0 0 1.46-.76 1.46-1.73zM54.28 44.87s.36.48 2.06.75c0 0 .18-1.64-.45-2.32a8.44 8.44 0 0 0-2.41-1.69h-.06a7.55 7.55 0 0 0 .06 1.7 2.37 2.37 0 0 0 .8 1.56zM56.34 53s.27-1.83-.4-2.56c0 0-.37-.72-2.46-2l-.24-.14a7.5 7.5 0 0 0 .24 3.06 1.59 1.59 0 0 0 .55.75s.47.55 2.31.89zM56.3 56.71s.23-2-.45-2.74a8.38 8.38 0 0 0-2.37-1.72c-.19-.12-.39-.23-.62-.35v.52h-1.1v.7h1.11a5 5 0 0 0 .61 2.32 1.54 1.54 0 0 0 .37.39 4.91 4.91 0 0 0 2.45.88zM57.35 43.3c-.63.68-.45 2.32-.45 2.32 1.71-.27 2.06-.75 2.06-.75a2.4 2.4 0 0 0 .81-1.66 7.35 7.35 0 0 0 0-1.64 8.53 8.53 0 0 0-2.42 1.73zM57.38 46.58c-.67.73-.48 2.52-.48 2.52 1.84-.3 2.22-.81 2.22-.81a1.89 1.89 0 0 0 .65-.92 7.17 7.17 0 0 0 .23-2.68l-.27.17a8.65 8.65 0 0 0-2.35 1.72zM57.3 50.4c-.67.73-.4 2.56-.4 2.56 1.84-.3 2.31-.86 2.31-.86a1.64 1.64 0 0 0 .56-.78 7.48 7.48 0 0 0 .23-3l-.23.14c-2.1 1.22-2.47 1.94-2.47 1.94zM57.39 54c-.67.73-.45 2.74-.45 2.74a4.91 4.91 0 0 0 2.45-.88 1.46 1.46 0 0 0 .38-.4 7.31 7.31 0 0 0 .61-3.53l-.61.34A8.7 8.7 0 0 0 57.39 54zM54 36.21v-.14a.27.27 0 0 0-.54 0v2.09h-1.7v.7h1.72v2.21l.54.32zM54.59 41.2a6.52 6.52 0 0 1 .54-1.33V35.2a.27.27 0 0 0-.54 0v6zM56.27 38.27v-4.45a.27.27 0 0 0-.54 0V39c.19-.27.39-.54.54-.73zM59.77 41.07v-5a.27.27 0 0 0-.54 0v5.32zM58.66 41.2v-6a.27.27 0 0 0-.54 0v4.67a6.52 6.52 0 0 1 .54 1.33zM57.52 39v-5.18a.27.27 0 1 0-.53 0v4.45zM56.34 49.1s.19-1.79-.48-2.52a8.65 8.65 0 0 0-2.38-1.72l-.28-.17a8.83 8.83 0 0 0 0 1.07v.57a5.35 5.35 0 0 0 .25 1.05 1.89 1.89 0 0 0 .64.91s.41.51 2.25.81zM43.89 50.36c0-1.17-1.44-2.65-1.44-2.65S41 49.24 41 50.36c0 .94 1.1 1.52 1.41 1.73.02 0 1.48-.77 1.48-1.73zM42.16 54.51s.18-1.64-.45-2.31a7.79 7.79 0 0 0-2.14-1.54l-.33-.19a7.55 7.55 0 0 0 .11 2h-2.59v.7h2.82c0 .08.09.16.14.24a1.49 1.49 0 0 0 .38.41s.36.42 2.06.69zM41.76 59.29A5.59 5.59 0 0 0 40 57.73c-.26-.17-.55-.35-.89-.55 0 0-.39 3 .79 3.82a1.41 1.41 0 0 0 .29.22 5.72 5.72 0 0 0 2 .63s.24-1.85-.43-2.56zM42.12 65.6s.23-2-.45-2.74a6.31 6.31 0 0 0-1.51-1.2c-.39-.26-.88-.54-1.48-.86 0 0-.19 3.1 1 3.93a2.74 2.74 0 0 0 .68.39 7.58 7.58 0 0 0 1.76.48zM43.17 52.2c-.63.67-.45 2.31-.45 2.31 1.71-.27 2.07-.74 2.07-.74a3 3 0 0 0 .86-2.25 8.73 8.73 0 0 0 0-.9v-.15a8.49 8.49 0 0 0-2.48 1.73zM43.21 55.47c-.68.74-.49 2.52-.49 2.52 1.84-.29 2.22-.81 2.22-.81a2 2 0 0 0 .71-1.1 7.54 7.54 0 0 0 .21-2.49l-.21.13a8.61 8.61 0 0 0-2.44 1.75zM43.12 59.29c-.67.74-.4 2.56-.4 2.56C44.56 61.56 45 61 45 61a1.83 1.83 0 0 0 .62-.93 8 8 0 0 0 .17-2.89l-.17.11c-2.13 1.27-2.5 2-2.5 2zM43.21 62.86c-.67.74-.44 2.74-.44 2.74a4.84 4.84 0 0 0 2.44-.87 1.57 1.57 0 0 0 .44-.51 7.59 7.59 0 0 0 .55-3.42l-.55.3a8.89 8.89 0 0 0-2.44 1.76zM39.84 45a.27.27 0 0 0-.54 0v5l.24.14.3.17zM40.41 50.08a7 7 0 0 1 .59-1.32V44.1a.27.27 0 0 0-.54 0zM42.09 47.17v-4.45a.27.27 0 1 0-.54 0v5.18c.2-.27.39-.54.54-.73zM45.59 45a.27.27 0 0 0-.54 0v5.32l.54-.31zM43.94 48.76a7 7 0 0 1 .54 1.33v-6a.29.29 0 0 0-.07-.19.28.28 0 0 0-.2-.08.27.27 0 0 0-.19.08.26.26 0 0 0-.08.19zM43.35 47.9v-5.18a.28.28 0 0 0-.27-.27.27.27 0 0 0-.27.27v4.45z"/><path class="cls-3" d="M42.16 58s.19-1.78-.48-2.52A7.07 7.07 0 0 0 39.75 54l-.75-.41a8.83 8.83 0 0 0 0 1.07l.05.56a2.84 2.84 0 0 0 .86 2s.42.48 2.25.78zM29.7 54.66c0-1.16-1.43-2.65-1.43-2.65s-1.44 1.53-1.44 2.65c0 1 1.1 1.53 1.42 1.73 0 0 1.45-.76 1.45-1.73zM25.91 58.08s.36.47 2.07.74c0 0 .18-1.64-.45-2.32a8.7 8.7 0 0 0-2.41-1.69h-.06a7.47 7.47 0 0 0 .06 1.69 2.37 2.37 0 0 0 .79 1.58zM28 66.16s.28-1.83-.4-2.56c0 0-.36-.71-2.45-2l-.24-.15a7.37 7.37 0 0 0 .24 3.07 1.67 1.67 0 0 0 .54.75 4 4 0 0 0 2.31.89zM27.93 69.91s.23-2-.45-2.74a8.4 8.4 0 0 0-2.36-1.72l-.62-.35a11.08 11.08 0 0 0 0 1.4h-2.74v.7h2.85a3.84 3.84 0 0 0 .51 1.45 1.45 1.45 0 0 0 .36.38 5 5 0 0 0 2.45.88zM29 56.5c-.63.68-.45 2.32-.45 2.32 1.71-.27 2.07-.74 2.07-.74.76-.53.87-1.89.88-2.69a5.44 5.44 0 0 0 0-.61A8.66 8.66 0 0 0 29 56.5zM29 59.78c-.68.73-.48 2.52-.48 2.52 1.83-.3 2.22-.81 2.22-.81a2.11 2.11 0 0 0 .72-1.14 7.8 7.8 0 0 0 .2-2.45l-.2.12A8.69 8.69 0 0 0 29 59.78zM28.94 63.6c-.68.73-.4 2.56-.4 2.56a4 4 0 0 0 2.31-.85 1.88 1.88 0 0 0 .63-1 8 8 0 0 0 .15-2.84l-.15.09c-2.17 1.31-2.54 2.04-2.54 2.04zM29 67.17c-.68.73-.45 2.74-.45 2.74A5 5 0 0 0 31 69a1.65 1.65 0 0 0 .45-.52 4.11 4.11 0 0 0 .42-1.31h2.86v-.7H32a11.08 11.08 0 0 0 0-1.4l-.53.3a8.71 8.71 0 0 0-2.47 1.8zM25.66 49.27a.27.27 0 0 0-.54 0v5l.54.31zM26.49 48.13a.28.28 0 0 0-.27.27v6a7.65 7.65 0 0 1 .53-1.33V48.4a.27.27 0 0 0-.26-.27zM27.9 51.47V47a.27.27 0 0 0-.54 0v5.19zM31.4 49.27a.27.27 0 0 0-.26-.27.28.28 0 0 0-.28.27v5.32l.54-.31zM30.3 54.39v-6a.27.27 0 1 0-.54 0v4.67a7 7 0 0 1 .54 1.33zM29.16 52.21V47a.27.27 0 0 0-.54 0v4.45zM28 62.3s.2-1.79-.48-2.52a8.56 8.56 0 0 0-2.37-1.71l-.28-.17a7.45 7.45 0 0 0 0 1.06l.05.57a4.23 4.23 0 0 0 .25 1 1.94 1.94 0 0 0 .63.91s.34.56 2.2.86z"/></svg>