<svg id="TARGETS" xmlns="http://www.w3.org/2000/svg" viewBox="0 0 94.85 94.85" width="94.85" height="94.85"><defs><style>.cls-1{fill:#dd1367}.cls-2{fill:#fff}</style></defs><title>Goal_10_RGB_NG</title><path class="cls-1" d="M0 0h94.85v94.85H0z"/><path class="cls-2" d="M64.84 35.15c7.33 0 13.28-2.21 13.28-4.93 0 0 .15-2.53.11-3.07a3.17 3.17 0 0 0-.23-1 3 3 0 0 0 1.5-2.24s.12-2.82.07-3.37c-.36-3.32-7.06-5.11-13.36-5.11-6.5 0-13.4 1.9-13.4 5.41 0 .17.12 3.07.12 3.07a2.07 2.07 0 0 0 .16.59 3.38 3.38 0 0 0-1.67 2.7c0 .16.13 3.07.13 3.07a2.6 2.6 0 0 0 1.05 1.92c1.34 1.18 3.89 2.12 7.06 2.62a33.57 33.57 0 0 0 5.18.34zm1.37-18.38c7.08 0 12 2.12 12 4s-4.93 4-12 4-12-2.12-12-4 4.92-4 12-4zm-13.4 10.38a2.17 2.17 0 0 1 1-1.52 6.74 6.74 0 0 0 1.35 1c2.39 1.31 6.43 2.17 11 2.17a28 28 0 0 0 9.39-1.44 12.59 12.59 0 0 0 1.16-.52 1.14 1.14 0 0 1 .07.32c0 1.9-4.93 4-12 4s-11.97-2.11-11.97-4.01z"/><path class="cls-2" d="M79.5 32.45a1.44 1.44 0 0 0-.33-.53 2.49 2.49 0 0 0-.34-.29 2.84 2.84 0 0 0-.55-.31 3 3 0 0 1-.6.79 3.21 3.21 0 0 1 .52.28 1.27 1.27 0 0 1 .63 1 1.13 1.13 0 0 1-.48.88 4.51 4.51 0 0 1-.51.38s-.55.32-.77.43c-.07 0-.81.37-1.16.5-.06 0-.83.28-1.19.38-.12 0-1.16.29-1.58.37-.1 0-1.41.25-2 .33-.15 0-1.52.16-2.08.2-.21 0-2.2.13-3.06.14a29.37 29.37 0 0 1-4.24-.31c-1-.15-2-.34-3-.56a18.51 18.51 0 0 1-3.18-1A5.71 5.71 0 0 1 53.91 34a5.42 5.42 0 0 1-1-1.39V35.97a2.62 2.62 0 0 0 1 1.92c1.41 1.2 3.95 2.11 7.09 2.65a34.87 34.87 0 0 0 5.17.38 31.23 31.23 0 0 0 7.44-.84h.08a14.52 14.52 0 0 0 3.76-1.47 6.05 6.05 0 0 0 .83-.58 3.24 3.24 0 0 0 1-1.29 1.9 1.9 0 0 0 .14-.7s.11-2.8.11-2.86a1.49 1.49 0 0 0-.03-.73zM78 44.15a10.87 10.87 0 0 1-3 1.29 29.48 29.48 0 0 1-9 1.13 35.1 35.1 0 0 1-4.5-.35 25.38 25.38 0 0 1-2.73-.52c-.47-.11-.93-.23-1.35-.36a11.22 11.22 0 0 1-3.53-1.7 3.81 3.81 0 0 1-1-1v2.96a2.61 2.61 0 0 0 1 1.91c1.34 1.18 3.89 2.13 7.07 2.63a33.48 33.48 0 0 0 5.17.38 31.23 31.23 0 0 0 7.44-.84h.08a14.52 14.52 0 0 0 3.76-1.47c1.24-.74 2-1.62 2-2.56 0 0 .11-2.7.07-2.93A5.76 5.76 0 0 1 78 44.15z"/><path class="cls-2" d="M53.88 42.71c1.34 1.17 3.89 2.12 7.06 2.62a33.57 33.57 0 0 0 5.18.39 31.33 31.33 0 0 0 7.44-.85h.08a14.44 14.44 0 0 0 3.75-1.47 8.05 8.05 0 0 0 .83-.59 3.35 3.35 0 0 0 1-1.29 2.1 2.1 0 0 0 .13-.69s.08-2.72.07-2.93c-.45.56-1.59 2.3-6.83 3.37a39.42 39.42 0 0 1-6.77.58c-4.24-.09-8.65-.85-10.62-2.08a9 9 0 0 1-1.68-1.14 7.17 7.17 0 0 1-.81-1v3.26a2.59 2.59 0 0 0 1.17 1.82zM79.63 52.15A6 6 0 0 1 78 53.68 10.64 10.64 0 0 1 75.11 55 29.53 29.53 0 0 1 66 56.1a35.1 35.1 0 0 1-4.5-.35 24.92 24.92 0 0 1-2.73-.52q-.72-.16-1.35-.36a11.26 11.26 0 0 1-3.54-1.7 4.13 4.13 0 0 1-1-1.05v1.18c0 .33.05 1.78.05 1.78A2.58 2.58 0 0 0 54 57c1.34 1.18 3.89 2.13 7.06 2.63a33.61 33.61 0 0 0 5.18.38 31.36 31.36 0 0 0 7.44-.84h.08a14.44 14.44 0 0 0 3.75-1.47c1.23-.74 2-1.62 2-2.56.05-.06.15-2.76.12-2.99z"/><path class="cls-2" d="M61 54.86a33.53 33.53 0 0 0 5.17.39 31.2 31.2 0 0 0 7.44-.85h.08a14.52 14.52 0 0 0 3.76-1.47 7.1 7.1 0 0 0 .83-.59 3.17 3.17 0 0 0 1-1.29 1.89 1.89 0 0 0 .14-.69s.08-2.72.06-2.93c-.44.56-1.58 2.3-6.82 3.37a40.43 40.43 0 0 1-6.77.59c-4.25-.09-8.66-.86-10.63-2.09a8.44 8.44 0 0 1-1.67-1.14 7.17 7.17 0 0 1-.81-1v3.26a2.61 2.61 0 0 0 1 1.87c1.51 1.13 4.05 2.07 7.22 2.57zM78.15 63.2a11.29 11.29 0 0 1-2.91 1.29 29.87 29.87 0 0 1-9.08 1.12 36.84 36.84 0 0 1-4.5-.34 27.5 27.5 0 0 1-2.73-.53q-.72-.17-1.35-.36a11.36 11.36 0 0 1-3.58-1.7 3.93 3.93 0 0 1-1-1v2.96a2.6 2.6 0 0 0 1.05 1.92c1.34 1.17 3.89 2.12 7.07 2.62a33.44 33.44 0 0 0 5.17.39 31.33 31.33 0 0 0 7.44-.85h.08a14.44 14.44 0 0 0 3.75-1.47c1.24-.75 2-1.63 2-2.57 0 0 .1-2.7.07-2.93a5.83 5.83 0 0 1-1.48 1.45z"/><path class="cls-2" d="M54.07 61.75c1.35 1.18 3.89 2.12 7.07 2.62a33.53 33.53 0 0 0 5.17.39 30.7 30.7 0 0 0 7.44-.85h.08a14.52 14.52 0 0 0 3.76-1.47 6.64 6.64 0 0 0 .82-.59 3.22 3.22 0 0 0 1-1.29 2.06 2.06 0 0 0 .13-.69s.08-2.72.07-2.93c-.45.56-1.59 2.3-6.83 3.37a40.32 40.32 0 0 1-6.77.59c-4.24-.09-8.66-.86-10.63-2.09a8.44 8.44 0 0 1-1.67-1.14 6.76 6.76 0 0 1-.81-1V58l.1 1.88a2.61 2.61 0 0 0 1.07 1.87zM79.83 71.19a6.16 6.16 0 0 1-1.61 1.54A11.22 11.22 0 0 1 75.3 74a29.77 29.77 0 0 1-9.07 1.13 39.14 39.14 0 0 1-4.5-.35 27.71 27.71 0 0 1-2.73-.51c-.47-.11-.92-.23-1.34-.36a11 11 0 0 1-3.54-1.7 4.13 4.13 0 0 1-1-1v2.96a2.62 2.62 0 0 0 1 1.92c1.35 1.18 3.89 2.12 7.07 2.62a33.53 33.53 0 0 0 5.17.39 31.2 31.2 0 0 0 7.44-.85h.08a14.52 14.52 0 0 0 3.76-1.47c1.23-.75 2-1.63 2-2.57.12-.09.22-2.79.19-3.02z"/><path class="cls-2" d="M61.21 73.9a33.53 33.53 0 0 0 5.17.39 30.7 30.7 0 0 0 7.44-.85h.08A14.9 14.9 0 0 0 77.66 72a6.08 6.08 0 0 0 .83-.59 3.19 3.19 0 0 0 1-1.29 1.84 1.84 0 0 0 .13-.69s.08-2.72.07-2.93c-.44.56-1.58 2.3-6.82 3.37a40.46 40.46 0 0 1-6.78.59c-4.24-.09-8.65-.86-10.62-2.09a8.44 8.44 0 0 1-1.67-1.14 6.1 6.1 0 0 1-.81-1v1.33l.05 1.92a2.61 2.61 0 0 0 1 1.87c1.44 1.11 3.96 2.05 7.17 2.55z"/><g><path class="cls-2" d="M28.59 73.73c7.33 0 13.28-2.2 13.28-4.93 0 0 .15-2.53.11-3.07a3.28 3.28 0 0 0-.23-1 3 3 0 0 0 1.5-2.24s.12-2.82.07-3.37C43 55.75 36.26 54 30 54c-6.5 0-13.4 1.9-13.4 5.41 0 .17.12 3.07.12 3.07a2 2 0 0 0 .16.59 3.41 3.41 0 0 0-1.67 2.7c0 .17.13 3.07.13 3.07a2.6 2.6 0 0 0 1.05 1.92c1.34 1.18 3.89 2.13 7.06 2.63a34.91 34.91 0 0 0 5.14.34zM30 55.35c7.08 0 12 2.12 12 4s-4.93 4-12 4-12-2.12-12-4 4.88-4 12-4zM16.56 65.73a2.15 2.15 0 0 1 1-1.51 6.72 6.72 0 0 0 1.35 1c2.39 1.31 6.43 2.17 11 2.17a28 28 0 0 0 9.39-1.44 12.59 12.59 0 0 0 1.16-.52 1.32 1.32 0 0 1 .07.32c0 1.9-4.93 4-12 4s-11.97-2.12-11.97-4.02z"/><path class="cls-2" d="M43.25 71a1.37 1.37 0 0 0-.33-.52 2.42 2.42 0 0 0-.89-.6 3 3 0 0 1-.6.78A2.82 2.82 0 0 1 42 71a1.24 1.24 0 0 1 .63 1 1.13 1.13 0 0 1-.48.88 6.11 6.11 0 0 1-.51.39l-.77.42c-.07 0-.81.38-1.16.51-.06 0-.83.27-1.19.37-.12 0-1.16.29-1.58.38-.1 0-1.41.25-2 .33l-2.08.2c-.21 0-2.2.12-3.06.13a28 28 0 0 1-4.24-.31c-1-.14-2.05-.33-3-.56a18.51 18.51 0 0 1-3.18-1 5.34 5.34 0 0 1-1.64-1.13 5.55 5.55 0 0 1-1.05-1.38v1.74l.05 1.62a2.62 2.62 0 0 0 1 1.92c1.35 1.18 3.89 2.12 7.07 2.62a33.53 33.53 0 0 0 5.17.39 31.2 31.2 0 0 0 7.44-.85h.08a14.52 14.52 0 0 0 3.76-1.47 7.1 7.1 0 0 0 .83-.59 3.17 3.17 0 0 0 1-1.29 1.89 1.89 0 0 0 .14-.69s.11-2.81.11-2.87a1.56 1.56 0 0 0-.09-.76z"/></g><path class="cls-2" d="M29 16l8.52 10.82a.53.53 0 0 1 .12.46c-.06.24-.21.32-.53.32h-4.27v19.17a.4.4 0 0 1-.44.37H25a.41.41 0 0 1-.45-.37V27.62h-4.3c-.32 0-.47-.08-.53-.33a.51.51 0 0 1 .12-.45L28 16.09a.6.6 0 0 1 1-.09z"/></svg>