<svg id="TARGETS" xmlns="http://www.w3.org/2000/svg" viewBox="0 0 94.85 94.85" width="94.85" height="94.85"><defs><style>.cls-1{fill:#dd1367}.cls-2{fill:#fff}</style></defs><title>Goal_10_RGB_NG</title><path class="cls-1" d="M0 0h94.85v94.85H0z"/><rect class="cls-2" x="56.79" y="26.65" width="26.02" height="1.9" rx=".44" ry=".44"/><rect class="cls-2" x="56.79" y="45.57" width="26.02" height="2.91" rx=".44" ry=".44"/><path class="cls-2" d="M57.23 25.43H82.4a.41.41 0 0 0 .37-.41v-.2a13.25 13.25 0 0 0-25.85 0 .47.47 0 0 0 0 .17.41.41 0 0 0 .31.44zM81.62 44.39a.43.43 0 0 0 .44-.44V30.33a.44.44 0 0 0-.44-.44H58.17a.45.45 0 0 0-.45.44V44a.44.44 0 0 0 .45.44zm-6.81-12.66h4v10.82h-4zm-6.8 0h4v10.82H68zm-6.75 0h4v10.82h-4z"/><path class="cls-2" d="M71.26 12.82a3.75 3.75 0 0 1 2.48.89 4.37 4.37 0 0 0 2.16.71h1.9v-4.8H76a4.33 4.33 0 0 1-2.89-1.15A3.82 3.82 0 0 0 71 7.93h-1.23v4.83a7.14 7.14 0 0 1 1.49.06z"/><g><path class="cls-2" d="M17.45 61.67a2.56 2.56 0 0 0 1.23-4.8.83.83 0 0 0 .15-.45 1.18 1.18 0 0 0-1.29-1 1.18 1.18 0 0 0-1.29 1 .82.82 0 0 0 .09.38 2.56 2.56 0 0 0 1.11 4.87zM24.75 71l-2.13-6.9s-.76-2-2.45-2h-5.44c-1.68 0-2.45 2-2.45 2L10.15 71s-.3 1.07.48 1.49a.24.24 0 0 0-.06.1L8.07 85.7a.4.4 0 0 0 .31.46h.08a.4.4 0 0 0 .39-.32l2.5-13.08v-.11c.69-.1.92-1 .92-1L14 65.92s.09-.45.43-.35.21.57.21.57L11.62 77h2.78v7.78a1.34 1.34 0 0 0 2.67 0V77h.76v7.78a1.34 1.34 0 0 0 2.67 0V77h2.79l-3-10.85s-.13-.48.2-.57.43.35.43.35l1.72 5.79s.33 1.24 1.4.92.71-1.64.71-1.64zM45.34 61.3a2.53 2.53 0 1 0-2.53-2.52 2.52 2.52 0 0 0 2.53 2.52zM52.52 71.32l-2.1-6.82s-.75-2-2.41-2h-5.35c-1.66 0-2.41 2-2.41 2l-2.09 6.82s-.38 1.26.68 1.57 1.38-.89 1.38-.89l1.69-5.7s.09-.44.42-.34.21.56.21.56L39.6 77.18h2.73v7.65a1.32 1.32 0 0 0 2.63 0v-7.65h.75v7.65a1.32 1.32 0 0 0 2.63 0v-7.65h2.74L48.14 66.5s-.13-.47.2-.56.42.34.42.34L50.45 72s.32 1.22 1.38.91.69-1.59.69-1.59zM35.78 71.47a.79.79 0 0 0-1.06.35 21.17 21.17 0 0 1-1.34 2.05.86.86 0 0 1-.66.31h-2.56a.84.84 0 0 1-.65-.31c-.33-.32-1.31-2.08-1.37-2.13a.75.75 0 0 0-.66-.36.77.77 0 0 0-.77.77 1.56 1.56 0 0 0 .07.34l2.13 3.85a1.4 1.4 0 0 1 .13.51v.58a2.37 2.37 0 0 1-.1.64l-1 4.05H29v3a1 1 0 0 0 2.08 0v-2.87a.47.47 0 0 1 0-.13h.63v3a1 1 0 1 0 2.08 0v-3H35l-1-4a3.38 3.38 0 0 1-.09-.53V76.9a1.4 1.4 0 0 1 .13-.51l2-3.56.18-.37a.68.68 0 0 0-.44-.99z"/><path class="cls-2" d="M31.44 72.85a2.12 2.12 0 1 0-2.11-2.12 2.11 2.11 0 0 0 2.11 2.12z"/><g><path class="cls-2" d="M62.26 68.18a2.42 2.42 0 1 0-2.42-2.42 2.42 2.42 0 0 0 2.42 2.42zM72.37 83.08l-1-2-2.41-4.79a1.17 1.17 0 0 0-1.16-.64h-3.48l-.06-4.32c0-1.31-.34-2.07-1.36-2.34a5.25 5.25 0 0 0-1.49 0h-.12l-4.07 1.31H57a1.05 1.05 0 0 0-.45.54l-1.16 3.26a1 1 0 0 0 1.93.69l1-2.79 1.52-.49h.06v4.55c0 1 .34 2.07 1.35 2.34l.33.09a2.46 2.46 0 0 0 .53 0h5.11l1.35 2.63v.08l.49.93.46.92v.08l.51 1a1.28 1.28 0 0 0 2.27-1.18z"/><path class="cls-2" d="M64.94 80.2a2 2 0 0 1 0 .25 4.91 4.91 0 1 1-8.77-3l-1.23-1a6.47 6.47 0 1 0 11.56 4v-.25z"/></g><g><path class="cls-2" d="M78.57 60.48A2.62 2.62 0 1 0 76 57.86a2.61 2.61 0 0 0 2.57 2.62zM81.62 61.49H75.52A3.48 3.48 0 0 0 72.35 65v7.25a1 1 0 0 0 2 0V66c0-.23.06-.55.49-.55s.36.31.37.51V84.6a1.46 1.46 0 1 0 2.91 0V73.85a.4.4 0 0 1 .42-.43.39.39 0 0 1 .41.43V84.6a1.46 1.46 0 0 0 2.92 0V65.94c0-.2.07-.51.37-.51s.49.32.49.55v6.23a1 1 0 0 0 2 0V65a3.48 3.48 0 0 0-3.11-3.51z"/></g></g><g><path class="cls-2" d="M26.93 45.8a6.57 6.57 0 0 1-1.72.77 17.42 17.42 0 0 1-5.36.66 22.76 22.76 0 0 1-2.66-.2c-.6-.09-1.05-.18-1.61-.31-.28-.07-.54-.14-.79-.22a6.56 6.56 0 0 1-2.09-1 2.49 2.49 0 0 1-.59-.62v1.75a1.54 1.54 0 0 0 .62 1.13 8.74 8.74 0 0 0 4.17 1.55 20.81 20.81 0 0 0 3.06.23 18.61 18.61 0 0 0 4.39-.5h.05a8.43 8.43 0 0 0 2.22-.86c.73-.44 1.16-1 1.16-1.51 0 0 .06-1.59 0-1.73a3.4 3.4 0 0 1-.85.86zM19.23 40.49c4.33 0 7.84-1.3 7.84-2.91 0 0 .09-1.5.06-1.82a1.72 1.72 0 0 0-.13-.62 1.73 1.73 0 0 0 .88-1.32s.08-1.66 0-2c-.21-2-4.16-3-7.88-3s-7.88 1.12-7.88 3.18c0 .1.08 1.81.08 1.81a1.39 1.39 0 0 0 .09.35 2 2 0 0 0-1 1.59c0 .1.07 1.82.07 1.82a1.54 1.54 0 0 0 .64 1.14 8.64 8.64 0 0 0 4.17 1.55 19.53 19.53 0 0 0 3.06.23zM20 29.63c4.18 0 7.09 1.26 7.09 2.38s-2.87 2.37-7.09 2.37-7.1-1.25-7.1-2.37 2.95-2.38 7.1-2.38zm-7.91 6.13a1.27 1.27 0 0 1 .61-.89 3.67 3.67 0 0 0 .8.58 14.36 14.36 0 0 0 6.5 1.28 16.48 16.48 0 0 0 5.55-.85c.25-.09.46-.2.68-.3a.58.58 0 0 1 0 .18c0 1.13-2.91 2.38-7.09 2.38s-7.01-1.25-7.01-2.38z"/><path class="cls-2" d="M16.89 46.5a19.49 19.49 0 0 0 3.05.23 18.54 18.54 0 0 0 4.39-.5h.05a8.29 8.29 0 0 0 2.22-.86 4.69 4.69 0 0 0 .49-.34 2.12 2.12 0 0 0 .59-.76 1.19 1.19 0 0 0 .08-.41v-1.73c-.26.33-.93 1.36-4 2a23.68 23.68 0 0 1-4 .34c-2.51-.05-5.11-.5-6.28-1.23a4.82 4.82 0 0 1-1-.67 3.53 3.53 0 0 1-.48-.59v1.92a1.54 1.54 0 0 0 .62 1.1 8.7 8.7 0 0 0 4.27 1.5z"/><path class="cls-2" d="M27.69 38.58a1.64 1.64 0 0 0-.2-.17 2 2 0 0 0-.33-.18 1.87 1.87 0 0 1-.35.46 2.26 2.26 0 0 1 .31.17.76.76 0 0 1 .37.6.71.71 0 0 1-.28.52 2.78 2.78 0 0 1-.31.23l-.45.25s-.48.22-.69.3l-.7.22-.93.22c-.06 0-.83.15-1.2.19-.09 0-.9.1-1.23.12-.12 0-1.29.08-1.81.08a16.76 16.76 0 0 1-2.5-.18c-.6-.09-1.21-.2-1.77-.33a11.53 11.53 0 0 1-1.88-.59 3.48 3.48 0 0 1-1-.67 3.24 3.24 0 0 1-.61-.82v2a1.52 1.52 0 0 0 .61 1.13A8.78 8.78 0 0 0 17 43.67a19.39 19.39 0 0 0 3 .23 18.54 18.54 0 0 0 4.39-.5h.05a8.43 8.43 0 0 0 2.22-.86 3.23 3.23 0 0 0 .49-.34 1.92 1.92 0 0 0 .59-.76 1.19 1.19 0 0 0 .08-.41s.07-1.66.07-1.7a.81.81 0 0 0-.07-.39.84.84 0 0 0-.13-.36zM37.29 34.82c4.33 0 7.84-1.3 7.84-2.91 0 0 .09-1.49.06-1.81a1.72 1.72 0 0 0-.13-.62 1.76 1.76 0 0 0 .94-1.32s.07-1.67 0-2c-.21-2-4.16-3-7.88-3s-7.92 1.12-7.92 3.19c0 .1.08 1.82.08 1.82a1.5 1.5 0 0 0 .09.35 2 2 0 0 0-1 1.59c0 .1.07 1.81.07 1.81a1.56 1.56 0 0 0 .62 1.14 8.75 8.75 0 0 0 4.17 1.54 19.53 19.53 0 0 0 3.06.22zM38.1 24c4.18 0 7.09 1.25 7.09 2.37s-2.91 2.38-7.09 2.38-7.1-1.28-7.1-2.41S33.91 24 38.1 24zm-7.91 6.1a1.31 1.31 0 0 1 .61-.9 3.69 3.69 0 0 0 .8.59 14.52 14.52 0 0 0 6.5 1.28 16.73 16.73 0 0 0 5.55-.85c.25-.1.46-.21.68-.31a.65.65 0 0 1 0 .19c0 1.12-2.91 2.37-7.09 2.37s-7.05-1.25-7.05-2.37z"/><path class="cls-2" d="M46 33.23a1 1 0 0 0-.2-.31 1.23 1.23 0 0 0-.2-.18l-.32-.18a2 2 0 0 1-.36.47 1.47 1.47 0 0 1 .31.17.75.75 0 0 1 .37.6.71.71 0 0 1-.28.51 2.78 2.78 0 0 1-.31.23s-.32.19-.45.25-.48.22-.69.3l-.7.22-.93.22c-.06 0-.83.15-1.2.2l-1.23.12c-.12 0-1.29.07-1.81.08a16.89 16.89 0 0 1-2.5-.19 16.31 16.31 0 0 1-1.77-.33 10.57 10.57 0 0 1-1.88-.59 3.49 3.49 0 0 1-1-.66 3.64 3.64 0 0 1-.61-.82v2a1.54 1.54 0 0 0 .61 1.13 8.68 8.68 0 0 0 4.2 1.53 19.39 19.39 0 0 0 3.05.23 18 18 0 0 0 4.39-.5 8.42 8.42 0 0 0 2.22-.87 3.25 3.25 0 0 0 .49-.35 1.85 1.85 0 0 0 .59-.76 1.15 1.15 0 0 0 .08-.41s.07-1.65.07-1.69a1.06 1.06 0 0 0 .06-.42zM45 40.14a6.6 6.6 0 0 1-1.72.76 17.66 17.66 0 0 1-5.36.67 20.93 20.93 0 0 1-2.66-.21 15.82 15.82 0 0 1-1.61-.31c-.28-.06-.55-.14-.79-.21a6.41 6.41 0 0 1-2.09-1 2.19 2.19 0 0 1-.59-.62v1.75a1.54 1.54 0 0 0 .62 1.13 8.64 8.64 0 0 0 4.2 1.54 19.53 19.53 0 0 0 3.06.23 18.1 18.1 0 0 0 4.39-.5 8.55 8.55 0 0 0 2.21-.87c.73-.45 1.16-1 1.16-1.52 0 0 .06-1.59 0-1.73a3.38 3.38 0 0 1-.82.89z"/><path class="cls-2" d="M30.82 39.28A8.59 8.59 0 0 0 35 40.83a19.49 19.49 0 0 0 3 .23 18 18 0 0 0 4.39-.5 8.28 8.28 0 0 0 2.22-.87 4.73 4.73 0 0 0 .49-.35 2 2 0 0 0 .59-.76 1.14 1.14 0 0 0 .07-.41v-1.73c-.26.33-.93 1.36-4 2a23.56 23.56 0 0 1-4 .35c-2.51-.06-5.11-.51-6.28-1.23a5.29 5.29 0 0 1-1-.68 3.53 3.53 0 0 1-.48-.59v1.92a1.52 1.52 0 0 0 .82 1.07zM46 44.86a3.53 3.53 0 0 1-1 .91 7 7 0 0 1-1.72.76 17.42 17.42 0 0 1-5.36.66 22.76 22.76 0 0 1-2.66-.2c-.6-.09-1-.18-1.61-.31l-.79-.21a6.75 6.75 0 0 1-2.09-1 2.49 2.49 0 0 1-.59-.62v1.75a1.54 1.54 0 0 0 .62 1.13 8.74 8.74 0 0 0 4.17 1.55 19.53 19.53 0 0 0 3.06.23 18.61 18.61 0 0 0 4.39-.5 8.22 8.22 0 0 0 2.21-.86c.73-.44 1.16-1 1.16-1.51.21-.05.21-1.64.21-1.78z"/><path class="cls-2" d="M35 46.46a19.49 19.49 0 0 0 3 .23 18.54 18.54 0 0 0 4.39-.5h.05a8.63 8.63 0 0 0 2.22-.87 3.69 3.69 0 0 0 .48-.34 2.05 2.05 0 0 0 .6-.76 1.18 1.18 0 0 0 .07-.41v-1.73c-.26.33-.93 1.36-4 2a23.45 23.45 0 0 1-4 .34c-2.51-.05-5.11-.5-6.28-1.23a4.82 4.82 0 0 1-1-.67 3.53 3.53 0 0 1-.48-.59v1.92a1.55 1.55 0 0 0 .61 1.1A8.78 8.78 0 0 0 35 46.46z"/></g></svg>