<svg id="TARGETS" xmlns="http://www.w3.org/2000/svg" viewBox="0 0 94.85 94.85" width="94.85" height="94.85"><defs><style>.cls-1{fill:#e5243b}.cls-2{fill:#fff}</style></defs><title>Goal_1_RGB_NG</title><path class="cls-1" d="M0 0h94.85v94.85H0z"/><path class="cls-2" d="M69.7 32.23a5.46 5.46 0 0 1-1.37.61 13.75 13.75 0 0 1-4.25.52A16.85 16.85 0 0 1 62 33.2c-.48-.07-.84-.14-1.28-.24l-.64-.17A5.09 5.09 0 0 1 58.4 32a1.83 1.83 0 0 1-.47-.49v1.38a1.23 1.23 0 0 0 .49.9A6.84 6.84 0 0 0 61.77 35a15.27 15.27 0 0 0 2.42.18 14.59 14.59 0 0 0 3.49-.39 6.8 6.8 0 0 0 1.76-.69c.58-.35.92-.76.92-1.21v-1.37a2.52 2.52 0 0 1-.66.71zM63.58 28c3.44 0 6.23-1 6.23-2.31 0 0 .07-1.19 0-1.44a1.42 1.42 0 0 0-.11-.5 1.37 1.37 0 0 0 .71-1s.05-1.33 0-1.59c-.17-1.55-3.31-2.39-6.27-2.39s-6.28.89-6.28 2.53c0 .08.06 1.45.06 1.45a.9.9 0 0 0 .07.27 1.6 1.6 0 0 0-.78 1.27c0 .07.06 1.44.06 1.44a1.25 1.25 0 0 0 .49.9 7 7 0 0 0 3.32 1.23 16.55 16.55 0 0 0 2.5.14zm.64-8.62c3.32 0 5.64 1 5.64 1.88s-2.32 1.89-5.64 1.89-5.63-1-5.63-1.89 2.31-1.87 5.63-1.87zm-6.28 4.87a1 1 0 0 1 .49-.71 2.93 2.93 0 0 0 .63.46 11.57 11.57 0 0 0 5.17 1 13.08 13.08 0 0 0 4.4-.68 5.46 5.46 0 0 0 .54-.24.42.42 0 0 1 0 .15c0 .89-2.31 1.88-5.63 1.88s-5.6-.96-5.6-1.85z"/><path class="cls-2" d="M61.72 32.78a15.5 15.5 0 0 0 2.43.18 14.65 14.65 0 0 0 3.49-.39 6.88 6.88 0 0 0 1.77-.69 3.89 3.89 0 0 0 .39-.28 1.7 1.7 0 0 0 .47-.6 1 1 0 0 0 .06-.33V29.3c-.21.26-.74 1.08-3.2 1.58a18 18 0 0 1-3.18.27 11.78 11.78 0 0 1-5-1 3.84 3.84 0 0 1-.78-.54 2.57 2.57 0 0 1-.38-.47v1.53a1.19 1.19 0 0 0 .49.87 6.9 6.9 0 0 0 3.44 1.24z"/><path class="cls-2" d="M70.3 26.5a.57.57 0 0 0-.16-.14.92.92 0 0 0-.26-.14 1.57 1.57 0 0 1-.28.36 1.17 1.17 0 0 1 .25.14.6.6 0 0 1 .29.47.53.53 0 0 1-.22.41l-.24.19-.36.19s-.38.18-.55.24l-.55.18-.75.17-1 .16-1 .09-1.44.07a15.1 15.1 0 0 1-2-.15c-.48-.07-1-.16-1.4-.26a9.48 9.48 0 0 1-1.5-.47 2.72 2.72 0 0 1-.76-.53 2.82 2.82 0 0 1-.5-.65V28.4a1.2 1.2 0 0 0 .49.9 6.8 6.8 0 0 0 3.31 1.23 15.33 15.33 0 0 0 2.42.19 14.5 14.5 0 0 0 3.49-.4 6.65 6.65 0 0 0 1.76-.69 2.44 2.44 0 0 0 .39-.28 1.44 1.44 0 0 0 .47-.6 1 1 0 0 0 .06-.33v-1.34a.89.89 0 0 0 0-.32.61.61 0 0 0 .04-.26zM77.92 23.51c3.44 0 6.23-1 6.23-2.31 0 0 .07-1.19 0-1.44a1.42 1.42 0 0 0-.11-.5 1.37 1.37 0 0 0 .71-1s.06-1.33 0-1.59c-.17-1.55-3.31-2.39-6.26-2.39s-6.29.89-6.29 2.53c0 .08.06 1.45.06 1.45a.92.92 0 0 0 .08.27 1.59 1.59 0 0 0-.79 1.27c0 .07.06 1.44.06 1.44a1.25 1.25 0 0 0 .49.9 7 7 0 0 0 3.32 1.23 16.55 16.55 0 0 0 2.5.14zm.65-8.62c3.32 0 5.63 1 5.63 1.88s-2.31 1.89-5.63 1.89-5.64-1-5.64-1.89 2.32-1.88 5.64-1.88zm-6.29 4.87a1 1 0 0 1 .49-.71 3 3 0 0 0 .64.46 11.52 11.52 0 0 0 5.16 1 13.14 13.14 0 0 0 4.43-.66 5.46 5.46 0 0 0 .54-.24.8.8 0 0 1 0 .15c0 .89-2.31 1.88-5.63 1.88s-5.63-.99-5.63-1.88z"/><path class="cls-2" d="M84.8 22.24a.53.53 0 0 0-.15-.24 1.14 1.14 0 0 0-.16-.14 1.08 1.08 0 0 0-.26-.14 1.57 1.57 0 0 1-.28.36 1.22 1.22 0 0 1 .24.14.58.58 0 0 1 .3.47.54.54 0 0 1-.23.41l-.24.19-.36.19s-.38.18-.55.24l-.55.18-.74.17-.95.16-1 .09-1.44.07a15.08 15.08 0 0 1-2-.15c-.48-.07-1-.16-1.41-.26a9.15 9.15 0 0 1-1.49-.47 2.65 2.65 0 0 1-.73-.51 2.78 2.78 0 0 1-.49-.65V23.92a1.2 1.2 0 0 0 .49.9A6.8 6.8 0 0 0 76.14 26a15.46 15.46 0 0 0 2.43.19 14.63 14.63 0 0 0 3.49-.4 6.88 6.88 0 0 0 1.77-.69 3.89 3.89 0 0 0 .39-.28 1.62 1.62 0 0 0 .47-.6 1 1 0 0 0 .06-.33v-1.34a.81.81 0 0 0 .05-.31zM84.07 27.73a5.37 5.37 0 0 1-1.36.61 13.82 13.82 0 0 1-4.26.52 17 17 0 0 1-2.11-.16c-.48-.07-.84-.14-1.28-.24l-.63-.17a5.22 5.22 0 0 1-1.66-.8 1.79 1.79 0 0 1-.46-.49v1.38a1.2 1.2 0 0 0 .49.9 6.8 6.8 0 0 0 3.31 1.23 15.5 15.5 0 0 0 2.43.18 14.65 14.65 0 0 0 3.49-.39 6.65 6.65 0 0 0 1.76-.69c.58-.35.92-.76.92-1.21v-1.37a2.75 2.75 0 0 1-.64.7z"/><path class="cls-2" d="M72.78 27.05a6.94 6.94 0 0 0 3.32 1.23 15.27 15.27 0 0 0 2.42.18 14.53 14.53 0 0 0 3.48-.39 6.65 6.65 0 0 0 1.76-.69 2.44 2.44 0 0 0 .39-.28 1.5 1.5 0 0 0 .47-.6 1 1 0 0 0 .06-.33V24.8c-.2.26-.74 1.08-3.2 1.58a18 18 0 0 1-3.17.27 11.75 11.75 0 0 1-5-1 3.92 3.92 0 0 1-.79-.54 3.16 3.16 0 0 1-.38-.47v1.53a1.18 1.18 0 0 0 .64.88zM84.86 31.48a3 3 0 0 1-.75.72 5.15 5.15 0 0 1-1.37.6 13.7 13.7 0 0 1-4.26.53 17.13 17.13 0 0 1-2.11-.16 12.6 12.6 0 0 1-1.28-.25l-.63-.16A5.22 5.22 0 0 1 72.8 32a1.7 1.7 0 0 1-.46-.5v1.33a1.21 1.21 0 0 0 .49.9A6.9 6.9 0 0 0 76.17 35a15.5 15.5 0 0 0 2.43.18 14.65 14.65 0 0 0 3.49-.39 6.88 6.88 0 0 0 1.77-.69c.58-.35.92-.77.92-1.21.05-.04.1-1.3.08-1.41z"/><path class="cls-2" d="M76.13 32.75a15.37 15.37 0 0 0 2.42.18 14.53 14.53 0 0 0 3.45-.39 7 7 0 0 0 1.76-.69 2.44 2.44 0 0 0 .39-.28 1.5 1.5 0 0 0 .47-.6 1 1 0 0 0 .06-.33v-1.37c-.21.26-.75 1.08-3.2 1.58a19.25 19.25 0 0 1-3.18.27 11.75 11.75 0 0 1-5-1 4.76 4.76 0 0 1-.79-.54 3.84 3.84 0 0 1-.38-.47v1.52a1.21 1.21 0 0 0 .49.88 6.9 6.9 0 0 0 3.51 1.24z"/><g><path class="cls-2" d="M17.7 31.51c3.44 0 6.23-1 6.23-2.31 0 0 .07-1.19.05-1.44a1.39 1.39 0 0 0-.1-.5 1.38 1.38 0 0 0 .7-1s.06-1.33 0-1.59c-.17-1.55-3.31-2.39-6.26-2.39s-6.29.89-6.29 2.53c0 .08.06 1.45.06 1.45a.92.92 0 0 0 .08.27 1.57 1.57 0 0 0-.78 1.27c0 .07.06 1.44.06 1.44a1.21 1.21 0 0 0 .49.9 7 7 0 0 0 3.31 1.23 16.66 16.66 0 0 0 2.45.14zm.65-8.62c3.32 0 5.63 1 5.63 1.88s-2.31 1.89-5.63 1.89-5.64-1-5.64-1.89 2.29-1.88 5.64-1.88zm-6.28 4.87a1 1 0 0 1 .49-.71 2.93 2.93 0 0 0 .63.46 11.52 11.52 0 0 0 5.16 1 13.14 13.14 0 0 0 4.41-.68 5.46 5.46 0 0 0 .54-.24.8.8 0 0 1 0 .15c0 .89-2.31 1.88-5.63 1.88s-5.6-.97-5.6-1.86z"/><path class="cls-2" d="M24.43 30a1.14 1.14 0 0 0-.16-.14 1.08 1.08 0 0 0-.26-.14 1.57 1.57 0 0 1-.28.36 1.22 1.22 0 0 1 .24.14.58.58 0 0 1 .3.47.54.54 0 0 1-.23.41 1.68 1.68 0 0 1-.24.19l-.36.19s-.38.18-.54.24l-.56.18-.74.17-1 .16-1 .09-1.44.07a15.08 15.08 0 0 1-2-.15c-.48-.07-1-.16-1.41-.26a9.15 9.15 0 0 1-1.49-.47 2.65 2.65 0 0 1-.77-.53 2.78 2.78 0 0 1-.49-.65V31.9a1.23 1.23 0 0 0 .49.9 6.8 6.8 0 0 0 3.44 1.2 15.23 15.23 0 0 0 2.42.19 14.63 14.63 0 0 0 3.49-.4 6.94 6.94 0 0 0 1.76-.69 3.89 3.89 0 0 0 .39-.28 1.62 1.62 0 0 0 .47-.6 1 1 0 0 0 .06-.33s.05-1.31.05-1.34a.66.66 0 0 0-.05-.32.53.53 0 0 0-.09-.23z"/></g><g><path class="cls-2" d="M80.46 54.69a2.58 2.58 0 1 0-2.57-2.58 2.58 2.58 0 0 0 2.57 2.58zM87.79 64.92l-2.14-7s-.76-2-2.46-2h-5.46c-1.69 0-2.46 2-2.46 2l-2.14 7s-.38 1.28.7 1.6 1.41-.93 1.41-.93L77 59.77s.09-.45.43-.35.21.57.21.57l-3 10.91h2.8v7.81a1.34 1.34 0 0 0 2.68 0V70.9h.76v7.81a1.35 1.35 0 0 0 2.69 0V70.9h2.79L83.32 60s-.13-.48.21-.57.43.35.43.35l1.72 5.82s.33 1.25 1.41.93.7-1.61.7-1.61zM55.69 53.71A2.7 2.7 0 1 0 53 51a2.68 2.68 0 0 0 2.69 2.71zM58.84 54.75h-6.3a3.61 3.61 0 0 0-3.27 3.58v7.48a1 1 0 0 0 .42.81l-2.4 12.64a.41.41 0 0 0 .32.48h.08a.41.41 0 0 0 .4-.34l2.38-12.58a1 1 0 0 0 .89-1v-6.43c0-.24.07-.57.51-.57s.37.33.38.53V78.6a1.5 1.5 0 0 0 3 0V67.51a.42.42 0 0 1 .44-.44.41.41 0 0 1 .43.44V78.6a1.5 1.5 0 0 0 3 0V59.35c0-.2.08-.53.38-.53s.51.33.51.57v6.42a1 1 0 1 0 2.09 0v-7.48a3.6 3.6 0 0 0-3.26-3.58zM72.05 65.07a.81.81 0 0 0-1.09.35 21.42 21.42 0 0 1-1.37 2.1.88.88 0 0 1-.67.31h-2.61a.88.88 0 0 1-.67-.31c-.34-.33-1.34-2.13-1.4-2.18a.76.76 0 0 0-.68-.36.78.78 0 0 0-.78.78 1.56 1.56 0 0 0 .07.34L65 70a1.41 1.41 0 0 1 .13.52v.59a2.51 2.51 0 0 1-.1.66l-1 4.13h1.15V79a1.06 1.06 0 1 0 2.12 0v-2.93a.45.45 0 0 1 0-.13h.64a.45.45 0 0 1 0 .13V79a1.07 1.07 0 1 0 2.13 0v-3.06h1.15l-1.06-4.12a3.53 3.53 0 0 1-.09-.55V70.56a1.41 1.41 0 0 1 .13-.52l2-3.63s.14-.27.19-.38a.7.7 0 0 0-.34-.96z"/><path class="cls-2" d="M67.61 66.47a2.16 2.16 0 1 0-2.16-2.16 2.15 2.15 0 0 0 2.16 2.16zM14 53.54l3.61-3.61a3.08 3.08 0 0 0-.32-.48l-3.77 3.77a3.08 3.08 0 0 0 .48.32zM13.07 52.82l3.77-3.77a3.08 3.08 0 0 0-.48-.32l-3.61 3.61a3.08 3.08 0 0 0 .32.48zM17.58 52.3l-1.26 1.26a2.7 2.7 0 0 0 1.26-1.26zM15.78 48.52a2.57 2.57 0 0 0-.62-.08H15L12.47 51v.12a2.57 2.57 0 0 0 .08.62zM15.16 53.83h.1l2.58-2.58v-.1a2.59 2.59 0 0 0-.08-.63l-3.24 3.24a2.59 2.59 0 0 0 .64.07zM12.75 50L14 48.72A2.74 2.74 0 0 0 12.75 50zM7.39 76.05l1.02-1.02.19-.99-1.02 1.02-.19.99zM7.02 78.02l1.02-1.03.19-.98-1.02 1.02-.19.99zM11.72 76.51l3-3.01v-.8l-3 3.01v.8zM6.76 79.38a.39.39 0 0 0 .12.37.4.4 0 0 0 .2.11h.08a.41.41 0 0 0 .4-.34l.11-.52.19-1-1 1zM7.76 74.08l1.02-1.02.18-.96-1.01 1.01-.19.97zM8.13 72.13l1.02-1.02.19-.98-1.02 1.01-.19.99zM15.59 72.64l3-3v-.81l-3 3.01v.8zM19.48 65.55l2.09-2.09v-.8l-2.09 2.09v.8zM19.89 66.74l1.68-1.68v-.8l-2 2a1 1 0 0 0 .32.48zM19.48 63.96l2.09-2.09v-.81l-2.09 2.1v.8zM15.59 74.24l3-3.01v-.8l-3 3.01v.8zM12.85 80.17l1.87-1.87v-.8l-2.41 2.41a1.5 1.5 0 0 0 .54.26zM11.72 78.11l3-3.01v-.8l-3 3.01v.8zM11.94 79.49l2.78-2.79v-.8l-3 3a1.42 1.42 0 0 0 .22.59zM15.59 77.44l3-3.01v-.8l-3 3v.81zM15.59 75.84l3-3.01v-.8l-3 3.01v.8zM11.72 63.75L20 55.49a3.2 3.2 0 0 0-.51-.29L11.72 63zM15.59 69.45l3-3.01v-.8l-3 3.01v.8zM15.59 78.72a2.46 2.46 0 0 0 0 .28l3-3v-.81l-3 3zM17.09 80.22a1.46 1.46 0 0 0 .66-.16 1.4 1.4 0 0 0 .68-.68 1.46 1.46 0 0 0 .16-.66v-.3l-1.77 1.77a1.24 1.24 0 0 0 .27.03zM11.72 70.12l6.87-6.87v-.78l-6.87 6.87v.78zM11.72 71.72l3-3.01v-.8l-3 3.01v.8zM15.59 67.63v.22l3-3V64l-3.2 3.2a.48.48 0 0 1 .2.43zM11.72 68.55l6.87-6.88v-.8l-6.87 6.87v.81zM8.51 70.16l1.01-1.01.19-.99-1.01 1.01-.19.99zM14.65 79.17l-1 1a1.52 1.52 0 0 0 1-1zM13.43 54.86l-4.69 4.68v.8l5.49-5.48h-.8zM9.23 56.66l1.3-1.3a3.68 3.68 0 0 0-1.3 1.3zM11.72 67l6.87-6.87v-.61a1.14 1.14 0 0 1 .05-.24l-6.92 6.92zM16.25 80l2.34-2.34v-.8l-2.74 2.74a1.39 1.39 0 0 0 .4.4zM12.21 54.86H12l-.24.05-3 3a3.55 3.55 0 0 0-.06.57v.29l3.89-3.89zM11.72 73.31l3-3v-.8l-3 3v.8zM8.74 63.54l2.09-2.09v-.8l-2.09 2.09v.8zM15.16 54.86H15l-6.26 6.28v.8l2.09-2.09v-.34c0-.24.07-.57.51-.57a.3.3 0 0 1 .26.14l4.23-4.22zM11.72 60.56l5.7-5.7h-.8l-4.9 4.9v.8zM8.88 68.19l1-1v-.23a1.33 1.33 0 0 0 .28-.1 1 1 0 0 0 .53-.53 1 1 0 0 0 .08-.39v-.49l-1.7 1.75zM11.72 62.16L18.89 55a3.71 3.71 0 0 0-.58-.11h-.1l-6.49 6.49zM8.74 65.14l2.09-2.1v-.8l-2.09 2.09v.81zM8.74 65.93a1 1 0 0 0 .21.6l1.88-1.89v-.8l-2.09 2.09zM21.52 57.94l-2 2v.8l2.09-2.09v-.23a3 3 0 0 0-.09-.48zM19.48 62.36l2.09-2.09v-.78l-2.09 2.09v.78zM11.72 74.91l3-3v-.8l-3 3v.8zM15.59 71.05l3-3.01v-.8l-3 3.01v.8zM21.12 56.74L18.9 59h.07a.44.44 0 0 1 .46.3l1.94-1.94a3.53 3.53 0 0 0-.25-.62zM20.53 67a1 1 0 0 0 1-1v-.07L20.46 67zM11.72 65.35l9.09-9.09a3.79 3.79 0 0 0-.38-.42l-8.71 8.71z"/><g><path class="cls-2" d="M23.12 65.1a.81.81 0 0 0-.27.05.78.78 0 0 0-.47.47.75.75 0 0 0-.05.26 1.39 1.39 0 0 0 .08.35l.06.11 1.1-1.1a.73.73 0 0 0-.45-.14zM24.69 70.5l2.55-2.5h-.8l-2 2 .12.22a1.36 1.36 0 0 1 .13.28zM23.93 65.68l-1.18 1.17.29.52 1.19-1.19zM24.84 67.16c-.1-.15-.21-.32-.31-.49l-1.21 1.21.29.51zM25.18 67.62l-1.29 1.29.28.51 1.49-1.49a1 1 0 0 1-.47-.29zM24.72 76.07v.8l5-5a2.41 2.41 0 0 1-.07-.5v-.22zM27.83 79.91l1.79-1.78v-.81l-2.08 2.08a1 1 0 0 0 .29.51zM24.72 79.14a1.1 1.1 0 0 0 .16.53l2-2v-.8L24.72 79zM28.55 80.2a1.06 1.06 0 0 0 1.07-1.06v-.22l-1.25 1.24a1.16 1.16 0 0 0 .18.04zM28.47 68H28l-3.32 3.31a2.51 2.51 0 0 1-.1.66l-.09.34 7.08-7.08a.81.81 0 0 0-1.09.35 21.42 21.42 0 0 1-1.37 2.1.91.91 0 0 1-.64.32zM29.86 72.52l-5.15 5.14v.57l2.13-2.12.05-.05 3.08-3.08-.11-.46zM30.46 74.88l-2.98 2.98v.8l2.13-2.13v-.47h1.16l-.14-.54-.17-.64zM32 65.61l-7.72 7.72L24 74.4l7.64-7.64.13-.23.18-.38a.72.72 0 0 0 .05-.54zM27.48 77.06l2.82-2.81-.16-.64-2.66 2.65v.8zM29.75 70.16l.9-1.62-6.93 6.92-.15.6h.35l5.78-5.77a.85.85 0 0 1 .05-.13zM27 66.58l2.29-2.29a2.11 2.11 0 0 0-.15-.66l-2.8 2.81a2.35 2.35 0 0 0 .66.14zM25.86 66.14l3-3a1.9 1.9 0 0 0-.4-.4l-3 3a1.9 1.9 0 0 0 .4.4zM29.17 65.22L28 66.44a2.13 2.13 0 0 0 1.17-1.22zM25.16 63.64l1.21-1.21a2.18 2.18 0 0 0-1.21 1.21zM28 62.44a2.11 2.11 0 0 0-.66-.15L25 64.58a2.11 2.11 0 0 0 .15.66zM25.78 80.2a1.12 1.12 0 0 0 1.06-1.06v-.64l-1.56 1.56a1.07 1.07 0 0 0 .5.14z"/></g><g><path class="cls-2" d="M37.72 53.42L41.18 50a2.27 2.27 0 0 0-.58-.23l-3.1 3.11a2.56 2.56 0 0 0 .22.54zM38.75 50a2.57 2.57 0 0 0-1 1 2.69 2.69 0 0 0-.32 1.13l2.44-2.44a2.42 2.42 0 0 0-1.12.31zM42.53 52.59l-2.18 2.18a2.56 2.56 0 0 0 2.18-2.18zM38.45 54.28l3.6-3.59a3 3 0 0 0-.39-.41L38 53.89a2.16 2.16 0 0 0 .45.39zM39.56 54.77l3-3a2.77 2.77 0 0 0-.19-.62L39 54.58a2.54 2.54 0 0 0 .56.19zM36.36 60.37l-3.26 3.26-.36 1.15 3.28-3.27.34-1.14zM37.48 56.05l-2.97 2.97-.35 1.15 4.12-4.12h-.8zM37.15 79.52l2.46-2.47v-.8L37 78.92a1.26 1.26 0 0 0 .15.6zM47.37 65.3L46 66.64a1 1 0 0 0 .59 0 1.12 1.12 0 0 0 .78-1.34zM34.6 69.31l8.46-8.45-.18-.63-7.97 7.97-.31 1.11zM34.92 57.81l1.61-1.61a3.3 3.3 0 0 0-1.61 1.61zM43 79.29l-.79.79a1.34 1.34 0 0 0 .79-.79zM39.56 79.32l-.8.79a1.33 1.33 0 0 0 .8-.79zM39.07 56.05l-5.27 5.27-.35 1.16 6.42-6.43h-.8zM40.38 72.3v.8l4.74-4.75-.17-.63-4.57 4.58zM35.21 67.1l9.65-9.65a3.18 3.18 0 0 0-.34-.46l-9 9zM40.38 76.29l2.68-2.68v-.8l-2.68 2.68v.8zM36.93 72.57v.8l7.51-7.51-.18-.62-7.33 7.33zM36.93 71.78l7.16-7.17-.17-.63-7.04 7.04h.05v.76zM35.68 62.64l-3.07 3.07a1.1 1.1 0 0 0 .22.58l2.51-2.51zM36.93 74.95l2.68-2.69v-.78l-2.68 2.69v.78zM36.93 78.14l2.68-2.68v-.8l-2.68 2.68v.8zM38.12 80.14l1.49-1.49v-.8l-2.07 2.07a1.21 1.21 0 0 0 .58.22zM36.93 76.55l2.68-2.69v-.8l-2.68 2.69v.8zM44.71 63.99l1.76-1.75-.19-.61-1.76 1.75.19.61zM43.49 59.89l.12.41 1.73-1.73-.16-.5a.55.55 0 0 0 0-.1l-1.77 1.73a.6.6 0 0 1 .08.19zM36.73 61.59l-.3 1.1L43 56.1a1.45 1.45 0 0 0-.3-.05h-.45zM41.36 80.1l1.7-1.7v-.8l-2.23 2.22a1.42 1.42 0 0 0 .53.28zM40.38 78.83a1.41 1.41 0 0 0 .11.54l2.57-2.57V76l-2.68 2.68zM45.29 68.98l-2.04 2.04h.8l1.42-1.41-.18-.63zM35.82 64.9l8.3-8.3a2.07 2.07 0 0 0-.49-.32l-7.51 7.51zM40.38 74.69l2.68-2.68v-.8l-2.68 2.68v.8zM44.34 62.76l1.75-1.74-.19-.62-1.74 1.75.18.61zM40.38 71.5l4.4-4.4-.17-.61-4.53 4.53h.3v.48zM43.57 62.73l-8.29 8.29h.81l7.66-7.66-.18-.63zM45.55 66.33l1.66-1.66-.18-.6-1.77 1.77a1.92 1.92 0 0 0 .29.49zM45.07 65.23l1.77-1.77-.19-.61-1.76 1.76.18.62zM40.38 77.89l2.68-2.69v-.8l-2.68 2.69v.8zM45.64 70.23l-.79.79h1l-.04-.16-.17-.63zM37 60.49l4.44-4.44h-.8l-3.6 3.6a.61.61 0 0 1 .07.46zM43.98 61.53l1.73-1.73-.18-.62-1.74 1.73.19.62zM43.23 61.48l-8.93 8.93-.17.61h.36l8.91-8.91-.17-.63zM34.57 66.15a2 2 0 0 0 .2-.44l.24-.8-1.7 1.7a.92.92 0 0 0 .8-.09 1.21 1.21 0 0 0 .46-.37z"/></g></g><path class="cls-2" d="M52.26 28L45 33.68a.34.34 0 0 1-.3.08c-.17 0-.22-.14-.22-.35v-2.89H31.13a.27.27 0 0 1-.25-.3v-4.95a.28.28 0 0 1 .24-.3h13.37v-2.89c0-.21 0-.31.21-.35a.4.4 0 0 1 .31.08l7.2 5.48a.41.41 0 0 1 .21.39c0 .11-.04.18-.16.32z"/></svg>