<svg id="TARGETS" xmlns="http://www.w3.org/2000/svg" viewBox="0 0 94.85 94.85" width="94.85" height="94.85"><defs><style>.cls-1{fill:#dda63a}.cls-2{fill:#fff}</style></defs><title>Template_Goal_2_RGB_NG</title><path class="cls-1" d="M0 0h94.85v94.85H0z"/><path class="cls-2" d="M47.44 45.45c.61-.39 2.73-1.52 2.73-3.33C50.17 40 47.4 37 47.4 37s-2.77 2.86-2.77 5.11c0 1.89 2.81 3.34 2.81 3.34zM48.83 45.66C47.61 47 48 50.12 48 50.12c3.29-.52 4-1.43 4-1.43 2.12-1.47 1.65-6.36 1.65-6.36-4.22 2.38-4.82 3.33-4.82 3.33zM48.9 52c-1.31 1.42-.94 4.86-.94 4.86 3.54-.57 4.29-1.56 4.29-1.56 2.28-1.6 1.76-6.92 1.76-6.92C49.55 50.94 48.9 52 48.9 52zM48.74 59.33c-1.3 1.42-.78 4.94-.78 4.94 3.54-.57 4.46-1.65 4.46-1.65 2.28-1.6 1.51-7.35 1.51-7.35-4.46 2.59-5.19 4.06-5.19 4.06zM48.91 66.21c-1.3 1.42-.86 5.28-.86 5.28 3.54-.56 4.71-1.69 4.71-1.69 2.28-1.6 1.91-7.57 1.91-7.57-4.59 2.43-5.76 3.98-5.76 3.98zM42.91 48.69s.69.91 4 1.43c0 0 .34-3.16-.87-4.46 0 0-.6-.95-4.75-3.33-.02 0-.5 4.89 1.62 6.36zM42.6 55.27s.75 1 4.28 1.56c0 0 .38-3.44-.93-4.86 0 0-.65-1-5.12-3.62 0 0-.51 5.32 1.77 6.92zM40.92 55.27s-.77 5.75 1.51 7.35c0 0 .92 1.08 4.45 1.65 0 0 .53-3.52-.77-4.94 0 0-.72-1.47-5.19-4.06zM45.94 66.21s-1.17-1.55-5.76-4c0 0-.37 6 1.91 7.57 0 0 1.17 1.13 4.71 1.69 0 .02.44-3.84-.86-5.26zM53.47 31.73a.52.52 0 1 0-1 0V42l1-.6zM51.34 41.59V30.05a.52.52 0 0 0-.52-.52.52.52 0 0 0-.52.52v9a13.12 13.12 0 0 1 1 2.57zM49.14 27.4a.52.52 0 1 0-1 0V36c.27.37.66.89 1 1.41zM42.4 31.73a.52.52 0 0 0-.52-.52.52.52 0 0 0-.52.52v9.64l1 .6zM44.53 39v-9a.52.52 0 0 0-1 0v11.61a13.19 13.19 0 0 1 1-2.61zM46.72 27.4a.52.52 0 0 0-.52-.52.52.52 0 0 0-.52.52v10l1-1.41zM46.44 73.87h2v11.96h-2z"/><g><path class="cls-2" d="M20.6 23.32c1.61 0 2.66-1.33 2.27-3.95a16.32 16.32 0 0 0-2.35-5.64s-2.14 4-2.25 6 .39 3.59 2.33 3.59zM21.75 24.57c-1.1 1.68-1.61 3.37 0 4.33 1 .61 3.05-.42 4-2.88a15.54 15.54 0 0 0 .93-5.78s-3.83 2.66-4.93 4.33zM21.75 31.91c-1.1 1.68-1.61 3.37 0 4.33 1 .62 3.05-.42 4-2.88a15.51 15.51 0 0 0 .93-5.78s-3.83 2.66-4.93 4.33zM21.85 39.12c-1.1 1.68-1.6 3.37 0 4.33 1 .62 3.05-.42 4-2.88a15.31 15.31 0 0 0 .93-5.78s-3.78 2.66-4.93 4.33zM21.85 46.52c-1.1 1.68-1.6 3.37 0 4.33 1 .61 3.05-.42 4-2.88a15.31 15.31 0 0 0 .93-5.78s-3.78 2.66-4.93 4.33z"/><path class="cls-2" d="M19.56 28.9c1.64-1 1.13-2.65 0-4.33s-5-4.33-5-4.33a15.54 15.54 0 0 0 .97 5.76c.98 2.48 2.99 3.51 4.03 2.9zM19.56 36.24c1.64-1 1.13-2.65 0-4.33s-5-4.33-5-4.33a15.51 15.51 0 0 0 .93 5.78c1.02 2.46 3.03 3.5 4.07 2.88zM19.45 43.45c1.64-1 1.13-2.65 0-4.33s-5-4.33-5-4.33a15.51 15.51 0 0 0 .93 5.78c1.03 2.43 3.03 3.5 4.07 2.88zM19.45 50.85c1.64-1 1.13-2.65 0-4.33s-5-4.33-5-4.33a15.51 15.51 0 0 0 .97 5.81c.99 2.43 2.99 3.46 4.03 2.85z"/><path class="cls-2" d="M26.12 50.59s-2.06 13.25-4.37 24.31V53.42h-2V75c-2.31-11.07-4.39-24.39-4.39-24.39a70.7 70.7 0 0 0 4.38 29.58v5.66h2v-5.68a70.58 70.58 0 0 0 4.38-29.58z"/></g><g><path class="cls-2" d="M74.31 61.44h-2v12l-1.51-4.52a1.7 1.7 0 0 0-2.8-.64l-8.55 8.9 9.17-3.94 3.7 7.37v5.29h2z"/><rect class="cls-2" x="70.32" y="29.91" width="2.42" height="2.01" rx=".73" ry=".73"/><rect class="cls-2" x="67.55" y="29.91" width="2.42" height="2.01" rx=".73" ry=".73"/><rect class="cls-2" x="70.57" y="27.35" width="2.27" height="2.03" rx=".73" ry=".73"/><rect class="cls-2" x="67.82" y="27.44" width="2.27" height="2.03" rx=".73" ry=".73"/><rect class="cls-2" x="70.42" y="32.33" width="2.42" height="2.01" rx=".73" ry=".73"/><rect class="cls-2" x="67.55" y="32.36" width="2.42" height="2.01" rx=".73" ry=".73"/><rect class="cls-2" x="70.32" y="34.74" width="2.42" height="2.01" rx=".73" ry=".73"/><path class="cls-2" d="M70 36v-.54a.74.74 0 0 0-.73-.74h-.95a.72.72 0 0 0-.62.37c.23.43.54 1 .86 1.65h.71A.74.74 0 0 0 70 36z"/><rect class="cls-2" x="70.42" y="37.16" width="2.42" height="2.01" rx=".73" ry=".73"/><path class="cls-2" d="M70 38.44v-.54a.74.74 0 0 0-.73-.74h-.52c.32.65.62 1.33.85 1.93a.73.73 0 0 0 .4-.65z"/><rect class="cls-2" x="70.42" y="39.58" width="2.42" height="2.01" rx=".73" ry=".73"/><path class="cls-2" d="M71.16 44h1a.74.74 0 0 0 .73-.74v-.54a.74.74 0 0 0-.73-.74h-1a.73.73 0 0 0-.68.48c.09.45.19.92.29 1.41a.76.76 0 0 0 .39.13zM72.11 46.39a.73.73 0 0 0 .73-.73v-.55a.73.73 0 0 0-.73-.73h-1a.87.87 0 0 0-.28 0c.12.63.24 1.29.36 2zM71.68 48.86h.43a.74.74 0 0 0 .73-.74v-.54a.74.74 0 0 0-.73-.74h-.79l.21 1.16zM72.84 50.5V50a.73.73 0 0 0-.73-.73h-.36c.14.73.28 1.4.42 2a.74.74 0 0 0 .67-.77zM72.89 52.87v-.54a.74.74 0 0 0-.63-.72c.17.73.33 1.32.44 1.74a.74.74 0 0 0 .19-.48z"/><rect class="cls-2" x="70.78" y="25.13" width="2.06" height="1.91" rx=".49" ry=".49"/><rect class="cls-2" x="70.9" y="22.96" width="1.92" height="1.78" rx=".49" ry=".49"/><rect class="cls-2" x="68.34" y="22.86" width="1.92" height="1.78" rx=".49" ry=".49"/><rect class="cls-2" x="68.86" y="20.69" width="1.79" height="1.66" rx=".49" ry=".49"/><rect class="cls-2" x="71.05" y="20.6" width="1.79" height="1.66" rx=".49" ry=".49"/><rect class="cls-2" x="71.25" y="18.74" width="1.6" height="1.43" rx=".49" ry=".49"/><rect class="cls-2" x="69.17" y="18.76" width="1.6" height="1.43" rx=".49" ry=".49"/><rect class="cls-2" x="69.86" y="16.98" width="1.39" height="1.39" rx=".49" ry=".49"/><rect class="cls-2" x="71.52" y="16.98" width="1.39" height="1.39" rx=".49" ry=".49"/><rect class="cls-2" x="68.12" y="25.13" width="2.06" height="1.91" rx=".49" ry=".49"/><rect class="cls-2" x="72.04" y="15.99" width=".87" height=".71" rx=".24" ry=".24"/><rect class="cls-2" x="70.65" y="15.99" width=".87" height=".71" rx=".24" ry=".24"/><rect class="cls-2" x="71.25" y="14.84" width=".87" height=".71" rx=".24" ry=".24"/><rect class="cls-2" x="72.31" y="13.91" width=".7" height=".57" rx=".24" ry=".24"/><rect class="cls-2" x="73.32" y="29.91" width="2.42" height="2.01" rx=".73" ry=".73"/><rect class="cls-2" x="76.3" y="29.91" width="2.42" height="2.01" rx=".73" ry=".73"/><rect class="cls-2" x="73.29" y="27.35" width="2.27" height="2.03" rx=".73" ry=".73"/><rect class="cls-2" x="76.16" y="27.44" width="2.27" height="2.03" rx=".73" ry=".73"/><rect class="cls-2" x="73.36" y="32.33" width="2.42" height="2.01" rx=".73" ry=".73"/><rect class="cls-2" x="76.3" y="32.36" width="2.42" height="2.01" rx=".73" ry=".73"/><rect class="cls-2" x="73.21" y="34.74" width="2.42" height="2.01" rx=".73" ry=".73"/><rect class="cls-2" x="76.3" y="34.74" width="2.42" height="2.01" rx=".73" ry=".73"/><rect class="cls-2" x="73.42" y="37.16" width="2.42" height="2.01" rx=".73" ry=".73"/><rect class="cls-2" x="76.3" y="37.16" width="2.42" height="2.01" rx=".73" ry=".73"/><rect class="cls-2" x="73.21" y="39.58" width="2.42" height="2.01" rx=".73" ry=".73"/><path class="cls-2" d="M76.08 40.38v.54a.73.73 0 0 0 .54.7A12.93 12.93 0 0 1 78 39.68a1.42 1.42 0 0 0-.2 0h-1a.74.74 0 0 0-.72.7z"/><rect class="cls-2" x="73.21" y="42" width="2.42" height="2.01" rx=".73" ry=".73"/><path class="cls-2" d="M75.37 44.56a.72.72 0 0 0-.47-.18H74a.74.74 0 0 0-.74.73v.55a.74.74 0 0 0 .74.73h.9c.1-.66.31-1.28.47-1.83zM74.73 46.84H74a.74.74 0 0 0-.74.74v.54a.74.74 0 0 0 .74.74h.24c.13-.68.31-1.36.49-2.02zM74.1 49.22H74a.74.74 0 0 0-.74.73v.55a.74.74 0 0 0 .4.64c.1-.6.27-1.25.44-1.92zM73.45 51.76a.72.72 0 0 0-.28.57v.54c.08-.31.17-.69.28-1.11z"/><rect class="cls-2" x="73.5" y="25.13" width="2.06" height="1.91" rx=".49" ry=".49"/><rect class="cls-2" x="73.35" y="22.86" width="1.92" height="1.78" rx=".49" ry=".49"/><rect class="cls-2" x="75.8" y="22.86" width="1.92" height="1.78" rx=".49" ry=".49"/><rect class="cls-2" x="75.72" y="20.86" width="1.79" height="1.66" rx=".49" ry=".49"/><rect class="cls-2" x="73.48" y="20.69" width="1.79" height="1.66" rx=".49" ry=".49"/><rect class="cls-2" x="73.33" y="18.74" width="1.6" height="1.43" rx=".49" ry=".49"/><rect class="cls-2" x="75.41" y="18.9" width="1.6" height="1.43" rx=".49" ry=".49"/><rect class="cls-2" x="75.04" y="16.98" width="1.39" height="1.39" rx=".49" ry=".49"/><rect class="cls-2" x="73.28" y="16.98" width="1.39" height="1.39" rx=".49" ry=".49"/><rect class="cls-2" x="76.08" y="25.13" width="2.06" height="1.91" rx=".49" ry=".49"/><rect class="cls-2" x="73.39" y="15.99" width=".87" height=".71" rx=".24" ry=".24"/><rect class="cls-2" x="72.74" y="14.84" width=".87" height=".71" rx=".24" ry=".24"/><rect class="cls-2" x="74.7" y="15.99" width=".87" height=".71" rx=".24" ry=".24"/><rect class="cls-2" x="73.99" y="14.84" width=".87" height=".71" rx=".24" ry=".24"/><rect class="cls-2" x="73.28" y="13.91" width=".7" height=".57" rx=".24" ry=".24"/><path class="cls-2" d="M83.49 39.81a3.17 3.17 0 0 0-3.94-.5A8.4 8.4 0 0 0 78 41.25a15.51 15.51 0 0 0-1.89 4.13c0 .09-.8 2.81-1 3.43l-.64 2.37c0 .12-.46 1.67-.63 2.29a31.58 31.58 0 0 1-1.26 3.69c.22-.9-.23-1.71-.5-2.79-.42-1.73-.7-2.84-.73-3-.14-.58-1.54-7.62-2-9.23a27.73 27.73 0 0 0-2.12-6c-.08-.09-.78-1.46-1.13-2a14.32 14.32 0 0 0-3.78-4.21c1.23 1.39 2.67 6.52 3 8.64a59 59 0 0 1 1.13 8.31 22 22 0 0 0 3.88 11.66s.68.92 2.85.89a3.94 3.94 0 0 0 3.13-1.1 10.91 10.91 0 0 0 2.12-3.51 17.51 17.51 0 0 0 1-6.24c.07-1.64.81-6.33 1-7.35a13.48 13.48 0 0 1 1.76.79 6 6 0 0 1 2.88 2.74 5.42 5.42 0 0 0-1.58-4.95z"/><path class="cls-2" d="M69.84 39.64h-.08a8.33 8.33 0 0 1 .32.9v-.45c0-.14-.08-.45-.24-.45z"/></g></svg>