<svg id="TARGETS" xmlns="http://www.w3.org/2000/svg" viewBox="0 0 94.85 94.85" width="94.85" height="94.85"><defs><style>.cls-1{fill:#a21942}.cls-2{fill:#fff}</style></defs><title>Goal_8_RGB_NG</title><path class="cls-1" d="M0 0h94.85v94.85H0z"/><path class="cls-2" d="M83.22 49.58l-4.58-14.93s-1.64-4.32-5.28-4.32H61.67c-3.63 0-5.27 4.32-5.27 4.32l-4.58 14.93S51 52.31 53.32 53s3-2 3-2L60 38.55s.2-1 .92-.75.48 1.2.48 1.2L55 62.38h6v16.73a2.88 2.88 0 0 0 5.75 0V62.38h1.64v16.73a2.87 2.87 0 0 0 5.74 0V62.38h6L73.64 39s-.28-1 .44-1.23.93.75.93.75L78.71 51s.7 2.67 3 2 1.51-3.42 1.51-3.42zM62 22.15a5.51 5.51 0 0 0 5.51 5.52h.15a5.56 5.56 0 0 0 5.55-5.57 6.08 6.08 0 0 0-.13-1.22H62.16a5.32 5.32 0 0 0-.16 1.27zM73.85 17.78h-.6a5.85 5.85 0 0 0-3-3.61l-.84 2.55v-3.85h-3v3.85L65.52 14a5.82 5.82 0 0 0-3.44 3.8h-.61v2.07h12.38z"/><g><path class="cls-2" d="M13.44 66.16l-.03-34.78h-1.92l.03 37.02 26.52-.02v-2.24l-24.6.02z"/><path class="cls-2" d="M42 26.85H15.47v37.02h26.56zM26.76 37.54v-.06a3 3 0 0 1-1-2.37v-.22c0-1.57 1-2.69 3-2.69a2.74 2.74 0 0 1 3 3v.62h-1.95v-.72a1.07 1.07 0 0 0-1.14-1.1c-.69 0-1.05.26-1.05.94v.16c0 .46.18.72.79 1.09l2.31 1.42a2.73 2.73 0 0 1 1.68 2.53 2.2 2.2 0 0 1-1.72 2.19v.06a2.8 2.8 0 0 1 1.1 2.29v.42c0 1.73-.94 2.77-3 2.77a2.76 2.76 0 0 1-3-3V44h2v.92A1 1 0 0 0 28.79 46c.7 0 1.08-.3 1.08-1v-.22c0-.5-.2-.76-1-1.26l-2.13-1.29a2.85 2.85 0 0 1-1.65-2.57 2.22 2.22 0 0 1 1.67-2.12zM19.43 51c0-.07.09-.12.2-.12h18.2c.11 0 .2.06.2.12v2.91c0 .07-.09.12-.2.12h-18.2c-.11 0-.2 0-.2-.12zm18.4 8.2H19.64c-.11 0-.2-.05-.2-.11v-2.87c0-.07.08-.12.19-.12h18.2c.12 0 .2.06.2.12v2.91c-.03.05-.03.1-.2.1z"/><path class="cls-2" d="M27.92 40.61l1.71 1a1.17 1.17 0 0 0 .85-1.09c0-.66-.23-.92-.95-1.34l-1.77-1.05a1.16 1.16 0 0 0-.76 1.16c0 .58.2.9.92 1.32z"/></g></svg>