<svg id="TARGETS" xmlns="http://www.w3.org/2000/svg" viewBox="0 0 94.85 94.85" width="94.85" height="94.85"><defs><style>.cls-1{fill:#56c02b}.cls-2{fill:#fff}</style></defs><title>Goal_15_RGB_NG</title><path class="cls-1" d="M0 0h94.85v94.85H0z"/><path class="cls-2" d="M50 68.55c-.69.75-1.41 1.47-2.16 2.22.91.91 1.85 1.9 2.86 3.08h-5.91c-.36.4-.73.81-1.11 1.26-.17.2-.33.41-.48.62H52a18.33 18.33 0 0 1 1.37 3H41.55a19.26 19.26 0 0 0-.68 1.88H54a28.88 28.88 0 0 1 .67 3H40.14c-.13.69-.22 1.33-.29 1.88h15.09c.12 1.08.14 1.78.14 1.81l2.3-.14c0-.42-.29-10.34-5.36-16.28-.7-.88-1.38-1.65-2.02-2.33zM41.38 63.22a20.74 20.74 0 0 0 2.46 3.46c.58-.59 1.14-1.15 1.66-1.66l.5-.5a20 20 0 0 1-2.92-3.81h6.29a13.78 13.78 0 0 0 1.1-1.89h-8.31l-.06-.13c-.4-1-.73-1.9-1-2.81h10.55c.23-.64.43-1.27.61-1.88H40.49c-.27-1-.49-2-.65-3H53c.12-.64.21-1.27.27-1.88H39.6c-.05-.59-.09-1.17-.09-1.75s0-1.15.09-1.74h13.64c-.06-.61-.15-1.24-.27-1.88H39.84c.16-1 .38-1.94.65-2.95h11.77c-.18-.62-.38-1.24-.61-1.88H41.06c.31-.92.64-1.85 1-2.81l.06-.14h8.31a14.27 14.27 0 0 0-1.1-1.88h-6.25A19.64 19.64 0 0 1 46 30.33c-.17-.16-.33-.33-.5-.5-.52-.51-1.08-1.07-1.66-1.66a20.14 20.14 0 0 0-3.65 5.9 36.88 36.88 0 0 0-3 13v.74A34 34 0 0 0 39 57.57a71.19 71.19 0 0 1-6.85-11.42l-1.14.4c3.48 8.23 10.35 16.69 10.35 16.69zM54.67 11.32a29.49 29.49 0 0 1-.67 2.95H40.87c.19.62.42 1.26.68 1.88H53.4a18.74 18.74 0 0 1-1.37 3H43.2c.15.21.31.42.48.62.38.45.75.86 1.11 1.26h5.92c-1 1.18-1.95 2.16-2.86 3.08.75.75 1.47 1.47 2.16 2.22.65-.68 1.33-1.42 2-2.24 5.07-5.94 5.35-15.86 5.36-16.28l-2.3-.14s0 .72-.14 1.8H39.85c.07.55.16 1.18.29 1.88z"/><path class="cls-2" d="M64.49 47.93c-5.29.88-6.94 5.09-7 6.55a4.09 4.09 0 0 0 .12 1.52s5.39-3.56 16.23-2.45c0 0-11.3-.35-18.24 4.88a15.38 15.38 0 0 0-1.6 1.4 36.06 36.06 0 0 0 2.6-12 36.29 36.29 0 0 0-3-13.72c-1.6-4.11-3.85-6.3-6.43-8.85C45.9 24 44.58 22.7 43.12 21 39 16.16 38.73 7.72 38.73 7.64l-2.29.14c0 .42.28 10.34 5.35 16.28 1.53 1.79 3 3.19 4.2 4.43 2.44 2.41 4.36 4.31 5.73 7.67a31 31 0 0 1 2.6 11.63 31.78 31.78 0 0 1-2.58 10.9C50.35 62.05 48.43 64 46 66.36c-1.25 1.24-2.67 2.64-4.2 4.43-5.07 5.94-5.34 15.86-5.35 16.28l2.29.14c0-.09.26-8.52 4.39-13.36 1.46-1.7 2.78-3 4.05-4.27A30.4 30.4 0 0 0 52 64a15.32 15.32 0 0 1 2.64-2.9 14.61 14.61 0 0 1 4.63-2.74c1.89 1.64 5.32 4 8.73 3.16 4.53-1.16 6.28-6.88 12.41-7.66 1.45-.23-8.75-7.12-15.92-5.93zM28.71 30.82c-.66-2-3.94-3.66-3.94-3.66s-1.56 3.4-.92 5.3c.54 1.6 2.74 2 3.38 2.12 0 0 2.03-2.13 1.48-3.76zM24.25 38.76s.87.59 3.91.07c0 0-.63-2.87-2.08-3.65 0 0-.81-.66-5.16-1.52 0 0 1.08 4.43 3.33 5.1zM27.89 40.74S27 40 22.32 39.07c0 0 1.13 4.82 3.61 5.56 0 0 .94.64 4.22.09 0 0-.7-3.13-2.26-3.98zM29.11 38.51c2.73-1.43 3.07-2.43 3.07-2.43 1.42-1.92-.45-6.07-.45-6.07-2.94 3.32-3.19 4.34-3.19 4.34-.68 1.49.57 4.16.57 4.16zM34.39 41.77c1.53-2.09-.5-6.61-.5-6.61-3.15 3.6-3.42 4.7-3.42 4.7-.72 1.63.62 4.54.62 4.54 2.91-1.54 3.3-2.63 3.3-2.63zM18.57 23.38a.48.48 0 0 0-.61-.31.49.49 0 0 0-.3.61l3.07 9.1 1.09.23zM22.67 32.34a12.16 12.16 0 0 1 .15-2.56L20 21.27a.49.49 0 0 0-.61-.3.48.48 0 0 0-.3.61zM23.35 28l.49-1.55-2.75-8.16a.49.49 0 0 0-.61-.3.48.48 0 0 0-.3.61zM30.63 30l.74-.84-3.08-9.1a.47.47 0 0 0-.6-.3.49.49 0 0 0-.31.61zM27.89 28.09A12.38 12.38 0 0 1 29.56 30l-3.63-10.74a.48.48 0 1 0-.92.3zM25.06 26l1.33.93-3.18-9.39a.48.48 0 0 0-.61-.31.49.49 0 0 0-.3.61z"/></svg>