<svg id="TARGETS" xmlns="http://www.w3.org/2000/svg" viewBox="0 0 94.85 94.85" width="94.85" height="94.85"><defs><style>.cls-1{fill:#56c02b}.cls-2{fill:#fff}</style></defs><title>Goal_15_RGB_NG</title><path class="cls-1" d="M0 0h94.85v94.85H0z"/><path class="cls-2" d="M76 36c-3.29.32-5.83 3.53-7.4 4.49s-3.47 2.59-4.94.7.83-3 1.89-3.36 3.77-1.38 4.48-2.66a6.66 6.66 0 0 0 .73-5.17l-.51-2.35a2.9 2.9 0 0 0 .49-2.34 5.87 5.87 0 0 0-2.68-3.61c-1.75-1.28-2.14-1.08-2.57-1s-1.49 1.85-.9 4.3 1.1 3.11 3.11 4c0 0 1.23 3.16-1.44 4.76-2 1.19-4.29 1.18-5.89 2.87L48.91 14.75a1.12 1.12 0 0 0-2 0L41.62 24.8c-.52-3.89-5-7-5-7 3.88 2.31 4.79 4.8 4.79 4.8a1.81 1.81 0 0 0 .42-.45 3.33 3.33 0 0 0-.72-3.91c-2.09-2.16-7.18-2.39-6.75-2 1.85 1.78 1 4.11 2.23 5.61.92 1.13 2.65 1.19 3.69 1.1a6.39 6.39 0 0 1 1 2.67l-3.38 6.2v.07l-.74 1.39-2.45.19A22.81 22.81 0 0 0 33 27.39l-.34-.63c-.46-.73-.9-1-1.23-.56s-.55.75-.79 1.12a1.46 1.46 0 0 0-1.35 2.57 10.55 10.55 0 0 0 .36 8.82c.45.9 1.23 2.37 1.95 3.54a1.51 1.51 0 0 0 .5.51l-3.23 6.12a12.78 12.78 0 0 0-.1-2.17 4.92 4.92 0 0 0-3 2.32 15.62 15.62 0 0 0-2.28-7.73c-.17-.77-1.15-3.71-6.28-4.79a4.87 4.87 0 0 0 1.75 4.2 4.55 4.55 0 0 0 3.95 1 14.35 14.35 0 0 1 2.13 8 13.57 13.57 0 0 0-4-4.48 4.83 4.83 0 0 0-3.15-1 4.5 4.5 0 0 0-3.79 2.44s2.55 2.25 7.3-.29a12.31 12.31 0 0 1 3.05 3.69 10.88 10.88 0 0 0-3.07-2.24 4.89 4.89 0 0 0 .58 4.52 4.63 4.63 0 0 0 4.07 2l-3.76 7.1c-.53-.37-1.06-.78-1.53-1.16.87-1.26 1.16-2.51.63-2.93s-1.92.3-3 1.68-1.49 2.86-.91 3.31 1.68-.17 2.69-1.31a19.46 19.46 0 0 0 1.65 1.3l-2.53 4.78a32 32 0 0 1-5.31-3.85c1.77-2.38 2.68-4.62 2-5.13s-2.86 1.08-4.84 3.61-3 5-2.36 5.56 2.43-.78 4.22-2.87a25.37 25.37 0 0 0 5.55 4l-6 11.33a1.11 1.11 0 0 0 1 1.64H82a1.12 1.12 0 0 0 1-1.64l-6.69-12.71a7.74 7.74 0 0 1-.13-4.78 6.35 6.35 0 0 1 3.5-3.34c.83-.48 2.9-2 2.23-4.53 0 0-.65-3.83-6-1.95 0 0-3.09 1.39-5.74 3l-2.27-4.34a8.32 8.32 0 0 1 2-.45c3.13-.34 6.11-.68 7.19-.84s4.74-1 6.22-3a7 7 0 0 0 .65-7C83.25 38 80.92 35.48 76 36zm-46.2-6.53a.84.84 0 1 1 1.14-.35.84.84 0 0 1-1.19.32zm1 7.43a3 3 0 0 1 .93-.79 1.84 1.84 0 0 1 1.47-.1 2.94 2.94 0 0 1 1.3 1.26 6.22 6.22 0 0 0 .28-.94 3.34 3.34 0 0 0 .15-.91l1.3-.3L34.12 39l-.07.14s-.68-4.04-3.31-2.27zm46.1 17.64c2-.59 2.55-.14 2.93.43s0 1.85-1.18 2.53-3.7 2.81-3.89 4.82a7 7 0 0 0 .15 2.08l-3.51-6.72c1.92-1.17 4.14-2.75 5.5-3.14zm.7 23.26H17.48l30.21-57.11zm3-34.32c-.32 1.47-2.37 2.72-3.9 2.82s-7.73.56-10.37 1.76l-1-2a13.36 13.36 0 0 0 6.35-3.23c3.33-2.78 6-3.59 7.47-2.58s1.79 1.75 1.48 3.23z"/><path class="cls-2" d="M22.46 74.8h50.18l-25-47.67zm25.08-5.38a2.65 2.65 0 1 1 2.64-2.64 2.65 2.65 0 0 1-2.64 2.64zm1.38-8h-2.76L45 41.84h5.14zM80.26 21.08L78.7 19.5c-.14.25-.31.48-.47.71l1.32 1.33c.23-.16.45-.32.71-.46zM77.29 21.6l.85.87.72-.46-1.11-1.11-.46.7zM76.31 23.26l.17.17.94-.52-.58-.58c-.18.3-.36.61-.53.93z"/><path class="cls-2" d="M84.23 21.26A5.62 5.62 0 0 0 81.45 20c.07-.14.15-.28.21-.43a2.84 2.84 0 0 0 .2-.68 4.21 4.21 0 0 0 .06-.82c0-.16-.11-.17-.18-.18a3.56 3.56 0 0 0-.82.05 3.48 3.48 0 0 0-.69.19c-.15.06-.3.14-.44.21a5.55 5.55 0 0 0-1.23-2.81c-1-1.44-2.23-2.35-2.67-2s-.15 1 .35 2c-1-.45-1.85-.58-2-.24s.69 1.59 2.19 2.53a5.87 5.87 0 0 0 2.82 1.07l1.72 1.73a6 6 0 0 0 1 2.84c.93 1.51 2 2.5 2.51 2.22s.23-1-.22-2.05c1 .51 1.76.68 2 .37s-.61-1.69-2.03-2.74z"/></svg>