<svg id="TARGETS" xmlns="http://www.w3.org/2000/svg" viewBox="0 0 94.85 94.85" width="94.85" height="94.85"><defs><style>.cls-1{fill:#c5192d}.cls-2{fill:#fff}</style></defs><title>Goal_4_RGB_NG</title><path class="cls-1" d="M0 0h94.85v94.85H0z"/><path class="cls-2" d="M80 32.15V11.78H45v20.37h.6l1.69-3.25a1.88 1.88 0 0 1 1.67-1 1.9 1.9 0 0 1 .88.21l.15.08a1.89 1.89 0 0 1 .93 1.11 1.85 1.85 0 0 1-.13 1.44L50 32.15h30z"/><path class="cls-2" d="M82.53 8.63H42.32a.5.5 0 0 0-.5.5v25.74a.5.5 0 0 0 .5.5h1.57l.52-1h-1.59V9.63H82v24.74H48.87l-.52 1h34.18a.5.5 0 0 0 .5-.5V9.13a.5.5 0 0 0-.5-.5zM48.07 54.48h34.96v4.11H48.07zM50.23 60.63h2.86v25.58h-2.86zM65.23 60.63h15.85v6.32H65.23zM65.23 68.27h15.85v6.32H65.23zM65.23 75.91h15.85v10.31H65.23zM21.31 29.2a5.55 5.55 0 1 0 8.23-4.83 1.86 1.86 0 0 0 .29-1A2.55 2.55 0 0 0 27 21.19a2.55 2.55 0 0 0-2.79 2.21 1.78 1.78 0 0 0 .21.82 5.53 5.53 0 0 0-3.11 4.98z"/><path class="cls-2" d="M49.28 29.51l-.16-.08a.34.34 0 0 0-.18 0 .37.37 0 0 0-.34.21l-1.33 2.55-1.16 2.22-.53 1-1.34 2.57-.63 1.18h-.69a2 2 0 0 0-1.85 1.06l-2.15 4-1.1-3.58s-1.3-3.34-4.11-4a10.92 10.92 0 0 0-1.29-.15H30.7l-3.84 3.84L23 36.41h-1.7a4.59 4.59 0 0 0-1.2.24c-2.55.87-3.72 3.92-3.72 3.92L12 55s-.8 2.64 1.45 3.3 2.9-1.92 2.9-1.92l3.57-12s.19-.93.88-.73.44 1.19.44 1.19L15 67.32h5.76v16.13a2.78 2.78 0 0 0 5.55 0V67.32h1.58v16.13a2.77 2.77 0 1 0 5.54 0V67.32h5.77L33 44.8s-.26-1 .44-1.19.89.73.89.73l1.18 4 .66 2.21a2 2 0 0 0 3.71.49l.06-.12 4-7.39a2.14 2.14 0 0 0 1.52-2.13 2.22 2.22 0 0 0-1-1.87l2.12-4.07.52-1 1.16-2.22L49.44 30a.39.39 0 0 0-.16-.49z"/></svg>