<svg id="TARGETS" xmlns="http://www.w3.org/2000/svg" viewBox="0 0 94.85 94.85" width="94.85" height="94.85"><defs><style>.cls-1{fill:#26bde2}.cls-2{fill:#000300;opacity:.5}.cls-3{fill:#fff}</style></defs><title>Goal_6_RGB_NG</title><path class="cls-1" d="M0 0h94.85v94.85H0z"/><path class="cls-2" d="M27.71 61.15l1.47-8.55 11.79 8.19-7.05 3.48-6.21-3.12z"/><path d="M31.28 57.58l-.6 3.51 2.31-2.31-1.71-1.2zM36.01 60.87l-5.58 5.57 3.12 1.58 5.23-5.23-2.77-1.92zM41.32 49.55a.94.94 0 1 1-1.22.52.94.94 0 0 1 1.22-.52M35.89 50.49a.92.92 0 0 1 .51 1.21.93.93 0 0 1-1.21.52.93.93 0 1 1 .7-1.73M44.26 55.94a.94.94 0 0 1 .52 1.22.93.93 0 1 1-.52-1.22M42.26 67.15a.94.94 0 0 1 .51 1.21.93.93 0 0 1-1.77-.69.94.94 0 0 1 1.22-.52M27.12 65a.94.94 0 0 1-.7 1.74.94.94 0 0 1 .7-1.74M26.19 52.88a.94.94 0 0 1-.7 1.74.94.94 0 1 1 .7-1.74M29.93 47.63a1 1 0 0 1 .51 1.22.93.93 0 1 1-1.73-.7.94.94 0 0 1 1.22-.52M23.85 47.35a.94.94 0 1 1-1.22.52.94.94 0 0 1 1.22-.52M35.89 73.49a.94.94 0 0 1-.7 1.74.94.94 0 0 1 .7-1.74M31.47 78a.93.93 0 1 1-1.22.51.94.94 0 0 1 1.22-.51M29 72.15a.94.94 0 1 1-1.22.52.94.94 0 0 1 1.22-.52M41.32 75.84a.93.93 0 0 1 .52 1.21.94.94 0 0 1-1.22.52.93.93 0 0 1-.52-1.21.94.94 0 0 1 1.22-.52"/><g><path d="M24.84 29.39a.45.45 0 0 1 .16 0 .47.47 0 0 1 .17 0l.18.16c1.72 1.43 9.91 7.46 17.83.37l.23-.21a.36.36 0 0 0 .1-.25v-3.9a.36.36 0 0 0-.37-.37h-.13l-.15.12c-2.4 1.72-10.33 6.47-17.44-.17l-.11-.1a.49.49 0 0 0-.31-.13.43.43 0 0 0-.29.13l-.12.1a11.68 11.68 0 0 1-8.92 3.4l.81 4.66a16.72 16.72 0 0 0 8.19-3.67z"/><path d="M24.84 38.3a.45.45 0 0 1 .16 0 .47.47 0 0 1 .17 0l.18.16c1.72 1.43 9.91 7.46 17.83.37l.23-.21a.36.36 0 0 0 .1-.25v-3.9a.36.36 0 0 0-.37-.37h-.13l-.15.12c-2.4 1.72-10.33 6.47-17.44-.17l-.11-.1a.49.49 0 0 0-.31-.13.43.43 0 0 0-.29.13l-.12.1a11.79 11.79 0 0 1-7.36 3.39l.76 4.4a17.35 17.35 0 0 0 6.68-3.4z"/></g><g><path class="cls-3" d="M66.92 56.59A1.9 1.9 0 0 1 65.16 54a1.88 1.88 0 0 1 1-1 1.92 1.92 0 0 1 1.47 0 1.91 1.91 0 0 1 1 1 1.87 1.87 0 0 1 0 1.45 1.91 1.91 0 0 1-1.71 1.14zm0-3.32a1.5 1.5 0 0 0-.55.11 1.4 1.4 0 0 0-.76.77 1.42 1.42 0 0 0 0 1.09 1.42 1.42 0 0 0 2.61 0 1.35 1.35 0 0 0 0-1.06 1.45 1.45 0 0 0-.77-.77 1.39 1.39 0 0 0-.52-.14zM56.25 69.93a1.93 1.93 0 0 1-1.75-1.16 1.92 1.92 0 0 1 0-1.47 1.89 1.89 0 0 1 1-1 1.92 1.92 0 0 1 1.47 0 1.93 1.93 0 0 1 1 1 1.87 1.87 0 0 1 0 1.45 1.93 1.93 0 0 1-1.72 1.18zm0-3.33a1.33 1.33 0 0 0-.55.12 1.4 1.4 0 0 0-.76.77 1.4 1.4 0 0 0 .79 1.84 1.4 1.4 0 0 0 1.83-.79 1.37 1.37 0 0 0 0-1.07 1.44 1.44 0 0 0-1.3-.87zM55.32 51.6a1.09 1.09 0 0 1-.43-.08 1.17 1.17 0 0 1-.65-.64 1.13 1.13 0 0 1 0-.9 1.18 1.18 0 0 1 1.54-.66 1.18 1.18 0 0 1-.45 2.28zm0-1.87a.66.66 0 0 0-.27.06.67.67 0 0 0-.37.37.7.7 0 0 0 0 .53.67.67 0 0 0 .37.37.7.7 0 0 0 .89-.39.69.69 0 0 0-.38-.89.7.7 0 0 0-.23-.05zM58.24 59.22a1.12 1.12 0 0 1-.44-.09 1.15 1.15 0 0 1-.65-.63 1.19 1.19 0 0 1 .63-1.56 1.17 1.17 0 0 1 .9 0 1.2 1.2 0 0 1 .65 1.54 1.2 1.2 0 0 1-1.09.74zm0-1.87a.65.65 0 0 0-.63.43.67.67 0 0 0 0 .52.66.66 0 0 0 .38.37.68.68 0 0 0 .88-.38.7.7 0 0 0 0-.53.67.67 0 0 0-.37-.37.78.78 0 0 0-.26-.04zM65.27 75.29a1.12 1.12 0 0 1-.44-.09 1.15 1.15 0 0 1-.65-.63 1.19 1.19 0 0 1 .63-1.57 1.17 1.17 0 0 1 .9 0 1.19 1.19 0 0 1 .66 1.54 1.21 1.21 0 0 1-1.1.75zm0-1.88a.7.7 0 0 0-.63.43.69.69 0 0 0 0 .53.66.66 0 0 0 .38.37.68.68 0 0 0 .88-.38.69.69 0 0 0-.37-.9.8.8 0 0 0-.26-.05zM48.55 80.13h-1.69v-4.74h1.69zm0-8.81h-1.69v-4.74h1.69zm0-8.81h-1.69v-4.74h1.69zM48.55 53.75h-1.69V49h1.69zm0-8.82h-1.69v-4.74h1.69zM48.55 36.34h-1.69V31.6h1.69zm0-8.81h-1.69v-4.74h1.69zm0-8.81h-1.69V14h1.69z"/><path class="cls-3" d="M85.07 9.28A.88.88 0 0 0 84.4 9h-74a.89.89 0 0 0-.66.3.9.9 0 0 0-.19.7L22 85.14a.87.87 0 0 0 .85.72h49.94a.85.85 0 0 0 .85-.74L85.27 10a.87.87 0 0 0-.2-.72zm-4 19.16l-.77 4.86a12.06 12.06 0 0 1-1.61-.13L78 37.43a11.3 11.3 0 0 0 1.64.06l-.73 4.62a12.07 12.07 0 0 1-1.61-.32l-6.48 40.57-45.76-.06L18 41.86l-.76-4.4-.75-4.24-.81-4.66-2.86-16.31H82l-2.57 16.33a12.5 12.5 0 0 0 1.63-.14z"/><path class="cls-3" d="M70.86 25.06a.48.48 0 0 0-.3-.13.44.44 0 0 0-.3.13l-.12.1c-7 6.53-14.8 2-17.33.25l-.2-.15a.38.38 0 0 0-.19-.05.36.36 0 0 0-.36.32v3.94a.35.35 0 0 0 .1.21c8 7.39 16.31 1.27 18-.18l.17-.16a.47.47 0 0 1 .17 0h.17l.17.16a16.85 16.85 0 0 0 7.79 3.62 12.06 12.06 0 0 0 1.61.13l.76-4.86a12.5 12.5 0 0 1-1.63.14A11.72 11.72 0 0 1 71 25.16z"/><path class="cls-3" d="M70.86 34a.48.48 0 0 0-.3-.13.44.44 0 0 0-.3.13l-.12.1c-7 6.53-14.8 2-17.33.25l-.2-.15a.38.38 0 0 0-.19-.05.36.36 0 0 0-.36.32v3.94a.32.32 0 0 0 .1.21c8 7.39 16.31 1.27 18-.18l.17-.16a.47.47 0 0 1 .17 0h.17l.17.16a17.39 17.39 0 0 0 6.41 3.33 12.07 12.07 0 0 0 1.61.32l.73-4.62a11.3 11.3 0 0 1-1.59-.04 11.89 11.89 0 0 1-7-3.36z"/></g></svg>