<svg id="TARGETS" xmlns="http://www.w3.org/2000/svg" viewBox="0 0 94.8 94.88" width="94.8" height="94.8"><style>.st0{fill:#a21942}.st1{fill:#fff}</style><title>Goal_8_RGB_NG</title><path class="st0" d="M0 0h94.8v94.8H0z"/><path class="st1" d="M42 42.6c.8.3 1.7-.2 2-1l1.5-4.2 2.3-.8h.1v6.9c0 1.6.5 3.1 2.1 3.5l.5.1c.3 0 .5.1.8.1H59l2.1 4v.1l.8 1.4.7 1.4.1.1.8 1.5c.5 1 1.7 1.4 2.7.9 1-.5 1.4-1.7.9-2.7l-1.6-3v-.1l-3.7-7.2c-.3-.7-1-1.1-1.8-1h-5.2l-.1-6.5c-.1-2-.5-3.1-2.1-3.5-.7-.1-1.5-.1-2.3 0l-.2.1-6.2 2h-.1l-.2.1h-.1c-.3.2-.5.5-.7.8l-1.7 5c-.2.8.1 1.7.9 2z"/><path class="st1" d="M48.3 59.9c5.4 0 9.8-4.5 9.8-9.9v-.4h-2.4v.4c0 4.1-3.3 7.4-7.4 7.5-4.1 0-7.4-3.3-7.5-7.4 0-1.7.5-3.3 1.5-4.6L40.5 44c-3.3 4.3-2.6 10.4 1.7 13.7 1.8 1.4 3.9 2.2 6.1 2.2zM47.7 27.6c0 2.1 1.7 3.8 3.8 3.8 2.1 0 3.8-1.7 3.8-3.8 0-.3 0-.6-.1-.8h-7.4c-.1.2-.1.5-.1.8zM55.7 24.6h-.4c-.3-1.1-1-2-2-2.5l-.6 1.7v-2.6h-2v2.6L50 22c-1.1.5-2 1.4-2.3 2.6h-.4V26h8.5l-.1-1.4z"/><g><path class="st1" d="M24.6 22.5c2.1 0 3.8-1.7 3.8-3.8 0-2.1-1.7-3.8-3.8-3.8-2.1 0-3.8 1.7-3.8 3.8 0 2.1 1.7 3.8 3.8 3.8zM35.5 37.6l-3.2-10.3s-1.1-3-3.7-3h-1.2l-2.6 4.3-3-4.3h-1.2c-2.5 0-3.6 3-3.6 3l-3.1 10.4c-.1.4-.1.8 0 1.2h-.4c-.5 0-.9.4-.9.9v.8h-3c-.5 0-.9.4-.9.9v1.7c0 .2 0 .3.1.5.2.8.9 1.3 1.7 1.3h3.4v-.7c0-.2.2-.4.4-.5h.7c.2 0 .4.2.4.4v.7h3.4c.8 0 1.5-.6 1.7-1.3v1.3c-.4.5-1 .8-1.7.9h-3.4v.7c0 .2-.2.5-.4.5h-.8c-.2 0-.4-.2-.4-.5v-.7h-3.4c-.7 0-1.3-.4-1.7-.9 0 0 0-.1-.1-.1v4.5c0 .5.4.9.9.9l10.3-.1c.1 0 .3 0 .4-.1v8.1c0 1.1.9 2 2 2s2-.9 2-2l-.1-11.5h1.1l.1 11.6c0 1.1.9 2 2 2s2-.9 2-2l-.1-11.5h4.1l-4.5-16.2s-.2-.7.3-.9.6.5.6.5l2.6 8.6s.5 1.8 2.1 1.4 1.1-2.5 1.1-2.5zm-22.4 2.9v-.7c0-.1.1-.2.2-.2h.8c.2.2.5.4.8.5.4.1.8.1 1.1-.1v.5h-2.9zm7.3-10.1l-2.7 10.1h-1v-.8c0-.1 0-.2-.1-.3.2-.2.3-.5.4-.7l2.5-8.6s.1-.7.6-.5.3.8.3.8z"/><path class="st1" d="M14.3 44.4h.6c.1 0 .1.1.1.1v1.6c0 .1-.1.1-.1.1h-.6c-.1 0-.1-.1-.1-.1v-1.6c0-.1 0-.1.1-.1z"/></g><g><path class="st1" d="M72 57.6c0 1.2.9 2.1 2.1 2.1s2.1-.9 2.1-2.1V56H72v1.6zM79.5 59.7c1.2 0 2.1-.9 2.1-2.1V56h-4.2v1.6c0 1.2.9 2.1 2.1 2.1zM67.7 31v8.7c0 .8.7 1.5 1.5 1.5s1.5-.7 1.5-1.5v-9c0-.3.1-.8.7-.8h1.5v-5.7h-.6c-2.6.2-4.6 2.4-4.6 5V31zM79 24.1h-2.3l-2.2.1.1 3.3h4.5z"/><path class="st1" d="M76.8 41.2c.3 0 .6.2.6.5V55h4.2l-.1-24.2h-1.8v-2.4h-5.8v2.4h-2l.1 24.3h4.2V41.8c0-.3.2-.5.6-.6z"/><path class="st1" d="M80.7 27.8v2.1h1.4c.6 0 .7.5.7.8v9c.1.8.8 1.4 1.6 1.3.7-.1 1.3-.6 1.3-1.3V29.2c0-2.6-2-4.8-4.6-5h-.5v3.6h.1zM80.3 27.8c0-.2-.2-.4-.4-.4s-.4.2-.4.4.2.4.4.4.4-.2.4-.4zM74.2 27.8c0-.2-.2-.4-.4-.4s-.4.2-.4.4.2.4.4.4.4-.2.4-.4zM76.6 22.2c2.2 0 4-1.8 4-4.1s-1.8-4-4.1-4c-2.2 0-4 1.8-4 4.1 0 2.2 1.8 4 4.1 4z"/></g><g><path class="st1" d="M85.6 67.4H9.1c-.3 0-.5.2-.6.5v3.6c0 .3.3.6.6.6h76.6c.3 0 .6-.2.6-.6v-3.6c-.1-.3-.4-.5-.7-.5zM46.9 73.9l-5.3 9.2c-.2.4.1.9.5.9h10.7c.5 0 .8-.5.5-.9L48 73.9c-.2-.4-.8-.4-1.1 0z"/></g></svg>