<svg id="TARGETS" xmlns="http://www.w3.org/2000/svg" viewBox="0 0 94.85 94.85" width="94.85" height="94.85"><defs><style>.cls-1{fill:#ff3a21}.cls-2{fill:none}.cls-3{fill:#fff}</style></defs><title>Goal_5_RGB_NG</title><path class="cls-1" d="M0 0h94.85v94.85H0z"/><path class="cls-2" d="M30.8 55.75a3.42 3.42 0 0 0 2.35.61 1.85 1.85 0 0 1-.32-.47c-.74-1.54 1.08-2.4 1.08-2.4l.73-.33 1.91-.86h-.61l-6.41-.59a3.48 3.48 0 0 0 1.27 4.04zM31.67 48.41L30 50.86l3.06.27zM36.91 51.56h.19l.84.08 1.26-1.83a3.47 3.47 0 0 0-.7-4.57c-.08-.06-.14-.13-.23-.19a3.5 3.5 0 0 0-4.79.75l-.58.83-.72 1 1.68 3.61zm-3.34-4a2.64 2.64 0 0 1 .43-1.18 2.75 2.75 0 0 1 3.81-.68 2.74 2.74 0 0 1 .66 3.8h-.05a2.79 2.79 0 0 1-1.63 1.06 2.75 2.75 0 0 1-2.14-.43 2.71 2.71 0 0 1-1.08-2.6z"/><path class="cls-3" d="M35.57 35.68a3.89 3.89 0 1 0-3.88 3.89 3.89 3.89 0 0 0 3.88-3.89zM23.86 44.49L20.63 55a2.4 2.4 0 0 0 .17 1.77 1.65 1.65 0 0 0 1.71.66c1-.23 1.3-1.43 1.3-1.43l2.6-8.78s.14-.67.65-.52.32.86.32.86L22.85 64h4.21v11.81a2 2 0 0 0 4.05 0V64h1.15v11.81a2 2 0 0 0 4.05 0V64h4.22l-2.44-8.85c1.44-.63 3.13-1.37 3.47-1.53a.81.81 0 0 0 .44-.92s-1.76-7.14-1.77-7.2c-.25-.94-1.39-3.82-3.86-4.06H36a1.92 1.92 0 0 0-.24 0h-8.19c-2.57.01-3.71 3.05-3.71 3.05zm9 2.14l.58-.83a3.5 3.5 0 0 1 4.79-.75c.09.06.15.13.23.19a3.47 3.47 0 0 1 .7 4.57l-1.26 1.83-.84-.08h-.19l-3-.28-1.68-3.61zm-3 4.26l1.72-2.45L33 51.19l-3.06-.27zm-.4.77l6.41.59h.61l-1.91.86-.73.33s-1.82.86-1.08 2.4a1.85 1.85 0 0 0 .32.47 3.42 3.42 0 0 1-2.35-.61 3.48 3.48 0 0 1-1.2-4.04z"/><path class="cls-3" d="M34.7 50.2a2.75 2.75 0 0 0 2.14.43 2.79 2.79 0 0 0 1.63-1.06h.05a2.74 2.74 0 0 0-.66-3.8 2.75 2.75 0 0 0-3.81.68 2.64 2.64 0 0 0-.45 1.15 2.71 2.71 0 0 0 1.1 2.6zM43.67 62.46l-2.14 6.42s-.34 1 .61 1.28a1 1 0 0 0 1.23-.74l1.79-5.5s.07-.36.36-.28.19.45.19.45l-2.11 7.47h1.59v4.8a1.48 1.48 0 0 0 2 1.39 1.5 1.5 0 0 0 1-1.45v-4.56a.9.9 0 0 1 0-.18H49a.9.9 0 0 1 0 .18v4.57a1.5 1.5 0 0 0 1 1.45 1.48 1.48 0 0 0 2-1.4v-4.8h1.59l-1.5-5.51a2.39 2.39 0 0 1-.09-.66v-.73a1.92 1.92 0 0 1 .19-.72l3.38-6.09a1.57 1.57 0 0 0 1.21-1.52v-9.66c0-.36.1-.86.76-.86.46 0 .56.49.57.8v29a2.26 2.26 0 0 0 4.52 0V58.88a.63.63 0 0 1 .65-.66.62.62 0 0 1 .64.66v16.69a2.26 2.26 0 0 0 4.52 0v-29c0-.31.11-.8.57-.8.66 0 .77.5.77.86v9.66a1.58 1.58 0 0 0 3.15 0V45.08A5.41 5.41 0 0 0 68 39.69H58.52a5.41 5.41 0 0 0-4.92 5.39v11.25a1.55 1.55 0 0 0 .07.43l-.41.68c-.09.07-1.48 2.55-1.95 3a1.21 1.21 0 0 1-.92.44h-4.92c-1.37.01-1.8 1.58-1.8 1.58z"/><path class="cls-3" d="M51.59 56.53a3 3 0 1 0-3 3 3 3 0 0 0 3-3zM67.31 34.07a4.06 4.06 0 1 0-4.05 4 4.05 4.05 0 0 0 4.05-4z"/><path class="cls-3" d="M87.11 25.52L47.89 8.58a.77.77 0 0 0-.42-.1 1 1 0 0 0-.33.1L8 25.47a.4.4 0 0 0-.25.39v3.95c0 .31 0 .65.48.49l39.06-16.14a.52.52 0 0 1 .18 0 .54.54 0 0 1 .19 0L86.77 30.3c.47.16.48-.07.48-.49v-3.95a.36.36 0 0 0-.14-.34z"/><rect class="cls-3" x="7.6" y="82.6" width="79.56" height="4.74" rx=".57" ry=".57"/></svg>