<svg id="TARGETS" xmlns="http://www.w3.org/2000/svg" viewBox="0 0 94.85 94.85" width="94.85" height="94.85">
  <defs>
    <style>
      .cls-2{fill:#fff}
    </style>
  </defs>
  <path d="M0 0h94.85v94.85H0z" fill="#e5243b"/>
  <path class="cls-2" d="M80.25 57.51a2.76 2.76 0 1 0-2.75-2.75 2.75 2.75 0 0 0 2.75 2.75zm3.21 1.06h-6.41a3.67 3.67 0 0 0-3.34 3.65v7.63a1.07 1.07 0 0 0 2.14 0V63.3c0-.25.06-.58.52-.58.3 0 .37.33.38.54v19.63a1.53 1.53 0 0 0 3.06 0V71.58a.43.43 0 0 1 .45-.45.41.41 0 0 1 .43.45v11.31a1.54 1.54 0 0 0 3.07 0V63.26c0-.21.08-.54.39-.54s.52.33.52.58v6.55a1.07 1.07 0 0 0 2.13 0v-7.63a3.66 3.66 0 0 0-3.34-3.65zm-26.34.26a2.6 2.6 0 1 0-2.6-2.6 2.59 2.59 0 0 0 2.6 2.6zm3.1 4.78c.34-.1.43.35.43.35l1.74 5.87s.33 1.26 1.42.94.71-1.61.71-1.61l-2.16-7s-.77-2-2.48-2h-5.51c-1.71 0-2.49 2-2.49 2l-2.16 7s-.38 1.29.71 1.61 1.42-.94 1.42-.94L53.59 64s.1-.45.44-.35.21.58.21.58l-3 11H54v7.88a1.36 1.36 0 1 0 2.71 0v-7.92h.77v7.88a1.36 1.36 0 1 0 2.71 0v-7.88H63l-3-11s-.12-.49.22-.58zm-18.68-4.82a2.6 2.6 0 1 0-2.6-2.6 2.59 2.59 0 0 0 2.6 2.6zm5.24 3.29s-.77-2-2.48-2h-5.51c-1.71 0-2.49 2-2.49 2l-2.16 7s-.38 1.29.71 1.61 1.42-.94 1.42-.94L38 63.92s.1-.45.44-.35.21.58.21.58l-3 11h2.82V83a1.36 1.36 0 1 0 2.71 0v-7.85h.77V83a1.35 1.35 0 1 0 2.7 0v-7.85h2.83l-3-11s-.12-.49.21-.58.44.35.44.35l1.74 5.87s.33 1.26 1.42.94.71-1.61.71-1.61zm-30.24-4.27a2.73 2.73 0 1 0-2.72-2.72 2.72 2.72 0 0 0 2.72 2.72zm3.18 1.05h-6.41a3.63 3.63 0 0 0-3.29 3.61V70a1.06 1.06 0 0 0 .41.82L8.07 83.58a.4.4 0 0 0 .32.49h.08a.43.43 0 0 0 .41-.34L11.27 71a1 1 0 0 0 .91-1v-6.46c0-.24.06-.57.51-.57s.37.32.38.53v19.42a1.52 1.52 0 1 0 3 0V71.73a.43.43 0 0 1 .44-.45.41.41 0 0 1 .43.45v11.19a1.52 1.52 0 0 0 3 0V63.5c0-.21.07-.53.38-.53s.51.33.51.57V70A1.06 1.06 0 0 0 23 70v-7.53a3.62 3.62 0 0 0-3.28-3.61zM69 70.55a2.21 2.21 0 1 0-2.2-2.21 2.21 2.21 0 0 0 2.2 2.21zm4.44 4.27c-1.34-3.42-1.56-3.4-2.76-3.44h-3.37c-1.21 0-1.43 0-2.76 3.44-.19.49-1 2.4-1 2.49s-.34.81.41 1.07.92-.55.92-.55l1.36-3.35s0-.07.08-.07 0 .07.06.11v8.71a1.14 1.14 0 0 0 1.14 1.18 1.12 1.12 0 0 0 1.11-1.18v-3.48s0-.53.35-.52.34.52.34.52v3.48a1.14 1.14 0 0 0 1.14 1.18 1.12 1.12 0 0 0 1.11-1.18v-8.82l.1.07 1.22 3s.36.8 1 .49.32-1 .32-1-.58-1.66-.77-2.15zm-40.39-5.55a.82.82 0 0 0-1.1.35 21.71 21.71 0 0 1-1.38 2.12.89.89 0 0 1-.68.32h-2.63a.89.89 0 0 1-.68-.32 25 25 0 0 1-1.41-2.2.78.78 0 0 0-.68-.37.81.81 0 0 0-.8.8 1.39 1.39 0 0 0 .08.34l2.2 4a1.41 1.41 0 0 1 .13.52v.59a2.42 2.42 0 0 1-.11.67l-1 4.17h1.11v3.1a1.08 1.08 0 0 0 2.15 0v-3a.45.45 0 0 1 0-.13h.65v3.1a1.08 1.08 0 0 0 2.15 0v-3.1h1.16l-1.07-4.16a2.09 2.09 0 0 1-.09-.55v-.72a1.41 1.41 0 0 1 .13-.52l2-3.67.19-.39a.7.7 0 0 0-.32-.95z"/>
  <path class="cls-2" d="M28.57 70.69a2.18 2.18 0 1 0-2.17-2.18 2.18 2.18 0 0 0 2.17 2.18zm55.36-60.28l-8.7 3 2.36 2.06-14 16.74-8.19-7.93a1.51 1.51 0 0 0-2.24.16L40.31 41.13H11.55a1.5 1.5 0 0 0 0 3h29.5a1.48 1.48 0 0 0 1.19-.58l12.27-16 8.14 7.89a1.5 1.5 0 0 0 2.19-.11l15-17.94 2.31 2zM23.31 33.86a5.37 5.37 0 0 1-1.36.61 13.82 13.82 0 0 1-4.26.52 17 17 0 0 1-2.11-.16c-.48-.07-.84-.14-1.28-.24l-.63-.17a5.13 5.13 0 0 1-1.66-.8 1.88 1.88 0 0 1-.47-.5v1.39a1.2 1.2 0 0 0 .49.9 6.8 6.8 0 0 0 3.31 1.23 15.5 15.5 0 0 0 2.43.18 14.51 14.51 0 0 0 3.48-.39 6.65 6.65 0 0 0 1.76-.69c.58-.35.92-.77.92-1.21v-1.37a2.91 2.91 0 0 1-.62.7zm-6.12-4.22c3.44 0 6.23-1 6.23-2.31 0 0 .07-1.19 0-1.44a1.42 1.42 0 0 0-.11-.5 1.39 1.39 0 0 0 .71-1s.06-1.33 0-1.59c-.17-1.55-3.31-2.39-6.26-2.39s-6.29.89-6.29 2.53l.06 1.45a.92.92 0 0 0 .08.27 1.59 1.59 0 0 0-.79 1.27l.06 1.44a1.25 1.25 0 0 0 .49.9 7 7 0 0 0 3.32 1.23 16.55 16.55 0 0 0 2.5.14zm.65-8.64c3.32 0 5.63 1 5.63 1.88s-2.31 1.89-5.63 1.89-5.64-1-5.64-1.89S14.52 21 17.84 21zm-6.29 4.87a1 1 0 0 1 .49-.71 3 3 0 0 0 .64.46 11.52 11.52 0 0 0 5.16 1 13.14 13.14 0 0 0 4.41-.62 5.46 5.46 0 0 0 .54-.24.8.8 0 0 1 0 .15c0 .89-2.31 1.88-5.63 1.88s-5.61-1.01-5.61-1.9z"/>
  <path class="cls-2" d="M15.34 34.41a15.27 15.27 0 0 0 2.42.18 14.65 14.65 0 0 0 3.49-.39 6.8 6.8 0 0 0 1.76-.69 2.44 2.44 0 0 0 .39-.28 1.5 1.5 0 0 0 .47-.6 1 1 0 0 0 .06-.33v-1.37c-.21.26-.74 1.08-3.2 1.58a18 18 0 0 1-3.17.27 11.83 11.83 0 0 1-5-1 4.28 4.28 0 0 1-.78-.54 3.16 3.16 0 0 1-.38-.47v1.53a1.25 1.25 0 0 0 .49.87 6.94 6.94 0 0 0 3.45 1.24z"/>
  <path class="cls-2" d="M23.91 28.13a.79.79 0 0 0-.15-.14l-.26-.15a1.48 1.48 0 0 1-.28.37 1.22 1.22 0 0 1 .24.14.56.56 0 0 1 .29.47.5.5 0 0 1-.22.41 1.5 1.5 0 0 1-.24.18l-.36.2s-.38.18-.55.24l-.55.18-.74.17-.95.16-1 .09-1.44.07a14.83 14.83 0 0 1-2-.15c-.48-.07-1-.16-1.41-.26a10.33 10.33 0 0 1-1.49-.47 2.65 2.65 0 0 1-.77-.53 2.53 2.53 0 0 1-.49-.65v1.57a1.2 1.2 0 0 0 .49.9 6.8 6.8 0 0 0 3.31 1.23 15.46 15.46 0 0 0 2.43.19 14.63 14.63 0 0 0 3.49-.4 6.88 6.88 0 0 0 1.77-.69 2.88 2.88 0 0 0 .38-.28 1.5 1.5 0 0 0 .47-.6.78.78 0 0 0 .07-.33l.05-1.34a.81.81 0 0 0-.05-.32.45.45 0 0 0-.04-.26zm7.63-2.99c3.44 0 6.23-1 6.23-2.31 0 0 .07-1.19 0-1.44a1.42 1.42 0 0 0-.11-.5 1.4 1.4 0 0 0 .7-1s.06-1.33 0-1.59c-.16-1.55-3.3-2.39-6.26-2.39s-6.28.89-6.28 2.53l.06 1.45a.9.9 0 0 0 .07.27 1.57 1.57 0 0 0-.78 1.27l.06 1.44a1.21 1.21 0 0 0 .49.9A7 7 0 0 0 29.11 25a16.8 16.8 0 0 0 2.43.14zm.64-8.62c3.32 0 5.63 1 5.63 1.88s-2.31 1.89-5.63 1.89-5.63-1-5.63-1.89 2.31-1.88 5.63-1.88zm-6.28 4.87a1 1 0 0 1 .49-.71 2.93 2.93 0 0 0 .63.46 11.52 11.52 0 0 0 5.16 1 13.14 13.14 0 0 0 4.41-.68 5.46 5.46 0 0 0 .54-.24.42.42 0 0 1 0 .15c0 .89-2.32 1.88-5.64 1.88s-5.59-.97-5.59-1.86z"/>
  <path class="cls-2" d="M38.41 23.87a.53.53 0 0 0-.15-.24 1.14 1.14 0 0 0-.16-.14 1.27 1.27 0 0 0-.26-.15 1.48 1.48 0 0 1-.28.37 1.22 1.22 0 0 1 .24.14.57.57 0 0 1 .3.47.54.54 0 0 1-.23.41 1.16 1.16 0 0 1-.24.18l-.35.2-.55.24-.56.18-.74.17-1 .16-1 .09-1.36.05a15.1 15.1 0 0 1-2-.15c-.48-.07-1-.16-1.41-.26a10.74 10.74 0 0 1-1.49-.47A2.73 2.73 0 0 1 25.92 24v1.57a1.23 1.23 0 0 0 .49.9 6.84 6.84 0 0 0 3.32 1.23 15.23 15.23 0 0 0 2.42.19 14.63 14.63 0 0 0 3.49-.4 6.8 6.8 0 0 0 1.76-.69 2.44 2.44 0 0 0 .39-.28 1.5 1.5 0 0 0 .47-.6 1 1 0 0 0 .06-.33l.05-1.34a.66.66 0 0 0 .04-.38zm-.72 5.49a5.46 5.46 0 0 1-1.37.61 13.75 13.75 0 0 1-4.25.52 17.14 17.14 0 0 1-2.07-.16c-.47-.07-.83-.14-1.28-.24l-.72-.17a5.22 5.22 0 0 1-1.66-.8 1.7 1.7 0 0 1-.46-.5v1.39a1.23 1.23 0 0 0 .49.9 6.84 6.84 0 0 0 3.32 1.23 15.27 15.27 0 0 0 2.42.18 14.65 14.65 0 0 0 3.49-.39 6.94 6.94 0 0 0 1.76-.69c.58-.35.92-.77.92-1.21 0 0 .05-1.26 0-1.37a2.81 2.81 0 0 1-.59.7z"/>
  <path class="cls-2" d="M26.4 28.68a6.9 6.9 0 0 0 3.31 1.23 15.5 15.5 0 0 0 2.43.18 14.65 14.65 0 0 0 3.49-.39 6.65 6.65 0 0 0 1.79-.7 2.88 2.88 0 0 0 .38-.28 1.5 1.5 0 0 0 .47-.6 1 1 0 0 0 .07-.33v-1.37c-.21.26-.75 1.08-3.2 1.58a18.13 18.13 0 0 1-3.18.27 11.75 11.75 0 0 1-5-1 4.28 4.28 0 0 1-.78-.54 2.57 2.57 0 0 1-.38-.47v1.53a1.21 1.21 0 0 0 .6.89zm12.07 4.43a2.81 2.81 0 0 1-.75.72 5.15 5.15 0 0 1-1.37.6 13.67 13.67 0 0 1-4.25.57 16.85 16.85 0 0 1-2.1-.2 12.8 12.8 0 0 1-1.29-.25l-.63-.16a5.7 5.7 0 0 1-1.66-.8 1.84 1.84 0 0 1-.46-.5v1.39a1.25 1.25 0 0 0 .49.9 6.94 6.94 0 0 0 3.32 1.23 15.27 15.27 0 0 0 2.42.18 14.65 14.65 0 0 0 3.49-.39 7.17 7.17 0 0 0 1.76-.69c.58-.36.92-.77.92-1.21.08-.02.13-1.28.11-1.39z"/>
  <path class="cls-2" d="M29.74 34.38a15.5 15.5 0 0 0 2.43.18 14.65 14.65 0 0 0 3.49-.39 6.89 6.89 0 0 0 1.77-.68 2.16 2.16 0 0 0 .38-.27 1.5 1.5 0 0 0 .47-.6.78.78 0 0 0 .07-.33v-1.37c-.21.26-.74 1.08-3.2 1.58a19.05 19.05 0 0 1-3.18.27 11.58 11.58 0 0 1-5-1 3.81 3.81 0 0 1-.78-.53 3 3 0 0 1-.38-.47v1.52a1.21 1.21 0 0 0 .49.88 6.9 6.9 0 0 0 3.44 1.21z"/>
</svg>
