<svg id="TARGETS" xmlns="http://www.w3.org/2000/svg" viewBox="0 0 94.8 94.88" width="94.8" height="94.8"><style>.st0{fill:#19486a}.st1{fill:#fff}</style><title>Goal_17_RGB_NG</title><path class="st0" d="M0 0h94.8v94.8H0z"/><path class="st1" d="M64.3 55.9l-1-6.5c-24 10.6-40.8 1.2-47.3-4l2.9-2.5c.1-.1.2-.2.1-.3 0-.1-.1-.1-.2-.1l-7-1.2h-.1c-.1 0-.2 0-.2.1 0 0-.1.1-.1.2v.1l.5 6.9v.1c0 .1 0 .2.1.2s.2 0 .3-.1l.1-.1 2.5-2.2c8.7 16.6 31.6 18.2 49.4 9.4z"/><path class="st1" d="M83.8 56.3l-.7-8.3v-.1c0-.1-.1-.1-.2-.2s-.2-.1-.3-.1h-.1l-8 2.8c-.1 0-.2.1-.2.2s0 .2.2.4l3.9 2.5C70.9 61 55.2 76.8 23.7 67.1l.1 7.8c23.2 6.8 49.2.8 56.1-20.5l3.4 2.2.1.1c.2.1.3.1.4 0 .1-.1.1-.2.1-.2l-.1-.2zM30.6 37.7l.1 5.9c10.7 3.4 35.5 2.6 42.1-16.1l2.6 1.6.1.1c.1.1.2.1.3 0 .1 0 .1-.1.1-.2v-.1l-.6-6.2v-.1c0-.1-.1-.1-.1-.1H74.9l-6 2.2c-.1 0-.1.1-.2.1 0 .1 0 .2.1.3l2.9 1.8c-5.3 5.5-16.2 16-41.1 10.8z"/><path class="st1" d="M22.2 17.6l1.2 6.1v.1c0 .1.1.1.1.2.1 0 .2 0 .3-.1l.1-.1 1.9-2.1c6.7 10.8 22.1 11.6 34.9 5.5l-.7-4.7c-17.3 8.2-28.3 2.2-33.2-2L29 18c.1-.1.1-.2.1-.3-.1 0-.1-.1-.2-.1l-6.4-.3h-.1c-.1 0-.1 0-.2.1v.2z"/></svg>