<svg id="TARGETS" xmlns="http://www.w3.org/2000/svg" viewBox="0 0 94.85 94.85" width="94.85" height="94.85"><defs><style>.cls-1{fill:#dda63a}.cls-2{fill:#fff}</style></defs><title>Template_Goal_2_RGB_NG</title><path class="cls-1" d="M0 0h94.85v94.85H0z"/><path class="cls-2" d="M40.93 39.36v1a.46.46 0 0 0 .45.44h11.55a.46.46 0 0 0 .45-.46v-1.09c6.48-2.12 8.79-7.37 9.86-13.76a.15.15 0 0 0 0-.07.47.47 0 0 0-.47-.46H31.2a.47.47 0 0 0-.47.46v.21c1.12 6.46 3.57 11.74 10.18 13.77M53.37 9.27c-.15.22-3.69 5.32.08 9.44 1.73 1.89 1.58 3.56 1.08 4.69H57a6 6 0 0 0-1.67-5.9c-2.78-3 0-7.14.08-7.21A.9.9 0 0 0 55 8.94a1.29 1.29 0 0 0-1.59.33M47.24 23.4h2.42A5.94 5.94 0 0 0 48 17.5c-2.78-3 0-7.14.08-7.21a.9.9 0 0 0-.39-1.35 1.29 1.29 0 0 0-1.59.33c-.16.22-3.7 5.32.07 9.44 1.73 1.89 1.58 3.56 1.09 4.69M38.78 9.27c-.15.22-3.69 5.32.08 9.44 1.73 1.89 1.58 3.56 1.09 4.69h2.42c.49-1.66.28-3.75-1.68-5.9-2.78-3 0-7.14.08-7.21a.9.9 0 0 0-.4-1.35 1.29 1.29 0 0 0-1.59.33M17.15 55.51a3.1 3.1 0 1 0-3.1-3.1 3.11 3.11 0 0 0 3.1 3.1zM20.77 56.71h-7.24a4.13 4.13 0 0 0-3.76 4.12v8.61a1.17 1.17 0 0 0 .58 1 1 1 0 0 0-.07.15l-2.75 14.6a.55.55 0 0 0 .43.64h.11a.54.54 0 0 0 .53-.45l2.76-14.6a.59.59 0 0 0 0-.23 1.19 1.19 0 0 0 .83-1.12v-7.38c0-.28.08-.66.58-.66.35 0 .43.37.44.61v22.15a1.73 1.73 0 0 0 3.46 0V71.39a.5.5 0 1 1 1 0v12.76a1.73 1.73 0 0 0 3.46 0V62c0-.24.09-.61.43-.61.51 0 .59.38.59.66v7.39a1.21 1.21 0 0 0 2.41 0v-8.61a4.14 4.14 0 0 0-3.79-4.12z"/><g><path class="cls-2" d="M47.1 56.18a3 3 0 1 0-3-3 3 3 0 0 0 3 3zM55.7 68.19L53.19 60s-.9-2.37-2.89-2.37h-6.41C41.9 57.64 41 60 41 60l-2.51 8.18s-.45 1.5.82 1.88S41 69 41 69l2-6.83s.11-.53.51-.42.24.68.24.68l-3.53 12.8h3.28v9.17a1.58 1.58 0 0 0 3.15 0v-9.19h.89v9.17a1.58 1.58 0 0 0 3.15 0v-9.17H54l-3.52-12.8s-.15-.56.24-.68.51.42.51.42l2 6.83s.38 1.46 1.65 1.09.82-1.88.82-1.88zm-5 1.7a3.63 3.63 0 1 1-3.63-3.63 3.63 3.63 0 0 1 3.65 3.63z"/><path class="cls-2" d="M48.3 68.06c-.58 0-1 .72-1.22 1-.25-.26-.51-1-1.18-1a1.3 1.3 0 0 0-1.23 1.46 1.51 1.51 0 0 0 .41 1l2 2 2-2a1.47 1.47 0 0 0 .41-1c0-.81-.41-1.46-1.19-1.46z"/></g><g><path class="cls-2" d="M31.54 69.48a2.62 2.62 0 1 0-2.61-2.62 2.62 2.62 0 0 0 2.61 2.62zM37.83 77.1c0-.11-.79-2-1-2.55-1.57-4.07-1.84-4-3.27-4.08h-4c-1.43 0-1.7 0-3.27 4.08-.23.58-1.17 2.84-1.18 3s-.4 1 .48 1.27 1.1-.66 1.1-.66l1.61-4s0-.09.1-.09.06.09.06.13v10.32a1.36 1.36 0 0 0 1.35 1.41 1.33 1.33 0 0 0 1.32-1.41V80.4s-.05-.64.41-.63.41.63.41.63v4.12a1.36 1.36 0 0 0 1.35 1.41 1.33 1.33 0 0 0 1.31-1.41V74.18v-.13c0-.01.11.1.11.1l1.46 3.56s.42.94 1.22.57.43-1.18.43-1.18z"/></g><g><path class="cls-2" d="M59.34 63.89l-2.16 7s-.39 1.28.71 1.59 1.42-.92 1.42-.92l1.75-5.8s.09-.45.43-.35.22.57.22.57L58.66 76.8h2.83v7.79a1.36 1.36 0 0 0 2.72 0V76.8H65v7.79a1.36 1.36 0 0 0 2.72 0V76.8h2.83l-3-10.87s-.13-.47.21-.57.44.35.44.35l1.74 5.8s.34 1.24 1.43.92.71-1.59.71-1.59l-2.17-7s-.77-2-2.49-2h-5.59c-1.71 0-2.49 2-2.49 2M62.14 55.69c0-.4-.46-.86-1.32-.46-1.07.51-1 2.08-1 2.08s0 .24.06.18c.1-.24.35-.64 1.21-.75a1.25 1.25 0 0 0 .45-.15 3.27 3.27 0 0 1 .54-.74c.05-.05.06-.1.06-.16zM68.47 55.23c-.86-.4-1.27.06-1.32.46a1.12 1.12 0 0 0 0 .2 3 3 0 0 1 .48.68 1.46 1.46 0 0 0 .5.17c.86.11 1.11.51 1.21.75 0 .06 0 0 .06-.18s.14-1.57-.93-2.08zM64.63 55.29a2.95 2.95 0 1 0 3 3 2.95 2.95 0 0 0-3-3z"/></g><g><path class="cls-2" d="M87.3 65.61v6.12a1 1 0 0 1-2.07 0v-6.35c0-.24-.07-.56-.5-.56s-.37.32-.38.52v19a1.49 1.49 0 0 1-3 0v-11A.4.4 0 0 0 81 73a.41.41 0 0 0-.42.44v11A1.49 1.49 0 0 1 79 85.87a1.48 1.48 0 0 1-1.48-1.48v-19c0-.2-.09-.52-.38-.52-.44 0-.51.32-.51.56v6.35a1 1 0 0 1-2.06 0v-7.44a3.55 3.55 0 0 1 3.23-3.55h6.23a3.55 3.55 0 0 1 3.23 3.55v1.27zM82.71 56.82c-.23-.19-.41-.36-.79-.18s-.34.19-.63.33a6.49 6.49 0 0 1-1.68.5 5.47 5.47 0 0 1-1.32.09 2.66 2.66 0 0 0 5.29.07 9.68 9.68 0 0 0-.87-.81z"/><path class="cls-2" d="M79.51 56.9a6.38 6.38 0 0 0 1.49-.5c.43-.2.83-.34.83-.34.28-.09.4-.13.56-.08a.83.83 0 0 1 .23.15l.22.18.71.57c.07 0 .14.11.19.1s.08-.47 0-.7a3.81 3.81 0 0 0-.74-1.82.57.57 0 0 0-.57-.27c-.35.06-.35-.18-.59-.33a2.43 2.43 0 0 0-2.33.38 6.07 6.07 0 0 0-1.73 2.38c-.09.22.17.38.51.38a5.79 5.79 0 0 0 1.22-.1z"/></g></svg>