<svg id="TARGETS" xmlns="http://www.w3.org/2000/svg" viewBox="0 0 94.85 94.85" width="94.85" height="94.85"><defs><style>.cls-1{fill:#00689d}.cls-2{fill:#fff}</style></defs><title>Goal_16_RGB_NG</title><path class="cls-1" d="M0 0h94.85v94.85H0z"/><path class="cls-2" d="M84.86 44.31c-.41-9.83-3-12.16-3-12.16a2.16 2.16 0 0 0-1.52-.72L33 30.57a3.75 3.75 0 0 1-.14 2.22l-3.71 9.55a3.64 3.64 0 0 1-.38.7l11.32.3c.29.06.7 1.42.7 1.42.79 3.55 3.61 7.57 8.21 8.38a16.66 16.66 0 0 0 2.7.22 22.93 22.93 0 0 0 6-.85 1 1 0 0 1 .39-.08.61.61 0 0 1 .54.28c3.43 3.56 3.94 20.78 3.94 20.78 0 1.05.53 1.16.74 1.16h.09l17.27-.12c1.06-.07.72-1.26.72-1.26S77.58 56.32 76.56 53s.55-4.73.55-4.73c2.34-2 7.06-3 7.06-3 .83-.09.69-.96.69-.96zM59 47.6s.1 4.18-6.49 4.18c-.5 0-1 0-1.61-.07-8.22-.73-8.39-7.12-8.43-8 0-.29 0-3.18 4.28-3.18a13.49 13.49 0 0 1 2.42.24s2 1.31 1.7 5.56c0 0-.49 2.67-1.51 3.71 0 0-.12.27.09.27a1 1 0 0 0 .4-.14 7.45 7.45 0 0 0 3.78-3.78 6.57 6.57 0 0 0 .19-5.12l.88.21S59.53 43 59 47.6zM30.91 30.54l-2.76-4.85a.69.69 0 0 0-.26-.25l-3.58-1.84-.86-.32-.65 5.81v.08c0 .22-.06.52-.1.86v.07a55.78 55.78 0 0 1-1.27 7.3c-.06.28-.12.5-.16.64a5.83 5.83 0 0 1-.31.71v.06l-.06.1c-.11.19-.22.37-.34.54l-.07.09A4.1 4.1 0 0 1 18.28 41l1.06 1.3a1 1 0 0 0 .45.32l2.14.75a1.16 1.16 0 0 0 .64 0l3.57-.81a1.66 1.66 0 0 0 1.17-1L31 32.07a1.79 1.79 0 0 0-.09-1.53z"/><path class="cls-2" d="M19.12 37.93c.62-1.26 1.22-5.15 1.56-7.89l-9-.28-.06.11.86 4.41 4.21 4.85a2.64 2.64 0 0 0 2.43-1.2zM20.9 28.05l.55-4.83-1.76-3.02-9.7 1.22 2.7 6.37 8.21.26z"/></svg>