<svg id="TARGETS" xmlns="http://www.w3.org/2000/svg" viewBox="0 0 94.85 94.85" width="94.85" height="94.85"><defs><style>.cls-1{fill:#19486a}.cls-2{fill:#fff}</style></defs><title>Goal_17_RGB_NG</title><path class="cls-1" d="M0 0h94.85v94.85H0z"/><path class="cls-2" d="M39.67 45.57a.72.72 0 0 0-.78-.68h-1.11c-.4 0-.8-.12-.92-.55a12.25 12.25 0 0 0-.72-2.14.92.92 0 0 1 .28-1.09c.34-.28.61-.51.93-.8a.76.76 0 0 0 .19-1A10.77 10.77 0 0 0 35.81 37a.74.74 0 0 0-1-.1c-.34.23-.6.4-.92.63s-.72.37-1.07.09c-.65-.49-1.39-1-1.84-1.31a.91.91 0 0 1-.41-1c.11-.43.19-.77.28-1.2a.75.75 0 0 0-.42-.89 10.48 10.48 0 0 0-2.74-.84.73.73 0 0 0-.89.53c-.15.39-.25.67-.38 1s-.36.72-.81.7h-2.26a.92.92 0 0 1-.95-.6c-.16-.41-.29-.73-.47-1.13a.75.75 0 0 0-.86-.48 10.86 10.86 0 0 0-2.71.93.73.73 0 0 0-.41 1c.11.4.19.69.31 1.08s.13.79-.25 1-1.31.93-1.81 1.34a.92.92 0 0 1-1.12.08c-.37-.24-.67-.42-1.05-.65a.76.76 0 0 0-1 .13 10.83 10.83 0 0 0-1.64 2.34.75.75 0 0 0 .22 1c.33.26.56.44.89.68s.57.57.41 1-.53 1.7-.68 2.15a.91.91 0 0 1-.86.72c-.44 0-.79.06-1.22.1a.74.74 0 0 0-.72.67 11 11 0 0 0 0 2.87.74.74 0 0 0 .78.68h1.12c.4 0 .79.12.91.55a16.55 16.55 0 0 0 .76 2.22.93.93 0 0 1-.27 1.09c-.35.28-.61.51-.94.8a.76.76 0 0 0-.18 1 10.41 10.41 0 0 0 1.72 2.29.74.74 0 0 0 1 .1l.93-.63a.81.81 0 0 1 1.07-.09c.31.25 1.39 1 1.83 1.31a.93.93 0 0 1 .42 1c-.11.43-.19.77-.29 1.2a.75.75 0 0 0 .42.89 10.6 10.6 0 0 0 2.74.84.74.74 0 0 0 .9-.53c.14-.39.25-.67.37-1s.36-.72.82-.7h2.25a.92.92 0 0 1 1 .6c.16.41.3.73.47 1.13a.77.77 0 0 0 .87.48 10.86 10.86 0 0 0 2.71-.93.75.75 0 0 0 .41-.95c-.11-.4-.19-.69-.31-1.08s-.14-.79.24-1 1.42-1 1.82-1.34a.92.92 0 0 1 1.12-.08l1 .65a.76.76 0 0 0 1-.13 10.88 10.88 0 0 0 1.65-2.34.74.74 0 0 0-.23-1c-.32-.26-.56-.44-.88-.68s-.58-.57-.41-1 .52-1.62.67-2.15a.92.92 0 0 1 .87-.72c.43 0 .79-.06 1.22-.1a.75.75 0 0 0 .72-.67 10.61 10.61 0 0 0-.06-2.98zM24.61 56.72A9.38 9.38 0 1 1 34 47.37a9.38 9.38 0 0 1-9.39 9.35z"/><path class="cls-2" d="M17.7 44.67c.22.14.37 0 .46-.13s.05-.22 0-.33.11-.2.22-.23a6.29 6.29 0 0 0 .62-.37 2.13 2.13 0 0 1 1.26 0 .64.64 0 0 0 .82-.16 2.41 2.41 0 0 1 .61-.5c.12 0-.3-.44-.64 0s-.52.46-.68.46-1.11-.24-1.23-.55.3-.52.65-.69a8.93 8.93 0 0 1 1.57-.22c.5-.11 1.14-.36 1.46-.13s-1.35.59-.8.88c.2.11 1.08-.5 1.38-.66.71-.36-.69-.49-.5-1.23s-1.64-.54-2.61-.46a8.83 8.83 0 0 0-1.29 1c.12 0 .24.06.26.14a1.1 1.1 0 0 1-.11.52 1.35 1.35 0 0 1-.88.4.34.34 0 0 1-.16-.07c-.15.19-.29.39-.42.59a1.34 1.34 0 0 1 .61-.2c.21 0 .49.07.52.21s-.52.38-.62.47c-.29.26-.73.8-1 .85a.25.25 0 0 1-.19 0c-.08.18-.14.36-.2.54a1 1 0 0 1 .89-.13zM31.29 46.94a2 2 0 0 1-.87.34 1.12 1.12 0 0 0-.43 1c.06.31.81 1.17.25 1.14A3.21 3.21 0 0 1 29 48.29c-.17-.45-.35-.9-.49-1.25a.49.49 0 0 0-.78-.22c-.29.19.09.39-.13.83s-.36.81-.67.45c-.81-.93-2-.47-2.16-1.5-.1-.56-.57-.51-1-.82s-.62-.49-.69-.26 1.26 1.25 1.35 1.52-.4.75-.79.84-.56-.22-.95-.62-.55-.69-.58-.38a1.79 1.79 0 0 0 .76 1.38c.33.21.7.31.6.65s0 .15-.38.52a1 1 0 0 0-.42 1c0 .52-.11.55-.19 1s-.27.06-.43.69a2.46 2.46 0 0 1-.52 1.06 1.7 1.7 0 0 1-1.12.42c-.38 0-.43-1-.43-1.54 0-.19-.25.35-.38-.73-.08-.69-.53.07-.56-.39s-.25-.37-.48-.65-.52 0-.84.17-.19.22-.64.07a8.29 8.29 0 0 0 5.28 4.73.34.34 0 0 1-.1-.41 1.83 1.83 0 0 1 1.62-1c1.34-.13 3.1.87 3.38.71s.85-.89 1.68-.86a1.2 1.2 0 0 1 .75.19 9.41 9.41 0 0 0 .83-.71 1.39 1.39 0 0 1-.26-.1c-.45-.23-.4.14-.62.06s.25-.6-.42-.17-.48-.06-.77-.8a1.51 1.51 0 0 1 .86-1.77 13.55 13.55 0 0 1 1.5-.39c1-.24 1.21-.83 1.39-.47a1.14 1.14 0 0 0 .1.19 1.4 1.4 0 0 1 .12.5 10.07 10.07 0 0 0 .31-1.23c-.24-.1-1.12-1.36-.4-2.19.12-.13-.24-.55-.14-.55a.65.65 0 0 1 .69.5 7.59 7.59 0 0 0-.19-1.28 1.85 1.85 0 0 1 0 .29.55.55 0 0 1-1 .07c-.08-.13-.44-.46-.43.11s.56.65.03.99zm-7.77 3.24c-.11.18-.43 1.57-.63 1.41S23 50 23 49.87c.36-.6 1.07-.57.52.31zm3.38-1.63a.75.75 0 0 1-.79-.08c-.21-.16.14-.43.26-.44.28-.03.69.37.53.52zm3.42-.3a.18.18 0 0 1 .26-.24.77.77 0 0 1 .39.48c0 .13-.33.12-.42.08s-.17-.12-.23-.32zm1.11 1.09a.76.76 0 0 1-.79-.07c-.21-.17.14-.43.26-.44.28-.02.7.36.53.51zM17.4 45.58a7.08 7.08 0 0 1 1.35.34c.48.18 1.23.59 1.67.41s.57-.3.54-.57-.3-.41-.61-.19c-.12.09-.37-.5-.57-.47s.25.68.08.71-.5-.68-.55-.79-.32-.4-.55-.19c-.49.46-1.28.43-1.44.55a.59.59 0 0 1-.16.1c-.32.13-.43-.2-.44-.45a8 8 0 0 0-.28 1.41v-.06c.27-.51.32-.57.41-.62l.32-.12zM72.36 73.24l-2.84-2.16a.59.59 0 0 0-.87.08c-8.56 10.73-23.68 12.25-34.68 3.91-.33-.25-.64-.52-1-.78l3.1-2.06c.31-.21-.13-.46-.13-.46L25 66.64c-.34-.17-.39 0-.38.18v.09l.29 12.27c0 .12.11.42.36.25l3.48-2.31c.71.65 1.45 1.27 2.23 1.87 13.07 9.9 31.15 8 41.35-4.69l.11-.14a.62.62 0 0 0-.08-.92zM23.7 23.31l2.9 2.06a.59.59 0 0 0 .87-.1c8.22-11 23.3-12.95 34.54-5 .34.24.66.5 1 .76l-3 2.15c-.31.22.15.45.15.45l11.08 4.84c.35.17.39 0 .38-.19v-.09l-.65-12.27c0-.12-.12-.41-.37-.23l-3.41 2.42a29.22 29.22 0 0 0-2.28-1.81c-13.36-9.5-31.38-7.08-41.19 5.94 0 0-.06.08-.1.14a.62.62 0 0 0 .08.93zM70.29 33a14.33 14.33 0 1 0 14.33 14.33A14.35 14.35 0 0 0 70.29 33zm7.23 25.18l-.46.28a12.91 12.91 0 0 1-10.32 1.32.53.53 0 0 1-.16-.63 2.88 2.88 0 0 1 2.55-1.56c2.11-.2 4.89 1.38 5.33 1.12s1.33-1.42 2.64-1.37a1.92 1.92 0 0 1 1.16.29c-.19.15-.38.3-.58.44zm-8.75-23.8h.32a11.76 11.76 0 0 1 1.2-.06A13.07 13.07 0 0 1 83 44.59l-.05.26a.85.85 0 0 1-1.53.11c-.12-.19-.69-.72-.67.19s.88 1 0 1.54a3.2 3.2 0 0 1-1.37.54 1.79 1.79 0 0 0-.67 1.56c.1.5 1.29 1.86.41 1.8a5 5 0 0 1-2-1.76c-.28-.72-.57-1.42-.78-2a.77.77 0 0 0-1.23-.36c-.46.32.14.63-.2 1.31s-.57 1.28-1.06.72c-1.27-1.46-3.11-.74-3.4-2.36-.16-.87-.92-.79-1.55-1.29s-1-.76-1.09-.4 2 2 2.13 2.38c.23.63-.62 1.19-1.24 1.34s-.89-.35-1.49-1-.87-1.08-.92-.59a2.84 2.84 0 0 0 1.2 2.16c.53.34 1.11.49 1 1s0 .23-.6.82a1.59 1.59 0 0 0-.66 1.58c0 .82-.17.86-.3 1.54s-.42.09-.67 1.08a3.71 3.71 0 0 1-.8 1.67 2.63 2.63 0 0 1-1.77.67c-.6 0-.68-1.61-.68-2.43 0-.28-.4.55-.6-1.14-.13-1.08-.83.11-.88-.61s-.4-.57-.76-1-.82.05-1.33.27-.29.35-1 .12h-.05a13.06 13.06 0 0 1-1-5.06c0-.44 0-2 .71-2.51a1.49 1.49 0 0 1 .9-.14 13.27 13.27 0 0 1 2.14.53c.75.29 1.94.93 2.63.64.49-.2.89-.47.84-.89s-.47-.65-1-.29c-.19.12-.58-.79-.89-.74s.39 1.07.12 1.11-.78-1.07-.87-1.25-.5-.63-.86-.29c-.77.73-1.89.45-2.31.61-.89.35-.92.11-.91-.35a.54.54 0 0 1 .11-.35 1.57 1.57 0 0 1 1.44-.16c.34.22.58-.06.71-.2s.09-.34 0-.53.18-.31.35-.35a8.54 8.54 0 0 0 1-.59 3.18 3.18 0 0 1 2 0 1 1 0 0 0 1.3-.27 3.43 3.43 0 0 1 .95-.78c.19-.09-.47-.7-1 0s-.81.72-1.06.72-1.76-.37-1.94-.85.47-.83 1-1.1a13.32 13.32 0 0 1 2.46-.35c.79-.17 1.8-.56 2.31-.22s-2.12.94-1.26 1.4c.31.17 1.7-.8 2.17-1 1.12-.57-1.09-.76-.8-1.94s-2.7-.81-4.21-.69a13 13 0 0 1 4.72-1.85zm10.4 22c-.71-.36-.63.22-1 .09s.4-.94-.65-.25-.77-.11-1.22-1.27a2.35 2.35 0 0 1 1.35-2.77 15.24 15.24 0 0 1 2.35-.65c1.56-.39 1.89-1.32 2.18-.75l.15.3a1.69 1.69 0 0 1 .18.67 13.12 13.12 0 0 1-3 4.76 2 2 0 0 1-.34-.15zm.52-7.1c-.15 0-.27-.19-.38-.5a.3.3 0 0 1 .43-.38 1.27 1.27 0 0 1 .61.75c0 .19-.52.17-.66.11zm1.39 1.21a1.18 1.18 0 0 1-1.24-.11c-.33-.26.21-.68.4-.7.44-.06 1.1.55.84.79zm1.41-4c.19-.22-.39-.86-.23-.87a1 1 0 0 1 1 .62v1.08A12.9 12.9 0 0 1 83 49.9c-.37-.28-1.6-2.15-.51-3.4zm-8.55 2.74a1.16 1.16 0 0 1-1.24-.11c-.33-.26.21-.68.4-.7.44-.02 1.1.58.84.82zm-5.32 2.58c-.17.29-.66 2.49-1 2.23s.14-2.54.23-2.71c.52-.94 1.63-.89.77.49zm-9.27-11.38a1.76 1.76 0 0 1 1-.38c.33 0 .76.11.81.33s-.81.61-1 .75c-.45.41-1.15 1.26-1.57 1.35a.45.45 0 0 1-.33 0 12.12 12.12 0 0 1 1-1.94zm2-2.55c.2 0 .46.07.5.22a1.77 1.77 0 0 1-.18.83 2.21 2.21 0 0 1-1.38.62.42.42 0 0 1-.33-.2 15 15 0 0 1 1.31-1.46z"/></svg>