<svg id="TARGETS" xmlns="http://www.w3.org/2000/svg" viewBox="0 0 94.8 94.88" width="94.8" height="94.8"><style>.st0{fill:#ff3a21}.st1{fill:#fff}</style><title>Goal_5_RGB_NG</title><path class="st0" d="M0 0h94.8v94.8H0z"/><path class="st1" d="M63.3 21.5c2.4 0 4.3-1.9 4.3-4.3s-1.9-4.3-4.3-4.3-4.3 1.9-4.3 4.3c.1 2.4 2 4.3 4.3 4.3zM33.4 21.8c2.3 0 4.2-1.9 4.2-4.2s-1.9-4.2-4.2-4.2-4.2 1.9-4.2 4.2c0 2.3 1.8 4.2 4.2 4.2z"/><path class="st1" d="M22.2 41.1c1.8.5 2.3-1.5 2.3-1.5l2.8-9.5s.2-.7.7-.6.4.9.4.9l-4.9 17.8h4.6V61c.1 1.2 1.1 2.1 2.3 2 1.1-.1 2-.9 2-2V48.2h1.2V61c.1 1.2 1.1 2.1 2.3 2 1.1-.1 2-.9 2-2V48.2h4.6l-4.4-16c-.2-1 0-2 .4-2.9l2.9-5.2 5.4-9.1 6.3 8.3 3.9 5.5c.4.7.7 1.5.7 2.3v29.8c0 1.3 1.1 2.4 2.4 2.4 1.3 0 2.4-1.1 2.4-2.4V43.3c0-.4.3-.7.6-.7h.1c.4 0 .7.3.7.6v17.6c.1 1.3 1.2 2.3 2.5 2.2 1.2-.1 2.1-1 2.2-2.2V30.4c0-.3.1-.8.6-.8.7 0 .8.5.8.9v10.1c.1.9.9 1.6 1.8 1.5.8-.1 1.5-.7 1.5-1.5V28.8c0-2.9-2.2-5.4-5.2-5.7h-8.4c-1.2.1-2.4-.5-3.1-1.4l-8.1-9.9c-.4-.5-.8-.9-1.3-1.2-.9-.4-1.9-.1-2.3.8l-7.3 11.4c-.7.7-1.6 1.1-2.6 1h-6.5c-2.8 0-4 3.3-4 3.3L21 38.5c.1 0-.5 2.1 1.2 2.6zM85.6 67.8H9.1c-.3 0-.5.2-.6.5v3.6c0 .3.3.6.6.6h76.6c.3 0 .6-.2.6-.6v-3.6c-.1-.3-.4-.5-.7-.5zM46.9 74.3l-5.3 9.2c-.2.4.1.9.5.9h10.7c.5 0 .8-.5.5-.9L48 74.3c-.2-.4-.8-.4-1.1 0z"/></svg>