<svg id="TARGETS" xmlns="http://www.w3.org/2000/svg" viewBox="0 0 94.85 94.85" width="94.85" height="94.85"><defs><style>.cls-1{fill:#4c9f38}.cls-2{opacity:.5}.cls-3{fill:#fff}</style></defs><title>Goal_3_RGB_NG</title><path class="cls-1" d="M0 0h94.85v94.85H0z"/><path class="cls-2" transform="rotate(-48.49 18.718 58.72)" d="M11.36 55.01h14.71v7.41H11.36z"/><path d="M39.09 36.3l-.62-.54-1-.93-6 6.83a5.3 5.3 0 0 1-2.57 1.47c-1.64.3-2.24.31-3.05.51-1.32.34-2.38 1.27-4.29 3.43L6.26 64.26s-.72.64.11 1.69l6.63 5.9c1.15.69 1.69-.11 1.69-.11l15.24-17.19c1.91-2.16 2.71-3.32 2.88-4.68.11-.82 0-1.42.14-3.08a5.23 5.23 0 0 1 1.15-2.73l6-6.83zM16.61 66.68l-5.55-4.91 9.75-11 5.55 4.91zM20.53 38.11h-6.09a3.05 3.05 0 0 0 6.09 0zM17.49 34.82a3.06 3.06 0 0 0-3 2.82h6.09a3 3 0 0 0-3.09-2.82zM10.7 42.92l-2.8-5.41a3.05 3.05 0 0 0 2.8 5.41zM12.23 38.71a3.06 3.06 0 0 0-3.91-1.42l2.8 5.42a3.07 3.07 0 0 0 1.11-4z"/><g><path d="M17.1 44l-5.42 2.8A3.06 3.06 0 0 0 17.1 44zM12.88 42.48a3.06 3.06 0 0 0-1.41 3.91l5.41-2.8a3.06 3.06 0 0 0-4-1.11z"/></g><g><path transform="rotate(-21.88 28.924 79.84)" d="M19.35 77.92h19.11v3.84H19.35z"/><path transform="rotate(-21.87 17.539 84.435)" d="M16.92 82.49h1.21v3.84h-1.21z"/><path transform="rotate(-21.87 19.055 83.815)" d="M18.44 81.88h1.21v3.84h-1.21z"/></g><g><path transform="rotate(-13.34 33.405 71.995)" d="M23.85 70.09h19.11v3.84H23.85z"/><path transform="rotate(-13.37 21.459 74.821)" d="M20.87 72.92h1.21v3.84h-1.21z"/><path transform="rotate(-13.35 23.074 74.463)" d="M22.46 72.54h1.22v3.84h-1.22z"/></g><g><path d="M36.17 13.53l-1-1 2.15-2.17 1.2 1.19a.25.25 0 0 0 .36 0l.24-.24a.25.25 0 0 0 0-.36l-3.54-3.47a.25.25 0 0 0-.36 0l-.22.24a.25.25 0 0 0 0 .36l1.15 1.14L34 11.39l-1-.94a.7.7 0 0 0-1 0l-11.78 12a.64.64 0 0 0-.2.49.71.71 0 0 0 .2.49l.86.84-.85.86a.25.25 0 0 0 0 .36l.45.45-2.38 2.43a.11.11 0 1 0 .16.16l2.39-2.42.43.41a.25.25 0 0 0 .36 0l.85-.86.86.85a.69.69 0 0 0 1 0l11.79-12a.7.7 0 0 0 .03-.98zm-13.11 9l-1-1a.23.23 0 0 1 0-.32.22.22 0 0 1 .32 0l1 1a.23.23 0 1 1-.32.32zM24.65 21l-1-1a.24.24 0 0 1 0-.33.23.23 0 0 1 .32 0l1 1A.23.23 0 0 1 25 21a.22.22 0 0 1-.35 0zm1.61-1.64l-1-1a.23.23 0 0 1 0-.32.22.22 0 0 1 .32 0l1 1a.23.23 0 1 1-.32.32zm1.62-1.64l-1-1a.23.23 0 1 1 .32-.32l1 1a.23.23 0 0 1 0 .32.22.22 0 0 1-.32-.02zm1.61-1.63l-1-1a.23.23 0 0 1 0-.32.22.22 0 0 1 .32 0l1 1a.22.22 0 0 1 0 .32.23.23 0 0 1-.32-.02zm4.07.58L30 13.11l2.36-2.4a.36.36 0 0 1 .24-.09.28.28 0 0 1 .23.09l3.13 3.08a.33.33 0 0 1 0 .47z"/><path d="M17.92 28.93c.13-.15.65-.65.41.12-.06.17.15.42-.11.53a.38.38 0 0 1-.42-.21c-.08-.15.01-.3.12-.44z"/></g><g><path class="cls-3" d="M82.2 34.66c0-3.59-2.3-6.5-5.78-6.5-1.75 0-3.85 1.91-5 3.09-1.14-1.18-3.1-3.09-4.84-3.09-3.49 0-5.94 2.91-5.94 6.5a6.57 6.57 0 0 0 1.85 4.59l8.94 9 8.93-9a6.61 6.61 0 0 0 1.85-4.6M48.16 89.37h-1.7v-4.74h1.7zm0-8.81h-1.7v-4.75h1.7zm0-8.82h-1.7V67h1.7zM48.16 63h-1.7v-4.76h1.7zm0-8.81h-1.7v-4.76h1.7z"/><g><path class="cls-3" d="M48.16 45.42h-1.7v-4.74h1.7zm0-8.81h-1.7v-4.75h1.7zm0-8.82h-1.7v-4.74h1.7zM48.16 19h-1.7v-4.71h1.7zm0-8.81h-1.7V5.48h1.7z"/></g><path class="cls-3" d="M57.62 54.47c.54.22 3.68 2.47 5.29 3.34a17.85 17.85 0 0 0 6 1.6c.9 0 3.86-.09 4.06-.52s-.35-.58-.76-.6-3.08.41-4.61.31-2.47-1-2.35-1.82c.1-.65 1.25-.42 3.19-.65s4-.79 7.73-1.41a8.24 8.24 0 0 1 7.26 2.45A60.17 60.17 0 0 0 88.88 61v9.21S82.6 65.46 82 65a9.21 9.21 0 0 0-4.37-1.86c-1.43-.2-3.63.7-6.35 1s-3.4 0-6-1.48a54.82 54.82 0 0 1-8.6-6.52c-.56-.55-1.32-1.3-.92-1.84s1.24-.09 1.86.17z"/></g></svg>