<svg id="TARGETS" xmlns="http://www.w3.org/2000/svg" viewBox="0 0 94.85 94.85" width="94.85" height="94.85"><defs><style>.cls-1{fill:#c5192d}.cls-2{fill:#fff}</style></defs><title>Goal_4_RGB_NG</title><path class="cls-1" d="M0 0h94.85v94.85H0z"/><path class="cls-2" d="M77.51 45.27a6.36 6.36 0 0 0-3.68-1.19h-4.45l-3.63 3.62-1.81-1.81-1.81-1.81h-4.82a6.89 6.89 0 0 0-5 2.33l13.49 4 13.12-3.92a9.11 9.11 0 0 0-1.41-1.22zM41.08 45.27a6.36 6.36 0 0 0-3.67-1.19H33l-3.67 3.62-1.81-1.81-1.82-1.81h-4.82a6.91 6.91 0 0 0-5 2.33l13.49 4 13.12-3.92a9.11 9.11 0 0 0-1.41-1.22zM54.53 48.57l-2.87-.86-.66-.21-.49-.15-2-.61v7.81a2.12 2.12 0 0 1 .62.1 2.49 2.49 0 0 1 1.05.62 2.44 2.44 0 0 1 .64 1.73 2.41 2.41 0 0 1-2.36 2.4v6.53l16.29 3.7V51.68l-7.69-2.32zM81.38 54.91a2.38 2.38 0 0 1 1.27-.36h.1v-7.81l-1.6.48-.61.19-.6.18-3.27 1-2.6.79-7.68 2.31v17.9l16.29-3.7v-6.53h-.1a2.34 2.34 0 0 1-1.3-.39c-.07 0-.15-.09-.22-.15a2.4 2.4 0 0 1 .25-3.91zm-2.8 7.77l-9 2.36v-1.29l9-2.36zm0-2.77l-9 2.36V61l9-2.36zm0-2.77l-9 2.36v-1.29l9-2.35zm0-2.77l-9 2.36v-1.29l9-2.35zM70.45 33.57c-.61-.51-1.12-1-2.14-.49-.65.31-.92.52-1.73.9A17.22 17.22 0 0 1 62 35.34a15.93 15.93 0 0 1-3.59.25 7.23 7.23 0 0 0 14.37.17 27.76 27.76 0 0 0-2.33-2.19z"/><path class="cls-2" d="M58.45 33.91a13.91 13.91 0 0 0 3.07-.2 16.63 16.63 0 0 0 4.34-1.26 22.68 22.68 0 0 1 2.27-.93 2.3 2.3 0 0 1 1.49-.23 2.34 2.34 0 0 1 .65.41l.58.49s.27.25 1.94 1.54c.19.14.37.31.5.27.37-.13.22-1.26.14-1.89a10.32 10.32 0 0 0-2.32-5.06 1.64 1.64 0 0 0-1.42-.6 3.35 3.35 0 0 1-2.08-.88c-.9-.6-3.11-.42-5.64.9-1.82 1-3.88 4-4.91 6.56-.24.6.85.86 1.39.88zM44.69 47.25l-.62.17-.59.18-3.27 1-2.6.78-7.68 2.32v17.91l16.29-3.7v-6.54h-.11a2.36 2.36 0 0 1-1.22-.37l-.23-.15a2.41 2.41 0 0 1 .26-3.91 2.38 2.38 0 0 1 1.26-.37h.11v-7.82zm-2.56 15.43L33.1 65v-1.25l9-2.36zm0-2.77l-9 2.36V61l9-2.36zm0-2.77l-9 2.36v-1.29l9-2.35zm0-2.77l-9 2.36v-1.29l9-2.35zM20.76 49.34l-2.21-.67-.39-.12-.43-.13-2.43-.73-.57-.17h-.1l-.5-.15-2-.62v7.82a2.44 2.44 0 0 1 .85.18 1.59 1.59 0 0 1 .29.15 2.5 2.5 0 0 1 .53.39 2.4 2.4 0 0 1-1.67 4.09v6.53l16.29 3.7V51.66l-1.16-.35zM17 32.62c.26-.62.9-1.65 3.13-1.95a3.29 3.29 0 0 0 1.17-.37 9.05 9.05 0 0 1 1.37-1.92 2.72 2.72 0 0 0 0-.42c-.13-1-1.18-2.23-3.42-1.17-2.75 1.31-2.44 5.38-2.44 5.38.03.35.09.6.19.45zM36.91 30.23a3.26 3.26 0 0 0 1.28.44c2.23.3 2.88 1.33 3.13 1.95 0 .15.11-.1.16-.45 0 0 .3-4.07-2.45-5.38-2.24-1.06-3.29.16-3.42 1.17a3.67 3.67 0 0 0 0 .52 9 9 0 0 1 1.3 1.75zM29.1 42.19a7.63 7.63 0 1 0-7.63-7.63 7.63 7.63 0 0 0 7.63 7.63z"/></svg>