<svg id="TARGETS" xmlns="http://www.w3.org/2000/svg" viewBox="0 0 94.8 94.88" width="94.8" height="94.8"><style>.st0{fill:#00689d}.st1{fill:none}.st2{fill:#fff}</style><title>Goal_16_RGB_NG</title><path class="st0" d="M0 0h94.8v94.8H0z"/><path class="st1" d="M21.5 54h29c.2 0 .3-.1.3-.2v-4.6c0-.1-.1-.2-.3-.2h-29c-.2 0-.3.1-.3.2v4.6c0 .1.1.2.3.2zM21.5 62.1h29c.2 0 .3-.1.3-.2v-4.6c0-.1-.1-.2-.3-.2h-29c-.2 0-.3.1-.3.2v4.6c0 .1.1.2.3.2z"/><path class="st2" d="M63.6 21.4c-.9 0-1.6.7-1.6 1.6v10.6c0 .9.7 1.6 1.6 1.6.9 0 1.6-.7 1.6-1.6V23c.1-.9-.7-1.6-1.6-1.6zM84.7 21.4c-.9 0-1.6.7-1.6 1.6v10.6c0 .9.7 1.6 1.6 1.6.9 0 1.6-.7 1.6-1.6V23c.1-.9-.7-1.6-1.6-1.6zM81.6 22.7H66.9c-.2 0-.4.2-.4.4v10.4c0 .2.2.4.4.4h5.6l-.7 40.9c0 .2.2.4.4.4h3.9c.2 0 .4-.2.4-.4l-.9-40.9h5.8c.2 0 .4-.2.4-.4V23.1c.1-.2 0-.4-.2-.4zM13.3 23.3h-2.8V78h39.2v-3.3H13.3z"/><path class="st2" d="M16.3 20v51.6h39.3V16.8H16.3V20zM22 36l5.1-13.2c.1-.1.2-.2.4-.2h7.6v-1.9-.1h1.6c.1 0 .2 0 .2.1v2h7.8c.2 0 .3.1.4.2L50 36v.2c0 1.4-.6 2.7-1.7 3.7s-2.5 1.5-3.9 1.5c-3.1 0-5.6-2.3-5.6-5.1v-.1-.1L43 24.2h-6.3v17.9h4.6c.1 0 .1 0 .1.1v1.5c0 .1 0 .1-.1.1H30.6c-.1 0-.1 0-.1-.1v-1.5c0-.1 0-.1.1-.1H35V24.2h-6.1l4.3 11.7v.1c0 1.4-.6 2.7-1.7 3.7-1 1-2.4 1.5-3.9 1.5-3.1 0-5.6-2.3-5.6-5.2zm-.8 13.2c0-.1.1-.2.3-.2h29c.2 0 .3.1.3.2v4.6c0 .1-.1.2-.3.2h-29c-.2 0-.3-.1-.3-.2v-4.6zm0 8c0-.1.1-.2.3-.2h29c.2 0 .3.1.3.2v4.6c0 .1-.1.2-.3.2h-29c-.2 0-.3-.1-.3-.2v-4.6z"/><path class="st2" d="M48 35.7l-3.8-10-3.7 10zM27.7 25.7l-3.8 10h7.4z"/></svg>