<svg id="TARGETS" xmlns="http://www.w3.org/2000/svg" viewBox="0 0 94.85 94.85" width="94.85" height="94.85"><defs><style>.cls-1{fill:#56c02b}.cls-2{fill:#fff}</style></defs><title>Goal_15_RGB_NG</title><path class="cls-1" d="M0 0h94.85v94.85H0z"/><path class="cls-2" d="M83.35 67.4l-9.64-30.95-.13-.2a.51.51 0 0 0-.44-.23.53.53 0 0 0-.48.31l-.07.1-9.54 31.06a.45.45 0 0 0 0 .2.54.54 0 0 0 .53.54h7.85v7.22a.25.25 0 0 0 .25.25h3.27a.25.25 0 0 0 .24-.25v-7.22h7.79a.53.53 0 0 0 .5-.53.53.53 0 0 0-.13-.3zM54 68.36A6.13 6.13 0 0 0 58.43 58a5.72 5.72 0 0 0-2.85-10.69h-.36a7.75 7.75 0 1 0-14.69 4 8.66 8.66 0 0 0 1.88 17.11h2.64v7a.24.24 0 0 0 .24.24h3.2a.24.24 0 0 0 .24-.24v-7.03zM55.55 35.13a5.39 5.39 0 0 1-3.93-9.08 5 5 0 0 1 2.5-9.4h.33a6.81 6.81 0 1 1 12.91 3.48 7.61 7.61 0 0 1-1.65 15h-2.32v6.19a.21.21 0 0 1-.22.21h-2.81a.21.21 0 0 1-.21-.21v-6.16zM31 35v6.34a.21.21 0 0 0 .21.21H34a.21.21 0 0 0 .21-.21V35a9.4 9.4 0 0 0 7.52-9.55c0-5.49-4.12-14.57-9.17-15h-.37c-3.91 0-7.22 5.3-8.63 10.33a18.32 18.32 0 0 0-.72 4.72A9.49 9.49 0 0 0 31 35zM32 67.4l-9.68-30.95-.12-.2a.54.54 0 0 0-.45-.23.53.53 0 0 0-.48.31l-.07.1-9.54 31.06a.45.45 0 0 0 0 .2.54.54 0 0 0 .53.54H20v7.22a.25.25 0 0 0 .25.25h3.27a.25.25 0 0 0 .25-.25v-7.22h7.78a.53.53 0 0 0 .5-.53.53.53 0 0 0-.05-.3z"/><rect class="cls-2" x="7.9" y="81.81" width="79.56" height="4.74" rx=".57" ry=".57"/></svg>