<svg id="TARGETS" xmlns="http://www.w3.org/2000/svg" viewBox="0 0 94.85 94.85" width="94.85" height="94.85"><defs><style>.cls-1{fill:#56c02b}.cls-2{fill:#fff}</style></defs><title>Goal_15_RGB_NG</title><path class="cls-1" d="M0 0h94.85v94.85H0z"/><path class="cls-2" d="M86.44 45.07A39.17 39.17 0 0 0 49.68 8.89v-9h-4.52v9A39.19 39.19 0 0 0 8.4 45.07H0v4.52h8.33A39.18 39.18 0 0 0 45.16 87v7.92h4.52V87a39.19 39.19 0 0 0 36.84-37.41h8.33v-4.52zm-73.11 4.52H25v-4.52H13.41a34.26 34.26 0 0 1 31.21-31.14h.54v9.61h4.52v-9.65a34 34 0 0 1 19.26 7.59l-6 6L51.63 38.8 49 41.41a8.92 8.92 0 0 1 .37-2.54c-.86.32-1.74.65-2.64.94a13.85 13.85 0 0 0-.88 4.75l-.61.61a10.62 10.62 0 0 1-.06-4.93 9.3 9.3 0 0 1-2.54.26 7.15 7.15 0 0 0-1.3 6.5 7.59 7.59 0 0 1 0-6.73 11.62 11.62 0 0 0-3-.38A7.19 7.19 0 0 0 36.49 47a7.57 7.57 0 0 1 .08-6.94 8.68 8.68 0 0 0-4.77 2.68 23.26 23.26 0 0 0-4.22 6.13s-3.82 7.48-7.83 7.48-3.42-2.86-3.42-2.86 2.15-1.09 2-2.24-2.42.32-2.92 1.69-.28 4.78 4.46 4.78S30.53 47.6 30.53 47.6l.62 1.79c.1.86-1.63 4.6-1.71 5l2.64 3.9-11.14 11.18a34 34 0 0 1-7.61-19.88zM56 46.8a9.9 9.9 0 0 1-1.55-3.72l.66-.67A15.61 15.61 0 0 0 56 46.8zM51.88 49a16.27 16.27 0 0 1-1.32-2.08l.52-.53a12.59 12.59 0 0 0 .8 2.61zm-11 .5L34.4 56l-.89-1.72 4.41-4.66a11.17 11.17 0 0 1 2.99-.11zm40.53 1.36A34.24 34.24 0 0 1 50.32 82h-.64V69.76h-4.52V82a34 34 0 0 1-20.79-8.9l12-12h2.27a4.55 4.55 0 0 0-.88-1.39L47 50.46c2.18.47 3.82.93 3.82.93l2 5.07 1.73 1.78 3 2.83h5.67s-.43-2-3.72-2.75l-2.6-3-.55-5.32 6.88-3.73L68 47.81a22.66 22.66 0 0 1 2-2.73v-.65A5 5 0 0 1 68.44 42v-.52L65.31 39s-.18-1.51-1.27-1.83l-.65 2.15-2 .32-2.87-.64 12.19-12.22 1.87-1.87a34 34 0 0 1 8.85 20.16H71.24v4.52h10.27c-.02.41-.03.85-.07 1.28zM66.1 42.39a.59.59 0 1 1 .58.58.58.58 0 0 1-.58-.58z"/></svg>