<svg id="TARGETS" xmlns="http://www.w3.org/2000/svg" viewBox="0 0 94.85 94.85" width="94.85" height="94.85"><defs><style>.cls-1{fill:#4c9f38}.cls-2{fill:#1a1818;opacity:.3}.cls-3{fill:#fff}</style></defs><title>Goal_3_RGB_NG</title><path class="cls-1" d="M0 0h94.85v94.85H0z"/><path d="M29.97 45.39h50.47v8.89H29.97zM21.33 45.39h7.09v8.89h-7.09zM16.67 18.18s5.59 4.27-.75 14.64c-6 9.85.75 16.12 2.94 16.88a19.34 19.34 0 0 1 1.48-16.44c3.18-5.38 2.12-13.89-3.67-15.08z"/><g><path class="cls-2" d="M64.21 21.94a8.64 8.64 0 1 1-8.64-8.64 8.64 8.64 0 0 1 8.64 8.64zM32.47 39.07a11.15 11.15 0 1 1-11.14-11.15 11.14 11.14 0 0 1 11.14 11.15z"/><path class="cls-2" d="M62.55 35a14.2 14.2 0 1 1-14.2-14.19A14.19 14.19 0 0 1 62.55 35zM37.91 68.47a10.75 10.75 0 1 1-10.75-10.74 10.75 10.75 0 0 1 10.75 10.74zM51.72 57.73a7.5 7.5 0 1 1-7.49-7.5 7.49 7.49 0 0 1 7.49 7.5z"/><path class="cls-2" d="M40.07 26a14.19 14.19 0 1 1-14.19-14.15A14.19 14.19 0 0 1 40.07 26z"/><path class="cls-2" d="M47 50.31a17.49 17.49 0 1 1-17.52-17.49A17.47 17.47 0 0 1 47 50.31zM41.05 15.54A6.58 6.58 0 1 1 34.47 9a6.57 6.57 0 0 1 6.58 6.54z"/></g><path class="cls-3" d="M69.84 31.91l-2.18-2.18-17.85 17.85-17.86-17.85-2.18 2.18 17.86 17.85-17.86 17.85 2.18 2.19 17.86-17.86L67.66 69.8l2.18-2.19-17.85-17.85 17.85-17.85z"/></svg>