<svg id="TARGETS" xmlns="http://www.w3.org/2000/svg" viewBox="0 0 94.85 94.85" width="94.85" height="94.85"><defs><style>.cls-1{fill:#4c9f38}.cls-2{fill:#fff}</style></defs><title>Goal_3_RGB_NG</title><path class="cls-1" d="M0 0h94.85v94.85H0z"/><path class="cls-2" d="M48.23 47.71h-1.69V43h1.69zm0-8.81h-1.69v-4.74h1.69zm0-8.81h-1.69v-4.74h1.69zM48.23 21.33h-1.69v-4.74h1.69zm0-8.81h-1.69V7.77h1.69zM69.3 53.66a8.38 8.38 0 1 0-8.38-8.38 8.38 8.38 0 0 0 8.38 8.38zM55.86 71.3c0-.75.2-1.76 1.58-1.76.94 0 1.14 1 1.18 1.64v15.89H80V71.18c0-.64.23-1.64 1.17-1.64 1.37 0 1.59 1 1.59 1.76v15.77h6.5V68a11.17 11.17 0 0 0-10.18-11.11 5.76 5.76 0 0 0-.63 0H60.13a5.37 5.37 0 0 0-.61 0A11.17 11.17 0 0 0 49.36 68v19h6.5zm17.37-3.73c.55 0 1.18.61 1.54 1a2.85 2.85 0 0 1 1.59-1 1.9 1.9 0 0 1 1.84 2.07 2.12 2.12 0 0 1-.59 1.46L74.77 74l-2.84-2.9a2.07 2.07 0 0 1-.59-1.46 1.94 1.94 0 0 1 1.89-2.07z"/><g><path class="cls-2" d="M17.76 42.23l4.73-4.73a8.4 8.4 0 0 0-4.73 4.73zM21.81 52.79L33 41.55a8.25 8.25 0 0 0-1-1.54L20.26 51.79a8.72 8.72 0 0 0 1.55 1zM25.56 53.68h.23l8.12-8.12a2.29 2.29 0 0 0 0-.25 8.51 8.51 0 0 0-.26-2L23.51 53.42a8.59 8.59 0 0 0 2.05.26zM33.29 48.5l-4.54 4.55a8.4 8.4 0 0 0 4.54-4.55zM27.66 37.19a8.51 8.51 0 0 0-2.1-.28h-.16l-8.22 8.21v.17a8.58 8.58 0 0 0 .28 2.1zM19.09 50.63l11.8-11.8a8.3 8.3 0 0 0-1.54-1L18.09 49.09a8.3 8.3 0 0 0 1 1.54zM14.87 84.06l25.45-25.44a10.18 10.18 0 0 0-1.67-.87L14.87 81.53zM12.12 74.55l-6.5 6.49v2.54l6.5-6.5v-2.53zM14.87 79.19l22-22a11.54 11.54 0 0 0-1.56-.26 4.16 4.16 0 0 0-.64 0l-19.8 19.8zM12.12 86.82v-2.54l-2.79 2.79h2.54l.25-.25zM12.12 71.32c0-.75.2-1.77 1.58-1.77a1 1 0 0 1 .75.33l13-13h-2.52L5.62 76.17v2.54l6.5-6.49zM16.39 56.86a3.76 3.76 0 0 0-.61 0c-.25 0-.49.06-.73.1l-9.28 9.32A11.4 11.4 0 0 0 5.62 68v1l12.11-12.14zM20.06 56.86L5.62 71.3v2.54L22.6 56.86h-2.54zM12.12 81.95v-2.53l-6.5 6.49v1.16H7l5.12-5.12zM42.9 60.91a10.17 10.17 0 0 0-1.25-1.29L14.87 86.39v.68h1.86zM45.48 84.92l-2.15 2.15h2.15v-2.15zM36.22 72.45V71.2c0-.64.24-1.65 1.18-1.65a1.46 1.46 0 0 1 1.22.5l6.1-6.05a11.73 11.73 0 0 0-.85-1.7L19.06 87.07h2.54zM36.22 77.32v-2.54L23.93 87.07h2.54l9.75-9.75zM6.94 62.79l4.61-4.61a11.13 11.13 0 0 0-4.61 4.61zM14.88 74.33l17.46-17.47H29.8L14.88 71.79v2.54zM36.22 87.06v-2.54l-2.55 2.55h2.54l.01-.01zM39 74.56l6.49-6.5a11.45 11.45 0 0 0-.23-2.28L39 72zM36.22 82.19v-2.54l-7.42 7.42h2.54l4.88-4.88zM38.99 84.3l6.49-6.5v-2.54l-6.49 6.5v2.54zM45.48 82.59v-2.46l-6.49 6.5v.44H41l4.48-4.48zM45.48 72.04v-1.65l-6.49 6.5v2.54l6.49-6.5v-.89zM8.68 39.28a1.35 1.35 0 1 1-1.35-1.35 1.35 1.35 0 0 1 1.35 1.35zM10 46.46a1.3 1.3 0 1 1-1.3-1.3 1.3 1.3 0 0 1 1.3 1.3zM7.5 51.34a.93.93 0 1 1-.92-.92.92.92 0 0 1 .92.92zM15.67 45.6a.87.87 0 1 1-.87-.86.87.87 0 0 1 .87.86zM11.61 43a.58.58 0 0 1-.59.59.59.59 0 0 1-.59-.59.6.6 0 0 1 .59-.59.59.59 0 0 1 .59.59zM12.2 48.71a.59.59 0 0 1-.59.59.6.6 0 0 1-.59-.59.59.59 0 0 1 .59-.59.58.58 0 0 1 .59.59zM16 51.18a.6.6 0 1 1-.59-.6.6.6 0 0 1 .59.6zM16 39.87a.6.6 0 0 1-1.19 0 .6.6 0 0 1 1.19 0zM40.63 43.89a1.3 1.3 0 1 1 1.3 1.3 1.3 1.3 0 0 1-1.3-1.3zM36.07 44.71a.87.87 0 1 1 .87.86.86.86 0 0 1-.87-.86zM40 37a.78.78 0 1 1 .78.77A.77.77 0 0 1 40 37zM38.77 47.31a.59.59 0 1 1 1.18 0 .59.59 0 1 1-1.18 0zM38.77 41a.58.58 0 0 1 .59-.59.59.59 0 0 1 .64.59.6.6 0 0 1-.59.59.59.59 0 0 1-.64-.59zM35.92 40.06a.6.6 0 1 1 .6.59.6.6 0 0 1-.6-.59zM36.54 49.09a.6.6 0 0 1 1.19 0 .6.6 0 0 1-1.19 0zM43.53 39.88a.6.6 0 1 1 .59.6.6.6 0 0 1-.59-.6zM42.94 50.58a.59.59 0 0 1 1.18 0 .59.59 0 0 1-1.18 0zM41.85 47.27a.8.8 0 0 1 .8-.8.8.8 0 1 1 0 1.6.8.8 0 0 1-.8-.8z"/></g><g><path class="cls-2" d="M18.12 17.91l-7.08 7.08h2.51l7.09-7.08h-2.52zM23 17.91l-7.09 7.08h2.52l7.08-7.08H23zM35.14 15.51l-9.48 9.48h2.52l8.39-8.39-1.43-1.09zM27.87 17.91l-7.08 7.08h2.51l7.09-7.08h-2.52zM32.32 25.72l7.02-7.01-1.43-1.09-7.37 7.37h1.79l-.01.73zM33.8 14.49l-.8-.62a.48.48 0 0 0-.39-.1c-.21.05-.28.18-.28.45V16zM13.24 17.91l-4.86 4.86v1.84a.34.34 0 0 0 .3.37l7.08-7.07zM8.69 17.91a.37.37 0 0 0-.32.38v2.12l2.5-2.5zM42.17 20.87l-.07-.05-1.43-1.09-8.35 8.35v.59c0 .27.07.4.28.45A.48.48 0 0 0 33 29l4.26-3.35 5-3.93a.53.53 0 0 0 .21-.38.54.54 0 0 0-.3-.47z"/></g></svg>