<svg id="TARGETS" xmlns="http://www.w3.org/2000/svg" viewBox="0 0 94.8 94.88" width="94.8" height="94.8"><style>.st0{fill:#fd9d24}.st1{fill:#fff}.st2{fill:none}</style><title>Goal_11_RGB_NG</title><path class="st0" d="M0 0h94.8v94.8H0z"/><path class="st1" d="M54.6 11.1H35c-.3 0-.5.2-.5.5v53.2c0 .3.2.5.5.5h7.5v-9.1h4.9v9.1h7.2c.3 0 .5-.2.5-.5V11.6c0-.3-.2-.5-.5-.5zM41.1 60.8c0 .1-.1.2-.2.2h-4c-.1 0-.2-.1-.2-.2v-4.4c0-.1.1-.2.2-.2h4c.1 0 .2.1.2.2v4.4zm0-8.5c0 .1-.1.2-.2.2h-4c-.1 0-.2-.1-.2-.2v-4.4c0-.1.1-.2.2-.2h4c.1 0 .2.1.2.2v4.4zm0-8.4c0 .1-.1.2-.2.2h-4c-.1 0-.2-.1-.2-.2v-4.4c0-.1.1-.2.2-.2h4c.1 0 .2.1.2.2v4.4zm0-8.5c0 .1-.1.2-.2.2h-4c-.1 0-.2-.1-.2-.2V31c0-.1.1-.2.2-.2h4c.1 0 .2.1.2.2v4.4zm0-8.4c0 .1-.1.2-.2.2h-4c-.1 0-.2-.1-.2-.2v-4.4c0-.1.1-.2.2-.2h4c.1 0 .2.1.2.2V27zm0-8.5c0 .1-.1.2-.2.2h-4c-.1 0-.2-.1-.2-.2v-4.4c0-.1.1-.2.2-.2h4c.1 0 .2.1.2.2v4.4zm6.1 33.9c0 .1-.1.2-.2.2h-4c-.1 0-.2-.1-.2-.2V48c0-.1.1-.2.2-.2h4c.1 0 .2.1.2.2v4.4zm0-8.5c0 .1-.1.2-.2.2h-4c-.1 0-.2-.1-.2-.2v-4.4c0-.1.1-.2.2-.2h4c.1 0 .2.1.2.2v4.4zm0-8.5c0 .1-.1.2-.2.2h-4c-.1 0-.2-.1-.2-.2V31c0-.1.1-.2.2-.2h4c.1 0 .2.1.2.2v4.4zm0-8.4c0 .1-.1.2-.2.2h-4c-.1 0-.2-.1-.2-.2v-4.4c0-.1.1-.2.2-.2h4c.1 0 .2.1.2.2V27zm0-8.5c0 .1-.1.2-.2.2h-4c-.1 0-.2-.1-.2-.2v-4.4c0-.1.1-.2.2-.2h4c.1 0 .2.1.2.2v4.4zm6.1 42.3c0 .1-.1.2-.2.2h-4c-.1 0-.2-.1-.2-.2v-4.4c0-.1.1-.2.2-.2h4c.1 0 .2.1.2.2v4.4zm0-8.4c0 .1-.1.2-.2.2h-4c-.1 0-.2-.1-.2-.2V48c0-.1.1-.2.2-.2h4c.1 0 .2.1.2.2v4.4zm0-8.5c0 .1-.1.2-.2.2h-4c-.1 0-.2-.1-.2-.2v-4.4c0-.1.1-.2.2-.2h4c.1 0 .2.1.2.2v4.4zm0-8.5c0 .1-.1.2-.2.2h-4c-.1 0-.2-.1-.2-.2V31c0-.1.1-.2.2-.2h4c.1 0 .2.1.2.2v4.4zm0-8.4c0 .1-.1.2-.2.2h-4c-.1 0-.2-.1-.2-.2v-4.4c0-.1.1-.2.2-.2h4c.1 0 .2.1.2.2V27zm0-8.5c0 .1-.1.2-.2.2h-4c-.1 0-.2-.1-.2-.2v-4.4c0-.1.1-.2.2-.2h4c.1 0 .2.1.2.2v4.4z"/><path class="st2" d="M12.4 55.9h4.5v4.6h-4.5z"/><path class="st1" d="M6.9 70.3h18.8v5.6H6.9zM27.5 70.3h18.8v5.6H27.5zM48 70.3h18.8v5.6H48zM68.6 70.3h18.8v5.6H68.6zM6.9 78.2h80.5v5.6H6.9zM29.3 65.3c.1 0 .1-.1.1-.1V51.7c0-.1-.1-.1-.1-.1H8.8c-.1 0-.1.1-.1.1v13.5c0 .1.1.1.1.1h11.8v-9.1h4.9v9.1h3.8zM17 60.8h-4.5v-4.6H17v4.6zM7.4 50.5h23.3c.1 0 .1 0 .1-.1v-.1L19.1 40l-.1-.1c-.1-.1-.2-.1-.3-.1-.1 0-.2.1-.3.1l-.1.1-11 10.3c-.1.1-.1.1.1.2-.1 0-.1 0 0 0zM82 61.7v3.5c0 .1 0 .1.1.1h1.6c.1 0 .1 0 .1-.1v-3.6c2.5-.5 4.3-2.8 4.2-5.3 0-3.1-2.4-8.4-5.3-8.4s-5.2 5.2-5.2 8.4c-.1 2.7 1.8 5 4.5 5.4zM72.6 21.7h-.9v-2.9c.5-.2.8-.6.8-1.1 0-.6-.5-1.1-1.1-1.1s-1.1.5-1.1 1.1c0 .5.3.9.8 1.1v2.9H60c-.2 0-.3.1-.3.3v43.1c0 .2.1.3.3.3h12.6c.2 0 .3-.1.3-.3V22c0-.2-.1-.3-.3-.3zm-7.5 38.7c0 .1-.1.2-.2.2h-2.8c-.1 0-.2-.1-.2-.2v-3.1c0-.1.1-.2.2-.2h2.8c.1 0 .2.1.2.2v3.1zm0-7.4c0 .1-.1.2-.2.2h-2.8c-.1 0-.2-.1-.2-.2v-3.1c0-.1.1-.2.2-.2h2.8c.1 0 .2.1.2.2V53zm0-7.4c0 .1-.1.2-.2.2h-2.8c-.1 0-.2-.1-.2-.2v-3.1c0-.1.1-.2.2-.2h2.8c.1 0 .2.1.2.2v3.1zm0-7.4c0 .1-.1.2-.2.2h-2.8c-.1 0-.2-.1-.2-.2v-3.1c0-.1.1-.2.2-.2h2.8c.1 0 .2.1.2.2v3.1zm0-7.3c0 .1-.1.2-.2.2h-2.8c-.1 0-.2-.1-.2-.2v-3.1c0-.1.1-.2.2-.2h2.8c.1 0 .2.1.2.2v3.1zm5.7 29.5c0 .1-.1.2-.2.2h-2.8c-.1 0-.2-.1-.2-.2v-3.1c0-.1.1-.2.2-.2h2.8c.1 0 .2.1.2.2v3.1zm0-7.4c0 .1-.1.2-.2.2h-2.8c-.1 0-.2-.1-.2-.2v-3.1c0-.1.1-.2.2-.2h2.8c.1 0 .2.1.2.2V53zm0-7.4c0 .1-.1.2-.2.2h-2.8c-.1 0-.2-.1-.2-.2v-3.1c0-.1.1-.2.2-.2h2.8c.1 0 .2.1.2.2v3.1zm0-7.4c0 .1-.1.2-.2.2h-2.8c-.1 0-.2-.1-.2-.2v-3.1c0-.1.1-.2.2-.2h2.8c.1 0 .2.1.2.2v3.1zm0-7.3c0 .1-.1.2-.2.2h-2.8c-.1 0-.2-.1-.2-.2v-3.1c0-.1.1-.2.2-.2h2.8c.1 0 .2.1.2.2v3.1z"/></svg>