<svg id="TARGETS" xmlns="http://www.w3.org/2000/svg" viewBox="0 0 94.85 94.85" width="94.85" height="94.85"><defs><style>.cls-1{fill:#3f7e44}.cls-2{fill:#fff}</style></defs><title>Goal_13_RGB_NG</title><path class="cls-1" d="M0 0h94.85v94.85H0z"/><rect class="cls-2" x="46.99" y="63.66" width="39.75" height="2.37" rx=".59" ry=".59"/><path class="cls-2" d="M79.11 36.7a2.45 2.45 0 1 0-2.48-2.44 2.45 2.45 0 0 0 2.48 2.44zM86.16 46.4l-2.06-6.61s-.74-1.91-2.37-1.91h-5.25c-1.63 0-2.37 1.91-2.37 1.91l-2.06 6.61s-.37 1.21.67 1.51 1.36-.91 1.36-.91l1.66-5.51s.09-.43.41-.33.21.54.21.54l-2.9 10.34h2.69v7.4a1.3 1.3 0 0 0 2.59 0v-7.4h.73v7.4a1.3 1.3 0 0 0 2.59 0v-7.4h2.69l-2.89-10.31s-.13-.45.2-.54.41.33.41.33L84.13 47s.32 1.19 1.36.88.67-1.48.67-1.48zM53.81 35.71a2.37 2.37 0 1 0 3.51-2.07.8.8 0 0 0 .13-.42 1.22 1.22 0 0 0-2.38 0 .68.68 0 0 0 .09.35 2.38 2.38 0 0 0-1.35 2.14zM61 40.33s-.7-1.86-2.26-1.86h-5c-1.56 0-2.27 1.86-2.27 1.86l-2 6.42s-.28 1 .45 1.37c0 0-.06.06-.06.09l-2.36 12.1a.37.37 0 0 0 .3.43h.06a.36.36 0 0 0 .36-.3l2.32-12.09v-.1c.64-.1.85-.89.85-.89L53 42s.09-.42.4-.33.19.53.19.53l-2.76 10h2.57v7.2a1.24 1.24 0 0 0 2.47 0v-7.2h.7v7.2a1.24 1.24 0 0 0 2.48 0v-7.2h2.57l-2.77-10s-.11-.44.2-.53.39.33.39.33L61 47.36s.3 1.15 1.3.86.64-1.47.64-1.47z"/><g><path class="cls-2" d="M71.64 48.55a.67.67 0 0 0-.9.29 16.11 16.11 0 0 1-1.13 1.73.73.73 0 0 1-.55.26h-2.15a.73.73 0 0 1-.55-.26c-.28-.27-1.1-1.75-1.16-1.79a.61.61 0 0 0-.55-.3.65.65 0 0 0-.65.64 1.22 1.22 0 0 0 .06.29l1.8 3.24a1.12 1.12 0 0 1 .11.43v.48a2 2 0 0 1-.09.55l-.88 3.4h1V60a.88.88 0 1 0 1.75 0v-2.38a.34.34 0 0 1 0-.11h.53V60A.88.88 0 1 0 70 60v-2.49h1l-.87-3.4a2.18 2.18 0 0 1-.08-.44V53.09a1.12 1.12 0 0 1 .11-.43l1.66-3s.11-.22.15-.32a.57.57 0 0 0-.33-.79z"/><path class="cls-2" d="M67.76 49.84A1.76 1.76 0 1 0 66 48.09a1.75 1.75 0 0 0 1.76 1.75z"/></g><g><path class="cls-2" d="M10.22 30.5H8.11v40.54h29.05V68.6H10.22V30.5z"/><path class="cls-2" d="M41.51 25.58h-29v40.54h29zM38 59.08c0 .08-.1.14-.23.14H16.28c-.13 0-.24-.06-.24-.14v-3.42c0-.08.11-.14.24-.14h21.46c.13 0 .23.06.23.14zm0-6c0 .08-.1.14-.23.14H16.28c-.13 0-.24-.06-.24-.14v-3.4c0-.08.11-.15.24-.15h21.46c.13 0 .23.07.23.15zM37.89 38a13.56 13.56 0 0 1-21.76 0l-.13-.15a.62.62 0 0 0 .09-.12 13.56 13.56 0 0 1 21.76 0l.08.12z"/><path class="cls-2" d="M23.48 35.16a.79.79 0 0 0 .48-.22.68.68 0 0 0 .06-.29s-.1-.09-.17-.08a.36.36 0 0 0-.22.09s-.22.28-.28.37.02.11.13.13zM30.77 39c.09-.09-.14-.3-.29-.29s-.26.16-.15.25a.42.42 0 0 0 .44.04zM28 38.28c-.07 0-.26.16-.14.25a.4.4 0 0 0 .43 0c.06-.05-.17-.26-.29-.25zM26.13 39.3c0 .06-.2.87-.09 1s.29-.68.36-.79c.3-.51-.09-.51-.27-.21zM28.44 41.89c-.15.09-1.13-.46-1.87-.39a1 1 0 0 0-.89.55.18.18 0 0 0 .05.22 4.63 4.63 0 0 0 4.06-.75.78.78 0 0 0-.42-.11c-.46-.01-.77.39-.93.48zM30.52 38.53a.43.43 0 0 0-.22-.27c-.09 0-.19 0-.15.13s.08.16.13.18.24.03.24-.04z"/><path class="cls-2" d="M25.81 40.16c0-.24.12-.26.1-.54a.59.59 0 0 1 .23-.56c.21-.21.15-.1.21-.29s-.15-.24-.33-.36a1 1 0 0 1-.42-.76c0-.17.11 0 .32.21s.31.39.53.34.51-.25.43-.47-.78-.73-.75-.84.16 0 .39.15.48.14.54.45c.1.57.75.32 1.2.83.17.2.25 0 .37-.25s-.09-.35.07-.47a.27.27 0 0 1 .43.13c.07.19.18.44.27.69a1.85 1.85 0 0 0 .71.62c.31 0-.1-.46-.14-.63a.61.61 0 0 1 .24-.55 1.21 1.21 0 0 0 .48-.19c.29-.19 0-.23 0-.54s.19-.13.24-.07a.29.29 0 0 0 .53 0 .79.79 0 0 0 0-.21A4.57 4.57 0 0 0 24.55 34c.53 0 1.6-.22 1.48.24s.68.48.29.68c-.17.09-.66.43-.77.37-.3-.16.62-.37.44-.49s-.53 0-.81.08a4.91 4.91 0 0 0-.86.12c-.19.09-.42.22-.36.39s.59.29.68.29.19 0 .38-.25.41 0 .35 0a1.05 1.05 0 0 0-.33.28.37.37 0 0 1-.46.09 1.23 1.23 0 0 0-.69 0c-.09 0-.29.19-.35.21s-.15.06-.12.13a.17.17 0 0 1 0 .18c-.05 0-.13.15-.25.07a.55.55 0 0 0-.51.06v.11c0 .16.06.43.33.23.09-.07.52 0 .79-.31s.27 0 .3.1.22.46.31.44-.15-.37 0-.39.25.3.31.26.32-.08.34.1-.12.24-.3.32-.66-.13-.92-.23a5 5 0 0 0-.75-.19l-.27.1s0 .06-.24.35a3.55 3.55 0 0 0 0 .46 4.6 4.6 0 0 0 .36 1.78c.25.08.18 0 .35 0s.34-.26.47-.1.25.11.27.36.26-.17.31.21c.07.6.21.31.21.41 0 .28 0 .84.23.85a1 1 0 0 0 .63-.24 1.26 1.26 0 0 0 .28-.58c-.01-.3.09-.1.14-.33z"/><path class="cls-2" d="M31.19 37.3c-.06 0 .14.23.08.3-.41.47.1 1.18.23 1.21a4.73 4.73 0 0 0 .09-.93 2.44 2.44 0 0 0 0-.27.36.36 0 0 0-.4-.31zM23.44 35.71c.06-.05.36-.19.34-.26s-.17-.13-.28-.11a.52.52 0 0 0-.36.13 4.79 4.79 0 0 0-.34.68.23.23 0 0 0 .12 0c.08.01.36-.29.52-.44zM31.17 39.11c-.1-.2-.22.12-.77.26a7.69 7.69 0 0 0-.83.22.83.83 0 0 0-.47 1c.16.4.06.68.43.44s.1.05.23.09.09-.16.34 0a.48.48 0 0 0 .14 0 4.45 4.45 0 0 0 1.05-1.61.73.73 0 0 0-.07-.3z"/></g></svg>