<svg id="TARGETS" xmlns="http://www.w3.org/2000/svg" viewBox="0 0 94.85 94.85" width="94.85" height="94.85"><defs><style>.cls-1{fill:#4c9f38}.cls-2{fill:#fff}</style></defs><title>Goal_3_RGB_NG</title><path class="cls-1" d="M0 0h94.85v94.85H0z"/><path class="cls-2" d="M73.13 51.33a3.21 3.21 0 1 0 3.22-3.22 3.22 3.22 0 0 0-3.22 3.22zM45.12 53a3 3 0 1 0 3-3 3 3 0 0 0-3 3zM17.62 51.33a3.21 3.21 0 1 0 3.21-3.22 3.21 3.21 0 0 0-3.21 3.22zM36.14 32.08h.47a1.37 1.37 0 0 0 1.31-1l2.4-8.08L45 41.8a1.35 1.35 0 0 0 1.18 1.12h.17a1.36 1.36 0 0 0 1.25-.82l6.8-13.41 2.49 6.79a1.37 1.37 0 0 0 1.28.9 1.36 1.36 0 0 0 1.28-.89L68 13.85l2.34 5.58a1.37 1.37 0 0 0 2.52-1.06l-3.64-8.76A1.38 1.38 0 0 0 68 8.77a1.37 1.37 0 0 0-1.26.89L58.2 31.08l-2.4-6.52a1.36 1.36 0 0 0-1.24-.9 1.37 1.37 0 0 0-1.3.82l-6.34 12.41-5-19.45a1.37 1.37 0 0 0-2.66-.16l-3.67 12H12.86v2.79h23.28z"/><path class="cls-2" d="M68.07 27a4.67 4.67 0 0 0 1.32 3.26l6.35 6.36 6.34-6.35A4.71 4.71 0 0 0 83.39 27c0-2.55-1.63-4.62-4.11-4.62-1.24 0-2.73 1.36-3.55 2.19-.81-.84-2.2-2.19-3.44-2.19A4.33 4.33 0 0 0 68.07 27zM80.1 55.77h-7.5A4.28 4.28 0 0 0 68.71 60v8.9a1.25 1.25 0 0 0 2.49 0v-7.6c0-.29.07-.68.6-.68.36 0 .44.38.45.63v22.91a1.79 1.79 0 1 0 3.58 0V71a.49.49 0 0 1 .51-.53.5.5 0 0 1 .51.53v13.2a1.79 1.79 0 1 0 3.57 0V61.25c0-.25.09-.63.45-.63.53 0 .61.39.61.68v7.64a1.25 1.25 0 0 0 2.49 0V60a4.28 4.28 0 0 0-3.87-4.23zM56.82 68.13l-2.53-8.23s-.91-2.38-2.91-2.38h-6.44c-2 0-2.91 2.38-2.91 2.38l-2.52 8.23a2.42 2.42 0 0 0-.08.46.89.89 0 0 0-.28-.21 1 1 0 0 0-1.27.41 25 25 0 0 1-1.61 2.47 1 1 0 0 1-.78.36h-3.07a1 1 0 0 1-.78-.36c-.4-.39-1.57-2.5-1.65-2.56a.89.89 0 0 0-.79-.43.91.91 0 0 0-.73.39V60a4.29 4.29 0 0 0-3.89-4.27h-7.5A4.29 4.29 0 0 0 13.19 60v8.9a1.22 1.22 0 0 0 .57 1l-2.89 15.34a.57.57 0 0 0 .46.66h.1a.58.58 0 0 0 .56-.47l2.89-15.36a1.23 1.23 0 0 0 .8-1.15V61.3c0-.29.09-.68.61-.68.36 0 .44.38.45.63v22.91a1.79 1.79 0 1 0 3.58 0V71a.52.52 0 1 1 1 0v13.2a1.79 1.79 0 1 0 3.57 0V61.25c0-.25.1-.63.46-.63.52 0 .6.39.6.68v7.64a1.25 1.25 0 0 0 1.25 1.24 1.22 1.22 0 0 0 1.1-.7v.12l2.55 4.61a1.62 1.62 0 0 1 .16.61v.69a2.74 2.74 0 0 1-.13.78l-1.22 4.85h1.35v3.6a1.25 1.25 0 0 0 2.5 0v-3.45a.63.63 0 0 1 0-.15h.75v3.6a1.25 1.25 0 0 0 2.5 0v-3.6h1.35l-1.18-4.84a2.43 2.43 0 0 1-.1-.64V74.82a1.7 1.7 0 0 1 .15-.61L39.34 70l.22-.45v-.1a1.09 1.09 0 0 0 .75.61c1.27.38 1.66-1.09 1.66-1.09l2-6.87s.12-.53.51-.41.25.67.25.67l-3.49 12.83h3.3v9.21a1.59 1.59 0 0 0 3.17 0v-9.21h.9v9.21a1.59 1.59 0 0 0 3.17 0v-9.21h3.3l-3.54-12.88s-.16-.56.24-.67.51.41.51.41l2 6.87S54.71 70.39 56 70s.82-1.87.82-1.87zM60.12 67.51A2.55 2.55 0 1 0 62.67 65a2.56 2.56 0 0 0-2.55 2.51zM67.8 75c-1.54-4-1.79-3.93-3.19-4h-3.89c-1.39 0-1.64 0-3.18 4-.22.57-1.14 2.77-1.15 2.88s-.39.92.47 1.23 1.08-.64 1.08-.64l1.56-3.86s0-.09.1-.08.06.07.06.12v10A1.32 1.32 0 0 0 61 86.08a1.31 1.31 0 0 0 1.29-1.38v-4s-.05-.61.39-.61.4.61.4.61v4a1.33 1.33 0 0 0 1.31 1.38 1.29 1.29 0 0 0 1.28-1.38V74.64v-.12l.11.09 1.42 3.46s.41.93 1.19.56.37-1.15.37-1.15S68 75.57 67.8 75z"/><path class="cls-2" d="M34 65a2.53 2.53 0 1 0 2.53 2.53A2.53 2.53 0 0 0 34 65z"/></svg>