<svg id="TARGETS" xmlns="http://www.w3.org/2000/svg" viewBox="0 0 94.85 94.85" width="94.85" height="94.85"><defs><style>.cls-1{fill:#fcc30b}.cls-2{fill:#fff}</style></defs><title>Goal_7_RGB_NG</title><path class="cls-1" d="M0 0h94.85v94.85H0z"/><path class="cls-2" d="M47.06 36.56a10.76 10.76 0 1 0 10.75 10.76 10.76 10.76 0 0 0-10.75-10.76zm-.8 4.25a.8.8 0 0 1 1.6 0v3.69a.8.8 0 0 1-1.6 0zm.8 12a5.6 5.6 0 0 1-1.66-10.92V44a3.67 3.67 0 1 0 3.31 0v-2.11a5.6 5.6 0 0 1-1.65 10.94zM34.71 47.22a.89.89 0 0 0-.82-.88h-4.71a.9.9 0 0 0-.84.88.91.91 0 0 0 .84.89h4.71a.9.9 0 0 0 .82-.89zM65 46.34h-4.76a.89.89 0 0 0-.83.88.9.9 0 0 0 .83.89H65a.91.91 0 0 0 .83-.89.9.9 0 0 0-.83-.88zM47.06 34.88a.9.9 0 0 0 .88-.83v-4.71a.88.88 0 0 0-1.76 0v4.71a.9.9 0 0 0 .88.83z"/><path class="cls-2" d="M47.06 59.57a.9.9 0 0 0-.88.83v4.71a.88.88 0 0 0 1.76 0V60.4a.9.9 0 0 0-.88-.83zM31.1 39.11l4.09 2.34a.89.89 0 0 0 .88-1.54L32 37.57a.9.9 0 0 0-1.16.36.89.89 0 0 0 .26 1.18zM63 55.34L58.94 53a.89.89 0 0 0-.88 1.54l4.09 2.34a.89.89 0 0 0 .85-1.54zM53.19 36.51a.91.91 0 0 0 1.18-.28l2.34-4.09a.9.9 0 0 0-.35-1.14.92.92 0 0 0-1.19.28l-2.33 4.09a.9.9 0 0 0 .35 1.14zM40.93 57.94a.91.91 0 0 0-1.18.28l-2.34 4.09a.88.88 0 0 0 1.53.88l2.34-4.09a.9.9 0 0 0-.35-1.16zM39.73 36.24a.88.88 0 0 0 1.53-.88l-2.35-4.08a.91.91 0 0 0-1.18-.28.9.9 0 0 0-.35 1.16zM54.4 58.21a.89.89 0 0 0-1.54.88l2.35 4.08a.88.88 0 0 0 1.53-.88zM58.92 41.42L63 39.08a.89.89 0 0 0-.88-1.54L58 39.89a.88.88 0 0 0 .88 1.53zM35.19 53l-4.08 2.34a.91.91 0 0 0-.27 1.19.89.89 0 0 0 1.15.35l4.08-2.35a.9.9 0 0 0 .29-1.18.91.91 0 0 0-1.17-.35z"/><g><path class="cls-2" d="M71 23.94l-1.77 1.95a25.35 25.35 0 0 0-39.5 8.24 25.36 25.36 0 0 1 37.94-6.52l-1.79 2a1.45 1.45 0 0 0 .1 2l4 3.62L71.1 34l3.31 3 1.09-1.2-3.31-3 2.65-2.92 3.33 3 1.09-1.2-3.33-3L77 27.46l-4-3.63a1.43 1.43 0 0 0-2 .11z"/><path class="cls-2" d="M66.7 9c-1.57.36-5.21 1-6.93 2.9-1.54 1.68-1.92 3.91-.7 7.09 0 0 7.44-2.85 9-8.32a11.12 11.12 0 0 1-8 8.93s4.36 2.47 7.89-2.29 1.52-10.58 1.52-10.58A5.57 5.57 0 0 1 66.7 9z"/><g><path class="cls-2" d="M22.18 70.91L24 69a25.35 25.35 0 0 0 39.5-8.24 25.36 25.36 0 0 1-37.94 6.52l1.79-2a1.44 1.44 0 0 0-.11-2l-4-3.63-1.12 1.24-3.31-3L17.67 59 21 62l-2.67 3L15 62l-1.09 1.2 3.33 3-1.1 1.21 4 3.63a1.43 1.43 0 0 0 2.04-.13z"/><path class="cls-2" d="M26.47 85.83c1.57-.35 5.21-1 6.93-2.9 1.54-1.67 1.92-3.9.69-7.09 0 0-7.43 2.85-9 8.32a11.12 11.12 0 0 1 8-8.92s-4.36-2.48-7.89 2.29-1.55 10.59-1.55 10.59a5.62 5.62 0 0 1 2.82-2.29z"/></g><g><path class="cls-2" d="M23.94 23l1.95 1.76a25.35 25.35 0 0 0 8.24 39.5 25.36 25.36 0 0 1-6.52-37.94l2 1.79a1.45 1.45 0 0 0 2-.1l3.62-4L34 22.88l3-3.31-1.2-1.09-3 3.31-2.92-2.65 3-3.33-1.2-1.09-3 3.33L27.46 17l-3.63 4a1.44 1.44 0 0 0 .11 2z"/><path class="cls-2" d="M9 27.28c.36 1.57 1 5.21 2.9 6.93 1.68 1.54 3.91 1.92 7.09.7 0 0-2.85-7.44-8.32-9a11.15 11.15 0 0 1 8.93 8s2.47-4.36-2.29-7.89S6.73 24.5 6.73 24.5A5.57 5.57 0 0 1 9 27.28z"/><g><path class="cls-2" d="M70.91 71.8L69 70a25.34 25.34 0 0 0-8.24-39.5 25.36 25.36 0 0 1 6.52 37.94l-2-1.78a1.44 1.44 0 0 0-2 .1l-3.63 4 1.24 1.12-3 3.32L59 76.32 62 73l3 2.65L62 79l1.2 1.09 3-3.33 1.21 1.1 3.63-4a1.44 1.44 0 0 0-.13-2.06z"/><path class="cls-2" d="M85.83 67.51c-.35-1.56-1-5.21-2.9-6.93-1.67-1.53-3.9-1.91-7.09-.69 0 0 2.85 7.44 8.32 9a11.12 11.12 0 0 1-8.92-8s-2.48 4.36 2.29 7.9 10.59 1.51 10.59 1.51a5.67 5.67 0 0 1-2.29-2.79z"/></g></g></g></svg>