<svg id="TARGETS" xmlns="http://www.w3.org/2000/svg" viewBox="0 0 94.85 94.85" width="94.85" height="94.85"><defs><style>.cls-1{fill:#a21942}.cls-2{fill:#fff}</style></defs><title>Goal_8_RGB_NG</title><path class="cls-1" d="M0 0h94.85v94.85H0z"/><path class="cls-2" d="M29.2 36.73a22.06 22.06 0 0 1 3.36-4.32l-11-12.07a37.85 37.85 0 0 0-7 9.1zM56.2 28.2a21 21 0 0 1 4.62 2.9L71.86 19a37.43 37.43 0 0 0-9.78-6.11zM81.49 31.83l-14.63 7.3a21 21 0 0 1 1.46 5.17l16.29-1.53a37 37 0 0 0-3.12-10.94M65.81 37l14.63-7.3a37.35 37.35 0 0 0-6.84-9.08l-11 12A21.51 21.51 0 0 1 65.81 37M26.3 47.42v-1L10 45v2.42a37.59 37.59 0 0 0 1.11 9.06L26.79 52a21.19 21.19 0 0 1-.49-4.54M63.76 60.8a21.64 21.64 0 0 1-4 3.74l8.59 13.92a37.53 37.53 0 0 0 8.43-7.82zM68.55 47.42a21.44 21.44 0 0 1-.48 4.49l15.72 4.52a37.24 37.24 0 0 0 1.1-9c0-.77 0-1.54-.07-2.3l-16.28 1.53v.76M31.35 61.12L18.34 71a37.55 37.55 0 0 0 8.5 7.7l8.59-13.9a22 22 0 0 1-4.08-3.68M26.56 44.08a20.49 20.49 0 0 1 1.56-5.24l-14.63-7.29a37 37 0 0 0-3.23 11.07zM66.38 79.72l-8.58-13.9a20.89 20.89 0 0 1-5 2l3 16.09a37.3 37.3 0 0 0 10.56-4.22M67.44 54.19a21.17 21.17 0 0 1-2.29 4.71l13.06 9.85a37.49 37.49 0 0 0 5-10zM50.47 68.32a20.36 20.36 0 0 1-3 .23A22.25 22.25 0 0 1 45 68.4l-3 16.08a37 37 0 0 0 11.56-.09zM48.77 26.33a21 21 0 0 1 5.23 1l5.88-15.26A37.23 37.23 0 0 0 48.77 10zM42.64 68a20.91 20.91 0 0 1-5.19-2l-8.6 14a37.16 37.16 0 0 0 10.76 4.12zM41.07 27.27a20.55 20.55 0 0 1 5.34-.95V10a37.41 37.41 0 0 0-11.25 2zM29.92 59.24a21.23 21.23 0 0 1-2.49-5l-15.72 4.51a37.27 37.27 0 0 0 5.19 10.38zM34.33 30.85a21.07 21.07 0 0 1 4.53-2.75L33 12.86a37.42 37.42 0 0 0-9.64 5.9z"/><g><path class="cls-2" d="M56.43 38.79l-5.24 5a.88.88 0 0 0-.3.75v14a.31.31 0 0 0 .3.3h5.42a.29.29 0 0 0 .3-.3v-19.6c0-.16-.12-.46-.47-.12M41.33 45.3l-5.25 5a.88.88 0 0 0-.29.75v7.48a.31.31 0 0 0 .3.3h5.42a.29.29 0 0 0 .3-.29V45.43c0-.17-.13-.47-.47-.13"/><path class="cls-2" d="M58.81 32.74a.17.17 0 0 0 0-.12.18.18 0 0 0-.1 0h-.11l-4 .91H54.45a.16.16 0 0 0 0 .22l.92.92-9.1 9.11-4.21-4.2a.11.11 0 0 0-.17 0l-1.14 1.14-6.73 6.74a.13.13 0 0 0 0 .18l1.14 1.14a.14.14 0 0 0 .17 0L42 42.17l3.06 3 1.15 1.14a.11.11 0 0 0 .17 0L56.71 36l1 1a.16.16 0 0 0 .22 0 .13.13 0 0 0 0-.1l.88-4.1z"/><path class="cls-2" d="M48.91 46.17l-2.53 2.56a.14.14 0 0 1-.17 0l-2.3-2.34c-.42-.42-.51-.08-.51.08v12.05a.29.29 0 0 0 .3.3h5.42a.31.31 0 0 0 .3-.3V46.27c0-.17-.13-.47-.51-.1"/></g></svg>