<svg id="TARGETS" xmlns="http://www.w3.org/2000/svg" viewBox="0 0 94.85 94.85" width="94.85" height="94.85"><defs><style>.cls-1{fill:#fd6925}.cls-2{fill:#fff}</style></defs><title>Goal_9_RGB_NG</title><path class="cls-1" d="M0 0h94.85v94.85H0z"/><path class="cls-2" d="M81.55 55.89l-9.15-5.22a.72.72 0 0 0-.71 0l-5.34 3.06v-6.31a.6.6 0 0 0-.3-.52l-8.86-5.12V31.56a.63.63 0 0 0-.3-.53l-5.43-3.13L57 24.72a.69.69 0 0 0 .35-.61V13.64A.71.71 0 0 0 57 13l-9.19-5.19a.68.68 0 0 0-.7 0l-9.18 5.24a.71.71 0 0 0-.36.62v10.44a.69.69 0 0 0 .35.61l5.49 3.17L38 31a.61.61 0 0 0-.31.53v10.25l-8.88 5.12a.59.59 0 0 0-.31.52v6.28l-5.32-3a.7.7 0 0 0-.7 0l-9.18 5.22a.72.72 0 0 0-.36.62V67a.71.71 0 0 0 .35.61l9.17 5.29a.77.77 0 0 0 .36.09.73.73 0 0 0 .35-.09l9.17-5.29a.71.71 0 0 0 .36-.61v-6.23l5.27 3a.61.61 0 0 0 .3.08.64.64 0 0 0 .3-.08l8.86-5.12 8.85 5.12a.64.64 0 0 0 .3.08.68.68 0 0 0 .31-.08l5.26-3V67a.71.71 0 0 0 .36.61l9.17 5.29a.73.73 0 0 0 .7 0l9.17-5.29a.71.71 0 0 0 .36-.61V56.5a.7.7 0 0 0-.36-.61zm-58.72 5l-7.75-4.4 7.75-4.44 7.73 4.4zm.7 10.1v-8.83l7.74-4.44v8.85zm14.13-8.8l-5-2.87V56.5a.7.7 0 0 0-.36-.61l-2.63-1.5v-5.92l7.95 4.59zm25.91-4.49l7.77 4.42v8.87l-7.75-4.47zM72.74 71v-8.84l7.74-4.44v8.85zM56 32.6v8.49l-7.35-4.24zm-5.93-5.51L48.16 26v-6.7l7.74-4.44v8.84zM39 23.7v-8.81l7.77 4.41V26l-1.91 1.1zm-.11 8.9l7.35 4.25-7.35 4.24zm0 29.64v-8.48L46.22 58zm8-5.29l-7.34-4.24 7.34-4.24zm0-10.58l-7.34-4.24 7.34-4.24zM48 37.89l7.34 4.24L48 46.37zM56.58 52l-7.95-4.59 7.95-4.59 8 4.59zm.61 10.23v-9.17l8-4.59v6l-2.63 1.5a.72.72 0 0 0-.36.62v2.83z"/><path class="cls-2" d="M32.7 38.33V27.86a.72.72 0 0 0-.36-.62L23.18 22a.68.68 0 0 0-.7 0l-9.18 5.28a.71.71 0 0 0-.36.61v10.44a.71.71 0 0 0 .35.62l9.17 5.28a.68.68 0 0 0 .36.1.64.64 0 0 0 .35-.1L32.34 39a.72.72 0 0 0 .36-.67zM22.11 42.4l-7.76-4.47v-8.82l7.78 4.41zm.72-10.1l-7.75-4.41 7.75-4.44 7.73 4.41zM81.55 27.4l-9.15-5.22a.72.72 0 0 0-.71 0l-9.18 5.25a.73.73 0 0 0-.36.62v10.44a.71.71 0 0 0 .36.61l9.17 5.29a.73.73 0 0 0 .7 0l9.17-5.29a.71.71 0 0 0 .36-.61V28a.7.7 0 0 0-.36-.6zM71.32 42.55l-7.75-4.47v-8.82l7.77 4.42zm.68-10.1l-7.75-4.4 7.76-4.44L79.78 28zM56.94 70.05l-9.15-5.22a.73.73 0 0 0-.7 0l-9.19 5.26a.69.69 0 0 0-.35.61v10.44a.69.69 0 0 0 .35.61L47.07 87a.73.73 0 0 0 .35.09.74.74 0 0 0 .36-.09L57 81.75a.69.69 0 0 0 .35-.61V70.66a.68.68 0 0 0-.41-.61zM46.72 85.2L39 80.73v-8.81l7.77 4.41zm.72-10.1l-7.76-4.4 7.76-4.44 7.73 4.4z"/></svg>