<svg id="TARGETS" xmlns="http://www.w3.org/2000/svg" viewBox="0 0 94.85 94.85" width="94.85" height="94.85"><defs><style>.cls-1{fill:#19486a}.cls-2{fill:#fff}</style></defs><title>Goal_17_RGB_NG</title><path class="cls-1" d="M0 0h94.85v94.85H0z"/><path class="cls-2" d="M85.92 34.58a.93.93 0 0 0-1-.88l-1.43-.05c-.58 0-1-.15-1.18-.7a16.15 16.15 0 0 0-.92-2.75 1.18 1.18 0 0 1 .36-1.4c.43-.35.77-.65 1.19-1a1 1 0 0 0 .24-1.24A13.56 13.56 0 0 0 81 23.6a.94.94 0 0 0-1.32-.12c-.45.29-.77.5-1.19.8s-.92.48-1.37.11a59.48 59.48 0 0 0-2.35-1.68 1.17 1.17 0 0 1-.54-1.33c.15-.55.25-1 .37-1.53a1 1 0 0 0-.6-1.15 13.57 13.57 0 0 0-3.51-1.07 1 1 0 0 0-1.15.67c-.19.5-.32.86-.49 1.35s-.46.92-1 .9h-2.89a1.19 1.19 0 0 1-1.22-.77c-.2-.52-.38-.94-.6-1.45a1 1 0 0 0-1.14-.59 14.1 14.1 0 0 0-3.47 1.19 1 1 0 0 0-.53 1.23c.14.51.24.88.4 1.37s.17 1-.32 1.34-1.68 1.19-2.32 1.72a1.2 1.2 0 0 1-1.44.1c-.47-.31-.86-.54-1.34-.83a1 1 0 0 0-1.26.16 13.7 13.7 0 0 0-2.11 3 .94.94 0 0 0 .29 1.3l1.13.88c.47.34.74.72.53 1.27s-.68 2.18-.87 2.75a1.17 1.17 0 0 1-1.1.93c-.56 0-1 .07-1.57.12a1 1 0 0 0-.92.87 13.67 13.67 0 0 0 .06 3.67.94.94 0 0 0 1 .88h1.43c.57 0 1 .15 1.17.7a21.94 21.94 0 0 0 .92 2.75 1.19 1.19 0 0 1-.35 1.4c-.44.35-.78.65-1.2 1a1 1 0 0 0-.24 1.24 13.56 13.56 0 0 0 2.21 2.94 1 1 0 0 0 1.33.12c.44-.29.76-.5 1.18-.8s.92-.48 1.37-.11 1.79 1.31 2.36 1.68A1.16 1.16 0 0 1 58.9 52c-.14.55-.24 1-.37 1.53a1 1 0 0 0 .54 1.15 14.06 14.06 0 0 0 3.52 1.08 1 1 0 0 0 1.14-.68c.19-.5.32-.86.49-1.35s.46-.92 1-.9h2.89a1.18 1.18 0 0 1 1.22.77c.2.52.38.94.6 1.45a1 1 0 0 0 1.11.61 14.17 14.17 0 0 0 3.48-1.19 1 1 0 0 0 .53-1.23c-.15-.51-.25-.88-.4-1.37s-.17-1 .31-1.34 1.82-1.32 2.33-1.72a1.19 1.19 0 0 1 1.44-.1c.47.31.86.54 1.34.83a1 1 0 0 0 1.25-.16 13.7 13.7 0 0 0 2.11-3 .94.94 0 0 0-.29-1.3c-.41-.33-.72-.57-1.13-.88s-.74-.72-.53-1.27.67-2.07.87-2.75a1.17 1.17 0 0 1 1.11-.93c.56 0 1-.07 1.56-.12a1 1 0 0 0 .93-.87 13.67 13.67 0 0 0-.03-3.68zm-19.31 14.3a12 12 0 1 1 12.06-12 12 12 0 0 1-12.06 12z"/><path class="cls-2" d="M57.75 33.42c.28.19.48-.05.58-.16a.37.37 0 0 0 0-.43c-.07-.14.14-.25.28-.29a8.43 8.43 0 0 0 .8-.48 2.73 2.73 0 0 1 1.61 0 .86.86 0 0 0 1.06-.21 2.81 2.81 0 0 1 .77-.64c.16-.07-.38-.57-.81 0s-.67.59-.87.59-1.43-.31-1.58-.7.38-.68.83-.89a10.61 10.61 0 0 1 2-.28c.64-.14 1.46-.46 1.88-.18s-1.73.76-1 1.14c.25.14 1.38-.65 1.77-.84.91-.47-.88-.63-.64-1.59s-2.1-.68-3.35-.59a11.31 11.31 0 0 0-1.65 1.27c.15 0 .3.08.33.19a1.38 1.38 0 0 1-.15.67 1.76 1.76 0 0 1-1.12.51.51.51 0 0 1-.21-.1 8.09 8.09 0 0 0-.53.77 1.59 1.59 0 0 1 .78-.27c.27 0 .62.09.66.27s-.66.49-.79.61c-.37.33-.94 1-1.28 1.09a.35.35 0 0 1-.25 0c-.09.23-.18.46-.26.7a1.27 1.27 0 0 1 1.14-.16zM75.17 36.33a2.76 2.76 0 0 1-1.11.45c-.31.1-.62.86-.55 1.27s1 1.51.33 1.46a4.12 4.12 0 0 1-1.65-1.44c-.21-.58-.46-1.16-.62-1.6a.63.63 0 0 0-1-.3c-.38.26.1.52-.17 1.07s-.47 1-.87.59c-1-1.19-2.53-.61-2.76-1.93-.13-.72-.74-.65-1.26-1.06s-.8-.62-.89-.33 1.62 1.61 1.73 2c.19.51-.5 1-1 1.08s-.72-.28-1.21-.8-.71-.88-.75-.48a2.35 2.35 0 0 0 1 1.77c.43.27.91.39.77.83s0 .2-.48.67a1.29 1.29 0 0 0-.55 1.29c0 .66-.14.7-.24 1.25s-.34.07-.55.88a3.14 3.14 0 0 1-.66 1.36 2.22 2.22 0 0 1-1.45.54c-.48 0-.54-1.32-.54-2 0-.23-.33.45-.49-.93-.1-.88-.67.09-.71-.5s-.33-.47-.62-.84-.66 0-1.08.22-.24.28-.82.09A10.59 10.59 0 0 0 63.66 47a.43.43 0 0 1-.13-.51 2.37 2.37 0 0 1 2.08-1.26c1.72-.16 4 1.13 4.34.92S71 45 72.1 45a1.66 1.66 0 0 1 1 .24 10.18 10.18 0 0 0 1.06-.91 1.66 1.66 0 0 1-.33-.12c-.58-.29-.51.18-.8.07s.33-.76-.53-.21-.62-.08-1-1a1.92 1.92 0 0 1 1.11-2.26 12.73 12.73 0 0 1 1.92-.5c1.28-.32 1.55-1.07 1.78-.61l.12.24a1.66 1.66 0 0 1 .16.64A11 11 0 0 0 77 39c-.31-.12-1.45-1.73-.51-2.79.15-.18-.32-.71-.19-.72a.83.83 0 0 1 .88.64 11 11 0 0 0-.18-1.66 2.2 2.2 0 0 1 0 .37.69.69 0 0 1-1.24.09c-.11-.16-.56-.58-.55.15s.64.81-.04 1.25zm-10 4.16c-.15.23-.55 2-.82 1.81s.11-2.07.19-2.21c.46-.77 1.37-.72.68.4zm4.33-2.1a.94.94 0 0 1-1-.09c-.27-.21.17-.55.33-.56.4-.03.93.47.72.65zm4.43-.39c-.09-.26.13-.4.34-.3a1 1 0 0 1 .5.61c0 .17-.43.15-.54.1s-.23-.13-.3-.41zm1.43 1.4a.94.94 0 0 1-1-.09c-.27-.21.17-.55.33-.56.31-.02.88.47.67.66zM57.36 34.59a10.38 10.38 0 0 1 1.74.41c.61.23 1.57.76 2.14.53.41-.17.73-.39.69-.73s-.38-.52-.79-.24c-.15.11-.47-.64-.72-.6s.31.87.1.91-.64-.88-.71-1-.4-.52-.7-.24c-.63.59-1.64.55-1.84.71a1 1 0 0 1-.22.12c-.41.17-.54-.25-.55-.58a10 10 0 0 0-.36 1.81.35.35 0 0 1 0-.08c.34-.64.41-.72.52-.78a2.44 2.44 0 0 1 .41-.16z"/><g><path class="cls-2" d="M20.69 33.06c.67 0 1-.48 1-1.15V26c0-.67-.29-1.15-1-1.15s-1 .48-1 1.15v6c.05.58.31 1.06 1 1.06zM33.3 26.51h-.02l-.73 4.45h1.49l-.74-4.45zM28.06 31.83V26c0-.66-.29-1.12-1.06-1.12h-.79V33H27c.77 0 1.06-.5 1.06-1.17z"/><path class="cls-2" d="M14.55 16.34v35.32h25.31V16.34zm17.75 7h2.13l2.11 11.1h-1.91l-.35-2h-2l-.32 2h-1.75zm-8 0h2.88c2 0 2.71 1.26 2.71 3v5.16c0 1.7-.71 3-2.71 3h-2.84zm-6.47 2.86c0-1.73.85-3 2.82-3s2.83 1.26 2.83 3v5.38c0 1.71-.85 3-2.83 3s-2.82-1.28-2.82-3zm18.95 20.71a.16.16 0 0 1-.15.16h-18.8a.16.16 0 0 1-.15-.16V44a.15.15 0 0 1 .15-.15h18.8a.15.15 0 0 1 .15.15zm0-5.19a.15.15 0 0 1-.15.15h-18.8a.15.15 0 0 1-.15-.15v-2.94a.16.16 0 0 1 .15-.16h18.8a.16.16 0 0 1 .15.16z"/><path class="cls-2" d="M12.61 20.63h-1.84v35.32h25.3v-2.13H12.61V20.63z"/></g><path class="cls-2" d="M63.75 73.47l-9.11 7.17a.48.48 0 0 1-.39.1c-.2 0-.27-.18-.27-.44v-3.63H30.77a.35.35 0 0 1-.31-.38v-6.22a.35.35 0 0 1 .31-.38H54v-3.63c0-.27.07-.39.28-.44a.46.46 0 0 1 .38.1l9 6.89a.53.53 0 0 1 .27.49.55.55 0 0 1-.18.37z"/></svg>