<svg id="TARGETS" xmlns="http://www.w3.org/2000/svg" viewBox="0 0 94.85 94.85" width="94.85" height="94.85"><defs><style>.cls-1{fill:#c5192d}.cls-2{fill:#fff}</style></defs><title>Goal_4_RGB_NG</title><path class="cls-1" d="M0 0h94.85v94.85H0z"/><path class="cls-2" d="M54.17 21.12l-6.8-6.21-7.24 6.21H18.6V46h57.54V21.12zm-21.81 5.54h2.86v4.82h-2.86zM24.08 24h2.86v2.14h-2.86zm0 2.64h2.86v4.76h-2.86zm6.21 14.42h-2.85v-4.77h2.85zm0-5.29h-2.85v-2.09h-.5v2.11h-2.86v.5h2.86v4.79h-2.86v-7.4h6.21zm0-4.37h-2.85v-4.74h2.85zm0-5.26h-2.85V24h2.85zm4.93 15h-2.86v-4.85h2.86zm3.35 0h-2.85v-4.85h2.85zm0-5.34h-2.85v-2.07h-.5v2.06h-2.86v-2.06h6.21zm0-4.31h-2.85v-4.83h2.85zm0-5.32h-2.85v-2.09h-.5v2.08h-2.86v-2.08h6.21zm8.73-5.75a3.25 3.25 0 1 1-3.25 3.24 3.24 3.24 0 0 1 3.25-3.25zm-.25 25.06h-3.72V35.36h3.72zm4.36 0h-3.86V35.36h3.86zm0-10.61h-8.08v-.7s1.18-1.2 4-1.2 4 1.2 4 1.2zM65 26.66h2.86v4.82H65zM56.73 24h2.86v2.14h-2.86zm0 2.64h2.86v4.76h-2.86zm2.86 14.42h-2.86v-4.77h2.86zm3.35 0h-2.85v-4.77h2.85zm0-5.29h-2.85v-2.09h-.5v2.11h-2.86v-2.11h6.21zm0-4.37h-2.85v-4.74h2.85zm0-5.26h-2.85V24h2.85zm4.93 15H65v-4.85h2.86zm3.35 0h-2.85v-4.85h2.85zm0-5.34h-2.85v-2.07h-.5v2.06H65v-2.06h6.21zm0-4.31h-2.85v-4.83h2.85zm0-5.32h-2.85v-2.09h-.5v2.08H65v-2.08h6.21z"/><path class="cls-2" d="M46.11 25.12a.24.24 0 0 0 .19-.12l1.26-1.29V21.2a.27.27 0 0 0-.53 0v2.33l-1.11 1.14a.27.27 0 0 0 0 .38.26.26 0 0 0 .19.07zM47.37 12.94l7.69 6.88h23.79L73 12.94H55.86a2.45 2.45 0 0 1-1.45-.48l-7-5.23-7.05 5.35a2.43 2.43 0 0 1-1.47.49H22.67L16 19.85h23.69zM26.3 70.11s-.48-1.79-2-1.77h-5.65a1.34 1.34 0 0 1-1-.49c-.53-.53-2.11-3.35-2.21-3.44l-.78-1.29a1.27 1.27 0 0 0-1-.63 1.24 1.24 0 0 0-1.23 1.24 2.2 2.2 0 0 0 .12.54l4.19 7.55a2.21 2.21 0 0 1 .21.82v.84a2.76 2.76 0 0 1-.1.75L15 80.48h1.81v5.46a1.67 1.67 0 1 0 3.34 0v-5.26a1.11 1.11 0 0 1 0-.2h1a1.11 1.11 0 0 1 0 .2v5.19a1.72 1.72 0 0 0 1.12 1.66 1.68 1.68 0 0 0 2.23-1.59v-5.46h1.81L24 72s-.13-.43.21-.52.42.32.42.32l2 6.27a1.16 1.16 0 0 0 1.4.84c1.08-.29.7-1.46.7-1.46z"/><path class="cls-2" d="M21.17 66.77a3.4 3.4 0 1 0-3.4-3.41 3.41 3.41 0 0 0 3.4 3.41z"/><g><path class="cls-2" d="M57.87 66.63a3.35 3.35 0 1 0-3.34-3.35 3.34 3.34 0 0 0 3.34 3.35zM65.89 76.35c0-.15-1-2.51-1.29-3.26-2-5.19-2.35-5.15-4.18-5.21h-5.1c-1.82.06-2.16 0-4.17 5.21-.29.75-1.5 3.63-1.51 3.78 0 0-.5 1.21.62 1.61s1.41-.84 1.41-.84l2-5.06s.05-.11.12-.11.08.11.09.17v13.18a1.73 1.73 0 0 0 1.72 1.8 1.71 1.71 0 0 0 1.69-1.8v-5.26s-.07-.81.51-.8.52.8.52.8v5.26a1.74 1.74 0 0 0 1.73 1.8 1.69 1.69 0 0 0 1.67-1.8v-13.2c0-.12 0-.15.06-.16s.15.12.15.12l1.85 4.54s.54 1.21 1.56.74.55-1.51.55-1.51z"/></g><g><path class="cls-2" d="M79.06 60.63h-6.65A3.81 3.81 0 0 0 69 64.42v7.91a1.11 1.11 0 0 0 2.21 0v-6.79c0-.26.07-.6.53-.6s.4.34.41.55v20.37a1.59 1.59 0 0 0 3.18 0V74.13a.43.43 0 0 1 .45-.47.42.42 0 0 1 .44.47v11.73a1.6 1.6 0 0 0 3.19 0V65.49c0-.21.08-.55.4-.55s.53.34.53.6v6.79a1.11 1.11 0 0 0 2.22 0v-7.91a3.81 3.81 0 0 0-3.5-3.79zM70.26 55.2c.12-.27.4-.73 1.4-.86a1.39 1.39 0 0 0 .51-.17 3.71 3.71 0 0 1 .62-.85 1.15 1.15 0 0 0 0-.19c0-.45-.52-1-1.52-.52-1.22.58-1.09 2.39-1.09 2.39.03.16.06.27.08.2zM79.71 54.34c1 .13 1.28.59 1.39.86 0 .07.05 0 .07-.2 0 0 .14-1.81-1.08-2.39-1-.47-1.47.07-1.52.52a.82.82 0 0 0 0 .23 4.23 4.23 0 0 1 .55.78 1.41 1.41 0 0 0 .59.2zM75.67 59.46a3.39 3.39 0 1 0-3.39-3.39 3.39 3.39 0 0 0 3.39 3.39z"/></g><g><path class="cls-2" d="M43.07 59.75H36a4 4 0 0 0-3.52 3.93v8.22a1.15 1.15 0 1 0 2.3 0v-7.06c0-.27.07-.63.56-.63.33 0 .4.36.41.58V86a1.66 1.66 0 0 0 3.31 0V73.76a.45.45 0 0 1 .47-.48.45.45 0 0 1 .47.48V86a1.65 1.65 0 0 0 3.3 0V64.79c0-.22.08-.58.42-.58s.56.36.56.63v7.06a1.15 1.15 0 0 0 2.3 0v-8.22a4 4 0 0 0-3.51-3.93zM41.78 54.75c-.28-.23-.52-.45-1-.22-.31.14-.43.24-.81.42a8.25 8.25 0 0 1-2.11.63 8.06 8.06 0 0 1-1.67.12 3.36 3.36 0 0 0 6.68.07c-.56-.54-.46-.49-1.09-1.02z"/><path class="cls-2" d="M36.21 55a7.41 7.41 0 0 0 1.54-.14 7.56 7.56 0 0 0 1.9-.62 10.08 10.08 0 0 1 1.05-.43 1.14 1.14 0 0 1 .7-.11 1.12 1.12 0 0 1 .3.2l.26.22s.13.12.91.72c.09.07.17.14.23.12s.1-.58.07-.88a5.06 5.06 0 0 0-1-2.3.73.73 0 0 0-.72-.33c-.45.08-.44-.23-.75-.41a3 3 0 0 0-2.93.47 7.59 7.59 0 0 0-2.19 3c-.13.27.2.49.63.49z"/></g></svg>