<svg id="TARGETS" xmlns="http://www.w3.org/2000/svg" viewBox="0 0 94.85 94.85" width="94.85" height="94.85"><defs><style>.cls-1{fill:#0a97d9}.cls-2{fill:#fff}</style></defs><title>Goal_14_RGB_NG</title><path class="cls-1" d="M0 0h94.85v94.85H0z"/><path class="cls-2" d="M58.51 20.07s-12.68-5-14.52-5.59S36.49 7.56 34.9 7l2.1 6.4s-.17.58-.5.75-20 4.67-20 4.67-8.76-6-9.34-6.26c0 0-.5 0-.25.42s3.75 6.09 3.92 7-1 4.59-1.5 5.5c0 0-.25.26.33.09s6.63-3.92 6.63-3.92 4.22 1.42 6.39 1.83a11 11 0 0 1-1.38 2.38A14 14 0 0 0 25.64 24s10.51 1.5 13.76 1.84c0 0-1.25 3.84-1.58 4.75a25.32 25.32 0 0 0 6.26-4.42s12.09-2.63 14.59-5a.69.69 0 0 0-.16-1.1zm-9.85 0a1.24 1.24 0 1 1 0-2.47 1.24 1.24 0 0 1 0 2.47zM82.12 33c-.63-.65-3.67-3.48-10.51-3.95A28 28 0 0 0 58.5 31.3a23.13 23.13 0 0 0-5-1.65s-.35-.13-.39.07.06.19.23.37a4.23 4.23 0 0 1 1.56 2.77 3.15 3.15 0 0 1-1.4 2.45l-.2.13a.18.18 0 0 0 0 .1.16.16 0 0 0 .15.16h.25a10.94 10.94 0 0 0 4.9-1.57s8.23 2.7 13.4 2.7c4.89 0 8.72-2 10-3.42l.08-.12a.17.17 0 0 0 .06-.14.17.17 0 0 0-.02-.15zm-4.39.4a1 1 0 1 1 1-1 1 1 0 0 1-1 1.03zM79.8 62.4a6.92 6.92 0 0 1-1-3.25 7 7 0 0 1 1-3.24.27.27 0 0 0 0-.08.1.1 0 0 0-.09-.09h-.06a4.68 4.68 0 0 0-3.37 2.49s-2.95-2.5-5.7-2.5c-3.18 0-5.44 2.88-5.79 3.36.35.47 2.61 3.36 5.79 3.36 2.75 0 5.7-2.5 5.7-2.5a4.69 4.69 0 0 0 3.38 2.49.09.09 0 0 0 .09-.09zm-11-2.88a.93.93 0 1 1 .93-.93.93.93 0 0 1-.88.93zM60.45 52.59c-.32-.43-2.38-3.05-5.26-3.05-2.5 0-5.18 2.26-5.18 2.26a4.23 4.23 0 0 0-3.06-2.25c-.05 0-.09 0-.08.08a.15.15 0 0 0 0 .07 6.27 6.27 0 0 1 .94 2.95 6.39 6.39 0 0 1-.94 3 .08.08 0 0 0 .07.08h.05A4.23 4.23 0 0 0 50 53.46s2.68 2.27 5.18 2.27c2.88 0 4.94-2.62 5.26-3v-.06zm-3.68.41a.84.84 0 1 1 0-1.68.84.84 0 0 1 0 1.68zM67.05 50.24a.89.89 0 1 0-.88.88.88.88 0 0 0 .88-.88zM63.66 43.27a1.14 1.14 0 1 0 1.13 1.13 1.13 1.13 0 0 0-1.13-1.13zM62.3 70.55l2-1.35c.1 0 .54-.18.44-.51s-.51-.25-.51-.25h-2.71c-.47 0-.54-.52-.54-.52a7.67 7.67 0 0 0-.82-2.28c-.21-.34-.35-.39-.52-.33s-.23.12-.24.44a9.55 9.55 0 0 1-.41 2c-.22.61-.46.63-1 .6s-2 0-2 0a1.74 1.74 0 0 0-.42 0 .34.34 0 0 0-.18.63c.31.23 1.89 1.1 2.27 1.36a.75.75 0 0 1 .33.76c0 .14-.85 2.08-1 2.45s.1.48.1.48c.31.17.61-.16.61-.16a23.19 23.19 0 0 0 2.06-1.56.47.47 0 0 1 .66 0 16.81 16.81 0 0 0 2.1 1.67.4.4 0 0 0 .49 0c.22-.15.07-.47.07-.47s-.67-2-.85-2.46.07-.5.07-.5zM43.86 41.75a.68.68 0 1 0 .57-.77.67.67 0 0 0-.57.77zM45.44 37a.68.68 0 1 0 .57-.78.68.68 0 0 0-.57.78zM49.92 42.14a.68.68 0 1 0-.57.78.69.69 0 0 0 .57-.78zM40.85 44a.71.71 0 0 0-.59.8.7.7 0 0 0 .8.6.71.71 0 1 0-.21-1.4zM42.09 38.19a.68.68 0 1 0-1.35.2.68.68 0 1 0 1.35-.2zM65.72 13l1.66-.15a1.13 1.13 0 0 0 .55.41l.17 1.8a.25.25 0 0 0 .25.23.25.25 0 0 0 .25-.29l-.17-1.73a1.09 1.09 0 0 0 .63-.32l1.45.86a.28.28 0 0 0 .13 0 .24.24 0 0 0 .21-.12.25.25 0 0 0-.08-.34l-1.47-.88a1.35 1.35 0 0 0 0-.29 1.05 1.05 0 0 0-.26-.69l.83-1a.25.25 0 0 0-.38-.32l-.84 1a1.09 1.09 0 0 0-.44-.1 1.08 1.08 0 0 0-.63.23L66.4 10a.25.25 0 0 0-.35 0 .24.24 0 0 0 0 .35l1.27 1.45a1.15 1.15 0 0 0-.13.49v.14l-1.51.13a.26.26 0 0 0-.23.27.25.25 0 0 0 .27.17zM71.67 20.27a1 1 0 0 0-.14.65l-1.84.31a.25.25 0 0 0-.2.29.26.26 0 0 0 .25.21l1.89-.32a1 1 0 0 0 .35.37.69.69 0 0 0 .13.05l-.68 1.36a.26.26 0 0 0 .11.34h.12a.24.24 0 0 0 .22-.14l.74-1.48a1.13 1.13 0 0 0 .64-.25l1.63.8a.25.25 0 0 0 .33-.11.26.26 0 0 0-.11-.34l-1.56-.77a1.06 1.06 0 0 0 .06-.7l1.5-.78a.24.24 0 0 0 .1-.33.25.25 0 0 0-.34-.11l-1.51.79a1.1 1.1 0 0 0-.22-.21 1.11 1.11 0 0 0-.73-.14l-.4-1.23a.25.25 0 0 0-.48.16l.47 1.25a1.09 1.09 0 0 0-.33.33zM76.85 15.54l1.62-.4a1 1 0 0 0 .6.32l.44 1.76a.27.27 0 0 0 .25.19h.06a.25.25 0 0 0 .18-.3l-.43-1.68a1.13 1.13 0 0 0 .58-.42l1.56.63a.15.15 0 0 0 .09 0 .27.27 0 0 0 .2-.14.25.25 0 0 0-.14-.33l-1.59-.64a1.51 1.51 0 0 0 0-.3 1 1 0 0 0-.37-.64l.67-1.11a.25.25 0 0 0-.42-.26l-.68 1.12a1.14 1.14 0 0 0-.45 0 1.07 1.07 0 0 0-.59.32L77 12.47a.25.25 0 1 0-.32.38l1.47 1.23a1.09 1.09 0 0 0 0 .51.69.69 0 0 0 0 .13l-1.48.36a.26.26 0 0 0-.18.31.25.25 0 0 0 .36.15zM33.29 38.24a3.3 3.3 0 0 0 .57-2.61.36.36 0 0 0-.4-.33 3.17 3.17 0 0 0-2.46 1 7.66 7.66 0 0 0-1.06 1.62 5 5 0 0 0-3.45 0 .42.42 0 0 0 0-.16c-.21-.67-1.74-.77-3.41-.24s-2.86 1.48-2.65 2.13 1.19.69 2.43.47h.13a12.42 12.42 0 0 0-1 1.22 6.7 6.7 0 0 0-1.13 2.6 2.12 2.12 0 0 0-.57-.09c-.93 0-1.68 0-1.68 1.46s.75 1.46 1.68 1.46a2.71 2.71 0 0 0 .41 0 12.06 12.06 0 0 0 .67 3.13A11.73 11.73 0 0 0 25 50a2.06 2.06 0 0 0 0 .43c.13.92.24 1.67 1.68 1.47s1.34-1 1.21-1.88a1.65 1.65 0 0 0-.27-.73A6.79 6.79 0 0 0 29.55 48a11.65 11.65 0 0 0 1.64-2v.52c0 1.27.29 2.24.84 2.33s1.47-1.21 1.74-2.94-.06-3.23-.75-3.34a.74.74 0 0 0-.55.19 4.93 4.93 0 0 0-.6-3.28 7.23 7.23 0 0 0 1.42-1.24z"/><path class="cls-2" d="M80.84 74.35l-1.07-.13a4.9 4.9 0 0 1-.54 0 39 39 0 0 0-13.06 2.06 136.69 136.69 0 0 1-24.61 6.02c-.07-1-.79-3.57.26-4.51a2.26 2.26 0 0 1 2.53-.71c.61.14 1 1.77 1.3 2.4s.76.25.82-.14a5.75 5.75 0 0 0-.35-1.49c-.08-.39 0-.39.49-.32s.71.4 1.27.67 1.1.1 1.12-.43-.58-.61-1.15-.79-.85-.27-.44-.7a1.27 1.27 0 0 0 .42-1.34c-.18-.41-.71-.51-1.3.32s-1.24.82-1.37.31 1-1.85 1.45-2.59a3.09 3.09 0 0 1 2.06-1.26c.88-.21 1.28-.21 1.26-.59s-1-.31-1.4-.31a.59.59 0 0 1-.65-.69c0-.45.71-1 1.26-1.57s.71-.84.37-1.24-1-.29-1.59.24a10.86 10.86 0 0 0-1.21 1.55c-.26.28-.53-.24-.89-.67S45 67.8 44.74 68s0 .55.42 1a3 3 0 0 1 .7 2 1.71 1.71 0 0 1-1.08 1.66c-.35.1-.21-1-.82-1s-.71.69-.67 1.63-1 1.38-1.47.93a6.68 6.68 0 0 1-.9-2.87c0-.67.94-1.37 1.53-1.79s1.49-.51 1-1.19-2.12.19-2.73.82-.88.43-1 .14a5.45 5.45 0 0 1 .1-2.3 2.76 2.76 0 0 1 2.18-1.9 3.85 3.85 0 0 1 2.36 1c.33.21.92.31 1-.16s-.92-1-1.33-1.24-.65-.23-.53-.57 1.33-.8 1.74-1 1.24-.51.75-1.14-2 .38-2.43.59-.34-.8-.4-1.06 0-1.1-.72-1.1-.63 1.34-.67 2-.55.63-1.47 1.28a13.86 13.86 0 0 0-1.77 1.73c-.3.21-.43-.49-.47-1.53a4 4 0 0 1 .57-2.36 6.4 6.4 0 0 1 1.9-1.51.41.41 0 1 0-.39-.73c-.53.26-1 .41-1.28.16s.34-1.14.73-1.87.41-1.57-.14-1.88-1.27.47-1.49 1.08-.55.69-.88.2-.71-.77-.89-.63-.39.33.1 1a3.57 3.57 0 0 1 .63 2c.06.61-.43.75-.8.46s-1-.58-1.1-.24.29.69.82.9.47 1.08.49 1.51-.12.71-.57.63a3 3 0 0 1-1.49-1.73 7.77 7.77 0 0 0-.14-1.33c-.13-.28-.65-.12-.68.23a12.14 12.14 0 0 1 0 1.48c-.12.23-.75-.12-1.46-.43s-1.43-.06-1.35.39 1.39 1.1 1.74 1.1.59.33.4.61-.89.76-1.12 1 .1.88.63.47a3.35 3.35 0 0 1 1.78-.95 1.45 1.45 0 0 1 1.32.71c.1.28-.34.39-.85.59s-.72.49-.74.69.1.49.65.23a3 3 0 0 1 1.25-.21c.51-.06.63.57.63.57.35 1 1.57 3.94 1.77 4.36s0 .8-.57.78-1.3 0-1.24.59 1.24.55 2 .61.75.84.89 1.92-1.18 1.2-1.84.67a16.12 16.12 0 0 1-2.59-3 1.67 1.67 0 0 1 .25-1.75c.23-.37.72-.33 1-.47a.55.55 0 0 0 .13-.81c-.19-.31-.84 0-1 .24s-.5.33-.5 0 .12-1.14.12-1.45-.16-.69-.69-.49-.6 2.51-.55 3.37-.43.94-.74.85A4.52 4.52 0 0 1 31.29 70c-.21-.45-.15-.6.36-1.33a3.3 3.3 0 0 0 .55-1c.08-.34-.38-.43-.61-.12a1.87 1.87 0 0 1-.73.69c-.25.07-.11-1.08-.13-1.3s.05-.57-.48-.55-.35 1.26-.35 1.47-.43.16-1 .1-.77.57-.24.59A2.4 2.4 0 0 1 30 69a2 2 0 0 1 .14 1.46c-.12.29-.61-.08-1.42-.08s-1.65.1-1.69.59.61 1 1.36.94 1.57-.1 1.73.14-.16.31-.47.6-.42.63-.22.91.73.19 1.12-.18a1.55 1.55 0 0 1 1.36-.49 3.46 3.46 0 0 1 2 .88c.41.36.12.75-.36.91a5.13 5.13 0 0 0-1.55.78 1 1 0 0 1-1.39 0c-.39-.33-.94-.74-1.2-.37s.28.84.51 1 .39.18.18.59a5.59 5.59 0 0 1-1.14 1.14.49.49 0 0 0 .43.84A6.74 6.74 0 0 0 31 77.42c.14-.12.3-.4.41 0a4.44 4.44 0 0 1 0 1.13c0 .28-.21.61.2.69a.44.44 0 0 0 .53-.23 7 7 0 0 0 .1-1.01 2.06 2.06 0 0 1 .59-1.65c.55-.58 1.76-.35 2.51-.35s.82.59.78 1.06-.94.9-1.21 1.1-1 .31-.75.82.43.35.75.35 1.13-.9 1.72-1 1.06 0 1.53 1.26a12.15 12.15 0 0 1 .82 3.1 129.78 129.78 0 0 1-13.69 1c-1.08.14-1.88.26-2.51.35a5.14 5.14 0 0 1 1-1.06c.4-.38.33-.89.11-1.83s.27-1.49.54-2.2a3.14 3.14 0 0 0-.25-2 1.1 1.1 0 0 0-.17-.28 6 6 0 0 0-1.15 2.14c-.16.93 0 1.38-.26 2s-.85 1-.81 1.41a7.49 7.49 0 0 1-.15 2l-.7.08a2.75 2.75 0 0 0-.28-1.44c-.12-.28-.46-.68 0-1.22a2.12 2.12 0 0 0 .56-1.8c0-.84.11-.92.8-1.56s.42-1.61.34-2.25.24-.48.67-1 0-1.45.08-2.12.5-.54.4-1.52a4.15 4.15 0 0 1 .21-2.1c.24-1-1.05-2.06-1.28-2.24.15.14 0 .45-.34 1.26s0 1.25.2 1.84-.19.66-.26 1.29.21.83-.41 1.43-.63 1.04-.63 2.31-.83 1.1-1.25 1.57.18 1.1.14 2a1.72 1.72 0 0 1-.23.81 1.86 1.86 0 0 0 0-1.21c-.39-.88-.43-1.3-.34-1.48a2.43 2.43 0 0 1 .57-.59 2.1 2.1 0 0 1-.14-.24c-.17-.4 0-.9.46-1.9s.15-1-.16-1.56-.31-.75.19-1.25a1.52 1.52 0 0 0 .39-1.42 2.4 2.4 0 0 1-.16-1.43c.2-.68.63-.74.39-1.3s-.43-1.08-.43-1.08c-.24-.62.48-1 0-2s-.07-1.2-.31-2.45a1.33 1.33 0 0 0-1.51-1.15c-.24 0-.49.26-.36 1.19s.73 1.13.46 2.11.28 1.36.48 1.88-.39.79-.43 1.36.4 1-.2 1.62-.7.83-.19 1.85c.34.68-.05.94-.46 1.8s-.2 1.18-.07 2.28a5.43 5.43 0 0 1 .09 2c-.13.75-.56.84-.52 2a9.29 9.29 0 0 1 .39 2.37c-.11.51-1.58 1.55-1.47 2.27a6.4 6.4 0 0 1 0 1l-1.85-.05c-.11-1-.29-2.45-.57-3.92-.38-2 .05-4.15.55-6.66s0-.07 0-.1c.21-1 .43-2.13.62-3.31a45.83 45.83 0 0 0 .57-12.09A51.8 51.8 0 0 0 14.6 53c-.41-1.59-.8-3.1-1-4.42-.41-2.78-.79-4.83-.8-4.85a.39.39 0 1 0-.76.14s.38 2.06.8 4.82c.2 1.37.59 2.89 1 4.51a48.56 48.56 0 0 1 1.1 5 39.11 39.11 0 0 1-.22 9.33c0-.91-.06-1.84-.11-2.76A31.55 31.55 0 0 0 13 57.05a.37.37 0 0 0-.49-.23.38.38 0 0 0-.24.49 31.8 31.8 0 0 1 1.52 7.47 52.43 52.43 0 0 1-.07 8.5v.06c-.52 2.61-1 4.86-.57 7 .27 1.39.44 2.73.55 3.75h-.6a12.09 12.09 0 0 1-1.1-2.63c-.18-.53-.38-1.14-.66-1.92-.9-2.46-.78-7.15-.61-10.46 0-1 .17-2 .29-3.07a28.32 28.32 0 0 0 0-9.11c-.88-4.37-.73-5.59-.72-5.6a.4.4 0 0 0-.33-.44.38.38 0 0 0-.44.32s-.19 1.29.73 5.87a27.69 27.69 0 0 1 0 8.87C10.11 67 10 68 9.94 69c-.19 3.66-.28 8.2.66 10.77.28.77.48 1.37.65 1.89a14.14 14.14 0 0 0 1 2.4h-.59c-3.85.09-4.66 2.22-4.81 3.45v.32h81.21v-7.22c0-4.44.47-5.08-7.22-6.26z"/></svg>