<svg id="TARGETS" xmlns="http://www.w3.org/2000/svg" viewBox="0 0 94.85 94.85" width="94.85" height="94.85"><defs><style>.cls-1{fill:#bf8b2e}.cls-2{fill:#fff}.cls-3{fill:none}</style></defs><title>Goal_12_RGB_NG</title><path class="cls-1" d="M0 0h94.85v94.85H0z"/><path class="cls-2" d="M73.73 26.84a2.16 2.16 0 0 0-2.21 2.1v2.27h4.39v-2.28a2.16 2.16 0 0 0-2.18-2.09zM74.8 32.88h-.58l-1.09-.01h-1.09l-.54-.01-.18 29.65.54.01-.54-.01 2.15 7.39 2.24-7.36.18-29.65h-.55l-.54-.01z"/><g><path class="cls-3" d="M58.68 59.7h-23.8c-.15 0-.26.07-.26.15v3.81c0 .08.12.15.26.15h23.81c.15 0 .26-.07.26-.15v-3.81c.05-.08-.12-.15-.27-.15zM34.88 57h23.8c.15 0 .26-.07.26-.16v-3.8c0-.08-.11-.15-.26-.15H34.87c-.14 0-.26.07-.26.15v3.8c.01.16.12.16.27.16z"/><path class="cls-2" d="M26.78 72.88l-.04-45.51-2.52.01.04 48.42 34.7-.03v-2.92l-32.18.03z"/><path class="cls-2" d="M64.11 21.46h-34.7v48.43h34.7zm-29.5 31.62c0-.08.12-.15.26-.15h23.81c.15 0 .26.07.26.15v3.8c0 .09-.11.16-.26.16h-23.8c-.15 0-.26-.07-.26-.16zm24.08 10.73H34.88c-.14 0-.26-.07-.26-.15v-3.79c0-.08.11-.15.26-.15h23.8c.15 0 .27.07.27.15v3.81c.05.06-.11.13-.26.13zm-3.22-19.66a5.56 5.56 0 0 1-2 .35 6.7 6.7 0 0 1-2.86-.66 9.34 9.34 0 0 1-4.49-4.7c-2.16-4.35-3.71-4.7-4.84-5h-.08a2.91 2.91 0 0 0-.47 0 4.3 4.3 0 0 0-2.55.82 4 4 0 0 0-1.3 3.3 3.78 3.78 0 0 0 .79 2.62 3.7 3.7 0 0 0 2.93 1.32 4.84 4.84 0 0 0 .91-.09 3.18 3.18 0 0 0 1-.36l-.6-.55a.3.3 0 0 1-.11-.23.3.3 0 0 1 .09-.25.31.31 0 0 1 .18-.11h.07l3.55-1a.34.34 0 0 1 .24.09.41.41 0 0 1 .07.3l-.59 3.65a.32.32 0 0 1-.09.21.35.35 0 0 1-.48 0l-.69-.62a5.76 5.76 0 0 1-2.22 1 7.9 7.9 0 0 1-1.35.13 5.81 5.81 0 0 1-5.89-6.15 6 6 0 0 1 2.12-5 6.31 6.31 0 0 1 3.9-1.3 4.52 4.52 0 0 1 1 .09h.08c1.47.33 3.69.83 6.32 6.11 1.25 2.51 2.56 3.31 3.44 3.69h.08a4.63 4.63 0 0 0 1.86.42 3.63 3.63 0 0 0 1.24-.21c1-.38 2.21-1.35 2.21-3.85A4 4 0 0 0 55.6 35a4.44 4.44 0 0 0-2.6-.88 2.52 2.52 0 0 0-.46 0h-.1c-.79.18-2 .46-3.51 2.58a.36.36 0 0 1-.32.11.39.39 0 0 1-.27-.2c-.19-.35-.43-.78-.73-1.28v-.07a.31.31 0 0 1 0-.18.31.31 0 0 1 .07-.21v-.07a7.17 7.17 0 0 1 4.34-2.87h.1A4.45 4.45 0 0 1 53 32a6.55 6.55 0 0 1 4 1.3 6 6 0 0 1 2.15 5c-.05 4.06-2.59 5.44-3.68 5.85z"/></g></svg>