<svg id="TARGETS" xmlns="http://www.w3.org/2000/svg" viewBox="0 0 94.85 94.85" width="94.85" height="94.85"><defs><style>.cls-1{fill:#dda63a}.cls-2{fill:#fff}</style></defs><title>Template_Goal_2_RGB_NG</title><path class="cls-1" d="M0 0h94.85v94.85H0z"/><path class="cls-2" d="M48.75 55c3 0 9.59-1 10.14-9.59.37-5.91-1.15-7.71-3.48-10.89a15.32 15.32 0 0 1-2.49-7.3c-.09-3-.19-5.58-3.07-6.31.4-3.13 1-4.6 1.75-5.54a7 7 0 0 1 3.15-2.05l-.47-1.49a8.42 8.42 0 0 0-4.14 3.11 15.25 15.25 0 0 0-1.94 5.74c-1.07 0-3 .6-4 4-1.49 4.87-.45 5.57-2.93 9.69s-3.63 5.87-2.89 12.58S45.72 55 48.75 55z"/><path class="cls-2" d="M47.92 20.18C48.25 14 41.19 12 41.19 12A9.37 9.37 0 0 0 43 17.92c2.22 3.08 4.92 2.26 4.92 2.26zM21.9 35.76s3.4-1.78 3.4-4c0-2.76-3.3-6.2-3.3-6.2s-3.35 3.56-3.35 6.17c-.05 2.2 2.52 3.56 3.25 4.03zM16.46 39.68s.83 1.1 4.81 1.73c0 0 .42-3.82-1.05-5.39 0 0-.73-1.15-5.75-4 0-.02-.57 5.88 1.99 7.66zM16.09 47.64s.9 1.19 5.18 1.88c0 0 .45-4.16-1.13-5.87 0 0-.79-1.25-6.19-4.39.05 0-.62 6.44 2.14 8.38zM14.05 47.63s-.93 7 1.83 8.9c0 0 1.11 1.3 5.39 2 0 0 .63-4.25-.94-6 0 .02-.88-1.76-6.28-4.9zM20.12 60.87s-1.41-1.89-7-4.81c0 0-.45 7.21 2.3 9.15 0 0 1.43 1.36 5.71 2 .04.04.57-4.63-1.01-6.34zM23.61 36c-1.46 1.57-1 5.39-1 5.39 4-.63 4.81-1.73 4.81-1.73 2.56-1.78 2-7.69 2-7.69-5.07 2.9-5.81 4.03-5.81 4.03zM23.7 43.65c-1.58 1.71-1.13 5.87-1.13 5.87 4.28-.69 5.18-1.88 5.18-1.88 2.76-1.94 2.14-8.38 2.14-8.38-5.4 3.14-6.19 4.39-6.19 4.39zM23.51 52.55c-1.58 1.71-.94 6-.94 6 4.28-.68 5.39-2 5.39-2 2.75-1.94 1.83-8.9 1.83-8.9-5.4 3.12-6.28 4.9-6.28 4.9zM23.72 60.87c-1.58 1.71-1 6.38-1 6.38 4.28-.68 5.71-2 5.71-2 2.75-1.94 2.3-9.15 2.3-9.15-5.6 2.9-7.01 4.77-7.01 4.77zM20.96 68.35h1.88v17.98h-1.88zM15.87 14.37a.63.63 0 0 0-1.26 0v16.46l1.26.73zM18.45 28V12.35a.63.63 0 0 0-.63-.63.63.63 0 0 0-.63.63v18.76A15.91 15.91 0 0 1 18.45 28zM21.1 9.14a.64.64 0 0 0-.63-.63.63.63 0 0 0-.63.63V26c.46-.64.92-1.26 1.26-1.71zM29.26 14.37a.63.63 0 0 0-1.26 0v17.19l1.26-.73zM26.68 31.09V12.35a.63.63 0 0 0-1.26 0V28a16.48 16.48 0 0 1 1.25 3.1zM24 9.14a.64.64 0 0 0-.63-.63.63.63 0 0 0-.63.63V24.3c.34.45.8 1.07 1.26 1.71zM77.34 65.18a12.11 12.11 0 0 0-7.34-2.4 7.94 7.94 0 0 0-1.76.17h-.18c-1.74.41-4.64 1.1-8 5.29l-.1.12a.5.5 0 0 0-.08.26.46.46 0 0 0 .06.22L60 69c.56.93 1 1.74 1.39 2.43a.46.46 0 0 0 .73.1.7.7 0 0 1 .06-.09c2.92-4 5.2-4.57 6.72-4.93h.19a4.27 4.27 0 0 1 .91-.11 8.55 8.55 0 0 1 5.09 1.6c1.7 1.34 2.56 3.48 2.56 6.36 0 4.83-2.34 6.71-4.3 7.44a6.79 6.79 0 0 1-2.39.42 8.64 8.64 0 0 1-3.6-.81l-.14-.07c-1.68-.73-4.2-2.26-6.58-7C55.76 64.52 51.66 63.59 49 63h-.14a8 8 0 0 0-1.75-.16 11.63 11.63 0 0 0-7.18 2.38c-1.82 1.36-3.93 4.1-3.93 9.14a10.64 10.64 0 0 0 10.81 11.31 13.29 13.29 0 0 0 2.48-.25 10.62 10.62 0 0 0 4.23-1.93L55 84.78a.43.43 0 0 0 .58 0 .38.38 0 0 0 .1-.27l1.1-6.8v-.11a.4.4 0 0 0-.13-.3.41.41 0 0 0-.28-.1L49.69 79h-.12a.37.37 0 0 0-.21.12.38.38 0 0 0-.11.3.37.37 0 0 0 .13.28l1.38 1.3a6.57 6.57 0 0 1-2.15.88 9.69 9.69 0 0 1-1.75.17 7.18 7.18 0 0 1-5.68-2.57 7.3 7.3 0 0 1-1.53-5.06c0-2.89.85-5 2.51-6.36a8.36 8.36 0 0 1 4.94-1.6 4.69 4.69 0 0 1 .94.08h.14c2.17.49 5.13 1.16 9.25 9.42 2.17 4.37 4.89 7.22 8.32 8.72A12.22 12.22 0 0 0 71 85.87a10.49 10.49 0 0 0 3.66-.65c2-.75 6.65-3.3 6.65-10.84-.04-5.04-2.18-7.79-3.97-9.2zM80.68 22.38a6.25 6.25 0 0 0-4-2.08 24.54 24.54 0 0 1 .88-4.3 5.32 5.32 0 0 1 1.94-2.56L78 13.3a7.63 7.63 0 0 0-2.17 4.54V9.09l-1.33-.21v7.54a27.55 27.55 0 0 0-1.16-3.37 7.64 7.64 0 0 0-1.17-1.84l-1.33.07a13.83 13.83 0 0 1 2.08 4.42 14.56 14.56 0 0 1 .49 4.59 5.57 5.57 0 0 0-3.91 1.92c-1.78 2-1 5.34-1 5.34s.07.35.18.95h5.66a.27.27 0 0 1 .28.28v.52a.28.28 0 0 1-.28.29h-5.51l1 5.39h4.31a.29.29 0 0 1 .28.29v.52a.28.28 0 0 1-.28.28H70.1c.34 1.73.7 3.57 1.05 5.4h2.95a.29.29 0 0 1 .29.28v.53a.29.29 0 0 1-.29.28h-2.73L73.6 54c.12.71.62 2.54 1.33 2.5.92 0 1.21-2 1.21-2l5.29-26.58s1-3.33-.75-5.54z"/></svg>