<svg id="TARGETS" xmlns="http://www.w3.org/2000/svg" viewBox="0 0 94.85 94.85" width="94.85" height="94.85"><defs><style>.cls-1{fill:#c5192d}.cls-2{fill:#fff}</style></defs><title>Goal_4_RGB_NG</title><path class="cls-1" d="M0 0h94.85v94.85H0z"/><path class="cls-2" d="M32.37 32.21L21.21 20a38.23 38.23 0 0 0-7.09 9.22L29 36.59a21.94 21.94 0 0 1 3.37-4.38zM61 30.88l11.19-12.22a37.91 37.91 0 0 0-9.92-6.18L56.32 28A21.16 21.16 0 0 1 61 30.88zM68.6 44.26l16.5-1.56A37.82 37.82 0 0 0 82 31.63L67.11 39a21 21 0 0 1 1.49 5.26zM66.05 36.88l14.83-7.4a38.34 38.34 0 0 0-6.88-9.2L62.76 32.5a21.74 21.74 0 0 1 3.29 4.38zM26 47.42v-1L9.54 44.94c0 .82-.08 1.64-.08 2.48a38.08 38.08 0 0 0 1.12 9.18L26.52 52a21.12 21.12 0 0 1-.52-4.58zM60 64.77l8.71 14.11A38.33 38.33 0 0 0 77.2 71L64 61a21.57 21.57 0 0 1-4 3.77zM85.32 45.09l-16.5 1.56v.77a21.36 21.36 0 0 1-.48 4.58l15.94 4.58a38.23 38.23 0 0 0 1.11-9.13c0-.81-.02-1.59-.07-2.36zM31.14 61.3L18 71.32a38.57 38.57 0 0 0 8.61 7.81L35.28 65a21.61 21.61 0 0 1-4.14-3.7zM27.86 38.72L13 31.33a37.72 37.72 0 0 0-3.23 11.23L26.28 44a21.53 21.53 0 0 1 1.58-5.28zM52.86 68.13l3.07 16.29a37.45 37.45 0 0 0 10.71-4.27l-8.7-14.09a21.26 21.26 0 0 1-5.08 2.07zM65.39 59.05L78.62 69a37.71 37.71 0 0 0 5-10.18l-15.91-4.54a21.71 21.71 0 0 1-2.32 4.77zM47.42 68.83a22.8 22.8 0 0 1-2.49-.15L41.86 85a39.23 39.23 0 0 0 5.56.4 37.84 37.84 0 0 0 6.16-.5l-3.07-16.3a21 21 0 0 1-3.09.23zM60 11.61a37.78 37.78 0 0 0-11.21-2.13v16.57a21.1 21.1 0 0 1 5.3 1zM37.32 66.28l-8.72 14.1a37.78 37.78 0 0 0 10.91 4.17l3.06-16.28a21.16 21.16 0 0 1-5.25-1.99zM46.4 26V9.46A38 38 0 0 0 35 11.54L41 27a21 21 0 0 1 5.4-1zM27.16 54.33L11.24 58.9a37.59 37.59 0 0 0 5.26 10.52l13.19-10a21.39 21.39 0 0 1-2.53-5.09zM38.75 27.85l-6-15.45a38 38 0 0 0-9.77 6l11.18 12.23a21.2 21.2 0 0 1 4.59-2.78zM36.94 55.19l10.18 3.07V40.42l-10.18-4.24v19.01zM58.48 36.18l-10.24 4.28v17.81l10.24-3.08V36.18z"/><path class="cls-2" d="M35.86 56.21V36.13l-1.09.86v19.99l12.3 3.4h1.25l11.35-3.6 1-.29v-19.5l-1.09-.86V55.7l-11.31 3.66h-1.15l-11.26-3.15z"/></svg>