<svg id="TARGETS" xmlns="http://www.w3.org/2000/svg" viewBox="0 0 94.85 94.85" width="94.85" height="94.85"><defs><style>.cls-1{fill:#ff3a21}.cls-2{fill:#fff}</style></defs><title>Goal_5_RGB_NG</title><path class="cls-1" d="M0 0h94.85v94.85H0z"/><path class="cls-2" d="M50.83 21.5A7.83 7.83 0 0 0 50 18l-1.25.84a6.14 6.14 0 0 1 .61 2.67 6.29 6.29 0 0 1-.77 3.08l1.26.82a7.81 7.81 0 0 0 .98-3.91zM53.57 15.59l-1.25.84a10.53 10.53 0 0 1 1.32 5.05 10.71 10.71 0 0 1-1.46 5.46l1.25.82a12.15 12.15 0 0 0 1.7-6.29 12 12 0 0 0-1.56-5.88zM58 21.45a15.06 15.06 0 0 1-2.17 7.86l1.25.81a16.46 16.46 0 0 0 .12-17L56 14a15 15 0 0 1 2 7.45z"/><g><path class="cls-2" d="M41.59 12.75a.69.69 0 0 0-.68-.68H17.08a.68.68 0 0 0-.68.68V27.8h25.19zm-1 14.15h-23V13.17h23zM41.63 28.38H16.49L14.43 30v.73c0 .29.46.29.46.29h28.47c.35 0 .35-.39.35-.39v-.69zm-10.52 1.95h-4.19v-.47h4.19z"/></g><path class="cls-2" d="M75.4 11.89h-8.8a1 1 0 0 0-1 1v18.3a1 1 0 0 0 1 1h8.8a1 1 0 0 0 1-1V12.91a1 1 0 0 0-1-1.02zM71 31.05a1.12 1.12 0 1 1 1.12-1.12A1.12 1.12 0 0 1 71 31.05zm4.61-3.37h-9.17V12.82h9.21z"/><g><path class="cls-2" d="M46.32 49.28a3.42 3.42 0 1 0 0-6.84 3.42 3.42 0 0 0 0 6.84zM68.76 51.19a3.41 3.41 0 0 0 1.48-6.48 1.06 1.06 0 0 0 .12-.5 1.76 1.76 0 0 0-3.43 0 1.17 1.17 0 0 0 .18.6 3.4 3.4 0 0 0 1.65 6.38z"/><path class="cls-2" d="M77.11 65.54a.5.5 0 0 0 0-.13c1-.55.58-1.85.58-1.85l-.48-1.45-2.22-7.24s-1-2.59-3.07-2.59l-5-.07a2.81 2.81 0 0 1-2-.76l-6.32-9.34a.36.36 0 0 0-.05-.09 1.42 1.42 0 0 0-.82-.71 2.39 2.39 0 0 0-.49 0c-.26 0-.47 0-1.13.75l-6 7.56a3.42 3.42 0 0 1-2.32.88h-2.91a3.46 3.46 0 0 1-2.33-.88l-6-7.56c-.66-.77-.87-.72-1.13-.75a2.31 2.31 0 0 0-.49 0 1.42 1.42 0 0 0-.85.78l-6.23 9.34a2.8 2.8 0 0 1-2 .76l-5 .07c-2.11 0-3.06 2.59-3.06 2.59l-2.67 8.67s-.47 1.6.88 2 1.75-1.15 1.75-1.15l2.15-7.25s.12-.55.53-.43.27.71.27.71L16.89 71h3.47v9.7a1.68 1.68 0 0 0 3.35 0V71h1.21v9.77a1.68 1.68 0 0 0 3.36 0V71h3.51L28.4 58.66a3.45 3.45 0 0 1 .33-2.26l2.2-4 4-6.58s.32-.46.65-1l3.92 5.88 2.33 4.24a3.64 3.64 0 0 1 .35 2.4l-3.58 13h3.7v10.33a1.78 1.78 0 0 0 3.56 0V70.31h1v10.36a1.78 1.78 0 0 0 3.56 0V70.31h3.71l-3.58-13a3.64 3.64 0 0 1 .35-2.4l2.33-4.24 3.93-5.9c.33.59.66 1.06.66 1.06l3.95 6.58 2.19 4a3.42 3.42 0 0 1 .34 2.26L60.87 71h3.5v9.79a1.69 1.69 0 0 0 3.37 0V71H69v9.7a1.67 1.67 0 0 0 3.34 0V71h3.48L72 57.41s-.16-.59.26-.71.54.43.54.43l1.71 5.77.49 1.45s.28 1.09 1.16 1.24a.66.66 0 0 0 0 .14L79.23 82a.52.52 0 0 0 .5.42h.1a.52.52 0 0 0 .41-.6zM21.63 45.29c-.06-.41-.49-.91-1.4-.48-1.12.54-1 2.2-1 2.2s0 .25.06.19c.11-.26.37-.68 1.28-.8a1.23 1.23 0 0 0 .48-.15 3.59 3.59 0 0 1 .56-.78 1 1 0 0 0 .02-.18z"/><path class="cls-2" d="M28.31 44.81c-.91-.43-1.34.07-1.39.48a1.38 1.38 0 0 0 0 .22 3.66 3.66 0 0 1 .51.71 1.38 1.38 0 0 0 .52.18c.91.12 1.18.54 1.28.8 0 .06.05 0 .06-.19s.15-1.66-.98-2.2zM24.26 44.88A3.12 3.12 0 1 0 27.37 48a3.12 3.12 0 0 0-3.11-3.12z"/></g></svg>