<svg id="TARGETS" xmlns="http://www.w3.org/2000/svg" viewBox="0 0 94.85 94.85" width="94.85" height="94.85"><defs><style>.cls-1{fill:#00689d}.cls-2{fill:#fff}</style></defs><title>Goal_16_RGB_NG</title><path class="cls-1" d="M0 0h94.85v94.85H0z"/><path class="cls-2" d="M73.4 61.38A2.38 2.38 0 1 0 75.78 59a2.38 2.38 0 0 0-2.38 2.38zM78.56 64.67h-5.55a3.17 3.17 0 0 0-2.88 3.16v6.58a.92.92 0 1 0 1.84 0v-5.65c0-.22.06-.5.45-.5s.32.28.33.46v17a1.33 1.33 0 1 0 2.65 0v-9.81a.36.36 0 0 1 .38-.39.36.36 0 0 1 .38.39v9.77a1.33 1.33 0 1 0 2.65 0v-17c0-.18.06-.46.33-.46s.45.28.45.5v5.65a.92.92 0 1 0 1.84 0v-6.54a3.17 3.17 0 0 0-2.87-3.16zM53.56 62.65a2.25 2.25 0 1 0 2.24-2.25 2.24 2.24 0 0 0-2.24 2.25zM58.48 69c.29-.08.37.31.37.31l1.51 5.07s.28 1.09 1.22.81.61-1.39.61-1.39l-1.86-6.08S59.66 66 58.18 66h-4.76c-1.47 0-2.14 1.76-2.14 1.76l-1.87 6.08s-.33 1.11.61 1.39 1.23-.81 1.23-.81l1.5-5.07s.09-.39.38-.31.18.5.18.5L50.69 79h2.44v6.81a1.17 1.17 0 0 0 2.34 0V79h.66v6.81a1.18 1.18 0 0 0 2.35 0V79h2.43l-2.62-9.51s-.11-.38.19-.49zM40.1 62.62a2.25 2.25 0 1 0 2.24-2.25 2.24 2.24 0 0 0-2.24 2.25zM46.87 67.7S46.2 66 44.72 66H40c-1.48 0-2.14 1.75-2.14 1.75L36 73.78s-.33 1.12.61 1.4 1.23-.81 1.23-.81l1.5-5.08s.08-.39.38-.3.18.5.18.5L37.23 79h2.44v6.81a1.17 1.17 0 0 0 2.34 0V79h.66v6.81a1.17 1.17 0 0 0 2.34 0V79h2.44l-2.62-9.51s-.11-.42.18-.5.38.3.38.3l1.5 5.08s.29 1.08 1.23.81.61-1.4.61-1.4zM20.74 64a2.35 2.35 0 1 0-2.35-2.35A2.35 2.35 0 0 0 20.74 64zM23.49 64.92H18A3.13 3.13 0 0 0 15.15 68v6.52a.92.92 0 0 0 .36.71l-2.09 11a.37.37 0 0 0 .28.43h.07a.35.35 0 0 0 .35-.29l2.07-11a.9.9 0 0 0 .78-.89V69c0-.21.06-.49.45-.49s.32.28.33.46v16.74a1.31 1.31 0 1 0 2.61 0V76a.36.36 0 0 1 .38-.38.36.36 0 0 1 .38.38v9.67a1.31 1.31 0 0 0 2.62 0V68.93c0-.18.06-.46.33-.46s.44.28.44.49v5.6a.91.91 0 1 0 1.82 0V68a3.13 3.13 0 0 0-2.84-3.08zM64.17 73.11a1.91 1.91 0 1 0 1.9-1.9 1.9 1.9 0 0 0-1.9 1.9zM69.91 78.71c-1.15-3-1.34-2.94-2.38-3h-2.91c-1 0-1.23 0-2.38 3-.17.43-.86 2.07-.86 2.16s-.29.69.35.92.8-.48.8-.48l1.18-2.89s0-.06.07-.06 0 .06 0 .09V86a1 1 0 0 0 1 1 1 1 0 0 0 1-1v-3s0-.46.3-.45.3.45.3.45v3a1 1 0 0 0 1 1 1 1 0 0 0 1-1v-7.56a.11.11 0 0 1 0-.09c.06 0 .09.07.09.07l1 2.59s.31.69.89.42.28-.86.28-.86-.56-1.43-.73-1.86zM35 73.91a.7.7 0 0 0-.94.31 18.77 18.77 0 0 1-1.2 1.83.74.74 0 0 1-.58.27H30a.73.73 0 0 1-.58-.27c-.3-.29-1.17-1.85-1.23-1.9a.65.65 0 0 0-.58-.32.69.69 0 0 0-.69.69 1.18 1.18 0 0 0 .07.3l1.9 3.43a1.29 1.29 0 0 1 .11.45v.51a2.15 2.15 0 0 1-.09.58l-.91 3.6h1v2.68a.93.93 0 1 0 1.85 0v-2.56a.39.39 0 0 1 0-.12h.56v2.68a.93.93 0 1 0 1.85 0v-2.68h1l-.93-3.59a2.45 2.45 0 0 1-.08-.48v-.62a1.21 1.21 0 0 1 .12-.45l1.75-3.17s.12-.23.16-.33a.61.61 0 0 0-.28-.84z"/><path class="cls-2" d="M31.14 75.14a1.88 1.88 0 1 0-1.88-1.88 1.88 1.88 0 0 0 1.88 1.88z"/><g><path class="cls-2" d="M35 25.38h25.22a.41.41 0 0 0 .38-.38v-.2a13.28 13.28 0 0 0-25.91 0 .33.33 0 0 0 0 .17.41.41 0 0 0 .31.41z"/><path class="cls-2" d="M49.05 12.73a3.84 3.84 0 0 1 2.49.89 4.34 4.34 0 0 0 2.17.72h1.9V9.52h-1.86a4.33 4.33 0 0 1-2.89-1.14 3.8 3.8 0 0 0-2.08-.55h-1.22v4.85a7.26 7.26 0 0 1 1.49.05zM19.39 48.91h56.42V30.65H19.39zm50.36-15.29h3.61v4.3h-3.61zm0 8h3.61v4.3h-3.61zm-5.47-8h3.61v4.3h-3.61zm0 8h3.61v4.3h-3.61zm-5.49-8h3.61v4.3h-3.61zm0 8h3.61v4.3h-3.61zm-7-8.67h3.31v13.64h-3.32zm-5.6 0h3.3v13.64h-3.3zm-5.56 0h3.3v13.64h-3.3zm-7.2.65H37v4.3h-3.58zm0 8H37v4.3h-3.58zm-5.47-8h3.61v4.3H28zm0 8h3.61v4.3H28zm-5.49-8h3.61v4.3h-3.62zm0 8h3.61v4.3h-3.62zM17.37 49.96h60.46v.83H17.37zM17.37 26.48h60.46v1.34H17.37zM19.46 28.93h56.29v.83H19.46zM15.37 51.6h64.47v1.33H15.37z"/></g></svg>