<svg id="TARGETS" xmlns="http://www.w3.org/2000/svg" viewBox="0 0 94.85 94.85" width="94.85" height="94.85"><defs><style>.cls-1{fill:#0a97d9}.cls-2{fill:#fff}</style></defs><title>Goal_14_RGB_NG</title><path class="cls-1" d="M0 0h94.85v94.85H0z"/><path class="cls-2" d="M47.45 79.16c-.41-.55-3-3.9-6.71-3.9-3.2 0-6.62 2.9-6.62 2.9a5.43 5.43 0 0 0-3.91-2.88h-.07c-.05 0-.11 0-.1.1a.37.37 0 0 0 0 .1 8 8 0 0 1 1.21 3.76A8 8 0 0 1 30.08 83a.14.14 0 0 0 0 .06.1.1 0 0 0 .1.1h.05a5.43 5.43 0 0 0 3.93-2.89s3.42 2.9 6.62 2.9c3.68 0 6.3-3.35 6.71-3.89zm-4.67.5a1.08 1.08 0 1 1 1.08-1.07 1.07 1.07 0 0 1-1.08 1.07zM27.63 79.16c-.41-.55-3-3.9-6.71-3.9-3.2 0-6.62 2.9-6.62 2.9a5.45 5.45 0 0 0-3.91-2.88h-.07a.11.11 0 0 0-.1.1.37.37 0 0 0 0 .1 8 8 0 0 1 1.21 3.76A8 8 0 0 1 10.26 83a.14.14 0 0 0 0 .06.1.1 0 0 0 .1.1 5.43 5.43 0 0 0 3.93-2.89s3.42 2.9 6.62 2.9c3.68 0 6.3-3.35 6.71-3.89zm-4.67.5A1.08 1.08 0 1 1 24 78.59a1.07 1.07 0 0 1-1 1.07zM66.83 79.16c-.41-.55-3-3.9-6.71-3.9-3.2 0-6.62 2.9-6.62 2.9a5.45 5.45 0 0 0-3.91-2.88h-.07a.09.09 0 0 0-.1.1.37.37 0 0 0 0 .1 8 8 0 0 1 1.21 3.76A8.16 8.16 0 0 1 49.46 83a.14.14 0 0 0 0 .06.1.1 0 0 0 .1.1 5.43 5.43 0 0 0 3.93-2.89s3.42 2.9 6.62 2.9c3.68 0 6.3-3.35 6.71-3.89zm-4.67.5a1.08 1.08 0 1 1 1.08-1.07 1.07 1.07 0 0 1-1.08 1.07zM86.51 79.16c-.4-.55-3-3.9-6.71-3.9-3.2 0-6.62 2.9-6.62 2.9a5.43 5.43 0 0 0-3.91-2.88h-.07a.11.11 0 0 0-.1.1.37.37 0 0 0 0 .1 8 8 0 0 1 1.21 3.76A8 8 0 0 1 69.14 83a.14.14 0 0 0 0 .06.11.11 0 0 0 .1.1 5.43 5.43 0 0 0 3.93-2.89s3.42 2.9 6.62 2.9c3.68 0 6.31-3.35 6.71-3.89zm-4.67.5a1.08 1.08 0 1 1 1.08-1.07 1.07 1.07 0 0 1-1.08 1.07zM72.93 51.48a2 2 0 1 0 2 2 2 2 0 0 0-2-2zM42.92 36.17v13.6h16.77l1.06-3.14h19.38v-2.24H67.22L69 36.17zm14.23 8h-5.34v-6.43h5.34zm7.87 0h-6.56v-6.41h7.89zM42.91 32.76h23.61v2.49H42.91z"/><path class="cls-2" d="M61.58 47.63L60.33 51H42.19V25.5h1.12v-.93h-1.12V11.72h-.68v12.85h-1.17v.93h.85c-10.19 5.41-26.95 3-32.07 1.71H9l-.35.48v1.79h-.14v.87h.13V31a1.91 1.91 0 0 0-.44 1 1 1 0 0 0 .22.73.6.6 0 0 0 .43.17.68.68 0 0 0 .63-.76V32h-.34v.17c0 .25-.12.42-.29.42a.23.23 0 0 1-.18-.07.62.62 0 0 1-.13-.52 1.66 1.66 0 0 1 .4-.82v-.78h.13v-.87H9v-1l.54.43 14.05 19.78a3.2 3.2 0 0 0-.07.7h-5.84l2.09 13a14 14 0 0 0 7.9-3.91 1.8 1.8 0 0 0 .2-.19.65.65 0 0 1 .19 0h.15a.53.53 0 0 1 .23.18c2 1.55 11.3 7.82 19.55.12l.13-.12a.45.45 0 0 1 .65 0l.12.12c8.26 7.7 17.53 1.43 19.55-.12a.53.53 0 0 1 .23-.18h.14a.59.59 0 0 1 .2 0l.2.19a14.05 14.05 0 0 0 7.29 3.81l7.32-14.74zm-37.73.31L11.91 31.19l13.88 14.93a3.57 3.57 0 0 0-1.94 1.82zM34.44 51h-1.33l-.34-1.57h-2.11a3.55 3.55 0 0 0-3.38-3.55v-3.71h1.15v-.68h-3v.68h1.17v3.74h-.07l-17-18.27C15.07 29 31.2 31.1 41.25 25.86L41 27.94 37.57 51zm7.07 0h-3.6l3.6-24.16zm31.42 5.44a3 3 0 1 1 3-3 3 3 0 0 1-3 3.03z"/><path class="cls-2" d="M86.64 64.52a.46.46 0 0 0-.45-.4h-.1l-.23.12a14.26 14.26 0 0 1-16.65-2.34l-.2-.19a.59.59 0 0 0-.2 0h-.14a.53.53 0 0 0-.23.18c-2 1.54-11.29 7.82-19.55.12l-.12-.12a.45.45 0 0 0-.65 0L48 62c-8.25 7.7-17.53 1.42-19.55-.12a.53.53 0 0 0-.23-.18h-.15a.65.65 0 0 0-.19 0 1.8 1.8 0 0 1-.2.19A14.24 14.24 0 0 1 11 64.26l-.24-.12h-.09a.45.45 0 0 0-.45.4.14.14 0 0 0 0 .07v3.22a.44.44 0 0 0 .14.34c7.82 6.8 15.23.43 17-1.26a.37.37 0 0 1 .12-.13.47.47 0 0 1 .26-.08.43.43 0 0 1 .31.12c8.85 8.44 18.11 1.6 20 0l.19-.17a.42.42 0 0 1 .36 0l.19.17c1.93 1.6 11.2 8.44 20 0a.48.48 0 0 1 .58 0 .53.53 0 0 1 .13.13c1.71 1.69 9.11 8.06 16.94 1.26a.44.44 0 0 0 .14-.34v-3.28s.06-.05.06-.07z"/></svg>