<svg id="TARGETS" xmlns="http://www.w3.org/2000/svg" viewBox="0 0 94.85 94.85" width="94.85" height="94.85"><defs><style>.cls-1{fill:#00689d}.cls-2{fill:#fff}</style></defs><title>Goal_16_RGB_NG</title><path class="cls-1" d="M0 0h94.85v94.85H0z"/><path class="cls-2" d="M37.55 36.82a1.53 1.53 0 0 1 1.17.42 1.55 1.55 0 0 1 .49 1.13v8.56a.92.92 0 0 0 1.84 0V34.86a1.63 1.63 0 0 1 1.46-1.65 1.57 1.57 0 0 1 1.16.42 1.53 1.53 0 0 1 .49 1.14v10.36a.92.92 0 0 0 1.84 0V33a1.57 1.57 0 0 1 .49-1.14 1.53 1.53 0 0 1 1.17-.42 1.63 1.63 0 0 1 1.46 1.64V46A.92.92 0 0 0 51 46V35a1.62 1.62 0 0 1 1.46-1.64 1.51 1.51 0 0 1 1.16.42 1.53 1.53 0 0 1 .45 1.22v18.9l7.35-5a2 2 0 0 1 1.29-.46 1.28 1.28 0 0 1 .89.59 1.56 1.56 0 0 1-.12 2.24L55 59.51a24.86 24.86 0 0 1-7 4.73 3.18 3.18 0 0 1-.9.25l-1 .12a8.38 8.38 0 0 1-1.57.06 9.17 9.17 0 0 1-8.56-9.24v-17a1.62 1.62 0 0 1 1.58-1.61zM77.59 29.13l4-2.16.85 1.53 3.63-2.05.69 1.2-7.35 4.65a26.71 26.71 0 0 0 6.85 5.1l-1.59 4.05a22 22 0 0 1-6.52-4.18c-1 2.27-2.08 2.71-4.44 1.77l.19 5.24-3.9-.17c.13-1.16.23-2.2.36-3.24.28-2.28.12-2.4-2-1.53l-.79-1.23-1.11.49-.7-1.28 1-.65-.56-1.14.89-.52c2.45-1.37 4.88-2.75 7.35-4.08zm-2 7.43a2.74 2.74 0 0 1 .22.77 2.9 2.9 0 0 1-.79-.24 6 6 0 0 1-.78-.71 1.34 1.34 0 0 0 .51 1.83 1.43 1.43 0 0 0 2-2 1.41 1.41 0 0 0-1.94-.52 6.42 6.42 0 0 1 .74.87zM72.52 62.63L69 58.48a2.72 2.72 0 0 0 3.5 4.15zM73 58.66a2.73 2.73 0 0 0-3.68-.45l3.5 4.15a2.73 2.73 0 0 0 .18-3.7zM73.18 55.17l2.08-5a2.72 2.72 0 0 0-2.08 5zM76.93 53.79a2.73 2.73 0 0 0-1.28-3.47l-2.09 5a2.74 2.74 0 0 0 3.37-1.53z"/><g><path class="cls-2" d="M83 51.61l-6.68 14.54a.67.67 0 0 0 .32.88l1 .47-.48 1.06a.25.25 0 0 0 .12.32l.52.23-1.35 2.95a.12.12 0 0 0 .06.15.1.1 0 0 0 .14 0l1.35-3 .55.25a.25.25 0 0 0 .33-.12l.48-1 1 .47a.65.65 0 0 0 .51 0 .68.68 0 0 0 .37-.34L88 53.9a.66.66 0 0 0-.33-.87l-1.16-.53 1.21-2.65 1.41.65a.25.25 0 0 0 .32-.12l.13-.29a.25.25 0 0 0-.12-.32l-4.27-2a.23.23 0 0 0-.32.12l-.13.28a.24.24 0 0 0 .12.33l1.47.67-1.21 2.64-1.25-.57a.66.66 0 0 0-.87.37zm-2.89 14.13a.22.22 0 0 1 .29-.11l1.19.55a.21.21 0 0 1 .1.28.21.21 0 0 1-.28.11L80.22 66a.22.22 0 0 1-.11-.26zm.89-1.95a.22.22 0 0 1 .29-.11l1.19.54a.22.22 0 0 1 .1.29.2.2 0 0 1-.28.1l-1.19-.54a.21.21 0 0 1-.11-.28zm.91-2a.22.22 0 0 1 .29-.1l1.19.54a.21.21 0 0 1-.18.39L82 62.08a.22.22 0 0 1-.09-.29zm1.36-10a.32.32 0 0 1 .42-.16l3.8 1.74a.26.26 0 0 1 .16.18.29.29 0 0 1 0 .24l-3.47 7.6-4.33-2zM76.31 72.75c.09-.16.36-.79-.24-.32-.13.11-.43 0-.43.28s.16.27.32.3.26-.11.35-.26z"/></g><g><path class="cls-2" d="M69.5 75.71l-2.6-2.08a.55.55 0 0 0-.81.06c-8.25 9.84-22.39 10.91-32.45 2.89-.31-.24-.59-.5-.88-.75L35.7 74c.29-.19-.12-.43-.12-.43L25.5 68.48c-.31-.17-.36 0-.36.16v11.54c0 .11.09.39.33.24l3.29-2.08c.65.62 1.32 1.23 2 1.8 12 9.53 28.87 8.19 38.67-3.44l.1-.12a.57.57 0 0 0-.03-.87zM69.36 24.78l-.65-11.44c0-.11-.11-.38-.34-.21l-3.2 2.27A27 27 0 0 0 63 13.73C50.5 4.9 33.71 7.22 24.6 19.39l-.1.13a.58.58 0 0 0 .13.86l2.72 1.92a.55.55 0 0 0 .81-.1c7.7-10.31 21.76-12.2 32.27-4.77.32.22.61.46.92.7l-2.83 2c-.28.2.14.42.14.42L69 25.05c.32.15.36-.05.35-.18z"/></g><g><path class="cls-2" d="M16.08 54.15a4.68 4.68 0 0 1-1.19.53 12.23 12.23 0 0 1-3.68.45A14.17 14.17 0 0 1 9.38 55c-.41-.06-.72-.12-1.11-.21l-.55-.15A4.5 4.5 0 0 1 6.29 54a1.64 1.64 0 0 1-.4-.43v1.15a1.07 1.07 0 0 0 .43.77 5.94 5.94 0 0 0 2.87 1.06 13.68 13.68 0 0 0 2.1.16 12.41 12.41 0 0 0 3-.35 5.81 5.81 0 0 0 1.53-.6c.5-.3.79-.65.79-1v-1.19a2.24 2.24 0 0 1-.53.58zM10.78 50.52c3 0 5.39-.89 5.39-2 0 0 .06-1 0-1.24a1.21 1.21 0 0 0-.1-.42 1.22 1.22 0 0 0 .61-.91s.05-1.13 0-1.36c-.15-1.34-2.87-2.06-5.43-2.06s-5.44.77-5.44 2.18c0 .07.05 1.24.05 1.24a.67.67 0 0 0 .14.25 1.36 1.36 0 0 0-.68 1.09v1.24a1 1 0 0 0 .43.77 5.94 5.94 0 0 0 2.87 1.06 13.68 13.68 0 0 0 2.16.16zm.55-7.42c2.88 0 4.88.86 4.88 1.62s-2 1.63-4.88 1.63-4.87-.86-4.87-1.63 2-1.62 4.87-1.62zm-5.44 4.19a.86.86 0 0 1 .43-.61 2.79 2.79 0 0 0 .55.4 10 10 0 0 0 4.47.87 11.39 11.39 0 0 0 3.81-.58 4.13 4.13 0 0 0 .47-.21.31.31 0 0 1 0 .13c0 .77-2 1.62-4.88 1.62s-4.85-.85-4.85-1.62z"/><path class="cls-2" d="M9.17 54.63a13.93 13.93 0 0 0 2.1.15 12.43 12.43 0 0 0 3-.34 5.37 5.37 0 0 0 1.53-.59 2.13 2.13 0 0 0 .33-.23 1.36 1.36 0 0 0 .41-.52.72.72 0 0 0 .05-.28v-1.19c-.18.23-.64.93-2.77 1.36a15.5 15.5 0 0 1-2.75.24 10.17 10.17 0 0 1-4.31-.84 3.51 3.51 0 0 1-.68-.46 2.57 2.57 0 0 1-.33-.41v1.32a1.06 1.06 0 0 0 .42.75 6 6 0 0 0 3 1.04z"/><path class="cls-2" d="M16.6 49.22a.89.89 0 0 0-.14-.12 1.14 1.14 0 0 0-.22-.12 1.25 1.25 0 0 1-.25.31 1.43 1.43 0 0 1 .21.12.5.5 0 0 1 .26.41.47.47 0 0 1-.19.35l-.21.16-.31.17s-.33.15-.48.2l-.48.15-.64.16-.82.13-.85.08-1.24.06a12.38 12.38 0 0 1-1.72-.13c-.42-.06-.84-.14-1.22-.23a6.75 6.75 0 0 1-1.3-.4 2.19 2.19 0 0 1-.67-.46 2.14 2.14 0 0 1-.43-.56V50.86a1 1 0 0 0 .43.78 6.05 6.05 0 0 0 2.87 1 13.68 13.68 0 0 0 2.1.16 13 13 0 0 0 3-.34 6.35 6.35 0 0 0 1.53-.59 3.33 3.33 0 0 0 .34-.24 1.29 1.29 0 0 0 .41-.52.87.87 0 0 0 .05-.28v-1.16a.64.64 0 0 0 0-.27.44.44 0 0 0-.03-.18zM23.2 46.65c3 0 5.39-.89 5.39-2 0 0 .06-1 .05-1.24a1.26 1.26 0 0 0-.1-.43 1.18 1.18 0 0 0 .61-.9s.05-1.14 0-1.36c-.14-1.34-2.86-2.06-5.42-2.06s-5.45.76-5.45 2.18c0 .07.06 1.24.06 1.24a1.05 1.05 0 0 0 .06.24 1.36 1.36 0 0 0-.68 1.09c0 .06.05 1.24.05 1.24a1.07 1.07 0 0 0 .43.77 5.94 5.94 0 0 0 2.87 1.06 13.68 13.68 0 0 0 2.13.17zm.56-7.42c2.87 0 4.87.85 4.87 1.62s-2 1.62-4.87 1.62-4.88-.85-4.88-1.62 2-1.62 4.88-1.62zm-5.44 4.19a.85.85 0 0 1 .42-.61 2.42 2.42 0 0 0 .55.39 10 10 0 0 0 4.47.88 11.39 11.39 0 0 0 3.81-.58c.18-.07.32-.14.47-.21a.28.28 0 0 1 0 .13c0 .76-2 1.62-4.87 1.62s-4.85-.86-4.85-1.62z"/><path class="cls-2" d="M29.15 45.56a.49.49 0 0 0-.13-.22l-.14-.12a1.14 1.14 0 0 0-.22-.12 1.19 1.19 0 0 1-.25.32 1.35 1.35 0 0 1 .22.11.53.53 0 0 1 .25.41.46.46 0 0 1-.19.36 1.91 1.91 0 0 1-.21.15l-.31.18s-.33.15-.48.2l-.48.15-.64.15-.82.13-.85.09h-1.24a11 11 0 0 1-1.72-.13 11 11 0 0 1-1.22-.22 8.71 8.71 0 0 1-1.29-.4 2.38 2.38 0 0 1-.67-.46 2.06 2.06 0 0 1-.42-.56V46.94a1 1 0 0 0 .43.77 5.94 5.94 0 0 0 2.87 1.06 13.68 13.68 0 0 0 2.1.16 13 13 0 0 0 3-.34 6 6 0 0 0 1.53-.6 2.24 2.24 0 0 0 .34-.23 1.36 1.36 0 0 0 .41-.52.92.92 0 0 0 0-.28s.05-1.13.05-1.16a.56.56 0 0 0 .08-.24zM28.53 50.28a4.39 4.39 0 0 1-1.19.52 12.2 12.2 0 0 1-3.68.46 16 16 0 0 1-1.83-.14c-.42-.06-.73-.12-1.11-.21l-.55-.15a4.35 4.35 0 0 1-1.43-.69 1.45 1.45 0 0 1-.4-.42v1.19a1 1 0 0 0 .43.78 6.15 6.15 0 0 0 2.87 1.06 13.74 13.74 0 0 0 2.1.15 12.43 12.43 0 0 0 3-.34 6 6 0 0 0 1.53-.59c.51-.3.8-.66.8-1v-1.18a2.38 2.38 0 0 1-.54.56z"/><path class="cls-2" d="M18.75 49.7a6.05 6.05 0 0 0 2.87 1 13.69 13.69 0 0 0 5.12-.18A5.82 5.82 0 0 0 28.3 50l.33-.24a1.29 1.29 0 0 0 .41-.52.87.87 0 0 0 .05-.28v-1.18c-.18.23-.64.93-2.77 1.36a15.59 15.59 0 0 1-2.75.24 10.11 10.11 0 0 1-4.31-.85 2.89 2.89 0 0 1-.68-.46 2.72 2.72 0 0 1-.33-.4v1.31a1 1 0 0 0 .5.72zM29.21 53.51a2.66 2.66 0 0 1-.66.62 4.63 4.63 0 0 1-1.18.52 12 12 0 0 1-3.69.45 14 14 0 0 1-1.82-.1c-.42-.06-.73-.12-1.11-.21-.2 0-.38-.09-.55-.14a4.84 4.84 0 0 1-1.44-.69 1.65 1.65 0 0 1-.4-.43v1.19a1 1 0 0 0 .42.77 6 6 0 0 0 2.87 1.06 13.88 13.88 0 0 0 2.1.16 13 13 0 0 0 3-.34 6.1 6.1 0 0 0 1.52-.59c.5-.31.8-.66.8-1 .11-.09.15-1.18.14-1.27z"/><path class="cls-2" d="M21.65 54.6a13.68 13.68 0 0 0 2.1.16 13 13 0 0 0 3-.34 6.1 6.1 0 0 0 1.52-.59 3.33 3.33 0 0 0 .34-.24 1.39 1.39 0 0 0 .41-.52.92.92 0 0 0 .05-.28v-1.18c-.18.22-.65.93-2.77 1.36a16.85 16.85 0 0 1-2.75.23 10 10 0 0 1-4.32-.84 3.85 3.85 0 0 1-.68-.46 2.72 2.72 0 0 1-.33-.4v1.31a1 1 0 0 0 .43.75 5.94 5.94 0 0 0 3 1.04z"/></g></svg>