<svg id="TARGETS" xmlns="http://www.w3.org/2000/svg" viewBox="0 0 94.85 94.85" width="94.85" height="94.85"><defs><style>.cls-1{fill:#19486a}.cls-2{fill:#fff}</style></defs><title>Goal_17_RGB_NG</title><path class="cls-1" d="M0 0h94.85v94.85H0z"/><path class="cls-2" d="M4.94 83.75s26-15 27.26-16.24a9.71 9.71 0 0 1 8.57-2.9c4.38.73 7 1.09 9.24 1.37s3.65 0 3.77.77c.14 1-1 2-2.77 2.15s-4.94-.09-5.56-.06-1.13.2-.9.71 3.73.65 4.79.61a21.19 21.19 0 0 0 7.08-1.89c1.89-1 5.61-3.69 6.24-4s1.77-.83 2.25-.19-.43 1.53-1.1 2.18A64.83 64.83 0 0 1 53.66 74c-3.14 1.74-3.93 2-7.15 1.74s-5.82-1.38-7.5-1.14a10.85 10.85 0 0 0-5.16 2.2c-.68.49-13.8 12.7-13.8 12.7H4.94zM69.9 33.36a12 12 0 0 0-11.57-12 12 12 0 0 0-22.67 0 12 12 0 0 0-6.94 21.49 12.23 12.23 0 0 0-.47 3.33 12 12 0 0 0 18.8 9.92 12 12 0 0 0 18.69-10 12.18 12.18 0 0 0-.45-3.27 12 12 0 0 0 4.61-9.46m-13.31-8a9.61 9.61 0 0 1-8.18 9.49 10.31 10.31 0 0 1-.12-1.48 9.6 9.6 0 0 1 8.18-9.48 10.17 10.17 0 0 1 .12 1.47M47 53a9.56 9.56 0 0 1 0-13.7A9.56 9.56 0 0 1 47 53m-9.48-29.12a9.6 9.6 0 0 1 8.18 9.48 10.31 10.31 0 0 1-.12 1.48 9.61 9.61 0 0 1-8.18-9.49 10.17 10.17 0 0 1 .12-1.47m7.16 13.78A9.61 9.61 0 0 1 36.1 43a9.48 9.48 0 0 1-4.4-1.08 9.54 9.54 0 0 1 13-4.22m4.6-.07a9.51 9.51 0 0 1 4.44-1.1 9.62 9.62 0 0 1 8.61 5.37 9.57 9.57 0 0 1-13-4.27M47 15.76a9.59 9.59 0 0 1 8.8 5.77 12.07 12.07 0 0 0-8.8 6.75 12 12 0 0 0-8.79-6.75A9.59 9.59 0 0 1 47 15.76m-20.49 17.6a9.6 9.6 0 0 1 8.57-9.54 11 11 0 0 0-.08 1.53 12 12 0 0 0 3.93 8.88 12 12 0 0 0-9.21 6.25 9.56 9.56 0 0 1-3.18-7.12m4.16 12.81a9.4 9.4 0 0 1 .21-2 12 12 0 0 0 11-.3 11.58 11.58 0 0 0-.21 2.21 12 12 0 0 0 3.4 8.36 9.45 9.45 0 0 1-4.83 1.32 9.6 9.6 0 0 1-9.6-9.6m32.65-.08a9.61 9.61 0 0 1-9.6 9.6A9.49 9.49 0 0 1 49 54.43a12 12 0 0 0 3.3-8.26 11.73 11.73 0 0 0-.23-2.3 12 12 0 0 0 11.07.31 10.06 10.06 0 0 1 .19 1.91m-8.17-11.93A12 12 0 0 0 59 25.35a11 11 0 0 0-.1-1.53 9.58 9.58 0 0 1 5.42 16.63 12 12 0 0 0-9.17-6.29"/></svg>